<?xml version="1.0" standalone="no"?>
 <!DOCTYPE svg PUBLIC "-//W3C//DTD SVG 1.1//EN" 
 "http://www.w3.org/Graphics/SVG/1.1/DTD/svg11.dtd"> 
<svg xmlns="http://www.w3.org/2000/svg" version="1.1" 
    width="29.7002cm" height="21.0007cm" viewBox="0 0 116930 82680 ">
<title>SVG Picture created as CPU_Board-F.SilkS.svg date 2017/09/20 09:45:23 </title>
  <desc>Picture generated by PCBNEW </desc>
<g style="fill:#000000; fill-opacity:1;stroke:#000000; stroke-opacity:1;
stroke-linecap:round; stroke-linejoin:round; "
 transform="translate(0 0) scale(1 1)">
</g>
<g style="fill:#000000; fill-opacity:0.0; 
stroke:#000000; stroke-width:-0.000393701; stroke-opacity:1; 
stroke-linecap:round; stroke-linejoin:round;">
</g>
<g style="fill:#000000; fill-opacity:0.0; 
stroke:#000000; stroke-width:39.3701; stroke-opacity:1; 
stroke-linecap:round; stroke-linejoin:round;">
</g>
<g style="fill:#000000; fill-opacity:0.0; 
stroke:#000000; stroke-width:59.0551; stroke-opacity:1; 
stroke-linecap:round; stroke-linejoin:round;">
<rect x="69685.9" y="65357.2" width="42519.7" height="12598.4" rx="0" />
</g>
<g style="fill:#000000; fill-opacity:0.0; 
stroke:#000000; stroke-width:39.3701; stroke-opacity:1; 
stroke-linecap:round; stroke-linejoin:round;">
</g>
<g style="fill:#000000; fill-opacity:0.0; 
stroke:#000000; stroke-width:59.0551; stroke-opacity:1; 
stroke-linecap:round; stroke-linejoin:round;">
<rect x="3937.01" y="3937.01" width="109056" height="74806" rx="0" />
</g>
<g style="fill:#000000; fill-opacity:0.0; 
stroke:#000000; stroke-width:39.3701; stroke-opacity:1; 
stroke-linecap:round; stroke-linejoin:round;">
</g>
<g style="fill:#000000; fill-opacity:0.0; 
stroke:#000000; stroke-width:59.0551; stroke-opacity:1; 
stroke-linecap:round; stroke-linejoin:round;">
<rect x="4724.41" y="4724.41" width="107481" height="73231.2" rx="0" />
</g>
<g style="fill:#000000; fill-opacity:0.0; 
stroke:#000000; stroke-width:39.3701; stroke-opacity:1; 
stroke-linecap:round; stroke-linejoin:round;">
</g>
<g style="fill:#000000; fill-opacity:0.0; 
stroke:#000000; stroke-width:59.0551; stroke-opacity:1; 
stroke-linecap:round; stroke-linejoin:round;">
<path d="M23622 4724
L23622 3937
" />
</g>
<g style="fill:#000000; fill-opacity:0.0; 
stroke:#000000; stroke-width:39.3701; stroke-opacity:1; 
stroke-linecap:round; stroke-linejoin:round;">
</g>
<g style="fill:#000000; fill-opacity:0.0; 
stroke:#000000; stroke-width:59.0551; stroke-opacity:1; 
stroke-linecap:round; stroke-linejoin:round;">
<path d="M43307 4724
L43307 3937
" />
</g>
<g style="fill:#000000; fill-opacity:0.0; 
stroke:#000000; stroke-width:39.3701; stroke-opacity:1; 
stroke-linecap:round; stroke-linejoin:round;">
</g>
<g style="fill:#000000; fill-opacity:0.0; 
stroke:#000000; stroke-width:59.0551; stroke-opacity:1; 
stroke-linecap:round; stroke-linejoin:round;">
<path d="M62992 4724
L62992 3937
" />
</g>
<g style="fill:#000000; fill-opacity:0.0; 
stroke:#000000; stroke-width:39.3701; stroke-opacity:1; 
stroke-linecap:round; stroke-linejoin:round;">
</g>
<g style="fill:#000000; fill-opacity:0.0; 
stroke:#000000; stroke-width:59.0551; stroke-opacity:1; 
stroke-linecap:round; stroke-linejoin:round;">
<path d="M82677 4724
L82677 3937
" />
</g>
<g style="fill:#000000; fill-opacity:0.0; 
stroke:#000000; stroke-width:39.3701; stroke-opacity:1; 
stroke-linecap:round; stroke-linejoin:round;">
</g>
<g style="fill:#000000; fill-opacity:0.0; 
stroke:#000000; stroke-width:59.0551; stroke-opacity:1; 
stroke-linecap:round; stroke-linejoin:round;">
<path d="M102362 4724
L102362 3937
" />
</g>
<g style="fill:#000000; fill-opacity:0.0; 
stroke:#000000; stroke-width:39.3701; stroke-opacity:1; 
stroke-linecap:round; stroke-linejoin:round;">
</g>
<g style="fill:#000000; fill-opacity:0.0; 
stroke:#000000; stroke-width:59.0551; stroke-opacity:1; 
stroke-linecap:round; stroke-linejoin:round;">
<path d="M14169 4562
L13877 4562
" />
<path d="M14023 4562
L14023 4050
L13974 4123
L13925 4172
L13877 4196
" />
</g>
<g style="fill:#000000; fill-opacity:0.0; 
stroke:#000000; stroke-width:39.3701; stroke-opacity:1; 
stroke-linecap:round; stroke-linejoin:round;">
</g>
<g style="fill:#000000; fill-opacity:0.0; 
stroke:#000000; stroke-width:59.0551; stroke-opacity:1; 
stroke-linecap:round; stroke-linejoin:round;">
<path d="M33562 4099
L33586 4074
L33635 4050
L33757 4050
L33805 4074
L33830 4099
L33854 4147
L33854 4196
L33830 4269
L33537 4562
L33854 4562
" />
</g>
<g style="fill:#000000; fill-opacity:0.0; 
stroke:#000000; stroke-width:39.3701; stroke-opacity:1; 
stroke-linecap:round; stroke-linejoin:round;">
</g>
<g style="fill:#000000; fill-opacity:0.0; 
stroke:#000000; stroke-width:59.0551; stroke-opacity:1; 
stroke-linecap:round; stroke-linejoin:round;">
<path d="M53222 4050
L53539 4050
L53368 4245
L53442 4245
L53490 4269
L53515 4294
L53539 4342
L53539 4464
L53515 4513
L53490 4537
L53442 4562
L53295 4562
L53247 4537
L53222 4513
" />
</g>
<g style="fill:#000000; fill-opacity:0.0; 
stroke:#000000; stroke-width:39.3701; stroke-opacity:1; 
stroke-linecap:round; stroke-linejoin:round;">
</g>
<g style="fill:#000000; fill-opacity:0.0; 
stroke:#000000; stroke-width:59.0551; stroke-opacity:1; 
stroke-linecap:round; stroke-linejoin:round;">
<path d="M73175 4221
L73175 4562
" />
<path d="M73053 4026
L72932 4391
L73248 4391
" />
</g>
<g style="fill:#000000; fill-opacity:0.0; 
stroke:#000000; stroke-width:39.3701; stroke-opacity:1; 
stroke-linecap:round; stroke-linejoin:round;">
</g>
<g style="fill:#000000; fill-opacity:0.0; 
stroke:#000000; stroke-width:59.0551; stroke-opacity:1; 
stroke-linecap:round; stroke-linejoin:round;">
<path d="M92885 4050
L92641 4050
L92617 4294
L92641 4269
L92690 4245
L92812 4245
L92860 4269
L92885 4294
L92909 4342
L92909 4464
L92885 4513
L92860 4537
L92812 4562
L92690 4562
L92641 4537
L92617 4513
" />
</g>
<g style="fill:#000000; fill-opacity:0.0; 
stroke:#000000; stroke-width:39.3701; stroke-opacity:1; 
stroke-linecap:round; stroke-linejoin:round;">
</g>
<g style="fill:#000000; fill-opacity:0.0; 
stroke:#000000; stroke-width:59.0551; stroke-opacity:1; 
stroke-linecap:round; stroke-linejoin:round;">
<path d="M112545 4050
L112448 4050
L112399 4074
L112375 4099
L112326 4172
L112302 4269
L112302 4464
L112326 4513
L112350 4537
L112399 4562
L112497 4562
L112545 4537
L112570 4513
L112594 4464
L112594 4342
L112570 4294
L112545 4269
L112497 4245
L112399 4245
L112350 4269
L112326 4294
L112302 4342
" />
</g>
<g style="fill:#000000; fill-opacity:0.0; 
stroke:#000000; stroke-width:39.3701; stroke-opacity:1; 
stroke-linecap:round; stroke-linejoin:round;">
</g>
<g style="fill:#000000; fill-opacity:0.0; 
stroke:#000000; stroke-width:59.0551; stroke-opacity:1; 
stroke-linecap:round; stroke-linejoin:round;">
<path d="M23622 77955
L23622 78742
" />
</g>
<g style="fill:#000000; fill-opacity:0.0; 
stroke:#000000; stroke-width:39.3701; stroke-opacity:1; 
stroke-linecap:round; stroke-linejoin:round;">
</g>
<g style="fill:#000000; fill-opacity:0.0; 
stroke:#000000; stroke-width:59.0551; stroke-opacity:1; 
stroke-linecap:round; stroke-linejoin:round;">
<path d="M43307 77955
L43307 78742
" />
</g>
<g style="fill:#000000; fill-opacity:0.0; 
stroke:#000000; stroke-width:39.3701; stroke-opacity:1; 
stroke-linecap:round; stroke-linejoin:round;">
</g>
<g style="fill:#000000; fill-opacity:0.0; 
stroke:#000000; stroke-width:59.0551; stroke-opacity:1; 
stroke-linecap:round; stroke-linejoin:round;">
<path d="M62992 77955
L62992 78742
" />
</g>
<g style="fill:#000000; fill-opacity:0.0; 
stroke:#000000; stroke-width:39.3701; stroke-opacity:1; 
stroke-linecap:round; stroke-linejoin:round;">
</g>
<g style="fill:#000000; fill-opacity:0.0; 
stroke:#000000; stroke-width:59.0551; stroke-opacity:1; 
stroke-linecap:round; stroke-linejoin:round;">
<path d="M82677 77955
L82677 78742
" />
</g>
<g style="fill:#000000; fill-opacity:0.0; 
stroke:#000000; stroke-width:39.3701; stroke-opacity:1; 
stroke-linecap:round; stroke-linejoin:round;">
</g>
<g style="fill:#000000; fill-opacity:0.0; 
stroke:#000000; stroke-width:59.0551; stroke-opacity:1; 
stroke-linecap:round; stroke-linejoin:round;">
<path d="M102362 77955
L102362 78742
" />
</g>
<g style="fill:#000000; fill-opacity:0.0; 
stroke:#000000; stroke-width:39.3701; stroke-opacity:1; 
stroke-linecap:round; stroke-linejoin:round;">
</g>
<g style="fill:#000000; fill-opacity:0.0; 
stroke:#000000; stroke-width:59.0551; stroke-opacity:1; 
stroke-linecap:round; stroke-linejoin:round;">
<path d="M14169 78580
L13877 78580
" />
<path d="M14023 78580
L14023 78069
L13974 78142
L13925 78190
L13877 78215
" />
</g>
<g style="fill:#000000; fill-opacity:0.0; 
stroke:#000000; stroke-width:39.3701; stroke-opacity:1; 
stroke-linecap:round; stroke-linejoin:round;">
</g>
<g style="fill:#000000; fill-opacity:0.0; 
stroke:#000000; stroke-width:59.0551; stroke-opacity:1; 
stroke-linecap:round; stroke-linejoin:round;">
<path d="M33562 78117
L33586 78093
L33635 78069
L33757 78069
L33805 78093
L33830 78117
L33854 78166
L33854 78215
L33830 78288
L33537 78580
L33854 78580
" />
</g>
<g style="fill:#000000; fill-opacity:0.0; 
stroke:#000000; stroke-width:39.3701; stroke-opacity:1; 
stroke-linecap:round; stroke-linejoin:round;">
</g>
<g style="fill:#000000; fill-opacity:0.0; 
stroke:#000000; stroke-width:59.0551; stroke-opacity:1; 
stroke-linecap:round; stroke-linejoin:round;">
<path d="M53222 78069
L53539 78069
L53368 78263
L53442 78263
L53490 78288
L53515 78312
L53539 78361
L53539 78483
L53515 78532
L53490 78556
L53442 78580
L53295 78580
L53247 78556
L53222 78532
" />
</g>
<g style="fill:#000000; fill-opacity:0.0; 
stroke:#000000; stroke-width:39.3701; stroke-opacity:1; 
stroke-linecap:round; stroke-linejoin:round;">
</g>
<g style="fill:#000000; fill-opacity:0.0; 
stroke:#000000; stroke-width:59.0551; stroke-opacity:1; 
stroke-linecap:round; stroke-linejoin:round;">
<path d="M73175 78239
L73175 78580
" />
<path d="M73053 78044
L72932 78410
L73248 78410
" />
</g>
<g style="fill:#000000; fill-opacity:0.0; 
stroke:#000000; stroke-width:39.3701; stroke-opacity:1; 
stroke-linecap:round; stroke-linejoin:round;">
</g>
<g style="fill:#000000; fill-opacity:0.0; 
stroke:#000000; stroke-width:59.0551; stroke-opacity:1; 
stroke-linecap:round; stroke-linejoin:round;">
<path d="M92885 78069
L92641 78069
L92617 78312
L92641 78288
L92690 78263
L92812 78263
L92860 78288
L92885 78312
L92909 78361
L92909 78483
L92885 78532
L92860 78556
L92812 78580
L92690 78580
L92641 78556
L92617 78532
" />
</g>
<g style="fill:#000000; fill-opacity:0.0; 
stroke:#000000; stroke-width:39.3701; stroke-opacity:1; 
stroke-linecap:round; stroke-linejoin:round;">
</g>
<g style="fill:#000000; fill-opacity:0.0; 
stroke:#000000; stroke-width:59.0551; stroke-opacity:1; 
stroke-linecap:round; stroke-linejoin:round;">
<path d="M112545 78069
L112448 78069
L112399 78093
L112375 78117
L112326 78190
L112302 78288
L112302 78483
L112326 78532
L112350 78556
L112399 78580
L112497 78580
L112545 78556
L112570 78532
L112594 78483
L112594 78361
L112570 78312
L112545 78288
L112497 78263
L112399 78263
L112350 78288
L112326 78312
L112302 78361
" />
</g>
<g style="fill:#000000; fill-opacity:0.0; 
stroke:#000000; stroke-width:39.3701; stroke-opacity:1; 
stroke-linecap:round; stroke-linejoin:round;">
</g>
<g style="fill:#000000; fill-opacity:0.0; 
stroke:#000000; stroke-width:59.0551; stroke-opacity:1; 
stroke-linecap:round; stroke-linejoin:round;">
<path d="M3937 23622
L4724 23622
" />
</g>
<g style="fill:#000000; fill-opacity:0.0; 
stroke:#000000; stroke-width:39.3701; stroke-opacity:1; 
stroke-linecap:round; stroke-linejoin:round;">
</g>
<g style="fill:#000000; fill-opacity:0.0; 
stroke:#000000; stroke-width:59.0551; stroke-opacity:1; 
stroke-linecap:round; stroke-linejoin:round;">
<path d="M3937 43307
L4724 43307
" />
</g>
<g style="fill:#000000; fill-opacity:0.0; 
stroke:#000000; stroke-width:39.3701; stroke-opacity:1; 
stroke-linecap:round; stroke-linejoin:round;">
</g>
<g style="fill:#000000; fill-opacity:0.0; 
stroke:#000000; stroke-width:59.0551; stroke-opacity:1; 
stroke-linecap:round; stroke-linejoin:round;">
<path d="M3937 62992
L4724 62992
" />
</g>
<g style="fill:#000000; fill-opacity:0.0; 
stroke:#000000; stroke-width:39.3701; stroke-opacity:1; 
stroke-linecap:round; stroke-linejoin:round;">
</g>
<g style="fill:#000000; fill-opacity:0.0; 
stroke:#000000; stroke-width:59.0551; stroke-opacity:1; 
stroke-linecap:round; stroke-linejoin:round;">
<path d="M4208 13864
L4452 13864
" />
<path d="M4160 14011
L4330 13499
L4501 14011
" />
</g>
<g style="fill:#000000; fill-opacity:0.0; 
stroke:#000000; stroke-width:39.3701; stroke-opacity:1; 
stroke-linecap:round; stroke-linejoin:round;">
</g>
<g style="fill:#000000; fill-opacity:0.0; 
stroke:#000000; stroke-width:59.0551; stroke-opacity:1; 
stroke-linecap:round; stroke-linejoin:round;">
<path d="M4367 33428
L4440 33452
L4464 33476
L4489 33525
L4489 33598
L4464 33647
L4440 33671
L4391 33696
L4196 33696
L4196 33184
L4367 33184
L4416 33208
L4440 33233
L4464 33281
L4464 33330
L4440 33379
L4416 33403
L4367 33428
L4196 33428
" />
</g>
<g style="fill:#000000; fill-opacity:0.0; 
stroke:#000000; stroke-width:39.3701; stroke-opacity:1; 
stroke-linecap:round; stroke-linejoin:round;">
</g>
<g style="fill:#000000; fill-opacity:0.0; 
stroke:#000000; stroke-width:59.0551; stroke-opacity:1; 
stroke-linecap:round; stroke-linejoin:round;">
<path d="M4489 53332
L4464 53356
L4391 53381
L4342 53381
L4269 53356
L4221 53308
L4196 53259
L4172 53161
L4172 53088
L4196 52991
L4221 52942
L4269 52893
L4342 52869
L4391 52869
L4464 52893
L4489 52918
" />
</g>
<g style="fill:#000000; fill-opacity:0.0; 
stroke:#000000; stroke-width:39.3701; stroke-opacity:1; 
stroke-linecap:round; stroke-linejoin:round;">
</g>
<g style="fill:#000000; fill-opacity:0.0; 
stroke:#000000; stroke-width:59.0551; stroke-opacity:1; 
stroke-linecap:round; stroke-linejoin:round;">
<path d="M4196 73066
L4196 72554
L4318 72554
L4391 72578
L4440 72627
L4464 72676
L4489 72773
L4489 72846
L4464 72944
L4440 72993
L4391 73041
L4318 73066
L4196 73066
" />
</g>
<g style="fill:#000000; fill-opacity:0.0; 
stroke:#000000; stroke-width:39.3701; stroke-opacity:1; 
stroke-linecap:round; stroke-linejoin:round;">
</g>
<g style="fill:#000000; fill-opacity:0.0; 
stroke:#000000; stroke-width:59.0551; stroke-opacity:1; 
stroke-linecap:round; stroke-linejoin:round;">
<path d="M112992 23622
L112205 23622
" />
</g>
<g style="fill:#000000; fill-opacity:0.0; 
stroke:#000000; stroke-width:39.3701; stroke-opacity:1; 
stroke-linecap:round; stroke-linejoin:round;">
</g>
<g style="fill:#000000; fill-opacity:0.0; 
stroke:#000000; stroke-width:59.0551; stroke-opacity:1; 
stroke-linecap:round; stroke-linejoin:round;">
<path d="M112992 43307
L112205 43307
" />
</g>
<g style="fill:#000000; fill-opacity:0.0; 
stroke:#000000; stroke-width:39.3701; stroke-opacity:1; 
stroke-linecap:round; stroke-linejoin:round;">
</g>
<g style="fill:#000000; fill-opacity:0.0; 
stroke:#000000; stroke-width:59.0551; stroke-opacity:1; 
stroke-linecap:round; stroke-linejoin:round;">
<path d="M112992 62992
L112205 62992
" />
</g>
<g style="fill:#000000; fill-opacity:0.0; 
stroke:#000000; stroke-width:39.3701; stroke-opacity:1; 
stroke-linecap:round; stroke-linejoin:round;">
</g>
<g style="fill:#000000; fill-opacity:0.0; 
stroke:#000000; stroke-width:59.0551; stroke-opacity:1; 
stroke-linecap:round; stroke-linejoin:round;">
<path d="M112477 13864
L112721 13864
" />
<path d="M112428 14011
L112599 13499
L112769 14011
" />
</g>
<g style="fill:#000000; fill-opacity:0.0; 
stroke:#000000; stroke-width:39.3701; stroke-opacity:1; 
stroke-linecap:round; stroke-linejoin:round;">
</g>
<g style="fill:#000000; fill-opacity:0.0; 
stroke:#000000; stroke-width:59.0551; stroke-opacity:1; 
stroke-linecap:round; stroke-linejoin:round;">
<path d="M112635 33428
L112708 33452
L112733 33476
L112757 33525
L112757 33598
L112733 33647
L112708 33671
L112660 33696
L112465 33696
L112465 33184
L112635 33184
L112684 33208
L112708 33233
L112733 33281
L112733 33330
L112708 33379
L112684 33403
L112635 33428
L112465 33428
" />
</g>
<g style="fill:#000000; fill-opacity:0.0; 
stroke:#000000; stroke-width:39.3701; stroke-opacity:1; 
stroke-linecap:round; stroke-linejoin:round;">
</g>
<g style="fill:#000000; fill-opacity:0.0; 
stroke:#000000; stroke-width:59.0551; stroke-opacity:1; 
stroke-linecap:round; stroke-linejoin:round;">
<path d="M112757 53332
L112733 53356
L112660 53381
L112611 53381
L112538 53356
L112489 53308
L112465 53259
L112440 53161
L112440 53088
L112465 52991
L112489 52942
L112538 52893
L112611 52869
L112660 52869
L112733 52893
L112757 52918
" />
</g>
<g style="fill:#000000; fill-opacity:0.0; 
stroke:#000000; stroke-width:39.3701; stroke-opacity:1; 
stroke-linecap:round; stroke-linejoin:round;">
</g>
<g style="fill:#000000; fill-opacity:0.0; 
stroke:#000000; stroke-width:59.0551; stroke-opacity:1; 
stroke-linecap:round; stroke-linejoin:round;">
<path d="M112465 73066
L112465 72554
L112587 72554
L112660 72578
L112708 72627
L112733 72676
L112757 72773
L112757 72846
L112733 72944
L112708 72993
L112660 73041
L112587 73066
L112465 73066
" />
</g>
<g style="fill:#000000; fill-opacity:0.0; 
stroke:#000000; stroke-width:39.3701; stroke-opacity:1; 
stroke-linecap:round; stroke-linejoin:round;">
</g>
<g style="fill:#000000; fill-opacity:0.0; 
stroke:#000000; stroke-width:59.0551; stroke-opacity:1; 
stroke-linecap:round; stroke-linejoin:round;">
<path d="M78881 76293
L78881 75703
L79022 75703
L79106 75731
L79162 75787
L79190 75843
L79219 75956
L79219 76040
L79190 76153
L79162 76209
L79106 76265
L79022 76293
L78881 76293
" />
<path d="M79725 76293
L79725 75984
L79697 75928
L79640 75899
L79528 75899
L79472 75928
" />
<path d="M79725 76265
L79669 76293
L79528 76293
L79472 76265
L79444 76209
L79444 76153
L79472 76096
L79528 76068
L79669 76068
L79725 76040
" />
<path d="M79922 75899
L80147 75899
" />
<path d="M80006 75703
L80006 76209
L80034 76265
L80090 76293
L80147 76293
" />
<path d="M80568 76265
L80512 76293
L80400 76293
L80343 76265
L80315 76209
L80315 75984
L80343 75928
L80400 75899
L80512 75899
L80568 75928
L80597 75984
L80597 76040
L80315 76096
" />
<path d="M80850 76237
L80878 76265
L80850 76293
L80822 76265
L80850 76237
L80850 76293
" />
<path d="M80850 75928
L80878 75956
L80850 75984
L80822 75956
L80850 75928
L80850 75984
" />
</g>
<g style="fill:#000000; fill-opacity:0.0; 
stroke:#000000; stroke-width:39.3701; stroke-opacity:1; 
stroke-linecap:round; stroke-linejoin:round;">
</g>
<g style="fill:#000000; fill-opacity:0.0; 
stroke:#000000; stroke-width:59.0551; stroke-opacity:1; 
stroke-linecap:round; stroke-linejoin:round;">
<path d="M69685 76577
L112205 76577
" />
</g>
<g style="fill:#000000; fill-opacity:0.0; 
stroke:#000000; stroke-width:39.3701; stroke-opacity:1; 
stroke-linecap:round; stroke-linejoin:round;">
</g>
<g style="fill:#000000; fill-opacity:0.0; 
stroke:#000000; stroke-width:59.0551; stroke-opacity:1; 
stroke-linecap:round; stroke-linejoin:round;">
<path d="M70220 77395
L70220 76805
" />
<path d="M70557 77395
L70304 77058
" />
<path d="M70557 76805
L70220 77142
" />
<path d="M70810 77395
L70810 77002
" />
<path d="M70810 76805
L70782 76833
L70810 76861
L70838 76833
L70810 76805
L70810 76861
" />
<path d="M71429 77339
L71401 77367
L71316 77395
L71260 77395
L71176 77367
L71120 77311
L71091 77255
L71063 77142
L71063 77058
L71091 76946
L71120 76889
L71176 76833
L71260 76805
L71316 76805
L71401 76833
L71429 76861
" />
<path d="M71935 77395
L71935 77086
L71907 77030
L71851 77002
L71738 77002
L71682 77030
" />
<path d="M71935 77367
L71879 77395
L71738 77395
L71682 77367
L71654 77311
L71654 77255
L71682 77199
L71738 77171
L71879 77171
L71935 77142
" />
<path d="M72469 77395
L72469 76805
" />
<path d="M72469 77367
L72413 77395
L72301 77395
L72244 77367
L72216 77339
L72188 77283
L72188 77114
L72216 77058
L72244 77030
L72301 77002
L72413 77002
L72469 77030
" />
<path d="M73201 77086
L73397 77086
" />
<path d="M73482 77395
L73201 77395
L73201 76805
L73482 76805
" />
<path d="M73735 77339
L73763 77367
L73735 77395
L73707 77367
L73735 77339
L73735 77395
" />
<path d="M74016 77395
L74016 76805
L74157 76805
L74241 76833
L74297 76889
L74325 76946
L74354 77058
L74354 77142
L74325 77255
L74297 77311
L74241 77367
L74157 77395
L74016 77395
" />
<path d="M74607 77339
L74635 77367
L74607 77395
L74579 77367
L74607 77339
L74607 77395
" />
<path d="M74860 77227
L75141 77227
" />
<path d="M74804 77395
L75000 76805
L75197 77395
" />
<path d="M75394 77339
L75422 77367
L75394 77395
L75366 77367
L75394 77339
L75394 77395
" />
<path d="M76575 77395
L76575 76805
" />
<path d="M76631 77171
L76800 77395
" />
<path d="M76800 77002
L76575 77227
" />
<path d="M77053 77395
L77053 77002
" />
<path d="M77053 76805
L77025 76833
L77053 76861
L77081 76833
L77053 76805
L77053 76861
" />
<path d="M77588 77367
L77531 77395
L77419 77395
L77363 77367
L77334 77339
L77306 77283
L77306 77114
L77334 77058
L77363 77030
L77419 77002
L77531 77002
L77588 77030
" />
<path d="M78094 77395
L78094 77086
L78066 77030
L78009 77002
L77897 77002
L77841 77030
" />
<path d="M78094 77367
L78037 77395
L77897 77395
L77841 77367
L77813 77311
L77813 77255
L77841 77199
L77897 77171
L78037 77171
L78094 77142
" />
<path d="M78628 77395
L78628 76805
" />
<path d="M78628 77367
L78572 77395
L78459 77395
L78403 77367
L78375 77339
L78347 77283
L78347 77114
L78375 77058
L78403 77030
L78459 77002
L78572 77002
L78628 77030
" />
<path d="M79612 77002
L79612 77395
" />
<path d="M79472 76777
L79331 77199
L79697 77199
" />
<path d="M79922 77339
L79950 77367
L79922 77395
L79894 77367
L79922 77339
L79922 77395
" />
<path d="M80315 76805
L80372 76805
L80428 76833
L80456 76861
L80484 76917
L80512 77030
L80512 77171
L80484 77283
L80456 77339
L80428 77367
L80372 77395
L80315 77395
L80259 77367
L80231 77339
L80203 77283
L80175 77171
L80175 77030
L80203 76917
L80231 76861
L80259 76833
L80315 76805
" />
<path d="M80765 77339
L80793 77367
L80765 77395
L80737 77367
L80765 77339
L80765 77395
" />
<path d="M81300 77002
L81300 77395
" />
<path d="M81159 76777
L81018 77199
L81384 77199
" />
<path d="M81609 77171
L82059 77171
" />
<path d="M82312 77367
L82368 77395
L82481 77395
L82537 77367
L82565 77311
L82565 77283
L82537 77227
L82481 77199
L82396 77199
L82340 77171
L82312 77114
L82312 77086
L82340 77030
L82396 77002
L82481 77002
L82537 77030
" />
<path d="M82734 77002
L82959 77002
" />
<path d="M82818 76805
L82818 77311
L82846 77367
L82903 77395
L82959 77395
" />
<path d="M83409 77395
L83409 77086
L83381 77030
L83324 77002
L83212 77002
L83156 77030
" />
<path d="M83409 77367
L83352 77395
L83212 77395
L83156 77367
L83127 77311
L83127 77255
L83156 77199
L83212 77171
L83352 77171
L83409 77142
" />
<path d="M83690 77395
L83690 76805
" />
<path d="M83690 77030
L83746 77002
L83859 77002
L83915 77030
L83943 77058
L83971 77114
L83971 77283
L83943 77339
L83915 77367
L83859 77395
L83746 77395
L83690 77367
" />
<path d="M84309 77395
L84252 77367
L84224 77311
L84224 76805
" />
<path d="M84759 77367
L84702 77395
L84590 77395
L84534 77367
L84505 77311
L84505 77086
L84534 77030
L84590 77002
L84702 77002
L84759 77030
L84787 77086
L84787 77142
L84505 77199
" />
</g>
<g style="fill:#000000; fill-opacity:0.0; 
stroke:#000000; stroke-width:39.3701; stroke-opacity:1; 
stroke-linecap:round; stroke-linejoin:round;">
</g>
<g style="fill:#000000; fill-opacity:0.0; 
stroke:#000000; stroke-width:59.0551; stroke-opacity:1; 
stroke-linecap:round; stroke-linejoin:round;">
<path d="M69685 75396
L112205 75396
" />
</g>
<g style="fill:#000000; fill-opacity:0.0; 
stroke:#000000; stroke-width:39.3701; stroke-opacity:1; 
stroke-linecap:round; stroke-linejoin:round;">
</g>
<g style="fill:#000000; fill-opacity:0.0; 
stroke:#000000; stroke-width:118.11; stroke-opacity:1; 
stroke-linecap:round; stroke-linejoin:round;">
<path d="M104022 76293
L103825 76012
" />
<path d="M103684 76293
L103684 75703
L103909 75703
L103965 75731
L103994 75759
L104022 75815
L104022 75899
L103994 75956
L103965 75984
L103909 76012
L103684 76012
" />
<path d="M104500 76265
L104444 76293
L104331 76293
L104275 76265
L104247 76209
L104247 75984
L104275 75928
L104331 75899
L104444 75899
L104500 75928
L104528 75984
L104528 76040
L104247 76096
" />
<path d="M104725 75899
L104865 76293
L105006 75899
" />
<path d="M105231 76237
L105259 76265
L105231 76293
L105203 76265
L105231 76237
L105231 76293
" />
<path d="M105231 75928
L105259 75956
L105231 75984
L105203 75956
L105231 75928
L105231 75984
" />
</g>
<g style="fill:#000000; fill-opacity:0.0; 
stroke:#000000; stroke-width:39.3701; stroke-opacity:1; 
stroke-linecap:round; stroke-linejoin:round;">
</g>
<g style="fill:#000000; fill-opacity:0.0; 
stroke:#000000; stroke-width:59.0551; stroke-opacity:1; 
stroke-linecap:round; stroke-linejoin:round;">
<path d="M70192 76265
L70276 76293
L70417 76293
L70473 76265
L70501 76237
L70529 76181
L70529 76124
L70501 76068
L70473 76040
L70417 76012
L70304 75984
L70248 75956
L70220 75928
L70192 75871
L70192 75815
L70220 75759
L70248 75731
L70304 75703
L70445 75703
L70529 75731
" />
<path d="M70782 76293
L70782 75899
" />
<path d="M70782 75703
L70754 75731
L70782 75759
L70810 75731
L70782 75703
L70782 75759
" />
<path d="M71007 75899
L71316 75899
L71007 76293
L71316 76293
" />
<path d="M71766 76265
L71710 76293
L71598 76293
L71541 76265
L71513 76209
L71513 75984
L71541 75928
L71598 75899
L71710 75899
L71766 75928
L71795 75984
L71795 76040
L71513 76096
" />
<path d="M72048 76237
L72076 76265
L72048 76293
L72019 76265
L72048 76237
L72048 76293
" />
<path d="M72048 75928
L72076 75956
L72048 75984
L72019 75956
L72048 75928
L72048 75984
" />
<path d="M72751 76124
L73032 76124
" />
<path d="M72694 76293
L72891 75703
L73088 76293
" />
<path d="M73538 75899
L73538 76293
" />
<path d="M73397 75674
L73257 76096
L73622 76096
" />
</g>
<g style="fill:#000000; fill-opacity:0.0; 
stroke:#000000; stroke-width:39.3701; stroke-opacity:1; 
stroke-linecap:round; stroke-linejoin:round;">
</g>
<g style="fill:#000000; fill-opacity:0.0; 
stroke:#000000; stroke-width:59.0551; stroke-opacity:1; 
stroke-linecap:round; stroke-linejoin:round;">
<path d="M103684 77395
L103684 76805
" />
<path d="M104219 77395
L104219 76805
" />
<path d="M104219 77367
L104162 77395
L104050 77395
L103994 77367
L103965 77339
L103937 77283
L103937 77114
L103965 77058
L103994 77030
L104050 77002
L104162 77002
L104219 77030
" />
<path d="M104500 77339
L104528 77367
L104500 77395
L104472 77367
L104500 77339
L104500 77395
" />
<path d="M104500 77030
L104528 77058
L104500 77086
L104472 77058
L104500 77030
L104500 77086
" />
<path d="M105540 77395
L105203 77395
" />
<path d="M105372 77395
L105372 76805
L105315 76889
L105259 76946
L105203 76974
" />
<path d="M106215 76777
L105709 77536
" />
<path d="M106721 77395
L106384 77395
" />
<path d="M106553 77395
L106553 76805
L106496 76889
L106440 76946
L106384 76974
" />
</g>
<g style="fill:#000000; fill-opacity:0.0; 
stroke:#000000; stroke-width:39.3701; stroke-opacity:1; 
stroke-linecap:round; stroke-linejoin:round;">
</g>
<g style="fill:#000000; fill-opacity:0.0; 
stroke:#000000; stroke-width:59.0551; stroke-opacity:1; 
stroke-linecap:round; stroke-linejoin:round;">
<path d="M69685 73821
L112205 73821
" />
</g>
<g style="fill:#000000; fill-opacity:0.0; 
stroke:#000000; stroke-width:39.3701; stroke-opacity:1; 
stroke-linecap:round; stroke-linejoin:round;">
</g>
<g style="fill:#000000; fill-opacity:0.0; 
stroke:#000000; stroke-width:157.48; stroke-opacity:1; 
stroke-linecap:round; stroke-linejoin:round;">
<path d="M70257 74099
L70707 74099
" />
<path d="M70384 74886
L70482 74099
" />
<path d="M70871 74886
L70937 74361
" />
<path d="M70970 74099
L70927 74136
L70960 74174
L71002 74136
L70970 74099
L70960 74174
" />
<path d="M71199 74361
L71499 74361
" />
<path d="M71345 74099
L71260 74774
L71288 74849
L71359 74886
L71434 74886
" />
<path d="M71809 74886
L71738 74849
L71710 74774
L71795 74099
" />
<path d="M72413 74849
L72334 74886
L72184 74886
L72113 74849
L72085 74774
L72123 74474
L72169 74399
L72249 74361
L72399 74361
L72469 74399
L72498 74474
L72488 74549
L72104 74624
" />
<path d="M72793 74811
L72826 74849
L72783 74886
L72751 74849
L72793 74811
L72783 74886
" />
<path d="M72844 74399
L72877 74436
L72835 74474
L72802 74436
L72844 74399
L72835 74474
" />
</g>
<g style="fill:#000000; fill-opacity:0.0; 
stroke:#000000; stroke-width:39.3701; stroke-opacity:1; 
stroke-linecap:round; stroke-linejoin:round;">
</g>
<g style="fill:#000000; fill-opacity:0.0; 
stroke:#000000; stroke-width:59.0551; stroke-opacity:1; 
stroke-linecap:round; stroke-linejoin:round;">
<path d="M70417 73070
L70220 73070
" />
<path d="M70220 73380
L70220 72789
L70501 72789
" />
<path d="M70726 73380
L70726 72986
" />
<path d="M70726 72789
L70698 72817
L70726 72845
L70754 72817
L70726 72789
L70726 72845
" />
<path d="M71091 73380
L71035 73352
L71007 73295
L71007 72789
" />
<path d="M71541 73352
L71485 73380
L71373 73380
L71316 73352
L71288 73295
L71288 73070
L71316 73014
L71373 72986
L71485 72986
L71541 73014
L71570 73070
L71570 73127
L71288 73183
" />
<path d="M71823 73323
L71851 73352
L71823 73380
L71795 73352
L71823 73323
L71823 73380
" />
<path d="M71823 73014
L71851 73042
L71823 73070
L71795 73042
L71823 73014
L71823 73070
" />
<path d="M72891 73323
L72863 73352
L72779 73380
L72723 73380
L72638 73352
L72582 73295
L72554 73239
L72526 73127
L72526 73042
L72554 72930
L72582 72874
L72638 72817
L72723 72789
L72779 72789
L72863 72817
L72891 72845
" />
<path d="M73144 73380
L73144 72789
L73369 72789
L73426 72817
L73454 72845
L73482 72902
L73482 72986
L73454 73042
L73426 73070
L73369 73099
L73144 73099
" />
<path d="M73735 72789
L73735 73267
L73763 73323
L73791 73352
L73847 73380
L73960 73380
L74016 73352
L74044 73323
L74072 73267
L74072 72789
" />
<path d="M74213 73436
L74663 73436
" />
<path d="M75000 73070
L75085 73099
L75113 73127
L75141 73183
L75141 73267
L75113 73323
L75085 73352
L75028 73380
L74804 73380
L74804 72789
L75000 72789
L75057 72817
L75085 72845
L75113 72902
L75113 72958
L75085 73014
L75057 73042
L75000 73070
L74804 73070
" />
<path d="M75478 73380
L75422 73352
L75394 73323
L75366 73267
L75366 73099
L75394 73042
L75422 73014
L75478 72986
L75563 72986
L75619 73014
L75647 73042
L75675 73099
L75675 73267
L75647 73323
L75619 73352
L75563 73380
L75478 73380
" />
<path d="M76181 73380
L76181 73070
L76153 73014
L76097 72986
L75985 72986
L75928 73014
" />
<path d="M76181 73352
L76125 73380
L75985 73380
L75928 73352
L75900 73295
L75900 73239
L75928 73183
L75985 73155
L76125 73155
L76181 73127
" />
<path d="M76463 73380
L76463 72986
" />
<path d="M76463 73099
L76491 73042
L76519 73014
L76575 72986
L76631 72986
" />
<path d="M77081 73380
L77081 72789
" />
<path d="M77081 73352
L77025 73380
L76913 73380
L76856 73352
L76828 73323
L76800 73267
L76800 73099
L76828 73042
L76856 73014
L76913 72986
L77025 72986
L77081 73014
" />
<path d="M77363 73323
L77391 73352
L77363 73380
L77334 73352
L77363 73323
L77363 73380
" />
<path d="M77644 73380
L77644 72789
" />
<path d="M77700 73155
L77869 73380
" />
<path d="M77869 72986
L77644 73211
" />
<path d="M78122 73380
L78122 72986
" />
<path d="M78122 72789
L78094 72817
L78122 72845
L78150 72817
L78122 72789
L78122 72845
" />
<path d="M78656 73352
L78600 73380
L78487 73380
L78431 73352
L78403 73323
L78375 73267
L78375 73099
L78403 73042
L78431 73014
L78487 72986
L78600 72986
L78656 73014
" />
<path d="M79162 73380
L79162 73070
L79134 73014
L79078 72986
L78965 72986
L78909 73014
" />
<path d="M79162 73352
L79106 73380
L78965 73380
L78909 73352
L78881 73295
L78881 73239
L78909 73183
L78965 73155
L79106 73155
L79162 73127
" />
<path d="M79697 73380
L79697 72789
" />
<path d="M79697 73352
L79640 73380
L79528 73380
L79472 73352
L79444 73323
L79415 73267
L79415 73099
L79444 73042
L79472 73014
L79528 72986
L79640 72986
L79697 73014
" />
<path d="M79837 73436
L80287 73436
" />
<path d="M80428 72986
L80428 73577
" />
<path d="M80428 73014
L80484 72986
L80597 72986
L80653 73014
L80681 73042
L80709 73099
L80709 73267
L80681 73323
L80653 73352
L80597 73380
L80484 73380
L80428 73352
" />
<path d="M81215 73352
L81159 73380
L81046 73380
L80990 73352
L80962 73323
L80934 73267
L80934 73099
L80962 73042
L80990 73014
L81046 72986
L81159 72986
L81215 73014
" />
<path d="M81468 73380
L81468 72789
" />
<path d="M81468 73014
L81525 72986
L81637 72986
L81693 73014
L81721 73042
L81750 73099
L81750 73267
L81721 73323
L81693 73352
L81637 73380
L81525 73380
L81468 73352
" />
</g>
<g style="fill:#000000; fill-opacity:0.0; 
stroke:#000000; stroke-width:39.3701; stroke-opacity:1; 
stroke-linecap:round; stroke-linejoin:round;">
</g>
<g style="fill:#000000; fill-opacity:0.0; 
stroke:#000000; stroke-width:59.0551; stroke-opacity:1; 
stroke-linecap:round; stroke-linejoin:round;">
<path d="M69685 71459
L112205 71459
" />
</g>
<g style="fill:#000000; fill-opacity:0.0; 
stroke:#000000; stroke-width:39.3701; stroke-opacity:1; 
stroke-linecap:round; stroke-linejoin:round;">
</g>
<g style="fill:#000000; fill-opacity:0.0; 
stroke:#000000; stroke-width:59.0551; stroke-opacity:1; 
stroke-linecap:round; stroke-linejoin:round;">
<path d="M70192 72289
L70276 72317
L70417 72317
L70473 72289
L70501 72260
L70529 72204
L70529 72148
L70501 72092
L70473 72064
L70417 72036
L70304 72007
L70248 71979
L70220 71951
L70192 71895
L70192 71839
L70220 71782
L70248 71754
L70304 71726
L70445 71726
L70529 71754
" />
<path d="M70782 72317
L70782 71726
" />
<path d="M71035 72317
L71035 72007
L71007 71951
L70951 71923
L70867 71923
L70810 71951
L70782 71979
" />
<path d="M71541 72289
L71485 72317
L71373 72317
L71316 72289
L71288 72232
L71288 72007
L71316 71951
L71373 71923
L71485 71923
L71541 71951
L71570 72007
L71570 72064
L71288 72120
" />
<path d="M72048 72289
L71991 72317
L71879 72317
L71823 72289
L71795 72232
L71795 72007
L71823 71951
L71879 71923
L71991 71923
L72048 71951
L72076 72007
L72076 72064
L71795 72120
" />
<path d="M72244 71923
L72469 71923
" />
<path d="M72329 71726
L72329 72232
L72357 72289
L72413 72317
L72469 72317
" />
<path d="M72666 72260
L72694 72289
L72666 72317
L72638 72289
L72666 72260
L72666 72317
" />
<path d="M72666 71951
L72694 71979
L72666 72007
L72638 71979
L72666 71951
L72666 72007
" />
</g>
<g style="fill:#000000; fill-opacity:0.0; 
stroke:#000000; stroke-width:39.3701; stroke-opacity:1; 
stroke-linecap:round; stroke-linejoin:round;">
</g>
<g style="fill:#000000; fill-opacity:0.0; 
stroke:#000000; stroke-width:59.0551; stroke-opacity:1; 
stroke-linecap:round; stroke-linejoin:round;">
<path d="M77559 75396
L77559 76577
" />
</g>
<g style="fill:#000000; fill-opacity:0.0; 
stroke:#000000; stroke-width:39.3701; stroke-opacity:1; 
stroke-linecap:round; stroke-linejoin:round;">
</g>
<g style="fill:#000000; fill-opacity:0.0; 
stroke:#000000; stroke-width:59.0551; stroke-opacity:1; 
stroke-linecap:round; stroke-linejoin:round;">
<path d="M102756 75396
L102756 77955
" />
</g>
<g style="fill:#C2C200; fill-opacity:0.0; 
stroke:#C2C200; stroke-width:59.0551; stroke-opacity:1; 
stroke-linecap:round; stroke-linejoin:round;">
<path d="M117000 0
L116300 0
" />
<path d="M58100 67194
L58100 34498
" />
<path d="M9635 67200
L58100 67200
" />
<path d="M9635 34498
L9635 67200
" />
<path d="M58100 34500
L9635 34500
" />
<path d="M37357 46634
L37357 46953
L37376 46991
L37395 47009
L37432 47028
L37507 47028
L37544 47009
L37563 46991
L37582 46953
L37582 46634
" />
<path d="M37976 47028
L37751 47028
" />
<path d="M37863 47028
L37863 46634
L37826 46691
L37788 46728
L37751 46747
" />
</g>
<g style="fill:#008484; fill-opacity:0.0; 
stroke:#008484; stroke-width:59.0551; stroke-opacity:1; 
stroke-linecap:round; stroke-linejoin:round;">
<path d="M52231 45087
L52231 45406
L52250 45443
L52269 45462
L52306 45481
L52381 45481
L52419 45462
L52437 45443
L52456 45406
L52456 45087
" />
<path d="M52831 45087
L52643 45087
L52625 45275
L52643 45256
L52681 45237
L52775 45237
L52812 45256
L52831 45275
L52850 45312
L52850 45406
L52831 45443
L52812 45462
L52775 45481
L52681 45481
L52643 45462
L52625 45443
" />
<path d="M52165 52374
L52352 52374
" />
<path d="M52127 52487
L52258 52093
L52390 52487
" />
<path d="M52502 52130
L52521 52112
L52558 52093
L52652 52093
L52690 52112
L52708 52130
L52727 52168
L52727 52205
L52708 52262
L52483 52487
L52727 52487
" />
<path d="M52877 52130
L52896 52112
L52933 52093
L53027 52093
L53064 52112
L53083 52130
L53102 52168
L53102 52205
L53083 52262
L52858 52487
L53102 52487
" />
<path d="M53233 52093
L53477 52093
L53346 52243
L53402 52243
L53439 52262
L53458 52280
L53477 52318
L53477 52412
L53458 52449
L53439 52468
L53402 52487
L53289 52487
L53252 52468
L53233 52449
" />
<path d="M53833 52093
L53646 52093
L53627 52280
L53646 52262
L53683 52243
L53777 52243
L53814 52262
L53833 52280
L53852 52318
L53852 52412
L53833 52449
L53814 52468
L53777 52487
L53683 52487
L53646 52468
L53627 52449
" />
<path d="M54021 52337
L54321 52337
" />
<path d="M54508 52487
L54508 52093
" />
<path d="M54508 52280
L54733 52280
" />
<path d="M54733 52487
L54733 52093
" />
</g>
<g style="fill:#C2C200; fill-opacity:0.0; 
stroke:#C2C200; stroke-width:59.0551; stroke-opacity:1; 
stroke-linecap:round; stroke-linejoin:round;">
<path d="M44217 45741
L44217 45347
L44367 45347
L44404 45366
L44423 45384
L44442 45422
L44442 45478
L44423 45516
L44404 45534
L44367 45553
L44217 45553
" />
<path d="M44573 45347
L44835 45347
L44667 45741
" />
<path d="M39089 38465
L39108 38484
L39126 38540
L39126 38578
L39108 38634
L39070 38671
L39033 38690
L38958 38709
L38901 38709
L38826 38690
L38789 38671
L38751 38634
L38733 38578
L38733 38540
L38751 38484
L38770 38465
" />
<path d="M38770 38315
L38751 38296
L38733 38259
L38733 38165
L38751 38128
L38770 38109
L38808 38090
L38845 38090
L38901 38109
L39126 38334
L39126 38090
" />
<path d="M38733 37734
L38733 37922
L38920 37940
L38901 37922
L38883 37884
L38883 37790
L38901 37753
L38920 37734
L38958 37715
L39051 37715
L39089 37734
L39108 37753
L39126 37790
L39126 37884
L39108 37922
L39089 37940
" />
<path d="M17896 39410
L17709 39410
L17709 39016
" />
<path d="M18234 39410
L18009 39410
" />
<path d="M18121 39410
L18121 39016
L18084 39072
L18046 39110
L18009 39129
" />
<path d="M9226 63746
L8832 63746
L8832 63596
L8851 63559
L8869 63540
L8907 63521
L8963 63521
L9001 63540
L9019 63559
L9038 63596
L9038 63746
" />
<path d="M9226 63146
L9226 63371
" />
<path d="M9226 63259
L8832 63259
L8888 63296
L8926 63334
L8944 63371
" />
<path d="M10650 39011
L10256 39011
L10256 38861
L10275 38823
L10294 38804
L10331 38786
L10388 38786
L10425 38804
L10444 38823
L10463 38861
L10463 39011
" />
<path d="M10294 38636
L10275 38617
L10256 38579
L10256 38486
L10275 38448
L10294 38429
L10331 38411
L10369 38411
L10425 38429
L10650 38654
L10650 38411
" />
<path d="M29548 38062
L29154 38062
L29154 37912
L29173 37874
L29191 37856
L29229 37837
L29285 37837
L29323 37856
L29341 37874
L29360 37912
L29360 38062
" />
<path d="M29285 37499
L29548 37499
" />
<path d="M29135 37593
L29416 37687
L29416 37443
" />
<path d="M11565 42414
L11565 42020
L11715 42020
L11752 42039
L11771 42058
L11790 42095
L11790 42151
L11771 42189
L11752 42208
L11715 42226
L11565 42226
" />
<path d="M12165 42414
L11940 42414
" />
<path d="M12052 42414
L12052 42020
L12015 42076
L11977 42114
L11940 42133
" />
<path d="M12521 42020
L12333 42020
L12315 42208
L12333 42189
L12371 42170
L12465 42170
L12502 42189
L12521 42208
L12540 42245
L12540 42339
L12521 42376
L12502 42395
L12465 42414
L12371 42414
L12333 42395
L12315 42376
" />
<path d="M35919 64256
L35919 63863
L36069 63863
L36107 63881
L36125 63900
L36144 63938
L36144 63994
L36125 64031
L36107 64050
L36069 64069
L35919 64069
" />
<path d="M36519 64256
L36294 64256
" />
<path d="M36407 64256
L36407 63863
L36369 63919
L36332 63956
L36294 63975
" />
<path d="M36856 63863
L36781 63863
L36744 63881
L36725 63900
L36688 63956
L36669 64031
L36669 64181
L36688 64219
L36706 64238
L36744 64256
L36819 64256
L36856 64238
L36875 64219
L36894 64181
L36894 64088
L36875 64050
L36856 64031
L36819 64013
L36744 64013
L36706 64031
L36688 64050
L36669 64088
" />
<path d="M11573 56567
L11573 56174
L11723 56174
L11760 56192
L11779 56211
L11798 56249
L11798 56305
L11779 56342
L11760 56361
L11723 56380
L11573 56380
" />
<path d="M12173 56567
L11948 56567
" />
<path d="M12060 56567
L12060 56174
L12023 56230
L11985 56267
L11948 56286
" />
<path d="M12304 56174
L12566 56174
L12398 56567
" />
<path d="M51628 57201
L51628 56808
L51778 56808
L51815 56826
L51834 56845
L51853 56883
L51853 56939
L51834 56976
L51815 56995
L51778 57014
L51628 57014
" />
<path d="M52228 57201
L52003 57201
" />
<path d="M52115 57201
L52115 56808
L52078 56864
L52040 56901
L52003 56920
" />
<path d="M52453 56976
L52415 56958
L52396 56939
L52378 56901
L52378 56883
L52396 56845
L52415 56826
L52453 56808
L52528 56808
L52565 56826
L52584 56845
L52603 56883
L52603 56901
L52584 56939
L52565 56958
L52528 56976
L52453 56976
L52415 56995
L52396 57014
L52378 57051
L52378 57126
L52396 57164
L52415 57182
L52453 57201
L52528 57201
L52565 57182
L52584 57164
L52603 57126
L52603 57051
L52584 57014
L52565 56995
L52528 56976
" />
<path d="M29356 51603
L29356 51209
L29506 51209
L29544 51228
L29562 51247
L29581 51284
L29581 51340
L29562 51378
L29544 51397
L29506 51415
L29356 51415
" />
<path d="M29956 51603
L29731 51603
" />
<path d="M29844 51603
L29844 51209
L29806 51265
L29769 51303
L29731 51322
" />
<path d="M30143 51603
L30218 51603
L30256 51584
L30275 51565
L30312 51509
L30331 51434
L30331 51284
L30312 51247
L30293 51228
L30256 51209
L30181 51209
L30143 51228
L30125 51247
L30106 51284
L30106 51378
L30125 51415
L30143 51434
L30181 51453
L30256 51453
L30293 51434
L30312 51415
L30331 51378
" />
<path d="M55628 35867
L55628 35473
L55778 35473
L55815 35492
L55834 35510
L55853 35548
L55853 35604
L55834 35642
L55815 35660
L55778 35679
L55628 35679
" />
<path d="M56003 35510
L56021 35492
L56059 35473
L56153 35473
L56190 35492
L56209 35510
L56228 35548
L56228 35585
L56209 35642
L55984 35867
L56228 35867
" />
<path d="M56471 35473
L56509 35473
L56546 35492
L56565 35510
L56584 35548
L56603 35623
L56603 35717
L56584 35792
L56565 35829
L56546 35848
L56509 35867
L56471 35867
L56434 35848
L56415 35829
L56396 35792
L56378 35717
L56378 35623
L56396 35548
L56415 35510
L56434 35492
L56471 35473
" />
<path d="M12957 48142
L12957 47748
L13107 47748
L13144 47767
L13163 47786
L13182 47823
L13182 47880
L13163 47917
L13144 47936
L13107 47955
L12957 47955
" />
<path d="M13313 47748
L13557 47748
L13426 47898
L13482 47898
L13519 47917
L13538 47936
L13557 47973
L13557 48067
L13538 48105
L13519 48123
L13482 48142
L13369 48142
L13332 48123
L13313 48105
" />
<path d="M15131 61337
L15112 61374
L15075 61412
L15018 61468
L15000 61506
L15000 61543
" />
<path d="M15093 61524
L15075 61562
L15037 61599
L14962 61618
L14831 61618
L14756 61599
L14718 61562
L14700 61524
L14700 61449
L14718 61412
L14756 61374
L14831 61356
L14962 61356
L15037 61374
L15075 61412
L15093 61449
L15093 61524
" />
<path d="M15093 60981
L15093 61206
" />
<path d="M15093 61093
L14700 61093
L14756 61131
L14793 61168
L14812 61206
" />
<path d="M21405 62446
L21386 62484
L21349 62521
L21292 62578
L21274 62615
L21274 62653
" />
<path d="M21367 62634
L21349 62671
L21311 62709
L21236 62728
L21105 62728
L21030 62709
L20992 62671
L20974 62634
L20974 62559
L20992 62521
L21030 62484
L21105 62465
L21236 62465
L21311 62484
L21349 62521
L21367 62559
L21367 62634
" />
<path d="M21011 62315
L20992 62296
L20974 62259
L20974 62165
L20992 62128
L21011 62109
L21049 62090
L21086 62090
L21142 62109
L21367 62334
L21367 62090
" />
<path d="M24005 62446
L23986 62484
L23949 62521
L23892 62578
L23874 62615
L23874 62653
" />
<path d="M23967 62634
L23949 62671
L23911 62709
L23836 62728
L23705 62728
L23630 62709
L23592 62671
L23574 62634
L23574 62559
L23592 62521
L23630 62484
L23705 62465
L23836 62465
L23911 62484
L23949 62521
L23967 62559
L23967 62634
" />
<path d="M23574 62334
L23574 62090
L23724 62221
L23724 62165
L23742 62128
L23761 62109
L23799 62090
L23892 62090
L23930 62109
L23949 62128
L23967 62165
L23967 62278
L23949 62315
L23930 62334
" />
<path d="M45494 53479
L45456 53460
L45419 53423
L45362 53366
L45325 53348
L45287 53348
" />
<path d="M45306 53441
L45269 53423
L45231 53385
L45212 53310
L45212 53179
L45231 53104
L45269 53066
L45306 53048
L45381 53048
L45419 53066
L45456 53104
L45475 53179
L45475 53310
L45456 53385
L45419 53423
L45381 53441
L45306 53441
" />
<path d="M45812 53179
L45812 53441
" />
<path d="M45718 53029
L45625 53310
L45868 53310
" />
<path d="M43328 53479
L43291 53460
L43253 53423
L43197 53366
L43159 53348
L43122 53348
" />
<path d="M43141 53441
L43103 53423
L43066 53385
L43047 53310
L43047 53179
L43066 53104
L43103 53066
L43141 53048
L43216 53048
L43253 53066
L43291 53104
L43309 53179
L43309 53310
L43291 53385
L43253 53423
L43216 53441
L43141 53441
" />
<path d="M43666 53048
L43478 53048
L43459 53235
L43478 53216
L43516 53198
L43609 53198
L43647 53216
L43666 53235
L43684 53273
L43684 53366
L43666 53404
L43647 53423
L43609 53441
L43516 53441
L43478 53423
L43459 53404
" />
<path d="M45868 50906
L45737 50718
" />
<path d="M45643 50906
L45643 50512
L45793 50512
L45831 50531
L45850 50550
L45868 50587
L45868 50643
L45850 50681
L45831 50700
L45793 50718
L45643 50718
" />
<path d="M46243 50906
L46018 50906
" />
<path d="M46131 50906
L46131 50512
L46093 50568
L46056 50606
L46018 50625
" />
<path d="M46581 50643
L46581 50906
" />
<path d="M46487 50494
L46393 50775
L46637 50775
" />
<path d="M22465 41841
L22465 42160
L22484 42197
L22503 42216
L22540 42235
L22615 42235
L22653 42216
L22672 42197
L22690 42160
L22690 41841
" />
<path d="M22859 41878
L22878 41860
L22915 41841
L23009 41841
L23046 41860
L23065 41878
L23084 41916
L23084 41953
L23065 42010
L22840 42235
L23084 42235
" />
<path d="M30135 64530
L30454 64530
L30492 64511
L30510 64492
L30529 64455
L30529 64380
L30510 64342
L30492 64324
L30454 64305
L30135 64305
" />
<path d="M30135 64155
L30135 63911
L30285 64042
L30285 63986
L30304 63949
L30323 63930
L30360 63911
L30454 63911
L30492 63930
L30510 63949
L30529 63986
L30529 64099
L30510 64136
L30492 64155
" />
<path d="M41916 64855
L41916 65173
L41935 65211
L41954 65230
L41991 65248
L42066 65248
L42104 65230
L42122 65211
L42141 65173
L42141 64855
" />
<path d="M42497 64986
L42497 65248
" />
<path d="M42404 64836
L42310 65117
L42553 65117
" />
<path d="M44030 38119
L44030 38437
L44049 38475
L44068 38494
L44105 38512
L44180 38512
L44218 38494
L44236 38475
L44255 38437
L44255 38119
" />
<path d="M44611 38119
L44536 38119
L44499 38137
L44480 38156
L44443 38212
L44424 38287
L44424 38437
L44443 38475
L44461 38494
L44499 38512
L44574 38512
L44611 38494
L44630 38475
L44649 38437
L44649 38344
L44630 38306
L44611 38287
L44574 38269
L44499 38269
L44461 38287
L44443 38306
L44424 38344
" />
<path d="M40137 38717
L40137 39036
L40155 39073
L40174 39092
L40212 39111
L40287 39111
L40324 39092
L40343 39073
L40362 39036
L40362 38717
" />
<path d="M40511 38717
L40774 38717
L40605 39111
" />
<path d="M15926 49197
L16244 49197
L16282 49178
L16301 49160
L16319 49122
L16319 49047
L16301 49010
L16282 48991
L16244 48972
L15926 48972
" />
<path d="M16094 48728
L16076 48766
L16057 48785
L16019 48803
L16001 48803
L15963 48785
L15944 48766
L15926 48728
L15926 48653
L15944 48616
L15963 48597
L16001 48578
L16019 48578
L16057 48597
L16076 48616
L16094 48653
L16094 48728
L16113 48766
L16132 48785
L16169 48803
L16244 48803
L16282 48785
L16301 48766
L16319 48728
L16319 48653
L16301 48616
L16282 48597
L16244 48578
L16169 48578
L16132 48597
L16113 48616
L16094 48653
" />
<path d="M38099 43445
L38099 43632
" />
<path d="M37968 43239
L38099 43445
L38231 43239
" />
<path d="M38568 43632
L38343 43632
" />
<path d="M38456 43632
L38456 43239
L38418 43295
L38381 43332
L38343 43351
" />
<path d="M33900 44136
L33882 44155
L33825 44174
L33788 44174
L33732 44155
L33694 44117
L33675 44080
L33657 44005
L33657 43949
L33675 43874
L33694 43836
L33732 43799
L33788 43780
L33825 43780
L33882 43799
L33900 43817
" />
<path d="M34275 44174
L34050 44174
" />
<path d="M34163 44174
L34163 43780
L34125 43836
L34088 43874
L34050 43892
" />
<path d="M40022 43654
L40004 43673
L39947 43691
L39910 43691
L39854 43673
L39816 43635
L39797 43598
L39779 43523
L39779 43466
L39797 43391
L39816 43354
L39854 43316
L39910 43298
L39947 43298
L40004 43316
L40022 43335
" />
<path d="M40172 43335
L40191 43316
L40229 43298
L40322 43298
L40360 43316
L40379 43335
L40397 43373
L40397 43410
L40379 43466
L40154 43691
L40397 43691
" />
<path d="M36430 44313
L36411 44332
L36355 44351
L36317 44351
L36261 44332
L36224 44295
L36205 44257
L36186 44182
L36186 44126
L36205 44051
L36224 44013
L36261 43976
L36317 43957
L36355 43957
L36411 43976
L36430 43995
" />
<path d="M36561 43957
L36805 43957
L36674 44107
L36730 44107
L36767 44126
L36786 44145
L36805 44182
L36805 44276
L36786 44313
L36767 44332
L36730 44351
L36617 44351
L36580 44332
L36561 44313
" />
<path d="M33940 42788
L33921 42806
L33865 42825
L33827 42825
L33771 42806
L33734 42769
L33715 42732
L33696 42657
L33696 42600
L33715 42525
L33734 42488
L33771 42450
L33827 42432
L33865 42432
L33921 42450
L33940 42469
" />
<path d="M34277 42563
L34277 42825
" />
<path d="M34184 42413
L34090 42694
L34333 42694
" />
</g>
<g style="fill:#008484; fill-opacity:0.0; 
stroke:#008484; stroke-width:59.0551; stroke-opacity:1; 
stroke-linecap:round; stroke-linejoin:round;">
<path d="M32735 43408
L33035 43408
" />
<path d="M32885 43558
L32885 43258
" />
</g>
<g style="fill:#C2C200; fill-opacity:0.0; 
stroke:#C2C200; stroke-width:59.0551; stroke-opacity:1; 
stroke-linecap:round; stroke-linejoin:round;">
<path d="M33762 49140
L33781 49159
L33800 49215
L33800 49252
L33781 49309
L33743 49346
L33706 49365
L33631 49384
L33575 49384
L33500 49365
L33462 49346
L33425 49309
L33406 49252
L33406 49215
L33425 49159
L33443 49140
" />
<path d="M33406 48784
L33406 48971
L33593 48990
L33575 48971
L33556 48934
L33556 48840
L33575 48802
L33593 48784
L33631 48765
L33725 48765
L33762 48784
L33781 48802
L33800 48840
L33800 48934
L33781 48971
L33762 48990
" />
</g>
<g style="fill:#008484; fill-opacity:0.0; 
stroke:#008484; stroke-width:59.0551; stroke-opacity:1; 
stroke-linecap:round; stroke-linejoin:round;">
<path d="M32396 48203
L32396 47903
" />
<path d="M32546 48053
L32246 48053
" />
</g>
<g style="fill:#C2C200; fill-opacity:0.0; 
stroke:#C2C200; stroke-width:59.0551; stroke-opacity:1; 
stroke-linecap:round; stroke-linejoin:round;">
<path d="M20701 39770
L20720 39789
L20739 39845
L20739 39882
L20720 39939
L20682 39976
L20645 39995
L20570 40014
L20514 40014
L20439 39995
L20401 39976
L20364 39939
L20345 39882
L20345 39845
L20364 39789
L20382 39770
" />
<path d="M20345 39432
L20345 39507
L20364 39545
L20382 39564
L20439 39601
L20514 39620
L20664 39620
L20701 39601
L20720 39582
L20739 39545
L20739 39470
L20720 39432
L20701 39414
L20664 39395
L20570 39395
L20532 39414
L20514 39432
L20495 39470
L20495 39545
L20514 39582
L20532 39601
L20570 39620
" />
<path d="M20434 35605
L20415 35623
L20359 35642
L20321 35642
L20265 35623
L20228 35586
L20209 35548
L20190 35473
L20190 35417
L20209 35342
L20228 35305
L20265 35267
L20321 35248
L20359 35248
L20415 35267
L20434 35286
" />
<path d="M20565 35248
L20828 35248
L20659 35642
" />
</g>
<g style="fill:#008484; fill-opacity:0.0; 
stroke:#008484; stroke-width:59.0551; stroke-opacity:1; 
stroke-linecap:round; stroke-linejoin:round;">
<path d="M21682 34835
L21982 34835
" />
<path d="M21832 34985
L21832 34685
" />
</g>
<g style="fill:#C2C200; fill-opacity:0.0; 
stroke:#C2C200; stroke-width:59.0551; stroke-opacity:1; 
stroke-linecap:round; stroke-linejoin:round;">
<path d="M19757 37492
L19738 37511
L19682 37530
L19644 37530
L19588 37511
L19550 37474
L19532 37436
L19513 37361
L19513 37305
L19532 37230
L19550 37193
L19588 37155
L19644 37136
L19682 37136
L19738 37155
L19757 37174
" />
<path d="M19982 37305
L19944 37286
L19925 37267
L19907 37230
L19907 37211
L19925 37174
L19944 37155
L19982 37136
L20057 37136
L20094 37155
L20113 37174
L20132 37211
L20132 37230
L20113 37267
L20094 37286
L20057 37305
L19982 37305
L19944 37324
L19925 37342
L19907 37380
L19907 37455
L19925 37492
L19944 37511
L19982 37530
L20057 37530
L20094 37511
L20113 37492
L20132 37455
L20132 37380
L20113 37342
L20094 37324
L20057 37305
" />
<path d="M38989 50646
L38970 50665
L38914 50684
L38877 50684
L38820 50665
L38783 50627
L38764 50590
L38745 50515
L38745 50459
L38764 50384
L38783 50346
L38820 50309
L38877 50290
L38914 50290
L38970 50309
L38989 50327
" />
<path d="M39176 50684
L39251 50684
L39289 50665
L39308 50646
L39345 50590
L39364 50515
L39364 50365
L39345 50327
L39326 50309
L39289 50290
L39214 50290
L39176 50309
L39158 50327
L39139 50365
L39139 50459
L39158 50496
L39176 50515
L39214 50534
L39289 50534
L39326 50515
L39345 50496
L39364 50459
" />
</g>
<g style="fill:#008484; fill-opacity:0.0; 
stroke:#008484; stroke-width:59.0551; stroke-opacity:1; 
stroke-linecap:round; stroke-linejoin:round;">
<path d="M39995 51136
L40295 51136
" />
<path d="M40145 51286
L40145 50986
" />
</g>
<g style="fill:#C2C200; fill-opacity:0.0; 
stroke:#C2C200; stroke-width:59.0551; stroke-opacity:1; 
stroke-linecap:round; stroke-linejoin:round;">
<path d="M40337 50593
L40318 50612
L40262 50630
L40224 50630
L40168 50612
L40131 50574
L40112 50537
L40093 50462
L40093 50405
L40112 50330
L40131 50293
L40168 50255
L40224 50237
L40262 50237
L40318 50255
L40337 50274
" />
<path d="M40712 50630
L40487 50630
" />
<path d="M40599 50630
L40599 50237
L40562 50293
L40524 50330
L40487 50349
" />
<path d="M40956 50237
L40993 50237
L41031 50255
L41049 50274
L41068 50312
L41087 50387
L41087 50480
L41068 50555
L41049 50593
L41031 50612
L40993 50630
L40956 50630
L40918 50612
L40899 50593
L40881 50555
L40862 50480
L40862 50387
L40881 50312
L40899 50274
L40918 50255
L40956 50237
" />
<path d="M25977 65223
L25995 65242
L26014 65298
L26014 65336
L25995 65392
L25958 65429
L25920 65448
L25845 65467
L25789 65467
L25714 65448
L25677 65429
L25639 65392
L25621 65336
L25621 65298
L25639 65242
L25658 65223
" />
<path d="M26014 64848
L26014 65073
" />
<path d="M26014 64961
L25621 64961
L25677 64998
L25714 65036
L25733 65073
" />
<path d="M26014 64473
L26014 64698
" />
<path d="M26014 64586
L25621 64586
L25677 64623
L25714 64661
L25733 64698
" />
<path d="M41725 46217
L41744 46236
L41762 46292
L41762 46330
L41744 46386
L41706 46423
L41669 46442
L41594 46461
L41537 46461
L41462 46442
L41425 46423
L41387 46386
L41369 46330
L41369 46292
L41387 46236
L41406 46217
" />
<path d="M41762 45842
L41762 46067
" />
<path d="M41762 45955
L41369 45955
L41425 45992
L41462 46030
L41481 46067
" />
<path d="M41406 45692
L41387 45673
L41369 45636
L41369 45542
L41387 45505
L41406 45486
L41444 45467
L41481 45467
L41537 45486
L41762 45711
L41762 45467
" />
<path d="M27829 62053
L27810 62072
L27754 62091
L27717 62091
L27660 62072
L27623 62035
L27604 61997
L27585 61922
L27585 61866
L27604 61791
L27623 61754
L27660 61716
L27717 61697
L27754 61697
L27810 61716
L27829 61735
" />
<path d="M28204 62091
L27979 62091
" />
<path d="M28092 62091
L28092 61697
L28054 61754
L28017 61791
L27979 61810
" />
<path d="M28335 61697
L28579 61697
L28448 61847
L28504 61847
L28541 61866
L28560 61885
L28579 61922
L28579 62016
L28560 62053
L28541 62072
L28504 62091
L28392 62091
L28354 62072
L28335 62053
" />
<path d="M33831 46154
L33812 46173
L33756 46191
L33719 46191
L33662 46173
L33625 46135
L33606 46098
L33587 46023
L33587 45966
L33606 45891
L33625 45854
L33662 45816
L33719 45798
L33756 45798
L33812 45816
L33831 45835
" />
<path d="M34206 46191
L33981 46191
" />
<path d="M34094 46191
L34094 45798
L34056 45854
L34019 45891
L33981 45910
" />
<path d="M34543 45929
L34543 46191
" />
<path d="M34450 45779
L34356 46060
L34600 46060
" />
<path d="M34766 50568
L34785 50586
L34804 50643
L34804 50680
L34785 50736
L34747 50774
L34710 50793
L34635 50811
L34579 50811
L34504 50793
L34466 50774
L34429 50736
L34410 50680
L34410 50643
L34429 50586
L34447 50568
" />
<path d="M34804 50193
L34804 50418
" />
<path d="M34804 50305
L34410 50305
L34466 50343
L34504 50380
L34522 50418
" />
<path d="M34410 49836
L34410 50024
L34597 50043
L34579 50024
L34560 49986
L34560 49893
L34579 49855
L34597 49836
L34635 49818
L34729 49818
L34766 49836
L34785 49855
L34804 49893
L34804 49986
L34785 50024
L34766 50043
" />
<path d="M21400 51262
L21381 51281
L21325 51300
L21287 51300
L21231 51281
L21194 51243
L21175 51206
L21156 51131
L21156 51075
L21175 51000
L21194 50962
L21231 50925
L21287 50906
L21325 50906
L21381 50925
L21400 50943
" />
<path d="M21775 51300
L21550 51300
" />
<path d="M21662 51300
L21662 50906
L21625 50962
L21587 51000
L21550 51018
" />
<path d="M22112 50906
L22037 50906
L22000 50925
L21981 50943
L21944 51000
L21925 51075
L21925 51225
L21944 51262
L21962 51281
L22000 51300
L22075 51300
L22112 51281
L22131 51262
L22150 51225
L22150 51131
L22131 51093
L22112 51075
L22075 51056
L22000 51056
L21962 51075
L21944 51093
L21925 51131
" />
<path d="M26770 59817
L26751 59836
L26695 59855
L26658 59855
L26601 59836
L26564 59799
L26545 59761
L26526 59686
L26526 59630
L26545 59555
L26564 59517
L26601 59480
L26658 59461
L26695 59461
L26751 59480
L26770 59499
" />
<path d="M27145 59855
L26920 59855
" />
<path d="M27032 59855
L27032 59461
L26995 59517
L26958 59555
L26920 59574
" />
<path d="M27276 59461
L27539 59461
L27370 59855
" />
</g>
<g style="fill:#008484; fill-opacity:0.0; 
stroke:#008484; stroke-width:59.0551; stroke-opacity:1; 
stroke-linecap:round; stroke-linejoin:round;">
<path d="M25487 61146
L25787 61146
" />
<path d="M25637 61296
L25637 60996
" />
</g>
<g style="fill:#C2C200; fill-opacity:0.0; 
stroke:#C2C200; stroke-width:59.0551; stroke-opacity:1; 
stroke-linecap:round; stroke-linejoin:round;">
<path d="M23467 52640
L23448 52659
L23392 52678
L23354 52678
L23298 52659
L23261 52621
L23242 52584
L23223 52509
L23223 52453
L23242 52378
L23261 52340
L23298 52303
L23354 52284
L23392 52284
L23448 52303
L23467 52321
" />
<path d="M23842 52678
L23617 52678
" />
<path d="M23729 52678
L23729 52284
L23692 52340
L23654 52378
L23617 52396
" />
<path d="M24067 52453
L24029 52434
L24011 52415
L23992 52378
L23992 52359
L24011 52321
L24029 52303
L24067 52284
L24142 52284
L24179 52303
L24198 52321
L24217 52359
L24217 52378
L24198 52415
L24179 52434
L24142 52453
L24067 52453
L24029 52471
L24011 52490
L23992 52528
L23992 52603
L24011 52640
L24029 52659
L24067 52678
L24142 52678
L24179 52659
L24198 52640
L24217 52603
L24217 52528
L24198 52490
L24179 52471
L24142 52453
" />
<path d="M29924 58784
L29905 58803
L29849 58821
L29811 58821
L29755 58803
L29717 58765
L29699 58728
L29680 58653
L29680 58596
L29699 58521
L29717 58484
L29755 58446
L29811 58428
L29849 58428
L29905 58446
L29924 58465
" />
<path d="M30299 58821
L30074 58821
" />
<path d="M30186 58821
L30186 58428
L30149 58484
L30111 58521
L30074 58540
" />
<path d="M30486 58821
L30561 58821
L30598 58803
L30617 58784
L30655 58728
L30673 58653
L30673 58503
L30655 58465
L30636 58446
L30598 58428
L30523 58428
L30486 58446
L30467 58465
L30449 58503
L30449 58596
L30467 58634
L30486 58653
L30523 58671
L30598 58671
L30636 58653
L30655 58634
L30673 58596
" />
</g>
<g style="fill:#008484; fill-opacity:0.0; 
stroke:#008484; stroke-width:59.0551; stroke-opacity:1; 
stroke-linecap:round; stroke-linejoin:round;">
<path d="M31357 59293
L31657 59293
" />
<path d="M31507 59443
L31507 59143
" />
</g>
<g style="fill:#C2C200; fill-opacity:0.0; 
stroke:#C2C200; stroke-width:59.0551; stroke-opacity:1; 
stroke-linecap:round; stroke-linejoin:round;">
<path d="M29731 62282
L29712 62301
L29656 62319
L29618 62319
L29562 62301
L29524 62263
L29506 62226
L29487 62151
L29487 62094
L29506 62019
L29524 61982
L29562 61944
L29618 61926
L29656 61926
L29712 61944
L29731 61963
" />
<path d="M29881 61963
L29899 61944
L29937 61926
L30031 61926
L30068 61944
L30087 61963
L30106 62001
L30106 62038
L30087 62094
L29862 62319
L30106 62319
" />
<path d="M30349 61926
L30387 61926
L30424 61944
L30443 61963
L30462 62001
L30481 62076
L30481 62169
L30462 62244
L30443 62282
L30424 62301
L30387 62319
L30349 62319
L30312 62301
L30293 62282
L30274 62244
L30256 62169
L30256 62076
L30274 62001
L30293 61963
L30312 61944
L30349 61926
" />
<path d="M45833 60164
L45814 60182
L45758 60201
L45721 60201
L45664 60182
L45627 60145
L45608 60107
L45589 60032
L45589 59976
L45608 59901
L45627 59864
L45664 59826
L45721 59808
L45758 59808
L45814 59826
L45833 59845
" />
<path d="M45983 59845
L46002 59826
L46039 59808
L46133 59808
L46170 59826
L46189 59845
L46208 59883
L46208 59920
L46189 59976
L45964 60201
L46208 60201
" />
<path d="M46583 60201
L46358 60201
" />
<path d="M46470 60201
L46470 59808
L46433 59864
L46395 59901
L46358 59920
" />
<path d="M57707 47670
L57726 47689
L57745 47745
L57745 47782
L57726 47839
L57688 47876
L57651 47895
L57576 47914
L57520 47914
L57445 47895
L57407 47876
L57370 47839
L57351 47782
L57351 47745
L57370 47689
L57388 47670
" />
<path d="M57388 47520
L57370 47501
L57351 47464
L57351 47370
L57370 47332
L57388 47314
L57426 47295
L57463 47295
L57520 47314
L57745 47539
L57745 47295
" />
<path d="M57388 47145
L57370 47126
L57351 47089
L57351 46995
L57370 46958
L57388 46939
L57426 46920
L57463 46920
L57520 46939
L57745 47164
L57745 46920
" />
<path d="M44467 39766
L44448 39785
L44392 39804
L44354 39804
L44298 39785
L44261 39747
L44242 39710
L44223 39635
L44223 39579
L44242 39504
L44261 39466
L44298 39429
L44354 39410
L44392 39410
L44448 39429
L44467 39447
" />
<path d="M44617 39447
L44636 39429
L44673 39410
L44767 39410
L44804 39429
L44823 39447
L44842 39485
L44842 39522
L44823 39579
L44598 39804
L44842 39804
" />
<path d="M44973 39410
L45217 39410
L45086 39560
L45142 39560
L45179 39579
L45198 39597
L45217 39635
L45217 39729
L45198 39766
L45179 39785
L45142 39804
L45029 39804
L44992 39785
L44973 39766
" />
<path d="M46278 38926
L46297 38945
L46315 39001
L46315 39038
L46297 39095
L46259 39132
L46222 39151
L46147 39170
L46090 39170
L46015 39151
L45978 39132
L45940 39095
L45922 39038
L45922 39001
L45940 38945
L45959 38926
" />
<path d="M45959 38776
L45940 38757
L45922 38720
L45922 38626
L45940 38588
L45959 38570
L45997 38551
L46034 38551
L46090 38570
L46315 38795
L46315 38551
" />
<path d="M46053 38213
L46315 38213
" />
<path d="M45903 38307
L46184 38401
L46184 38157
" />
</g>
<g style="fill:#008484; fill-opacity:0.0; 
stroke:#008484; stroke-width:59.0551; stroke-opacity:1; 
stroke-linecap:round; stroke-linejoin:round;">
<path d="M46787 37492
L46787 37192
" />
<path d="M46937 37342
L46637 37342
" />
</g>
<g style="fill:#C2C200; fill-opacity:0.0; 
stroke:#C2C200; stroke-width:59.0551; stroke-opacity:1; 
stroke-linecap:round; stroke-linejoin:round;">
<path d="M46384 38946
L46403 38964
L46422 39020
L46422 39058
L46403 39114
L46365 39152
L46328 39170
L46253 39189
L46197 39189
L46122 39170
L46084 39152
L46047 39114
L46028 39058
L46028 39020
L46047 38964
L46065 38946
" />
<path d="M46065 38796
L46047 38777
L46028 38739
L46028 38646
L46047 38608
L46065 38589
L46103 38571
L46140 38571
L46197 38589
L46422 38814
L46422 38571
" />
<path d="M46028 38233
L46028 38308
L46047 38346
L46065 38364
L46122 38402
L46197 38421
L46347 38421
L46384 38402
L46403 38383
L46422 38346
L46422 38271
L46403 38233
L46384 38214
L46347 38196
L46253 38196
L46215 38214
L46197 38233
L46178 38271
L46178 38346
L46197 38383
L46215 38402
L46253 38421
" />
<path d="M46239 38922
L46257 38941
L46276 38997
L46276 39034
L46257 39091
L46220 39128
L46182 39147
L46107 39166
L46051 39166
L45976 39147
L45939 39128
L45901 39091
L45882 39034
L45882 38997
L45901 38941
L45920 38922
" />
<path d="M45920 38772
L45901 38753
L45882 38716
L45882 38622
L45901 38584
L45920 38566
L45957 38547
L45995 38547
L46051 38566
L46276 38791
L46276 38547
" />
<path d="M45882 38416
L45882 38153
L46276 38322
" />
<path d="M40506 38250
L40488 38269
L40431 38288
L40394 38288
L40338 38269
L40300 38232
L40281 38194
L40263 38119
L40263 38063
L40281 37988
L40300 37950
L40338 37913
L40394 37894
L40431 37894
L40488 37913
L40506 37932
" />
<path d="M40656 37932
L40675 37913
L40712 37894
L40806 37894
L40844 37913
L40862 37932
L40881 37969
L40881 38007
L40862 38063
L40637 38288
L40881 38288
" />
<path d="M41106 38063
L41069 38044
L41050 38025
L41031 37988
L41031 37969
L41050 37932
L41069 37913
L41106 37894
L41181 37894
L41219 37913
L41237 37932
L41256 37969
L41256 37988
L41237 38025
L41219 38044
L41181 38063
L41106 38063
L41069 38082
L41050 38100
L41031 38138
L41031 38213
L41050 38250
L41069 38269
L41106 38288
L41181 38288
L41219 38269
L41237 38250
L41256 38213
L41256 38138
L41237 38100
L41219 38082
L41181 38063
" />
<path d="M31006 39270
L30988 39289
L30931 39308
L30894 39308
L30838 39289
L30800 39251
L30781 39214
L30763 39139
L30763 39083
L30781 39008
L30800 38970
L30838 38933
L30894 38914
L30931 38914
L30988 38933
L31006 38951
" />
<path d="M31156 38951
L31175 38933
L31212 38914
L31306 38914
L31344 38933
L31362 38951
L31381 38989
L31381 39026
L31362 39083
L31137 39308
L31381 39308
" />
<path d="M31569 39308
L31644 39308
L31681 39289
L31700 39270
L31737 39214
L31756 39139
L31756 38989
L31737 38951
L31719 38933
L31681 38914
L31606 38914
L31569 38933
L31550 38951
L31531 38989
L31531 39083
L31550 39120
L31569 39139
L31606 39158
L31681 39158
L31719 39139
L31737 39120
L31756 39083
" />
<path d="M19410 65044
L19016 65044
L19016 64950
L19035 64894
L19072 64857
L19110 64838
L19185 64819
L19241 64819
L19316 64838
L19354 64857
L19391 64894
L19410 64950
L19410 65044
" />
<path d="M19410 64444
L19410 64669
" />
<path d="M19410 64557
L19016 64557
L19072 64594
L19110 64632
L19129 64669
" />
<path d="M20542 55423
L20542 55611
L20148 55611
" />
<path d="M20186 55311
L20167 55292
L20148 55255
L20148 55161
L20167 55123
L20186 55105
L20223 55086
L20261 55086
L20317 55105
L20542 55330
L20542 55086
" />
<path d="M23603 55419
L23603 55607
L23210 55607
" />
<path d="M23210 55326
L23210 55082
L23359 55213
L23359 55157
L23378 55119
L23397 55101
L23434 55082
L23528 55082
L23566 55101
L23584 55119
L23603 55157
L23603 55269
L23584 55307
L23566 55326
" />
<path d="M42481 40666
L42481 40272
L42631 40272
L42668 40291
L42687 40310
L42706 40347
L42706 40403
L42687 40441
L42668 40460
L42631 40478
L42481 40478
" />
<path d="M43062 40272
L42874 40272
L42856 40460
L42874 40441
L42912 40422
L43005 40422
L43043 40441
L43062 40460
L43080 40497
L43080 40591
L43062 40628
L43043 40647
L43005 40666
L42912 40666
L42874 40647
L42856 40628
" />
<path d="M25703 39510
L25703 39117
L25853 39117
L25890 39135
L25909 39154
L25928 39192
L25928 39248
L25909 39285
L25890 39304
L25853 39323
L25703 39323
" />
<path d="M26265 39117
L26190 39117
L26153 39135
L26134 39154
L26097 39210
L26078 39285
L26078 39435
L26097 39473
L26115 39492
L26153 39510
L26228 39510
L26265 39492
L26284 39473
L26303 39435
L26303 39342
L26284 39304
L26265 39285
L26228 39267
L26153 39267
L26115 39285
L26097 39304
L26078 39342
" />
<path d="M42114 37067
L42114 36674
L42264 36674
L42302 36692
L42321 36711
L42339 36749
L42339 36805
L42321 36842
L42302 36861
L42264 36880
L42114 36880
" />
<path d="M42564 36842
L42527 36824
L42508 36805
L42489 36767
L42489 36749
L42508 36711
L42527 36692
L42564 36674
L42639 36674
L42677 36692
L42696 36711
L42714 36749
L42714 36767
L42696 36805
L42677 36824
L42639 36842
L42564 36842
L42527 36861
L42508 36880
L42489 36917
L42489 36992
L42508 37030
L42527 37049
L42564 37067
L42639 37067
L42677 37049
L42696 37030
L42714 36992
L42714 36917
L42696 36880
L42677 36861
L42639 36842
" />
<path d="M38004 58223
L37611 58223
L37611 58073
L37629 58036
L37648 58017
L37686 57998
L37742 57998
L37779 58017
L37798 58036
L37817 58073
L37817 58223
" />
<path d="M38004 57811
L38004 57736
L37986 57698
L37967 57679
L37911 57642
L37836 57623
L37686 57623
L37648 57642
L37629 57661
L37611 57698
L37611 57773
L37629 57811
L37648 57829
L37686 57848
L37779 57848
L37817 57829
L37836 57811
L37854 57773
L37854 57698
L37836 57661
L37817 57642
L37779 57623
" />
<path d="M11345 66649
L10951 66649
L10951 66499
L10970 66461
L10989 66443
L11026 66424
L11082 66424
L11120 66443
L11139 66461
L11157 66499
L11157 66649
" />
<path d="M11345 66049
L11345 66274
" />
<path d="M11345 66161
L10951 66161
L11007 66199
L11045 66236
L11064 66274
" />
<path d="M10951 65805
L10951 65768
L10970 65730
L10989 65711
L11026 65693
L11101 65674
L11195 65674
L11270 65693
L11307 65711
L11326 65730
L11345 65768
L11345 65805
L11326 65843
L11307 65861
L11270 65880
L11195 65899
L11101 65899
L11026 65880
L10989 65861
L10970 65843
L10951 65805
" />
<path d="M44021 49567
L44021 49174
L44171 49174
L44209 49192
L44228 49211
L44246 49249
L44246 49305
L44228 49342
L44209 49361
L44171 49380
L44021 49380
" />
<path d="M44621 49567
L44396 49567
" />
<path d="M44509 49567
L44509 49174
L44471 49230
L44434 49267
L44396 49286
" />
<path d="M44996 49567
L44771 49567
" />
<path d="M44884 49567
L44884 49174
L44846 49230
L44809 49267
L44771 49286
" />
<path d="M49368 40524
L49368 40130
L49518 40130
L49555 40149
L49574 40168
L49593 40205
L49593 40262
L49574 40299
L49555 40318
L49518 40337
L49368 40337
" />
<path d="M49968 40524
L49743 40524
" />
<path d="M49855 40524
L49855 40130
L49818 40187
L49780 40224
L49743 40243
" />
<path d="M50118 40168
L50137 40149
L50174 40130
L50268 40130
L50305 40149
L50324 40168
L50343 40205
L50343 40243
L50324 40299
L50099 40524
L50343 40524
" />
<path d="M17356 46288
L17356 45894
L17506 45894
L17544 45913
L17562 45932
L17581 45969
L17581 46025
L17562 46063
L17544 46082
L17506 46100
L17356 46100
" />
<path d="M17956 46288
L17731 46288
" />
<path d="M17844 46288
L17844 45894
L17806 45950
L17769 45988
L17731 46007
" />
<path d="M18087 45894
L18331 45894
L18200 46044
L18256 46044
L18293 46063
L18312 46082
L18331 46119
L18331 46213
L18312 46250
L18293 46269
L18256 46288
L18143 46288
L18106 46269
L18087 46250
" />
<path d="M20957 53470
L20563 53470
L20563 53320
L20582 53282
L20601 53263
L20638 53245
L20695 53245
L20732 53263
L20751 53282
L20770 53320
L20770 53470
" />
<path d="M20957 52870
L20957 53095
" />
<path d="M20957 52982
L20563 52982
L20620 53020
L20657 53057
L20676 53095
" />
<path d="M20695 52532
L20957 52532
" />
<path d="M20545 52626
L20826 52720
L20826 52476
" />
<path d="M38143 44597
L38011 44409
" />
<path d="M37918 44597
L37918 44203
L38068 44203
L38105 44222
L38124 44241
L38143 44278
L38143 44334
L38124 44372
L38105 44391
L38068 44409
L37918 44409
" />
<path d="M38517 44597
L38293 44597
" />
<path d="M38405 44597
L38405 44203
L38368 44259
L38330 44297
L38293 44316
" />
<path d="M41241 47103
L41053 47234
" />
<path d="M41241 47327
L40847 47327
L40847 47178
L40866 47140
L40884 47121
L40922 47103
L40978 47103
L41016 47121
L41034 47140
L41053 47178
L41053 47327
" />
<path d="M40884 46953
L40866 46934
L40847 46896
L40847 46803
L40866 46765
L40884 46746
L40922 46728
L40959 46728
L41016 46746
L41241 46971
L41241 46728
" />
<path d="M19347 62497
L19159 62628
" />
<path d="M19347 62722
L18953 62722
L18953 62572
L18972 62534
L18991 62515
L19028 62497
L19084 62497
L19122 62515
L19141 62534
L19159 62572
L19159 62722
" />
<path d="M18953 62365
L18953 62122
L19103 62253
L19103 62197
L19122 62159
L19141 62140
L19178 62122
L19272 62122
L19309 62140
L19328 62159
L19347 62197
L19347 62309
L19328 62347
L19309 62365
" />
<path d="M20165 63847
L20034 63659
" />
<path d="M19940 63847
L19940 63453
L20090 63453
L20128 63472
L20147 63491
L20165 63528
L20165 63584
L20147 63622
L20128 63641
L20090 63659
L19940 63659
" />
<path d="M20503 63584
L20503 63847
" />
<path d="M20409 63434
L20315 63716
L20559 63716
" />
<path d="M22058 64986
L21870 65118
" />
<path d="M22058 65211
L21664 65211
L21664 65061
L21683 65024
L21701 65005
L21739 64986
L21795 64986
L21833 65005
L21851 65024
L21870 65061
L21870 65211
" />
<path d="M21664 64630
L21664 64818
L21851 64836
L21833 64818
L21814 64780
L21814 64686
L21833 64649
L21851 64630
L21889 64611
L21983 64611
L22020 64630
L22039 64649
L22058 64686
L22058 64780
L22039 64818
L22020 64836
" />
<path d="M39839 62162
L39708 61974
" />
<path d="M39614 62162
L39614 61768
L39764 61768
L39802 61787
L39821 61806
L39839 61843
L39839 61899
L39821 61937
L39802 61956
L39764 61974
L39614 61974
" />
<path d="M40177 61768
L40102 61768
L40064 61787
L40046 61806
L40008 61862
L39989 61937
L39989 62087
L40008 62124
L40027 62143
L40064 62162
L40139 62162
L40177 62143
L40196 62124
L40214 62087
L40214 61993
L40196 61956
L40177 61937
L40139 61918
L40064 61918
L40027 61937
L40008 61956
L39989 61993
" />
<path d="M57756 49408
L57569 49539
" />
<path d="M57756 49633
L57363 49633
L57363 49483
L57381 49445
L57400 49426
L57438 49408
L57494 49408
L57531 49426
L57550 49445
L57569 49483
L57569 49633
" />
<path d="M57363 49276
L57363 49014
L57756 49183
" />
<path d="M57351 45569
L57163 45700
" />
<path d="M57351 45794
L56957 45794
L56957 45644
L56976 45607
L56995 45588
L57032 45569
L57088 45569
L57126 45588
L57145 45607
L57163 45644
L57163 45794
" />
<path d="M57126 45344
L57107 45382
L57088 45400
L57051 45419
L57032 45419
L56995 45400
L56976 45382
L56957 45344
L56957 45269
L56976 45232
L56995 45213
L57032 45194
L57051 45194
L57088 45213
L57107 45232
L57126 45269
L57126 45344
L57145 45382
L57163 45400
L57201 45419
L57276 45419
L57313 45400
L57332 45382
L57351 45344
L57351 45269
L57332 45232
L57313 45213
L57276 45194
L57201 45194
L57163 45213
L57145 45232
L57126 45269
" />
<path d="M39784 63016
L39653 62829
" />
<path d="M39559 63016
L39559 62622
L39709 62622
L39747 62641
L39766 62660
L39784 62697
L39784 62754
L39766 62791
L39747 62810
L39709 62829
L39559 62829
" />
<path d="M39972 63016
L40047 63016
L40084 62997
L40103 62979
L40140 62922
L40159 62847
L40159 62697
L40140 62660
L40122 62641
L40084 62622
L40009 62622
L39972 62641
L39953 62660
L39934 62697
L39934 62791
L39953 62829
L39972 62847
L40009 62866
L40084 62866
L40122 62847
L40140 62829
L40159 62791
" />
<path d="M48481 60725
L48293 60856
" />
<path d="M48481 60950
L48087 60950
L48087 60800
L48106 60763
L48125 60744
L48162 60725
L48218 60725
L48256 60744
L48275 60763
L48293 60800
L48293 60950
" />
<path d="M48481 60350
L48481 60575
" />
<path d="M48481 60463
L48087 60463
L48143 60500
L48181 60538
L48200 60575
" />
<path d="M48087 60106
L48087 60069
L48106 60031
L48125 60013
L48162 59994
L48237 59975
L48331 59975
L48406 59994
L48443 60013
L48462 60031
L48481 60069
L48481 60106
L48462 60144
L48443 60163
L48406 60181
L48331 60200
L48237 60200
L48162 60181
L48125 60163
L48106 60144
L48087 60106
" />
<path d="M51683 44682
L51552 44494
" />
<path d="M51458 44682
L51458 44288
L51608 44288
L51646 44307
L51665 44325
L51683 44363
L51683 44419
L51665 44457
L51646 44475
L51608 44494
L51458 44494
" />
<path d="M52058 44682
L51833 44682
" />
<path d="M51946 44682
L51946 44288
L51908 44344
L51871 44382
L51833 44400
" />
<path d="M52433 44682
L52208 44682
" />
<path d="M52321 44682
L52321 44288
L52283 44344
L52246 44382
L52208 44400
" />
<path d="M15561 50607
L15374 50738
" />
<path d="M15561 50832
L15168 50832
L15168 50682
L15187 50644
L15205 50626
L15243 50607
L15299 50607
L15336 50626
L15355 50644
L15374 50682
L15374 50832
" />
<path d="M15561 50232
L15561 50457
" />
<path d="M15561 50344
L15168 50344
L15224 50382
L15261 50419
L15280 50457
" />
<path d="M15205 50082
L15187 50063
L15168 50026
L15168 49932
L15187 49895
L15205 49876
L15243 49857
L15280 49857
L15336 49876
L15561 50101
L15561 49857
" />
<path d="M51668 43666
L51536 43478
" />
<path d="M51443 43666
L51443 43272
L51593 43272
L51630 43291
L51649 43310
L51668 43347
L51668 43403
L51649 43441
L51630 43460
L51593 43478
L51443 43478
" />
<path d="M52043 43666
L51818 43666
" />
<path d="M51930 43666
L51930 43272
L51893 43328
L51855 43366
L51818 43385
" />
<path d="M52174 43272
L52418 43272
L52286 43422
L52343 43422
L52380 43441
L52399 43460
L52418 43497
L52418 43591
L52399 43628
L52380 43647
L52343 43666
L52230 43666
L52193 43647
L52174 43628
" />
<path d="M48461 51119
L48274 51250
" />
<path d="M48461 51344
L48067 51344
L48067 51194
L48086 51156
L48105 51137
L48142 51119
L48199 51119
L48236 51137
L48255 51156
L48274 51194
L48274 51344
" />
<path d="M48461 50744
L48461 50969
" />
<path d="M48461 50856
L48067 50856
L48124 50894
L48161 50931
L48180 50969
" />
<path d="M48067 50388
L48067 50575
L48255 50594
L48236 50575
L48217 50538
L48217 50444
L48236 50406
L48255 50388
L48292 50369
L48386 50369
L48424 50388
L48442 50406
L48461 50444
L48461 50538
L48442 50575
L48424 50594
" />
<path d="M46863 50564
L46675 50695
" />
<path d="M46863 50789
L46469 50789
L46469 50639
L46488 50601
L46506 50582
L46544 50564
L46600 50564
L46638 50582
L46656 50601
L46675 50639
L46675 50789
" />
<path d="M46863 50189
L46863 50414
" />
<path d="M46863 50301
L46469 50301
L46525 50339
L46563 50376
L46581 50414
" />
<path d="M46469 49851
L46469 49926
L46488 49964
L46506 49982
L46563 50020
L46638 50039
L46788 50039
L46825 50020
L46844 50001
L46863 49964
L46863 49889
L46844 49851
L46825 49832
L46788 49814
L46694 49814
L46656 49832
L46638 49851
L46619 49889
L46619 49964
L46638 50001
L46656 50020
L46694 50039
" />
<path d="M48796 53154
L48608 53285
" />
<path d="M48796 53379
L48402 53379
L48402 53229
L48421 53192
L48440 53173
L48477 53154
L48533 53154
L48571 53173
L48589 53192
L48608 53229
L48608 53379
" />
<path d="M48796 52779
L48796 53004
" />
<path d="M48796 52892
L48402 52892
L48458 52929
L48496 52967
L48514 53004
" />
<path d="M48402 52648
L48402 52386
L48796 52554
" />
<path d="M47819 53138
L47632 53270
" />
<path d="M47819 53363
L47426 53363
L47426 53213
L47444 53176
L47463 53157
L47501 53138
L47557 53138
L47594 53157
L47613 53176
L47632 53213
L47632 53363
" />
<path d="M47819 52763
L47819 52988
" />
<path d="M47819 52876
L47426 52876
L47482 52913
L47519 52951
L47538 52988
" />
<path d="M47594 52538
L47576 52576
L47557 52595
L47519 52613
L47501 52613
L47463 52595
L47444 52576
L47426 52538
L47426 52464
L47444 52426
L47463 52407
L47501 52389
L47519 52389
L47557 52407
L47576 52426
L47594 52464
L47594 52538
L47613 52576
L47632 52595
L47669 52613
L47744 52613
L47782 52595
L47801 52576
L47819 52538
L47819 52464
L47801 52426
L47782 52407
L47744 52389
L47669 52389
L47632 52407
L47613 52426
L47594 52464
" />
<path d="M46002 47512
L45871 47325
" />
<path d="M45777 47512
L45777 47119
L45927 47119
L45965 47137
L45984 47156
L46002 47194
L46002 47250
L45984 47287
L45965 47306
L45927 47325
L45777 47325
" />
<path d="M46377 47512
L46152 47512
" />
<path d="M46265 47512
L46265 47119
L46227 47175
L46190 47212
L46152 47231
" />
<path d="M46565 47512
L46640 47512
L46677 47494
L46696 47475
L46733 47419
L46752 47344
L46752 47194
L46733 47156
L46715 47137
L46677 47119
L46602 47119
L46565 47137
L46546 47156
L46527 47194
L46527 47287
L46546 47325
L46565 47344
L46602 47362
L46677 47362
L46715 47344
L46733 47325
L46752 47287
" />
<path d="M47107 48520
L46919 48652
" />
<path d="M47107 48745
L46713 48745
L46713 48595
L46732 48558
L46751 48539
L46788 48520
L46844 48520
L46882 48539
L46901 48558
L46919 48595
L46919 48745
" />
<path d="M46751 48370
L46732 48352
L46713 48314
L46713 48220
L46732 48183
L46751 48164
L46788 48145
L46826 48145
L46882 48164
L47107 48389
L47107 48145
" />
<path d="M46713 47902
L46713 47864
L46732 47827
L46751 47808
L46788 47789
L46863 47770
L46957 47770
L47032 47789
L47069 47808
L47088 47827
L47107 47864
L47107 47902
L47088 47939
L47069 47958
L47032 47977
L46957 47995
L46863 47995
L46788 47977
L46751 47958
L46732 47939
L46713 47902
" />
<path d="M46321 45926
L46190 45738
" />
<path d="M46096 45926
L46096 45532
L46246 45532
L46284 45551
L46302 45569
L46321 45607
L46321 45663
L46302 45701
L46284 45719
L46246 45738
L46096 45738
" />
<path d="M46471 45569
L46490 45551
L46527 45532
L46621 45532
L46659 45551
L46677 45569
L46696 45607
L46696 45644
L46677 45701
L46452 45926
L46696 45926
" />
<path d="M47071 45926
L46846 45926
" />
<path d="M46959 45926
L46959 45532
L46921 45588
L46884 45626
L46846 45644
" />
<path d="M46808 47788
L46620 47919
" />
<path d="M46808 48013
L46414 48013
L46414 47863
L46433 47826
L46451 47807
L46489 47788
L46545 47788
L46583 47807
L46601 47826
L46620 47863
L46620 48013
" />
<path d="M46451 47638
L46433 47619
L46414 47582
L46414 47488
L46433 47451
L46451 47432
L46489 47413
L46526 47413
L46583 47432
L46808 47657
L46808 47413
" />
<path d="M46451 47263
L46433 47244
L46414 47207
L46414 47113
L46433 47076
L46451 47057
L46489 47038
L46526 47038
L46583 47057
L46808 47282
L46808 47038
" />
</g>
<g style="fill:#008484; fill-opacity:0.0; 
stroke:#008484; stroke-width:59.0551; stroke-opacity:1; 
stroke-linecap:round; stroke-linejoin:round;">
<path d="M39714 45324
L39320 45324
" />
<path d="M39714 49399
L39291 49399
" />
<path d="M35639 49399
L36062 49399
" />
<path d="M35639 45324
L36062 45324
" />
<path d="M39714 45324
L39714 45748
" />
<path d="M35639 45324
L35639 45748
" />
<path d="M35639 49399
L35639 48976
" />
<path d="M39714 49399
L39714 48976
" />
<path d="M39320 45324
L39320 44921
" />
<path d="M51772 49280
L53375 47552
" />
<path d="M51772 47548
L53371 49272
" />
<circle cx="52575.9" cy="48414.7" r="1181.1" /> 
<circle cx="55724.8" cy="44765.4" r="141.421" /> 
<path d="M49324 51915
L49324 44915
" />
<path d="M49324 44915
L55824 44915
" />
<path d="M55824 44915
L55824 51915
" />
<path d="M55824 51915
L49324 51915
" />
</g>
<g style="fill:#008484; fill-opacity:0.0; 
stroke:#008484; stroke-width:47.2441; stroke-opacity:1; 
stroke-linecap:round; stroke-linejoin:round;">
<path d="M43984 48003
L45031 48003
" />
<path d="M43984 46980
L43984 48003
" />
<path d="M45031 46980
L45031 48003
" />
<path d="M43984 46980
L45031 46980
" />
<path d="M43984 46480
L43984 45956
" />
<path d="M43984 45956
L44507 45956
" />
<path d="M38897 37988
L38897 38381
" />
<path d="M39566 38381
L39566 37988
" />
<path d="M18336 39633
L17549 39633
" />
<path d="M17549 38791
L18336 38791
" />
<path d="M9319 63743
L14280 63743
" />
<path d="M14280 63743
L14280 59668
" />
<path d="M14280 59668
L13906 59668
" />
<path d="M13906 59668
L14004 59471
" />
<path d="M14004 59471
L13256 59471
" />
<path d="M13256 59471
L13237 59471
" />
<path d="M13237 59471
L13335 59668
" />
<path d="M13335 59668
L11209 59668
" />
<path d="M11209 59668
L11327 59471
" />
<path d="M11327 59471
L9319 59471
" />
<path d="M9319 59471
L9319 63743
" />
<path d="M12322 36318
L8921 36318
" />
<path d="M15622 36318
L13622 36318
" />
<path d="M12322 41122
L8921 41122
" />
<path d="M15622 41122
L13622 41122
" />
<path d="M8921 41122
L8921 36318
" />
<path d="M15622 36318
L15622 41122
" />
<path d="M35811 38295
L35811 37248
" />
<path d="M30787 38295
L35811 38295
" />
<path d="M30787 37248
L35811 37248
" />
<path d="M30787 38295
L30787 37248
" />
<path d="M30287 38295
L29763 38295
" />
<path d="M29763 38295
L29763 37771
" />
<path d="M12724 52405
L13771 52405
" />
<path d="M12724 49381
L12724 52405
" />
<path d="M13771 49381
L13771 52405
" />
<path d="M12724 49381
L13771 49381
" />
<path d="M12724 48881
L12724 48358
" />
<path d="M12724 48358
L13248 48358
" />
<path d="M16522 61000
L16155 61000
" />
<path d="M15277 61000
L15644 61000
" />
<path d="M15277 61000
L15277 62244
" />
<path d="M16522 61000
L16522 61575
" />
<path d="M22796 62110
L22429 62110
" />
<path d="M21551 62110
L21918 62110
" />
<path d="M21551 62110
L21551 63354
" />
<path d="M22796 62110
L22796 62685
" />
<path d="M25396 62110
L25029 62110
" />
<path d="M24151 62110
L24518 62110
" />
<path d="M24151 62110
L24151 63354
" />
<path d="M25396 62110
L25396 62685
" />
<path d="M45232 51657
L45232 52023
" />
<path d="M45232 52901
L45232 52535
" />
<path d="M45232 52901
L46476 52901
" />
<path d="M45232 51657
L45807 51657
" />
<path d="M43066 51657
L43066 52023
" />
<path d="M43066 52901
L43066 52535
" />
<path d="M43066 52901
L44311 52901
" />
<path d="M43066 51657
L43641 51657
" />
<circle cx="46413.4" cy="50299.2" r="338.583" /> 
<path d="M46074 50299
L46059 50299
" />
</g>
<g style="fill:#008484; fill-opacity:0.0; 
stroke:#008484; stroke-width:59.0551; stroke-opacity:1; 
stroke-linecap:round; stroke-linejoin:round;">
<path d="M23897 41692
L23897 41466
" />
<path d="M21633 41692
L21633 41437
" />
<path d="M21633 37500
L21633 37755
" />
<path d="M23897 37500
L23897 37755
" />
<path d="M23897 41692
L21633 41692
" />
<path d="M23897 37500
L21633 37500
" />
<path d="M23897 41466
L24527 41466
" />
</g>
<g style="fill:#008484; fill-opacity:0.0; 
stroke:#008484; stroke-width:47.2441; stroke-opacity:1; 
stroke-linecap:round; stroke-linejoin:round;">
<path d="M27237 64982
L27733 64982
" />
<path d="M29922 64982
L29426 64982
" />
<path d="M27237 63501
L27237 64982
" />
<path d="M29922 62616
L29922 64982
" />
<path d="M41311 60110
L41311 60267
" />
<path d="M44775 60110
L41311 60110
" />
<path d="M45444 60110
L45405 60110
" />
<path d="M46704 60110
L45444 60110
" />
<path d="M46704 60267
L46704 60110
" />
<path d="M46704 62866
L46980 62866
" />
<path d="M46704 62905
L46704 62866
" />
<path d="M41311 64716
L41311 62866
" />
<path d="M46704 64716
L41311 64716
" />
<path d="M46704 62905
L46704 64716
" />
<path d="M44566 38629
L44763 38629
" />
<path d="M44763 38629
L44763 38826
" />
<path d="M44763 38826
L44763 38826
" />
<path d="M44763 39299
L44763 39496
" />
<path d="M44763 39496
L44566 39496
" />
<path d="M44566 39496
L44566 39496
" />
<path d="M44094 39496
L43897 39496
" />
<path d="M43897 39496
L43897 39299
" />
<path d="M43897 39299
L43897 39299
" />
<path d="M44094 38629
L43897 38629
" />
<path d="M43897 38629
L43897 38629
" />
</g>
<g style="fill:#008484; fill-opacity:0.0; 
stroke:#008484; stroke-width:59.0551; stroke-opacity:1; 
stroke-linecap:round; stroke-linejoin:round;">
<circle cx="40456.7" cy="38968.5" r="52.9669" /> 
<path d="M39866 39460
L39866 38476
" />
<path d="M41047 39460
L41047 38476
" />
<path d="M40456 38476
L39866 38476
" />
<path d="M40456 39460
L39866 39460
" />
<path d="M40456 39460
L41047 39460
" />
<path d="M40456 38476
L41047 38476
" />
<circle cx="41043.3" cy="39456.7" r="52.9669" /> 
<path d="M16572 51437
L16830 51437
" />
<path d="M16572 49271
L16868 49271
" />
<path d="M19096 49271
L18801 49271
" />
<path d="M19096 51437
L18801 51437
" />
<path d="M16572 51437
L16572 49271
" />
<path d="M19096 51437
L19096 49271
" />
<path d="M16830 51437
L16830 52125
" />
</g>
<g style="fill:#008484; fill-opacity:0.0; 
stroke:#008484; stroke-width:47.2441; stroke-opacity:1; 
stroke-linecap:round; stroke-linejoin:round;">
<path d="M35964 43061
L40925 43061
" />
<path d="M40925 43061
L40925 41053
" />
<path d="M40925 41053
L35964 41053
" />
<path d="M33769 44301
L34163 44301
" />
<path d="M34163 43631
L33769 43631
" />
<path d="M40275 43149
L39881 43149
" />
<path d="M39881 43818
L40275 43818
" />
<path d="M36299 43818
L36692 43818
" />
<path d="M36692 43149
L36299 43149
" />
<path d="M33074 41990
L33074 42147
" />
<path d="M34877 41687
L34877 42147
" />
<path d="M34877 43490
L34877 43029
" />
<path d="M33074 43187
L33074 43029
" />
<path d="M33377 43490
L34877 43490
" />
<path d="M33377 43490
L33074 43187
" />
<path d="M33377 41687
L34877 41687
" />
<path d="M33377 41687
L33074 41990
" />
<path d="M33757 48242
L33600 48242
" />
<path d="M34061 50045
L33600 50045
" />
<path d="M32257 50045
L32718 50045
" />
<path d="M32561 48242
L32718 48242
" />
<path d="M32257 48545
L32257 50045
" />
<path d="M32257 48545
L32561 48242
" />
<path d="M34061 48545
L34061 50045
" />
<path d="M34061 48545
L33757 48242
" />
<path d="M20206 39901
L20206 39507
" />
<path d="M19537 39507
L19537 39901
" />
<path d="M19450 36787
L19450 36177
" />
<path d="M19450 34688
L19450 35299
" />
<path d="M21553 34988
L21553 35299
" />
<path d="M21553 36488
L21553 36177
" />
<path d="M19450 36787
L21253 36787
" />
<path d="M21253 36787
L21553 36488
" />
<path d="M21553 34988
L21253 34688
" />
<path d="M21253 34688
L19450 34688
" />
<path d="M19635 37627
L20029 37627
" />
<path d="M20029 36958
L19635 36958
" />
<path d="M39956 52498
L39956 52340
" />
<path d="M38153 52801
L38153 52340
" />
<path d="M38153 50998
L38153 51458
" />
<path d="M39956 51301
L39956 51458
" />
<path d="M39653 50998
L38153 50998
" />
<path d="M39653 50998
L39956 51301
" />
<path d="M39653 52801
L38153 52801
" />
<path d="M39653 52801
L39956 52498
" />
<path d="M39251 50226
L38858 50226
" />
<path d="M38858 50895
L39251 50895
" />
<path d="M25482 65167
L25482 64773
" />
<path d="M24812 64773
L24812 65167
" />
<path d="M40570 45816
L40570 46210
" />
<path d="M41240 46210
L41240 45816
" />
<path d="M28322 61598
L27929 61598
" />
<path d="M27929 62267
L28322 62267
" />
<path d="M34281 46368
L33887 46368
" />
<path d="M33887 47037
L34281 47037
" />
<path d="M34891 49330
L34891 48937
" />
<path d="M34222 48937
L34222 49330
" />
<path d="M21850 51476
L21456 51476
" />
<path d="M21456 52145
L21850 52145
" />
<path d="M28019 59137
L28019 59748
" />
<path d="M28019 61236
L28019 60625
" />
<path d="M25917 60937
L25917 60625
" />
<path d="M25917 59437
L25917 59748
" />
<path d="M28019 59137
L26216 59137
" />
<path d="M26216 59137
L25917 59437
" />
<path d="M25917 60937
L26216 61236
" />
<path d="M26216 61236
L28019 61236
" />
<path d="M23523 52145
L23917 52145
" />
<path d="M23917 51476
L23523 51476
" />
<path d="M29125 61246
L29125 60635
" />
<path d="M29125 59147
L29125 59757
" />
<path d="M31228 59446
L31228 59757
" />
<path d="M31228 60946
L31228 60635
" />
<path d="M29125 61246
L30929 61246
" />
<path d="M30929 61246
L31228 60946
" />
<path d="M31228 59446
L30929 59147
" />
<path d="M30929 59147
L29125 59147
" />
<path d="M29795 62271
L30188 62271
" />
<path d="M30188 61602
L29795 61602
" />
<path d="M45889 59669
L46283 59669
" />
<path d="M46283 59000
L45889 59000
" />
<path d="M57212 47614
L57212 47220
" />
<path d="M56543 47220
L56543 47614
" />
<path d="M44917 39980
L44523 39980
" />
<path d="M44523 40649
L44917 40649
" />
<path d="M48740 39724
L48129 39724
" />
<path d="M46641 39724
L47251 39724
" />
<path d="M46940 37622
L47251 37622
" />
<path d="M48440 37622
L48129 37622
" />
<path d="M48740 39724
L48740 37921
" />
<path d="M48740 37921
L48440 37622
" />
<path d="M46940 37622
L46641 37921
" />
<path d="M46641 37921
L46641 39724
" />
<path d="M46511 38866
L46511 38472
" />
<path d="M45842 38472
L45842 38866
" />
<path d="M45744 38866
L45744 38472
" />
<path d="M45074 38472
L45074 38866
" />
<path d="M40555 38259
L40948 38259
" />
<path d="M40948 37590
L40555 37590
" />
<path d="M31053 39297
L31446 39297
" />
<path d="M31446 38627
L31053 38627
" />
<path d="M18838 64163
L18169 64163
" />
<path d="M18169 64163
L18169 65167
" />
<path d="M18838 64163
L18838 65167
" />
</g>
<g style="fill:#008484; fill-opacity:0.0; 
stroke:#008484; stroke-width:59.0551; stroke-opacity:1; 
stroke-linecap:round; stroke-linejoin:round;">
<circle cx="21151.6" cy="55358.3" r="1500" /> 
<circle cx="24212.6" cy="55354.3" r="1500" /> 
</g>
<g style="fill:#008484; fill-opacity:0.0; 
stroke:#008484; stroke-width:47.2441; stroke-opacity:1; 
stroke-linecap:round; stroke-linejoin:round;">
<path d="M43295 38047
L42248 38047
" />
<path d="M43295 39070
L43295 38047
" />
<path d="M42248 39070
L42248 38047
" />
<path d="M43295 39070
L42248 39070
" />
<path d="M43295 39570
L43295 40094
" />
<path d="M43295 40094
L42771 40094
" />
<path d="M25470 41773
L26517 41773
" />
<path d="M25470 40750
L25470 41773
" />
<path d="M26517 40750
L26517 41773
" />
<path d="M25470 40750
L26517 40750
" />
<path d="M25470 40250
L25470 39726
" />
<path d="M25470 39726
L25994 39726
" />
<path d="M41842 37350
L41842 36303
" />
<path d="M40818 37350
L41842 37350
" />
<path d="M40818 36303
L41842 36303
" />
<path d="M40818 37350
L40818 36303
" />
<path d="M40318 37350
L39795 37350
" />
<path d="M39795 37350
L39795 36826
" />
<path d="M44267 58456
L44267 57409
" />
<path d="M39244 58456
L44267 58456
" />
<path d="M39244 57409
L44267 57409
" />
<path d="M39244 58456
L39244 57409
" />
<path d="M38744 58456
L38220 58456
" />
<path d="M38220 58456
L38220 57933
" />
<path d="M14608 66694
L14608 65647
" />
<path d="M12584 66694
L14608 66694
" />
<path d="M12584 65647
L14608 65647
" />
<path d="M12584 66694
L12584 65647
" />
<path d="M12084 66694
L11561 66694
" />
<path d="M11561 66694
L11561 66171
" />
<path d="M43976 50830
L45023 50830
" />
<path d="M43976 50807
L43976 50830
" />
<path d="M45023 50807
L45023 50830
" />
<path d="M43976 50807
L45023 50807
" />
<path d="M43976 50307
L43976 49783
" />
<path d="M43976 49783
L44500 49783
" />
<path d="M50370 36905
L49322 36905
" />
<path d="M50370 38929
L50370 36905
" />
<path d="M49322 38929
L49322 36905
" />
<path d="M50370 38929
L49322 38929
" />
<path d="M50370 39429
L50370 39952
" />
<path d="M50370 39952
L49846 39952
" />
<path d="M17311 47551
L18358 47551
" />
<path d="M17311 47527
L17311 47551
" />
<path d="M18358 47527
L18358 47551
" />
<path d="M17311 47527
L18358 47527
" />
<path d="M17311 47027
L17311 46503
" />
<path d="M17311 46503
L17834 46503
" />
<path d="M24220 53515
L24220 52468
" />
<path d="M22196 53515
L24220 53515
" />
<path d="M22196 52468
L24220 52468
" />
<path d="M22196 53515
L22196 52468
" />
<path d="M21696 53515
L21173 53515
" />
<path d="M21173 53515
L21173 52992
" />
<path d="M38503 44765
L38031 44765
" />
<path d="M38031 44072
L38503 44072
" />
<path d="M42078 46801
L42078 47273
" />
<path d="M41385 47273
L41385 46801
" />
<path d="M18153 62667
L18153 62195
" />
<path d="M18846 62195
L18846 62667
" />
<path d="M19995 62653
L20467 62653
" />
<path d="M20467 63346
L19995 63346
" />
<path d="M22895 64685
L22895 65157
" />
<path d="M22202 65157
L22202 64685
" />
<path d="M39633 61574
L40106 61574
" />
<path d="M40106 62267
L39633 62267
" />
<path d="M56562 49578
L56562 49106
" />
<path d="M57255 49106
L57255 49578
" />
<path d="M56527 45795
L56527 45322
" />
<path d="M57220 45322
L57220 45795
" />
<path d="M39633 62318
L40106 62318
" />
<path d="M40106 63011
L39633 63011
" />
<path d="M47287 60708
L47287 60236
" />
<path d="M47980 60236
L47980 60708
" />
<path d="M51720 43893
L52192 43893
" />
<path d="M52192 44586
L51720 44586
" />
<path d="M16399 50118
L16399 50590
" />
<path d="M15706 50590
L15706 50118
" />
<path d="M51724 42937
L52196 42937
" />
<path d="M52196 43629
L51724 43629
" />
<path d="M48661 50594
L48661 51066
" />
<path d="M47968 51066
L47968 50594
" />
<path d="M47700 50074
L47700 50547
" />
<path d="M47007 50547
L47007 50074
" />
<path d="M49157 52653
L49157 53125
" />
<path d="M48464 53125
L48464 52653
" />
<path d="M48208 52649
L48208 53122
" />
<path d="M47515 53122
L47515 52649
" />
<circle cx="45011.8" cy="48767.7" r="338.583" /> 
<path d="M44673 48767
L44657 48767
" />
<circle cx="46196.9" cy="47767.7" r="338.583" /> 
<path d="M46196 48106
L46196 48374
" />
<circle cx="46200.8" cy="46480.3" r="338.583" /> 
<path d="M46539 46480
L46555 46480
" />
<circle cx="47145.7" cy="47437" r="338.583" /> 
<path d="M47145 47775
L47145 47791
" />
</g> 
</svg>
