<?xml version="1.0" standalone="no"?>
 <!DOCTYPE svg PUBLIC "-//W3C//DTD SVG 1.1//EN" 
 "http://www.w3.org/Graphics/SVG/1.1/DTD/svg11.dtd"> 
<svg xmlns="http://www.w3.org/2000/svg" version="1.1" 
    width="27.5234cm" height="17.3177cm" viewBox="0 0 108360 68180 ">
<title>SVG Picture created as CPU_Board-F.Mask.svg date 2017/09/22 06:04:57 </title>
  <desc>Picture generated by PCBNEW </desc>
<g style="fill:#000000; fill-opacity:1;stroke:#000000; stroke-opacity:1;
stroke-linecap:round; stroke-linejoin:round; "
 transform="translate(0 0) scale(1 1)">
</g>
<g style="fill:#C2C200; fill-opacity:0.0; 
stroke:#C2C200; stroke-width:-0.000393701; stroke-opacity:1; 
stroke-linecap:round; stroke-linejoin:round;">
</g>
<g style="fill:#C2C200; fill-opacity:0.0; 
stroke:#C2C200; stroke-width:59.0551; stroke-opacity:1; 
stroke-linecap:round; stroke-linejoin:round;">
<path d="M108335 29
L107635 29
" />
<path d="M49435 67224
L49435 34527
" />
<path d="M971 67229
L49436 67229
" />
<path d="M971 34527
L971 67229
" />
<path d="M49436 34529
L971 34529
" />
</g>
<g style="fill:#840000; fill-opacity:0.0; 
stroke:#840000; stroke-width:59.0551; stroke-opacity:1; 
stroke-linecap:round; stroke-linejoin:round;">
</g>
<g style="fill:#840000; fill-opacity:0.0; 
stroke:#840000; stroke-width:0; stroke-opacity:1; 
stroke-linecap:round; stroke-linejoin:round;">
</g>
<g style="fill:#840000; fill-opacity:1.0; 
stroke:#840000; stroke-width:0; stroke-opacity:1; 
stroke-linecap:round; stroke-linejoin:round;">
<polyline style="fill-rule:evenodd;"
points="30361,44872
30617,44872
30617,45423
30361,45423
30361,44872
" /> 
<polyline style="fill-rule:evenodd;"
points="30164,44872
30420,44872
30420,45423
30164,45423
30164,44872
" /> 
<polyline style="fill-rule:evenodd;"
points="29967,44872
30223,44872
30223,45423
29967,45423
29967,44872
" /> 
<polyline style="fill-rule:evenodd;"
points="29770,44872
30026,44872
30026,45423
29770,45423
29770,44872
" /> 
<polyline style="fill-rule:evenodd;"
points="29574,44872
29829,44872
29829,45423
29574,45423
29574,44872
" /> 
<polyline style="fill-rule:evenodd;"
points="29377,44872
29633,44872
29633,45423
29377,45423
29377,44872
" /> 
<polyline style="fill-rule:evenodd;"
points="29180,44872
29436,44872
29436,45423
29180,45423
29180,44872
" /> 
<polyline style="fill-rule:evenodd;"
points="28983,44872
29239,44872
29239,45423
28983,45423
28983,44872
" /> 
<polyline style="fill-rule:evenodd;"
points="28786,44872
29042,44872
29042,45423
28786,45423
28786,44872
" /> 
<polyline style="fill-rule:evenodd;"
points="28589,44872
28845,44872
28845,45423
28589,45423
28589,44872
" /> 
<polyline style="fill-rule:evenodd;"
points="28392,44872
28648,44872
28648,45423
28392,45423
28392,44872
" /> 
<polyline style="fill-rule:evenodd;"
points="28196,44872
28451,44872
28451,45423
28196,45423
28196,44872
" /> 
<polyline style="fill-rule:evenodd;"
points="27999,44872
28255,44872
28255,45423
27999,45423
27999,44872
" /> 
<polyline style="fill-rule:evenodd;"
points="27802,44872
28058,44872
28058,45423
27802,45423
27802,44872
" /> 
<polyline style="fill-rule:evenodd;"
points="27605,44872
27861,44872
27861,45423
27605,45423
27605,44872
" /> 
<polyline style="fill-rule:evenodd;"
points="27408,44872
27664,44872
27664,45423
27408,45423
27408,44872
" /> 
<polyline style="fill-rule:evenodd;"
points="26493,46043
26493,45787
27044,45787
27044,46043
26493,46043
" /> 
<polyline style="fill-rule:evenodd;"
points="26493,46240
26493,45984
27044,45984
27044,46240
26493,46240
" /> 
<polyline style="fill-rule:evenodd;"
points="26493,46437
26493,46181
27044,46181
27044,46437
26493,46437
" /> 
<polyline style="fill-rule:evenodd;"
points="26493,46633
26493,46377
27044,46377
27044,46633
26493,46633
" /> 
<polyline style="fill-rule:evenodd;"
points="26493,46830
26493,46574
27044,46574
27044,46830
26493,46830
" /> 
<polyline style="fill-rule:evenodd;"
points="26493,47027
26493,46771
27044,46771
27044,47027
26493,47027
" /> 
<polyline style="fill-rule:evenodd;"
points="26493,47224
26493,46968
27044,46968
27044,47224
26493,47224
" /> 
<polyline style="fill-rule:evenodd;"
points="26493,47421
26493,47165
27044,47165
27044,47421
26493,47421
" /> 
<polyline style="fill-rule:evenodd;"
points="26493,47618
26493,47362
27044,47362
27044,47618
26493,47618
" /> 
<polyline style="fill-rule:evenodd;"
points="26493,47814
26493,47559
27044,47559
27044,47814
26493,47814
" /> 
<polyline style="fill-rule:evenodd;"
points="26493,48011
26493,47755
27044,47755
27044,48011
26493,48011
" /> 
<polyline style="fill-rule:evenodd;"
points="26493,48208
26493,47952
27044,47952
27044,48208
26493,48208
" /> 
<polyline style="fill-rule:evenodd;"
points="26493,48405
26493,48149
27044,48149
27044,48405
26493,48405
" /> 
<polyline style="fill-rule:evenodd;"
points="26493,48602
26493,48346
27044,48346
27044,48602
26493,48602
" /> 
<polyline style="fill-rule:evenodd;"
points="26493,48799
26493,48543
27044,48543
27044,48799
26493,48799
" /> 
<polyline style="fill-rule:evenodd;"
points="26493,48996
26493,48740
27044,48740
27044,48996
26493,48996
" /> 
<polyline style="fill-rule:evenodd;"
points="27408,49360
27664,49360
27664,49911
27408,49911
27408,49360
" /> 
<polyline style="fill-rule:evenodd;"
points="27605,49360
27861,49360
27861,49911
27605,49911
27605,49360
" /> 
<polyline style="fill-rule:evenodd;"
points="27802,49360
28058,49360
28058,49911
27802,49911
27802,49360
" /> 
<polyline style="fill-rule:evenodd;"
points="27999,49360
28255,49360
28255,49911
27999,49911
27999,49360
" /> 
<polyline style="fill-rule:evenodd;"
points="28196,49360
28451,49360
28451,49911
28196,49911
28196,49360
" /> 
<polyline style="fill-rule:evenodd;"
points="28392,49360
28648,49360
28648,49911
28392,49911
28392,49360
" /> 
<polyline style="fill-rule:evenodd;"
points="28589,49360
28845,49360
28845,49911
28589,49911
28589,49360
" /> 
<polyline style="fill-rule:evenodd;"
points="28786,49360
29042,49360
29042,49911
28786,49911
28786,49360
" /> 
<polyline style="fill-rule:evenodd;"
points="28983,49360
29239,49360
29239,49911
28983,49911
28983,49360
" /> 
<polyline style="fill-rule:evenodd;"
points="29180,49360
29436,49360
29436,49911
29180,49911
29180,49360
" /> 
<polyline style="fill-rule:evenodd;"
points="29377,49360
29633,49360
29633,49911
29377,49911
29377,49360
" /> 
<polyline style="fill-rule:evenodd;"
points="29574,49360
29829,49360
29829,49911
29574,49911
29574,49360
" /> 
<polyline style="fill-rule:evenodd;"
points="29770,49360
30026,49360
30026,49911
29770,49911
29770,49360
" /> 
<polyline style="fill-rule:evenodd;"
points="29967,49360
30223,49360
30223,49911
29967,49911
29967,49360
" /> 
<polyline style="fill-rule:evenodd;"
points="30164,49360
30420,49360
30420,49911
30164,49911
30164,49360
" /> 
<polyline style="fill-rule:evenodd;"
points="30361,49360
30617,49360
30617,49911
30361,49911
30361,49360
" /> 
<polyline style="fill-rule:evenodd;"
points="30981,48996
30981,48740
31532,48740
31532,48996
30981,48996
" /> 
<polyline style="fill-rule:evenodd;"
points="30981,48799
30981,48543
31532,48543
31532,48799
30981,48799
" /> 
<polyline style="fill-rule:evenodd;"
points="30981,48602
30981,48346
31532,48346
31532,48602
30981,48602
" /> 
<polyline style="fill-rule:evenodd;"
points="30981,48405
30981,48149
31532,48149
31532,48405
30981,48405
" /> 
<polyline style="fill-rule:evenodd;"
points="30981,48208
30981,47952
31532,47952
31532,48208
30981,48208
" /> 
<polyline style="fill-rule:evenodd;"
points="30981,48011
30981,47755
31532,47755
31532,48011
30981,48011
" /> 
<polyline style="fill-rule:evenodd;"
points="30981,47814
30981,47559
31532,47559
31532,47814
30981,47814
" /> 
<polyline style="fill-rule:evenodd;"
points="30981,47618
30981,47362
31532,47362
31532,47618
30981,47618
" /> 
<polyline style="fill-rule:evenodd;"
points="30981,47421
30981,47165
31532,47165
31532,47421
30981,47421
" /> 
<polyline style="fill-rule:evenodd;"
points="30981,47224
30981,46968
31532,46968
31532,47224
30981,47224
" /> 
<polyline style="fill-rule:evenodd;"
points="30981,47027
30981,46771
31532,46771
31532,47027
30981,47027
" /> 
<polyline style="fill-rule:evenodd;"
points="30981,46830
30981,46574
31532,46574
31532,46830
30981,46830
" /> 
<polyline style="fill-rule:evenodd;"
points="30981,46633
30981,46377
31532,46377
31532,46633
30981,46633
" /> 
<polyline style="fill-rule:evenodd;"
points="30981,46437
30981,46181
31532,46181
31532,46437
30981,46437
" /> 
<polyline style="fill-rule:evenodd;"
points="30981,46240
30981,45984
31532,45984
31532,46240
30981,46240
" /> 
<polyline style="fill-rule:evenodd;"
points="30981,46043
30981,45787
31532,45787
31532,46043
30981,46043
" /> 
<polyline style="fill-rule:evenodd;"
points="38394,62297
38394,62848
37607,62848
37607,62297
38394,62297
" /> 
<polyline style="fill-rule:evenodd;"
points="38394,61797
38394,62348
37607,62348
37607,61797
38394,61797
" /> 
<polyline style="fill-rule:evenodd;"
points="38394,61297
38394,61848
37607,61848
37607,61297
38394,61297
" /> 
<polyline style="fill-rule:evenodd;"
points="38394,60797
38394,61348
37607,61348
37607,60797
38394,60797
" /> 
<polyline style="fill-rule:evenodd;"
points="38394,60297
38394,60848
37607,60848
37607,60297
38394,60297
" /> 
<polyline style="fill-rule:evenodd;"
points="33079,60297
33079,60848
32292,60848
32292,60297
33079,60297
" /> 
<polyline style="fill-rule:evenodd;"
points="33079,60797
33079,61348
32292,61348
32292,60797
33079,60797
" /> 
<polyline style="fill-rule:evenodd;"
points="33079,61297
33079,61848
32292,61848
32292,61297
33079,61297
" /> 
<polyline style="fill-rule:evenodd;"
points="33079,61797
33079,62348
32292,62348
32292,61797
33079,61797
" /> 
<polyline style="fill-rule:evenodd;"
points="33079,62297
33079,62848
32292,62848
32292,62297
33079,62297
" /> 
<polyline style="fill-rule:evenodd;"
points="36150,59785
36701,59785
36701,60572
36150,60572
36150,59785
" /> 
<polyline style="fill-rule:evenodd;"
points="40188,51700
40188,51188
40975,51188
40975,51700
40188,51700
" /> 
<polyline style="fill-rule:evenodd;"
points="40188,51200
40188,50688
40975,50688
40975,51200
40188,51200
" /> 
<polyline style="fill-rule:evenodd;"
points="40188,50700
40188,50188
40975,50188
40975,50700
40188,50700
" /> 
<polyline style="fill-rule:evenodd;"
points="40188,50200
40188,49688
40975,49688
40975,50200
40188,50200
" /> 
<polyline style="fill-rule:evenodd;"
points="40188,49700
40188,49188
40975,49188
40975,49700
40188,49700
" /> 
<polyline style="fill-rule:evenodd;"
points="40188,49200
40188,48688
40975,48688
40975,49200
40188,49200
" /> 
<polyline style="fill-rule:evenodd;"
points="40188,48700
40188,48188
40975,48188
40975,48700
40188,48700
" /> 
<polyline style="fill-rule:evenodd;"
points="40188,48200
40188,47688
40975,47688
40975,48200
40188,48200
" /> 
<polyline style="fill-rule:evenodd;"
points="40188,47700
40188,47188
40975,47188
40975,47700
40188,47700
" /> 
<polyline style="fill-rule:evenodd;"
points="40188,47200
40188,46688
40975,46688
40975,47200
40188,47200
" /> 
<polyline style="fill-rule:evenodd;"
points="40188,46700
40188,46188
40975,46188
40975,46700
40188,46700
" /> 
<polyline style="fill-rule:evenodd;"
points="40188,46200
40188,45688
40975,45688
40975,46200
40188,46200
" /> 
<polyline style="fill-rule:evenodd;"
points="40188,45700
40188,45188
40975,45188
40975,45700
40188,45700
" /> 
<polyline style="fill-rule:evenodd;"
points="46845,51700
46845,51188
47633,51188
47633,51700
46845,51700
" /> 
<polyline style="fill-rule:evenodd;"
points="46845,51200
46845,50688
47633,50688
47633,51200
46845,51200
" /> 
<polyline style="fill-rule:evenodd;"
points="46845,50700
46845,50188
47633,50188
47633,50700
46845,50700
" /> 
<polyline style="fill-rule:evenodd;"
points="46845,48200
46845,47688
47633,47688
47633,48200
46845,48200
" /> 
<polyline style="fill-rule:evenodd;"
points="46845,47700
46845,47188
47633,47188
47633,47700
46845,47700
" /> 
<polyline style="fill-rule:evenodd;"
points="46845,47200
46845,46688
47633,46688
47633,47200
46845,47200
" /> 
<polyline style="fill-rule:evenodd;"
points="46845,46700
46845,46188
47633,46188
47633,46700
46845,46700
" /> 
<polyline style="fill-rule:evenodd;"
points="46845,46200
46845,45688
47633,45688
47633,46200
46845,46200
" /> 
<polyline style="fill-rule:evenodd;"
points="46845,45688
46845,45177
47633,45177
47633,45688
46845,45688
" /> 
<polyline style="fill-rule:evenodd;"
points="42081,51023
42081,50366
42739,50366
42739,51023
42081,51023
" /> 
<polyline style="fill-rule:evenodd;"
points="43081,51023
43081,50366
43739,50366
43739,51023
43081,51023
" /> 
<polyline style="fill-rule:evenodd;"
points="44081,51023
44081,50366
44739,50366
44739,51023
44081,51023
" /> 
<polyline style="fill-rule:evenodd;"
points="45081,51023
45081,50366
45739,50366
45739,51023
45081,51023
" /> 
<polyline style="fill-rule:evenodd;"
points="42081,46523
42081,45866
42739,45866
42739,46523
42081,46523
" /> 
<polyline style="fill-rule:evenodd;"
points="43081,46523
43081,45866
43739,45866
43739,46523
43081,46523
" /> 
<polyline style="fill-rule:evenodd;"
points="44081,46523
44081,45866
44739,45866
44739,46523
44081,46523
" /> 
<polyline style="fill-rule:evenodd;"
points="45081,46523
45081,45866
45739,45866
45739,46523
45081,46523
" /> 
<polyline style="fill-rule:evenodd;"
points="37922,45842
37922,45016
38749,45016
38749,45842
37922,45842
" /> 
</g>
<g style="fill:#840000; fill-opacity:1.0; 
stroke:#840000; stroke-width:826.772; stroke-opacity:1; 
stroke-linecap:round; stroke-linejoin:round;">
</g>
<g style="fill:#840000; fill-opacity:0.0; 
stroke:#840000; stroke-width:826.772; stroke-opacity:1; 
stroke-linecap:round; stroke-linejoin:round;">
<path d="M38335 46429
L38335 46429
" />
</g>
<g style="fill:#840000; fill-opacity:0.0; 
stroke:#840000; stroke-width:0; stroke-opacity:1; 
stroke-linecap:round; stroke-linejoin:round;">
</g>
<g style="fill:#840000; fill-opacity:1.0; 
stroke:#840000; stroke-width:0; stroke-opacity:1; 
stroke-linecap:round; stroke-linejoin:round;">
<polyline style="fill-rule:evenodd;"
points="30892,39080
30243,39080
30243,38332
30892,38332
30892,39080
" /> 
<polyline style="fill-rule:evenodd;"
points="30892,38096
30243,38096
30243,37348
30892,37348
30892,38096
" /> 
<polyline style="fill-rule:evenodd;"
points="8018,39655
8018,38828
8963,38828
8963,39655
8018,39655
" /> 
<polyline style="fill-rule:evenodd;"
points="9593,39655
9593,38828
10538,38828
10538,39655
9593,39655
" /> 
<polyline style="fill-rule:evenodd;"
points="3994,63198
2277,63198
2277,62261
3994,62261
3994,63198
" /> 
</g>
<g style="fill:#840000; fill-opacity:1.0; 
stroke:#840000; stroke-width:937.008; stroke-opacity:1; 
stroke-linecap:round; stroke-linejoin:round;">
</g>
<g style="fill:#840000; fill-opacity:0.0; 
stroke:#840000; stroke-width:937.008; stroke-opacity:1; 
stroke-linecap:round; stroke-linejoin:round;">
<path d="M2746 60761
L3525 60761
" />
</g>
<g style="fill:#840000; fill-opacity:1.0; 
stroke:#840000; stroke-width:0; stroke-opacity:1; 
stroke-linecap:round; stroke-linejoin:round;">
<circle cx="6158.66" cy="38250" r="377.953" /> 
</g>
<g style="fill:#840000; fill-opacity:1.0; 
stroke:#840000; stroke-width:39.3701; stroke-opacity:1; 
stroke-linecap:round; stroke-linejoin:round;">
</g>
<g style="fill:#840000; fill-opacity:1.0; 
stroke:#840000; stroke-width:0; stroke-opacity:1; 
stroke-linecap:round; stroke-linejoin:round;">
<circle cx="6158.66" cy="39250" r="377.953" /> 
</g>
<g style="fill:#840000; fill-opacity:1.0; 
stroke:#840000; stroke-width:39.3701; stroke-opacity:1; 
stroke-linecap:round; stroke-linejoin:round;">
</g>
<g style="fill:#840000; fill-opacity:1.0; 
stroke:#840000; stroke-width:0; stroke-opacity:1; 
stroke-linecap:round; stroke-linejoin:round;">
<circle cx="5371.26" cy="39250" r="377.953" /> 
</g>
<g style="fill:#840000; fill-opacity:1.0; 
stroke:#840000; stroke-width:39.3701; stroke-opacity:1; 
stroke-linecap:round; stroke-linejoin:round;">
</g>
<g style="fill:#840000; fill-opacity:1.0; 
stroke:#840000; stroke-width:0; stroke-opacity:1; 
stroke-linecap:round; stroke-linejoin:round;">
<circle cx="5371.26" cy="38250" r="377.953" /> 
</g>
<g style="fill:#840000; fill-opacity:1.0; 
stroke:#840000; stroke-width:39.3701; stroke-opacity:1; 
stroke-linecap:round; stroke-linejoin:round;">
</g>
<g style="fill:#840000; fill-opacity:1.0; 
stroke:#840000; stroke-width:0; stroke-opacity:1; 
stroke-linecap:round; stroke-linejoin:round;">
<circle cx="4308.27" cy="36387.8" r="610.236" /> 
</g>
<g style="fill:#840000; fill-opacity:1.0; 
stroke:#840000; stroke-width:39.3701; stroke-opacity:1; 
stroke-linecap:round; stroke-linejoin:round;">
</g>
<g style="fill:#840000; fill-opacity:1.0; 
stroke:#840000; stroke-width:0; stroke-opacity:1; 
stroke-linecap:round; stroke-linejoin:round;">
<circle cx="4308.27" cy="41112.2" r="610.236" /> 
</g>
<g style="fill:#840000; fill-opacity:1.0; 
stroke:#840000; stroke-width:39.3701; stroke-opacity:1; 
stroke-linecap:round; stroke-linejoin:round;">
</g>
<g style="fill:#840000; fill-opacity:1.0; 
stroke:#840000; stroke-width:0; stroke-opacity:1; 
stroke-linecap:round; stroke-linejoin:round;">
<polyline style="fill-rule:evenodd;"
points="22036,38214
21209,38214
21209,37387
22036,37387
22036,38214
" /> 
</g>
<g style="fill:#840000; fill-opacity:1.0; 
stroke:#840000; stroke-width:826.772; stroke-opacity:1; 
stroke-linecap:round; stroke-linejoin:round;">
</g>
<g style="fill:#840000; fill-opacity:0.0; 
stroke:#840000; stroke-width:826.772; stroke-opacity:1; 
stroke-linecap:round; stroke-linejoin:round;">
<path d="M22623 37801
L22623 37801
" />
<path d="M23623 37801
L23623 37801
" />
<path d="M24623 37801
L24623 37801
" />
<path d="M25623 37801
L25623 37801
" />
<path d="M26623 37801
L26623 37801
" />
</g>
<g style="fill:#840000; fill-opacity:1.0; 
stroke:#840000; stroke-width:0; stroke-opacity:1; 
stroke-linecap:round; stroke-linejoin:round;">
<circle cx="3379.13" cy="43407.5" r="826.772" /> 
</g>
<g style="fill:#840000; fill-opacity:1.0; 
stroke:#840000; stroke-width:39.3701; stroke-opacity:1; 
stroke-linecap:round; stroke-linejoin:round;">
</g>
<g style="fill:#840000; fill-opacity:1.0; 
stroke:#840000; stroke-width:0; stroke-opacity:1; 
stroke-linecap:round; stroke-linejoin:round;">
<circle cx="27733.5" cy="65250" r="826.772" /> 
</g>
<g style="fill:#840000; fill-opacity:1.0; 
stroke:#840000; stroke-width:39.3701; stroke-opacity:1; 
stroke-linecap:round; stroke-linejoin:round;">
</g>
<g style="fill:#840000; fill-opacity:1.0; 
stroke:#840000; stroke-width:0; stroke-opacity:1; 
stroke-linecap:round; stroke-linejoin:round;">
<circle cx="3387.01" cy="57561" r="826.772" /> 
</g>
<g style="fill:#840000; fill-opacity:1.0; 
stroke:#840000; stroke-width:39.3701; stroke-opacity:1; 
stroke-linecap:round; stroke-linejoin:round;">
</g>
<g style="fill:#840000; fill-opacity:1.0; 
stroke:#840000; stroke-width:0; stroke-opacity:1; 
stroke-linecap:round; stroke-linejoin:round;">
<circle cx="43442.1" cy="58194.9" r="826.772" /> 
</g>
<g style="fill:#840000; fill-opacity:1.0; 
stroke:#840000; stroke-width:39.3701; stroke-opacity:1; 
stroke-linecap:round; stroke-linejoin:round;">
</g>
<g style="fill:#840000; fill-opacity:1.0; 
stroke:#840000; stroke-width:0; stroke-opacity:1; 
stroke-linecap:round; stroke-linejoin:round;">
<circle cx="27182.3" cy="59143.7" r="826.772" /> 
</g>
<g style="fill:#840000; fill-opacity:1.0; 
stroke:#840000; stroke-width:39.3701; stroke-opacity:1; 
stroke-linecap:round; stroke-linejoin:round;">
</g>
<g style="fill:#840000; fill-opacity:1.0; 
stroke:#840000; stroke-width:0; stroke-opacity:1; 
stroke-linecap:round; stroke-linejoin:round;">
<circle cx="47635.8" cy="36229.5" r="826.772" /> 
</g>
<g style="fill:#840000; fill-opacity:1.0; 
stroke:#840000; stroke-width:39.3701; stroke-opacity:1; 
stroke-linecap:round; stroke-linejoin:round;">
</g>
<g style="fill:#840000; fill-opacity:1.0; 
stroke:#840000; stroke-width:0; stroke-opacity:1; 
stroke-linecap:round; stroke-linejoin:round;">
<polyline style="fill-rule:evenodd;"
points="4170,49324
4170,48498
4997,48498
4997,49324
4170,49324
" /> 
</g>
<g style="fill:#840000; fill-opacity:1.0; 
stroke:#840000; stroke-width:826.772; stroke-opacity:1; 
stroke-linecap:round; stroke-linejoin:round;">
</g>
<g style="fill:#840000; fill-opacity:0.0; 
stroke:#840000; stroke-width:826.772; stroke-opacity:1; 
stroke-linecap:round; stroke-linejoin:round;">
<path d="M4583 49911
L4583 49911
" />
<path d="M4583 50911
L4583 50911
" />
<path d="M4583 51911
L4583 51911
" />
</g>
<g style="fill:#840000; fill-opacity:0.0; 
stroke:#840000; stroke-width:0; stroke-opacity:1; 
stroke-linecap:round; stroke-linejoin:round;">
</g>
<g style="fill:#840000; fill-opacity:1.0; 
stroke:#840000; stroke-width:0; stroke-opacity:1; 
stroke-linecap:round; stroke-linejoin:round;">
<polyline style="fill-rule:evenodd;"
points="7098,62372
6625,62372
6625,61467
7098,61467
7098,62372
" /> 
<polyline style="fill-rule:evenodd;"
points="7846,62372
7373,62372
7373,61467
7846,61467
7846,62372
" /> 
<polyline style="fill-rule:evenodd;"
points="7472,61191
6999,61191
6999,60286
7472,60286
7472,61191
" /> 
<polyline style="fill-rule:evenodd;"
points="13372,63482
12899,63482
12899,62576
13372,62576
13372,63482
" /> 
<polyline style="fill-rule:evenodd;"
points="14120,63482
13647,63482
13647,62576
14120,62576
14120,63482
" /> 
<polyline style="fill-rule:evenodd;"
points="13746,62301
13273,62301
13273,61395
13746,61395
13746,62301
" /> 
<polyline style="fill-rule:evenodd;"
points="15972,63482
15499,63482
15499,62576
15972,62576
15972,63482
" /> 
<polyline style="fill-rule:evenodd;"
points="16720,63482
16247,63482
16247,62576
16720,62576
16720,63482
" /> 
<polyline style="fill-rule:evenodd;"
points="16346,62301
15873,62301
15873,61395
16346,61395
16346,62301
" /> 
<polyline style="fill-rule:evenodd;"
points="37910,52446
37910,52919
37005,52919
37005,52446
37910,52446
" /> 
<polyline style="fill-rule:evenodd;"
points="37910,51698
37910,52171
37005,52171
37005,51698
37910,51698
" /> 
<polyline style="fill-rule:evenodd;"
points="36729,52072
36729,52545
35824,52545
35824,52072
36729,52072
" /> 
<polyline style="fill-rule:evenodd;"
points="35745,52446
35745,52919
34839,52919
34839,52446
35745,52446
" /> 
<polyline style="fill-rule:evenodd;"
points="35745,51698
35745,52171
34839,52171
34839,51698
35745,51698
" /> 
<polyline style="fill-rule:evenodd;"
points="34564,52072
34564,52545
33658,52545
33658,52072
34564,52072
" /> 
<circle cx="37749.2" cy="50328.7" r="354.331" /> 
</g>
<g style="fill:#840000; fill-opacity:1.0; 
stroke:#840000; stroke-width:39.3701; stroke-opacity:1; 
stroke-linecap:round; stroke-linejoin:round;">
</g>
<g style="fill:#840000; fill-opacity:1.0; 
stroke:#840000; stroke-width:708.661; stroke-opacity:1; 
stroke-linecap:round; stroke-linejoin:round;">
</g>
<g style="fill:#840000; fill-opacity:0.0; 
stroke:#840000; stroke-width:708.661; stroke-opacity:1; 
stroke-linecap:round; stroke-linejoin:round;">
<path d="M37001 50328
L37001 50328
" />
</g>
<g style="fill:#840000; fill-opacity:0.0; 
stroke:#840000; stroke-width:0; stroke-opacity:1; 
stroke-linecap:round; stroke-linejoin:round;">
</g>
<g style="fill:#840000; fill-opacity:1.0; 
stroke:#840000; stroke-width:0; stroke-opacity:1; 
stroke-linecap:round; stroke-linejoin:round;">
<polyline style="fill-rule:evenodd;"
points="15942,41122
15942,41456
15095,41456
15095,41122
15942,41122
" /> 
<polyline style="fill-rule:evenodd;"
points="15942,40866
15942,41200
15095,41200
15095,40866
15942,40866
" /> 
<polyline style="fill-rule:evenodd;"
points="15942,40610
15942,40944
15095,40944
15095,40610
15942,40610
" /> 
<polyline style="fill-rule:evenodd;"
points="15942,40354
15942,40688
15095,40688
15095,40354
15942,40354
" /> 
<polyline style="fill-rule:evenodd;"
points="15942,40098
15942,40433
15095,40433
15095,40098
15942,40098
" /> 
<polyline style="fill-rule:evenodd;"
points="15942,39842
15942,40177
15095,40177
15095,39842
15942,39842
" /> 
<polyline style="fill-rule:evenodd;"
points="15942,39586
15942,39921
15095,39921
15095,39586
15942,39586
" /> 
<polyline style="fill-rule:evenodd;"
points="15942,39330
15942,39665
15095,39665
15095,39330
15942,39330
" /> 
<polyline style="fill-rule:evenodd;"
points="15942,39074
15942,39409
15095,39409
15095,39074
15942,39074
" /> 
<polyline style="fill-rule:evenodd;"
points="15942,38818
15942,39153
15095,39153
15095,38818
15942,38818
" /> 
<polyline style="fill-rule:evenodd;"
points="15942,38562
15942,38897
15095,38897
15095,38562
15942,38562
" /> 
<polyline style="fill-rule:evenodd;"
points="15942,38307
15942,38641
15095,38641
15095,38307
15942,38307
" /> 
<polyline style="fill-rule:evenodd;"
points="15942,38051
15942,38385
15095,38385
15095,38051
15942,38051
" /> 
<polyline style="fill-rule:evenodd;"
points="15942,37795
15942,38129
15095,38129
15095,37795
15942,37795
" /> 
<polyline style="fill-rule:evenodd;"
points="13107,37795
13107,38129
12261,38129
12261,37795
13107,37795
" /> 
<polyline style="fill-rule:evenodd;"
points="13107,38051
13107,38385
12261,38385
12261,38051
13107,38051
" /> 
<polyline style="fill-rule:evenodd;"
points="13107,38307
13107,38641
12261,38641
12261,38307
13107,38307
" /> 
<polyline style="fill-rule:evenodd;"
points="13107,38562
13107,38897
12261,38897
12261,38562
13107,38562
" /> 
<polyline style="fill-rule:evenodd;"
points="13107,38818
13107,39153
12261,39153
12261,38818
13107,38818
" /> 
<polyline style="fill-rule:evenodd;"
points="13107,39074
13107,39409
12261,39409
12261,39074
13107,39074
" /> 
<polyline style="fill-rule:evenodd;"
points="13107,39330
13107,39665
12261,39665
12261,39330
13107,39330
" /> 
<polyline style="fill-rule:evenodd;"
points="13107,39586
13107,39921
12261,39921
12261,39586
13107,39586
" /> 
<polyline style="fill-rule:evenodd;"
points="13107,39842
13107,40177
12261,40177
12261,39842
13107,39842
" /> 
<polyline style="fill-rule:evenodd;"
points="13107,40098
13107,40433
12261,40433
12261,40098
13107,40098
" /> 
<polyline style="fill-rule:evenodd;"
points="13107,40354
13107,40688
12261,40688
12261,40354
13107,40354
" /> 
<polyline style="fill-rule:evenodd;"
points="13107,40610
13107,40944
12261,40944
12261,40610
13107,40610
" /> 
<polyline style="fill-rule:evenodd;"
points="13107,40866
13107,41200
12261,41200
12261,40866
13107,40866
" /> 
<polyline style="fill-rule:evenodd;"
points="13107,41122
13107,41456
12261,41456
12261,41122
13107,41122
" /> 
<polyline style="fill-rule:evenodd;"
points="19088,65027
20742,65027
20742,65972
19088,65972
19088,65027
" /> 
<polyline style="fill-rule:evenodd;"
points="19541,62547
20289,62547
20289,63492
19541,63492
19541,62547
" /> 
<polyline style="fill-rule:evenodd;"
points="18636,62547
19384,62547
19384,63492
18636,63492
18636,62547
" /> 
<polyline style="fill-rule:evenodd;"
points="20447,62547
21195,62547
21195,63492
20447,63492
20447,62547
" /> 
<polyline style="fill-rule:evenodd;"
points="35213,39141
35213,38846
35518,38846
35518,39141
35213,39141
" /> 
<polyline style="fill-rule:evenodd;"
points="35213,39338
35213,39043
35518,39043
35518,39338
35213,39338
" /> 
<polyline style="fill-rule:evenodd;"
points="35814,39141
35814,38846
36119,38846
36119,39141
35814,39141
" /> 
<polyline style="fill-rule:evenodd;"
points="35814,39338
35814,39043
36119,39043
36119,39338
35814,39338
" /> 
<polyline style="fill-rule:evenodd;"
points="35213,39535
35213,39240
35518,39240
35518,39535
35213,39535
" /> 
<polyline style="fill-rule:evenodd;"
points="35814,39535
35814,39240
36119,39240
36119,39535
35814,39535
" /> 
<polyline style="fill-rule:evenodd;"
points="35213,38944
35213,38649
35518,38649
35518,38944
35213,38944
" /> 
<polyline style="fill-rule:evenodd;"
points="35814,38944
35814,38649
36119,38649
36119,38944
35814,38944
" /> 
<polyline style="fill-rule:evenodd;"
points="35715,39545
35420,39545
35420,39240
35715,39240
35715,39545
" /> 
<polyline style="fill-rule:evenodd;"
points="35912,39545
35617,39545
35617,39240
35912,39240
35912,39545
" /> 
<polyline style="fill-rule:evenodd;"
points="35912,38944
35617,38944
35617,38639
35912,38639
35912,38944
" /> 
<polyline style="fill-rule:evenodd;"
points="35715,38944
35420,38944
35420,38639
35715,38639
35715,38944
" /> 
<polyline style="fill-rule:evenodd;"
points="8607,52263
8233,52263
8233,51417
8607,51417
8607,52263
" /> 
<polyline style="fill-rule:evenodd;"
points="9107,52263
8733,52263
8733,51417
9107,51417
9107,52263
" /> 
<polyline style="fill-rule:evenodd;"
points="9607,52263
9233,52263
9233,51417
9607,51417
9607,52263
" /> 
<polyline style="fill-rule:evenodd;"
points="10107,52263
9733,52263
9733,51417
10107,51417
10107,52263
" /> 
<polyline style="fill-rule:evenodd;"
points="10107,49350
9733,49350
9733,48503
10107,48503
10107,49350
" /> 
<polyline style="fill-rule:evenodd;"
points="9607,49350
9233,49350
9233,48503
9607,48503
9607,49350
" /> 
<polyline style="fill-rule:evenodd;"
points="9107,49350
8733,49350
8733,48503
9107,48503
9107,49350
" /> 
<polyline style="fill-rule:evenodd;"
points="8607,49350
8233,49350
8233,48503
8607,48503
8607,49350
" /> 
<polyline style="fill-rule:evenodd;"
points="32261,41614
32261,42559
30331,42559
30331,41614
32261,41614
" /> 
<polyline style="fill-rule:evenodd;"
points="28914,41614
28914,42559
26985,42559
26985,41614
28914,41614
" /> 
<polyline style="fill-rule:evenodd;"
points="26168,43671
26168,44320
25420,44320
25420,43671
26168,43671
" /> 
<polyline style="fill-rule:evenodd;"
points="25184,43671
25184,44320
24436,44320
24436,43671
25184,43671
" /> 
<polyline style="fill-rule:evenodd;"
points="30548,43838
30548,43188
31296,43188
31296,43838
30548,43838
" /> 
<polyline style="fill-rule:evenodd;"
points="31532,43838
31532,43188
32280,43188
32280,43838
31532,43838
" /> 
<polyline style="fill-rule:evenodd;"
points="28698,43188
28698,43838
27950,43838
27950,43188
28698,43188
" /> 
<polyline style="fill-rule:evenodd;"
points="27713,43188
27713,43838
26965,43838
26965,43188
27713,43188
" /> 
<polyline style="fill-rule:evenodd;"
points="25194,42224
25194,43011
24012,43011
24012,42224
25194,42224
" /> 
<polyline style="fill-rule:evenodd;"
points="26611,42224
26611,43011
25430,43011
25430,42224
26611,42224
" /> 
<polyline style="fill-rule:evenodd;"
points="24938,49045
24150,49045
24150,47864
24938,47864
24938,49045
" /> 
<polyline style="fill-rule:evenodd;"
points="24938,50462
24150,50462
24150,49281
24938,49281
24938,50462
" /> 
<polyline style="fill-rule:evenodd;"
points="10883,38868
11532,38868
11532,39616
10883,39616
10883,38868
" /> 
<polyline style="fill-rule:evenodd;"
points="10883,39852
11532,39852
11532,40600
10883,40600
10883,39852
" /> 
<polyline style="fill-rule:evenodd;"
points="12034,36151
12034,35364
13373,35364
13373,36151
12034,36151
" /> 
<polyline style="fill-rule:evenodd;"
points="10302,36151
10302,35364
11640,35364
11640,36151
10302,36151
" /> 
<polyline style="fill-rule:evenodd;"
points="12034,36998
12034,37647
11286,37647
11286,36998
12034,36998
" /> 
<polyline style="fill-rule:evenodd;"
points="11050,36998
11050,37647
10302,37647
10302,36998
11050,36998
" /> 
<polyline style="fill-rule:evenodd;"
points="30509,52322
30509,51535
31690,51535
31690,52322
30509,52322
" /> 
<polyline style="fill-rule:evenodd;"
points="29091,52322
29091,51535
30272,51535
30272,52322
29091,52322
" /> 
<polyline style="fill-rule:evenodd;"
points="29524,50915
29524,50265
30272,50265
30272,50915
29524,50915
" /> 
<polyline style="fill-rule:evenodd;"
points="30509,50915
30509,50265
31257,50265
31257,50915
30509,50915
" /> 
<polyline style="fill-rule:evenodd;"
points="16158,64133
16808,64133
16808,64881
16158,64881
16158,64133
" /> 
<polyline style="fill-rule:evenodd;"
points="16158,65118
16808,65118
16808,65866
16158,65866
16158,65118
" /> 
<polyline style="fill-rule:evenodd;"
points="32860,46603
32211,46603
32211,45855
32860,45855
32860,46603
" /> 
<polyline style="fill-rule:evenodd;"
points="32860,45619
32211,45619
32211,44871
32860,44871
32860,45619
" /> 
<polyline style="fill-rule:evenodd;"
points="18595,62287
18595,61637
19343,61637
19343,62287
18595,62287
" /> 
<polyline style="fill-rule:evenodd;"
points="19579,62287
19579,61637
20327,61637
20327,62287
19579,62287
" /> 
<polyline style="fill-rule:evenodd;"
points="24554,46854
24554,46204
25302,46204
25302,46854
24554,46854
" /> 
<polyline style="fill-rule:evenodd;"
points="25538,46854
25538,46204
26286,46204
26286,46854
25538,46854
" /> 
<polyline style="fill-rule:evenodd;"
points="25577,48651
26227,48651
26227,49399
25577,49399
25577,48651
" /> 
<polyline style="fill-rule:evenodd;"
points="25577,49635
26227,49635
26227,50383
25577,50383
25577,49635
" /> 
<polyline style="fill-rule:evenodd;"
points="12123,52165
12123,51515
12871,51515
12871,52165
12123,52165
" /> 
<polyline style="fill-rule:evenodd;"
points="13107,52165
13107,51515
13855,51515
13855,52165
13107,52165
" /> 
<polyline style="fill-rule:evenodd;"
points="18107,59832
18107,60620
16768,60620
16768,59832
18107,59832
" /> 
<polyline style="fill-rule:evenodd;"
points="19839,59832
19839,60620
18501,60620
18501,59832
19839,59832
" /> 
<polyline style="fill-rule:evenodd;"
points="15922,51515
15922,52165
15174,52165
15174,51515
15922,51515
" /> 
<polyline style="fill-rule:evenodd;"
points="14938,51515
14938,52165
14190,52165
14190,51515
14938,51515
" /> 
<polyline style="fill-rule:evenodd;"
points="21709,60610
21709,59822
23048,59822
23048,60610
21709,60610
" /> 
<polyline style="fill-rule:evenodd;"
points="19977,60610
19977,59822
21316,59822
21316,60610
19977,60610
" /> 
<polyline style="fill-rule:evenodd;"
points="22194,61641
22194,62291
21446,62291
21446,61641
22194,61641
" /> 
<polyline style="fill-rule:evenodd;"
points="21209,61641
21209,62291
20461,62291
20461,61641
21209,61641
" /> 
<polyline style="fill-rule:evenodd;"
points="38288,59039
38288,59688
37540,59688
37540,59039
38288,59039
" /> 
<polyline style="fill-rule:evenodd;"
points="37304,59039
37304,59688
36556,59688
36556,59039
37304,59039
" /> 
<polyline style="fill-rule:evenodd;"
points="47888,46580
48538,46580
48538,47328
47888,47328
47888,46580
" /> 
<polyline style="fill-rule:evenodd;"
points="47888,47564
48538,47564
48538,48312
47888,48312
47888,47564
" /> 
<polyline style="fill-rule:evenodd;"
points="35190,40669
35190,40019
35938,40019
35938,40669
35190,40669
" /> 
<polyline style="fill-rule:evenodd;"
points="36174,40669
36174,40019
36922,40019
36922,40669
36174,40669
" /> 
<polyline style="fill-rule:evenodd;"
points="39410,38505
38623,38505
38623,37167
39410,37167
39410,38505
" /> 
<polyline style="fill-rule:evenodd;"
points="39410,40238
38623,40238
38623,38899
39410,38899
39410,40238
" /> 
<polyline style="fill-rule:evenodd;"
points="37188,37832
37837,37832
37837,38580
37188,38580
37188,37832
" /> 
<polyline style="fill-rule:evenodd;"
points="37188,38816
37837,38816
37837,39564
37188,39564
37188,38816
" /> 
<polyline style="fill-rule:evenodd;"
points="36420,37832
37070,37832
37070,38580
36420,38580
36420,37832
" /> 
<polyline style="fill-rule:evenodd;"
points="36420,38816
37070,38816
37070,39564
36420,39564
36420,38816
" /> 
<polyline style="fill-rule:evenodd;"
points="32953,37629
32953,38279
32205,38279
32205,37629
32953,37629
" /> 
<polyline style="fill-rule:evenodd;"
points="31969,37629
31969,38279
31221,38279
31221,37629
31969,37629
" /> 
<polyline style="fill-rule:evenodd;"
points="23451,38667
23451,39316
22703,39316
22703,38667
23451,38667
" /> 
<polyline style="fill-rule:evenodd;"
points="22467,38667
22467,39316
21719,39316
21719,38667
22467,38667
" /> 
<polyline style="fill-rule:evenodd;"
points="9672,64173
10007,64173
10007,64566
9672,64566
9672,64173
" /> 
<polyline style="fill-rule:evenodd;"
points="9672,65000
10007,65000
10007,65393
9672,65393
9672,65000
" /> 
<polyline style="fill-rule:evenodd;"
points="12033,53934
12941,53934
12941,54841
12033,54841
12033,53934
" /> 
<circle cx="12487.4" cy="56387.8" r="453.74" /> 
</g>
<g style="fill:#840000; fill-opacity:1.0; 
stroke:#840000; stroke-width:39.3701; stroke-opacity:1; 
stroke-linecap:round; stroke-linejoin:round;">
</g>
<g style="fill:#840000; fill-opacity:1.0; 
stroke:#840000; stroke-width:0; stroke-opacity:1; 
stroke-linecap:round; stroke-linejoin:round;">
<polyline style="fill-rule:evenodd;"
points="15094,53930
16002,53930
16002,54837
15094,54837
15094,53930
" /> 
<circle cx="15548.4" cy="56383.9" r="453.74" /> 
</g>
<g style="fill:#840000; fill-opacity:1.0; 
stroke:#840000; stroke-width:39.3701; stroke-opacity:1; 
stroke-linecap:round; stroke-linejoin:round;">
</g>
<g style="fill:#840000; fill-opacity:1.0; 
stroke:#840000; stroke-width:0; stroke-opacity:1; 
stroke-linecap:round; stroke-linejoin:round;">
<polyline style="fill-rule:evenodd;"
points="34520,39187
34520,40013
33694,40013
33694,39187
34520,39187
" /> 
</g>
<g style="fill:#840000; fill-opacity:1.0; 
stroke:#840000; stroke-width:826.772; stroke-opacity:1; 
stroke-linecap:round; stroke-linejoin:round;">
</g>
<g style="fill:#840000; fill-opacity:0.0; 
stroke:#840000; stroke-width:826.772; stroke-opacity:1; 
stroke-linecap:round; stroke-linejoin:round;">
<path d="M34107 38600
L34107 38600
" />
</g>
<g style="fill:#840000; fill-opacity:0.0; 
stroke:#840000; stroke-width:0; stroke-opacity:1; 
stroke-linecap:round; stroke-linejoin:round;">
</g>
<g style="fill:#840000; fill-opacity:1.0; 
stroke:#840000; stroke-width:0; stroke-opacity:1; 
stroke-linecap:round; stroke-linejoin:round;">
<polyline style="fill-rule:evenodd;"
points="16916,40692
16916,39866
17743,39866
17743,40692
16916,40692
" /> 
</g>
<g style="fill:#840000; fill-opacity:1.0; 
stroke:#840000; stroke-width:826.772; stroke-opacity:1; 
stroke-linecap:round; stroke-linejoin:round;">
</g>
<g style="fill:#840000; fill-opacity:0.0; 
stroke:#840000; stroke-width:826.772; stroke-opacity:1; 
stroke-linecap:round; stroke-linejoin:round;">
<path d="M17329 41279
L17329 41279
" />
</g>
<g style="fill:#840000; fill-opacity:0.0; 
stroke:#840000; stroke-width:0; stroke-opacity:1; 
stroke-linecap:round; stroke-linejoin:round;">
</g>
<g style="fill:#840000; fill-opacity:1.0; 
stroke:#840000; stroke-width:0; stroke-opacity:1; 
stroke-linecap:round; stroke-linejoin:round;">
<polyline style="fill-rule:evenodd;"
points="32068,37269
31241,37269
31241,36442
32068,36442
32068,37269
" /> 
</g>
<g style="fill:#840000; fill-opacity:1.0; 
stroke:#840000; stroke-width:826.772; stroke-opacity:1; 
stroke-linecap:round; stroke-linejoin:round;">
</g>
<g style="fill:#840000; fill-opacity:0.0; 
stroke:#840000; stroke-width:826.772; stroke-opacity:1; 
stroke-linecap:round; stroke-linejoin:round;">
<path d="M32654 36856
L32654 36856
" />
</g>
<g style="fill:#840000; fill-opacity:0.0; 
stroke:#840000; stroke-width:0; stroke-opacity:1; 
stroke-linecap:round; stroke-linejoin:round;">
</g>
<g style="fill:#840000; fill-opacity:1.0; 
stroke:#840000; stroke-width:0; stroke-opacity:1; 
stroke-linecap:round; stroke-linejoin:round;">
<polyline style="fill-rule:evenodd;"
points="30493,58375
29666,58375
29666,57549
30493,57549
30493,58375
" /> 
</g>
<g style="fill:#840000; fill-opacity:1.0; 
stroke:#840000; stroke-width:826.772; stroke-opacity:1; 
stroke-linecap:round; stroke-linejoin:round;">
</g>
<g style="fill:#840000; fill-opacity:0.0; 
stroke:#840000; stroke-width:826.772; stroke-opacity:1; 
stroke-linecap:round; stroke-linejoin:round;">
<path d="M31079 57962
L31079 57962
" />
<path d="M32079 57962
L32079 57962
" />
<path d="M33079 57962
L33079 57962
" />
<path d="M34079 57962
L34079 57962
" />
<path d="M35079 57962
L35079 57962
" />
</g>
<g style="fill:#840000; fill-opacity:0.0; 
stroke:#840000; stroke-width:0; stroke-opacity:1; 
stroke-linecap:round; stroke-linejoin:round;">
</g>
<g style="fill:#840000; fill-opacity:1.0; 
stroke:#840000; stroke-width:0; stroke-opacity:1; 
stroke-linecap:round; stroke-linejoin:round;">
<polyline style="fill-rule:evenodd;"
points="3833,66614
3007,66614
3007,65787
3833,65787
3833,66614
" /> 
</g>
<g style="fill:#840000; fill-opacity:1.0; 
stroke:#840000; stroke-width:826.772; stroke-opacity:1; 
stroke-linecap:round; stroke-linejoin:round;">
</g>
<g style="fill:#840000; fill-opacity:0.0; 
stroke:#840000; stroke-width:826.772; stroke-opacity:1; 
stroke-linecap:round; stroke-linejoin:round;">
<path d="M4420 66200
L4420 66200
" />
<path d="M5420 66200
L5420 66200
" />
</g>
<g style="fill:#840000; fill-opacity:0.0; 
stroke:#840000; stroke-width:0; stroke-opacity:1; 
stroke-linecap:round; stroke-linejoin:round;">
</g>
<g style="fill:#840000; fill-opacity:1.0; 
stroke:#840000; stroke-width:0; stroke-opacity:1; 
stroke-linecap:round; stroke-linejoin:round;">
<polyline style="fill-rule:evenodd;"
points="35422,50750
35422,49923
36249,49923
36249,50750
35422,50750
" /> 
<polyline style="fill-rule:evenodd;"
points="41595,39045
41595,39872
40768,39872
40768,39045
41595,39045
" /> 
</g>
<g style="fill:#840000; fill-opacity:1.0; 
stroke:#840000; stroke-width:826.772; stroke-opacity:1; 
stroke-linecap:round; stroke-linejoin:round;">
</g>
<g style="fill:#840000; fill-opacity:0.0; 
stroke:#840000; stroke-width:826.772; stroke-opacity:1; 
stroke-linecap:round; stroke-linejoin:round;">
<path d="M41182 38458
L41182 38458
" />
<path d="M41182 37458
L41182 37458
" />
</g>
<g style="fill:#840000; fill-opacity:0.0; 
stroke:#840000; stroke-width:0; stroke-opacity:1; 
stroke-linecap:round; stroke-linejoin:round;">
</g>
<g style="fill:#840000; fill-opacity:1.0; 
stroke:#840000; stroke-width:0; stroke-opacity:1; 
stroke-linecap:round; stroke-linejoin:round;">
<polyline style="fill-rule:evenodd;"
points="8757,47470
8757,46643
9583,46643
9583,47470
8757,47470
" /> 
<polyline style="fill-rule:evenodd;"
points="13446,53435
12619,53435
12619,52608
13446,52608
13446,53435
" /> 
</g>
<g style="fill:#840000; fill-opacity:1.0; 
stroke:#840000; stroke-width:826.772; stroke-opacity:1; 
stroke-linecap:round; stroke-linejoin:round;">
</g>
<g style="fill:#840000; fill-opacity:0.0; 
stroke:#840000; stroke-width:826.772; stroke-opacity:1; 
stroke-linecap:round; stroke-linejoin:round;">
<path d="M14032 53021
L14032 53021
" />
<path d="M15032 53021
L15032 53021
" />
</g>
<g style="fill:#840000; fill-opacity:0.0; 
stroke:#840000; stroke-width:0; stroke-opacity:1; 
stroke-linecap:round; stroke-linejoin:round;">
</g>
<g style="fill:#840000; fill-opacity:1.0; 
stroke:#840000; stroke-width:0; stroke-opacity:1; 
stroke-linecap:round; stroke-linejoin:round;">
<polyline style="fill-rule:evenodd;"
points="28698,44783
28698,44114
29446,44114
29446,44783
28698,44783
" /> 
<polyline style="fill-rule:evenodd;"
points="29761,44783
29761,44114
30509,44114
30509,44783
29761,44783
" /> 
<polyline style="fill-rule:evenodd;"
points="33670,47235
33001,47235
33001,46487
33670,46487
33670,47235
" /> 
<polyline style="fill-rule:evenodd;"
points="33670,46172
33001,46172
33001,45424
33670,45424
33670,46172
" /> 
<polyline style="fill-rule:evenodd;"
points="9501,61555
10170,61555
10170,62303
9501,62303
9501,61555
" /> 
<polyline style="fill-rule:evenodd;"
points="9501,62618
10170,62618
10170,63366
9501,63366
9501,62618
" /> 
<polyline style="fill-rule:evenodd;"
points="12472,62694
12472,63364
11724,63364
11724,62694
12472,62694
" /> 
<polyline style="fill-rule:evenodd;"
points="11409,62694
11409,63364
10661,63364
10661,62694
11409,62694
" /> 
<polyline style="fill-rule:evenodd;"
points="14219,65856
13550,65856
13550,65108
14219,65108
14219,65856
" /> 
<polyline style="fill-rule:evenodd;"
points="14219,64793
13550,64793
13550,64045
14219,64045
14219,64793
" /> 
<polyline style="fill-rule:evenodd;"
points="32111,61616
32111,62285
31363,62285
31363,61616
32111,61616
" /> 
<polyline style="fill-rule:evenodd;"
points="31048,61616
31048,62285
30300,62285
30300,61616
31048,61616
" /> 
<polyline style="fill-rule:evenodd;"
points="47910,48466
48579,48466
48579,49214
47910,49214
47910,48466
" /> 
<polyline style="fill-rule:evenodd;"
points="47910,49529
48579,49529
48579,50277
47910,50277
47910,49529
" /> 
<polyline style="fill-rule:evenodd;"
points="47875,44683
48544,44683
48544,45431
47875,45431
47875,44683
" /> 
<polyline style="fill-rule:evenodd;"
points="47875,45746
48544,45746
48544,46494
47875,46494
47875,45746
" /> 
<polyline style="fill-rule:evenodd;"
points="32111,62360
32111,63029
31363,63029
31363,62360
32111,62360
" /> 
<polyline style="fill-rule:evenodd;"
points="31048,62360
31048,63029
30300,63029
30300,62360
31048,62360
" /> 
<polyline style="fill-rule:evenodd;"
points="38635,59596
39304,59596
39304,60344
38635,60344
38635,59596
" /> 
<polyline style="fill-rule:evenodd;"
points="38635,60659
39304,60659
39304,61407
38635,61407
38635,60659
" /> 
<polyline style="fill-rule:evenodd;"
points="44198,43935
44198,44604
43450,44604
43450,43935
44198,43935
" /> 
<polyline style="fill-rule:evenodd;"
points="43135,43935
43135,44604
42387,44604
42387,43935
43135,43935
" /> 
<polyline style="fill-rule:evenodd;"
points="7723,51289
7054,51289
7054,50541
7723,50541
7723,51289
" /> 
<polyline style="fill-rule:evenodd;"
points="7723,50226
7054,50226
7054,49478
7723,49478
7723,50226
" /> 
<polyline style="fill-rule:evenodd;"
points="44201,42978
44201,43647
43453,43647
43453,42978
44201,42978
" /> 
<polyline style="fill-rule:evenodd;"
points="43138,42978
43138,43647
42390,43647
42390,42978
43138,42978
" /> 
<polyline style="fill-rule:evenodd;"
points="39985,51765
39316,51765
39316,51017
39985,51017
39985,51765
" /> 
<polyline style="fill-rule:evenodd;"
points="39985,50702
39316,50702
39316,49954
39985,49954
39985,50702
" /> 
<polyline style="fill-rule:evenodd;"
points="39024,51246
38355,51246
38355,50498
39024,50498
39024,51246
" /> 
<polyline style="fill-rule:evenodd;"
points="39024,50183
38355,50183
38355,49435
39024,49435
39024,50183
" /> 
<polyline style="fill-rule:evenodd;"
points="40481,53824
39812,53824
39812,53076
40481,53076
40481,53824
" /> 
<polyline style="fill-rule:evenodd;"
points="40481,52761
39812,52761
39812,52013
40481,52013
40481,52761
" /> 
<polyline style="fill-rule:evenodd;"
points="39532,53820
38863,53820
38863,53072
39532,53072
39532,53820
" /> 
<polyline style="fill-rule:evenodd;"
points="39532,52757
38863,52757
38863,52009
39532,52009
39532,52757
" /> 
<polyline style="fill-rule:evenodd;"
points="19794,51304
19794,51954
19046,51954
19046,51304
19794,51304
" /> 
<polyline style="fill-rule:evenodd;"
points="18809,51304
18809,51954
18061,51954
18061,51304
18809,51304
" /> 
<circle cx="23535.8" cy="64337.4" r="413.386" /> 
</g>
<g style="fill:#840000; fill-opacity:1.0; 
stroke:#840000; stroke-width:39.3701; stroke-opacity:1; 
stroke-linecap:round; stroke-linejoin:round;">
</g>
<g style="fill:#840000; fill-opacity:1.0; 
stroke:#840000; stroke-width:0; stroke-opacity:1; 
stroke-linecap:round; stroke-linejoin:round;">
<polyline style="fill-rule:evenodd;"
points="23949,63742
23122,63742
23122,62916
23949,62916
23949,63742
" /> 
<polyline style="fill-rule:evenodd;"
points="19957,50994
19957,50324
20705,50324
20705,50994
19957,50994
" /> 
<polyline style="fill-rule:evenodd;"
points="21020,50994
21020,50324
21768,50324
21768,50994
21020,50994
" /> 
<polyline style="fill-rule:evenodd;"
points="17998,53764
17998,53094
18746,53094
18746,53764
17998,53764
" /> 
<polyline style="fill-rule:evenodd;"
points="19061,53764
19061,53094
19809,53094
19809,53764
19061,53764
" /> 
<circle cx="4735.83" cy="56429.5" r="354.331" /> 
</g>
<g style="fill:#840000; fill-opacity:1.0; 
stroke:#840000; stroke-width:39.3701; stroke-opacity:1; 
stroke-linecap:round; stroke-linejoin:round;">
</g>
<g style="fill:#840000; fill-opacity:1.0; 
stroke:#840000; stroke-width:708.661; stroke-opacity:1; 
stroke-linecap:round; stroke-linejoin:round;">
</g>
<g style="fill:#840000; fill-opacity:0.0; 
stroke:#840000; stroke-width:708.661; stroke-opacity:1; 
stroke-linecap:round; stroke-linejoin:round;">
<path d="M4735 54429
L4735 54429
" />
</g>
<g style="fill:#840000; fill-opacity:0.0; 
stroke:#840000; stroke-width:0; stroke-opacity:1; 
stroke-linecap:round; stroke-linejoin:round;">
</g>
<g style="fill:#840000; fill-opacity:1.0; 
stroke:#840000; stroke-width:0; stroke-opacity:1; 
stroke-linecap:round; stroke-linejoin:round;">
<polyline style="fill-rule:evenodd;"
points="19951,53735
19951,53066
20719,53066
20719,53735
19951,53735
" /> 
<polyline style="fill-rule:evenodd;"
points="19951,51964
19951,51294
20719,51294
20719,51964
19951,51964
" /> 
<polyline style="fill-rule:evenodd;"
points="23085,51964
23085,51294
23853,51294
23853,51964
23085,51964
" /> 
<polyline style="fill-rule:evenodd;"
points="23085,53735
23085,53066
23853,53066
23853,53735
23085,53735
" /> 
</g> 
</svg>
