<?xml version="1.0" standalone="no"?>
 <!DOCTYPE svg PUBLIC "-//W3C//DTD SVG 1.1//EN" 
 "http://www.w3.org/Graphics/SVG/1.1/DTD/svg11.dtd"> 
<svg xmlns="http://www.w3.org/2000/svg" version="1.1" 
    width="29.7002cm" height="21.0007cm" viewBox="0 0 116930 82680 ">
<title>SVG Picture created as CPU_Board-F.Mask.svg date 2017/09/20 09:45:23 </title>
  <desc>Picture generated by PCBNEW </desc>
<g style="fill:#000000; fill-opacity:1;stroke:#000000; stroke-opacity:1;
stroke-linecap:round; stroke-linejoin:round; "
 transform="translate(0 0) scale(1 1)">
</g>
<g style="fill:#000000; fill-opacity:0.0; 
stroke:#000000; stroke-width:-0.000393701; stroke-opacity:1; 
stroke-linecap:round; stroke-linejoin:round;">
</g>
<g style="fill:#000000; fill-opacity:0.0; 
stroke:#000000; stroke-width:39.3701; stroke-opacity:1; 
stroke-linecap:round; stroke-linejoin:round;">
</g>
<g style="fill:#000000; fill-opacity:0.0; 
stroke:#000000; stroke-width:59.0551; stroke-opacity:1; 
stroke-linecap:round; stroke-linejoin:round;">
<rect x="69685.9" y="65357.2" width="42519.7" height="12598.4" rx="0" />
</g>
<g style="fill:#000000; fill-opacity:0.0; 
stroke:#000000; stroke-width:39.3701; stroke-opacity:1; 
stroke-linecap:round; stroke-linejoin:round;">
</g>
<g style="fill:#000000; fill-opacity:0.0; 
stroke:#000000; stroke-width:59.0551; stroke-opacity:1; 
stroke-linecap:round; stroke-linejoin:round;">
<rect x="3937.01" y="3937.01" width="109056" height="74806" rx="0" />
</g>
<g style="fill:#000000; fill-opacity:0.0; 
stroke:#000000; stroke-width:39.3701; stroke-opacity:1; 
stroke-linecap:round; stroke-linejoin:round;">
</g>
<g style="fill:#000000; fill-opacity:0.0; 
stroke:#000000; stroke-width:59.0551; stroke-opacity:1; 
stroke-linecap:round; stroke-linejoin:round;">
<rect x="4724.41" y="4724.41" width="107481" height="73231.2" rx="0" />
</g>
<g style="fill:#000000; fill-opacity:0.0; 
stroke:#000000; stroke-width:39.3701; stroke-opacity:1; 
stroke-linecap:round; stroke-linejoin:round;">
</g>
<g style="fill:#000000; fill-opacity:0.0; 
stroke:#000000; stroke-width:59.0551; stroke-opacity:1; 
stroke-linecap:round; stroke-linejoin:round;">
<path d="M23622 4724
L23622 3937
" />
</g>
<g style="fill:#000000; fill-opacity:0.0; 
stroke:#000000; stroke-width:39.3701; stroke-opacity:1; 
stroke-linecap:round; stroke-linejoin:round;">
</g>
<g style="fill:#000000; fill-opacity:0.0; 
stroke:#000000; stroke-width:59.0551; stroke-opacity:1; 
stroke-linecap:round; stroke-linejoin:round;">
<path d="M43307 4724
L43307 3937
" />
</g>
<g style="fill:#000000; fill-opacity:0.0; 
stroke:#000000; stroke-width:39.3701; stroke-opacity:1; 
stroke-linecap:round; stroke-linejoin:round;">
</g>
<g style="fill:#000000; fill-opacity:0.0; 
stroke:#000000; stroke-width:59.0551; stroke-opacity:1; 
stroke-linecap:round; stroke-linejoin:round;">
<path d="M62992 4724
L62992 3937
" />
</g>
<g style="fill:#000000; fill-opacity:0.0; 
stroke:#000000; stroke-width:39.3701; stroke-opacity:1; 
stroke-linecap:round; stroke-linejoin:round;">
</g>
<g style="fill:#000000; fill-opacity:0.0; 
stroke:#000000; stroke-width:59.0551; stroke-opacity:1; 
stroke-linecap:round; stroke-linejoin:round;">
<path d="M82677 4724
L82677 3937
" />
</g>
<g style="fill:#000000; fill-opacity:0.0; 
stroke:#000000; stroke-width:39.3701; stroke-opacity:1; 
stroke-linecap:round; stroke-linejoin:round;">
</g>
<g style="fill:#000000; fill-opacity:0.0; 
stroke:#000000; stroke-width:59.0551; stroke-opacity:1; 
stroke-linecap:round; stroke-linejoin:round;">
<path d="M102362 4724
L102362 3937
" />
</g>
<g style="fill:#000000; fill-opacity:0.0; 
stroke:#000000; stroke-width:39.3701; stroke-opacity:1; 
stroke-linecap:round; stroke-linejoin:round;">
</g>
<g style="fill:#000000; fill-opacity:0.0; 
stroke:#000000; stroke-width:59.0551; stroke-opacity:1; 
stroke-linecap:round; stroke-linejoin:round;">
<path d="M14169 4562
L13877 4562
" />
<path d="M14023 4562
L14023 4050
L13974 4123
L13925 4172
L13877 4196
" />
</g>
<g style="fill:#000000; fill-opacity:0.0; 
stroke:#000000; stroke-width:39.3701; stroke-opacity:1; 
stroke-linecap:round; stroke-linejoin:round;">
</g>
<g style="fill:#000000; fill-opacity:0.0; 
stroke:#000000; stroke-width:59.0551; stroke-opacity:1; 
stroke-linecap:round; stroke-linejoin:round;">
<path d="M33562 4099
L33586 4074
L33635 4050
L33757 4050
L33805 4074
L33830 4099
L33854 4147
L33854 4196
L33830 4269
L33537 4562
L33854 4562
" />
</g>
<g style="fill:#000000; fill-opacity:0.0; 
stroke:#000000; stroke-width:39.3701; stroke-opacity:1; 
stroke-linecap:round; stroke-linejoin:round;">
</g>
<g style="fill:#000000; fill-opacity:0.0; 
stroke:#000000; stroke-width:59.0551; stroke-opacity:1; 
stroke-linecap:round; stroke-linejoin:round;">
<path d="M53222 4050
L53539 4050
L53368 4245
L53442 4245
L53490 4269
L53515 4294
L53539 4342
L53539 4464
L53515 4513
L53490 4537
L53442 4562
L53295 4562
L53247 4537
L53222 4513
" />
</g>
<g style="fill:#000000; fill-opacity:0.0; 
stroke:#000000; stroke-width:39.3701; stroke-opacity:1; 
stroke-linecap:round; stroke-linejoin:round;">
</g>
<g style="fill:#000000; fill-opacity:0.0; 
stroke:#000000; stroke-width:59.0551; stroke-opacity:1; 
stroke-linecap:round; stroke-linejoin:round;">
<path d="M73175 4221
L73175 4562
" />
<path d="M73053 4026
L72932 4391
L73248 4391
" />
</g>
<g style="fill:#000000; fill-opacity:0.0; 
stroke:#000000; stroke-width:39.3701; stroke-opacity:1; 
stroke-linecap:round; stroke-linejoin:round;">
</g>
<g style="fill:#000000; fill-opacity:0.0; 
stroke:#000000; stroke-width:59.0551; stroke-opacity:1; 
stroke-linecap:round; stroke-linejoin:round;">
<path d="M92885 4050
L92641 4050
L92617 4294
L92641 4269
L92690 4245
L92812 4245
L92860 4269
L92885 4294
L92909 4342
L92909 4464
L92885 4513
L92860 4537
L92812 4562
L92690 4562
L92641 4537
L92617 4513
" />
</g>
<g style="fill:#000000; fill-opacity:0.0; 
stroke:#000000; stroke-width:39.3701; stroke-opacity:1; 
stroke-linecap:round; stroke-linejoin:round;">
</g>
<g style="fill:#000000; fill-opacity:0.0; 
stroke:#000000; stroke-width:59.0551; stroke-opacity:1; 
stroke-linecap:round; stroke-linejoin:round;">
<path d="M112545 4050
L112448 4050
L112399 4074
L112375 4099
L112326 4172
L112302 4269
L112302 4464
L112326 4513
L112350 4537
L112399 4562
L112497 4562
L112545 4537
L112570 4513
L112594 4464
L112594 4342
L112570 4294
L112545 4269
L112497 4245
L112399 4245
L112350 4269
L112326 4294
L112302 4342
" />
</g>
<g style="fill:#000000; fill-opacity:0.0; 
stroke:#000000; stroke-width:39.3701; stroke-opacity:1; 
stroke-linecap:round; stroke-linejoin:round;">
</g>
<g style="fill:#000000; fill-opacity:0.0; 
stroke:#000000; stroke-width:59.0551; stroke-opacity:1; 
stroke-linecap:round; stroke-linejoin:round;">
<path d="M23622 77955
L23622 78742
" />
</g>
<g style="fill:#000000; fill-opacity:0.0; 
stroke:#000000; stroke-width:39.3701; stroke-opacity:1; 
stroke-linecap:round; stroke-linejoin:round;">
</g>
<g style="fill:#000000; fill-opacity:0.0; 
stroke:#000000; stroke-width:59.0551; stroke-opacity:1; 
stroke-linecap:round; stroke-linejoin:round;">
<path d="M43307 77955
L43307 78742
" />
</g>
<g style="fill:#000000; fill-opacity:0.0; 
stroke:#000000; stroke-width:39.3701; stroke-opacity:1; 
stroke-linecap:round; stroke-linejoin:round;">
</g>
<g style="fill:#000000; fill-opacity:0.0; 
stroke:#000000; stroke-width:59.0551; stroke-opacity:1; 
stroke-linecap:round; stroke-linejoin:round;">
<path d="M62992 77955
L62992 78742
" />
</g>
<g style="fill:#000000; fill-opacity:0.0; 
stroke:#000000; stroke-width:39.3701; stroke-opacity:1; 
stroke-linecap:round; stroke-linejoin:round;">
</g>
<g style="fill:#000000; fill-opacity:0.0; 
stroke:#000000; stroke-width:59.0551; stroke-opacity:1; 
stroke-linecap:round; stroke-linejoin:round;">
<path d="M82677 77955
L82677 78742
" />
</g>
<g style="fill:#000000; fill-opacity:0.0; 
stroke:#000000; stroke-width:39.3701; stroke-opacity:1; 
stroke-linecap:round; stroke-linejoin:round;">
</g>
<g style="fill:#000000; fill-opacity:0.0; 
stroke:#000000; stroke-width:59.0551; stroke-opacity:1; 
stroke-linecap:round; stroke-linejoin:round;">
<path d="M102362 77955
L102362 78742
" />
</g>
<g style="fill:#000000; fill-opacity:0.0; 
stroke:#000000; stroke-width:39.3701; stroke-opacity:1; 
stroke-linecap:round; stroke-linejoin:round;">
</g>
<g style="fill:#000000; fill-opacity:0.0; 
stroke:#000000; stroke-width:59.0551; stroke-opacity:1; 
stroke-linecap:round; stroke-linejoin:round;">
<path d="M14169 78580
L13877 78580
" />
<path d="M14023 78580
L14023 78069
L13974 78142
L13925 78190
L13877 78215
" />
</g>
<g style="fill:#000000; fill-opacity:0.0; 
stroke:#000000; stroke-width:39.3701; stroke-opacity:1; 
stroke-linecap:round; stroke-linejoin:round;">
</g>
<g style="fill:#000000; fill-opacity:0.0; 
stroke:#000000; stroke-width:59.0551; stroke-opacity:1; 
stroke-linecap:round; stroke-linejoin:round;">
<path d="M33562 78117
L33586 78093
L33635 78069
L33757 78069
L33805 78093
L33830 78117
L33854 78166
L33854 78215
L33830 78288
L33537 78580
L33854 78580
" />
</g>
<g style="fill:#000000; fill-opacity:0.0; 
stroke:#000000; stroke-width:39.3701; stroke-opacity:1; 
stroke-linecap:round; stroke-linejoin:round;">
</g>
<g style="fill:#000000; fill-opacity:0.0; 
stroke:#000000; stroke-width:59.0551; stroke-opacity:1; 
stroke-linecap:round; stroke-linejoin:round;">
<path d="M53222 78069
L53539 78069
L53368 78263
L53442 78263
L53490 78288
L53515 78312
L53539 78361
L53539 78483
L53515 78532
L53490 78556
L53442 78580
L53295 78580
L53247 78556
L53222 78532
" />
</g>
<g style="fill:#000000; fill-opacity:0.0; 
stroke:#000000; stroke-width:39.3701; stroke-opacity:1; 
stroke-linecap:round; stroke-linejoin:round;">
</g>
<g style="fill:#000000; fill-opacity:0.0; 
stroke:#000000; stroke-width:59.0551; stroke-opacity:1; 
stroke-linecap:round; stroke-linejoin:round;">
<path d="M73175 78239
L73175 78580
" />
<path d="M73053 78044
L72932 78410
L73248 78410
" />
</g>
<g style="fill:#000000; fill-opacity:0.0; 
stroke:#000000; stroke-width:39.3701; stroke-opacity:1; 
stroke-linecap:round; stroke-linejoin:round;">
</g>
<g style="fill:#000000; fill-opacity:0.0; 
stroke:#000000; stroke-width:59.0551; stroke-opacity:1; 
stroke-linecap:round; stroke-linejoin:round;">
<path d="M92885 78069
L92641 78069
L92617 78312
L92641 78288
L92690 78263
L92812 78263
L92860 78288
L92885 78312
L92909 78361
L92909 78483
L92885 78532
L92860 78556
L92812 78580
L92690 78580
L92641 78556
L92617 78532
" />
</g>
<g style="fill:#000000; fill-opacity:0.0; 
stroke:#000000; stroke-width:39.3701; stroke-opacity:1; 
stroke-linecap:round; stroke-linejoin:round;">
</g>
<g style="fill:#000000; fill-opacity:0.0; 
stroke:#000000; stroke-width:59.0551; stroke-opacity:1; 
stroke-linecap:round; stroke-linejoin:round;">
<path d="M112545 78069
L112448 78069
L112399 78093
L112375 78117
L112326 78190
L112302 78288
L112302 78483
L112326 78532
L112350 78556
L112399 78580
L112497 78580
L112545 78556
L112570 78532
L112594 78483
L112594 78361
L112570 78312
L112545 78288
L112497 78263
L112399 78263
L112350 78288
L112326 78312
L112302 78361
" />
</g>
<g style="fill:#000000; fill-opacity:0.0; 
stroke:#000000; stroke-width:39.3701; stroke-opacity:1; 
stroke-linecap:round; stroke-linejoin:round;">
</g>
<g style="fill:#000000; fill-opacity:0.0; 
stroke:#000000; stroke-width:59.0551; stroke-opacity:1; 
stroke-linecap:round; stroke-linejoin:round;">
<path d="M3937 23622
L4724 23622
" />
</g>
<g style="fill:#000000; fill-opacity:0.0; 
stroke:#000000; stroke-width:39.3701; stroke-opacity:1; 
stroke-linecap:round; stroke-linejoin:round;">
</g>
<g style="fill:#000000; fill-opacity:0.0; 
stroke:#000000; stroke-width:59.0551; stroke-opacity:1; 
stroke-linecap:round; stroke-linejoin:round;">
<path d="M3937 43307
L4724 43307
" />
</g>
<g style="fill:#000000; fill-opacity:0.0; 
stroke:#000000; stroke-width:39.3701; stroke-opacity:1; 
stroke-linecap:round; stroke-linejoin:round;">
</g>
<g style="fill:#000000; fill-opacity:0.0; 
stroke:#000000; stroke-width:59.0551; stroke-opacity:1; 
stroke-linecap:round; stroke-linejoin:round;">
<path d="M3937 62992
L4724 62992
" />
</g>
<g style="fill:#000000; fill-opacity:0.0; 
stroke:#000000; stroke-width:39.3701; stroke-opacity:1; 
stroke-linecap:round; stroke-linejoin:round;">
</g>
<g style="fill:#000000; fill-opacity:0.0; 
stroke:#000000; stroke-width:59.0551; stroke-opacity:1; 
stroke-linecap:round; stroke-linejoin:round;">
<path d="M4208 13864
L4452 13864
" />
<path d="M4160 14011
L4330 13499
L4501 14011
" />
</g>
<g style="fill:#000000; fill-opacity:0.0; 
stroke:#000000; stroke-width:39.3701; stroke-opacity:1; 
stroke-linecap:round; stroke-linejoin:round;">
</g>
<g style="fill:#000000; fill-opacity:0.0; 
stroke:#000000; stroke-width:59.0551; stroke-opacity:1; 
stroke-linecap:round; stroke-linejoin:round;">
<path d="M4367 33428
L4440 33452
L4464 33476
L4489 33525
L4489 33598
L4464 33647
L4440 33671
L4391 33696
L4196 33696
L4196 33184
L4367 33184
L4416 33208
L4440 33233
L4464 33281
L4464 33330
L4440 33379
L4416 33403
L4367 33428
L4196 33428
" />
</g>
<g style="fill:#000000; fill-opacity:0.0; 
stroke:#000000; stroke-width:39.3701; stroke-opacity:1; 
stroke-linecap:round; stroke-linejoin:round;">
</g>
<g style="fill:#000000; fill-opacity:0.0; 
stroke:#000000; stroke-width:59.0551; stroke-opacity:1; 
stroke-linecap:round; stroke-linejoin:round;">
<path d="M4489 53332
L4464 53356
L4391 53381
L4342 53381
L4269 53356
L4221 53308
L4196 53259
L4172 53161
L4172 53088
L4196 52991
L4221 52942
L4269 52893
L4342 52869
L4391 52869
L4464 52893
L4489 52918
" />
</g>
<g style="fill:#000000; fill-opacity:0.0; 
stroke:#000000; stroke-width:39.3701; stroke-opacity:1; 
stroke-linecap:round; stroke-linejoin:round;">
</g>
<g style="fill:#000000; fill-opacity:0.0; 
stroke:#000000; stroke-width:59.0551; stroke-opacity:1; 
stroke-linecap:round; stroke-linejoin:round;">
<path d="M4196 73066
L4196 72554
L4318 72554
L4391 72578
L4440 72627
L4464 72676
L4489 72773
L4489 72846
L4464 72944
L4440 72993
L4391 73041
L4318 73066
L4196 73066
" />
</g>
<g style="fill:#000000; fill-opacity:0.0; 
stroke:#000000; stroke-width:39.3701; stroke-opacity:1; 
stroke-linecap:round; stroke-linejoin:round;">
</g>
<g style="fill:#000000; fill-opacity:0.0; 
stroke:#000000; stroke-width:59.0551; stroke-opacity:1; 
stroke-linecap:round; stroke-linejoin:round;">
<path d="M112992 23622
L112205 23622
" />
</g>
<g style="fill:#000000; fill-opacity:0.0; 
stroke:#000000; stroke-width:39.3701; stroke-opacity:1; 
stroke-linecap:round; stroke-linejoin:round;">
</g>
<g style="fill:#000000; fill-opacity:0.0; 
stroke:#000000; stroke-width:59.0551; stroke-opacity:1; 
stroke-linecap:round; stroke-linejoin:round;">
<path d="M112992 43307
L112205 43307
" />
</g>
<g style="fill:#000000; fill-opacity:0.0; 
stroke:#000000; stroke-width:39.3701; stroke-opacity:1; 
stroke-linecap:round; stroke-linejoin:round;">
</g>
<g style="fill:#000000; fill-opacity:0.0; 
stroke:#000000; stroke-width:59.0551; stroke-opacity:1; 
stroke-linecap:round; stroke-linejoin:round;">
<path d="M112992 62992
L112205 62992
" />
</g>
<g style="fill:#000000; fill-opacity:0.0; 
stroke:#000000; stroke-width:39.3701; stroke-opacity:1; 
stroke-linecap:round; stroke-linejoin:round;">
</g>
<g style="fill:#000000; fill-opacity:0.0; 
stroke:#000000; stroke-width:59.0551; stroke-opacity:1; 
stroke-linecap:round; stroke-linejoin:round;">
<path d="M112477 13864
L112721 13864
" />
<path d="M112428 14011
L112599 13499
L112769 14011
" />
</g>
<g style="fill:#000000; fill-opacity:0.0; 
stroke:#000000; stroke-width:39.3701; stroke-opacity:1; 
stroke-linecap:round; stroke-linejoin:round;">
</g>
<g style="fill:#000000; fill-opacity:0.0; 
stroke:#000000; stroke-width:59.0551; stroke-opacity:1; 
stroke-linecap:round; stroke-linejoin:round;">
<path d="M112635 33428
L112708 33452
L112733 33476
L112757 33525
L112757 33598
L112733 33647
L112708 33671
L112660 33696
L112465 33696
L112465 33184
L112635 33184
L112684 33208
L112708 33233
L112733 33281
L112733 33330
L112708 33379
L112684 33403
L112635 33428
L112465 33428
" />
</g>
<g style="fill:#000000; fill-opacity:0.0; 
stroke:#000000; stroke-width:39.3701; stroke-opacity:1; 
stroke-linecap:round; stroke-linejoin:round;">
</g>
<g style="fill:#000000; fill-opacity:0.0; 
stroke:#000000; stroke-width:59.0551; stroke-opacity:1; 
stroke-linecap:round; stroke-linejoin:round;">
<path d="M112757 53332
L112733 53356
L112660 53381
L112611 53381
L112538 53356
L112489 53308
L112465 53259
L112440 53161
L112440 53088
L112465 52991
L112489 52942
L112538 52893
L112611 52869
L112660 52869
L112733 52893
L112757 52918
" />
</g>
<g style="fill:#000000; fill-opacity:0.0; 
stroke:#000000; stroke-width:39.3701; stroke-opacity:1; 
stroke-linecap:round; stroke-linejoin:round;">
</g>
<g style="fill:#000000; fill-opacity:0.0; 
stroke:#000000; stroke-width:59.0551; stroke-opacity:1; 
stroke-linecap:round; stroke-linejoin:round;">
<path d="M112465 73066
L112465 72554
L112587 72554
L112660 72578
L112708 72627
L112733 72676
L112757 72773
L112757 72846
L112733 72944
L112708 72993
L112660 73041
L112587 73066
L112465 73066
" />
</g>
<g style="fill:#000000; fill-opacity:0.0; 
stroke:#000000; stroke-width:39.3701; stroke-opacity:1; 
stroke-linecap:round; stroke-linejoin:round;">
</g>
<g style="fill:#000000; fill-opacity:0.0; 
stroke:#000000; stroke-width:59.0551; stroke-opacity:1; 
stroke-linecap:round; stroke-linejoin:round;">
<path d="M78881 76293
L78881 75703
L79022 75703
L79106 75731
L79162 75787
L79190 75843
L79219 75956
L79219 76040
L79190 76153
L79162 76209
L79106 76265
L79022 76293
L78881 76293
" />
<path d="M79725 76293
L79725 75984
L79697 75928
L79640 75899
L79528 75899
L79472 75928
" />
<path d="M79725 76265
L79669 76293
L79528 76293
L79472 76265
L79444 76209
L79444 76153
L79472 76096
L79528 76068
L79669 76068
L79725 76040
" />
<path d="M79922 75899
L80147 75899
" />
<path d="M80006 75703
L80006 76209
L80034 76265
L80090 76293
L80147 76293
" />
<path d="M80568 76265
L80512 76293
L80400 76293
L80343 76265
L80315 76209
L80315 75984
L80343 75928
L80400 75899
L80512 75899
L80568 75928
L80597 75984
L80597 76040
L80315 76096
" />
<path d="M80850 76237
L80878 76265
L80850 76293
L80822 76265
L80850 76237
L80850 76293
" />
<path d="M80850 75928
L80878 75956
L80850 75984
L80822 75956
L80850 75928
L80850 75984
" />
</g>
<g style="fill:#000000; fill-opacity:0.0; 
stroke:#000000; stroke-width:39.3701; stroke-opacity:1; 
stroke-linecap:round; stroke-linejoin:round;">
</g>
<g style="fill:#000000; fill-opacity:0.0; 
stroke:#000000; stroke-width:59.0551; stroke-opacity:1; 
stroke-linecap:round; stroke-linejoin:round;">
<path d="M69685 76577
L112205 76577
" />
</g>
<g style="fill:#000000; fill-opacity:0.0; 
stroke:#000000; stroke-width:39.3701; stroke-opacity:1; 
stroke-linecap:round; stroke-linejoin:round;">
</g>
<g style="fill:#000000; fill-opacity:0.0; 
stroke:#000000; stroke-width:59.0551; stroke-opacity:1; 
stroke-linecap:round; stroke-linejoin:round;">
<path d="M70220 77395
L70220 76805
" />
<path d="M70557 77395
L70304 77058
" />
<path d="M70557 76805
L70220 77142
" />
<path d="M70810 77395
L70810 77002
" />
<path d="M70810 76805
L70782 76833
L70810 76861
L70838 76833
L70810 76805
L70810 76861
" />
<path d="M71429 77339
L71401 77367
L71316 77395
L71260 77395
L71176 77367
L71120 77311
L71091 77255
L71063 77142
L71063 77058
L71091 76946
L71120 76889
L71176 76833
L71260 76805
L71316 76805
L71401 76833
L71429 76861
" />
<path d="M71935 77395
L71935 77086
L71907 77030
L71851 77002
L71738 77002
L71682 77030
" />
<path d="M71935 77367
L71879 77395
L71738 77395
L71682 77367
L71654 77311
L71654 77255
L71682 77199
L71738 77171
L71879 77171
L71935 77142
" />
<path d="M72469 77395
L72469 76805
" />
<path d="M72469 77367
L72413 77395
L72301 77395
L72244 77367
L72216 77339
L72188 77283
L72188 77114
L72216 77058
L72244 77030
L72301 77002
L72413 77002
L72469 77030
" />
<path d="M73201 77086
L73397 77086
" />
<path d="M73482 77395
L73201 77395
L73201 76805
L73482 76805
" />
<path d="M73735 77339
L73763 77367
L73735 77395
L73707 77367
L73735 77339
L73735 77395
" />
<path d="M74016 77395
L74016 76805
L74157 76805
L74241 76833
L74297 76889
L74325 76946
L74354 77058
L74354 77142
L74325 77255
L74297 77311
L74241 77367
L74157 77395
L74016 77395
" />
<path d="M74607 77339
L74635 77367
L74607 77395
L74579 77367
L74607 77339
L74607 77395
" />
<path d="M74860 77227
L75141 77227
" />
<path d="M74804 77395
L75000 76805
L75197 77395
" />
<path d="M75394 77339
L75422 77367
L75394 77395
L75366 77367
L75394 77339
L75394 77395
" />
<path d="M76575 77395
L76575 76805
" />
<path d="M76631 77171
L76800 77395
" />
<path d="M76800 77002
L76575 77227
" />
<path d="M77053 77395
L77053 77002
" />
<path d="M77053 76805
L77025 76833
L77053 76861
L77081 76833
L77053 76805
L77053 76861
" />
<path d="M77588 77367
L77531 77395
L77419 77395
L77363 77367
L77334 77339
L77306 77283
L77306 77114
L77334 77058
L77363 77030
L77419 77002
L77531 77002
L77588 77030
" />
<path d="M78094 77395
L78094 77086
L78066 77030
L78009 77002
L77897 77002
L77841 77030
" />
<path d="M78094 77367
L78037 77395
L77897 77395
L77841 77367
L77813 77311
L77813 77255
L77841 77199
L77897 77171
L78037 77171
L78094 77142
" />
<path d="M78628 77395
L78628 76805
" />
<path d="M78628 77367
L78572 77395
L78459 77395
L78403 77367
L78375 77339
L78347 77283
L78347 77114
L78375 77058
L78403 77030
L78459 77002
L78572 77002
L78628 77030
" />
<path d="M79612 77002
L79612 77395
" />
<path d="M79472 76777
L79331 77199
L79697 77199
" />
<path d="M79922 77339
L79950 77367
L79922 77395
L79894 77367
L79922 77339
L79922 77395
" />
<path d="M80315 76805
L80372 76805
L80428 76833
L80456 76861
L80484 76917
L80512 77030
L80512 77171
L80484 77283
L80456 77339
L80428 77367
L80372 77395
L80315 77395
L80259 77367
L80231 77339
L80203 77283
L80175 77171
L80175 77030
L80203 76917
L80231 76861
L80259 76833
L80315 76805
" />
<path d="M80765 77339
L80793 77367
L80765 77395
L80737 77367
L80765 77339
L80765 77395
" />
<path d="M81300 77002
L81300 77395
" />
<path d="M81159 76777
L81018 77199
L81384 77199
" />
<path d="M81609 77171
L82059 77171
" />
<path d="M82312 77367
L82368 77395
L82481 77395
L82537 77367
L82565 77311
L82565 77283
L82537 77227
L82481 77199
L82396 77199
L82340 77171
L82312 77114
L82312 77086
L82340 77030
L82396 77002
L82481 77002
L82537 77030
" />
<path d="M82734 77002
L82959 77002
" />
<path d="M82818 76805
L82818 77311
L82846 77367
L82903 77395
L82959 77395
" />
<path d="M83409 77395
L83409 77086
L83381 77030
L83324 77002
L83212 77002
L83156 77030
" />
<path d="M83409 77367
L83352 77395
L83212 77395
L83156 77367
L83127 77311
L83127 77255
L83156 77199
L83212 77171
L83352 77171
L83409 77142
" />
<path d="M83690 77395
L83690 76805
" />
<path d="M83690 77030
L83746 77002
L83859 77002
L83915 77030
L83943 77058
L83971 77114
L83971 77283
L83943 77339
L83915 77367
L83859 77395
L83746 77395
L83690 77367
" />
<path d="M84309 77395
L84252 77367
L84224 77311
L84224 76805
" />
<path d="M84759 77367
L84702 77395
L84590 77395
L84534 77367
L84505 77311
L84505 77086
L84534 77030
L84590 77002
L84702 77002
L84759 77030
L84787 77086
L84787 77142
L84505 77199
" />
</g>
<g style="fill:#000000; fill-opacity:0.0; 
stroke:#000000; stroke-width:39.3701; stroke-opacity:1; 
stroke-linecap:round; stroke-linejoin:round;">
</g>
<g style="fill:#000000; fill-opacity:0.0; 
stroke:#000000; stroke-width:59.0551; stroke-opacity:1; 
stroke-linecap:round; stroke-linejoin:round;">
<path d="M69685 75396
L112205 75396
" />
</g>
<g style="fill:#000000; fill-opacity:0.0; 
stroke:#000000; stroke-width:39.3701; stroke-opacity:1; 
stroke-linecap:round; stroke-linejoin:round;">
</g>
<g style="fill:#000000; fill-opacity:0.0; 
stroke:#000000; stroke-width:118.11; stroke-opacity:1; 
stroke-linecap:round; stroke-linejoin:round;">
<path d="M104022 76293
L103825 76012
" />
<path d="M103684 76293
L103684 75703
L103909 75703
L103965 75731
L103994 75759
L104022 75815
L104022 75899
L103994 75956
L103965 75984
L103909 76012
L103684 76012
" />
<path d="M104500 76265
L104444 76293
L104331 76293
L104275 76265
L104247 76209
L104247 75984
L104275 75928
L104331 75899
L104444 75899
L104500 75928
L104528 75984
L104528 76040
L104247 76096
" />
<path d="M104725 75899
L104865 76293
L105006 75899
" />
<path d="M105231 76237
L105259 76265
L105231 76293
L105203 76265
L105231 76237
L105231 76293
" />
<path d="M105231 75928
L105259 75956
L105231 75984
L105203 75956
L105231 75928
L105231 75984
" />
</g>
<g style="fill:#000000; fill-opacity:0.0; 
stroke:#000000; stroke-width:39.3701; stroke-opacity:1; 
stroke-linecap:round; stroke-linejoin:round;">
</g>
<g style="fill:#000000; fill-opacity:0.0; 
stroke:#000000; stroke-width:59.0551; stroke-opacity:1; 
stroke-linecap:round; stroke-linejoin:round;">
<path d="M70192 76265
L70276 76293
L70417 76293
L70473 76265
L70501 76237
L70529 76181
L70529 76124
L70501 76068
L70473 76040
L70417 76012
L70304 75984
L70248 75956
L70220 75928
L70192 75871
L70192 75815
L70220 75759
L70248 75731
L70304 75703
L70445 75703
L70529 75731
" />
<path d="M70782 76293
L70782 75899
" />
<path d="M70782 75703
L70754 75731
L70782 75759
L70810 75731
L70782 75703
L70782 75759
" />
<path d="M71007 75899
L71316 75899
L71007 76293
L71316 76293
" />
<path d="M71766 76265
L71710 76293
L71598 76293
L71541 76265
L71513 76209
L71513 75984
L71541 75928
L71598 75899
L71710 75899
L71766 75928
L71795 75984
L71795 76040
L71513 76096
" />
<path d="M72048 76237
L72076 76265
L72048 76293
L72019 76265
L72048 76237
L72048 76293
" />
<path d="M72048 75928
L72076 75956
L72048 75984
L72019 75956
L72048 75928
L72048 75984
" />
<path d="M72751 76124
L73032 76124
" />
<path d="M72694 76293
L72891 75703
L73088 76293
" />
<path d="M73538 75899
L73538 76293
" />
<path d="M73397 75674
L73257 76096
L73622 76096
" />
</g>
<g style="fill:#000000; fill-opacity:0.0; 
stroke:#000000; stroke-width:39.3701; stroke-opacity:1; 
stroke-linecap:round; stroke-linejoin:round;">
</g>
<g style="fill:#000000; fill-opacity:0.0; 
stroke:#000000; stroke-width:59.0551; stroke-opacity:1; 
stroke-linecap:round; stroke-linejoin:round;">
<path d="M103684 77395
L103684 76805
" />
<path d="M104219 77395
L104219 76805
" />
<path d="M104219 77367
L104162 77395
L104050 77395
L103994 77367
L103965 77339
L103937 77283
L103937 77114
L103965 77058
L103994 77030
L104050 77002
L104162 77002
L104219 77030
" />
<path d="M104500 77339
L104528 77367
L104500 77395
L104472 77367
L104500 77339
L104500 77395
" />
<path d="M104500 77030
L104528 77058
L104500 77086
L104472 77058
L104500 77030
L104500 77086
" />
<path d="M105540 77395
L105203 77395
" />
<path d="M105372 77395
L105372 76805
L105315 76889
L105259 76946
L105203 76974
" />
<path d="M106215 76777
L105709 77536
" />
<path d="M106721 77395
L106384 77395
" />
<path d="M106553 77395
L106553 76805
L106496 76889
L106440 76946
L106384 76974
" />
</g>
<g style="fill:#000000; fill-opacity:0.0; 
stroke:#000000; stroke-width:39.3701; stroke-opacity:1; 
stroke-linecap:round; stroke-linejoin:round;">
</g>
<g style="fill:#000000; fill-opacity:0.0; 
stroke:#000000; stroke-width:59.0551; stroke-opacity:1; 
stroke-linecap:round; stroke-linejoin:round;">
<path d="M69685 73821
L112205 73821
" />
</g>
<g style="fill:#000000; fill-opacity:0.0; 
stroke:#000000; stroke-width:39.3701; stroke-opacity:1; 
stroke-linecap:round; stroke-linejoin:round;">
</g>
<g style="fill:#000000; fill-opacity:0.0; 
stroke:#000000; stroke-width:157.48; stroke-opacity:1; 
stroke-linecap:round; stroke-linejoin:round;">
<path d="M70257 74099
L70707 74099
" />
<path d="M70384 74886
L70482 74099
" />
<path d="M70871 74886
L70937 74361
" />
<path d="M70970 74099
L70927 74136
L70960 74174
L71002 74136
L70970 74099
L70960 74174
" />
<path d="M71199 74361
L71499 74361
" />
<path d="M71345 74099
L71260 74774
L71288 74849
L71359 74886
L71434 74886
" />
<path d="M71809 74886
L71738 74849
L71710 74774
L71795 74099
" />
<path d="M72413 74849
L72334 74886
L72184 74886
L72113 74849
L72085 74774
L72123 74474
L72169 74399
L72249 74361
L72399 74361
L72469 74399
L72498 74474
L72488 74549
L72104 74624
" />
<path d="M72793 74811
L72826 74849
L72783 74886
L72751 74849
L72793 74811
L72783 74886
" />
<path d="M72844 74399
L72877 74436
L72835 74474
L72802 74436
L72844 74399
L72835 74474
" />
</g>
<g style="fill:#000000; fill-opacity:0.0; 
stroke:#000000; stroke-width:39.3701; stroke-opacity:1; 
stroke-linecap:round; stroke-linejoin:round;">
</g>
<g style="fill:#000000; fill-opacity:0.0; 
stroke:#000000; stroke-width:59.0551; stroke-opacity:1; 
stroke-linecap:round; stroke-linejoin:round;">
<path d="M70417 73070
L70220 73070
" />
<path d="M70220 73380
L70220 72789
L70501 72789
" />
<path d="M70726 73380
L70726 72986
" />
<path d="M70726 72789
L70698 72817
L70726 72845
L70754 72817
L70726 72789
L70726 72845
" />
<path d="M71091 73380
L71035 73352
L71007 73295
L71007 72789
" />
<path d="M71541 73352
L71485 73380
L71373 73380
L71316 73352
L71288 73295
L71288 73070
L71316 73014
L71373 72986
L71485 72986
L71541 73014
L71570 73070
L71570 73127
L71288 73183
" />
<path d="M71823 73323
L71851 73352
L71823 73380
L71795 73352
L71823 73323
L71823 73380
" />
<path d="M71823 73014
L71851 73042
L71823 73070
L71795 73042
L71823 73014
L71823 73070
" />
<path d="M72891 73323
L72863 73352
L72779 73380
L72723 73380
L72638 73352
L72582 73295
L72554 73239
L72526 73127
L72526 73042
L72554 72930
L72582 72874
L72638 72817
L72723 72789
L72779 72789
L72863 72817
L72891 72845
" />
<path d="M73144 73380
L73144 72789
L73369 72789
L73426 72817
L73454 72845
L73482 72902
L73482 72986
L73454 73042
L73426 73070
L73369 73099
L73144 73099
" />
<path d="M73735 72789
L73735 73267
L73763 73323
L73791 73352
L73847 73380
L73960 73380
L74016 73352
L74044 73323
L74072 73267
L74072 72789
" />
<path d="M74213 73436
L74663 73436
" />
<path d="M75000 73070
L75085 73099
L75113 73127
L75141 73183
L75141 73267
L75113 73323
L75085 73352
L75028 73380
L74804 73380
L74804 72789
L75000 72789
L75057 72817
L75085 72845
L75113 72902
L75113 72958
L75085 73014
L75057 73042
L75000 73070
L74804 73070
" />
<path d="M75478 73380
L75422 73352
L75394 73323
L75366 73267
L75366 73099
L75394 73042
L75422 73014
L75478 72986
L75563 72986
L75619 73014
L75647 73042
L75675 73099
L75675 73267
L75647 73323
L75619 73352
L75563 73380
L75478 73380
" />
<path d="M76181 73380
L76181 73070
L76153 73014
L76097 72986
L75985 72986
L75928 73014
" />
<path d="M76181 73352
L76125 73380
L75985 73380
L75928 73352
L75900 73295
L75900 73239
L75928 73183
L75985 73155
L76125 73155
L76181 73127
" />
<path d="M76463 73380
L76463 72986
" />
<path d="M76463 73099
L76491 73042
L76519 73014
L76575 72986
L76631 72986
" />
<path d="M77081 73380
L77081 72789
" />
<path d="M77081 73352
L77025 73380
L76913 73380
L76856 73352
L76828 73323
L76800 73267
L76800 73099
L76828 73042
L76856 73014
L76913 72986
L77025 72986
L77081 73014
" />
<path d="M77363 73323
L77391 73352
L77363 73380
L77334 73352
L77363 73323
L77363 73380
" />
<path d="M77644 73380
L77644 72789
" />
<path d="M77700 73155
L77869 73380
" />
<path d="M77869 72986
L77644 73211
" />
<path d="M78122 73380
L78122 72986
" />
<path d="M78122 72789
L78094 72817
L78122 72845
L78150 72817
L78122 72789
L78122 72845
" />
<path d="M78656 73352
L78600 73380
L78487 73380
L78431 73352
L78403 73323
L78375 73267
L78375 73099
L78403 73042
L78431 73014
L78487 72986
L78600 72986
L78656 73014
" />
<path d="M79162 73380
L79162 73070
L79134 73014
L79078 72986
L78965 72986
L78909 73014
" />
<path d="M79162 73352
L79106 73380
L78965 73380
L78909 73352
L78881 73295
L78881 73239
L78909 73183
L78965 73155
L79106 73155
L79162 73127
" />
<path d="M79697 73380
L79697 72789
" />
<path d="M79697 73352
L79640 73380
L79528 73380
L79472 73352
L79444 73323
L79415 73267
L79415 73099
L79444 73042
L79472 73014
L79528 72986
L79640 72986
L79697 73014
" />
<path d="M79837 73436
L80287 73436
" />
<path d="M80428 72986
L80428 73577
" />
<path d="M80428 73014
L80484 72986
L80597 72986
L80653 73014
L80681 73042
L80709 73099
L80709 73267
L80681 73323
L80653 73352
L80597 73380
L80484 73380
L80428 73352
" />
<path d="M81215 73352
L81159 73380
L81046 73380
L80990 73352
L80962 73323
L80934 73267
L80934 73099
L80962 73042
L80990 73014
L81046 72986
L81159 72986
L81215 73014
" />
<path d="M81468 73380
L81468 72789
" />
<path d="M81468 73014
L81525 72986
L81637 72986
L81693 73014
L81721 73042
L81750 73099
L81750 73267
L81721 73323
L81693 73352
L81637 73380
L81525 73380
L81468 73352
" />
</g>
<g style="fill:#000000; fill-opacity:0.0; 
stroke:#000000; stroke-width:39.3701; stroke-opacity:1; 
stroke-linecap:round; stroke-linejoin:round;">
</g>
<g style="fill:#000000; fill-opacity:0.0; 
stroke:#000000; stroke-width:59.0551; stroke-opacity:1; 
stroke-linecap:round; stroke-linejoin:round;">
<path d="M69685 71459
L112205 71459
" />
</g>
<g style="fill:#000000; fill-opacity:0.0; 
stroke:#000000; stroke-width:39.3701; stroke-opacity:1; 
stroke-linecap:round; stroke-linejoin:round;">
</g>
<g style="fill:#000000; fill-opacity:0.0; 
stroke:#000000; stroke-width:59.0551; stroke-opacity:1; 
stroke-linecap:round; stroke-linejoin:round;">
<path d="M70192 72289
L70276 72317
L70417 72317
L70473 72289
L70501 72260
L70529 72204
L70529 72148
L70501 72092
L70473 72064
L70417 72036
L70304 72007
L70248 71979
L70220 71951
L70192 71895
L70192 71839
L70220 71782
L70248 71754
L70304 71726
L70445 71726
L70529 71754
" />
<path d="M70782 72317
L70782 71726
" />
<path d="M71035 72317
L71035 72007
L71007 71951
L70951 71923
L70867 71923
L70810 71951
L70782 71979
" />
<path d="M71541 72289
L71485 72317
L71373 72317
L71316 72289
L71288 72232
L71288 72007
L71316 71951
L71373 71923
L71485 71923
L71541 71951
L71570 72007
L71570 72064
L71288 72120
" />
<path d="M72048 72289
L71991 72317
L71879 72317
L71823 72289
L71795 72232
L71795 72007
L71823 71951
L71879 71923
L71991 71923
L72048 71951
L72076 72007
L72076 72064
L71795 72120
" />
<path d="M72244 71923
L72469 71923
" />
<path d="M72329 71726
L72329 72232
L72357 72289
L72413 72317
L72469 72317
" />
<path d="M72666 72260
L72694 72289
L72666 72317
L72638 72289
L72666 72260
L72666 72317
" />
<path d="M72666 71951
L72694 71979
L72666 72007
L72638 71979
L72666 71951
L72666 72007
" />
</g>
<g style="fill:#000000; fill-opacity:0.0; 
stroke:#000000; stroke-width:39.3701; stroke-opacity:1; 
stroke-linecap:round; stroke-linejoin:round;">
</g>
<g style="fill:#000000; fill-opacity:0.0; 
stroke:#000000; stroke-width:59.0551; stroke-opacity:1; 
stroke-linecap:round; stroke-linejoin:round;">
<path d="M77559 75396
L77559 76577
" />
</g>
<g style="fill:#000000; fill-opacity:0.0; 
stroke:#000000; stroke-width:39.3701; stroke-opacity:1; 
stroke-linecap:round; stroke-linejoin:round;">
</g>
<g style="fill:#000000; fill-opacity:0.0; 
stroke:#000000; stroke-width:59.0551; stroke-opacity:1; 
stroke-linecap:round; stroke-linejoin:round;">
<path d="M102756 75396
L102756 77955
" />
</g>
<g style="fill:#C2C200; fill-opacity:0.0; 
stroke:#C2C200; stroke-width:59.0551; stroke-opacity:1; 
stroke-linecap:round; stroke-linejoin:round;">
<path d="M117000 0
L116300 0
" />
<path d="M58100 67194
L58100 34498
" />
<path d="M9635 67200
L58100 67200
" />
<path d="M9635 34498
L9635 67200
" />
<path d="M58100 34500
L9635 34500
" />
</g>
<g style="fill:#840000; fill-opacity:0.0; 
stroke:#840000; stroke-width:59.0551; stroke-opacity:1; 
stroke-linecap:round; stroke-linejoin:round;">
</g>
<g style="fill:#840000; fill-opacity:0.0; 
stroke:#840000; stroke-width:0; stroke-opacity:1; 
stroke-linecap:round; stroke-linejoin:round;">
</g>
<g style="fill:#840000; fill-opacity:1.0; 
stroke:#840000; stroke-width:0; stroke-opacity:1; 
stroke-linecap:round; stroke-linejoin:round;">
<polyline style="fill-rule:evenodd;"
points="39025,44842
39281,44842
39281,45393
39025,45393
39025,44842
" /> 
<polyline style="fill-rule:evenodd;"
points="38828,44842
39084,44842
39084,45393
38828,45393
38828,44842
" /> 
<polyline style="fill-rule:evenodd;"
points="38631,44842
38887,44842
38887,45393
38631,45393
38631,44842
" /> 
<polyline style="fill-rule:evenodd;"
points="38435,44842
38690,44842
38690,45393
38435,45393
38435,44842
" /> 
<polyline style="fill-rule:evenodd;"
points="38238,44842
38494,44842
38494,45393
38238,45393
38238,44842
" /> 
<polyline style="fill-rule:evenodd;"
points="38041,44842
38297,44842
38297,45393
38041,45393
38041,44842
" /> 
<polyline style="fill-rule:evenodd;"
points="37844,44842
38100,44842
38100,45393
37844,45393
37844,44842
" /> 
<polyline style="fill-rule:evenodd;"
points="37647,44842
37903,44842
37903,45393
37647,45393
37647,44842
" /> 
<polyline style="fill-rule:evenodd;"
points="37450,44842
37706,44842
37706,45393
37450,45393
37450,44842
" /> 
<polyline style="fill-rule:evenodd;"
points="37253,44842
37509,44842
37509,45393
37253,45393
37253,44842
" /> 
<polyline style="fill-rule:evenodd;"
points="37057,44842
37312,44842
37312,45393
37057,45393
37057,44842
" /> 
<polyline style="fill-rule:evenodd;"
points="36860,44842
37116,44842
37116,45393
36860,45393
36860,44842
" /> 
<polyline style="fill-rule:evenodd;"
points="36663,44842
36919,44842
36919,45393
36663,45393
36663,44842
" /> 
<polyline style="fill-rule:evenodd;"
points="36466,44842
36722,44842
36722,45393
36466,45393
36466,44842
" /> 
<polyline style="fill-rule:evenodd;"
points="36269,44842
36525,44842
36525,45393
36269,45393
36269,44842
" /> 
<polyline style="fill-rule:evenodd;"
points="36072,44842
36328,44842
36328,45393
36072,45393
36072,44842
" /> 
<polyline style="fill-rule:evenodd;"
points="35157,46013
35157,45757
35708,45757
35708,46013
35157,46013
" /> 
<polyline style="fill-rule:evenodd;"
points="35157,46210
35157,45954
35708,45954
35708,46210
35157,46210
" /> 
<polyline style="fill-rule:evenodd;"
points="35157,46407
35157,46151
35708,46151
35708,46407
35157,46407
" /> 
<polyline style="fill-rule:evenodd;"
points="35157,46604
35157,46348
35708,46348
35708,46604
35157,46604
" /> 
<polyline style="fill-rule:evenodd;"
points="35157,46801
35157,46545
35708,46545
35708,46801
35157,46801
" /> 
<polyline style="fill-rule:evenodd;"
points="35157,46998
35157,46742
35708,46742
35708,46998
35157,46998
" /> 
<polyline style="fill-rule:evenodd;"
points="35157,47194
35157,46938
35708,46938
35708,47194
35157,47194
" /> 
<polyline style="fill-rule:evenodd;"
points="35157,47391
35157,47135
35708,47135
35708,47391
35157,47391
" /> 
<polyline style="fill-rule:evenodd;"
points="35157,47588
35157,47332
35708,47332
35708,47588
35157,47588
" /> 
<polyline style="fill-rule:evenodd;"
points="35157,47785
35157,47529
35708,47529
35708,47785
35157,47785
" /> 
<polyline style="fill-rule:evenodd;"
points="35157,47982
35157,47726
35708,47726
35708,47982
35157,47982
" /> 
<polyline style="fill-rule:evenodd;"
points="35157,48179
35157,47923
35708,47923
35708,48179
35157,48179
" /> 
<polyline style="fill-rule:evenodd;"
points="35157,48375
35157,48120
35708,48120
35708,48375
35157,48375
" /> 
<polyline style="fill-rule:evenodd;"
points="35157,48572
35157,48316
35708,48316
35708,48572
35157,48572
" /> 
<polyline style="fill-rule:evenodd;"
points="35157,48769
35157,48513
35708,48513
35708,48769
35157,48769
" /> 
<polyline style="fill-rule:evenodd;"
points="35157,48966
35157,48710
35708,48710
35708,48966
35157,48966
" /> 
<polyline style="fill-rule:evenodd;"
points="36072,49330
36328,49330
36328,49881
36072,49881
36072,49330
" /> 
<polyline style="fill-rule:evenodd;"
points="36269,49330
36525,49330
36525,49881
36269,49881
36269,49330
" /> 
<polyline style="fill-rule:evenodd;"
points="36466,49330
36722,49330
36722,49881
36466,49881
36466,49330
" /> 
<polyline style="fill-rule:evenodd;"
points="36663,49330
36919,49330
36919,49881
36663,49881
36663,49330
" /> 
<polyline style="fill-rule:evenodd;"
points="36860,49330
37116,49330
37116,49881
36860,49881
36860,49330
" /> 
<polyline style="fill-rule:evenodd;"
points="37057,49330
37312,49330
37312,49881
37057,49881
37057,49330
" /> 
<polyline style="fill-rule:evenodd;"
points="37253,49330
37509,49330
37509,49881
37253,49881
37253,49330
" /> 
<polyline style="fill-rule:evenodd;"
points="37450,49330
37706,49330
37706,49881
37450,49881
37450,49330
" /> 
<polyline style="fill-rule:evenodd;"
points="37647,49330
37903,49330
37903,49881
37647,49881
37647,49330
" /> 
<polyline style="fill-rule:evenodd;"
points="37844,49330
38100,49330
38100,49881
37844,49881
37844,49330
" /> 
<polyline style="fill-rule:evenodd;"
points="38041,49330
38297,49330
38297,49881
38041,49881
38041,49330
" /> 
<polyline style="fill-rule:evenodd;"
points="38238,49330
38494,49330
38494,49881
38238,49881
38238,49330
" /> 
<polyline style="fill-rule:evenodd;"
points="38435,49330
38690,49330
38690,49881
38435,49881
38435,49330
" /> 
<polyline style="fill-rule:evenodd;"
points="38631,49330
38887,49330
38887,49881
38631,49881
38631,49330
" /> 
<polyline style="fill-rule:evenodd;"
points="38828,49330
39084,49330
39084,49881
38828,49881
38828,49330
" /> 
<polyline style="fill-rule:evenodd;"
points="39025,49330
39281,49330
39281,49881
39025,49881
39025,49330
" /> 
<polyline style="fill-rule:evenodd;"
points="39645,48966
39645,48710
40196,48710
40196,48966
39645,48966
" /> 
<polyline style="fill-rule:evenodd;"
points="39645,48769
39645,48513
40196,48513
40196,48769
39645,48769
" /> 
<polyline style="fill-rule:evenodd;"
points="39645,48572
39645,48316
40196,48316
40196,48572
39645,48572
" /> 
<polyline style="fill-rule:evenodd;"
points="39645,48375
39645,48120
40196,48120
40196,48375
39645,48375
" /> 
<polyline style="fill-rule:evenodd;"
points="39645,48179
39645,47923
40196,47923
40196,48179
39645,48179
" /> 
<polyline style="fill-rule:evenodd;"
points="39645,47982
39645,47726
40196,47726
40196,47982
39645,47982
" /> 
<polyline style="fill-rule:evenodd;"
points="39645,47785
39645,47529
40196,47529
40196,47785
39645,47785
" /> 
<polyline style="fill-rule:evenodd;"
points="39645,47588
39645,47332
40196,47332
40196,47588
39645,47588
" /> 
<polyline style="fill-rule:evenodd;"
points="39645,47391
39645,47135
40196,47135
40196,47391
39645,47391
" /> 
<polyline style="fill-rule:evenodd;"
points="39645,47194
39645,46938
40196,46938
40196,47194
39645,47194
" /> 
<polyline style="fill-rule:evenodd;"
points="39645,46998
39645,46742
40196,46742
40196,46998
39645,46998
" /> 
<polyline style="fill-rule:evenodd;"
points="39645,46801
39645,46545
40196,46545
40196,46801
39645,46801
" /> 
<polyline style="fill-rule:evenodd;"
points="39645,46604
39645,46348
40196,46348
40196,46604
39645,46604
" /> 
<polyline style="fill-rule:evenodd;"
points="39645,46407
39645,46151
40196,46151
40196,46407
39645,46407
" /> 
<polyline style="fill-rule:evenodd;"
points="39645,46210
39645,45954
40196,45954
40196,46210
39645,46210
" /> 
<polyline style="fill-rule:evenodd;"
points="39645,46013
39645,45757
40196,45757
40196,46013
39645,46013
" /> 
<polyline style="fill-rule:evenodd;"
points="48852,51671
48852,51159
49639,51159
49639,51671
48852,51671
" /> 
<polyline style="fill-rule:evenodd;"
points="48852,51171
48852,50659
49639,50659
49639,51171
48852,51171
" /> 
<polyline style="fill-rule:evenodd;"
points="48852,50671
48852,50159
49639,50159
49639,50671
48852,50671
" /> 
<polyline style="fill-rule:evenodd;"
points="48852,50171
48852,49659
49639,49659
49639,50171
48852,50171
" /> 
<polyline style="fill-rule:evenodd;"
points="48852,49671
48852,49159
49639,49159
49639,49671
48852,49671
" /> 
<polyline style="fill-rule:evenodd;"
points="48852,49171
48852,48659
49639,48659
49639,49171
48852,49171
" /> 
<polyline style="fill-rule:evenodd;"
points="48852,48671
48852,48159
49639,48159
49639,48671
48852,48671
" /> 
<polyline style="fill-rule:evenodd;"
points="48852,48171
48852,47659
49639,47659
49639,48171
48852,48171
" /> 
<polyline style="fill-rule:evenodd;"
points="48852,47671
48852,47159
49639,47159
49639,47671
48852,47671
" /> 
<polyline style="fill-rule:evenodd;"
points="48852,47171
48852,46659
49639,46659
49639,47171
48852,47171
" /> 
<polyline style="fill-rule:evenodd;"
points="48852,46671
48852,46159
49639,46159
49639,46671
48852,46671
" /> 
<polyline style="fill-rule:evenodd;"
points="48852,46171
48852,45659
49639,45659
49639,46171
48852,46171
" /> 
<polyline style="fill-rule:evenodd;"
points="48852,45671
48852,45159
49639,45159
49639,45671
48852,45671
" /> 
<polyline style="fill-rule:evenodd;"
points="55509,51671
55509,51159
56297,51159
56297,51671
55509,51671
" /> 
<polyline style="fill-rule:evenodd;"
points="55509,51171
55509,50659
56297,50659
56297,51171
55509,51171
" /> 
<polyline style="fill-rule:evenodd;"
points="55509,50671
55509,50159
56297,50159
56297,50671
55509,50671
" /> 
<polyline style="fill-rule:evenodd;"
points="55509,48171
55509,47659
56297,47659
56297,48171
55509,48171
" /> 
<polyline style="fill-rule:evenodd;"
points="55509,47671
55509,47159
56297,47159
56297,47671
55509,47671
" /> 
<polyline style="fill-rule:evenodd;"
points="55509,47171
55509,46659
56297,46659
56297,47171
55509,47171
" /> 
<polyline style="fill-rule:evenodd;"
points="55509,46671
55509,46159
56297,46159
56297,46671
55509,46671
" /> 
<polyline style="fill-rule:evenodd;"
points="55509,46171
55509,45659
56297,45659
56297,46171
55509,46171
" /> 
<polyline style="fill-rule:evenodd;"
points="55509,45659
55509,45147
56297,45147
56297,45659
55509,45659
" /> 
<polyline style="fill-rule:evenodd;"
points="50746,50994
50746,50336
51403,50336
51403,50994
50746,50994
" /> 
<polyline style="fill-rule:evenodd;"
points="51746,50994
51746,50336
52403,50336
52403,50994
51746,50994
" /> 
<polyline style="fill-rule:evenodd;"
points="52746,50994
52746,50336
53403,50336
53403,50994
52746,50994
" /> 
<polyline style="fill-rule:evenodd;"
points="53746,50994
53746,50336
54403,50336
54403,50994
53746,50994
" /> 
<polyline style="fill-rule:evenodd;"
points="50746,46494
50746,45836
51403,45836
51403,46494
50746,46494
" /> 
<polyline style="fill-rule:evenodd;"
points="51746,46494
51746,45836
52403,45836
52403,46494
51746,46494
" /> 
<polyline style="fill-rule:evenodd;"
points="52746,46494
52746,45836
53403,45836
53403,46494
52746,46494
" /> 
<polyline style="fill-rule:evenodd;"
points="53746,46494
53746,45836
54403,45836
54403,46494
53746,46494
" /> 
<polyline style="fill-rule:evenodd;"
points="44094,46893
44094,46066
44921,46066
44921,46893
44094,46893
" /> 
</g>
<g style="fill:#840000; fill-opacity:1.0; 
stroke:#840000; stroke-width:826.772; stroke-opacity:1; 
stroke-linecap:round; stroke-linejoin:round;">
</g>
<g style="fill:#840000; fill-opacity:0.0; 
stroke:#840000; stroke-width:826.772; stroke-opacity:1; 
stroke-linecap:round; stroke-linejoin:round;">
<path d="M44507 47480
L44507 47480
" />
</g>
<g style="fill:#840000; fill-opacity:0.0; 
stroke:#840000; stroke-width:0; stroke-opacity:1; 
stroke-linecap:round; stroke-linejoin:round;">
</g>
<g style="fill:#840000; fill-opacity:1.0; 
stroke:#840000; stroke-width:0; stroke-opacity:1; 
stroke-linecap:round; stroke-linejoin:round;">
<polyline style="fill-rule:evenodd;"
points="39557,39051
38907,39051
38907,38303
39557,38303
39557,39051
" /> 
<polyline style="fill-rule:evenodd;"
points="39557,38066
38907,38066
38907,37318
39557,37318
39557,38066
" /> 
<polyline style="fill-rule:evenodd;"
points="16683,39625
16683,38799
17627,38799
17627,39625
16683,39625
" /> 
<polyline style="fill-rule:evenodd;"
points="18257,39625
18257,38799
19202,38799
19202,39625
18257,39625
" /> 
<polyline style="fill-rule:evenodd;"
points="12658,63168
10941,63168
10941,62231
12658,62231
12658,63168
" /> 
</g>
<g style="fill:#840000; fill-opacity:1.0; 
stroke:#840000; stroke-width:937.008; stroke-opacity:1; 
stroke-linecap:round; stroke-linejoin:round;">
</g>
<g style="fill:#840000; fill-opacity:0.0; 
stroke:#840000; stroke-width:937.008; stroke-opacity:1; 
stroke-linecap:round; stroke-linejoin:round;">
<path d="M11410 60731
L12189 60731
" />
</g>
<g style="fill:#840000; fill-opacity:1.0; 
stroke:#840000; stroke-width:0; stroke-opacity:1; 
stroke-linecap:round; stroke-linejoin:round;">
<circle cx="14822.8" cy="38220.5" r="377.953" /> 
</g>
<g style="fill:#840000; fill-opacity:1.0; 
stroke:#840000; stroke-width:39.3701; stroke-opacity:1; 
stroke-linecap:round; stroke-linejoin:round;">
</g>
<g style="fill:#840000; fill-opacity:1.0; 
stroke:#840000; stroke-width:0; stroke-opacity:1; 
stroke-linecap:round; stroke-linejoin:round;">
<circle cx="14822.8" cy="39220.5" r="377.953" /> 
</g>
<g style="fill:#840000; fill-opacity:1.0; 
stroke:#840000; stroke-width:39.3701; stroke-opacity:1; 
stroke-linecap:round; stroke-linejoin:round;">
</g>
<g style="fill:#840000; fill-opacity:1.0; 
stroke:#840000; stroke-width:0; stroke-opacity:1; 
stroke-linecap:round; stroke-linejoin:round;">
<circle cx="14035.4" cy="39220.5" r="377.953" /> 
</g>
<g style="fill:#840000; fill-opacity:1.0; 
stroke:#840000; stroke-width:39.3701; stroke-opacity:1; 
stroke-linecap:round; stroke-linejoin:round;">
</g>
<g style="fill:#840000; fill-opacity:1.0; 
stroke:#840000; stroke-width:0; stroke-opacity:1; 
stroke-linecap:round; stroke-linejoin:round;">
<circle cx="14035.4" cy="38220.5" r="377.953" /> 
</g>
<g style="fill:#840000; fill-opacity:1.0; 
stroke:#840000; stroke-width:39.3701; stroke-opacity:1; 
stroke-linecap:round; stroke-linejoin:round;">
</g>
<g style="fill:#840000; fill-opacity:1.0; 
stroke:#840000; stroke-width:0; stroke-opacity:1; 
stroke-linecap:round; stroke-linejoin:round;">
<circle cx="12972.4" cy="36358.3" r="610.236" /> 
</g>
<g style="fill:#840000; fill-opacity:1.0; 
stroke:#840000; stroke-width:39.3701; stroke-opacity:1; 
stroke-linecap:round; stroke-linejoin:round;">
</g>
<g style="fill:#840000; fill-opacity:1.0; 
stroke:#840000; stroke-width:0; stroke-opacity:1; 
stroke-linecap:round; stroke-linejoin:round;">
<circle cx="12972.4" cy="41082.7" r="610.236" /> 
</g>
<g style="fill:#840000; fill-opacity:1.0; 
stroke:#840000; stroke-width:39.3701; stroke-opacity:1; 
stroke-linecap:round; stroke-linejoin:round;">
</g>
<g style="fill:#840000; fill-opacity:1.0; 
stroke:#840000; stroke-width:0; stroke-opacity:1; 
stroke-linecap:round; stroke-linejoin:round;">
<polyline style="fill-rule:evenodd;"
points="30700,38185
29874,38185
29874,37358
30700,37358
30700,38185
" /> 
</g>
<g style="fill:#840000; fill-opacity:1.0; 
stroke:#840000; stroke-width:826.772; stroke-opacity:1; 
stroke-linecap:round; stroke-linejoin:round;">
</g>
<g style="fill:#840000; fill-opacity:0.0; 
stroke:#840000; stroke-width:826.772; stroke-opacity:1; 
stroke-linecap:round; stroke-linejoin:round;">
<path d="M31287 37771
L31287 37771
" />
<path d="M32287 37771
L32287 37771
" />
<path d="M33287 37771
L33287 37771
" />
<path d="M34287 37771
L34287 37771
" />
<path d="M35287 37771
L35287 37771
" />
</g>
<g style="fill:#840000; fill-opacity:1.0; 
stroke:#840000; stroke-width:0; stroke-opacity:1; 
stroke-linecap:round; stroke-linejoin:round;">
<circle cx="12043.3" cy="43378" r="826.772" /> 
</g>
<g style="fill:#840000; fill-opacity:1.0; 
stroke:#840000; stroke-width:39.3701; stroke-opacity:1; 
stroke-linecap:round; stroke-linejoin:round;">
</g>
<g style="fill:#840000; fill-opacity:1.0; 
stroke:#840000; stroke-width:0; stroke-opacity:1; 
stroke-linecap:round; stroke-linejoin:round;">
<circle cx="36397.6" cy="65220.5" r="826.772" /> 
</g>
<g style="fill:#840000; fill-opacity:1.0; 
stroke:#840000; stroke-width:39.3701; stroke-opacity:1; 
stroke-linecap:round; stroke-linejoin:round;">
</g>
<g style="fill:#840000; fill-opacity:1.0; 
stroke:#840000; stroke-width:0; stroke-opacity:1; 
stroke-linecap:round; stroke-linejoin:round;">
<circle cx="12051.2" cy="57531.5" r="826.772" /> 
</g>
<g style="fill:#840000; fill-opacity:1.0; 
stroke:#840000; stroke-width:39.3701; stroke-opacity:1; 
stroke-linecap:round; stroke-linejoin:round;">
</g>
<g style="fill:#840000; fill-opacity:1.0; 
stroke:#840000; stroke-width:0; stroke-opacity:1; 
stroke-linecap:round; stroke-linejoin:round;">
<circle cx="52106.3" cy="58165.4" r="826.772" /> 
</g>
<g style="fill:#840000; fill-opacity:1.0; 
stroke:#840000; stroke-width:39.3701; stroke-opacity:1; 
stroke-linecap:round; stroke-linejoin:round;">
</g>
<g style="fill:#840000; fill-opacity:1.0; 
stroke:#840000; stroke-width:0; stroke-opacity:1; 
stroke-linecap:round; stroke-linejoin:round;">
<circle cx="29834.6" cy="52566.9" r="826.772" /> 
</g>
<g style="fill:#840000; fill-opacity:1.0; 
stroke:#840000; stroke-width:39.3701; stroke-opacity:1; 
stroke-linecap:round; stroke-linejoin:round;">
</g>
<g style="fill:#840000; fill-opacity:1.0; 
stroke:#840000; stroke-width:0; stroke-opacity:1; 
stroke-linecap:round; stroke-linejoin:round;">
<circle cx="56055.1" cy="36488.2" r="826.772" /> 
</g>
<g style="fill:#840000; fill-opacity:1.0; 
stroke:#840000; stroke-width:39.3701; stroke-opacity:1; 
stroke-linecap:round; stroke-linejoin:round;">
</g>
<g style="fill:#840000; fill-opacity:1.0; 
stroke:#840000; stroke-width:0; stroke-opacity:1; 
stroke-linecap:round; stroke-linejoin:round;">
<polyline style="fill-rule:evenodd;"
points="12834,49295
12834,48468
13661,48468
13661,49295
12834,49295
" /> 
</g>
<g style="fill:#840000; fill-opacity:1.0; 
stroke:#840000; stroke-width:826.772; stroke-opacity:1; 
stroke-linecap:round; stroke-linejoin:round;">
</g>
<g style="fill:#840000; fill-opacity:0.0; 
stroke:#840000; stroke-width:826.772; stroke-opacity:1; 
stroke-linecap:round; stroke-linejoin:round;">
<path d="M13248 49881
L13248 49881
" />
<path d="M13248 50881
L13248 50881
" />
<path d="M13248 51881
L13248 51881
" />
</g>
<g style="fill:#840000; fill-opacity:0.0; 
stroke:#840000; stroke-width:0; stroke-opacity:1; 
stroke-linecap:round; stroke-linejoin:round;">
</g>
<g style="fill:#840000; fill-opacity:1.0; 
stroke:#840000; stroke-width:0; stroke-opacity:1; 
stroke-linecap:round; stroke-linejoin:round;">
<polyline style="fill-rule:evenodd;"
points="15762,62343
15289,62343
15289,61437
15762,61437
15762,62343
" /> 
<polyline style="fill-rule:evenodd;"
points="16510,62343
16037,62343
16037,61437
16510,61437
16510,62343
" /> 
<polyline style="fill-rule:evenodd;"
points="16136,61162
15663,61162
15663,60256
16136,60256
16136,61162
" /> 
<polyline style="fill-rule:evenodd;"
points="22036,63452
21563,63452
21563,62547
22036,62547
22036,63452
" /> 
<polyline style="fill-rule:evenodd;"
points="22784,63452
22311,63452
22311,62547
22784,62547
22784,63452
" /> 
<polyline style="fill-rule:evenodd;"
points="22410,62271
21937,62271
21937,61366
22410,61366
22410,62271
" /> 
<polyline style="fill-rule:evenodd;"
points="24636,63452
24163,63452
24163,62547
24636,62547
24636,63452
" /> 
<polyline style="fill-rule:evenodd;"
points="25384,63452
24911,63452
24911,62547
25384,62547
25384,63452
" /> 
<polyline style="fill-rule:evenodd;"
points="25010,62271
24537,62271
24537,61366
25010,61366
25010,62271
" /> 
<polyline style="fill-rule:evenodd;"
points="46574,52417
46574,52889
45669,52889
45669,52417
46574,52417
" /> 
<polyline style="fill-rule:evenodd;"
points="46574,51669
46574,52141
45669,52141
45669,51669
46574,51669
" /> 
<polyline style="fill-rule:evenodd;"
points="45393,52043
45393,52515
44488,52515
44488,52043
45393,52043
" /> 
<polyline style="fill-rule:evenodd;"
points="44409,52417
44409,52889
43503,52889
43503,52417
44409,52417
" /> 
<polyline style="fill-rule:evenodd;"
points="44409,51669
44409,52141
43503,52141
43503,51669
44409,51669
" /> 
<polyline style="fill-rule:evenodd;"
points="43228,52043
43228,52515
42322,52515
42322,52043
43228,52043
" /> 
<circle cx="46413.4" cy="50299.2" r="354.331" /> 
</g>
<g style="fill:#840000; fill-opacity:1.0; 
stroke:#840000; stroke-width:39.3701; stroke-opacity:1; 
stroke-linecap:round; stroke-linejoin:round;">
</g>
<g style="fill:#840000; fill-opacity:1.0; 
stroke:#840000; stroke-width:708.661; stroke-opacity:1; 
stroke-linecap:round; stroke-linejoin:round;">
</g>
<g style="fill:#840000; fill-opacity:0.0; 
stroke:#840000; stroke-width:708.661; stroke-opacity:1; 
stroke-linecap:round; stroke-linejoin:round;">
<path d="M45665 50299
L45665 50299
" />
</g>
<g style="fill:#840000; fill-opacity:0.0; 
stroke:#840000; stroke-width:0; stroke-opacity:1; 
stroke-linecap:round; stroke-linejoin:round;">
</g>
<g style="fill:#840000; fill-opacity:1.0; 
stroke:#840000; stroke-width:0; stroke-opacity:1; 
stroke-linecap:round; stroke-linejoin:round;">
<polyline style="fill-rule:evenodd;"
points="24606,41092
24606,41427
23759,41427
23759,41092
24606,41092
" /> 
<polyline style="fill-rule:evenodd;"
points="24606,40836
24606,41171
23759,41171
23759,40836
24606,40836
" /> 
<polyline style="fill-rule:evenodd;"
points="24606,40580
24606,40915
23759,40915
23759,40580
24606,40580
" /> 
<polyline style="fill-rule:evenodd;"
points="24606,40324
24606,40659
23759,40659
23759,40324
24606,40324
" /> 
<polyline style="fill-rule:evenodd;"
points="24606,40068
24606,40403
23759,40403
23759,40068
24606,40068
" /> 
<polyline style="fill-rule:evenodd;"
points="24606,39812
24606,40147
23759,40147
23759,39812
24606,39812
" /> 
<polyline style="fill-rule:evenodd;"
points="24606,39557
24606,39891
23759,39891
23759,39557
24606,39557
" /> 
<polyline style="fill-rule:evenodd;"
points="24606,39301
24606,39635
23759,39635
23759,39301
24606,39301
" /> 
<polyline style="fill-rule:evenodd;"
points="24606,39045
24606,39379
23759,39379
23759,39045
24606,39045
" /> 
<polyline style="fill-rule:evenodd;"
points="24606,38789
24606,39124
23759,39124
23759,38789
24606,38789
" /> 
<polyline style="fill-rule:evenodd;"
points="24606,38533
24606,38868
23759,38868
23759,38533
24606,38533
" /> 
<polyline style="fill-rule:evenodd;"
points="24606,38277
24606,38612
23759,38612
23759,38277
24606,38277
" /> 
<polyline style="fill-rule:evenodd;"
points="24606,38021
24606,38356
23759,38356
23759,38021
24606,38021
" /> 
<polyline style="fill-rule:evenodd;"
points="24606,37765
24606,38100
23759,38100
23759,37765
24606,37765
" /> 
<polyline style="fill-rule:evenodd;"
points="21771,37765
21771,38100
20925,38100
20925,37765
21771,37765
" /> 
<polyline style="fill-rule:evenodd;"
points="21771,38021
21771,38356
20925,38356
20925,38021
21771,38021
" /> 
<polyline style="fill-rule:evenodd;"
points="21771,38277
21771,38612
20925,38612
20925,38277
21771,38277
" /> 
<polyline style="fill-rule:evenodd;"
points="21771,38533
21771,38868
20925,38868
20925,38533
21771,38533
" /> 
<polyline style="fill-rule:evenodd;"
points="21771,38789
21771,39124
20925,39124
20925,38789
21771,38789
" /> 
<polyline style="fill-rule:evenodd;"
points="21771,39045
21771,39379
20925,39379
20925,39045
21771,39045
" /> 
<polyline style="fill-rule:evenodd;"
points="21771,39301
21771,39635
20925,39635
20925,39301
21771,39301
" /> 
<polyline style="fill-rule:evenodd;"
points="21771,39557
21771,39891
20925,39891
20925,39557
21771,39557
" /> 
<polyline style="fill-rule:evenodd;"
points="21771,39812
21771,40147
20925,40147
20925,39812
21771,39812
" /> 
<polyline style="fill-rule:evenodd;"
points="21771,40068
21771,40403
20925,40403
20925,40068
21771,40068
" /> 
<polyline style="fill-rule:evenodd;"
points="21771,40324
21771,40659
20925,40659
20925,40324
21771,40324
" /> 
<polyline style="fill-rule:evenodd;"
points="21771,40580
21771,40915
20925,40915
20925,40580
21771,40580
" /> 
<polyline style="fill-rule:evenodd;"
points="21771,40836
21771,41171
20925,41171
20925,40836
21771,40836
" /> 
<polyline style="fill-rule:evenodd;"
points="21771,41092
21771,41427
20925,41427
20925,41092
21771,41092
" /> 
<polyline style="fill-rule:evenodd;"
points="27753,64998
29406,64998
29406,65942
27753,65942
27753,64998
" /> 
<polyline style="fill-rule:evenodd;"
points="28205,62517
28953,62517
28953,63462
28205,63462
28205,62517
" /> 
<polyline style="fill-rule:evenodd;"
points="27300,62517
28048,62517
28048,63462
27300,63462
27300,62517
" /> 
<polyline style="fill-rule:evenodd;"
points="29111,62517
29859,62517
29859,63462
29111,63462
29111,62517
" /> 
<polyline style="fill-rule:evenodd;"
points="47059,62267
47059,62818
46271,62818
46271,62267
47059,62267
" /> 
<polyline style="fill-rule:evenodd;"
points="47059,61767
47059,62318
46271,62318
46271,61767
47059,61767
" /> 
<polyline style="fill-rule:evenodd;"
points="47059,61267
47059,61818
46271,61818
46271,61267
47059,61267
" /> 
<polyline style="fill-rule:evenodd;"
points="47059,60767
47059,61318
46271,61318
46271,60767
47059,60767
" /> 
<polyline style="fill-rule:evenodd;"
points="47059,60267
47059,60818
46271,60818
46271,60267
47059,60267
" /> 
<polyline style="fill-rule:evenodd;"
points="41744,60267
41744,60818
40956,60818
40956,60267
41744,60267
" /> 
<polyline style="fill-rule:evenodd;"
points="41744,60767
41744,61318
40956,61318
40956,60767
41744,60767
" /> 
<polyline style="fill-rule:evenodd;"
points="41744,61267
41744,61818
40956,61818
40956,61267
41744,61267
" /> 
<polyline style="fill-rule:evenodd;"
points="41744,61767
41744,62318
40956,62318
40956,61767
41744,61767
" /> 
<polyline style="fill-rule:evenodd;"
points="41744,62267
41744,62818
40956,62818
40956,62267
41744,62267
" /> 
<polyline style="fill-rule:evenodd;"
points="44814,59755
45366,59755
45366,60543
44814,60543
44814,59755
" /> 
<polyline style="fill-rule:evenodd;"
points="43877,39112
43877,38816
44183,38816
44183,39112
43877,39112
" /> 
<polyline style="fill-rule:evenodd;"
points="43877,39309
43877,39013
44183,39013
44183,39309
43877,39309
" /> 
<polyline style="fill-rule:evenodd;"
points="44478,39112
44478,38816
44783,38816
44783,39112
44478,39112
" /> 
<polyline style="fill-rule:evenodd;"
points="44478,39309
44478,39013
44783,39013
44783,39309
44478,39309
" /> 
<polyline style="fill-rule:evenodd;"
points="43877,39505
43877,39210
44183,39210
44183,39505
43877,39505
" /> 
<polyline style="fill-rule:evenodd;"
points="44478,39505
44478,39210
44783,39210
44783,39505
44478,39505
" /> 
<polyline style="fill-rule:evenodd;"
points="43877,38915
43877,38620
44183,38620
44183,38915
43877,38915
" /> 
<polyline style="fill-rule:evenodd;"
points="44478,38915
44478,38620
44783,38620
44783,38915
44478,38915
" /> 
<polyline style="fill-rule:evenodd;"
points="44379,39515
44084,39515
44084,39210
44379,39210
44379,39515
" /> 
<polyline style="fill-rule:evenodd;"
points="44576,39515
44281,39515
44281,39210
44576,39210
44576,39515
" /> 
<polyline style="fill-rule:evenodd;"
points="44576,38915
44281,38915
44281,38610
44576,38610
44576,38915
" /> 
<polyline style="fill-rule:evenodd;"
points="44379,38915
44084,38915
44084,38610
44379,38610
44379,38915
" /> 
<polyline style="fill-rule:evenodd;"
points="17271,52234
16897,52234
16897,51387
17271,51387
17271,52234
" /> 
<polyline style="fill-rule:evenodd;"
points="17771,52234
17397,52234
17397,51387
17771,51387
17771,52234
" /> 
<polyline style="fill-rule:evenodd;"
points="18271,52234
17897,52234
17897,51387
18271,51387
18271,52234
" /> 
<polyline style="fill-rule:evenodd;"
points="18771,52234
18397,52234
18397,51387
18771,51387
18771,52234
" /> 
<polyline style="fill-rule:evenodd;"
points="18771,49320
18397,49320
18397,48474
18771,48474
18771,49320
" /> 
<polyline style="fill-rule:evenodd;"
points="18271,49320
17897,49320
17897,48474
18271,48474
18271,49320
" /> 
<polyline style="fill-rule:evenodd;"
points="17771,49320
17397,49320
17397,48474
17771,48474
17771,49320
" /> 
<polyline style="fill-rule:evenodd;"
points="17271,49320
16897,49320
16897,48474
17271,48474
17271,49320
" /> 
<polyline style="fill-rule:evenodd;"
points="40925,41584
40925,42529
38996,42529
38996,41584
40925,41584
" /> 
<polyline style="fill-rule:evenodd;"
points="37578,41584
37578,42529
35649,42529
35649,41584
37578,41584
" /> 
<polyline style="fill-rule:evenodd;"
points="34832,43641
34832,44291
34084,44291
34084,43641
34832,43641
" /> 
<polyline style="fill-rule:evenodd;"
points="33848,43641
33848,44291
33100,44291
33100,43641
33848,43641
" /> 
<polyline style="fill-rule:evenodd;"
points="39212,43809
39212,43159
39960,43159
39960,43809
39212,43809
" /> 
<polyline style="fill-rule:evenodd;"
points="40196,43809
40196,43159
40944,43159
40944,43809
40196,43809
" /> 
<polyline style="fill-rule:evenodd;"
points="37362,43159
37362,43809
36614,43809
36614,43159
37362,43159
" /> 
<polyline style="fill-rule:evenodd;"
points="36377,43159
36377,43809
35629,43809
35629,43159
36377,43159
" /> 
<polyline style="fill-rule:evenodd;"
points="33858,42194
33858,42982
32677,42982
32677,42194
33858,42194
" /> 
<polyline style="fill-rule:evenodd;"
points="35275,42194
35275,42982
34094,42982
34094,42194
35275,42194
" /> 
<polyline style="fill-rule:evenodd;"
points="33553,49025
32765,49025
32765,47844
33553,47844
33553,49025
" /> 
<polyline style="fill-rule:evenodd;"
points="33553,50442
32765,50442
32765,49261
33553,49261
33553,50442
" /> 
<polyline style="fill-rule:evenodd;"
points="19547,38838
20196,38838
20196,39586
19547,39586
19547,38838
" /> 
<polyline style="fill-rule:evenodd;"
points="19547,39822
20196,39822
20196,40570
19547,40570
19547,39822
" /> 
<polyline style="fill-rule:evenodd;"
points="20698,36122
20698,35334
22037,35334
22037,36122
20698,36122
" /> 
<polyline style="fill-rule:evenodd;"
points="18966,36122
18966,35334
20305,35334
20305,36122
18966,36122
" /> 
<polyline style="fill-rule:evenodd;"
points="20698,36968
20698,37618
19950,37618
19950,36968
20698,36968
" /> 
<polyline style="fill-rule:evenodd;"
points="19714,36968
19714,37618
18966,37618
18966,36968
19714,36968
" /> 
<polyline style="fill-rule:evenodd;"
points="39173,52293
39173,51505
40354,51505
40354,52293
39173,52293
" /> 
<polyline style="fill-rule:evenodd;"
points="37755,52293
37755,51505
38937,51505
38937,52293
37755,52293
" /> 
<polyline style="fill-rule:evenodd;"
points="38188,50885
38188,50236
38937,50236
38937,50885
38188,50885
" /> 
<polyline style="fill-rule:evenodd;"
points="39173,50885
39173,50236
39921,50236
39921,50885
39173,50885
" /> 
<polyline style="fill-rule:evenodd;"
points="24822,64104
25472,64104
25472,64852
24822,64852
24822,64104
" /> 
<polyline style="fill-rule:evenodd;"
points="24822,65088
25472,65088
25472,65836
24822,65836
24822,65088
" /> 
<polyline style="fill-rule:evenodd;"
points="41230,46879
40580,46879
40580,46131
41230,46131
41230,46879
" /> 
<polyline style="fill-rule:evenodd;"
points="41230,45895
40580,45895
40580,45147
41230,45147
41230,45895
" /> 
<polyline style="fill-rule:evenodd;"
points="27259,62257
27259,61608
28007,61608
28007,62257
27259,62257
" /> 
<polyline style="fill-rule:evenodd;"
points="28244,62257
28244,61608
28992,61608
28992,62257
28244,62257
" /> 
<polyline style="fill-rule:evenodd;"
points="33218,47027
33218,46377
33966,46377
33966,47027
33218,47027
" /> 
<polyline style="fill-rule:evenodd;"
points="34202,47027
34202,46377
34950,46377
34950,47027
34202,47027
" /> 
<polyline style="fill-rule:evenodd;"
points="34232,48267
34881,48267
34881,49015
34232,49015
34232,48267
" /> 
<polyline style="fill-rule:evenodd;"
points="34232,49251
34881,49251
34881,50000
34232,50000
34232,49251
" /> 
<polyline style="fill-rule:evenodd;"
points="20787,52135
20787,51486
21535,51486
21535,52135
20787,52135
" /> 
<polyline style="fill-rule:evenodd;"
points="21771,52135
21771,51486
22519,51486
22519,52135
21771,52135
" /> 
<polyline style="fill-rule:evenodd;"
points="26771,59803
26771,60590
25433,60590
25433,59803
26771,59803
" /> 
<polyline style="fill-rule:evenodd;"
points="28503,59803
28503,60590
27165,60590
27165,59803
28503,59803
" /> 
<polyline style="fill-rule:evenodd;"
points="24586,51486
24586,52135
23838,52135
23838,51486
24586,51486
" /> 
<polyline style="fill-rule:evenodd;"
points="23602,51486
23602,52135
22854,52135
22854,51486
23602,51486
" /> 
<polyline style="fill-rule:evenodd;"
points="30374,60580
30374,59793
31712,59793
31712,60580
30374,60580
" /> 
<polyline style="fill-rule:evenodd;"
points="28641,60580
28641,59793
29980,59793
29980,60580
28641,60580
" /> 
<polyline style="fill-rule:evenodd;"
points="30858,61612
30858,62261
30110,62261
30110,61612
30858,61612
" /> 
<polyline style="fill-rule:evenodd;"
points="29874,61612
29874,62261
29125,62261
29125,61612
29874,61612
" /> 
<polyline style="fill-rule:evenodd;"
points="46952,59009
46952,59659
46204,59659
46204,59009
46952,59009
" /> 
<polyline style="fill-rule:evenodd;"
points="45968,59009
45968,59659
45220,59659
45220,59009
45968,59009
" /> 
<polyline style="fill-rule:evenodd;"
points="56553,46551
57202,46551
57202,47299
56553,47299
56553,46551
" /> 
<polyline style="fill-rule:evenodd;"
points="56553,47535
57202,47535
57202,48283
56553,48283
56553,47535
" /> 
<polyline style="fill-rule:evenodd;"
points="43854,40639
43854,39990
44602,39990
44602,40639
43854,40639
" /> 
<polyline style="fill-rule:evenodd;"
points="44838,40639
44838,39990
45586,39990
45586,40639
44838,40639
" /> 
<polyline style="fill-rule:evenodd;"
points="48074,38476
47287,38476
47287,37137
48074,37137
48074,38476
" /> 
<polyline style="fill-rule:evenodd;"
points="48074,40208
47287,40208
47287,38870
48074,38870
48074,40208
" /> 
<polyline style="fill-rule:evenodd;"
points="45852,37803
46501,37803
46501,38551
45852,38551
45852,37803
" /> 
<polyline style="fill-rule:evenodd;"
points="45852,38787
46501,38787
46501,39535
45852,39535
45852,38787
" /> 
<polyline style="fill-rule:evenodd;"
points="45084,37803
45734,37803
45734,38551
45084,38551
45084,37803
" /> 
<polyline style="fill-rule:evenodd;"
points="45084,38787
45734,38787
45734,39535
45084,39535
45084,38787
" /> 
<polyline style="fill-rule:evenodd;"
points="41618,37600
41618,38250
40870,38250
40870,37600
41618,37600
" /> 
<polyline style="fill-rule:evenodd;"
points="40633,37600
40633,38250
39885,38250
39885,37600
40633,37600
" /> 
<polyline style="fill-rule:evenodd;"
points="32116,38637
32116,39287
31368,39287
31368,38637
32116,38637
" /> 
<polyline style="fill-rule:evenodd;"
points="31131,38637
31131,39287
30383,39287
30383,38637
31131,38637
" /> 
<polyline style="fill-rule:evenodd;"
points="18336,64143
18671,64143
18671,64537
18336,64537
18336,64143
" /> 
<polyline style="fill-rule:evenodd;"
points="18336,64970
18671,64970
18671,65364
18336,65364
18336,64970
" /> 
<polyline style="fill-rule:evenodd;"
points="20697,53904
21605,53904
21605,54812
20697,54812
20697,53904
" /> 
<circle cx="21151.6" cy="56358.3" r="453.74" /> 
</g>
<g style="fill:#840000; fill-opacity:1.0; 
stroke:#840000; stroke-width:39.3701; stroke-opacity:1; 
stroke-linecap:round; stroke-linejoin:round;">
</g>
<g style="fill:#840000; fill-opacity:1.0; 
stroke:#840000; stroke-width:0; stroke-opacity:1; 
stroke-linecap:round; stroke-linejoin:round;">
<polyline style="fill-rule:evenodd;"
points="23758,53900
24666,53900
24666,54808
23758,54808
23758,53900
" /> 
<circle cx="24212.6" cy="56354.3" r="453.74" /> 
</g>
<g style="fill:#840000; fill-opacity:1.0; 
stroke:#840000; stroke-width:39.3701; stroke-opacity:1; 
stroke-linecap:round; stroke-linejoin:round;">
</g>
<g style="fill:#840000; fill-opacity:1.0; 
stroke:#840000; stroke-width:0; stroke-opacity:1; 
stroke-linecap:round; stroke-linejoin:round;">
<polyline style="fill-rule:evenodd;"
points="43185,39157
43185,39984
42358,39984
42358,39157
43185,39157
" /> 
</g>
<g style="fill:#840000; fill-opacity:1.0; 
stroke:#840000; stroke-width:826.772; stroke-opacity:1; 
stroke-linecap:round; stroke-linejoin:round;">
</g>
<g style="fill:#840000; fill-opacity:0.0; 
stroke:#840000; stroke-width:826.772; stroke-opacity:1; 
stroke-linecap:round; stroke-linejoin:round;">
<path d="M42771 38570
L42771 38570
" />
</g>
<g style="fill:#840000; fill-opacity:0.0; 
stroke:#840000; stroke-width:0; stroke-opacity:1; 
stroke-linecap:round; stroke-linejoin:round;">
</g>
<g style="fill:#840000; fill-opacity:1.0; 
stroke:#840000; stroke-width:0; stroke-opacity:1; 
stroke-linecap:round; stroke-linejoin:round;">
<polyline style="fill-rule:evenodd;"
points="25580,40663
25580,39836
26407,39836
26407,40663
25580,40663
" /> 
</g>
<g style="fill:#840000; fill-opacity:1.0; 
stroke:#840000; stroke-width:826.772; stroke-opacity:1; 
stroke-linecap:round; stroke-linejoin:round;">
</g>
<g style="fill:#840000; fill-opacity:0.0; 
stroke:#840000; stroke-width:826.772; stroke-opacity:1; 
stroke-linecap:round; stroke-linejoin:round;">
<path d="M25994 41250
L25994 41250
" />
</g>
<g style="fill:#840000; fill-opacity:0.0; 
stroke:#840000; stroke-width:0; stroke-opacity:1; 
stroke-linecap:round; stroke-linejoin:round;">
</g>
<g style="fill:#840000; fill-opacity:1.0; 
stroke:#840000; stroke-width:0; stroke-opacity:1; 
stroke-linecap:round; stroke-linejoin:round;">
<polyline style="fill-rule:evenodd;"
points="40732,37240
39905,37240
39905,36413
40732,36413
40732,37240
" /> 
</g>
<g style="fill:#840000; fill-opacity:1.0; 
stroke:#840000; stroke-width:826.772; stroke-opacity:1; 
stroke-linecap:round; stroke-linejoin:round;">
</g>
<g style="fill:#840000; fill-opacity:0.0; 
stroke:#840000; stroke-width:826.772; stroke-opacity:1; 
stroke-linecap:round; stroke-linejoin:round;">
<path d="M41318 36826
L41318 36826
" />
</g>
<g style="fill:#840000; fill-opacity:0.0; 
stroke:#840000; stroke-width:0; stroke-opacity:1; 
stroke-linecap:round; stroke-linejoin:round;">
</g>
<g style="fill:#840000; fill-opacity:1.0; 
stroke:#840000; stroke-width:0; stroke-opacity:1; 
stroke-linecap:round; stroke-linejoin:round;">
<polyline style="fill-rule:evenodd;"
points="39157,58346
38330,58346
38330,57519
39157,57519
39157,58346
" /> 
</g>
<g style="fill:#840000; fill-opacity:1.0; 
stroke:#840000; stroke-width:826.772; stroke-opacity:1; 
stroke-linecap:round; stroke-linejoin:round;">
</g>
<g style="fill:#840000; fill-opacity:0.0; 
stroke:#840000; stroke-width:826.772; stroke-opacity:1; 
stroke-linecap:round; stroke-linejoin:round;">
<path d="M39744 57933
L39744 57933
" />
<path d="M40744 57933
L40744 57933
" />
<path d="M41744 57933
L41744 57933
" />
<path d="M42744 57933
L42744 57933
" />
<path d="M43744 57933
L43744 57933
" />
</g>
<g style="fill:#840000; fill-opacity:0.0; 
stroke:#840000; stroke-width:0; stroke-opacity:1; 
stroke-linecap:round; stroke-linejoin:round;">
</g>
<g style="fill:#840000; fill-opacity:1.0; 
stroke:#840000; stroke-width:0; stroke-opacity:1; 
stroke-linecap:round; stroke-linejoin:round;">
<polyline style="fill-rule:evenodd;"
points="12498,66584
11671,66584
11671,65757
12498,65757
12498,66584
" /> 
</g>
<g style="fill:#840000; fill-opacity:1.0; 
stroke:#840000; stroke-width:826.772; stroke-opacity:1; 
stroke-linecap:round; stroke-linejoin:round;">
</g>
<g style="fill:#840000; fill-opacity:0.0; 
stroke:#840000; stroke-width:826.772; stroke-opacity:1; 
stroke-linecap:round; stroke-linejoin:round;">
<path d="M13084 66171
L13084 66171
" />
<path d="M14084 66171
L14084 66171
" />
</g>
<g style="fill:#840000; fill-opacity:0.0; 
stroke:#840000; stroke-width:0; stroke-opacity:1; 
stroke-linecap:round; stroke-linejoin:round;">
</g>
<g style="fill:#840000; fill-opacity:1.0; 
stroke:#840000; stroke-width:0; stroke-opacity:1; 
stroke-linecap:round; stroke-linejoin:round;">
<polyline style="fill-rule:evenodd;"
points="44086,50720
44086,49893
44913,49893
44913,50720
44086,50720
" /> 
<polyline style="fill-rule:evenodd;"
points="50259,39015
50259,39842
49433,39842
49433,39015
50259,39015
" /> 
</g>
<g style="fill:#840000; fill-opacity:1.0; 
stroke:#840000; stroke-width:826.772; stroke-opacity:1; 
stroke-linecap:round; stroke-linejoin:round;">
</g>
<g style="fill:#840000; fill-opacity:0.0; 
stroke:#840000; stroke-width:826.772; stroke-opacity:1; 
stroke-linecap:round; stroke-linejoin:round;">
<path d="M49846 38429
L49846 38429
" />
<path d="M49846 37429
L49846 37429
" />
</g>
<g style="fill:#840000; fill-opacity:0.0; 
stroke:#840000; stroke-width:0; stroke-opacity:1; 
stroke-linecap:round; stroke-linejoin:round;">
</g>
<g style="fill:#840000; fill-opacity:1.0; 
stroke:#840000; stroke-width:0; stroke-opacity:1; 
stroke-linecap:round; stroke-linejoin:round;">
<polyline style="fill-rule:evenodd;"
points="17421,47440
17421,46614
18248,46614
18248,47440
17421,47440
" /> 
<polyline style="fill-rule:evenodd;"
points="22110,53405
21283,53405
21283,52578
22110,52578
22110,53405
" /> 
</g>
<g style="fill:#840000; fill-opacity:1.0; 
stroke:#840000; stroke-width:826.772; stroke-opacity:1; 
stroke-linecap:round; stroke-linejoin:round;">
</g>
<g style="fill:#840000; fill-opacity:0.0; 
stroke:#840000; stroke-width:826.772; stroke-opacity:1; 
stroke-linecap:round; stroke-linejoin:round;">
<path d="M22696 52992
L22696 52992
" />
<path d="M23696 52992
L23696 52992
" />
</g>
<g style="fill:#840000; fill-opacity:0.0; 
stroke:#840000; stroke-width:0; stroke-opacity:1; 
stroke-linecap:round; stroke-linejoin:round;">
</g>
<g style="fill:#840000; fill-opacity:1.0; 
stroke:#840000; stroke-width:0; stroke-opacity:1; 
stroke-linecap:round; stroke-linejoin:round;">
<polyline style="fill-rule:evenodd;"
points="37362,44753
37362,44084
38110,44084
38110,44753
37362,44753
" /> 
<polyline style="fill-rule:evenodd;"
points="38425,44753
38425,44084
39173,44084
39173,44753
38425,44753
" /> 
<polyline style="fill-rule:evenodd;"
points="42066,47942
41397,47942
41397,47194
42066,47194
42066,47942
" /> 
<polyline style="fill-rule:evenodd;"
points="42066,46879
41397,46879
41397,46131
42066,46131
42066,46879
" /> 
<polyline style="fill-rule:evenodd;"
points="18165,61525
18834,61525
18834,62274
18165,62274
18165,61525
" /> 
<polyline style="fill-rule:evenodd;"
points="18165,62588
18834,62588
18834,63337
18165,63337
18165,62588
" /> 
<polyline style="fill-rule:evenodd;"
points="21137,62665
21137,63334
20388,63334
20388,62665
21137,62665
" /> 
<polyline style="fill-rule:evenodd;"
points="20074,62665
20074,63334
19325,63334
19325,62665
20074,62665
" /> 
<polyline style="fill-rule:evenodd;"
points="22883,65826
22214,65826
22214,65078
22883,65078
22883,65826
" /> 
<polyline style="fill-rule:evenodd;"
points="22883,64763
22214,64763
22214,64015
22883,64015
22883,64763
" /> 
<polyline style="fill-rule:evenodd;"
points="40775,61586
40775,62255
40027,62255
40027,61586
40775,61586
" /> 
<polyline style="fill-rule:evenodd;"
points="39712,61586
39712,62255
38964,62255
38964,61586
39712,61586
" /> 
<polyline style="fill-rule:evenodd;"
points="56574,48437
57244,48437
57244,49185
56574,49185
56574,48437
" /> 
<polyline style="fill-rule:evenodd;"
points="56574,49500
57244,49500
57244,50248
56574,50248
56574,49500
" /> 
<polyline style="fill-rule:evenodd;"
points="56539,44653
57208,44653
57208,45401
56539,45401
56539,44653
" /> 
<polyline style="fill-rule:evenodd;"
points="56539,45716
57208,45716
57208,46464
56539,46464
56539,45716
" /> 
<polyline style="fill-rule:evenodd;"
points="40775,62330
40775,63000
40027,63000
40027,62330
40775,62330
" /> 
<polyline style="fill-rule:evenodd;"
points="39712,62330
39712,63000
38964,63000
38964,62330
39712,62330
" /> 
<polyline style="fill-rule:evenodd;"
points="47299,59566
47968,59566
47968,60314
47299,60314
47299,59566
" /> 
<polyline style="fill-rule:evenodd;"
points="47299,60629
47968,60629
47968,61377
47299,61377
47299,60629
" /> 
<polyline style="fill-rule:evenodd;"
points="52862,43905
52862,44574
52114,44574
52114,43905
52862,43905
" /> 
<polyline style="fill-rule:evenodd;"
points="51799,43905
51799,44574
51051,44574
51051,43905
51799,43905
" /> 
<polyline style="fill-rule:evenodd;"
points="16387,51259
15718,51259
15718,50511
16387,50511
16387,51259
" /> 
<polyline style="fill-rule:evenodd;"
points="16387,50196
15718,50196
15718,49448
16387,49448
16387,50196
" /> 
<polyline style="fill-rule:evenodd;"
points="52866,42948
52866,43618
52118,43618
52118,42948
52866,42948
" /> 
<polyline style="fill-rule:evenodd;"
points="51803,42948
51803,43618
51055,43618
51055,42948
51803,42948
" /> 
<polyline style="fill-rule:evenodd;"
points="48649,51736
47980,51736
47980,50988
48649,50988
48649,51736
" /> 
<polyline style="fill-rule:evenodd;"
points="48649,50673
47980,50673
47980,49925
48649,49925
48649,50673
" /> 
<polyline style="fill-rule:evenodd;"
points="47688,51216
47019,51216
47019,50468
47688,50468
47688,51216
" /> 
<polyline style="fill-rule:evenodd;"
points="47688,50153
47019,50153
47019,49405
47688,49405
47688,50153
" /> 
<polyline style="fill-rule:evenodd;"
points="49145,53795
48476,53795
48476,53047
49145,53047
49145,53795
" /> 
<polyline style="fill-rule:evenodd;"
points="49145,52732
48476,52732
48476,51984
49145,51984
49145,52732
" /> 
<polyline style="fill-rule:evenodd;"
points="48196,53791
47527,53791
47527,53043
48196,53043
48196,53791
" /> 
<polyline style="fill-rule:evenodd;"
points="48196,52728
47527,52728
47527,51980
48196,51980
48196,52728
" /> 
<circle cx="45011.8" cy="48767.7" r="354.331" /> 
</g>
<g style="fill:#840000; fill-opacity:1.0; 
stroke:#840000; stroke-width:39.3701; stroke-opacity:1; 
stroke-linecap:round; stroke-linejoin:round;">
</g>
<g style="fill:#840000; fill-opacity:1.0; 
stroke:#840000; stroke-width:708.661; stroke-opacity:1; 
stroke-linecap:round; stroke-linejoin:round;">
</g>
<g style="fill:#840000; fill-opacity:0.0; 
stroke:#840000; stroke-width:708.661; stroke-opacity:1; 
stroke-linecap:round; stroke-linejoin:round;">
<path d="M44263 48767
L44263 48767
" />
</g>
<g style="fill:#840000; fill-opacity:1.0; 
stroke:#840000; stroke-width:0; stroke-opacity:1; 
stroke-linecap:round; stroke-linejoin:round;">
<circle cx="46196.9" cy="47767.7" r="354.331" /> 
</g>
<g style="fill:#840000; fill-opacity:1.0; 
stroke:#840000; stroke-width:39.3701; stroke-opacity:1; 
stroke-linecap:round; stroke-linejoin:round;">
</g>
<g style="fill:#840000; fill-opacity:1.0; 
stroke:#840000; stroke-width:708.661; stroke-opacity:1; 
stroke-linecap:round; stroke-linejoin:round;">
</g>
<g style="fill:#840000; fill-opacity:0.0; 
stroke:#840000; stroke-width:708.661; stroke-opacity:1; 
stroke-linecap:round; stroke-linejoin:round;">
<path d="M46196 48767
L46196 48767
" />
</g>
<g style="fill:#840000; fill-opacity:1.0; 
stroke:#840000; stroke-width:0; stroke-opacity:1; 
stroke-linecap:round; stroke-linejoin:round;">
<circle cx="46200.8" cy="46480.3" r="354.331" /> 
</g>
<g style="fill:#840000; fill-opacity:1.0; 
stroke:#840000; stroke-width:39.3701; stroke-opacity:1; 
stroke-linecap:round; stroke-linejoin:round;">
</g>
<g style="fill:#840000; fill-opacity:1.0; 
stroke:#840000; stroke-width:708.661; stroke-opacity:1; 
stroke-linecap:round; stroke-linejoin:round;">
</g>
<g style="fill:#840000; fill-opacity:0.0; 
stroke:#840000; stroke-width:708.661; stroke-opacity:1; 
stroke-linecap:round; stroke-linejoin:round;">
<path d="M46948 46480
L46948 46480
" />
</g>
<g style="fill:#840000; fill-opacity:1.0; 
stroke:#840000; stroke-width:0; stroke-opacity:1; 
stroke-linecap:round; stroke-linejoin:round;">
<circle cx="47145.7" cy="47437" r="354.331" /> 
</g>
<g style="fill:#840000; fill-opacity:1.0; 
stroke:#840000; stroke-width:39.3701; stroke-opacity:1; 
stroke-linecap:round; stroke-linejoin:round;">
</g>
<g style="fill:#840000; fill-opacity:1.0; 
stroke:#840000; stroke-width:708.661; stroke-opacity:1; 
stroke-linecap:round; stroke-linejoin:round;">
</g>
<g style="fill:#840000; fill-opacity:0.0; 
stroke:#840000; stroke-width:708.661; stroke-opacity:1; 
stroke-linecap:round; stroke-linejoin:round;">
<path d="M47145 48185
L47145 48185
" />
</g> 
</svg>
