<?xml version="1.0" standalone="no"?>
 <!DOCTYPE svg PUBLIC "-//W3C//DTD SVG 1.1//EN" 
 "http://www.w3.org/Graphics/SVG/1.1/DTD/svg11.dtd"> 
<svg xmlns="http://www.w3.org/2000/svg" version="1.1" 
    width="27.5234cm" height="17.3177cm" viewBox="0 0 108360 68180 ">
<title>SVG Picture created as CPU_Board-F.SilkS.svg date 2017/09/22 06:04:57 </title>
  <desc>Picture generated by PCBNEW </desc>
<g style="fill:#000000; fill-opacity:1;stroke:#000000; stroke-opacity:1;
stroke-linecap:round; stroke-linejoin:round; "
 transform="translate(0 0) scale(1 1)">
</g>
<g style="fill:#C2C200; fill-opacity:0.0; 
stroke:#C2C200; stroke-width:-0.000393701; stroke-opacity:1; 
stroke-linecap:round; stroke-linejoin:round;">
</g>
<g style="fill:#C2C200; fill-opacity:0.0; 
stroke:#C2C200; stroke-width:59.0551; stroke-opacity:1; 
stroke-linecap:round; stroke-linejoin:round;">
<path d="M108335 29
L107635 29
" />
<path d="M49435 67224
L49435 34527
" />
<path d="M971 67229
L49436 67229
" />
<path d="M971 34527
L971 67229
" />
<path d="M49436 34529
L971 34529
" />
<path d="M28693 46664
L28693 46983
L28712 47020
L28730 47039
L28768 47058
L28843 47058
L28880 47039
L28899 47020
L28918 46983
L28918 46664
" />
<path d="M29312 47058
L29087 47058
" />
<path d="M29199 47058
L29199 46664
L29162 46720
L29124 46758
L29087 46776
" />
<path d="M33252 64884
L33252 65203
L33271 65241
L33289 65259
L33327 65278
L33402 65278
L33439 65259
L33458 65241
L33477 65203
L33477 64884
" />
<path d="M33833 65016
L33833 65278
" />
<path d="M33739 64866
L33646 65147
L33889 65147
" />
</g>
<g style="fill:#008484; fill-opacity:0.0; 
stroke:#008484; stroke-width:59.0551; stroke-opacity:1; 
stroke-linecap:round; stroke-linejoin:round;">
<path d="M43567 45117
L43567 45435
L43586 45473
L43604 45492
L43642 45510
L43717 45510
L43754 45492
L43773 45473
L43792 45435
L43792 45117
" />
<path d="M44167 45117
L43979 45117
L43961 45304
L43979 45285
L44017 45267
L44111 45267
L44148 45285
L44167 45304
L44186 45342
L44186 45435
L44167 45473
L44148 45492
L44111 45510
L44017 45510
L43979 45492
L43961 45473
" />
<path d="M43500 52404
L43688 52404
" />
<path d="M43463 52516
L43594 52122
L43725 52516
" />
<path d="M43838 52160
L43857 52141
L43894 52122
L43988 52122
L44025 52141
L44044 52160
L44063 52197
L44063 52235
L44044 52291
L43819 52516
L44063 52516
" />
<path d="M44213 52160
L44232 52141
L44269 52122
L44363 52122
L44400 52141
L44419 52160
L44438 52197
L44438 52235
L44419 52291
L44194 52516
L44438 52516
" />
<path d="M44569 52122
L44813 52122
L44682 52272
L44738 52272
L44775 52291
L44794 52310
L44813 52347
L44813 52441
L44794 52479
L44775 52497
L44738 52516
L44625 52516
L44588 52497
L44569 52479
" />
<path d="M45169 52122
L44981 52122
L44963 52310
L44981 52291
L45019 52272
L45113 52272
L45150 52291
L45169 52310
L45188 52347
L45188 52441
L45169 52479
L45150 52497
L45113 52516
L45019 52516
L44981 52497
L44963 52479
" />
<path d="M45356 52366
L45656 52366
" />
<path d="M45844 52516
L45844 52122
" />
<path d="M45844 52310
L46069 52310
" />
<path d="M46069 52516
L46069 52122
" />
</g>
<g style="fill:#C2C200; fill-opacity:0.0; 
stroke:#C2C200; stroke-width:59.0551; stroke-opacity:1; 
stroke-linecap:round; stroke-linejoin:round;">
<path d="M38045 44690
L38045 44296
L38195 44296
L38232 44315
L38251 44334
L38270 44371
L38270 44427
L38251 44465
L38232 44484
L38195 44502
L38045 44502
" />
<path d="M38401 44296
L38663 44296
L38495 44690
" />
<path d="M30425 38495
L30444 38513
L30462 38570
L30462 38607
L30444 38663
L30406 38701
L30369 38720
L30294 38738
L30237 38738
L30162 38720
L30125 38701
L30087 38663
L30069 38607
L30069 38570
L30087 38513
L30106 38495
" />
<path d="M30106 38345
L30087 38326
L30069 38288
L30069 38195
L30087 38157
L30106 38139
L30144 38120
L30181 38120
L30237 38139
L30462 38363
L30462 38120
" />
<path d="M30069 37764
L30069 37951
L30256 37970
L30237 37951
L30219 37914
L30219 37820
L30237 37782
L30256 37764
L30294 37745
L30387 37745
L30425 37764
L30444 37782
L30462 37820
L30462 37914
L30444 37951
L30425 37970
" />
<path d="M9232 39439
L9045 39439
L9045 39046
" />
<path d="M9570 39439
L9345 39439
" />
<path d="M9457 39439
L9457 39046
L9420 39102
L9382 39139
L9345 39158
" />
<path d="M561 63776
L168 63776
L168 63626
L187 63588
L205 63569
L243 63551
L299 63551
L336 63569
L355 63588
L374 63626
L374 63776
" />
<path d="M561 63176
L561 63401
" />
<path d="M561 63288
L168 63288
L224 63326
L261 63363
L280 63401
" />
<path d="M1986 39040
L1592 39040
L1592 38890
L1611 38853
L1630 38834
L1667 38815
L1723 38815
L1761 38834
L1780 38853
L1798 38890
L1798 39040
" />
<path d="M1630 38665
L1611 38646
L1592 38609
L1592 38515
L1611 38478
L1630 38459
L1667 38440
L1705 38440
L1761 38459
L1986 38684
L1986 38440
" />
<path d="M20884 38091
L20490 38091
L20490 37941
L20509 37904
L20527 37885
L20565 37866
L20621 37866
L20659 37885
L20677 37904
L20696 37941
L20696 38091
" />
<path d="M20621 37529
L20884 37529
" />
<path d="M20471 37623
L20752 37716
L20752 37473
" />
<path d="M2901 42443
L2901 42050
L3051 42050
L3088 42068
L3107 42087
L3126 42125
L3126 42181
L3107 42218
L3088 42237
L3051 42256
L2901 42256
" />
<path d="M3500 42443
L3276 42443
" />
<path d="M3388 42443
L3388 42050
L3351 42106
L3313 42143
L3276 42162
" />
<path d="M3857 42050
L3669 42050
L3650 42237
L3669 42218
L3707 42200
L3800 42200
L3838 42218
L3857 42237
L3875 42275
L3875 42368
L3857 42406
L3838 42425
L3800 42443
L3707 42443
L3669 42425
L3650 42406
" />
<path d="M27255 64286
L27255 63892
L27405 63892
L27442 63911
L27461 63930
L27480 63967
L27480 64023
L27461 64061
L27442 64080
L27405 64098
L27255 64098
" />
<path d="M27855 64286
L27630 64286
" />
<path d="M27742 64286
L27742 63892
L27705 63948
L27667 63986
L27630 64005
" />
<path d="M28192 63892
L28117 63892
L28080 63911
L28061 63930
L28024 63986
L28005 64061
L28005 64211
L28024 64248
L28042 64267
L28080 64286
L28155 64286
L28192 64267
L28211 64248
L28230 64211
L28230 64117
L28211 64080
L28192 64061
L28155 64042
L28080 64042
L28042 64061
L28024 64080
L28005 64117
" />
<path d="M2908 56597
L2908 56203
L3058 56203
L3096 56222
L3115 56241
L3133 56278
L3133 56334
L3115 56372
L3096 56391
L3058 56409
L2908 56409
" />
<path d="M3508 56597
L3283 56597
" />
<path d="M3396 56597
L3396 56203
L3358 56259
L3321 56297
L3283 56316
" />
<path d="M3640 56203
L3902 56203
L3733 56597
" />
<path d="M42964 57231
L42964 56837
L43114 56837
L43151 56856
L43170 56875
L43189 56912
L43189 56968
L43170 57006
L43151 57025
L43114 57043
L42964 57043
" />
<path d="M43563 57231
L43339 57231
" />
<path d="M43451 57231
L43451 56837
L43414 56893
L43376 56931
L43339 56950
" />
<path d="M43788 57006
L43751 56987
L43732 56968
L43713 56931
L43713 56912
L43732 56875
L43751 56856
L43788 56837
L43863 56837
L43901 56856
L43920 56875
L43938 56912
L43938 56931
L43920 56968
L43901 56987
L43863 57006
L43788 57006
L43751 57025
L43732 57043
L43713 57081
L43713 57156
L43732 57193
L43751 57212
L43788 57231
L43863 57231
L43901 57212
L43920 57193
L43938 57156
L43938 57081
L43920 57043
L43901 57025
L43863 57006
" />
<path d="M26704 58180
L26704 57786
L26854 57786
L26891 57805
L26910 57823
L26929 57861
L26929 57917
L26910 57955
L26891 57973
L26854 57992
L26704 57992
" />
<path d="M27304 58180
L27079 58180
" />
<path d="M27191 58180
L27191 57786
L27154 57842
L27116 57880
L27079 57898
" />
<path d="M27491 58180
L27566 58180
L27604 58161
L27622 58142
L27660 58086
L27679 58011
L27679 57861
L27660 57823
L27641 57805
L27604 57786
L27529 57786
L27491 57805
L27472 57823
L27454 57861
L27454 57955
L27472 57992
L27491 58011
L27529 58030
L27604 58030
L27641 58011
L27660 57992
L27679 57955
" />
<path d="M47208 35608
L47208 35214
L47358 35214
L47396 35233
L47415 35252
L47433 35289
L47433 35345
L47415 35383
L47396 35402
L47358 35420
L47208 35420
" />
<path d="M47583 35252
L47602 35233
L47640 35214
L47733 35214
L47771 35233
L47790 35252
L47808 35289
L47808 35327
L47790 35383
L47565 35608
L47808 35608
" />
<path d="M48052 35214
L48090 35214
L48127 35233
L48146 35252
L48165 35289
L48183 35364
L48183 35458
L48165 35533
L48146 35570
L48127 35589
L48090 35608
L48052 35608
L48015 35589
L47996 35570
L47977 35533
L47958 35458
L47958 35364
L47977 35289
L47996 35252
L48015 35233
L48052 35214
" />
<path d="M4293 48172
L4293 47778
L4443 47778
L4480 47797
L4499 47815
L4518 47853
L4518 47909
L4499 47947
L4480 47965
L4443 47984
L4293 47984
" />
<path d="M4649 47778
L4893 47778
L4761 47928
L4818 47928
L4855 47947
L4874 47965
L4893 48003
L4893 48097
L4874 48134
L4855 48153
L4818 48172
L4705 48172
L4668 48153
L4649 48134
" />
<path d="M6467 61367
L6448 61404
L6410 61442
L6354 61498
L6335 61535
L6335 61573
" />
<path d="M6429 61554
L6410 61591
L6373 61629
L6298 61648
L6167 61648
L6092 61629
L6054 61591
L6035 61554
L6035 61479
L6054 61442
L6092 61404
L6167 61385
L6298 61385
L6373 61404
L6410 61442
L6429 61479
L6429 61554
" />
<path d="M6429 61010
L6429 61235
" />
<path d="M6429 61123
L6035 61123
L6092 61160
L6129 61198
L6148 61235
" />
<path d="M12741 62476
L12722 62513
L12684 62551
L12628 62607
L12609 62645
L12609 62682
" />
<path d="M12703 62663
L12684 62701
L12647 62738
L12572 62757
L12441 62757
L12366 62738
L12328 62701
L12309 62663
L12309 62588
L12328 62551
L12366 62513
L12441 62495
L12572 62495
L12647 62513
L12684 62551
L12703 62588
L12703 62663
" />
<path d="M12347 62345
L12328 62326
L12309 62288
L12309 62195
L12328 62157
L12347 62139
L12384 62120
L12422 62120
L12478 62139
L12703 62363
L12703 62120
" />
<path d="M15341 62476
L15322 62513
L15284 62551
L15228 62607
L15209 62645
L15209 62682
" />
<path d="M15303 62663
L15284 62701
L15247 62738
L15172 62757
L15041 62757
L14966 62738
L14928 62701
L14909 62663
L14909 62588
L14928 62551
L14966 62513
L15041 62495
L15172 62495
L15247 62513
L15284 62551
L15303 62588
L15303 62663
" />
<path d="M14909 62363
L14909 62120
L15059 62251
L15059 62195
L15078 62157
L15097 62139
L15134 62120
L15228 62120
L15266 62139
L15284 62157
L15303 62195
L15303 62307
L15284 62345
L15266 62363
" />
<path d="M36829 53508
L36792 53490
L36754 53452
L36698 53396
L36661 53377
L36623 53377
" />
<path d="M36642 53471
L36604 53452
L36567 53415
L36548 53340
L36548 53208
L36567 53133
L36604 53096
L36642 53077
L36717 53077
L36754 53096
L36792 53133
L36811 53208
L36811 53340
L36792 53415
L36754 53452
L36717 53471
L36642 53471
" />
<path d="M37148 53208
L37148 53471
" />
<path d="M37054 53058
L36961 53340
L37204 53340
" />
<path d="M34664 53508
L34626 53490
L34589 53452
L34533 53396
L34495 53377
L34458 53377
" />
<path d="M34476 53471
L34439 53452
L34402 53415
L34383 53340
L34383 53208
L34402 53133
L34439 53096
L34476 53077
L34551 53077
L34589 53096
L34626 53133
L34645 53208
L34645 53340
L34626 53415
L34589 53452
L34551 53471
L34476 53471
" />
<path d="M35001 53077
L34814 53077
L34795 53265
L34814 53246
L34851 53227
L34945 53227
L34983 53246
L35001 53265
L35020 53302
L35020 53396
L35001 53433
L34983 53452
L34945 53471
L34851 53471
L34814 53452
L34795 53433
" />
<path d="M37204 50935
L37073 50748
" />
<path d="M36979 50935
L36979 50542
L37129 50542
L37167 50561
L37186 50579
L37204 50617
L37204 50673
L37186 50711
L37167 50729
L37129 50748
L36979 50748
" />
<path d="M37579 50935
L37354 50935
" />
<path d="M37467 50935
L37467 50542
L37429 50598
L37392 50636
L37354 50654
" />
<path d="M37917 50673
L37917 50935
" />
<path d="M37823 50523
L37729 50804
L37973 50804
" />
<path d="M13801 41871
L13801 42189
L13820 42227
L13839 42245
L13876 42264
L13951 42264
L13989 42245
L14007 42227
L14026 42189
L14026 41871
" />
<path d="M14195 41908
L14214 41889
L14251 41871
L14345 41871
L14382 41889
L14401 41908
L14420 41946
L14420 41983
L14401 42039
L14176 42264
L14420 42264
" />
<path d="M21471 64559
L21790 64559
L21828 64541
L21846 64522
L21865 64484
L21865 64409
L21846 64372
L21828 64353
L21790 64334
L21471 64334
" />
<path d="M21471 64184
L21471 63941
L21621 64072
L21621 64016
L21640 63978
L21659 63959
L21696 63941
L21790 63941
L21828 63959
L21846 63978
L21865 64016
L21865 64128
L21846 64166
L21828 64184
" />
<path d="M35366 38148
L35366 38467
L35385 38504
L35404 38523
L35441 38542
L35516 38542
L35554 38523
L35572 38504
L35591 38467
L35591 38148
" />
<path d="M35947 38148
L35872 38148
L35835 38167
L35816 38186
L35779 38242
L35760 38317
L35760 38467
L35779 38504
L35797 38523
L35835 38542
L35910 38542
L35947 38523
L35966 38504
L35985 38467
L35985 38373
L35966 38336
L35947 38317
L35910 38298
L35835 38298
L35797 38317
L35779 38336
L35760 38373
" />
<path d="M31472 38747
L31472 39065
L31491 39103
L31510 39121
L31547 39140
L31622 39140
L31660 39121
L31679 39103
L31697 39065
L31697 38747
" />
<path d="M31847 38747
L32110 38747
L31941 39140
" />
<path d="M7261 49227
L7580 49227
L7618 49208
L7636 49189
L7655 49152
L7655 49077
L7636 49039
L7618 49020
L7580 49002
L7261 49002
" />
<path d="M7655 48795
L7655 48720
L7636 48683
L7618 48664
L7561 48627
L7486 48608
L7336 48608
L7299 48627
L7280 48645
L7261 48683
L7261 48758
L7280 48795
L7299 48814
L7336 48833
L7430 48833
L7468 48814
L7486 48795
L7505 48758
L7505 48683
L7486 48645
L7468 48627
L7430 48608
" />
<path d="M29435 43474
L29435 43662
" />
<path d="M29304 43268
L29435 43474
L29566 43268
" />
<path d="M29904 43662
L29679 43662
" />
<path d="M29791 43662
L29791 43268
L29754 43324
L29716 43362
L29679 43381
" />
<path d="M25236 44166
L25217 44184
L25161 44203
L25124 44203
L25068 44184
L25030 44147
L25011 44109
L24993 44034
L24993 43978
L25011 43903
L25030 43866
L25068 43828
L25124 43809
L25161 43809
L25217 43828
L25236 43847
" />
<path d="M25611 44203
L25386 44203
" />
<path d="M25499 44203
L25499 43809
L25461 43866
L25424 43903
L25386 43922
" />
<path d="M31358 43683
L31340 43702
L31283 43721
L31246 43721
L31190 43702
L31152 43665
L31133 43627
L31115 43552
L31115 43496
L31133 43421
L31152 43383
L31190 43346
L31246 43327
L31283 43327
L31340 43346
L31358 43365
" />
<path d="M31508 43365
L31527 43346
L31565 43327
L31658 43327
L31696 43346
L31714 43365
L31733 43402
L31733 43440
L31714 43496
L31490 43721
L31733 43721
" />
<path d="M27766 44343
L27747 44362
L27691 44380
L27653 44380
L27597 44362
L27560 44324
L27541 44287
L27522 44212
L27522 44155
L27541 44080
L27560 44043
L27597 44005
L27653 43987
L27691 43987
L27747 44005
L27766 44024
" />
<path d="M27897 43987
L28141 43987
L28009 44137
L28066 44137
L28103 44155
L28122 44174
L28141 44212
L28141 44305
L28122 44343
L28103 44362
L28066 44380
L27953 44380
L27916 44362
L27897 44343
" />
<path d="M25276 42817
L25257 42836
L25201 42855
L25163 42855
L25107 42836
L25069 42799
L25051 42761
L25032 42686
L25032 42630
L25051 42555
L25069 42517
L25107 42480
L25163 42461
L25201 42461
L25257 42480
L25276 42499
" />
<path d="M25613 42592
L25613 42855
" />
<path d="M25519 42442
L25426 42724
L25669 42724
" />
</g>
<g style="fill:#008484; fill-opacity:0.0; 
stroke:#008484; stroke-width:59.0551; stroke-opacity:1; 
stroke-linecap:round; stroke-linejoin:round;">
<path d="M24071 43437
L24371 43437
" />
<path d="M24221 43587
L24221 43287
" />
</g>
<g style="fill:#C2C200; fill-opacity:0.0; 
stroke:#C2C200; stroke-width:59.0551; stroke-opacity:1; 
stroke-linecap:round; stroke-linejoin:round;">
<path d="M25147 49160
L25166 49178
L25185 49235
L25185 49272
L25166 49328
L25128 49366
L25091 49385
L25016 49403
L24960 49403
L24885 49385
L24847 49366
L24810 49328
L24791 49272
L24791 49235
L24810 49178
L24828 49160
" />
<path d="M24791 48803
L24791 48991
L24978 49010
L24960 48991
L24941 48953
L24941 48860
L24960 48822
L24978 48803
L25016 48785
L25110 48785
L25147 48803
L25166 48822
L25185 48860
L25185 48953
L25166 48991
L25147 49010
" />
</g>
<g style="fill:#008484; fill-opacity:0.0; 
stroke:#008484; stroke-width:59.0551; stroke-opacity:1; 
stroke-linecap:round; stroke-linejoin:round;">
<path d="M23781 48222
L23781 47922
" />
<path d="M23931 48072
L23631 48072
" />
</g>
<g style="fill:#C2C200; fill-opacity:0.0; 
stroke:#C2C200; stroke-width:59.0551; stroke-opacity:1; 
stroke-linecap:round; stroke-linejoin:round;">
<path d="M12037 39799
L12056 39818
L12074 39874
L12074 39912
L12056 39968
L12018 40006
L11981 40024
L11906 40043
L11849 40043
L11774 40024
L11737 40006
L11700 39968
L11681 39912
L11681 39874
L11700 39818
L11718 39799
" />
<path d="M11681 39462
L11681 39537
L11700 39574
L11718 39593
L11774 39631
L11849 39649
L11999 39649
L12037 39631
L12056 39612
L12074 39574
L12074 39499
L12056 39462
L12037 39443
L11999 39424
L11906 39424
L11868 39443
L11849 39462
L11831 39499
L11831 39574
L11849 39612
L11868 39631
L11906 39649
" />
<path d="M11770 35634
L11751 35653
L11695 35672
L11657 35672
L11601 35653
L11563 35615
L11545 35578
L11526 35503
L11526 35447
L11545 35372
L11563 35334
L11601 35297
L11657 35278
L11695 35278
L11751 35297
L11770 35315
" />
<path d="M11901 35278
L12163 35278
L11995 35672
" />
</g>
<g style="fill:#008484; fill-opacity:0.0; 
stroke:#008484; stroke-width:59.0551; stroke-opacity:1; 
stroke-linecap:round; stroke-linejoin:round;">
<path d="M13018 34864
L13318 34864
" />
<path d="M13168 35014
L13168 34714
" />
</g>
<g style="fill:#C2C200; fill-opacity:0.0; 
stroke:#C2C200; stroke-width:59.0551; stroke-opacity:1; 
stroke-linecap:round; stroke-linejoin:round;">
<path d="M11093 37522
L11074 37541
L11018 37559
L10980 37559
L10924 37541
L10886 37503
L10868 37466
L10849 37391
L10849 37335
L10868 37260
L10886 37222
L10924 37185
L10980 37166
L11018 37166
L11074 37185
L11093 37203
" />
<path d="M11318 37335
L11280 37316
L11261 37297
L11243 37260
L11243 37241
L11261 37203
L11280 37185
L11318 37166
L11393 37166
L11430 37185
L11449 37203
L11467 37241
L11467 37260
L11449 37297
L11430 37316
L11393 37335
L11318 37335
L11280 37353
L11261 37372
L11243 37410
L11243 37485
L11261 37522
L11280 37541
L11318 37559
L11393 37559
L11430 37541
L11449 37522
L11467 37485
L11467 37410
L11449 37372
L11430 37353
L11393 37335
" />
<path d="M30325 50676
L30306 50694
L30250 50713
L30212 50713
L30156 50694
L30119 50657
L30100 50619
L30081 50544
L30081 50488
L30100 50413
L30119 50376
L30156 50338
L30212 50319
L30250 50319
L30306 50338
L30325 50357
" />
<path d="M30512 50713
L30587 50713
L30625 50694
L30644 50676
L30681 50619
L30700 50544
L30700 50394
L30681 50357
L30662 50338
L30625 50319
L30550 50319
L30512 50338
L30494 50357
L30475 50394
L30475 50488
L30494 50526
L30512 50544
L30550 50563
L30625 50563
L30662 50544
L30681 50526
L30700 50488
" />
</g>
<g style="fill:#008484; fill-opacity:0.0; 
stroke:#008484; stroke-width:59.0551; stroke-opacity:1; 
stroke-linecap:round; stroke-linejoin:round;">
<path d="M31331 51165
L31631 51165
" />
<path d="M31481 51315
L31481 51015
" />
</g>
<g style="fill:#C2C200; fill-opacity:0.0; 
stroke:#C2C200; stroke-width:59.0551; stroke-opacity:1; 
stroke-linecap:round; stroke-linejoin:round;">
<path d="M31673 50622
L31654 50641
L31598 50660
L31560 50660
L31504 50641
L31467 50604
L31448 50566
L31429 50491
L31429 50435
L31448 50360
L31467 50322
L31504 50285
L31560 50266
L31598 50266
L31654 50285
L31673 50304
" />
<path d="M32048 50660
L31823 50660
" />
<path d="M31935 50660
L31935 50266
L31898 50322
L31860 50360
L31823 50379
" />
<path d="M32423 50660
L32198 50660
" />
<path d="M32310 50660
L32310 50266
L32273 50322
L32235 50360
L32198 50379
" />
<path d="M17313 65253
L17331 65271
L17350 65328
L17350 65365
L17331 65421
L17294 65459
L17256 65478
L17181 65496
L17125 65496
L17050 65478
L17013 65459
L16975 65421
L16956 65365
L16956 65328
L16975 65271
L16994 65253
" />
<path d="M17350 64878
L17350 65103
" />
<path d="M17350 64990
L16956 64990
L17013 65028
L17050 65065
L17069 65103
" />
<path d="M16956 64634
L16956 64596
L16975 64559
L16994 64540
L17031 64521
L17106 64503
L17200 64503
L17275 64521
L17313 64540
L17331 64559
L17350 64596
L17350 64634
L17331 64671
L17313 64690
L17275 64709
L17200 64728
L17106 64728
L17031 64709
L16994 64690
L16975 64671
L16956 64634
" />
<path d="M33355 45941
L33374 45960
L33393 46016
L33393 46053
L33374 46110
L33336 46147
L33299 46166
L33224 46185
L33168 46185
L33093 46166
L33055 46147
L33018 46110
L32999 46053
L32999 46016
L33018 45960
L33036 45941
" />
<path d="M33393 45566
L33393 45791
" />
<path d="M33393 45678
L32999 45678
L33055 45716
L33093 45753
L33111 45791
" />
<path d="M33036 45416
L33018 45397
L32999 45360
L32999 45266
L33018 45228
L33036 45210
L33074 45191
L33111 45191
L33168 45210
L33393 45435
L33393 45191
" />
<path d="M19165 62083
L19146 62102
L19090 62121
L19052 62121
L18996 62102
L18959 62064
L18940 62027
L18921 61952
L18921 61896
L18940 61821
L18959 61783
L18996 61746
L19052 61727
L19090 61727
L19146 61746
L19165 61764
" />
<path d="M19540 62121
L19315 62121
" />
<path d="M19427 62121
L19427 61727
L19390 61783
L19352 61821
L19315 61839
" />
<path d="M19671 61727
L19915 61727
L19784 61877
L19840 61877
L19877 61896
L19896 61914
L19915 61952
L19915 62046
L19896 62083
L19877 62102
L19840 62121
L19727 62121
L19690 62102
L19671 62083
" />
<path d="M25167 45981
L25148 45999
L25092 46018
L25054 46018
L24998 45999
L24961 45962
L24942 45924
L24923 45849
L24923 45793
L24942 45718
L24961 45681
L24998 45643
L25054 45624
L25092 45624
L25148 45643
L25167 45662
" />
<path d="M25542 46018
L25317 46018
" />
<path d="M25429 46018
L25429 45624
L25392 45681
L25354 45718
L25317 45737
" />
<path d="M25879 45756
L25879 46018
" />
<path d="M25786 45606
L25692 45887
L25936 45887
" />
<path d="M26112 50951
L26131 50970
L26149 51026
L26149 51064
L26131 51120
L26093 51158
L26056 51176
L25981 51195
L25924 51195
L25849 51176
L25812 51158
L25774 51120
L25756 51064
L25756 51026
L25774 50970
L25793 50951
" />
<path d="M26149 50576
L26149 50801
" />
<path d="M26149 50689
L25756 50689
L25812 50726
L25849 50764
L25868 50801
" />
<path d="M25756 50239
L25756 50314
L25774 50351
L25793 50370
L25849 50408
L25924 50426
L26074 50426
L26112 50408
L26131 50389
L26149 50351
L26149 50276
L26131 50239
L26112 50220
L26074 50202
L25981 50202
L25943 50220
L25924 50239
L25906 50276
L25906 50351
L25924 50389
L25943 50408
L25981 50426
" />
<path d="M12736 51292
L12717 51310
L12661 51329
L12623 51329
L12567 51310
L12530 51273
L12511 51235
L12492 51160
L12492 51104
L12511 51029
L12530 50992
L12567 50954
L12623 50935
L12661 50935
L12717 50954
L12736 50973
" />
<path d="M13111 51329
L12886 51329
" />
<path d="M12998 51329
L12998 50935
L12961 50992
L12923 51029
L12886 51048
" />
<path d="M13467 50935
L13279 50935
L13261 51123
L13279 51104
L13317 51085
L13411 51085
L13448 51104
L13467 51123
L13486 51160
L13486 51254
L13467 51292
L13448 51310
L13411 51329
L13317 51329
L13279 51310
L13261 51292
" />
<path d="M18106 59847
L18087 59866
L18031 59884
L17993 59884
L17937 59866
L17900 59828
L17881 59791
L17862 59716
L17862 59659
L17881 59584
L17900 59547
L17937 59509
L17993 59491
L18031 59491
L18087 59509
L18106 59528
" />
<path d="M18481 59884
L18256 59884
" />
<path d="M18368 59884
L18368 59491
L18331 59547
L18293 59584
L18256 59603
" />
<path d="M18612 59491
L18875 59491
L18706 59884
" />
</g>
<g style="fill:#008484; fill-opacity:0.0; 
stroke:#008484; stroke-width:59.0551; stroke-opacity:1; 
stroke-linecap:round; stroke-linejoin:round;">
<path d="M16823 61175
L17123 61175
" />
<path d="M16973 61325
L16973 61025
" />
</g>
<g style="fill:#C2C200; fill-opacity:0.0; 
stroke:#C2C200; stroke-width:59.0551; stroke-opacity:1; 
stroke-linecap:round; stroke-linejoin:round;">
<path d="M14803 52670
L14784 52688
L14728 52707
L14690 52707
L14634 52688
L14596 52651
L14578 52613
L14559 52538
L14559 52482
L14578 52407
L14596 52370
L14634 52332
L14690 52313
L14728 52313
L14784 52332
L14803 52351
" />
<path d="M15178 52707
L14953 52707
" />
<path d="M15065 52707
L15065 52313
L15028 52370
L14990 52407
L14953 52426
" />
<path d="M15403 52482
L15365 52463
L15346 52445
L15328 52407
L15328 52388
L15346 52351
L15365 52332
L15403 52313
L15478 52313
L15515 52332
L15534 52351
L15553 52388
L15553 52407
L15534 52445
L15515 52463
L15478 52482
L15403 52482
L15365 52501
L15346 52520
L15328 52557
L15328 52632
L15346 52670
L15365 52688
L15403 52707
L15478 52707
L15515 52688
L15534 52670
L15553 52632
L15553 52557
L15534 52520
L15515 52501
L15478 52482
" />
<path d="M21259 58813
L21241 58832
L21184 58851
L21147 58851
L21091 58832
L21053 58795
L21034 58757
L21016 58682
L21016 58626
L21034 58551
L21053 58513
L21091 58476
L21147 58457
L21184 58457
L21241 58476
L21259 58495
" />
<path d="M21634 58851
L21409 58851
" />
<path d="M21522 58851
L21522 58457
L21484 58513
L21447 58551
L21409 58570
" />
<path d="M21822 58851
L21897 58851
L21934 58832
L21953 58813
L21991 58757
L22009 58682
L22009 58532
L21991 58495
L21972 58476
L21934 58457
L21859 58457
L21822 58476
L21803 58495
L21784 58532
L21784 58626
L21803 58663
L21822 58682
L21859 58701
L21934 58701
L21972 58682
L21991 58663
L22009 58626
" />
</g>
<g style="fill:#008484; fill-opacity:0.0; 
stroke:#008484; stroke-width:59.0551; stroke-opacity:1; 
stroke-linecap:round; stroke-linejoin:round;">
<path d="M22693 59323
L22993 59323
" />
<path d="M22843 59473
L22843 59173
" />
</g>
<g style="fill:#C2C200; fill-opacity:0.0; 
stroke:#C2C200; stroke-width:59.0551; stroke-opacity:1; 
stroke-linecap:round; stroke-linejoin:round;">
<path d="M21066 62311
L21048 62330
L20991 62349
L20954 62349
L20898 62330
L20860 62293
L20842 62255
L20823 62180
L20823 62124
L20842 62049
L20860 62011
L20898 61974
L20954 61955
L20991 61955
L21048 61974
L21066 61993
" />
<path d="M21216 61993
L21235 61974
L21273 61955
L21366 61955
L21404 61974
L21423 61993
L21441 62030
L21441 62068
L21423 62124
L21198 62349
L21441 62349
" />
<path d="M21685 61955
L21723 61955
L21760 61974
L21779 61993
L21798 62030
L21816 62105
L21816 62199
L21798 62274
L21779 62311
L21760 62330
L21723 62349
L21685 62349
L21648 62330
L21629 62311
L21610 62274
L21591 62199
L21591 62105
L21610 62030
L21629 61993
L21648 61974
L21685 61955
" />
<path d="M37169 60193
L37150 60212
L37094 60231
L37056 60231
L37000 60212
L36963 60175
L36944 60137
L36925 60062
L36925 60006
L36944 59931
L36963 59893
L37000 59856
L37056 59837
L37094 59837
L37150 59856
L37169 59875
" />
<path d="M37319 59875
L37338 59856
L37375 59837
L37469 59837
L37506 59856
L37525 59875
L37544 59912
L37544 59950
L37525 60006
L37300 60231
L37544 60231
" />
<path d="M37919 60231
L37694 60231
" />
<path d="M37806 60231
L37806 59837
L37769 59893
L37731 59931
L37694 59950
" />
<path d="M49043 47699
L49062 47718
L49080 47774
L49080 47812
L49062 47868
L49024 47906
L48987 47924
L48912 47943
L48855 47943
L48780 47924
L48743 47906
L48705 47868
L48687 47812
L48687 47774
L48705 47718
L48724 47699
" />
<path d="M48724 47549
L48705 47531
L48687 47493
L48687 47399
L48705 47362
L48724 47343
L48762 47324
L48799 47324
L48855 47343
L49080 47568
L49080 47324
" />
<path d="M48724 47175
L48705 47156
L48687 47118
L48687 47025
L48705 46987
L48724 46968
L48762 46950
L48799 46950
L48855 46968
L49080 47193
L49080 46950
" />
<path d="M35803 39796
L35784 39814
L35728 39833
L35690 39833
L35634 39814
L35596 39777
L35578 39739
L35559 39664
L35559 39608
L35578 39533
L35596 39496
L35634 39458
L35690 39439
L35728 39439
L35784 39458
L35803 39477
" />
<path d="M35953 39477
L35971 39458
L36009 39439
L36103 39439
L36140 39458
L36159 39477
L36178 39514
L36178 39552
L36159 39608
L35934 39833
L36178 39833
" />
<path d="M36309 39439
L36553 39439
L36421 39589
L36478 39589
L36515 39608
L36534 39627
L36553 39664
L36553 39758
L36534 39796
L36515 39814
L36478 39833
L36365 39833
L36328 39814
L36309 39796
" />
<path d="M37614 38955
L37632 38974
L37651 39030
L37651 39068
L37632 39124
L37595 39162
L37557 39180
L37482 39199
L37426 39199
L37351 39180
L37314 39162
L37276 39124
L37258 39068
L37258 39030
L37276 38974
L37295 38955
" />
<path d="M37295 38805
L37276 38787
L37258 38749
L37258 38655
L37276 38618
L37295 38599
L37333 38580
L37370 38580
L37426 38599
L37651 38824
L37651 38580
" />
<path d="M37389 38243
L37651 38243
" />
<path d="M37239 38337
L37520 38430
L37520 38187
" />
</g>
<g style="fill:#008484; fill-opacity:0.0; 
stroke:#008484; stroke-width:59.0551; stroke-opacity:1; 
stroke-linecap:round; stroke-linejoin:round;">
<path d="M38123 37522
L38123 37222
" />
<path d="M38273 37372
L37973 37372
" />
</g>
<g style="fill:#C2C200; fill-opacity:0.0; 
stroke:#C2C200; stroke-width:59.0551; stroke-opacity:1; 
stroke-linecap:round; stroke-linejoin:round;">
<path d="M37720 38975
L37739 38994
L37758 39050
L37758 39088
L37739 39144
L37701 39181
L37664 39200
L37589 39219
L37533 39219
L37458 39200
L37420 39181
L37383 39144
L37364 39088
L37364 39050
L37383 38994
L37401 38975
" />
<path d="M37401 38825
L37383 38806
L37364 38769
L37364 38675
L37383 38638
L37401 38619
L37439 38600
L37476 38600
L37533 38619
L37758 38844
L37758 38600
" />
<path d="M37364 38263
L37364 38338
L37383 38375
L37401 38394
L37458 38431
L37533 38450
L37683 38450
L37720 38431
L37739 38413
L37758 38375
L37758 38300
L37739 38263
L37720 38244
L37683 38225
L37589 38225
L37551 38244
L37533 38263
L37514 38300
L37514 38375
L37533 38413
L37551 38431
L37589 38450
" />
<path d="M37574 38951
L37593 38970
L37612 39026
L37612 39064
L37593 39120
L37556 39158
L37518 39176
L37443 39195
L37387 39195
L37312 39176
L37274 39158
L37237 39120
L37218 39064
L37218 39026
L37237 38970
L37256 38951
" />
<path d="M37256 38801
L37237 38783
L37218 38745
L37218 38651
L37237 38614
L37256 38595
L37293 38576
L37331 38576
L37387 38595
L37612 38820
L37612 38576
" />
<path d="M37387 38351
L37368 38389
L37349 38408
L37312 38426
L37293 38426
L37256 38408
L37237 38389
L37218 38351
L37218 38276
L37237 38239
L37256 38220
L37293 38202
L37312 38202
L37349 38220
L37368 38239
L37387 38276
L37387 38351
L37406 38389
L37424 38408
L37462 38426
L37537 38426
L37574 38408
L37593 38389
L37612 38351
L37612 38276
L37593 38239
L37574 38220
L37537 38202
L37462 38202
L37424 38220
L37406 38239
L37387 38276
" />
<path d="M31842 38280
L31823 38299
L31767 38317
L31730 38317
L31673 38299
L31636 38261
L31617 38224
L31598 38149
L31598 38092
L31617 38017
L31636 37980
L31673 37942
L31730 37924
L31767 37924
L31823 37942
L31842 37961
" />
<path d="M31992 37961
L32011 37942
L32048 37924
L32142 37924
L32180 37942
L32198 37961
L32217 37999
L32217 38036
L32198 38092
L31973 38317
L32217 38317
" />
<path d="M32405 38317
L32479 38317
L32517 38299
L32536 38280
L32573 38224
L32592 38149
L32592 37999
L32573 37961
L32554 37942
L32517 37924
L32442 37924
L32405 37942
L32386 37961
L32367 37999
L32367 38092
L32386 38130
L32405 38149
L32442 38167
L32517 38167
L32554 38149
L32573 38130
L32592 38092
" />
<path d="M22342 39300
L22323 39318
L22267 39337
L22230 39337
L22173 39318
L22136 39281
L22117 39243
L22098 39168
L22098 39112
L22117 39037
L22136 39000
L22173 38962
L22230 38943
L22267 38943
L22323 38962
L22342 38981
" />
<path d="M22473 38943
L22717 38943
L22586 39093
L22642 39093
L22680 39112
L22698 39131
L22717 39168
L22717 39262
L22698 39300
L22680 39318
L22642 39337
L22530 39337
L22492 39318
L22473 39300
" />
<path d="M22961 38943
L22998 38943
L23036 38962
L23054 38981
L23073 39018
L23092 39093
L23092 39187
L23073 39262
L23054 39300
L23036 39318
L22998 39337
L22961 39337
L22923 39318
L22905 39300
L22886 39262
L22867 39187
L22867 39093
L22886 39018
L22905 38981
L22923 38962
L22961 38943
" />
<path d="M10746 65074
L10352 65074
L10352 64980
L10371 64924
L10408 64886
L10446 64867
L10521 64849
L10577 64849
L10652 64867
L10689 64886
L10727 64924
L10746 64980
L10746 65074
" />
<path d="M10746 64474
L10746 64699
" />
<path d="M10746 64586
L10352 64586
L10408 64624
L10446 64661
L10464 64699
" />
<path d="M11878 55453
L11878 55640
L11484 55640
" />
<path d="M11522 55340
L11503 55322
L11484 55284
L11484 55190
L11503 55153
L11522 55134
L11559 55115
L11597 55115
L11653 55134
L11878 55359
L11878 55115
" />
<path d="M14939 55449
L14939 55636
L14545 55636
" />
<path d="M14545 55355
L14545 55112
L14695 55243
L14695 55187
L14714 55149
L14733 55130
L14770 55112
L14864 55112
L14902 55130
L14920 55149
L14939 55187
L14939 55299
L14920 55336
L14902 55355
" />
<path d="M33816 40695
L33816 40302
L33966 40302
L34004 40320
L34023 40339
L34041 40377
L34041 40433
L34023 40470
L34004 40489
L33966 40508
L33816 40508
" />
<path d="M34398 40302
L34210 40302
L34191 40489
L34210 40470
L34248 40452
L34341 40452
L34379 40470
L34398 40489
L34416 40527
L34416 40620
L34398 40658
L34379 40677
L34341 40695
L34248 40695
L34210 40677
L34191 40658
" />
<path d="M17039 39540
L17039 39146
L17189 39146
L17226 39165
L17245 39184
L17264 39221
L17264 39277
L17245 39315
L17226 39334
L17189 39352
L17039 39352
" />
<path d="M17601 39146
L17526 39146
L17489 39165
L17470 39184
L17433 39240
L17414 39315
L17414 39465
L17433 39502
L17451 39521
L17489 39540
L17564 39540
L17601 39521
L17620 39502
L17639 39465
L17639 39371
L17620 39334
L17601 39315
L17564 39296
L17489 39296
L17451 39315
L17433 39334
L17414 39371
" />
<path d="M33450 37097
L33450 36703
L33600 36703
L33638 36722
L33656 36741
L33675 36778
L33675 36834
L33656 36872
L33638 36891
L33600 36909
L33450 36909
" />
<path d="M33900 36872
L33863 36853
L33844 36834
L33825 36797
L33825 36778
L33844 36741
L33863 36722
L33900 36703
L33975 36703
L34013 36722
L34031 36741
L34050 36778
L34050 36797
L34031 36834
L34013 36853
L33975 36872
L33900 36872
L33863 36891
L33844 36909
L33825 36947
L33825 37022
L33844 37059
L33863 37078
L33900 37097
L33975 37097
L34013 37078
L34031 37059
L34050 37022
L34050 36947
L34031 36909
L34013 36891
L33975 36872
" />
<path d="M29340 58253
L28947 58253
L28947 58103
L28965 58065
L28984 58046
L29021 58028
L29078 58028
L29115 58046
L29134 58065
L29153 58103
L29153 58253
" />
<path d="M29340 57840
L29340 57765
L29321 57728
L29303 57709
L29246 57672
L29171 57653
L29021 57653
L28984 57672
L28965 57690
L28947 57728
L28947 57803
L28965 57840
L28984 57859
L29021 57878
L29115 57878
L29153 57859
L29171 57840
L29190 57803
L29190 57728
L29171 57690
L29153 57672
L29115 57653
" />
<path d="M2681 66678
L2287 66678
L2287 66528
L2306 66491
L2325 66472
L2362 66453
L2418 66453
L2456 66472
L2475 66491
L2493 66528
L2493 66678
" />
<path d="M2681 66078
L2681 66303
" />
<path d="M2681 66191
L2287 66191
L2343 66228
L2381 66266
L2400 66303
" />
<path d="M2287 65835
L2287 65797
L2306 65760
L2325 65741
L2362 65722
L2437 65703
L2531 65703
L2606 65722
L2643 65741
L2662 65760
L2681 65797
L2681 65835
L2662 65872
L2643 65891
L2606 65910
L2531 65928
L2437 65928
L2362 65910
L2325 65891
L2306 65872
L2287 65835
" />
<path d="M35357 49597
L35357 49203
L35507 49203
L35545 49222
L35563 49241
L35582 49278
L35582 49334
L35563 49372
L35545 49391
L35507 49409
L35357 49409
" />
<path d="M35957 49597
L35732 49597
" />
<path d="M35845 49597
L35845 49203
L35807 49259
L35770 49297
L35732 49316
" />
<path d="M36332 49597
L36107 49597
" />
<path d="M36220 49597
L36220 49203
L36182 49259
L36145 49297
L36107 49316
" />
<path d="M40704 40554
L40704 40160
L40854 40160
L40891 40179
L40910 40197
L40929 40235
L40929 40291
L40910 40329
L40891 40347
L40854 40366
L40704 40366
" />
<path d="M41304 40554
L41079 40554
" />
<path d="M41191 40554
L41191 40160
L41154 40216
L41116 40254
L41079 40272
" />
<path d="M41454 40197
L41472 40179
L41510 40160
L41604 40160
L41641 40179
L41660 40197
L41679 40235
L41679 40272
L41660 40329
L41435 40554
L41679 40554
" />
<path d="M8692 46317
L8692 45924
L8842 45924
L8879 45942
L8898 45961
L8917 45999
L8917 46055
L8898 46092
L8879 46111
L8842 46130
L8692 46130
" />
<path d="M9292 46317
L9067 46317
" />
<path d="M9179 46317
L9179 45924
L9142 45980
L9104 46017
L9067 46036
" />
<path d="M9423 45924
L9667 45924
L9536 46074
L9592 46074
L9629 46092
L9648 46111
L9667 46149
L9667 46242
L9648 46280
L9629 46299
L9592 46317
L9479 46317
L9442 46299
L9423 46280
" />
<path d="M12293 53499
L11899 53499
L11899 53349
L11918 53312
L11937 53293
L11974 53274
L12030 53274
L12068 53293
L12087 53312
L12105 53349
L12105 53499
" />
<path d="M12293 52899
L12293 53124
" />
<path d="M12293 53012
L11899 53012
L11955 53049
L11993 53087
L12012 53124
" />
<path d="M12030 52562
L12293 52562
" />
<path d="M11881 52656
L12162 52749
L12162 52506
" />
<path d="M29478 44626
L29347 44439
" />
<path d="M29253 44626
L29253 44233
L29403 44233
L29441 44251
L29460 44270
L29478 44308
L29478 44364
L29460 44401
L29441 44420
L29403 44439
L29253 44439
" />
<path d="M29853 44626
L29628 44626
" />
<path d="M29741 44626
L29741 44233
L29703 44289
L29666 44326
L29628 44345
" />
<path d="M32844 46395
L32657 46526
" />
<path d="M32844 46620
L32450 46620
L32450 46470
L32469 46432
L32488 46413
L32525 46395
L32582 46395
L32619 46413
L32638 46432
L32657 46470
L32657 46620
" />
<path d="M32488 46245
L32469 46226
L32450 46188
L32450 46095
L32469 46057
L32488 46038
L32525 46020
L32563 46020
L32619 46038
L32844 46263
L32844 46020
" />
<path d="M10683 62526
L10495 62657
" />
<path d="M10683 62751
L10289 62751
L10289 62601
L10308 62564
L10327 62545
L10364 62526
L10420 62526
L10458 62545
L10476 62564
L10495 62601
L10495 62751
" />
<path d="M10289 62395
L10289 62151
L10439 62282
L10439 62226
L10458 62189
L10476 62170
L10514 62151
L10608 62151
L10645 62170
L10664 62189
L10683 62226
L10683 62339
L10664 62376
L10645 62395
" />
<path d="M11501 63876
L11370 63689
" />
<path d="M11276 63876
L11276 63483
L11426 63483
L11464 63501
L11482 63520
L11501 63558
L11501 63614
L11482 63651
L11464 63670
L11426 63689
L11276 63689
" />
<path d="M11839 63614
L11839 63876
" />
<path d="M11745 63464
L11651 63745
L11895 63745
" />
<path d="M13393 65016
L13206 65147
" />
<path d="M13393 65241
L13000 65241
L13000 65091
L13018 65053
L13037 65035
L13075 65016
L13131 65016
L13168 65035
L13187 65053
L13206 65091
L13206 65241
" />
<path d="M13000 64660
L13000 64847
L13187 64866
L13168 64847
L13150 64810
L13150 64716
L13168 64678
L13187 64660
L13225 64641
L13318 64641
L13356 64660
L13375 64678
L13393 64716
L13393 64810
L13375 64847
L13356 64866
" />
<path d="M31175 62191
L31044 62004
" />
<path d="M30950 62191
L30950 61798
L31100 61798
L31138 61816
L31156 61835
L31175 61873
L31175 61929
L31156 61966
L31138 61985
L31100 62004
L30950 62004
" />
<path d="M31513 61798
L31438 61798
L31400 61816
L31381 61835
L31344 61891
L31325 61966
L31325 62116
L31344 62154
L31363 62173
L31400 62191
L31475 62191
L31513 62173
L31531 62154
L31550 62116
L31550 62023
L31531 61985
L31513 61966
L31475 61948
L31400 61948
L31363 61966
L31344 61985
L31325 62023
" />
<path d="M49092 49437
L48905 49568
" />
<path d="M49092 49662
L48698 49662
L48698 49512
L48717 49475
L48736 49456
L48773 49437
L48830 49437
L48867 49456
L48886 49475
L48905 49512
L48905 49662
" />
<path d="M48698 49306
L48698 49043
L49092 49212
" />
<path d="M48687 45599
L48499 45730
" />
<path d="M48687 45824
L48293 45824
L48293 45674
L48312 45636
L48330 45617
L48368 45599
L48424 45599
L48462 45617
L48480 45636
L48499 45674
L48499 45824
" />
<path d="M48462 45374
L48443 45411
L48424 45430
L48387 45449
L48368 45449
L48330 45430
L48312 45411
L48293 45374
L48293 45299
L48312 45261
L48330 45242
L48368 45224
L48387 45224
L48424 45242
L48443 45261
L48462 45299
L48462 45374
L48480 45411
L48499 45430
L48537 45449
L48612 45449
L48649 45430
L48668 45411
L48687 45374
L48687 45299
L48668 45261
L48649 45242
L48612 45224
L48537 45224
L48499 45242
L48480 45261
L48462 45299
" />
<path d="M31120 63046
L30989 62858
" />
<path d="M30895 63046
L30895 62652
L31045 62652
L31083 62671
L31101 62690
L31120 62727
L31120 62783
L31101 62821
L31083 62839
L31045 62858
L30895 62858
" />
<path d="M31308 63046
L31383 63046
L31420 63027
L31439 63008
L31476 62952
L31495 62877
L31495 62727
L31476 62690
L31458 62671
L31420 62652
L31345 62652
L31308 62671
L31289 62690
L31270 62727
L31270 62821
L31289 62858
L31308 62877
L31345 62896
L31420 62896
L31458 62877
L31476 62858
L31495 62821
" />
<path d="M39817 60755
L39629 60886
" />
<path d="M39817 60980
L39423 60980
L39423 60830
L39442 60792
L39460 60773
L39498 60755
L39554 60755
L39592 60773
L39610 60792
L39629 60830
L39629 60980
" />
<path d="M39817 60380
L39817 60605
" />
<path d="M39817 60492
L39423 60492
L39479 60530
L39517 60567
L39535 60605
" />
<path d="M39423 60136
L39423 60098
L39442 60061
L39460 60042
L39498 60023
L39573 60005
L39667 60005
L39742 60023
L39779 60042
L39798 60061
L39817 60098
L39817 60136
L39798 60173
L39779 60192
L39742 60211
L39667 60230
L39573 60230
L39498 60211
L39460 60192
L39442 60173
L39423 60136
" />
<path d="M43019 44711
L42888 44524
" />
<path d="M42794 44711
L42794 44317
L42944 44317
L42982 44336
L43000 44355
L43019 44392
L43019 44449
L43000 44486
L42982 44505
L42944 44524
L42794 44524
" />
<path d="M43394 44711
L43169 44711
" />
<path d="M43282 44711
L43282 44317
L43244 44374
L43207 44411
L43169 44430
" />
<path d="M43769 44711
L43544 44711
" />
<path d="M43657 44711
L43657 44317
L43619 44374
L43582 44411
L43544 44430
" />
<path d="M6897 50636
L6710 50768
" />
<path d="M6897 50861
L6504 50861
L6504 50711
L6522 50674
L6541 50655
L6579 50636
L6635 50636
L6672 50655
L6691 50674
L6710 50711
L6710 50861
" />
<path d="M6897 50261
L6897 50486
" />
<path d="M6897 50374
L6504 50374
L6560 50411
L6597 50449
L6616 50486
" />
<path d="M6541 50112
L6522 50093
L6504 50055
L6504 49962
L6522 49924
L6541 49905
L6579 49887
L6616 49887
L6672 49905
L6897 50130
L6897 49887
" />
<path d="M43003 43695
L42872 43508
" />
<path d="M42779 43695
L42779 43302
L42929 43302
L42966 43320
L42985 43339
L43003 43377
L43003 43433
L42985 43470
L42966 43489
L42929 43508
L42779 43508
" />
<path d="M43378 43695
L43153 43695
" />
<path d="M43266 43695
L43266 43302
L43228 43358
L43191 43395
L43153 43414
" />
<path d="M43510 43302
L43753 43302
L43622 43452
L43678 43452
L43716 43470
L43735 43489
L43753 43527
L43753 43620
L43735 43658
L43716 43677
L43678 43695
L43566 43695
L43528 43677
L43510 43658
" />
<path d="M39797 51148
L39609 51279
" />
<path d="M39797 51373
L39403 51373
L39403 51223
L39422 51186
L39441 51167
L39478 51148
L39534 51148
L39572 51167
L39591 51186
L39609 51223
L39609 51373
" />
<path d="M39797 50773
L39797 50998
" />
<path d="M39797 50886
L39403 50886
L39459 50923
L39497 50961
L39516 50998
" />
<path d="M39403 50436
L39403 50511
L39422 50548
L39441 50567
L39497 50605
L39572 50623
L39722 50623
L39759 50605
L39778 50586
L39797 50548
L39797 50473
L39778 50436
L39759 50417
L39722 50398
L39628 50398
L39591 50417
L39572 50436
L39553 50473
L39553 50548
L39572 50586
L39591 50605
L39628 50623
" />
<path d="M38198 50593
L38011 50724
" />
<path d="M38198 50818
L37805 50818
L37805 50668
L37824 50631
L37842 50612
L37880 50593
L37936 50593
L37973 50612
L37992 50631
L38011 50668
L38011 50818
" />
<path d="M38198 50218
L38198 50443
" />
<path d="M38198 50331
L37805 50331
L37861 50368
L37899 50406
L37917 50443
" />
<path d="M37805 50087
L37805 49824
L38198 49993
" />
<path d="M40132 53184
L39944 53315
" />
<path d="M40132 53409
L39738 53409
L39738 53259
L39757 53221
L39775 53202
L39813 53184
L39869 53184
L39907 53202
L39925 53221
L39944 53259
L39944 53409
" />
<path d="M40132 52809
L40132 53034
" />
<path d="M40132 52921
L39738 52921
L39794 52959
L39832 52996
L39850 53034
" />
<path d="M40132 52621
L40132 52546
L40113 52509
L40094 52490
L40038 52453
L39963 52434
L39813 52434
L39775 52453
L39757 52471
L39738 52509
L39738 52584
L39757 52621
L39775 52640
L39813 52659
L39907 52659
L39944 52640
L39963 52621
L39982 52584
L39982 52509
L39963 52471
L39944 52453
L39907 52434
" />
<path d="M39155 53168
L38968 53299
" />
<path d="M39155 53393
L38761 53393
L38761 53243
L38780 53205
L38799 53187
L38836 53168
L38893 53168
L38930 53187
L38949 53205
L38968 53243
L38968 53393
" />
<path d="M38799 53018
L38780 52999
L38761 52962
L38761 52868
L38780 52830
L38799 52812
L38836 52793
L38874 52793
L38930 52812
L39155 53037
L39155 52793
" />
<path d="M38761 52549
L38761 52512
L38780 52474
L38799 52456
L38836 52437
L38911 52418
L39005 52418
L39080 52437
L39118 52456
L39136 52474
L39155 52512
L39155 52549
L39136 52587
L39118 52606
L39080 52624
L39005 52643
L38911 52643
L38836 52624
L38799 52606
L38780 52587
L38761 52549
" />
<path d="M18674 52459
L18656 52477
L18599 52496
L18562 52496
L18506 52477
L18468 52440
L18449 52402
L18431 52327
L18431 52271
L18449 52196
L18468 52159
L18506 52121
L18562 52102
L18599 52102
L18656 52121
L18674 52140
" />
<path d="M18824 52140
L18843 52121
L18881 52102
L18974 52102
L19012 52121
L19031 52140
L19049 52177
L19049 52215
L19031 52271
L18806 52496
L19049 52496
" />
<path d="M19181 52102
L19443 52102
L19274 52496
" />
<path d="M22713 64218
L22320 64218
L22320 64124
L22338 64068
L22376 64031
L22413 64012
L22488 63993
L22545 63993
L22620 64012
L22657 64031
L22695 64068
L22713 64124
L22713 64218
" />
<path d="M22357 63843
L22338 63824
L22320 63787
L22320 63693
L22338 63656
L22357 63637
L22395 63618
L22432 63618
L22488 63637
L22713 63862
L22713 63618
" />
<path d="M20610 50168
L20479 49980
" />
<path d="M20385 50168
L20385 49774
L20535 49774
L20572 49793
L20591 49812
L20610 49849
L20610 49905
L20591 49943
L20572 49962
L20535 49980
L20385 49980
" />
<path d="M20985 50168
L20760 50168
" />
<path d="M20872 50168
L20872 49774
L20835 49830
L20797 49868
L20760 49887
" />
<path d="M21210 49943
L21172 49924
L21153 49905
L21135 49868
L21135 49849
L21153 49812
L21172 49793
L21210 49774
L21285 49774
L21322 49793
L21341 49812
L21360 49849
L21360 49868
L21341 49905
L21322 49924
L21285 49943
L21210 49943
L21172 49962
L21153 49980
L21135 50018
L21135 50093
L21153 50130
L21172 50149
L21210 50168
L21285 50168
L21322 50149
L21341 50130
L21360 50093
L21360 50018
L21341 49980
L21322 49962
L21285 49943
" />
<path d="M18651 52938
L18520 52750
" />
<path d="M18426 52938
L18426 52544
L18576 52544
L18613 52563
L18632 52582
L18651 52619
L18651 52675
L18632 52713
L18613 52732
L18576 52750
L18426 52750
" />
<path d="M19026 52938
L18801 52938
" />
<path d="M18913 52938
L18913 52544
L18876 52600
L18838 52638
L18801 52657
" />
<path d="M19382 52544
L19194 52544
L19176 52732
L19194 52713
L19232 52694
L19326 52694
L19363 52713
L19382 52732
L19401 52769
L19401 52863
L19382 52900
L19363 52919
L19326 52938
L19232 52938
L19194 52919
L19176 52900
" />
<path d="M4181 55682
L3994 55813
" />
<path d="M4181 55907
L3787 55907
L3787 55757
L3806 55720
L3825 55701
L3862 55682
L3919 55682
L3956 55701
L3975 55720
L3994 55757
L3994 55907
" />
<path d="M3825 55532
L3806 55513
L3787 55476
L3787 55382
L3806 55345
L3825 55326
L3862 55307
L3900 55307
L3956 55326
L4181 55551
L4181 55307
" />
<path d="M4181 54932
L4181 55157
" />
<path d="M4181 55045
L3787 55045
L3844 55082
L3881 55120
L3900 55157
" />
<path d="M21602 50705
L21602 51023
L21621 51061
L21640 51080
L21677 51098
L21752 51098
L21790 51080
L21809 51061
L21827 51023
L21827 50705
" />
<path d="M22071 50873
L22033 50855
L22015 50836
L21996 50799
L21996 50780
L22015 50742
L22033 50724
L22071 50705
L22146 50705
L22183 50724
L22202 50742
L22221 50780
L22221 50799
L22202 50836
L22183 50855
L22146 50873
L22071 50873
L22033 50892
L22015 50911
L21996 50948
L21996 51023
L22015 51061
L22033 51080
L22071 51098
L22146 51098
L22183 51080
L22202 51061
L22221 51023
L22221 50948
L22202 50911
L22183 50892
L22146 50873
" />
</g>
<g style="fill:#008484; fill-opacity:0.0; 
stroke:#008484; stroke-width:59.0551; stroke-opacity:1; 
stroke-linecap:round; stroke-linejoin:round;">
<path d="M31050 45354
L30656 45354
" />
<path d="M31050 49429
L30627 49429
" />
<path d="M26975 49429
L27398 49429
" />
<path d="M26975 45354
L27398 45354
" />
<path d="M31050 45354
L31050 45777
" />
<path d="M26975 45354
L26975 45777
" />
<path d="M26975 49429
L26975 49005
" />
<path d="M31050 49429
L31050 49005
" />
<path d="M30656 45354
L30656 44950
" />
</g>
<g style="fill:#008484; fill-opacity:0.0; 
stroke:#008484; stroke-width:47.2441; stroke-opacity:1; 
stroke-linecap:round; stroke-linejoin:round;">
<path d="M32646 60139
L32646 60297
" />
<path d="M36111 60139
L32646 60139
" />
<path d="M36780 60139
L36741 60139
" />
<path d="M38040 60139
L36780 60139
" />
<path d="M38040 60297
L38040 60139
" />
<path d="M38040 62895
L38316 62895
" />
<path d="M38040 62935
L38040 62895
" />
<path d="M32646 64746
L32646 62895
" />
<path d="M38040 64746
L32646 64746
" />
<path d="M38040 62935
L38040 64746
" />
</g>
<g style="fill:#008484; fill-opacity:0.0; 
stroke:#008484; stroke-width:59.0551; stroke-opacity:1; 
stroke-linecap:round; stroke-linejoin:round;">
<path d="M43108 49310
L44710 47582
" />
<path d="M43108 47578
L44707 49302
" />
<circle cx="43911.8" cy="48444.3" r="1181.1" /> 
<circle cx="47060.6" cy="44794.9" r="141.421" /> 
<path d="M40660 51944
L40660 44944
" />
<path d="M40660 44944
L47160 44944
" />
<path d="M47160 44944
L47160 51944
" />
<path d="M47160 51944
L40660 51944
" />
</g>
<g style="fill:#008484; fill-opacity:0.0; 
stroke:#008484; stroke-width:47.2441; stroke-opacity:1; 
stroke-linecap:round; stroke-linejoin:round;">
<path d="M37812 46953
L38859 46953
" />
<path d="M37812 45929
L37812 46953
" />
<path d="M38859 45929
L38859 46953
" />
<path d="M37812 45929
L38859 45929
" />
<path d="M37812 45429
L37812 44905
" />
<path d="M37812 44905
L38335 44905
" />
<path d="M30233 38017
L30233 38411
" />
<path d="M30902 38411
L30902 38017
" />
<path d="M9672 39663
L8885 39663
" />
<path d="M8885 38820
L9672 38820
" />
<path d="M655 63772
L5616 63772
" />
<path d="M5616 63772
L5616 59698
" />
<path d="M5616 59698
L5242 59698
" />
<path d="M5242 59698
L5340 59501
" />
<path d="M5340 59501
L4592 59501
" />
<path d="M4592 59501
L4572 59501
" />
<path d="M4572 59501
L4671 59698
" />
<path d="M4671 59698
L2545 59698
" />
<path d="M2545 59698
L2663 59501
" />
<path d="M2663 59501
L655 59501
" />
<path d="M655 59501
L655 63772
" />
<path d="M3658 36348
L257 36348
" />
<path d="M6957 36348
L4957 36348
" />
<path d="M3658 41151
L257 41151
" />
<path d="M6957 41151
L4957 41151
" />
<path d="M257 41151
L257 36348
" />
<path d="M6957 36348
L6957 41151
" />
<path d="M27146 38324
L27146 37277
" />
<path d="M22123 38324
L27146 38324
" />
<path d="M22123 37277
L27146 37277
" />
<path d="M22123 38324
L22123 37277
" />
<path d="M21623 38324
L21099 38324
" />
<path d="M21099 38324
L21099 37801
" />
<path d="M4060 52435
L5107 52435
" />
<path d="M4060 49411
L4060 52435
" />
<path d="M5107 49411
L5107 52435
" />
<path d="M4060 49411
L5107 49411
" />
<path d="M4060 48911
L4060 48387
" />
<path d="M4060 48387
L4583 48387
" />
<path d="M7857 61030
L7491 61030
" />
<path d="M6613 61030
L6979 61030
" />
<path d="M6613 61030
L6613 62274
" />
<path d="M7857 61030
L7857 61605
" />
<path d="M14131 62139
L13765 62139
" />
<path d="M12887 62139
L13253 62139
" />
<path d="M12887 62139
L12887 63383
" />
<path d="M14131 62139
L14131 62714
" />
<path d="M16731 62139
L16365 62139
" />
<path d="M15487 62139
L15853 62139
" />
<path d="M15487 62139
L15487 63383
" />
<path d="M16731 62139
L16731 62714
" />
<path d="M36568 51687
L36568 52053
" />
<path d="M36568 52931
L36568 52564
" />
<path d="M36568 52931
L37812 52931
" />
<path d="M36568 51687
L37142 51687
" />
<path d="M34402 51687
L34402 52053
" />
<path d="M34402 52931
L34402 52564
" />
<path d="M34402 52931
L35646 52931
" />
<path d="M34402 51687
L34977 51687
" />
<circle cx="37749.2" cy="50328.7" r="338.583" /> 
<path d="M37410 50328
L37394 50328
" />
</g>
<g style="fill:#008484; fill-opacity:0.0; 
stroke:#008484; stroke-width:59.0551; stroke-opacity:1; 
stroke-linecap:round; stroke-linejoin:round;">
<path d="M15233 41722
L15233 41496
" />
<path d="M12969 41722
L12969 41466
" />
<path d="M12969 37529
L12969 37785
" />
<path d="M15233 37529
L15233 37785
" />
<path d="M15233 41722
L12969 41722
" />
<path d="M15233 37529
L12969 37529
" />
<path d="M15233 41496
L15863 41496
" />
</g>
<g style="fill:#008484; fill-opacity:0.0; 
stroke:#008484; stroke-width:47.2441; stroke-opacity:1; 
stroke-linecap:round; stroke-linejoin:round;">
<path d="M18573 65011
L19069 65011
" />
<path d="M21258 65011
L20762 65011
" />
<path d="M18573 63531
L18573 65011
" />
<path d="M21258 62645
L21258 65011
" />
<path d="M35902 38659
L36099 38659
" />
<path d="M36099 38659
L36099 38856
" />
<path d="M36099 38856
L36099 38856
" />
<path d="M36099 39328
L36099 39525
" />
<path d="M36099 39525
L35902 39525
" />
<path d="M35902 39525
L35902 39525
" />
<path d="M35430 39525
L35233 39525
" />
<path d="M35233 39525
L35233 39328
" />
<path d="M35233 39328
L35233 39328
" />
<path d="M35430 38659
L35233 38659
" />
<path d="M35233 38659
L35233 38659
" />
</g>
<g style="fill:#008484; fill-opacity:0.0; 
stroke:#008484; stroke-width:59.0551; stroke-opacity:1; 
stroke-linecap:round; stroke-linejoin:round;">
<circle cx="31792.5" cy="38998" r="52.9669" /> 
<path d="M31201 39490
L31201 38505
" />
<path d="M32383 39490
L32383 38505
" />
<path d="M31792 38505
L31201 38505
" />
<path d="M31792 39490
L31201 39490
" />
<path d="M31792 39490
L32383 39490
" />
<path d="M31792 38505
L32383 38505
" />
<circle cx="32379.1" cy="39486.2" r="52.9669" /> 
<path d="M7908 51466
L8166 51466
" />
<path d="M7908 49301
L8203 49301
" />
<path d="M10432 49301
L10137 49301
" />
<path d="M10432 51466
L10137 51466
" />
<path d="M7908 51466
L7908 49301
" />
<path d="M10432 51466
L10432 49301
" />
<path d="M8166 51466
L8166 52155
" />
</g>
<g style="fill:#008484; fill-opacity:0.0; 
stroke:#008484; stroke-width:47.2441; stroke-opacity:1; 
stroke-linecap:round; stroke-linejoin:round;">
<path d="M27300 43090
L32261 43090
" />
<path d="M32261 43090
L32261 41082
" />
<path d="M32261 41082
L27300 41082
" />
<path d="M25105 44330
L25499 44330
" />
<path d="M25499 43661
L25105 43661
" />
<path d="M31611 43179
L31217 43179
" />
<path d="M31217 43848
L31611 43848
" />
<path d="M27635 43848
L28028 43848
" />
<path d="M28028 43179
L27635 43179
" />
<path d="M24410 42019
L24410 42177
" />
<path d="M26213 41716
L26213 42177
" />
<path d="M26213 43519
L26213 43059
" />
<path d="M24410 43216
L24410 43059
" />
<path d="M24713 43519
L26213 43519
" />
<path d="M24713 43519
L24410 43216
" />
<path d="M24713 41716
L26213 41716
" />
<path d="M24713 41716
L24410 42019
" />
<path d="M25142 48261
L24985 48261
" />
<path d="M25446 50064
L24985 50064
" />
<path d="M23642 50064
L24103 50064
" />
<path d="M23946 48261
L24103 48261
" />
<path d="M23642 48564
L23642 50064
" />
<path d="M23642 48564
L23946 48261
" />
<path d="M25446 48564
L25446 50064
" />
<path d="M25446 48564
L25142 48261
" />
<path d="M11542 39931
L11542 39537
" />
<path d="M10873 39537
L10873 39931
" />
<path d="M10786 36816
L10786 36206
" />
<path d="M10786 34718
L10786 35328
" />
<path d="M12888 35017
L12888 35328
" />
<path d="M12888 36517
L12888 36206
" />
<path d="M10786 36816
L12589 36816
" />
<path d="M12589 36816
L12888 36517
" />
<path d="M12888 35017
L12589 34718
" />
<path d="M12589 34718
L10786 34718
" />
<path d="M10971 37657
L11365 37657
" />
<path d="M11365 36988
L10971 36988
" />
<path d="M31292 52527
L31292 52370
" />
<path d="M29489 52830
L29489 52370
" />
<path d="M29489 51027
L29489 51488
" />
<path d="M31292 51330
L31292 51488
" />
<path d="M30989 51027
L29489 51027
" />
<path d="M30989 51027
L31292 51330
" />
<path d="M30989 52830
L29489 52830
" />
<path d="M30989 52830
L31292 52527
" />
<path d="M30587 50255
L30194 50255
" />
<path d="M30194 50925
L30587 50925
" />
<path d="M16818 65196
L16818 64803
" />
<path d="M16148 64803
L16148 65196
" />
<path d="M32201 45540
L32201 45934
" />
<path d="M32870 45934
L32870 45540
" />
<path d="M19658 61627
L19264 61627
" />
<path d="M19264 62297
L19658 62297
" />
<path d="M25617 46194
L25223 46194
" />
<path d="M25223 46864
L25617 46864
" />
<path d="M26237 49714
L26237 49320
" />
<path d="M25568 49320
L25568 49714
" />
<path d="M13186 51505
L12792 51505
" />
<path d="M12792 52175
L13186 52175
" />
<path d="M19355 59167
L19355 59777
" />
<path d="M19355 61265
L19355 60655
" />
<path d="M17253 60966
L17253 60655
" />
<path d="M17253 59466
L17253 59777
" />
<path d="M19355 59167
L17552 59167
" />
<path d="M17552 59167
L17253 59466
" />
<path d="M17253 60966
L17552 61265
" />
<path d="M17552 61265
L19355 61265
" />
<path d="M14859 52175
L15253 52175
" />
<path d="M15253 51505
L14859 51505
" />
<path d="M20461 61275
L20461 60665
" />
<path d="M20461 59177
L20461 59787
" />
<path d="M22564 59476
L22564 59787
" />
<path d="M22564 60976
L22564 60665
" />
<path d="M20461 61275
L22264 61275
" />
<path d="M22264 61275
L22564 60976
" />
<path d="M22564 59476
L22264 59177
" />
<path d="M22264 59177
L20461 59177
" />
<path d="M21131 62301
L21524 62301
" />
<path d="M21524 61631
L21131 61631
" />
<path d="M37225 59698
L37619 59698
" />
<path d="M37619 59029
L37225 59029
" />
<path d="M48548 47643
L48548 47250
" />
<path d="M47879 47250
L47879 47643
" />
<path d="M36253 40009
L35859 40009
" />
<path d="M35859 40679
L36253 40679
" />
<path d="M40075 39753
L39465 39753
" />
<path d="M37977 39753
L38587 39753
" />
<path d="M38276 37651
L38587 37651
" />
<path d="M39776 37651
L39465 37651
" />
<path d="M40075 39753
L40075 37950
" />
<path d="M40075 37950
L39776 37651
" />
<path d="M38276 37651
L37977 37950
" />
<path d="M37977 37950
L37977 39753
" />
<path d="M37847 38895
L37847 38501
" />
<path d="M37178 38501
L37178 38895
" />
<path d="M37079 38895
L37079 38501
" />
<path d="M36410 38501
L36410 38895
" />
<path d="M31890 38289
L32284 38289
" />
<path d="M32284 37620
L31890 37620
" />
<path d="M22388 39326
L22782 39326
" />
<path d="M22782 38657
L22388 38657
" />
<path d="M10174 64192
L9505 64192
" />
<path d="M9505 64192
L9505 65196
" />
<path d="M10174 64192
L10174 65196
" />
</g>
<g style="fill:#008484; fill-opacity:0.0; 
stroke:#008484; stroke-width:59.0551; stroke-opacity:1; 
stroke-linecap:round; stroke-linejoin:round;">
<circle cx="12487.4" cy="55387.8" r="1500" /> 
<circle cx="15548.4" cy="55383.9" r="1500" /> 
</g>
<g style="fill:#008484; fill-opacity:0.0; 
stroke:#008484; stroke-width:47.2441; stroke-opacity:1; 
stroke-linecap:round; stroke-linejoin:round;">
<path d="M34631 38076
L33583 38076
" />
<path d="M34631 39100
L34631 38076
" />
<path d="M33583 39100
L33583 38076
" />
<path d="M34631 39100
L33583 39100
" />
<path d="M34631 39600
L34631 40124
" />
<path d="M34631 40124
L34107 40124
" />
<path d="M16806 41803
L17853 41803
" />
<path d="M16806 40779
L16806 41803
" />
<path d="M17853 40779
L17853 41803
" />
<path d="M16806 40779
L17853 40779
" />
<path d="M16806 40279
L16806 39755
" />
<path d="M16806 39755
L17329 39755
" />
<path d="M33178 37379
L33178 36332
" />
<path d="M32154 37379
L33178 37379
" />
<path d="M32154 36332
L33178 36332
" />
<path d="M32154 37379
L32154 36332
" />
<path d="M31654 37379
L31131 37379
" />
<path d="M31131 37379
L31131 36856
" />
<path d="M35603 58486
L35603 57438
" />
<path d="M30579 58486
L35603 58486
" />
<path d="M30579 57438
L35603 57438
" />
<path d="M30579 58486
L30579 57438
" />
<path d="M30079 58486
L29556 58486
" />
<path d="M29556 58486
L29556 57962
" />
<path d="M5944 66724
L5944 65677
" />
<path d="M3920 66724
L5944 66724
" />
<path d="M3920 65677
L5944 65677
" />
<path d="M3920 66724
L3920 65677
" />
<path d="M3420 66724
L2896 66724
" />
<path d="M2896 66724
L2896 66200
" />
<path d="M35312 50860
L36359 50860
" />
<path d="M35312 50836
L35312 50860
" />
<path d="M36359 50836
L36359 50860
" />
<path d="M35312 50836
L36359 50836
" />
<path d="M35312 50336
L35312 49812
" />
<path d="M35312 49812
L35835 49812
" />
<path d="M41705 36935
L40658 36935
" />
<path d="M41705 38958
L41705 36935
" />
<path d="M40658 38958
L40658 36935
" />
<path d="M41705 38958
L40658 38958
" />
<path d="M41705 39458
L41705 39982
" />
<path d="M41705 39982
L41182 39982
" />
<path d="M8646 47580
L9694 47580
" />
<path d="M8646 47557
L8646 47580
" />
<path d="M9694 47557
L9694 47580
" />
<path d="M8646 47557
L9694 47557
" />
<path d="M8646 47057
L8646 46533
" />
<path d="M8646 46533
L9170 46533
" />
<path d="M15556 53545
L15556 52498
" />
<path d="M13532 53545
L15556 53545
" />
<path d="M13532 52498
L15556 52498
" />
<path d="M13532 53545
L13532 52498
" />
<path d="M13032 53545
L12509 53545
" />
<path d="M12509 53545
L12509 53021
" />
<path d="M29839 44795
L29367 44795
" />
<path d="M29367 44102
L29839 44102
" />
<path d="M33682 46093
L33682 46565
" />
<path d="M32989 46565
L32989 46093
" />
<path d="M9489 62697
L9489 62224
" />
<path d="M10182 62224
L10182 62697
" />
<path d="M11331 62683
L11803 62683
" />
<path d="M11803 63375
L11331 63375
" />
<path d="M14231 64714
L14231 65187
" />
<path d="M13538 65187
L13538 64714
" />
<path d="M30969 61604
L31442 61604
" />
<path d="M31442 62297
L30969 62297
" />
<path d="M47898 49608
L47898 49135
" />
<path d="M48591 49135
L48591 49608
" />
<path d="M47863 45824
L47863 45352
" />
<path d="M48556 45352
L48556 45824
" />
<path d="M30969 62348
L31442 62348
" />
<path d="M31442 63041
L30969 63041
" />
<path d="M38623 60738
L38623 60265
" />
<path d="M39316 60265
L39316 60738
" />
<path d="M43056 43923
L43528 43923
" />
<path d="M43528 44616
L43056 44616
" />
<path d="M7735 50147
L7735 50620
" />
<path d="M7042 50620
L7042 50147
" />
<path d="M43060 42966
L43532 42966
" />
<path d="M43532 43659
L43060 43659
" />
<path d="M39997 50624
L39997 51096
" />
<path d="M39304 51096
L39304 50624
" />
<path d="M39036 50104
L39036 50576
" />
<path d="M38343 50576
L38343 50104
" />
<path d="M40493 52683
L40493 53155
" />
<path d="M39800 53155
L39800 52683
" />
<path d="M39544 52679
L39544 53151
" />
<path d="M38851 53151
L38851 52679
" />
<path d="M18731 51964
L19124 51964
" />
<path d="M19124 51294
L18731 51294
" />
<path d="M23335 62679
L22933 63077
" />
<path d="M24535 64577
L24535 64679
" />
<path d="M24535 64577
L24634 64577
" />
<path d="M24685 64329
L24685 64427
" />
<path d="M24685 64329
L24783 64329
" />
<path d="M24984 64628
L24685 64329
" />
<path d="M24835 64880
L24535 64577
" />
<path d="M22933 62829
L22933 64829
" />
<path d="M22962.1 64846.2 A1167.41 1167.41 0.0 1 0 22933.5 62829.5 " />
<path d="M21099 51005
L20627 51005
" />
<path d="M20627 50312
L21099 50312
" />
<path d="M19140 53775
L18668 53775
" />
<path d="M18668 53083
L19140 53083
" />
<path d="M4397 56161
L4397 54697
" />
<path d="M5074 56161
L5074 54697
" />
<path d="M23174 51243
L23174 51255
" />
<path d="M23174 53787
L23174 53775
" />
<path d="M20631 53787
L20631 53775
" />
<path d="M20631 51255
L20631 51243
" />
<path d="M23174 52003
L23174 53027
" />
<path d="M20631 51243
L23174 51243
" />
<path d="M20631 52003
L20631 53027
" />
<path d="M20631 53787
L23174 53787
" />
</g> 
</svg>
