M48
;DRILL file {KiCad 4.0.4-stable} date 09/22/17 06:06:09
;FORMAT={-:-/ absolute / metric / decimal}
FMAT,2
METRIC,TZ
T1C0.400
T2C0.700
T3C0.810
T4C0.813
T5C1.000
T6C1.320
T7C2.200
T8C2.300
%
G90
G05
M71
T1
X42.4Y-92.61
X66.62Y-166.41
X66.66Y-161.77
X66.7Y-94.68
X67.42Y-157.45
X72.55Y-154.75
X79.84Y-141.36
X84.35Y-126.6
X84.75Y-98.65
X85.359Y-131.064
X86.32Y-163.61
X87.76Y-152.12
X89.05Y-127.114
X89.45Y-111.65
X90.02Y-114.28
X90.218Y-130.278
X90.95Y-130.6
X91.65Y-131.45
X91.948Y-115.824
X92.1Y-119.55
X92.189Y-120.579
X92.373Y-130.534
X92.964Y-115.824
X93.843Y-127.114
X94.25Y-119.25
X94.473Y-131.672
X94.595Y-124.194
X95.58Y-93.6
X95.734Y-128.294
X95.85Y-111.325
X96.5Y-121.45
X97.282Y-115.824
X98.298Y-127.
X98.55Y-111.325
X99.35Y-121.4
X99.568Y-118.872
X100.25Y-126.07
X100.33Y-119.497
X100.84Y-98.23
X100.857Y-99.18
X102.499Y-123.296
X102.616Y-116.257
X102.616Y-128.27
X103.886Y-120.337
X104.01Y-119.547
X104.199Y-124.089
X104.72Y-99.22
X105.217Y-112.329
X106.251Y-111.295
X106.426Y-133.62
X107.211Y-112.685
X108.64Y-106.02
X109.982Y-106.934
X110.07Y-105.86
X110.236Y-107.95
X122.17Y-111.92
X124.25Y-98.42
X124.3Y-104.45
X125.51Y-134.31
X134.7Y-111.19
X142.54Y-113.29
T2
X34.036Y-138.176
X34.036Y-143.256
X81.788Y-160.782
X81.788Y-163.342
X115.99Y-127.76
X117.89Y-127.76
T3
X35.65Y-97.08
X35.65Y-99.62
X37.65Y-97.08
X37.65Y-99.62
T4
X53.725Y-138.07
X53.725Y-143.15
X61.5Y-138.06
X61.5Y-143.14
T5
X30.695Y-168.075
X33.235Y-168.075
X33.65Y-124.16
X33.65Y-126.7
X33.65Y-129.24
X33.65Y-131.78
X35.775Y-168.075
X45.3Y-119.45
X55.11Y-134.6
X57.65Y-134.6
X60.19Y-134.6
X66.025Y-102.235
X66.025Y-104.775
X76.93Y-95.94
X79.47Y-95.94
X82.01Y-95.94
X84.55Y-95.94
X87.09Y-95.94
X89.63Y-95.94
X98.41Y-147.15
X100.95Y-147.15
X102.41Y-93.54
X103.49Y-147.15
X104.95Y-93.54
X106.03Y-147.15
X108.57Y-147.15
X108.64Y-97.97
X108.64Y-100.51
X111.11Y-147.15
X113.03Y-127.78
X119.38Y-115.316
X119.38Y-117.856
X126.61Y-95.07
X126.61Y-97.61
X126.61Y-100.15
T6
X29.972Y-154.258
X29.972Y-159.258
T7
X30.59Y-110.18
X30.61Y-146.13
X91.05Y-150.15
X92.45Y-165.66
X132.35Y-147.74
X143.002Y-91.948
T8
X32.95Y-92.35
X32.95Y-104.35
T0
M30
