G04 #@! TF.FileFunction,Copper,L2,Bot,Signal*
%FSLAX46Y46*%
G04 Gerber Fmt 4.6, Leading zero omitted, Abs format (unit mm)*
G04 Created by KiCad (PCBNEW 4.0.4-stable) date 09/22/17 06:06:28*
%MOMM*%
%LPD*%
G01*
G04 APERTURE LIST*
%ADD10C,0.100000*%
%ADD11C,0.300000*%
%ADD12R,1.700000X1.700000*%
%ADD13O,1.700000X1.700000*%
%ADD14R,3.960000X1.980000*%
%ADD15O,3.960000X1.980000*%
%ADD16C,1.520000*%
%ADD17C,2.700000*%
%ADD18C,3.800000*%
%ADD19C,1.400000*%
%ADD20O,1.400000X1.400000*%
%ADD21R,1.905000X1.905000*%
%ADD22C,1.905000*%
%ADD23C,1.700000*%
%ADD24C,0.600000*%
%ADD25C,0.250000*%
%ADD26C,0.500000*%
%ADD27C,0.400000*%
%ADD28C,0.200000*%
%ADD29C,0.254000*%
G04 APERTURE END LIST*
D10*
D11*
X143201428Y-134980000D02*
X143344285Y-134908571D01*
X143558571Y-134908571D01*
X143772856Y-134980000D01*
X143915714Y-135122857D01*
X143987142Y-135265714D01*
X144058571Y-135551429D01*
X144058571Y-135765714D01*
X143987142Y-136051429D01*
X143915714Y-136194286D01*
X143772856Y-136337143D01*
X143558571Y-136408571D01*
X143415714Y-136408571D01*
X143201428Y-136337143D01*
X143129999Y-136265714D01*
X143129999Y-135765714D01*
X143415714Y-135765714D01*
X142487142Y-136408571D02*
X142487142Y-134908571D01*
X141915714Y-134908571D01*
X141772856Y-134980000D01*
X141701428Y-135051429D01*
X141629999Y-135194286D01*
X141629999Y-135408571D01*
X141701428Y-135551429D01*
X141772856Y-135622857D01*
X141915714Y-135694286D01*
X142487142Y-135694286D01*
X141058571Y-136337143D02*
X140844285Y-136408571D01*
X140487142Y-136408571D01*
X140344285Y-136337143D01*
X140272856Y-136265714D01*
X140201428Y-136122857D01*
X140201428Y-135980000D01*
X140272856Y-135837143D01*
X140344285Y-135765714D01*
X140487142Y-135694286D01*
X140772856Y-135622857D01*
X140915714Y-135551429D01*
X140987142Y-135480000D01*
X141058571Y-135337143D01*
X141058571Y-135194286D01*
X140987142Y-135051429D01*
X140915714Y-134980000D01*
X140772856Y-134908571D01*
X140415714Y-134908571D01*
X140201428Y-134980000D01*
X122634285Y-145622857D02*
X122419999Y-145694286D01*
X122348571Y-145765714D01*
X122277142Y-145908571D01*
X122277142Y-146122857D01*
X122348571Y-146265714D01*
X122419999Y-146337143D01*
X122562857Y-146408571D01*
X123134285Y-146408571D01*
X123134285Y-144908571D01*
X122634285Y-144908571D01*
X122491428Y-144980000D01*
X122419999Y-145051429D01*
X122348571Y-145194286D01*
X122348571Y-145337143D01*
X122419999Y-145480000D01*
X122491428Y-145551429D01*
X122634285Y-145622857D01*
X123134285Y-145622857D01*
X121848571Y-144908571D02*
X120991428Y-144908571D01*
X121419999Y-146408571D02*
X121419999Y-144908571D01*
X27798571Y-96277143D02*
X29012857Y-96277143D01*
X29155714Y-96348571D01*
X29227143Y-96420000D01*
X29298571Y-96562857D01*
X29298571Y-96848571D01*
X29227143Y-96991429D01*
X29155714Y-97062857D01*
X29012857Y-97134286D01*
X27798571Y-97134286D01*
X29227143Y-97777143D02*
X29298571Y-97991429D01*
X29298571Y-98348572D01*
X29227143Y-98491429D01*
X29155714Y-98562858D01*
X29012857Y-98634286D01*
X28870000Y-98634286D01*
X28727143Y-98562858D01*
X28655714Y-98491429D01*
X28584286Y-98348572D01*
X28512857Y-98062858D01*
X28441429Y-97920000D01*
X28370000Y-97848572D01*
X28227143Y-97777143D01*
X28084286Y-97777143D01*
X27941429Y-97848572D01*
X27870000Y-97920000D01*
X27798571Y-98062858D01*
X27798571Y-98420000D01*
X27870000Y-98634286D01*
X28512857Y-99777143D02*
X28584286Y-99991429D01*
X28655714Y-100062857D01*
X28798571Y-100134286D01*
X29012857Y-100134286D01*
X29155714Y-100062857D01*
X29227143Y-99991429D01*
X29298571Y-99848571D01*
X29298571Y-99277143D01*
X27798571Y-99277143D01*
X27798571Y-99777143D01*
X27870000Y-99920000D01*
X27941429Y-99991429D01*
X28084286Y-100062857D01*
X28227143Y-100062857D01*
X28370000Y-99991429D01*
X28441429Y-99920000D01*
X28512857Y-99777143D01*
X28512857Y-99277143D01*
X54224285Y-153148571D02*
X54224285Y-151648571D01*
X53652857Y-151648571D01*
X53509999Y-151720000D01*
X53438571Y-151791429D01*
X53367142Y-151934286D01*
X53367142Y-152148571D01*
X53438571Y-152291429D01*
X53509999Y-152362857D01*
X53652857Y-152434286D01*
X54224285Y-152434286D01*
X52509999Y-153148571D02*
X52652857Y-153077143D01*
X52724285Y-153005714D01*
X52795714Y-152862857D01*
X52795714Y-152434286D01*
X52724285Y-152291429D01*
X52652857Y-152220000D01*
X52509999Y-152148571D01*
X52295714Y-152148571D01*
X52152857Y-152220000D01*
X52081428Y-152291429D01*
X52009999Y-152434286D01*
X52009999Y-152862857D01*
X52081428Y-153005714D01*
X52152857Y-153077143D01*
X52295714Y-153148571D01*
X52509999Y-153148571D01*
X51509999Y-152148571D02*
X51224285Y-153148571D01*
X50938571Y-152434286D01*
X50652856Y-153148571D01*
X50367142Y-152148571D01*
X49224285Y-153077143D02*
X49367142Y-153148571D01*
X49652856Y-153148571D01*
X49795713Y-153077143D01*
X49867142Y-152934286D01*
X49867142Y-152362857D01*
X49795713Y-152220000D01*
X49652856Y-152148571D01*
X49367142Y-152148571D01*
X49224285Y-152220000D01*
X49152856Y-152362857D01*
X49152856Y-152505714D01*
X49867142Y-152648571D01*
X48509999Y-153148571D02*
X48509999Y-152148571D01*
X48509999Y-152434286D02*
X48438571Y-152291429D01*
X48367142Y-152220000D01*
X48224285Y-152148571D01*
X48081428Y-152148571D01*
X36584286Y-118020000D02*
X35870000Y-118020000D01*
X36727143Y-118448571D02*
X36227143Y-116948571D01*
X35727143Y-118448571D01*
X35227143Y-117448571D02*
X35227143Y-118448571D01*
X35227143Y-117591429D02*
X35155715Y-117520000D01*
X35012857Y-117448571D01*
X34798572Y-117448571D01*
X34655715Y-117520000D01*
X34584286Y-117662857D01*
X34584286Y-118448571D01*
X33227143Y-118448571D02*
X33227143Y-117662857D01*
X33298572Y-117520000D01*
X33441429Y-117448571D01*
X33727143Y-117448571D01*
X33870000Y-117520000D01*
X33227143Y-118377143D02*
X33370000Y-118448571D01*
X33727143Y-118448571D01*
X33870000Y-118377143D01*
X33941429Y-118234286D01*
X33941429Y-118091429D01*
X33870000Y-117948571D01*
X33727143Y-117877143D01*
X33370000Y-117877143D01*
X33227143Y-117805714D01*
X32298571Y-118448571D02*
X32441429Y-118377143D01*
X32512857Y-118234286D01*
X32512857Y-116948571D01*
X31512857Y-118448571D02*
X31655715Y-118377143D01*
X31727143Y-118305714D01*
X31798572Y-118162857D01*
X31798572Y-117734286D01*
X31727143Y-117591429D01*
X31655715Y-117520000D01*
X31512857Y-117448571D01*
X31298572Y-117448571D01*
X31155715Y-117520000D01*
X31084286Y-117591429D01*
X31012857Y-117734286D01*
X31012857Y-118162857D01*
X31084286Y-118305714D01*
X31155715Y-118377143D01*
X31298572Y-118448571D01*
X31512857Y-118448571D01*
X29727143Y-117448571D02*
X29727143Y-118662857D01*
X29798572Y-118805714D01*
X29870000Y-118877143D01*
X30012857Y-118948571D01*
X30227143Y-118948571D01*
X30370000Y-118877143D01*
X29727143Y-118377143D02*
X29870000Y-118448571D01*
X30155714Y-118448571D01*
X30298572Y-118377143D01*
X30370000Y-118305714D01*
X30441429Y-118162857D01*
X30441429Y-117734286D01*
X30370000Y-117591429D01*
X30298572Y-117520000D01*
X30155714Y-117448571D01*
X29870000Y-117448571D01*
X29727143Y-117520000D01*
X138015714Y-163047143D02*
X137872857Y-162618572D01*
X137872857Y-161904286D01*
X138015714Y-161618572D01*
X138158571Y-161475715D01*
X138444286Y-161332858D01*
X138730000Y-161332858D01*
X139015714Y-161475715D01*
X139158571Y-161618572D01*
X139301429Y-161904286D01*
X139444286Y-162475715D01*
X139587143Y-162761429D01*
X139730000Y-162904286D01*
X140015714Y-163047143D01*
X140301429Y-163047143D01*
X140587143Y-162904286D01*
X140730000Y-162761429D01*
X140872857Y-162475715D01*
X140872857Y-161761429D01*
X140730000Y-161332858D01*
X137872857Y-158761429D02*
X139444286Y-158761429D01*
X139730000Y-158904286D01*
X139872857Y-159190000D01*
X139872857Y-159761429D01*
X139730000Y-160047143D01*
X138015714Y-158761429D02*
X137872857Y-159047143D01*
X137872857Y-159761429D01*
X138015714Y-160047143D01*
X138301429Y-160190000D01*
X138587143Y-160190000D01*
X138872857Y-160047143D01*
X139015714Y-159761429D01*
X139015714Y-159047143D01*
X139158571Y-158761429D01*
X137872857Y-157332857D02*
X139872857Y-157332857D01*
X140872857Y-157332857D02*
X140730000Y-157475714D01*
X140587143Y-157332857D01*
X140730000Y-157190000D01*
X140872857Y-157332857D01*
X140587143Y-157332857D01*
X137872857Y-155475715D02*
X138015714Y-155761429D01*
X138301429Y-155904286D01*
X140872857Y-155904286D01*
X137872857Y-153904286D02*
X138015714Y-154190000D01*
X138158571Y-154332857D01*
X138444286Y-154475714D01*
X139301429Y-154475714D01*
X139587143Y-154332857D01*
X139730000Y-154190000D01*
X139872857Y-153904286D01*
X139872857Y-153475714D01*
X139730000Y-153190000D01*
X139587143Y-153047143D01*
X139301429Y-152904286D01*
X138444286Y-152904286D01*
X138158571Y-153047143D01*
X138015714Y-153190000D01*
X137872857Y-153475714D01*
X137872857Y-153904286D01*
X137872857Y-151618571D02*
X139872857Y-151618571D01*
X139301429Y-151618571D02*
X139587143Y-151475714D01*
X139730000Y-151332857D01*
X139872857Y-151047143D01*
X139872857Y-150761428D01*
X138730000Y-149904285D02*
X138730000Y-148475714D01*
X137872857Y-150190000D02*
X140872857Y-149190000D01*
X137872857Y-148190000D01*
X137872857Y-147189999D02*
X139872857Y-147189999D01*
X140872857Y-147189999D02*
X140730000Y-147332856D01*
X140587143Y-147189999D01*
X140730000Y-147047142D01*
X140872857Y-147189999D01*
X140587143Y-147189999D01*
X137872857Y-144475714D02*
X140872857Y-144475714D01*
X138015714Y-144475714D02*
X137872857Y-144761428D01*
X137872857Y-145332857D01*
X138015714Y-145618571D01*
X138158571Y-145761428D01*
X138444286Y-145904285D01*
X139301429Y-145904285D01*
X139587143Y-145761428D01*
X139730000Y-145618571D01*
X139872857Y-145332857D01*
X139872857Y-144761428D01*
X139730000Y-144475714D01*
D12*
X119380000Y-115316000D03*
D13*
X119380000Y-117856000D03*
D14*
X29972000Y-159258000D03*
D15*
X29972000Y-154258000D03*
D16*
X37650000Y-97080000D03*
X37650000Y-99620000D03*
X35650000Y-99620000D03*
X35650000Y-97080000D03*
D17*
X32950000Y-92350000D03*
X32950000Y-104350000D03*
D12*
X76930000Y-95940000D03*
D13*
X79470000Y-95940000D03*
X82010000Y-95940000D03*
X84550000Y-95940000D03*
X87090000Y-95940000D03*
X89630000Y-95940000D03*
D18*
X30590000Y-110180000D03*
X92450000Y-165660000D03*
X30610000Y-146130000D03*
X132350000Y-147740000D03*
X91050000Y-150150000D03*
X143002000Y-91948000D03*
D12*
X33650000Y-124160000D03*
D13*
X33650000Y-126700000D03*
X33650000Y-129240000D03*
X33650000Y-131780000D03*
D19*
X117890000Y-127760000D03*
D20*
X115990000Y-127760000D03*
D21*
X53725000Y-138070000D03*
D22*
X53725000Y-143150000D03*
D21*
X61500000Y-138060000D03*
D22*
X61500000Y-143140000D03*
D12*
X108640000Y-100510000D03*
D13*
X108640000Y-97970000D03*
D12*
X66025000Y-102235000D03*
D13*
X66025000Y-104775000D03*
D12*
X102410000Y-93540000D03*
D13*
X104950000Y-93540000D03*
D12*
X98410000Y-147150000D03*
D13*
X100950000Y-147150000D03*
X103490000Y-147150000D03*
X106030000Y-147150000D03*
X108570000Y-147150000D03*
X111110000Y-147150000D03*
D12*
X30695000Y-168075000D03*
D13*
X33235000Y-168075000D03*
X35775000Y-168075000D03*
D12*
X113030000Y-127780000D03*
X126610000Y-100150000D03*
D13*
X126610000Y-97610000D03*
X126610000Y-95070000D03*
D12*
X45300000Y-119450000D03*
X55110000Y-134600000D03*
D13*
X57650000Y-134600000D03*
X60190000Y-134600000D03*
D23*
X81788000Y-163342000D03*
D12*
X81788000Y-160782000D03*
D19*
X34036000Y-143256000D03*
D20*
X34036000Y-138176000D03*
D24*
X84750000Y-98650000D03*
X99350000Y-121400000D03*
X96500000Y-121450000D03*
X94250000Y-119250000D03*
X89450000Y-111650000D03*
X84350000Y-126600000D03*
X124300000Y-104450000D03*
X94472647Y-131672151D03*
X106426000Y-133620000D03*
X107211244Y-112685009D03*
X79840000Y-141360000D03*
X87760000Y-152120000D03*
X86320000Y-163610000D03*
X42400000Y-92610000D03*
X66700000Y-94680000D03*
X95580000Y-93600000D03*
X122170000Y-111920000D03*
X66660000Y-161770000D03*
X67420000Y-157450000D03*
X66620000Y-166410000D03*
X72550000Y-154750000D03*
X124250000Y-98420000D03*
X89050000Y-127113712D03*
X93843010Y-127113712D03*
X102616000Y-116257000D03*
X142540000Y-113290000D03*
X134700000Y-111190000D03*
X125510000Y-134310000D03*
X100840000Y-98230000D03*
X104720000Y-99220000D03*
X100250000Y-126070000D03*
X90020000Y-114280000D03*
X98550000Y-111325000D03*
X102498990Y-123295658D03*
X98298000Y-127000000D03*
X95850000Y-111325000D03*
X91650000Y-131450000D03*
X91948000Y-115824000D03*
X92372652Y-130534181D03*
X92964000Y-115824000D03*
X95734252Y-128293748D03*
X102616000Y-128270000D03*
X100330000Y-119497010D03*
X103886000Y-120336979D03*
X110070000Y-105860000D03*
X99568000Y-118872000D03*
X104009741Y-119546595D03*
X108640000Y-106020000D03*
X109982000Y-106934000D03*
X100857498Y-99180000D03*
X110236000Y-107950000D03*
X90217673Y-130277950D03*
X92100000Y-119550000D03*
X92188979Y-120578731D03*
X90950000Y-130600000D03*
X104199021Y-124088990D03*
X85358682Y-131064000D03*
X97282000Y-115824000D03*
X105216949Y-112328949D03*
X106250954Y-111294945D03*
X94595412Y-124194010D03*
D25*
X82010000Y-95940000D02*
X84720000Y-98650000D01*
X84720000Y-98650000D02*
X84750000Y-98650000D01*
D11*
X93250000Y-114200000D02*
X94250000Y-115200000D01*
X94250000Y-115200000D02*
X94250000Y-119250000D01*
X92000000Y-114200000D02*
X93250000Y-114200000D01*
X89450000Y-111650000D02*
X92000000Y-114200000D01*
D25*
X84350000Y-126600000D02*
X84350000Y-131850000D01*
X84350000Y-131850000D02*
X85143599Y-132643599D01*
X85143599Y-132643599D02*
X93501199Y-132643599D01*
X93501199Y-132643599D02*
X94472647Y-131672151D01*
X124250000Y-98420000D02*
X124250000Y-104400000D01*
X124250000Y-104400000D02*
X124300000Y-104450000D01*
X105948002Y-133142002D02*
X105948002Y-131705002D01*
X105948002Y-131705002D02*
X116166002Y-121487002D01*
X105948002Y-133142002D02*
X106426000Y-133620000D01*
X122170000Y-121487002D02*
X122469999Y-121187003D01*
X122469999Y-112219999D02*
X122170000Y-111920000D01*
X116166002Y-121487002D02*
X122170000Y-121487002D01*
X122469999Y-121187003D02*
X122469999Y-112219999D01*
D11*
X87760000Y-149280000D02*
X79840000Y-141360000D01*
X87760000Y-152120000D02*
X87760000Y-149280000D01*
X86010000Y-163920000D02*
X86320000Y-163610000D01*
X83520000Y-166410000D02*
X86010000Y-163920000D01*
X86010000Y-163920000D02*
X86010000Y-153870000D01*
X86010000Y-153870000D02*
X87760000Y-152120000D01*
X66620000Y-166410000D02*
X83520000Y-166410000D01*
D25*
X66700000Y-94680000D02*
X44470000Y-94680000D01*
X44470000Y-94680000D02*
X42400000Y-92610000D01*
X95580000Y-93600000D02*
X67780000Y-93600000D01*
X67780000Y-93600000D02*
X66700000Y-94680000D01*
X129970000Y-90180000D02*
X99000000Y-90180000D01*
X99000000Y-90180000D02*
X95580000Y-93600000D01*
X131860000Y-92070000D02*
X129970000Y-90180000D01*
X131860000Y-102230000D02*
X131860000Y-92070000D01*
X122170000Y-111920000D02*
X131860000Y-102230000D01*
D11*
X67420000Y-157450000D02*
X67420000Y-161010000D01*
X67420000Y-161010000D02*
X66660000Y-161770000D01*
X72550000Y-154750000D02*
X70120000Y-154750000D01*
X70120000Y-154750000D02*
X67420000Y-157450000D01*
X68042000Y-159258000D02*
X68042000Y-164988000D01*
X68042000Y-164988000D02*
X66620000Y-166410000D01*
X29972000Y-159258000D02*
X68042000Y-159258000D01*
X68042000Y-159258000D02*
X72550000Y-154750000D01*
X89349999Y-126813713D02*
X89050000Y-127113712D01*
X90020000Y-126143712D02*
X89349999Y-126813713D01*
X90020000Y-114280000D02*
X90020000Y-126143712D01*
D26*
X100250000Y-127208411D02*
X100250000Y-126070000D01*
X99246402Y-128212009D02*
X100250000Y-127208411D01*
X97349599Y-128212009D02*
X99246402Y-128212009D01*
X95504000Y-126300002D02*
X95504000Y-126366410D01*
X95504000Y-126366410D02*
X97349599Y-128212009D01*
X95504000Y-123952000D02*
X95504000Y-126300002D01*
D25*
X95504000Y-126366410D02*
X95537204Y-126333206D01*
D26*
X95504000Y-126300002D02*
X95537204Y-126333206D01*
X94996000Y-123444000D02*
X95504000Y-123952000D01*
X94073056Y-123444000D02*
X94996000Y-123444000D01*
X93843010Y-123674046D02*
X94073056Y-123444000D01*
X93843010Y-127113712D02*
X93843010Y-123674046D01*
D25*
X100674264Y-126070000D02*
X103124000Y-123620264D01*
X103124000Y-123620264D02*
X103124000Y-123009532D01*
X100250000Y-126070000D02*
X100674264Y-126070000D01*
X102915999Y-116556999D02*
X102616000Y-116257000D01*
X105134754Y-118775754D02*
X102915999Y-116556999D01*
X103124000Y-123009532D02*
X105134754Y-120998778D01*
X105134754Y-120998778D02*
X105134754Y-118775754D01*
X102630000Y-115670000D02*
X102630000Y-116243000D01*
X102630000Y-116243000D02*
X102616000Y-116257000D01*
D27*
X142540000Y-113290000D02*
X140440000Y-111190000D01*
X140440000Y-111190000D02*
X134700000Y-111190000D01*
X135390000Y-134380000D02*
X142540000Y-127230000D01*
X142540000Y-127230000D02*
X142540000Y-113290000D01*
X126004264Y-134380000D02*
X135390000Y-134380000D01*
X125510000Y-134310000D02*
X125934264Y-134310000D01*
X125934264Y-134310000D02*
X126004264Y-134380000D01*
D11*
X98550000Y-111325000D02*
X102630000Y-115405000D01*
X102630000Y-115405000D02*
X102630000Y-115670000D01*
X98550000Y-111325000D02*
X98550000Y-105390000D01*
X98550000Y-105390000D02*
X104720000Y-99220000D01*
X101830000Y-99220000D02*
X100840000Y-98230000D01*
X104720000Y-99220000D02*
X101830000Y-99220000D01*
D25*
X89980000Y-114320000D02*
X90020000Y-114280000D01*
D11*
X101164989Y-117634989D02*
X103060139Y-117634989D01*
X102498990Y-122871394D02*
X102498990Y-123295658D01*
X104659743Y-120710641D02*
X102498990Y-122871394D01*
X79470000Y-95940000D02*
X101164989Y-117634989D01*
X104659743Y-119234593D02*
X104659743Y-120710641D01*
X103060139Y-117634989D02*
X104659743Y-119234593D01*
D25*
X83098000Y-94488000D02*
X83700001Y-95090001D01*
X78740000Y-94488000D02*
X83098000Y-94488000D01*
X78105001Y-96901001D02*
X78105001Y-95122999D01*
X83700001Y-95090001D02*
X84550000Y-95940000D01*
X78486000Y-97282000D02*
X78105001Y-96901001D01*
X79756000Y-97282000D02*
X78486000Y-97282000D01*
X78105001Y-95122999D02*
X78740000Y-94488000D01*
X98298000Y-115824000D02*
X79756000Y-97282000D01*
X98298000Y-127000000D02*
X98298000Y-115824000D01*
D11*
X95850000Y-111325000D02*
X95850000Y-110892878D01*
X87090000Y-102132878D02*
X87090000Y-95940000D01*
X95850000Y-110892878D02*
X87090000Y-102132878D01*
D25*
X91650000Y-130989736D02*
X91650000Y-131450000D01*
X91650000Y-126463590D02*
X91922641Y-126190949D01*
X91650000Y-130989736D02*
X91650000Y-126463590D01*
X91922641Y-121771615D02*
X92313608Y-121380649D01*
X91922641Y-126190949D02*
X91922641Y-121771615D01*
X92313608Y-121380649D02*
X92813989Y-120880268D01*
X92813989Y-120880268D02*
X92813989Y-116689989D01*
X92813989Y-116689989D02*
X91948000Y-115824000D01*
X92813989Y-120880268D02*
X92813989Y-120855484D01*
D28*
X92838773Y-120855484D02*
X92813989Y-120855484D01*
D25*
X92372652Y-130534181D02*
X92372652Y-121958015D01*
X92372652Y-121958015D02*
X93288782Y-121041885D01*
X93288782Y-116148782D02*
X92964000Y-115824000D01*
X93288782Y-121041885D02*
X93288782Y-116148782D01*
X102616000Y-128270000D02*
X101648970Y-129237030D01*
X101648970Y-129237030D02*
X96677534Y-129237030D01*
X96034251Y-128593747D02*
X95734252Y-128293748D01*
X96677534Y-129237030D02*
X96034251Y-128593747D01*
X100754264Y-119497010D02*
X100330000Y-119497010D01*
X103046031Y-119497010D02*
X100754264Y-119497010D01*
X103886000Y-120336979D02*
X103046031Y-119497010D01*
D11*
X110070000Y-99400000D02*
X110070000Y-105860000D01*
X110070000Y-99400000D02*
X108640000Y-97970000D01*
D25*
X103335146Y-118872000D02*
X99568000Y-118872000D01*
X104009741Y-119546595D02*
X103335146Y-118872000D01*
D11*
X108640000Y-100510000D02*
X108640000Y-106020000D01*
D25*
X106934000Y-101600000D02*
X106934000Y-99164000D01*
X106934000Y-99164000D02*
X102410000Y-94640000D01*
X102410000Y-94640000D02*
X102410000Y-93540000D01*
X107950000Y-102616000D02*
X106934000Y-101600000D01*
X107950000Y-106426000D02*
X107950000Y-102616000D01*
X108458000Y-106934000D02*
X107950000Y-106426000D01*
X109982000Y-106934000D02*
X108458000Y-106934000D01*
X100100000Y-97560000D02*
X102410000Y-95250000D01*
X102410000Y-95250000D02*
X102410000Y-93540000D01*
X100100000Y-98846766D02*
X100100000Y-97560000D01*
X100857498Y-99180000D02*
X100433234Y-99180000D01*
X100433234Y-99180000D02*
X100100000Y-98846766D01*
X110744000Y-107442000D02*
X110236000Y-107950000D01*
X110744000Y-98334998D02*
X110744000Y-107442000D01*
X104950000Y-93540000D02*
X105799999Y-94389999D01*
X105799999Y-94389999D02*
X106799001Y-94389999D01*
X106799001Y-94389999D02*
X110744000Y-98334998D01*
X91022619Y-125818149D02*
X90217673Y-126623095D01*
X91022619Y-120627381D02*
X91022619Y-125818149D01*
X92100000Y-119550000D02*
X91022619Y-120627381D01*
X90217673Y-126623095D02*
X90217673Y-129853686D01*
X90217673Y-129853686D02*
X90217673Y-130277950D01*
X91888980Y-120878730D02*
X92188979Y-120578731D01*
X91472630Y-121295080D02*
X91888980Y-120878730D01*
X91472630Y-126004549D02*
X91472630Y-121295080D01*
X90950000Y-130600000D02*
X90950000Y-126527179D01*
X90950000Y-126527179D02*
X91472630Y-126004549D01*
X104199021Y-145238898D02*
X104199021Y-124088990D01*
X103490000Y-145947919D02*
X104199021Y-145238898D01*
X103490000Y-147150000D02*
X103490000Y-145947919D01*
X92102159Y-132137104D02*
X86431786Y-132137104D01*
X92997654Y-131241609D02*
X92102159Y-132137104D01*
X92997654Y-121969423D02*
X92997654Y-131241609D01*
X97282000Y-117685077D02*
X92997654Y-121969423D01*
X85658681Y-131363999D02*
X85358682Y-131064000D01*
X86431786Y-132137104D02*
X85658681Y-131363999D01*
X97282000Y-115824000D02*
X97282000Y-117685077D01*
X128270000Y-104648000D02*
X120889050Y-112028950D01*
X128270000Y-99270000D02*
X128270000Y-104648000D01*
X126610000Y-97610000D02*
X128270000Y-99270000D01*
X105516948Y-112028950D02*
X105216949Y-112328949D01*
X120889050Y-112028950D02*
X105516948Y-112028950D01*
X120861055Y-111294945D02*
X106675218Y-111294945D01*
X126610000Y-105546000D02*
X120861055Y-111294945D01*
X126610000Y-100150000D02*
X126610000Y-105546000D01*
X106675218Y-111294945D02*
X106250954Y-111294945D01*
X94595412Y-126271010D02*
X94595412Y-124194010D01*
X97111421Y-128787019D02*
X94595412Y-126271010D01*
X103574011Y-113087989D02*
X105584765Y-115098743D01*
X103574011Y-125787989D02*
X100574981Y-128787019D01*
X100574981Y-128787019D02*
X97111421Y-128787019D01*
X106172000Y-110490000D02*
X103574011Y-113087989D01*
X111190000Y-110490000D02*
X106172000Y-110490000D01*
X126610000Y-95070000D02*
X111190000Y-110490000D01*
X103574011Y-123195932D02*
X103574011Y-125787989D01*
X105584765Y-115098743D02*
X105584765Y-121185178D01*
X105584765Y-121185178D02*
X103574011Y-123195932D01*
D29*
G36*
X64993000Y-116226995D02*
X64993000Y-119330000D01*
X65003006Y-119379410D01*
X65031447Y-119421035D01*
X65073841Y-119448315D01*
X65120000Y-119457000D01*
X89235000Y-119457000D01*
X89235000Y-121132177D01*
X65119943Y-121143000D01*
X65070537Y-121153028D01*
X65028926Y-121181487D01*
X65001665Y-121223894D01*
X64993000Y-121270033D01*
X64997967Y-140246637D01*
X29002000Y-140246637D01*
X29002000Y-138509331D01*
X32743273Y-138509331D01*
X32969236Y-138978663D01*
X33357604Y-139325797D01*
X33702671Y-139468716D01*
X33909000Y-139345374D01*
X33909000Y-138303000D01*
X34163000Y-138303000D01*
X34163000Y-139345374D01*
X34369329Y-139468716D01*
X34714396Y-139325797D01*
X35102764Y-138978663D01*
X35328727Y-138509331D01*
X35206206Y-138303000D01*
X34163000Y-138303000D01*
X33909000Y-138303000D01*
X32865794Y-138303000D01*
X32743273Y-138509331D01*
X29002000Y-138509331D01*
X29002000Y-137842669D01*
X32743273Y-137842669D01*
X32865794Y-138049000D01*
X33909000Y-138049000D01*
X33909000Y-137006626D01*
X34163000Y-137006626D01*
X34163000Y-138049000D01*
X35206206Y-138049000D01*
X35328727Y-137842669D01*
X35102764Y-137373337D01*
X34816538Y-137117500D01*
X52125060Y-137117500D01*
X52125060Y-139022500D01*
X52169338Y-139257817D01*
X52308410Y-139473941D01*
X52520610Y-139618931D01*
X52772500Y-139669940D01*
X54677500Y-139669940D01*
X54912817Y-139625662D01*
X55128941Y-139486590D01*
X55273931Y-139274390D01*
X55324940Y-139022500D01*
X55324940Y-137117500D01*
X55323059Y-137107500D01*
X59900060Y-137107500D01*
X59900060Y-139012500D01*
X59944338Y-139247817D01*
X60083410Y-139463941D01*
X60295610Y-139608931D01*
X60547500Y-139659940D01*
X62452500Y-139659940D01*
X62687817Y-139615662D01*
X62903941Y-139476590D01*
X63048931Y-139264390D01*
X63099940Y-139012500D01*
X63099940Y-137107500D01*
X63055662Y-136872183D01*
X62916590Y-136656059D01*
X62704390Y-136511069D01*
X62452500Y-136460060D01*
X60547500Y-136460060D01*
X60312183Y-136504338D01*
X60096059Y-136643410D01*
X59951069Y-136855610D01*
X59900060Y-137107500D01*
X55323059Y-137107500D01*
X55280662Y-136882183D01*
X55141590Y-136666059D01*
X54929390Y-136521069D01*
X54677500Y-136470060D01*
X52772500Y-136470060D01*
X52537183Y-136514338D01*
X52321059Y-136653410D01*
X52176069Y-136865610D01*
X52125060Y-137117500D01*
X34816538Y-137117500D01*
X34714396Y-137026203D01*
X34369329Y-136883284D01*
X34163000Y-137006626D01*
X33909000Y-137006626D01*
X33702671Y-136883284D01*
X33357604Y-137026203D01*
X32969236Y-137373337D01*
X32743273Y-137842669D01*
X29002000Y-137842669D01*
X29002000Y-133750000D01*
X53612560Y-133750000D01*
X53612560Y-135450000D01*
X53656838Y-135685317D01*
X53795910Y-135901441D01*
X54008110Y-136046431D01*
X54260000Y-136097440D01*
X55960000Y-136097440D01*
X56195317Y-136053162D01*
X56411441Y-135914090D01*
X56556431Y-135701890D01*
X56578301Y-135593893D01*
X56883076Y-135871645D01*
X57293110Y-136041476D01*
X57523000Y-135920155D01*
X57523000Y-134727000D01*
X57503000Y-134727000D01*
X57503000Y-134473000D01*
X57523000Y-134473000D01*
X57523000Y-133279845D01*
X57777000Y-133279845D01*
X57777000Y-134473000D01*
X57797000Y-134473000D01*
X57797000Y-134727000D01*
X57777000Y-134727000D01*
X57777000Y-135920155D01*
X58006890Y-136041476D01*
X58416924Y-135871645D01*
X58845183Y-135481358D01*
X58912298Y-135338447D01*
X59139946Y-135679147D01*
X59621715Y-136001054D01*
X60190000Y-136114093D01*
X60758285Y-136001054D01*
X61240054Y-135679147D01*
X61561961Y-135197378D01*
X61675000Y-134629093D01*
X61675000Y-134570907D01*
X61561961Y-134002622D01*
X61240054Y-133520853D01*
X60758285Y-133198946D01*
X60190000Y-133085907D01*
X59621715Y-133198946D01*
X59139946Y-133520853D01*
X58912298Y-133861553D01*
X58845183Y-133718642D01*
X58416924Y-133328355D01*
X58006890Y-133158524D01*
X57777000Y-133279845D01*
X57523000Y-133279845D01*
X57293110Y-133158524D01*
X56883076Y-133328355D01*
X56580063Y-133604501D01*
X56563162Y-133514683D01*
X56424090Y-133298559D01*
X56211890Y-133153569D01*
X55960000Y-133102560D01*
X54260000Y-133102560D01*
X54024683Y-133146838D01*
X53808559Y-133285910D01*
X53663569Y-133498110D01*
X53612560Y-133750000D01*
X29002000Y-133750000D01*
X29002000Y-126700000D01*
X32135907Y-126700000D01*
X32248946Y-127268285D01*
X32570853Y-127750054D01*
X32900026Y-127970000D01*
X32570853Y-128189946D01*
X32248946Y-128671715D01*
X32135907Y-129240000D01*
X32248946Y-129808285D01*
X32570853Y-130290054D01*
X32900026Y-130510000D01*
X32570853Y-130729946D01*
X32248946Y-131211715D01*
X32135907Y-131780000D01*
X32248946Y-132348285D01*
X32570853Y-132830054D01*
X33052622Y-133151961D01*
X33620907Y-133265000D01*
X33679093Y-133265000D01*
X34247378Y-133151961D01*
X34729147Y-132830054D01*
X35051054Y-132348285D01*
X35164093Y-131780000D01*
X35051054Y-131211715D01*
X34729147Y-130729946D01*
X34399974Y-130510000D01*
X34729147Y-130290054D01*
X35051054Y-129808285D01*
X35164093Y-129240000D01*
X35051054Y-128671715D01*
X34729147Y-128189946D01*
X34399974Y-127970000D01*
X34729147Y-127750054D01*
X35051054Y-127268285D01*
X35164093Y-126700000D01*
X35051054Y-126131715D01*
X34729147Y-125649946D01*
X34685223Y-125620597D01*
X34859698Y-125548327D01*
X35038327Y-125369699D01*
X35135000Y-125136310D01*
X35135000Y-124445750D01*
X34976250Y-124287000D01*
X33777000Y-124287000D01*
X33777000Y-124307000D01*
X33523000Y-124307000D01*
X33523000Y-124287000D01*
X32323750Y-124287000D01*
X32165000Y-124445750D01*
X32165000Y-125136310D01*
X32261673Y-125369699D01*
X32440302Y-125548327D01*
X32614777Y-125620597D01*
X32570853Y-125649946D01*
X32248946Y-126131715D01*
X32135907Y-126700000D01*
X29002000Y-126700000D01*
X29002000Y-123183690D01*
X32165000Y-123183690D01*
X32165000Y-123874250D01*
X32323750Y-124033000D01*
X33523000Y-124033000D01*
X33523000Y-122833750D01*
X33777000Y-122833750D01*
X33777000Y-124033000D01*
X34976250Y-124033000D01*
X35135000Y-123874250D01*
X35135000Y-123183690D01*
X35038327Y-122950301D01*
X34859698Y-122771673D01*
X34626309Y-122675000D01*
X33935750Y-122675000D01*
X33777000Y-122833750D01*
X33523000Y-122833750D01*
X33364250Y-122675000D01*
X32673691Y-122675000D01*
X32440302Y-122771673D01*
X32261673Y-122950301D01*
X32165000Y-123183690D01*
X29002000Y-123183690D01*
X29002000Y-119755000D01*
X37505000Y-119755000D01*
X37505000Y-118600000D01*
X43802560Y-118600000D01*
X43802560Y-120300000D01*
X43846838Y-120535317D01*
X43985910Y-120751441D01*
X44198110Y-120896431D01*
X44450000Y-120947440D01*
X46150000Y-120947440D01*
X46385317Y-120903162D01*
X46601441Y-120764090D01*
X46746431Y-120551890D01*
X46797440Y-120300000D01*
X46797440Y-118600000D01*
X46753162Y-118364683D01*
X46614090Y-118148559D01*
X46401890Y-118003569D01*
X46150000Y-117952560D01*
X44450000Y-117952560D01*
X44214683Y-117996838D01*
X43998559Y-118135910D01*
X43853569Y-118348110D01*
X43802560Y-118600000D01*
X37505000Y-118600000D01*
X37505000Y-116225962D01*
X64993000Y-116226995D01*
X64993000Y-116226995D01*
G37*
X64993000Y-116226995D02*
X64993000Y-119330000D01*
X65003006Y-119379410D01*
X65031447Y-119421035D01*
X65073841Y-119448315D01*
X65120000Y-119457000D01*
X89235000Y-119457000D01*
X89235000Y-121132177D01*
X65119943Y-121143000D01*
X65070537Y-121153028D01*
X65028926Y-121181487D01*
X65001665Y-121223894D01*
X64993000Y-121270033D01*
X64997967Y-140246637D01*
X29002000Y-140246637D01*
X29002000Y-138509331D01*
X32743273Y-138509331D01*
X32969236Y-138978663D01*
X33357604Y-139325797D01*
X33702671Y-139468716D01*
X33909000Y-139345374D01*
X33909000Y-138303000D01*
X34163000Y-138303000D01*
X34163000Y-139345374D01*
X34369329Y-139468716D01*
X34714396Y-139325797D01*
X35102764Y-138978663D01*
X35328727Y-138509331D01*
X35206206Y-138303000D01*
X34163000Y-138303000D01*
X33909000Y-138303000D01*
X32865794Y-138303000D01*
X32743273Y-138509331D01*
X29002000Y-138509331D01*
X29002000Y-137842669D01*
X32743273Y-137842669D01*
X32865794Y-138049000D01*
X33909000Y-138049000D01*
X33909000Y-137006626D01*
X34163000Y-137006626D01*
X34163000Y-138049000D01*
X35206206Y-138049000D01*
X35328727Y-137842669D01*
X35102764Y-137373337D01*
X34816538Y-137117500D01*
X52125060Y-137117500D01*
X52125060Y-139022500D01*
X52169338Y-139257817D01*
X52308410Y-139473941D01*
X52520610Y-139618931D01*
X52772500Y-139669940D01*
X54677500Y-139669940D01*
X54912817Y-139625662D01*
X55128941Y-139486590D01*
X55273931Y-139274390D01*
X55324940Y-139022500D01*
X55324940Y-137117500D01*
X55323059Y-137107500D01*
X59900060Y-137107500D01*
X59900060Y-139012500D01*
X59944338Y-139247817D01*
X60083410Y-139463941D01*
X60295610Y-139608931D01*
X60547500Y-139659940D01*
X62452500Y-139659940D01*
X62687817Y-139615662D01*
X62903941Y-139476590D01*
X63048931Y-139264390D01*
X63099940Y-139012500D01*
X63099940Y-137107500D01*
X63055662Y-136872183D01*
X62916590Y-136656059D01*
X62704390Y-136511069D01*
X62452500Y-136460060D01*
X60547500Y-136460060D01*
X60312183Y-136504338D01*
X60096059Y-136643410D01*
X59951069Y-136855610D01*
X59900060Y-137107500D01*
X55323059Y-137107500D01*
X55280662Y-136882183D01*
X55141590Y-136666059D01*
X54929390Y-136521069D01*
X54677500Y-136470060D01*
X52772500Y-136470060D01*
X52537183Y-136514338D01*
X52321059Y-136653410D01*
X52176069Y-136865610D01*
X52125060Y-137117500D01*
X34816538Y-137117500D01*
X34714396Y-137026203D01*
X34369329Y-136883284D01*
X34163000Y-137006626D01*
X33909000Y-137006626D01*
X33702671Y-136883284D01*
X33357604Y-137026203D01*
X32969236Y-137373337D01*
X32743273Y-137842669D01*
X29002000Y-137842669D01*
X29002000Y-133750000D01*
X53612560Y-133750000D01*
X53612560Y-135450000D01*
X53656838Y-135685317D01*
X53795910Y-135901441D01*
X54008110Y-136046431D01*
X54260000Y-136097440D01*
X55960000Y-136097440D01*
X56195317Y-136053162D01*
X56411441Y-135914090D01*
X56556431Y-135701890D01*
X56578301Y-135593893D01*
X56883076Y-135871645D01*
X57293110Y-136041476D01*
X57523000Y-135920155D01*
X57523000Y-134727000D01*
X57503000Y-134727000D01*
X57503000Y-134473000D01*
X57523000Y-134473000D01*
X57523000Y-133279845D01*
X57777000Y-133279845D01*
X57777000Y-134473000D01*
X57797000Y-134473000D01*
X57797000Y-134727000D01*
X57777000Y-134727000D01*
X57777000Y-135920155D01*
X58006890Y-136041476D01*
X58416924Y-135871645D01*
X58845183Y-135481358D01*
X58912298Y-135338447D01*
X59139946Y-135679147D01*
X59621715Y-136001054D01*
X60190000Y-136114093D01*
X60758285Y-136001054D01*
X61240054Y-135679147D01*
X61561961Y-135197378D01*
X61675000Y-134629093D01*
X61675000Y-134570907D01*
X61561961Y-134002622D01*
X61240054Y-133520853D01*
X60758285Y-133198946D01*
X60190000Y-133085907D01*
X59621715Y-133198946D01*
X59139946Y-133520853D01*
X58912298Y-133861553D01*
X58845183Y-133718642D01*
X58416924Y-133328355D01*
X58006890Y-133158524D01*
X57777000Y-133279845D01*
X57523000Y-133279845D01*
X57293110Y-133158524D01*
X56883076Y-133328355D01*
X56580063Y-133604501D01*
X56563162Y-133514683D01*
X56424090Y-133298559D01*
X56211890Y-133153569D01*
X55960000Y-133102560D01*
X54260000Y-133102560D01*
X54024683Y-133146838D01*
X53808559Y-133285910D01*
X53663569Y-133498110D01*
X53612560Y-133750000D01*
X29002000Y-133750000D01*
X29002000Y-126700000D01*
X32135907Y-126700000D01*
X32248946Y-127268285D01*
X32570853Y-127750054D01*
X32900026Y-127970000D01*
X32570853Y-128189946D01*
X32248946Y-128671715D01*
X32135907Y-129240000D01*
X32248946Y-129808285D01*
X32570853Y-130290054D01*
X32900026Y-130510000D01*
X32570853Y-130729946D01*
X32248946Y-131211715D01*
X32135907Y-131780000D01*
X32248946Y-132348285D01*
X32570853Y-132830054D01*
X33052622Y-133151961D01*
X33620907Y-133265000D01*
X33679093Y-133265000D01*
X34247378Y-133151961D01*
X34729147Y-132830054D01*
X35051054Y-132348285D01*
X35164093Y-131780000D01*
X35051054Y-131211715D01*
X34729147Y-130729946D01*
X34399974Y-130510000D01*
X34729147Y-130290054D01*
X35051054Y-129808285D01*
X35164093Y-129240000D01*
X35051054Y-128671715D01*
X34729147Y-128189946D01*
X34399974Y-127970000D01*
X34729147Y-127750054D01*
X35051054Y-127268285D01*
X35164093Y-126700000D01*
X35051054Y-126131715D01*
X34729147Y-125649946D01*
X34685223Y-125620597D01*
X34859698Y-125548327D01*
X35038327Y-125369699D01*
X35135000Y-125136310D01*
X35135000Y-124445750D01*
X34976250Y-124287000D01*
X33777000Y-124287000D01*
X33777000Y-124307000D01*
X33523000Y-124307000D01*
X33523000Y-124287000D01*
X32323750Y-124287000D01*
X32165000Y-124445750D01*
X32165000Y-125136310D01*
X32261673Y-125369699D01*
X32440302Y-125548327D01*
X32614777Y-125620597D01*
X32570853Y-125649946D01*
X32248946Y-126131715D01*
X32135907Y-126700000D01*
X29002000Y-126700000D01*
X29002000Y-123183690D01*
X32165000Y-123183690D01*
X32165000Y-123874250D01*
X32323750Y-124033000D01*
X33523000Y-124033000D01*
X33523000Y-122833750D01*
X33777000Y-122833750D01*
X33777000Y-124033000D01*
X34976250Y-124033000D01*
X35135000Y-123874250D01*
X35135000Y-123183690D01*
X35038327Y-122950301D01*
X34859698Y-122771673D01*
X34626309Y-122675000D01*
X33935750Y-122675000D01*
X33777000Y-122833750D01*
X33523000Y-122833750D01*
X33364250Y-122675000D01*
X32673691Y-122675000D01*
X32440302Y-122771673D01*
X32261673Y-122950301D01*
X32165000Y-123183690D01*
X29002000Y-123183690D01*
X29002000Y-119755000D01*
X37505000Y-119755000D01*
X37505000Y-118600000D01*
X43802560Y-118600000D01*
X43802560Y-120300000D01*
X43846838Y-120535317D01*
X43985910Y-120751441D01*
X44198110Y-120896431D01*
X44450000Y-120947440D01*
X46150000Y-120947440D01*
X46385317Y-120903162D01*
X46601441Y-120764090D01*
X46746431Y-120551890D01*
X46797440Y-120300000D01*
X46797440Y-118600000D01*
X46753162Y-118364683D01*
X46614090Y-118148559D01*
X46401890Y-118003569D01*
X46150000Y-117952560D01*
X44450000Y-117952560D01*
X44214683Y-117996838D01*
X43998559Y-118135910D01*
X43853569Y-118348110D01*
X43802560Y-118600000D01*
X37505000Y-118600000D01*
X37505000Y-116225962D01*
X64993000Y-116226995D01*
G36*
X146864000Y-169978000D02*
X25185000Y-169978000D01*
X25185000Y-167225000D01*
X29197560Y-167225000D01*
X29197560Y-168925000D01*
X29241838Y-169160317D01*
X29380910Y-169376441D01*
X29593110Y-169521431D01*
X29845000Y-169572440D01*
X31545000Y-169572440D01*
X31780317Y-169528162D01*
X31996441Y-169389090D01*
X32141431Y-169176890D01*
X32163301Y-169068893D01*
X32468076Y-169346645D01*
X32878110Y-169516476D01*
X33108000Y-169395155D01*
X33108000Y-168202000D01*
X33088000Y-168202000D01*
X33088000Y-167948000D01*
X33108000Y-167948000D01*
X33108000Y-166754845D01*
X33362000Y-166754845D01*
X33362000Y-167948000D01*
X33382000Y-167948000D01*
X33382000Y-168202000D01*
X33362000Y-168202000D01*
X33362000Y-169395155D01*
X33591890Y-169516476D01*
X34001924Y-169346645D01*
X34430183Y-168956358D01*
X34497298Y-168813447D01*
X34724946Y-169154147D01*
X35206715Y-169476054D01*
X35775000Y-169589093D01*
X36343285Y-169476054D01*
X36825054Y-169154147D01*
X37146961Y-168672378D01*
X37260000Y-168104093D01*
X37260000Y-168045907D01*
X37146961Y-167477622D01*
X36825054Y-166995853D01*
X36343285Y-166673946D01*
X35775000Y-166560907D01*
X35206715Y-166673946D01*
X34724946Y-166995853D01*
X34497298Y-167336553D01*
X34430183Y-167193642D01*
X34001924Y-166803355D01*
X33591890Y-166633524D01*
X33362000Y-166754845D01*
X33108000Y-166754845D01*
X32878110Y-166633524D01*
X32468076Y-166803355D01*
X32165063Y-167079501D01*
X32148162Y-166989683D01*
X32009090Y-166773559D01*
X31796890Y-166628569D01*
X31545000Y-166577560D01*
X29845000Y-166577560D01*
X29609683Y-166621838D01*
X29393559Y-166760910D01*
X29248569Y-166973110D01*
X29197560Y-167225000D01*
X25185000Y-167225000D01*
X25185000Y-166162031D01*
X89914561Y-166162031D01*
X90299678Y-167094086D01*
X91012163Y-167807816D01*
X91943545Y-168194559D01*
X92952031Y-168195439D01*
X93884086Y-167810322D01*
X94597816Y-167097837D01*
X94984559Y-166166455D01*
X94985439Y-165157969D01*
X94600322Y-164225914D01*
X93887837Y-163512184D01*
X92956455Y-163125441D01*
X91947969Y-163124561D01*
X91015914Y-163509678D01*
X90302184Y-164222163D01*
X89915441Y-165153545D01*
X89914561Y-166162031D01*
X25185000Y-166162031D01*
X25185000Y-164385958D01*
X80923647Y-164385958D01*
X81003920Y-164637259D01*
X81559279Y-164838718D01*
X82149458Y-164812315D01*
X82572080Y-164637259D01*
X82652353Y-164385958D01*
X81788000Y-163521605D01*
X80923647Y-164385958D01*
X25185000Y-164385958D01*
X25185000Y-163113279D01*
X80291282Y-163113279D01*
X80317685Y-163703458D01*
X80492741Y-164126080D01*
X80744042Y-164206353D01*
X81608395Y-163342000D01*
X81967605Y-163342000D01*
X82831958Y-164206353D01*
X83083259Y-164126080D01*
X83284718Y-163570721D01*
X83258315Y-162980542D01*
X83083259Y-162557920D01*
X82831958Y-162477647D01*
X81967605Y-163342000D01*
X81608395Y-163342000D01*
X80744042Y-162477647D01*
X80492741Y-162557920D01*
X80291282Y-163113279D01*
X25185000Y-163113279D01*
X25185000Y-159543750D01*
X27357000Y-159543750D01*
X27357000Y-160374309D01*
X27453673Y-160607698D01*
X27632301Y-160786327D01*
X27865690Y-160883000D01*
X29686250Y-160883000D01*
X29845000Y-160724250D01*
X29845000Y-159385000D01*
X30099000Y-159385000D01*
X30099000Y-160724250D01*
X30257750Y-160883000D01*
X32078310Y-160883000D01*
X32311699Y-160786327D01*
X32490327Y-160607698D01*
X32587000Y-160374309D01*
X32587000Y-159932000D01*
X80290560Y-159932000D01*
X80290560Y-161632000D01*
X80334838Y-161867317D01*
X80473910Y-162083441D01*
X80686110Y-162228431D01*
X80930100Y-162277840D01*
X80923647Y-162298042D01*
X81788000Y-163162395D01*
X82652353Y-162298042D01*
X82645934Y-162277947D01*
X82873317Y-162235162D01*
X83089441Y-162096090D01*
X83234431Y-161883890D01*
X83285440Y-161632000D01*
X83285440Y-159932000D01*
X83241162Y-159696683D01*
X83102090Y-159480559D01*
X82889890Y-159335569D01*
X82638000Y-159284560D01*
X80938000Y-159284560D01*
X80702683Y-159328838D01*
X80486559Y-159467910D01*
X80341569Y-159680110D01*
X80290560Y-159932000D01*
X32587000Y-159932000D01*
X32587000Y-159543750D01*
X32428250Y-159385000D01*
X30099000Y-159385000D01*
X29845000Y-159385000D01*
X27515750Y-159385000D01*
X27357000Y-159543750D01*
X25185000Y-159543750D01*
X25185000Y-158141691D01*
X27357000Y-158141691D01*
X27357000Y-158972250D01*
X27515750Y-159131000D01*
X29845000Y-159131000D01*
X29845000Y-157791750D01*
X30099000Y-157791750D01*
X30099000Y-159131000D01*
X32428250Y-159131000D01*
X32587000Y-158972250D01*
X32587000Y-158141691D01*
X32490327Y-157908302D01*
X32311699Y-157729673D01*
X32078310Y-157633000D01*
X30257750Y-157633000D01*
X30099000Y-157791750D01*
X29845000Y-157791750D01*
X29686250Y-157633000D01*
X27865690Y-157633000D01*
X27632301Y-157729673D01*
X27453673Y-157908302D01*
X27357000Y-158141691D01*
X25185000Y-158141691D01*
X25185000Y-156730000D01*
X109543000Y-156730000D01*
X109543000Y-168820000D01*
X109551685Y-168866159D01*
X109578965Y-168908553D01*
X109620590Y-168936994D01*
X109670000Y-168947000D01*
X121780000Y-168947000D01*
X121826159Y-168938315D01*
X121868553Y-168911035D01*
X121896994Y-168869410D01*
X121907000Y-168820000D01*
X121907000Y-156730000D01*
X121898315Y-156683841D01*
X121871035Y-156641447D01*
X121829410Y-156613006D01*
X121780000Y-156603000D01*
X109670000Y-156603000D01*
X109623841Y-156611685D01*
X109581447Y-156638965D01*
X109553006Y-156680590D01*
X109543000Y-156730000D01*
X25185000Y-156730000D01*
X25185000Y-154258000D01*
X27305769Y-154258000D01*
X27429465Y-154879861D01*
X27781720Y-155407049D01*
X28308908Y-155759304D01*
X28930769Y-155883000D01*
X31013231Y-155883000D01*
X31635092Y-155759304D01*
X32162280Y-155407049D01*
X32514535Y-154879861D01*
X32638231Y-154258000D01*
X32514535Y-153636139D01*
X32162280Y-153108951D01*
X31635092Y-152756696D01*
X31013231Y-152633000D01*
X28930769Y-152633000D01*
X28308908Y-152756696D01*
X27781720Y-153108951D01*
X27429465Y-153636139D01*
X27305769Y-154258000D01*
X25185000Y-154258000D01*
X25185000Y-150635000D01*
X47303572Y-150635000D01*
X47303572Y-154455000D01*
X55216429Y-154455000D01*
X55216429Y-150652031D01*
X88514561Y-150652031D01*
X88899678Y-151584086D01*
X89612163Y-152297816D01*
X90543545Y-152684559D01*
X91552031Y-152685439D01*
X92484086Y-152300322D01*
X93197816Y-151587837D01*
X93584559Y-150656455D01*
X93585439Y-149647969D01*
X93200322Y-148715914D01*
X92487837Y-148002184D01*
X91556455Y-147615441D01*
X90547969Y-147614561D01*
X89615914Y-147999678D01*
X88902184Y-148712163D01*
X88515441Y-149643545D01*
X88514561Y-150652031D01*
X55216429Y-150652031D01*
X55216429Y-150635000D01*
X47303572Y-150635000D01*
X25185000Y-150635000D01*
X25185000Y-146632031D01*
X28074561Y-146632031D01*
X28459678Y-147564086D01*
X29172163Y-148277816D01*
X30103545Y-148664559D01*
X31112031Y-148665439D01*
X32044086Y-148280322D01*
X32757816Y-147567837D01*
X33144559Y-146636455D01*
X33145439Y-145627969D01*
X32760322Y-144695914D01*
X32256564Y-144191275D01*
X33280331Y-144191275D01*
X33342169Y-144427042D01*
X33843122Y-144603419D01*
X34373440Y-144574664D01*
X34729831Y-144427042D01*
X34791669Y-144191275D01*
X34036000Y-143435605D01*
X33280331Y-144191275D01*
X32256564Y-144191275D01*
X32047837Y-143982184D01*
X31116455Y-143595441D01*
X30107969Y-143594561D01*
X29175914Y-143979678D01*
X28462184Y-144692163D01*
X28075441Y-145623545D01*
X28074561Y-146632031D01*
X25185000Y-146632031D01*
X25185000Y-143063122D01*
X32688581Y-143063122D01*
X32717336Y-143593440D01*
X32864958Y-143949831D01*
X33100725Y-144011669D01*
X33856395Y-143256000D01*
X34215605Y-143256000D01*
X34971275Y-144011669D01*
X35207042Y-143949831D01*
X35377958Y-143464388D01*
X52137225Y-143464388D01*
X52378398Y-144048072D01*
X52824579Y-144495032D01*
X53407841Y-144737224D01*
X54039388Y-144737775D01*
X54623072Y-144496602D01*
X55070032Y-144050421D01*
X55312224Y-143467159D01*
X55312235Y-143454388D01*
X59912225Y-143454388D01*
X60153398Y-144038072D01*
X60599579Y-144485032D01*
X61182841Y-144727224D01*
X61814388Y-144727775D01*
X62398072Y-144486602D01*
X62845032Y-144040421D01*
X63087224Y-143457159D01*
X63087775Y-142825612D01*
X62846602Y-142241928D01*
X62400421Y-141794968D01*
X61817159Y-141552776D01*
X61185612Y-141552225D01*
X60601928Y-141793398D01*
X60154968Y-142239579D01*
X59912776Y-142822841D01*
X59912225Y-143454388D01*
X55312235Y-143454388D01*
X55312775Y-142835612D01*
X55071602Y-142251928D01*
X54625421Y-141804968D01*
X54042159Y-141562776D01*
X53410612Y-141562225D01*
X52826928Y-141803398D01*
X52379968Y-142249579D01*
X52137776Y-142832841D01*
X52137225Y-143464388D01*
X35377958Y-143464388D01*
X35383419Y-143448878D01*
X35354664Y-142918560D01*
X35207042Y-142562169D01*
X34971275Y-142500331D01*
X34215605Y-143256000D01*
X33856395Y-143256000D01*
X33100725Y-142500331D01*
X32864958Y-142562169D01*
X32688581Y-143063122D01*
X25185000Y-143063122D01*
X25185000Y-142320725D01*
X33280331Y-142320725D01*
X34036000Y-143076395D01*
X34791669Y-142320725D01*
X34729831Y-142084958D01*
X34228878Y-141908581D01*
X33698560Y-141937336D01*
X33342169Y-142084958D01*
X33280331Y-142320725D01*
X25185000Y-142320725D01*
X25185000Y-141329951D01*
X27783269Y-141329951D01*
X27793256Y-141379365D01*
X27821681Y-141421001D01*
X27864065Y-141448297D01*
X27910371Y-141457000D01*
X65139044Y-141427001D01*
X65140382Y-141427393D01*
X65976437Y-141426648D01*
X66025838Y-141416598D01*
X66067437Y-141388120D01*
X66094680Y-141345702D01*
X66103324Y-141299433D01*
X66071261Y-122326959D01*
X89235000Y-122317739D01*
X89235000Y-125818555D01*
X88874995Y-126178559D01*
X88864833Y-126178550D01*
X88521057Y-126320595D01*
X88257808Y-126583385D01*
X88115162Y-126926913D01*
X88114838Y-127298879D01*
X88256883Y-127642655D01*
X88519673Y-127905904D01*
X88863201Y-128048550D01*
X89235167Y-128048874D01*
X89457673Y-127956937D01*
X89457673Y-129715487D01*
X89425481Y-129747623D01*
X89282835Y-130091151D01*
X89282511Y-130463117D01*
X89424556Y-130806893D01*
X89687346Y-131070142D01*
X90030874Y-131212788D01*
X90240764Y-131212971D01*
X90404611Y-131377104D01*
X86746588Y-131377104D01*
X86293804Y-130924320D01*
X86293844Y-130878833D01*
X86151799Y-130535057D01*
X85889009Y-130271808D01*
X85545481Y-130129162D01*
X85173515Y-130128838D01*
X84829739Y-130270883D01*
X84566490Y-130533673D01*
X84423844Y-130877201D01*
X84423520Y-131249167D01*
X84565565Y-131592943D01*
X84828355Y-131856192D01*
X85171883Y-131998838D01*
X85218759Y-131998879D01*
X85894385Y-132674505D01*
X86140947Y-132839252D01*
X86431786Y-132897104D01*
X92102159Y-132897104D01*
X92392998Y-132839252D01*
X92639560Y-132674505D01*
X93535055Y-131779010D01*
X93699802Y-131532449D01*
X93757654Y-131241609D01*
X93757654Y-128048638D01*
X94028177Y-128048874D01*
X94371953Y-127906829D01*
X94635202Y-127644039D01*
X94711029Y-127461429D01*
X94977571Y-127727971D01*
X94942060Y-127763421D01*
X94799414Y-128106949D01*
X94799090Y-128478915D01*
X94941135Y-128822691D01*
X95203925Y-129085940D01*
X95547453Y-129228586D01*
X95594329Y-129228627D01*
X96140133Y-129774431D01*
X96386695Y-129939178D01*
X96677534Y-129997030D01*
X101648970Y-129997030D01*
X101939809Y-129939178D01*
X102186371Y-129774431D01*
X102755680Y-129205122D01*
X102801167Y-129205162D01*
X103144943Y-129063117D01*
X103408192Y-128800327D01*
X103439021Y-128726083D01*
X103439021Y-144924096D01*
X102952599Y-145410518D01*
X102787852Y-145657080D01*
X102746259Y-145866182D01*
X102439946Y-146070853D01*
X102220000Y-146400026D01*
X102000054Y-146070853D01*
X101518285Y-145748946D01*
X100950000Y-145635907D01*
X100381715Y-145748946D01*
X99899946Y-146070853D01*
X99872150Y-146112452D01*
X99863162Y-146064683D01*
X99724090Y-145848559D01*
X99511890Y-145703569D01*
X99260000Y-145652560D01*
X97560000Y-145652560D01*
X97324683Y-145696838D01*
X97108559Y-145835910D01*
X96963569Y-146048110D01*
X96912560Y-146300000D01*
X96912560Y-148000000D01*
X96956838Y-148235317D01*
X97095910Y-148451441D01*
X97308110Y-148596431D01*
X97560000Y-148647440D01*
X99260000Y-148647440D01*
X99495317Y-148603162D01*
X99711441Y-148464090D01*
X99856431Y-148251890D01*
X99870086Y-148184459D01*
X99899946Y-148229147D01*
X100381715Y-148551054D01*
X100950000Y-148664093D01*
X101518285Y-148551054D01*
X102000054Y-148229147D01*
X102220000Y-147899974D01*
X102439946Y-148229147D01*
X102921715Y-148551054D01*
X103490000Y-148664093D01*
X104058285Y-148551054D01*
X104540054Y-148229147D01*
X104760000Y-147899974D01*
X104979946Y-148229147D01*
X105461715Y-148551054D01*
X106030000Y-148664093D01*
X106598285Y-148551054D01*
X107080054Y-148229147D01*
X107300000Y-147899974D01*
X107519946Y-148229147D01*
X108001715Y-148551054D01*
X108570000Y-148664093D01*
X109138285Y-148551054D01*
X109620054Y-148229147D01*
X109840000Y-147899974D01*
X110059946Y-148229147D01*
X110541715Y-148551054D01*
X111110000Y-148664093D01*
X111678285Y-148551054D01*
X112140771Y-148242031D01*
X129814561Y-148242031D01*
X130199678Y-149174086D01*
X130912163Y-149887816D01*
X131843545Y-150274559D01*
X132852031Y-150275439D01*
X133784086Y-149890322D01*
X134497816Y-149177837D01*
X134884559Y-148246455D01*
X134885439Y-147237969D01*
X134500322Y-146305914D01*
X133787837Y-145592184D01*
X132856455Y-145205441D01*
X131847969Y-145204561D01*
X130915914Y-145589678D01*
X130202184Y-146302163D01*
X129815441Y-147233545D01*
X129814561Y-148242031D01*
X112140771Y-148242031D01*
X112160054Y-148229147D01*
X112481961Y-147747378D01*
X112595000Y-147179093D01*
X112595000Y-147120907D01*
X112481961Y-146552622D01*
X112160054Y-146070853D01*
X111678285Y-145748946D01*
X111110000Y-145635907D01*
X110541715Y-145748946D01*
X110059946Y-146070853D01*
X109840000Y-146400026D01*
X109620054Y-146070853D01*
X109138285Y-145748946D01*
X108570000Y-145635907D01*
X108001715Y-145748946D01*
X107519946Y-146070853D01*
X107300000Y-146400026D01*
X107080054Y-146070853D01*
X106598285Y-145748946D01*
X106030000Y-145635907D01*
X105461715Y-145748946D01*
X104979946Y-146070853D01*
X104760000Y-146400026D01*
X104540054Y-146070853D01*
X104481196Y-146031525D01*
X104736422Y-145776299D01*
X104901169Y-145529737D01*
X104959021Y-145238898D01*
X104959021Y-143895000D01*
X120213572Y-143895000D01*
X120213572Y-147715000D01*
X124126429Y-147715000D01*
X124126429Y-143895000D01*
X120213572Y-143895000D01*
X104959021Y-143895000D01*
X104959021Y-143126428D01*
X136045000Y-143126428D01*
X136045000Y-164253572D01*
X142115000Y-164253572D01*
X142115000Y-143126428D01*
X136045000Y-143126428D01*
X104959021Y-143126428D01*
X104959021Y-134495167D01*
X124574838Y-134495167D01*
X124716883Y-134838943D01*
X124979673Y-135102192D01*
X125323201Y-135244838D01*
X125695167Y-135245162D01*
X125844889Y-135183298D01*
X126004264Y-135215000D01*
X135390000Y-135215000D01*
X135709541Y-135151439D01*
X135980434Y-134970434D01*
X137055868Y-133895000D01*
X139280715Y-133895000D01*
X139280715Y-137715000D01*
X144979286Y-137715000D01*
X144979286Y-133895000D01*
X139280715Y-133895000D01*
X137055868Y-133895000D01*
X143130434Y-127820434D01*
X143170815Y-127760000D01*
X143311439Y-127549541D01*
X143375000Y-127230000D01*
X143375000Y-113717234D01*
X143474838Y-113476799D01*
X143475162Y-113104833D01*
X143333117Y-112761057D01*
X143070327Y-112497808D01*
X142828091Y-112397222D01*
X141030434Y-110599566D01*
X140933722Y-110534945D01*
X140759541Y-110418561D01*
X140440000Y-110355000D01*
X135127234Y-110355000D01*
X134886799Y-110255162D01*
X134514833Y-110254838D01*
X134171057Y-110396883D01*
X133907808Y-110659673D01*
X133765162Y-111003201D01*
X133764838Y-111375167D01*
X133906883Y-111718943D01*
X134169673Y-111982192D01*
X134513201Y-112124838D01*
X134885167Y-112125162D01*
X135127578Y-112025000D01*
X140094132Y-112025000D01*
X141647466Y-113578335D01*
X141705000Y-113717578D01*
X141705000Y-126884132D01*
X135044132Y-133545000D01*
X126263442Y-133545000D01*
X126253805Y-133538561D01*
X125939966Y-133476134D01*
X125696799Y-133375162D01*
X125324833Y-133374838D01*
X124981057Y-133516883D01*
X124717808Y-133779673D01*
X124575162Y-134123201D01*
X124574838Y-134495167D01*
X104959021Y-134495167D01*
X104959021Y-126930000D01*
X111532560Y-126930000D01*
X111532560Y-128630000D01*
X111576838Y-128865317D01*
X111715910Y-129081441D01*
X111928110Y-129226431D01*
X112180000Y-129277440D01*
X113880000Y-129277440D01*
X114115317Y-129233162D01*
X114331441Y-129094090D01*
X114476431Y-128881890D01*
X114527440Y-128630000D01*
X114527440Y-127760000D01*
X114628846Y-127760000D01*
X114730467Y-128270882D01*
X115019858Y-128703988D01*
X115452964Y-128993379D01*
X115963846Y-129095000D01*
X116016154Y-129095000D01*
X116527036Y-128993379D01*
X116951666Y-128709652D01*
X117132796Y-128891098D01*
X117623287Y-129094768D01*
X118154383Y-129095231D01*
X118645229Y-128892418D01*
X119021098Y-128517204D01*
X119224768Y-128026713D01*
X119225231Y-127495617D01*
X119022418Y-127004771D01*
X118647204Y-126628902D01*
X118156713Y-126425232D01*
X117625617Y-126424769D01*
X117134771Y-126627582D01*
X116951678Y-126810356D01*
X116527036Y-126526621D01*
X116016154Y-126425000D01*
X115963846Y-126425000D01*
X115452964Y-126526621D01*
X115019858Y-126816012D01*
X114730467Y-127249118D01*
X114628846Y-127760000D01*
X114527440Y-127760000D01*
X114527440Y-126930000D01*
X114483162Y-126694683D01*
X114344090Y-126478559D01*
X114131890Y-126333569D01*
X113880000Y-126282560D01*
X112180000Y-126282560D01*
X111944683Y-126326838D01*
X111728559Y-126465910D01*
X111583569Y-126678110D01*
X111532560Y-126930000D01*
X104959021Y-126930000D01*
X104959021Y-124651453D01*
X104991213Y-124619317D01*
X105133859Y-124275789D01*
X105134183Y-123903823D01*
X104992138Y-123560047D01*
X104729348Y-123296798D01*
X104601171Y-123243574D01*
X106122166Y-121722579D01*
X106286913Y-121476017D01*
X106344765Y-121185178D01*
X106344765Y-117856000D01*
X117865907Y-117856000D01*
X117978946Y-118424285D01*
X118300853Y-118906054D01*
X118782622Y-119227961D01*
X119350907Y-119341000D01*
X119409093Y-119341000D01*
X119564940Y-119310000D01*
X129163000Y-119310000D01*
X129163000Y-127000000D01*
X129171685Y-127046159D01*
X129198965Y-127088553D01*
X129240590Y-127116994D01*
X129290000Y-127127000D01*
X137830000Y-127127000D01*
X137876159Y-127118315D01*
X137918553Y-127091035D01*
X137946994Y-127049410D01*
X137957000Y-127000000D01*
X137957000Y-119310000D01*
X137948315Y-119263841D01*
X137921035Y-119221447D01*
X137879410Y-119193006D01*
X137830000Y-119183000D01*
X129290000Y-119183000D01*
X129243841Y-119191685D01*
X129201447Y-119218965D01*
X129173006Y-119260590D01*
X129163000Y-119310000D01*
X119564940Y-119310000D01*
X119977378Y-119227961D01*
X120459147Y-118906054D01*
X120781054Y-118424285D01*
X120894093Y-117856000D01*
X120781054Y-117287715D01*
X120459147Y-116805946D01*
X120417548Y-116778150D01*
X120465317Y-116769162D01*
X120681441Y-116630090D01*
X120826431Y-116417890D01*
X120877440Y-116166000D01*
X120877440Y-114466000D01*
X120833162Y-114230683D01*
X120694090Y-114014559D01*
X120481890Y-113869569D01*
X120230000Y-113818560D01*
X118530000Y-113818560D01*
X118294683Y-113862838D01*
X118078559Y-114001910D01*
X117933569Y-114214110D01*
X117882560Y-114466000D01*
X117882560Y-116166000D01*
X117926838Y-116401317D01*
X118065910Y-116617441D01*
X118278110Y-116762431D01*
X118345541Y-116776086D01*
X118300853Y-116805946D01*
X117978946Y-117287715D01*
X117865907Y-117856000D01*
X106344765Y-117856000D01*
X106344765Y-115098743D01*
X106286913Y-114807904D01*
X106122166Y-114561342D01*
X104648813Y-113087989D01*
X104651172Y-113085630D01*
X104686622Y-113121141D01*
X105030150Y-113263787D01*
X105402116Y-113264111D01*
X105745892Y-113122066D01*
X106009141Y-112859276D01*
X106038343Y-112788950D01*
X120889050Y-112788950D01*
X121179889Y-112731098D01*
X121426451Y-112566351D01*
X128807401Y-105185401D01*
X128972148Y-104938839D01*
X129030000Y-104648000D01*
X129030000Y-99270000D01*
X128972148Y-98979161D01*
X128807401Y-98732599D01*
X128051210Y-97976408D01*
X128124093Y-97610000D01*
X128011054Y-97041715D01*
X127689147Y-96559946D01*
X127359974Y-96340000D01*
X127689147Y-96120054D01*
X128011054Y-95638285D01*
X128124093Y-95070000D01*
X128011054Y-94501715D01*
X127689147Y-94019946D01*
X127207378Y-93698039D01*
X126639093Y-93585000D01*
X126580907Y-93585000D01*
X126012622Y-93698039D01*
X125530853Y-94019946D01*
X125208946Y-94501715D01*
X125095907Y-95070000D01*
X125168790Y-95436408D01*
X110875198Y-109730000D01*
X106172000Y-109730000D01*
X105881160Y-109787852D01*
X105634599Y-109952599D01*
X103036610Y-112550588D01*
X102871863Y-112797150D01*
X102814011Y-113087989D01*
X102871863Y-113378828D01*
X103036610Y-113625390D01*
X104824765Y-115413545D01*
X104824765Y-117390963D01*
X103551122Y-116117320D01*
X103551162Y-116071833D01*
X103409117Y-115728057D01*
X103404393Y-115723325D01*
X103415000Y-115670000D01*
X103415000Y-115405000D01*
X103393131Y-115295057D01*
X103355245Y-115104593D01*
X103185079Y-114849921D01*
X99485153Y-111149995D01*
X99485162Y-111139833D01*
X99343117Y-110796057D01*
X99335000Y-110787926D01*
X99335000Y-105715158D01*
X104895005Y-100155153D01*
X104905167Y-100155162D01*
X105248943Y-100013117D01*
X105512192Y-99750327D01*
X105654838Y-99406799D01*
X105655162Y-99034833D01*
X105602444Y-98907246D01*
X106174000Y-99478802D01*
X106174000Y-101600000D01*
X106231852Y-101890839D01*
X106396599Y-102137401D01*
X107190000Y-102930802D01*
X107190000Y-106426000D01*
X107247852Y-106716839D01*
X107412599Y-106963401D01*
X107920599Y-107471401D01*
X108167161Y-107636148D01*
X108458000Y-107694000D01*
X109329897Y-107694000D01*
X109301162Y-107763201D01*
X109300838Y-108135167D01*
X109442883Y-108478943D01*
X109705673Y-108742192D01*
X110049201Y-108884838D01*
X110421167Y-108885162D01*
X110764943Y-108743117D01*
X111028192Y-108480327D01*
X111170838Y-108136799D01*
X111170879Y-108089923D01*
X111281401Y-107979401D01*
X111355060Y-107869162D01*
X111446148Y-107732839D01*
X111504000Y-107442000D01*
X111504000Y-98334998D01*
X111446148Y-98044159D01*
X111281401Y-97797597D01*
X107336402Y-93852598D01*
X107089840Y-93687851D01*
X106799001Y-93629999D01*
X106422885Y-93629999D01*
X106435000Y-93569093D01*
X106435000Y-93510907D01*
X106321961Y-92942622D01*
X106000054Y-92460853D01*
X105983858Y-92450031D01*
X140466561Y-92450031D01*
X140851678Y-93382086D01*
X141564163Y-94095816D01*
X142495545Y-94482559D01*
X143504031Y-94483439D01*
X144436086Y-94098322D01*
X145149816Y-93385837D01*
X145536559Y-92454455D01*
X145537439Y-91445969D01*
X145152322Y-90513914D01*
X144439837Y-89800184D01*
X143508455Y-89413441D01*
X142499969Y-89412561D01*
X141567914Y-89797678D01*
X140854184Y-90510163D01*
X140467441Y-91441545D01*
X140466561Y-92450031D01*
X105983858Y-92450031D01*
X105518285Y-92138946D01*
X104950000Y-92025907D01*
X104381715Y-92138946D01*
X103899946Y-92460853D01*
X103872150Y-92502452D01*
X103863162Y-92454683D01*
X103724090Y-92238559D01*
X103511890Y-92093569D01*
X103260000Y-92042560D01*
X101560000Y-92042560D01*
X101324683Y-92086838D01*
X101108559Y-92225910D01*
X100963569Y-92438110D01*
X100912560Y-92690000D01*
X100912560Y-94390000D01*
X100956838Y-94625317D01*
X101095910Y-94841441D01*
X101308110Y-94986431D01*
X101549820Y-95035378D01*
X99562599Y-97022599D01*
X99397852Y-97269161D01*
X99340000Y-97560000D01*
X99340000Y-98846766D01*
X99397852Y-99137605D01*
X99562599Y-99384167D01*
X99895833Y-99717401D01*
X100142395Y-99882148D01*
X100260794Y-99905699D01*
X100327171Y-99972192D01*
X100670699Y-100114838D01*
X101042665Y-100115162D01*
X101386441Y-99973117D01*
X101460565Y-99899122D01*
X101529594Y-99945245D01*
X101830000Y-100005000D01*
X102824842Y-100005000D01*
X97994921Y-104834921D01*
X97824755Y-105089593D01*
X97797446Y-105226883D01*
X97765000Y-105390000D01*
X97765000Y-110787494D01*
X97757808Y-110794673D01*
X97615162Y-111138201D01*
X97614838Y-111510167D01*
X97756883Y-111853943D01*
X98019673Y-112117192D01*
X98363201Y-112259838D01*
X98374690Y-112259848D01*
X101832669Y-115717827D01*
X101823808Y-115726673D01*
X101681162Y-116070201D01*
X101680838Y-116442167D01*
X101822883Y-116785943D01*
X101886817Y-116849989D01*
X101490147Y-116849989D01*
X96568774Y-111928616D01*
X96642192Y-111855327D01*
X96784838Y-111511799D01*
X96785162Y-111139833D01*
X96643117Y-110796057D01*
X96608928Y-110761809D01*
X96575245Y-110592472D01*
X96405079Y-110337799D01*
X87875000Y-101807720D01*
X87875000Y-97196250D01*
X88140054Y-97019147D01*
X88360000Y-96689974D01*
X88579946Y-97019147D01*
X89061715Y-97341054D01*
X89630000Y-97454093D01*
X90198285Y-97341054D01*
X90680054Y-97019147D01*
X91001961Y-96537378D01*
X91115000Y-95969093D01*
X91115000Y-95910907D01*
X91001961Y-95342622D01*
X90680054Y-94860853D01*
X90198285Y-94538946D01*
X89630000Y-94425907D01*
X89061715Y-94538946D01*
X88579946Y-94860853D01*
X88360000Y-95190026D01*
X88140054Y-94860853D01*
X87658285Y-94538946D01*
X87090000Y-94425907D01*
X86521715Y-94538946D01*
X86039946Y-94860853D01*
X85820000Y-95190026D01*
X85600054Y-94860853D01*
X85118285Y-94538946D01*
X84550000Y-94425907D01*
X84183592Y-94498790D01*
X83635401Y-93950599D01*
X83388839Y-93785852D01*
X83098000Y-93728000D01*
X78740000Y-93728000D01*
X78449160Y-93785852D01*
X78202599Y-93950599D01*
X77710638Y-94442560D01*
X76080000Y-94442560D01*
X75844683Y-94486838D01*
X75628559Y-94625910D01*
X75483569Y-94838110D01*
X75432560Y-95090000D01*
X75432560Y-96790000D01*
X75476838Y-97025317D01*
X75615910Y-97241441D01*
X75828110Y-97386431D01*
X76080000Y-97437440D01*
X77566957Y-97437440D01*
X77567600Y-97438402D01*
X77948599Y-97819401D01*
X78195161Y-97984148D01*
X78486000Y-98042000D01*
X79441198Y-98042000D01*
X96591428Y-115192230D01*
X96489808Y-115293673D01*
X96347162Y-115637201D01*
X96346838Y-116009167D01*
X96488883Y-116352943D01*
X96522000Y-116386118D01*
X96522000Y-117370275D01*
X94048782Y-119843493D01*
X94048782Y-116148782D01*
X93990930Y-115857943D01*
X93899091Y-115720496D01*
X93899162Y-115638833D01*
X93757117Y-115295057D01*
X93494327Y-115031808D01*
X93150799Y-114889162D01*
X92778833Y-114888838D01*
X92455629Y-115022383D01*
X92134799Y-114889162D01*
X91762833Y-114888838D01*
X91419057Y-115030883D01*
X91155808Y-115293673D01*
X91013162Y-115637201D01*
X91012838Y-116009167D01*
X91154883Y-116352943D01*
X91417673Y-116616192D01*
X91761201Y-116758838D01*
X91808077Y-116758879D01*
X92053989Y-117004791D01*
X92053989Y-118614959D01*
X91914833Y-118614838D01*
X91571057Y-118756883D01*
X91307808Y-119019673D01*
X91217269Y-119237714D01*
X91217269Y-118610000D01*
X91207263Y-118560590D01*
X91178822Y-118518965D01*
X91136428Y-118491685D01*
X91090117Y-118483000D01*
X90805000Y-118483341D01*
X90805000Y-114817506D01*
X90812192Y-114810327D01*
X90954838Y-114466799D01*
X90955162Y-114094833D01*
X90813117Y-113751057D01*
X90550327Y-113487808D01*
X90206799Y-113345162D01*
X89834833Y-113344838D01*
X89491057Y-113486883D01*
X89227808Y-113749673D01*
X89085162Y-114093201D01*
X89084838Y-114465167D01*
X89226883Y-114808943D01*
X89235000Y-114817074D01*
X89235000Y-118485217D01*
X66117269Y-118512848D01*
X66117269Y-115160000D01*
X66107263Y-115110590D01*
X66078822Y-115068965D01*
X66036428Y-115041685D01*
X65990236Y-115033000D01*
X27920236Y-115043000D01*
X27870828Y-115053019D01*
X27829211Y-115081471D01*
X27801942Y-115123872D01*
X27793269Y-115169951D01*
X27783269Y-141329951D01*
X25185000Y-141329951D01*
X25185000Y-110682031D01*
X28054561Y-110682031D01*
X28439678Y-111614086D01*
X29152163Y-112327816D01*
X30083545Y-112714559D01*
X31092031Y-112715439D01*
X32024086Y-112330322D01*
X32737816Y-111617837D01*
X33124559Y-110686455D01*
X33125439Y-109677969D01*
X32740322Y-108745914D01*
X32027837Y-108032184D01*
X31096455Y-107645441D01*
X30087969Y-107644561D01*
X29155914Y-108029678D01*
X28442184Y-108742163D01*
X28055441Y-109673545D01*
X28054561Y-110682031D01*
X25185000Y-110682031D01*
X25185000Y-105755593D01*
X31724012Y-105755593D01*
X31865478Y-106058782D01*
X32601955Y-106343737D01*
X33391418Y-106325164D01*
X34034522Y-106058782D01*
X34175988Y-105755593D01*
X32950000Y-104529605D01*
X31724012Y-105755593D01*
X25185000Y-105755593D01*
X25185000Y-104001955D01*
X30956263Y-104001955D01*
X30974836Y-104791418D01*
X31241218Y-105434522D01*
X31544407Y-105575988D01*
X32770395Y-104350000D01*
X33129605Y-104350000D01*
X34355593Y-105575988D01*
X34658782Y-105434522D01*
X34913961Y-104775000D01*
X64510907Y-104775000D01*
X64623946Y-105343285D01*
X64945853Y-105825054D01*
X65427622Y-106146961D01*
X65995907Y-106260000D01*
X66054093Y-106260000D01*
X66622378Y-106146961D01*
X67104147Y-105825054D01*
X67426054Y-105343285D01*
X67539093Y-104775000D01*
X67426054Y-104206715D01*
X67104147Y-103724946D01*
X67062548Y-103697150D01*
X67110317Y-103688162D01*
X67326441Y-103549090D01*
X67471431Y-103336890D01*
X67522440Y-103085000D01*
X67522440Y-101385000D01*
X67478162Y-101149683D01*
X67339090Y-100933559D01*
X67126890Y-100788569D01*
X66875000Y-100737560D01*
X65175000Y-100737560D01*
X64939683Y-100781838D01*
X64723559Y-100920910D01*
X64578569Y-101133110D01*
X64527560Y-101385000D01*
X64527560Y-103085000D01*
X64571838Y-103320317D01*
X64710910Y-103536441D01*
X64923110Y-103681431D01*
X64990541Y-103695086D01*
X64945853Y-103724946D01*
X64623946Y-104206715D01*
X64510907Y-104775000D01*
X34913961Y-104775000D01*
X34943737Y-104698045D01*
X34925164Y-103908582D01*
X34658782Y-103265478D01*
X34355593Y-103124012D01*
X33129605Y-104350000D01*
X32770395Y-104350000D01*
X31544407Y-103124012D01*
X31241218Y-103265478D01*
X30956263Y-104001955D01*
X25185000Y-104001955D01*
X25185000Y-102944407D01*
X31724012Y-102944407D01*
X32950000Y-104170395D01*
X34175988Y-102944407D01*
X34034522Y-102641218D01*
X33298045Y-102356263D01*
X32508582Y-102374836D01*
X31865478Y-102641218D01*
X31724012Y-102944407D01*
X25185000Y-102944407D01*
X25185000Y-95285000D01*
X26785000Y-95285000D01*
X26785000Y-101055000D01*
X30605000Y-101055000D01*
X30605000Y-100598764D01*
X34850841Y-100598764D01*
X34920059Y-100840742D01*
X35442780Y-101027155D01*
X35997049Y-100999341D01*
X36379941Y-100840742D01*
X36449159Y-100598764D01*
X35650000Y-99799605D01*
X34850841Y-100598764D01*
X30605000Y-100598764D01*
X30605000Y-99412780D01*
X34242845Y-99412780D01*
X34270659Y-99967049D01*
X34429258Y-100349941D01*
X34671236Y-100419159D01*
X35470395Y-99620000D01*
X34671236Y-98820841D01*
X34429258Y-98890059D01*
X34242845Y-99412780D01*
X30605000Y-99412780D01*
X30605000Y-97356265D01*
X34254758Y-97356265D01*
X34466687Y-97869172D01*
X34858764Y-98261934D01*
X35054934Y-98343391D01*
X34920059Y-98399258D01*
X34850841Y-98641236D01*
X35650000Y-99440395D01*
X36449159Y-98641236D01*
X36379941Y-98399258D01*
X36235138Y-98347618D01*
X36439172Y-98263313D01*
X36650024Y-98052829D01*
X36858764Y-98261934D01*
X37070738Y-98349954D01*
X36860828Y-98436687D01*
X36468066Y-98828764D01*
X36359581Y-99090024D01*
X35829605Y-99620000D01*
X36359595Y-100149990D01*
X36466687Y-100409172D01*
X36858764Y-100801934D01*
X37371300Y-101014758D01*
X37926265Y-101015242D01*
X38439172Y-100803313D01*
X38831934Y-100411236D01*
X39044758Y-99898700D01*
X39045242Y-99343735D01*
X38833313Y-98830828D01*
X38441236Y-98438066D01*
X38229262Y-98350046D01*
X38439172Y-98263313D01*
X38831934Y-97871236D01*
X39044758Y-97358700D01*
X39045242Y-96803735D01*
X38833313Y-96290828D01*
X38441236Y-95898066D01*
X37928700Y-95685242D01*
X37373735Y-95684758D01*
X36860828Y-95896687D01*
X36649976Y-96107171D01*
X36441236Y-95898066D01*
X35928700Y-95685242D01*
X35373735Y-95684758D01*
X34860828Y-95896687D01*
X34468066Y-96288764D01*
X34255242Y-96801300D01*
X34254758Y-97356265D01*
X30605000Y-97356265D01*
X30605000Y-95285000D01*
X26785000Y-95285000D01*
X25185000Y-95285000D01*
X25185000Y-93755593D01*
X31724012Y-93755593D01*
X31865478Y-94058782D01*
X32601955Y-94343737D01*
X33391418Y-94325164D01*
X34034522Y-94058782D01*
X34175988Y-93755593D01*
X32950000Y-92529605D01*
X31724012Y-93755593D01*
X25185000Y-93755593D01*
X25185000Y-92001955D01*
X30956263Y-92001955D01*
X30974836Y-92791418D01*
X31241218Y-93434522D01*
X31544407Y-93575988D01*
X32770395Y-92350000D01*
X33129605Y-92350000D01*
X34355593Y-93575988D01*
X34658782Y-93434522D01*
X34943737Y-92698045D01*
X34925164Y-91908582D01*
X34658782Y-91265478D01*
X34355593Y-91124012D01*
X33129605Y-92350000D01*
X32770395Y-92350000D01*
X31544407Y-91124012D01*
X31241218Y-91265478D01*
X30956263Y-92001955D01*
X25185000Y-92001955D01*
X25185000Y-90944407D01*
X31724012Y-90944407D01*
X32950000Y-92170395D01*
X34175988Y-90944407D01*
X34034522Y-90641218D01*
X33298045Y-90356263D01*
X32508582Y-90374836D01*
X31865478Y-90641218D01*
X31724012Y-90944407D01*
X25185000Y-90944407D01*
X25185000Y-88340000D01*
X146864000Y-88340000D01*
X146864000Y-169978000D01*
X146864000Y-169978000D01*
G37*
X146864000Y-169978000D02*
X25185000Y-169978000D01*
X25185000Y-167225000D01*
X29197560Y-167225000D01*
X29197560Y-168925000D01*
X29241838Y-169160317D01*
X29380910Y-169376441D01*
X29593110Y-169521431D01*
X29845000Y-169572440D01*
X31545000Y-169572440D01*
X31780317Y-169528162D01*
X31996441Y-169389090D01*
X32141431Y-169176890D01*
X32163301Y-169068893D01*
X32468076Y-169346645D01*
X32878110Y-169516476D01*
X33108000Y-169395155D01*
X33108000Y-168202000D01*
X33088000Y-168202000D01*
X33088000Y-167948000D01*
X33108000Y-167948000D01*
X33108000Y-166754845D01*
X33362000Y-166754845D01*
X33362000Y-167948000D01*
X33382000Y-167948000D01*
X33382000Y-168202000D01*
X33362000Y-168202000D01*
X33362000Y-169395155D01*
X33591890Y-169516476D01*
X34001924Y-169346645D01*
X34430183Y-168956358D01*
X34497298Y-168813447D01*
X34724946Y-169154147D01*
X35206715Y-169476054D01*
X35775000Y-169589093D01*
X36343285Y-169476054D01*
X36825054Y-169154147D01*
X37146961Y-168672378D01*
X37260000Y-168104093D01*
X37260000Y-168045907D01*
X37146961Y-167477622D01*
X36825054Y-166995853D01*
X36343285Y-166673946D01*
X35775000Y-166560907D01*
X35206715Y-166673946D01*
X34724946Y-166995853D01*
X34497298Y-167336553D01*
X34430183Y-167193642D01*
X34001924Y-166803355D01*
X33591890Y-166633524D01*
X33362000Y-166754845D01*
X33108000Y-166754845D01*
X32878110Y-166633524D01*
X32468076Y-166803355D01*
X32165063Y-167079501D01*
X32148162Y-166989683D01*
X32009090Y-166773559D01*
X31796890Y-166628569D01*
X31545000Y-166577560D01*
X29845000Y-166577560D01*
X29609683Y-166621838D01*
X29393559Y-166760910D01*
X29248569Y-166973110D01*
X29197560Y-167225000D01*
X25185000Y-167225000D01*
X25185000Y-166162031D01*
X89914561Y-166162031D01*
X90299678Y-167094086D01*
X91012163Y-167807816D01*
X91943545Y-168194559D01*
X92952031Y-168195439D01*
X93884086Y-167810322D01*
X94597816Y-167097837D01*
X94984559Y-166166455D01*
X94985439Y-165157969D01*
X94600322Y-164225914D01*
X93887837Y-163512184D01*
X92956455Y-163125441D01*
X91947969Y-163124561D01*
X91015914Y-163509678D01*
X90302184Y-164222163D01*
X89915441Y-165153545D01*
X89914561Y-166162031D01*
X25185000Y-166162031D01*
X25185000Y-164385958D01*
X80923647Y-164385958D01*
X81003920Y-164637259D01*
X81559279Y-164838718D01*
X82149458Y-164812315D01*
X82572080Y-164637259D01*
X82652353Y-164385958D01*
X81788000Y-163521605D01*
X80923647Y-164385958D01*
X25185000Y-164385958D01*
X25185000Y-163113279D01*
X80291282Y-163113279D01*
X80317685Y-163703458D01*
X80492741Y-164126080D01*
X80744042Y-164206353D01*
X81608395Y-163342000D01*
X81967605Y-163342000D01*
X82831958Y-164206353D01*
X83083259Y-164126080D01*
X83284718Y-163570721D01*
X83258315Y-162980542D01*
X83083259Y-162557920D01*
X82831958Y-162477647D01*
X81967605Y-163342000D01*
X81608395Y-163342000D01*
X80744042Y-162477647D01*
X80492741Y-162557920D01*
X80291282Y-163113279D01*
X25185000Y-163113279D01*
X25185000Y-159543750D01*
X27357000Y-159543750D01*
X27357000Y-160374309D01*
X27453673Y-160607698D01*
X27632301Y-160786327D01*
X27865690Y-160883000D01*
X29686250Y-160883000D01*
X29845000Y-160724250D01*
X29845000Y-159385000D01*
X30099000Y-159385000D01*
X30099000Y-160724250D01*
X30257750Y-160883000D01*
X32078310Y-160883000D01*
X32311699Y-160786327D01*
X32490327Y-160607698D01*
X32587000Y-160374309D01*
X32587000Y-159932000D01*
X80290560Y-159932000D01*
X80290560Y-161632000D01*
X80334838Y-161867317D01*
X80473910Y-162083441D01*
X80686110Y-162228431D01*
X80930100Y-162277840D01*
X80923647Y-162298042D01*
X81788000Y-163162395D01*
X82652353Y-162298042D01*
X82645934Y-162277947D01*
X82873317Y-162235162D01*
X83089441Y-162096090D01*
X83234431Y-161883890D01*
X83285440Y-161632000D01*
X83285440Y-159932000D01*
X83241162Y-159696683D01*
X83102090Y-159480559D01*
X82889890Y-159335569D01*
X82638000Y-159284560D01*
X80938000Y-159284560D01*
X80702683Y-159328838D01*
X80486559Y-159467910D01*
X80341569Y-159680110D01*
X80290560Y-159932000D01*
X32587000Y-159932000D01*
X32587000Y-159543750D01*
X32428250Y-159385000D01*
X30099000Y-159385000D01*
X29845000Y-159385000D01*
X27515750Y-159385000D01*
X27357000Y-159543750D01*
X25185000Y-159543750D01*
X25185000Y-158141691D01*
X27357000Y-158141691D01*
X27357000Y-158972250D01*
X27515750Y-159131000D01*
X29845000Y-159131000D01*
X29845000Y-157791750D01*
X30099000Y-157791750D01*
X30099000Y-159131000D01*
X32428250Y-159131000D01*
X32587000Y-158972250D01*
X32587000Y-158141691D01*
X32490327Y-157908302D01*
X32311699Y-157729673D01*
X32078310Y-157633000D01*
X30257750Y-157633000D01*
X30099000Y-157791750D01*
X29845000Y-157791750D01*
X29686250Y-157633000D01*
X27865690Y-157633000D01*
X27632301Y-157729673D01*
X27453673Y-157908302D01*
X27357000Y-158141691D01*
X25185000Y-158141691D01*
X25185000Y-156730000D01*
X109543000Y-156730000D01*
X109543000Y-168820000D01*
X109551685Y-168866159D01*
X109578965Y-168908553D01*
X109620590Y-168936994D01*
X109670000Y-168947000D01*
X121780000Y-168947000D01*
X121826159Y-168938315D01*
X121868553Y-168911035D01*
X121896994Y-168869410D01*
X121907000Y-168820000D01*
X121907000Y-156730000D01*
X121898315Y-156683841D01*
X121871035Y-156641447D01*
X121829410Y-156613006D01*
X121780000Y-156603000D01*
X109670000Y-156603000D01*
X109623841Y-156611685D01*
X109581447Y-156638965D01*
X109553006Y-156680590D01*
X109543000Y-156730000D01*
X25185000Y-156730000D01*
X25185000Y-154258000D01*
X27305769Y-154258000D01*
X27429465Y-154879861D01*
X27781720Y-155407049D01*
X28308908Y-155759304D01*
X28930769Y-155883000D01*
X31013231Y-155883000D01*
X31635092Y-155759304D01*
X32162280Y-155407049D01*
X32514535Y-154879861D01*
X32638231Y-154258000D01*
X32514535Y-153636139D01*
X32162280Y-153108951D01*
X31635092Y-152756696D01*
X31013231Y-152633000D01*
X28930769Y-152633000D01*
X28308908Y-152756696D01*
X27781720Y-153108951D01*
X27429465Y-153636139D01*
X27305769Y-154258000D01*
X25185000Y-154258000D01*
X25185000Y-150635000D01*
X47303572Y-150635000D01*
X47303572Y-154455000D01*
X55216429Y-154455000D01*
X55216429Y-150652031D01*
X88514561Y-150652031D01*
X88899678Y-151584086D01*
X89612163Y-152297816D01*
X90543545Y-152684559D01*
X91552031Y-152685439D01*
X92484086Y-152300322D01*
X93197816Y-151587837D01*
X93584559Y-150656455D01*
X93585439Y-149647969D01*
X93200322Y-148715914D01*
X92487837Y-148002184D01*
X91556455Y-147615441D01*
X90547969Y-147614561D01*
X89615914Y-147999678D01*
X88902184Y-148712163D01*
X88515441Y-149643545D01*
X88514561Y-150652031D01*
X55216429Y-150652031D01*
X55216429Y-150635000D01*
X47303572Y-150635000D01*
X25185000Y-150635000D01*
X25185000Y-146632031D01*
X28074561Y-146632031D01*
X28459678Y-147564086D01*
X29172163Y-148277816D01*
X30103545Y-148664559D01*
X31112031Y-148665439D01*
X32044086Y-148280322D01*
X32757816Y-147567837D01*
X33144559Y-146636455D01*
X33145439Y-145627969D01*
X32760322Y-144695914D01*
X32256564Y-144191275D01*
X33280331Y-144191275D01*
X33342169Y-144427042D01*
X33843122Y-144603419D01*
X34373440Y-144574664D01*
X34729831Y-144427042D01*
X34791669Y-144191275D01*
X34036000Y-143435605D01*
X33280331Y-144191275D01*
X32256564Y-144191275D01*
X32047837Y-143982184D01*
X31116455Y-143595441D01*
X30107969Y-143594561D01*
X29175914Y-143979678D01*
X28462184Y-144692163D01*
X28075441Y-145623545D01*
X28074561Y-146632031D01*
X25185000Y-146632031D01*
X25185000Y-143063122D01*
X32688581Y-143063122D01*
X32717336Y-143593440D01*
X32864958Y-143949831D01*
X33100725Y-144011669D01*
X33856395Y-143256000D01*
X34215605Y-143256000D01*
X34971275Y-144011669D01*
X35207042Y-143949831D01*
X35377958Y-143464388D01*
X52137225Y-143464388D01*
X52378398Y-144048072D01*
X52824579Y-144495032D01*
X53407841Y-144737224D01*
X54039388Y-144737775D01*
X54623072Y-144496602D01*
X55070032Y-144050421D01*
X55312224Y-143467159D01*
X55312235Y-143454388D01*
X59912225Y-143454388D01*
X60153398Y-144038072D01*
X60599579Y-144485032D01*
X61182841Y-144727224D01*
X61814388Y-144727775D01*
X62398072Y-144486602D01*
X62845032Y-144040421D01*
X63087224Y-143457159D01*
X63087775Y-142825612D01*
X62846602Y-142241928D01*
X62400421Y-141794968D01*
X61817159Y-141552776D01*
X61185612Y-141552225D01*
X60601928Y-141793398D01*
X60154968Y-142239579D01*
X59912776Y-142822841D01*
X59912225Y-143454388D01*
X55312235Y-143454388D01*
X55312775Y-142835612D01*
X55071602Y-142251928D01*
X54625421Y-141804968D01*
X54042159Y-141562776D01*
X53410612Y-141562225D01*
X52826928Y-141803398D01*
X52379968Y-142249579D01*
X52137776Y-142832841D01*
X52137225Y-143464388D01*
X35377958Y-143464388D01*
X35383419Y-143448878D01*
X35354664Y-142918560D01*
X35207042Y-142562169D01*
X34971275Y-142500331D01*
X34215605Y-143256000D01*
X33856395Y-143256000D01*
X33100725Y-142500331D01*
X32864958Y-142562169D01*
X32688581Y-143063122D01*
X25185000Y-143063122D01*
X25185000Y-142320725D01*
X33280331Y-142320725D01*
X34036000Y-143076395D01*
X34791669Y-142320725D01*
X34729831Y-142084958D01*
X34228878Y-141908581D01*
X33698560Y-141937336D01*
X33342169Y-142084958D01*
X33280331Y-142320725D01*
X25185000Y-142320725D01*
X25185000Y-141329951D01*
X27783269Y-141329951D01*
X27793256Y-141379365D01*
X27821681Y-141421001D01*
X27864065Y-141448297D01*
X27910371Y-141457000D01*
X65139044Y-141427001D01*
X65140382Y-141427393D01*
X65976437Y-141426648D01*
X66025838Y-141416598D01*
X66067437Y-141388120D01*
X66094680Y-141345702D01*
X66103324Y-141299433D01*
X66071261Y-122326959D01*
X89235000Y-122317739D01*
X89235000Y-125818555D01*
X88874995Y-126178559D01*
X88864833Y-126178550D01*
X88521057Y-126320595D01*
X88257808Y-126583385D01*
X88115162Y-126926913D01*
X88114838Y-127298879D01*
X88256883Y-127642655D01*
X88519673Y-127905904D01*
X88863201Y-128048550D01*
X89235167Y-128048874D01*
X89457673Y-127956937D01*
X89457673Y-129715487D01*
X89425481Y-129747623D01*
X89282835Y-130091151D01*
X89282511Y-130463117D01*
X89424556Y-130806893D01*
X89687346Y-131070142D01*
X90030874Y-131212788D01*
X90240764Y-131212971D01*
X90404611Y-131377104D01*
X86746588Y-131377104D01*
X86293804Y-130924320D01*
X86293844Y-130878833D01*
X86151799Y-130535057D01*
X85889009Y-130271808D01*
X85545481Y-130129162D01*
X85173515Y-130128838D01*
X84829739Y-130270883D01*
X84566490Y-130533673D01*
X84423844Y-130877201D01*
X84423520Y-131249167D01*
X84565565Y-131592943D01*
X84828355Y-131856192D01*
X85171883Y-131998838D01*
X85218759Y-131998879D01*
X85894385Y-132674505D01*
X86140947Y-132839252D01*
X86431786Y-132897104D01*
X92102159Y-132897104D01*
X92392998Y-132839252D01*
X92639560Y-132674505D01*
X93535055Y-131779010D01*
X93699802Y-131532449D01*
X93757654Y-131241609D01*
X93757654Y-128048638D01*
X94028177Y-128048874D01*
X94371953Y-127906829D01*
X94635202Y-127644039D01*
X94711029Y-127461429D01*
X94977571Y-127727971D01*
X94942060Y-127763421D01*
X94799414Y-128106949D01*
X94799090Y-128478915D01*
X94941135Y-128822691D01*
X95203925Y-129085940D01*
X95547453Y-129228586D01*
X95594329Y-129228627D01*
X96140133Y-129774431D01*
X96386695Y-129939178D01*
X96677534Y-129997030D01*
X101648970Y-129997030D01*
X101939809Y-129939178D01*
X102186371Y-129774431D01*
X102755680Y-129205122D01*
X102801167Y-129205162D01*
X103144943Y-129063117D01*
X103408192Y-128800327D01*
X103439021Y-128726083D01*
X103439021Y-144924096D01*
X102952599Y-145410518D01*
X102787852Y-145657080D01*
X102746259Y-145866182D01*
X102439946Y-146070853D01*
X102220000Y-146400026D01*
X102000054Y-146070853D01*
X101518285Y-145748946D01*
X100950000Y-145635907D01*
X100381715Y-145748946D01*
X99899946Y-146070853D01*
X99872150Y-146112452D01*
X99863162Y-146064683D01*
X99724090Y-145848559D01*
X99511890Y-145703569D01*
X99260000Y-145652560D01*
X97560000Y-145652560D01*
X97324683Y-145696838D01*
X97108559Y-145835910D01*
X96963569Y-146048110D01*
X96912560Y-146300000D01*
X96912560Y-148000000D01*
X96956838Y-148235317D01*
X97095910Y-148451441D01*
X97308110Y-148596431D01*
X97560000Y-148647440D01*
X99260000Y-148647440D01*
X99495317Y-148603162D01*
X99711441Y-148464090D01*
X99856431Y-148251890D01*
X99870086Y-148184459D01*
X99899946Y-148229147D01*
X100381715Y-148551054D01*
X100950000Y-148664093D01*
X101518285Y-148551054D01*
X102000054Y-148229147D01*
X102220000Y-147899974D01*
X102439946Y-148229147D01*
X102921715Y-148551054D01*
X103490000Y-148664093D01*
X104058285Y-148551054D01*
X104540054Y-148229147D01*
X104760000Y-147899974D01*
X104979946Y-148229147D01*
X105461715Y-148551054D01*
X106030000Y-148664093D01*
X106598285Y-148551054D01*
X107080054Y-148229147D01*
X107300000Y-147899974D01*
X107519946Y-148229147D01*
X108001715Y-148551054D01*
X108570000Y-148664093D01*
X109138285Y-148551054D01*
X109620054Y-148229147D01*
X109840000Y-147899974D01*
X110059946Y-148229147D01*
X110541715Y-148551054D01*
X111110000Y-148664093D01*
X111678285Y-148551054D01*
X112140771Y-148242031D01*
X129814561Y-148242031D01*
X130199678Y-149174086D01*
X130912163Y-149887816D01*
X131843545Y-150274559D01*
X132852031Y-150275439D01*
X133784086Y-149890322D01*
X134497816Y-149177837D01*
X134884559Y-148246455D01*
X134885439Y-147237969D01*
X134500322Y-146305914D01*
X133787837Y-145592184D01*
X132856455Y-145205441D01*
X131847969Y-145204561D01*
X130915914Y-145589678D01*
X130202184Y-146302163D01*
X129815441Y-147233545D01*
X129814561Y-148242031D01*
X112140771Y-148242031D01*
X112160054Y-148229147D01*
X112481961Y-147747378D01*
X112595000Y-147179093D01*
X112595000Y-147120907D01*
X112481961Y-146552622D01*
X112160054Y-146070853D01*
X111678285Y-145748946D01*
X111110000Y-145635907D01*
X110541715Y-145748946D01*
X110059946Y-146070853D01*
X109840000Y-146400026D01*
X109620054Y-146070853D01*
X109138285Y-145748946D01*
X108570000Y-145635907D01*
X108001715Y-145748946D01*
X107519946Y-146070853D01*
X107300000Y-146400026D01*
X107080054Y-146070853D01*
X106598285Y-145748946D01*
X106030000Y-145635907D01*
X105461715Y-145748946D01*
X104979946Y-146070853D01*
X104760000Y-146400026D01*
X104540054Y-146070853D01*
X104481196Y-146031525D01*
X104736422Y-145776299D01*
X104901169Y-145529737D01*
X104959021Y-145238898D01*
X104959021Y-143895000D01*
X120213572Y-143895000D01*
X120213572Y-147715000D01*
X124126429Y-147715000D01*
X124126429Y-143895000D01*
X120213572Y-143895000D01*
X104959021Y-143895000D01*
X104959021Y-143126428D01*
X136045000Y-143126428D01*
X136045000Y-164253572D01*
X142115000Y-164253572D01*
X142115000Y-143126428D01*
X136045000Y-143126428D01*
X104959021Y-143126428D01*
X104959021Y-134495167D01*
X124574838Y-134495167D01*
X124716883Y-134838943D01*
X124979673Y-135102192D01*
X125323201Y-135244838D01*
X125695167Y-135245162D01*
X125844889Y-135183298D01*
X126004264Y-135215000D01*
X135390000Y-135215000D01*
X135709541Y-135151439D01*
X135980434Y-134970434D01*
X137055868Y-133895000D01*
X139280715Y-133895000D01*
X139280715Y-137715000D01*
X144979286Y-137715000D01*
X144979286Y-133895000D01*
X139280715Y-133895000D01*
X137055868Y-133895000D01*
X143130434Y-127820434D01*
X143170815Y-127760000D01*
X143311439Y-127549541D01*
X143375000Y-127230000D01*
X143375000Y-113717234D01*
X143474838Y-113476799D01*
X143475162Y-113104833D01*
X143333117Y-112761057D01*
X143070327Y-112497808D01*
X142828091Y-112397222D01*
X141030434Y-110599566D01*
X140933722Y-110534945D01*
X140759541Y-110418561D01*
X140440000Y-110355000D01*
X135127234Y-110355000D01*
X134886799Y-110255162D01*
X134514833Y-110254838D01*
X134171057Y-110396883D01*
X133907808Y-110659673D01*
X133765162Y-111003201D01*
X133764838Y-111375167D01*
X133906883Y-111718943D01*
X134169673Y-111982192D01*
X134513201Y-112124838D01*
X134885167Y-112125162D01*
X135127578Y-112025000D01*
X140094132Y-112025000D01*
X141647466Y-113578335D01*
X141705000Y-113717578D01*
X141705000Y-126884132D01*
X135044132Y-133545000D01*
X126263442Y-133545000D01*
X126253805Y-133538561D01*
X125939966Y-133476134D01*
X125696799Y-133375162D01*
X125324833Y-133374838D01*
X124981057Y-133516883D01*
X124717808Y-133779673D01*
X124575162Y-134123201D01*
X124574838Y-134495167D01*
X104959021Y-134495167D01*
X104959021Y-126930000D01*
X111532560Y-126930000D01*
X111532560Y-128630000D01*
X111576838Y-128865317D01*
X111715910Y-129081441D01*
X111928110Y-129226431D01*
X112180000Y-129277440D01*
X113880000Y-129277440D01*
X114115317Y-129233162D01*
X114331441Y-129094090D01*
X114476431Y-128881890D01*
X114527440Y-128630000D01*
X114527440Y-127760000D01*
X114628846Y-127760000D01*
X114730467Y-128270882D01*
X115019858Y-128703988D01*
X115452964Y-128993379D01*
X115963846Y-129095000D01*
X116016154Y-129095000D01*
X116527036Y-128993379D01*
X116951666Y-128709652D01*
X117132796Y-128891098D01*
X117623287Y-129094768D01*
X118154383Y-129095231D01*
X118645229Y-128892418D01*
X119021098Y-128517204D01*
X119224768Y-128026713D01*
X119225231Y-127495617D01*
X119022418Y-127004771D01*
X118647204Y-126628902D01*
X118156713Y-126425232D01*
X117625617Y-126424769D01*
X117134771Y-126627582D01*
X116951678Y-126810356D01*
X116527036Y-126526621D01*
X116016154Y-126425000D01*
X115963846Y-126425000D01*
X115452964Y-126526621D01*
X115019858Y-126816012D01*
X114730467Y-127249118D01*
X114628846Y-127760000D01*
X114527440Y-127760000D01*
X114527440Y-126930000D01*
X114483162Y-126694683D01*
X114344090Y-126478559D01*
X114131890Y-126333569D01*
X113880000Y-126282560D01*
X112180000Y-126282560D01*
X111944683Y-126326838D01*
X111728559Y-126465910D01*
X111583569Y-126678110D01*
X111532560Y-126930000D01*
X104959021Y-126930000D01*
X104959021Y-124651453D01*
X104991213Y-124619317D01*
X105133859Y-124275789D01*
X105134183Y-123903823D01*
X104992138Y-123560047D01*
X104729348Y-123296798D01*
X104601171Y-123243574D01*
X106122166Y-121722579D01*
X106286913Y-121476017D01*
X106344765Y-121185178D01*
X106344765Y-117856000D01*
X117865907Y-117856000D01*
X117978946Y-118424285D01*
X118300853Y-118906054D01*
X118782622Y-119227961D01*
X119350907Y-119341000D01*
X119409093Y-119341000D01*
X119564940Y-119310000D01*
X129163000Y-119310000D01*
X129163000Y-127000000D01*
X129171685Y-127046159D01*
X129198965Y-127088553D01*
X129240590Y-127116994D01*
X129290000Y-127127000D01*
X137830000Y-127127000D01*
X137876159Y-127118315D01*
X137918553Y-127091035D01*
X137946994Y-127049410D01*
X137957000Y-127000000D01*
X137957000Y-119310000D01*
X137948315Y-119263841D01*
X137921035Y-119221447D01*
X137879410Y-119193006D01*
X137830000Y-119183000D01*
X129290000Y-119183000D01*
X129243841Y-119191685D01*
X129201447Y-119218965D01*
X129173006Y-119260590D01*
X129163000Y-119310000D01*
X119564940Y-119310000D01*
X119977378Y-119227961D01*
X120459147Y-118906054D01*
X120781054Y-118424285D01*
X120894093Y-117856000D01*
X120781054Y-117287715D01*
X120459147Y-116805946D01*
X120417548Y-116778150D01*
X120465317Y-116769162D01*
X120681441Y-116630090D01*
X120826431Y-116417890D01*
X120877440Y-116166000D01*
X120877440Y-114466000D01*
X120833162Y-114230683D01*
X120694090Y-114014559D01*
X120481890Y-113869569D01*
X120230000Y-113818560D01*
X118530000Y-113818560D01*
X118294683Y-113862838D01*
X118078559Y-114001910D01*
X117933569Y-114214110D01*
X117882560Y-114466000D01*
X117882560Y-116166000D01*
X117926838Y-116401317D01*
X118065910Y-116617441D01*
X118278110Y-116762431D01*
X118345541Y-116776086D01*
X118300853Y-116805946D01*
X117978946Y-117287715D01*
X117865907Y-117856000D01*
X106344765Y-117856000D01*
X106344765Y-115098743D01*
X106286913Y-114807904D01*
X106122166Y-114561342D01*
X104648813Y-113087989D01*
X104651172Y-113085630D01*
X104686622Y-113121141D01*
X105030150Y-113263787D01*
X105402116Y-113264111D01*
X105745892Y-113122066D01*
X106009141Y-112859276D01*
X106038343Y-112788950D01*
X120889050Y-112788950D01*
X121179889Y-112731098D01*
X121426451Y-112566351D01*
X128807401Y-105185401D01*
X128972148Y-104938839D01*
X129030000Y-104648000D01*
X129030000Y-99270000D01*
X128972148Y-98979161D01*
X128807401Y-98732599D01*
X128051210Y-97976408D01*
X128124093Y-97610000D01*
X128011054Y-97041715D01*
X127689147Y-96559946D01*
X127359974Y-96340000D01*
X127689147Y-96120054D01*
X128011054Y-95638285D01*
X128124093Y-95070000D01*
X128011054Y-94501715D01*
X127689147Y-94019946D01*
X127207378Y-93698039D01*
X126639093Y-93585000D01*
X126580907Y-93585000D01*
X126012622Y-93698039D01*
X125530853Y-94019946D01*
X125208946Y-94501715D01*
X125095907Y-95070000D01*
X125168790Y-95436408D01*
X110875198Y-109730000D01*
X106172000Y-109730000D01*
X105881160Y-109787852D01*
X105634599Y-109952599D01*
X103036610Y-112550588D01*
X102871863Y-112797150D01*
X102814011Y-113087989D01*
X102871863Y-113378828D01*
X103036610Y-113625390D01*
X104824765Y-115413545D01*
X104824765Y-117390963D01*
X103551122Y-116117320D01*
X103551162Y-116071833D01*
X103409117Y-115728057D01*
X103404393Y-115723325D01*
X103415000Y-115670000D01*
X103415000Y-115405000D01*
X103393131Y-115295057D01*
X103355245Y-115104593D01*
X103185079Y-114849921D01*
X99485153Y-111149995D01*
X99485162Y-111139833D01*
X99343117Y-110796057D01*
X99335000Y-110787926D01*
X99335000Y-105715158D01*
X104895005Y-100155153D01*
X104905167Y-100155162D01*
X105248943Y-100013117D01*
X105512192Y-99750327D01*
X105654838Y-99406799D01*
X105655162Y-99034833D01*
X105602444Y-98907246D01*
X106174000Y-99478802D01*
X106174000Y-101600000D01*
X106231852Y-101890839D01*
X106396599Y-102137401D01*
X107190000Y-102930802D01*
X107190000Y-106426000D01*
X107247852Y-106716839D01*
X107412599Y-106963401D01*
X107920599Y-107471401D01*
X108167161Y-107636148D01*
X108458000Y-107694000D01*
X109329897Y-107694000D01*
X109301162Y-107763201D01*
X109300838Y-108135167D01*
X109442883Y-108478943D01*
X109705673Y-108742192D01*
X110049201Y-108884838D01*
X110421167Y-108885162D01*
X110764943Y-108743117D01*
X111028192Y-108480327D01*
X111170838Y-108136799D01*
X111170879Y-108089923D01*
X111281401Y-107979401D01*
X111355060Y-107869162D01*
X111446148Y-107732839D01*
X111504000Y-107442000D01*
X111504000Y-98334998D01*
X111446148Y-98044159D01*
X111281401Y-97797597D01*
X107336402Y-93852598D01*
X107089840Y-93687851D01*
X106799001Y-93629999D01*
X106422885Y-93629999D01*
X106435000Y-93569093D01*
X106435000Y-93510907D01*
X106321961Y-92942622D01*
X106000054Y-92460853D01*
X105983858Y-92450031D01*
X140466561Y-92450031D01*
X140851678Y-93382086D01*
X141564163Y-94095816D01*
X142495545Y-94482559D01*
X143504031Y-94483439D01*
X144436086Y-94098322D01*
X145149816Y-93385837D01*
X145536559Y-92454455D01*
X145537439Y-91445969D01*
X145152322Y-90513914D01*
X144439837Y-89800184D01*
X143508455Y-89413441D01*
X142499969Y-89412561D01*
X141567914Y-89797678D01*
X140854184Y-90510163D01*
X140467441Y-91441545D01*
X140466561Y-92450031D01*
X105983858Y-92450031D01*
X105518285Y-92138946D01*
X104950000Y-92025907D01*
X104381715Y-92138946D01*
X103899946Y-92460853D01*
X103872150Y-92502452D01*
X103863162Y-92454683D01*
X103724090Y-92238559D01*
X103511890Y-92093569D01*
X103260000Y-92042560D01*
X101560000Y-92042560D01*
X101324683Y-92086838D01*
X101108559Y-92225910D01*
X100963569Y-92438110D01*
X100912560Y-92690000D01*
X100912560Y-94390000D01*
X100956838Y-94625317D01*
X101095910Y-94841441D01*
X101308110Y-94986431D01*
X101549820Y-95035378D01*
X99562599Y-97022599D01*
X99397852Y-97269161D01*
X99340000Y-97560000D01*
X99340000Y-98846766D01*
X99397852Y-99137605D01*
X99562599Y-99384167D01*
X99895833Y-99717401D01*
X100142395Y-99882148D01*
X100260794Y-99905699D01*
X100327171Y-99972192D01*
X100670699Y-100114838D01*
X101042665Y-100115162D01*
X101386441Y-99973117D01*
X101460565Y-99899122D01*
X101529594Y-99945245D01*
X101830000Y-100005000D01*
X102824842Y-100005000D01*
X97994921Y-104834921D01*
X97824755Y-105089593D01*
X97797446Y-105226883D01*
X97765000Y-105390000D01*
X97765000Y-110787494D01*
X97757808Y-110794673D01*
X97615162Y-111138201D01*
X97614838Y-111510167D01*
X97756883Y-111853943D01*
X98019673Y-112117192D01*
X98363201Y-112259838D01*
X98374690Y-112259848D01*
X101832669Y-115717827D01*
X101823808Y-115726673D01*
X101681162Y-116070201D01*
X101680838Y-116442167D01*
X101822883Y-116785943D01*
X101886817Y-116849989D01*
X101490147Y-116849989D01*
X96568774Y-111928616D01*
X96642192Y-111855327D01*
X96784838Y-111511799D01*
X96785162Y-111139833D01*
X96643117Y-110796057D01*
X96608928Y-110761809D01*
X96575245Y-110592472D01*
X96405079Y-110337799D01*
X87875000Y-101807720D01*
X87875000Y-97196250D01*
X88140054Y-97019147D01*
X88360000Y-96689974D01*
X88579946Y-97019147D01*
X89061715Y-97341054D01*
X89630000Y-97454093D01*
X90198285Y-97341054D01*
X90680054Y-97019147D01*
X91001961Y-96537378D01*
X91115000Y-95969093D01*
X91115000Y-95910907D01*
X91001961Y-95342622D01*
X90680054Y-94860853D01*
X90198285Y-94538946D01*
X89630000Y-94425907D01*
X89061715Y-94538946D01*
X88579946Y-94860853D01*
X88360000Y-95190026D01*
X88140054Y-94860853D01*
X87658285Y-94538946D01*
X87090000Y-94425907D01*
X86521715Y-94538946D01*
X86039946Y-94860853D01*
X85820000Y-95190026D01*
X85600054Y-94860853D01*
X85118285Y-94538946D01*
X84550000Y-94425907D01*
X84183592Y-94498790D01*
X83635401Y-93950599D01*
X83388839Y-93785852D01*
X83098000Y-93728000D01*
X78740000Y-93728000D01*
X78449160Y-93785852D01*
X78202599Y-93950599D01*
X77710638Y-94442560D01*
X76080000Y-94442560D01*
X75844683Y-94486838D01*
X75628559Y-94625910D01*
X75483569Y-94838110D01*
X75432560Y-95090000D01*
X75432560Y-96790000D01*
X75476838Y-97025317D01*
X75615910Y-97241441D01*
X75828110Y-97386431D01*
X76080000Y-97437440D01*
X77566957Y-97437440D01*
X77567600Y-97438402D01*
X77948599Y-97819401D01*
X78195161Y-97984148D01*
X78486000Y-98042000D01*
X79441198Y-98042000D01*
X96591428Y-115192230D01*
X96489808Y-115293673D01*
X96347162Y-115637201D01*
X96346838Y-116009167D01*
X96488883Y-116352943D01*
X96522000Y-116386118D01*
X96522000Y-117370275D01*
X94048782Y-119843493D01*
X94048782Y-116148782D01*
X93990930Y-115857943D01*
X93899091Y-115720496D01*
X93899162Y-115638833D01*
X93757117Y-115295057D01*
X93494327Y-115031808D01*
X93150799Y-114889162D01*
X92778833Y-114888838D01*
X92455629Y-115022383D01*
X92134799Y-114889162D01*
X91762833Y-114888838D01*
X91419057Y-115030883D01*
X91155808Y-115293673D01*
X91013162Y-115637201D01*
X91012838Y-116009167D01*
X91154883Y-116352943D01*
X91417673Y-116616192D01*
X91761201Y-116758838D01*
X91808077Y-116758879D01*
X92053989Y-117004791D01*
X92053989Y-118614959D01*
X91914833Y-118614838D01*
X91571057Y-118756883D01*
X91307808Y-119019673D01*
X91217269Y-119237714D01*
X91217269Y-118610000D01*
X91207263Y-118560590D01*
X91178822Y-118518965D01*
X91136428Y-118491685D01*
X91090117Y-118483000D01*
X90805000Y-118483341D01*
X90805000Y-114817506D01*
X90812192Y-114810327D01*
X90954838Y-114466799D01*
X90955162Y-114094833D01*
X90813117Y-113751057D01*
X90550327Y-113487808D01*
X90206799Y-113345162D01*
X89834833Y-113344838D01*
X89491057Y-113486883D01*
X89227808Y-113749673D01*
X89085162Y-114093201D01*
X89084838Y-114465167D01*
X89226883Y-114808943D01*
X89235000Y-114817074D01*
X89235000Y-118485217D01*
X66117269Y-118512848D01*
X66117269Y-115160000D01*
X66107263Y-115110590D01*
X66078822Y-115068965D01*
X66036428Y-115041685D01*
X65990236Y-115033000D01*
X27920236Y-115043000D01*
X27870828Y-115053019D01*
X27829211Y-115081471D01*
X27801942Y-115123872D01*
X27793269Y-115169951D01*
X27783269Y-141329951D01*
X25185000Y-141329951D01*
X25185000Y-110682031D01*
X28054561Y-110682031D01*
X28439678Y-111614086D01*
X29152163Y-112327816D01*
X30083545Y-112714559D01*
X31092031Y-112715439D01*
X32024086Y-112330322D01*
X32737816Y-111617837D01*
X33124559Y-110686455D01*
X33125439Y-109677969D01*
X32740322Y-108745914D01*
X32027837Y-108032184D01*
X31096455Y-107645441D01*
X30087969Y-107644561D01*
X29155914Y-108029678D01*
X28442184Y-108742163D01*
X28055441Y-109673545D01*
X28054561Y-110682031D01*
X25185000Y-110682031D01*
X25185000Y-105755593D01*
X31724012Y-105755593D01*
X31865478Y-106058782D01*
X32601955Y-106343737D01*
X33391418Y-106325164D01*
X34034522Y-106058782D01*
X34175988Y-105755593D01*
X32950000Y-104529605D01*
X31724012Y-105755593D01*
X25185000Y-105755593D01*
X25185000Y-104001955D01*
X30956263Y-104001955D01*
X30974836Y-104791418D01*
X31241218Y-105434522D01*
X31544407Y-105575988D01*
X32770395Y-104350000D01*
X33129605Y-104350000D01*
X34355593Y-105575988D01*
X34658782Y-105434522D01*
X34913961Y-104775000D01*
X64510907Y-104775000D01*
X64623946Y-105343285D01*
X64945853Y-105825054D01*
X65427622Y-106146961D01*
X65995907Y-106260000D01*
X66054093Y-106260000D01*
X66622378Y-106146961D01*
X67104147Y-105825054D01*
X67426054Y-105343285D01*
X67539093Y-104775000D01*
X67426054Y-104206715D01*
X67104147Y-103724946D01*
X67062548Y-103697150D01*
X67110317Y-103688162D01*
X67326441Y-103549090D01*
X67471431Y-103336890D01*
X67522440Y-103085000D01*
X67522440Y-101385000D01*
X67478162Y-101149683D01*
X67339090Y-100933559D01*
X67126890Y-100788569D01*
X66875000Y-100737560D01*
X65175000Y-100737560D01*
X64939683Y-100781838D01*
X64723559Y-100920910D01*
X64578569Y-101133110D01*
X64527560Y-101385000D01*
X64527560Y-103085000D01*
X64571838Y-103320317D01*
X64710910Y-103536441D01*
X64923110Y-103681431D01*
X64990541Y-103695086D01*
X64945853Y-103724946D01*
X64623946Y-104206715D01*
X64510907Y-104775000D01*
X34913961Y-104775000D01*
X34943737Y-104698045D01*
X34925164Y-103908582D01*
X34658782Y-103265478D01*
X34355593Y-103124012D01*
X33129605Y-104350000D01*
X32770395Y-104350000D01*
X31544407Y-103124012D01*
X31241218Y-103265478D01*
X30956263Y-104001955D01*
X25185000Y-104001955D01*
X25185000Y-102944407D01*
X31724012Y-102944407D01*
X32950000Y-104170395D01*
X34175988Y-102944407D01*
X34034522Y-102641218D01*
X33298045Y-102356263D01*
X32508582Y-102374836D01*
X31865478Y-102641218D01*
X31724012Y-102944407D01*
X25185000Y-102944407D01*
X25185000Y-95285000D01*
X26785000Y-95285000D01*
X26785000Y-101055000D01*
X30605000Y-101055000D01*
X30605000Y-100598764D01*
X34850841Y-100598764D01*
X34920059Y-100840742D01*
X35442780Y-101027155D01*
X35997049Y-100999341D01*
X36379941Y-100840742D01*
X36449159Y-100598764D01*
X35650000Y-99799605D01*
X34850841Y-100598764D01*
X30605000Y-100598764D01*
X30605000Y-99412780D01*
X34242845Y-99412780D01*
X34270659Y-99967049D01*
X34429258Y-100349941D01*
X34671236Y-100419159D01*
X35470395Y-99620000D01*
X34671236Y-98820841D01*
X34429258Y-98890059D01*
X34242845Y-99412780D01*
X30605000Y-99412780D01*
X30605000Y-97356265D01*
X34254758Y-97356265D01*
X34466687Y-97869172D01*
X34858764Y-98261934D01*
X35054934Y-98343391D01*
X34920059Y-98399258D01*
X34850841Y-98641236D01*
X35650000Y-99440395D01*
X36449159Y-98641236D01*
X36379941Y-98399258D01*
X36235138Y-98347618D01*
X36439172Y-98263313D01*
X36650024Y-98052829D01*
X36858764Y-98261934D01*
X37070738Y-98349954D01*
X36860828Y-98436687D01*
X36468066Y-98828764D01*
X36359581Y-99090024D01*
X35829605Y-99620000D01*
X36359595Y-100149990D01*
X36466687Y-100409172D01*
X36858764Y-100801934D01*
X37371300Y-101014758D01*
X37926265Y-101015242D01*
X38439172Y-100803313D01*
X38831934Y-100411236D01*
X39044758Y-99898700D01*
X39045242Y-99343735D01*
X38833313Y-98830828D01*
X38441236Y-98438066D01*
X38229262Y-98350046D01*
X38439172Y-98263313D01*
X38831934Y-97871236D01*
X39044758Y-97358700D01*
X39045242Y-96803735D01*
X38833313Y-96290828D01*
X38441236Y-95898066D01*
X37928700Y-95685242D01*
X37373735Y-95684758D01*
X36860828Y-95896687D01*
X36649976Y-96107171D01*
X36441236Y-95898066D01*
X35928700Y-95685242D01*
X35373735Y-95684758D01*
X34860828Y-95896687D01*
X34468066Y-96288764D01*
X34255242Y-96801300D01*
X34254758Y-97356265D01*
X30605000Y-97356265D01*
X30605000Y-95285000D01*
X26785000Y-95285000D01*
X25185000Y-95285000D01*
X25185000Y-93755593D01*
X31724012Y-93755593D01*
X31865478Y-94058782D01*
X32601955Y-94343737D01*
X33391418Y-94325164D01*
X34034522Y-94058782D01*
X34175988Y-93755593D01*
X32950000Y-92529605D01*
X31724012Y-93755593D01*
X25185000Y-93755593D01*
X25185000Y-92001955D01*
X30956263Y-92001955D01*
X30974836Y-92791418D01*
X31241218Y-93434522D01*
X31544407Y-93575988D01*
X32770395Y-92350000D01*
X33129605Y-92350000D01*
X34355593Y-93575988D01*
X34658782Y-93434522D01*
X34943737Y-92698045D01*
X34925164Y-91908582D01*
X34658782Y-91265478D01*
X34355593Y-91124012D01*
X33129605Y-92350000D01*
X32770395Y-92350000D01*
X31544407Y-91124012D01*
X31241218Y-91265478D01*
X30956263Y-92001955D01*
X25185000Y-92001955D01*
X25185000Y-90944407D01*
X31724012Y-90944407D01*
X32950000Y-92170395D01*
X34175988Y-90944407D01*
X34034522Y-90641218D01*
X33298045Y-90356263D01*
X32508582Y-90374836D01*
X31865478Y-90641218D01*
X31724012Y-90944407D01*
X25185000Y-90944407D01*
X25185000Y-88340000D01*
X146864000Y-88340000D01*
X146864000Y-169978000D01*
G36*
X97538000Y-126437537D02*
X97505808Y-126469673D01*
X97363162Y-126813201D01*
X97363022Y-126973853D01*
X96389000Y-125999830D01*
X96389000Y-123952000D01*
X96321633Y-123613325D01*
X96129790Y-123326210D01*
X96129787Y-123326208D01*
X95621790Y-122818210D01*
X95544722Y-122766715D01*
X95334675Y-122626367D01*
X95278484Y-122615190D01*
X94996000Y-122558999D01*
X94995995Y-122559000D01*
X94073061Y-122559000D01*
X94073056Y-122558999D01*
X93757654Y-122621738D01*
X93757654Y-122284225D01*
X97538000Y-118503879D01*
X97538000Y-126437537D01*
X97538000Y-126437537D01*
G37*
X97538000Y-126437537D02*
X97505808Y-126469673D01*
X97363162Y-126813201D01*
X97363022Y-126973853D01*
X96389000Y-125999830D01*
X96389000Y-123952000D01*
X96321633Y-123613325D01*
X96129790Y-123326210D01*
X96129787Y-123326208D01*
X95621790Y-122818210D01*
X95544722Y-122766715D01*
X95334675Y-122626367D01*
X95278484Y-122615190D01*
X94996000Y-122558999D01*
X94995995Y-122559000D01*
X94073061Y-122559000D01*
X94073056Y-122558999D01*
X93757654Y-122621738D01*
X93757654Y-122284225D01*
X97538000Y-118503879D01*
X97538000Y-126437537D01*
G36*
X99381201Y-119806838D02*
X99446370Y-119806895D01*
X99536883Y-120025953D01*
X99799673Y-120289202D01*
X100143201Y-120431848D01*
X100515167Y-120432172D01*
X100858943Y-120290127D01*
X100892118Y-120257010D01*
X102731229Y-120257010D01*
X102950878Y-120476659D01*
X102950838Y-120522146D01*
X103092883Y-120865922D01*
X103243462Y-121016764D01*
X101943911Y-122316315D01*
X101773745Y-122570987D01*
X101745384Y-122713569D01*
X101742097Y-122730094D01*
X101706798Y-122765331D01*
X101564152Y-123108859D01*
X101563828Y-123480825D01*
X101705873Y-123824601D01*
X101775306Y-123894156D01*
X100505693Y-125163769D01*
X100436799Y-125135162D01*
X100064833Y-125134838D01*
X99721057Y-125276883D01*
X99457808Y-125539673D01*
X99315162Y-125883201D01*
X99314838Y-126255167D01*
X99365000Y-126376569D01*
X99365000Y-126841832D01*
X99233024Y-126973808D01*
X99233162Y-126814833D01*
X99091117Y-126471057D01*
X99058000Y-126437882D01*
X99058000Y-119672633D01*
X99381201Y-119806838D01*
X99381201Y-119806838D01*
G37*
X99381201Y-119806838D02*
X99446370Y-119806895D01*
X99536883Y-120025953D01*
X99799673Y-120289202D01*
X100143201Y-120431848D01*
X100515167Y-120432172D01*
X100858943Y-120290127D01*
X100892118Y-120257010D01*
X102731229Y-120257010D01*
X102950878Y-120476659D01*
X102950838Y-120522146D01*
X103092883Y-120865922D01*
X103243462Y-121016764D01*
X101943911Y-122316315D01*
X101773745Y-122570987D01*
X101745384Y-122713569D01*
X101742097Y-122730094D01*
X101706798Y-122765331D01*
X101564152Y-123108859D01*
X101563828Y-123480825D01*
X101705873Y-123824601D01*
X101775306Y-123894156D01*
X100505693Y-125163769D01*
X100436799Y-125135162D01*
X100064833Y-125134838D01*
X99721057Y-125276883D01*
X99457808Y-125539673D01*
X99315162Y-125883201D01*
X99314838Y-126255167D01*
X99365000Y-126376569D01*
X99365000Y-126841832D01*
X99233024Y-126973808D01*
X99233162Y-126814833D01*
X99091117Y-126471057D01*
X99058000Y-126437882D01*
X99058000Y-119672633D01*
X99381201Y-119806838D01*
G36*
X125208946Y-98178285D02*
X125530853Y-98660054D01*
X125572452Y-98687850D01*
X125524683Y-98696838D01*
X125308559Y-98835910D01*
X125163569Y-99048110D01*
X125112560Y-99300000D01*
X125112560Y-101000000D01*
X125156838Y-101235317D01*
X125295910Y-101451441D01*
X125508110Y-101596431D01*
X125760000Y-101647440D01*
X125850000Y-101647440D01*
X125850000Y-105231198D01*
X120546253Y-110534945D01*
X112219857Y-110534945D01*
X125104019Y-97650783D01*
X125208946Y-98178285D01*
X125208946Y-98178285D01*
G37*
X125208946Y-98178285D02*
X125530853Y-98660054D01*
X125572452Y-98687850D01*
X125524683Y-98696838D01*
X125308559Y-98835910D01*
X125163569Y-99048110D01*
X125112560Y-99300000D01*
X125112560Y-101000000D01*
X125156838Y-101235317D01*
X125295910Y-101451441D01*
X125508110Y-101596431D01*
X125760000Y-101647440D01*
X125850000Y-101647440D01*
X125850000Y-105231198D01*
X120546253Y-110534945D01*
X112219857Y-110534945D01*
X125104019Y-97650783D01*
X125208946Y-98178285D01*
G36*
X83499946Y-97019147D02*
X83981715Y-97341054D01*
X84550000Y-97454093D01*
X85118285Y-97341054D01*
X85600054Y-97019147D01*
X85820000Y-96689974D01*
X86039946Y-97019147D01*
X86305000Y-97196250D01*
X86305000Y-101664842D01*
X82065158Y-97425000D01*
X82137002Y-97425000D01*
X82137002Y-97260156D01*
X82366890Y-97381476D01*
X82776924Y-97211645D01*
X83205183Y-96821358D01*
X83272298Y-96678447D01*
X83499946Y-97019147D01*
X83499946Y-97019147D01*
G37*
X83499946Y-97019147D02*
X83981715Y-97341054D01*
X84550000Y-97454093D01*
X85118285Y-97341054D01*
X85600054Y-97019147D01*
X85820000Y-96689974D01*
X86039946Y-97019147D01*
X86305000Y-97196250D01*
X86305000Y-101664842D01*
X82065158Y-97425000D01*
X82137002Y-97425000D01*
X82137002Y-97260156D01*
X82366890Y-97381476D01*
X82776924Y-97211645D01*
X83205183Y-96821358D01*
X83272298Y-96678447D01*
X83499946Y-97019147D01*
G36*
X82137000Y-95813000D02*
X82157000Y-95813000D01*
X82157000Y-96067000D01*
X82137000Y-96067000D01*
X82137000Y-96087000D01*
X81883000Y-96087000D01*
X81883000Y-96067000D01*
X81863000Y-96067000D01*
X81863000Y-95813000D01*
X81883000Y-95813000D01*
X81883000Y-95793000D01*
X82137000Y-95793000D01*
X82137000Y-95813000D01*
X82137000Y-95813000D01*
G37*
X82137000Y-95813000D02*
X82157000Y-95813000D01*
X82157000Y-96067000D01*
X82137000Y-96067000D01*
X82137000Y-96087000D01*
X81883000Y-96087000D01*
X81883000Y-96067000D01*
X81863000Y-96067000D01*
X81863000Y-95813000D01*
X81883000Y-95813000D01*
X81883000Y-95793000D01*
X82137000Y-95793000D01*
X82137000Y-95813000D01*
M02*
