M48
;DRILL file {KiCad 4.0.4-stable} date 12/06/17 10:46:54
;FORMAT={-:-/ absolute / metric / decimal}
FMAT,2
METRIC,TZ
T1C0.300
T2C0.400
T3C0.600
T4C0.700
T5C0.813
T6C0.900
T7C1.000
T8C1.016
T9C1.200
T10C1.320
T11C2.200
T12C6.000
T13C0.900
%
G90
G05
M71
T1
X14.25Y49.64
X14.39Y30.61
X14.43Y47.45
X16.81Y49.68
X19.35Y49.72
X21.67Y47.48
X21.73Y49.71
X23.01Y17.96
X24.47Y46.25
X24.53Y47.51
X27.89Y15.57
X32.29Y47.51
X33.87Y45.93
X36.89Y59.5
X39.71Y48.14
X40.613Y48.009
X42.34Y34.39
X42.34Y32.4
X42.35Y30.9
X45.31Y43.8
X45.508Y36.736
X45.93Y37.25
X48.81Y31.65
X48.82Y34.52
X50.64Y38.04
X50.65Y36.53
X52.45Y58.06
X53.18Y38.67
X53.99Y40.86
X55.51Y32.44
X55.57Y35.95
X55.69Y40.825
X56.28Y56.71
X56.71Y44.97
X57.19Y32.54
X57.6Y38.64
X57.62Y34.05
X57.69Y42.28
X58.76Y43.91
X58.78Y34.418
X59.42Y36.74
X59.48Y42.52
X59.94Y40.1
X59.98Y36.08
X60.11Y35.11
X60.14Y31.14
X60.16Y42.5
X60.49Y20.42
X60.55Y11.09
X60.6Y0.79
X60.93Y32.21
X61.19Y44.375
X61.24Y43.08
X61.43Y62.08
X61.57Y63.51
X61.92Y33.15
X61.96Y42.19
X62.16Y31.16
X62.96Y40.85
X63.58Y42.43
X64.11Y40.49
X64.3Y43.84
X64.43Y65.86
X64.46Y30.94
X65.26Y45.44
X65.54Y63.53
X65.95Y40.74
X66.02Y44.91
X66.77Y41.5
X66.82Y44.915
X66.99Y58.22
X66.99Y49.5
X66.99Y51.49
X67.09Y38.54
X67.15Y37.04
X67.62Y44.06
X67.82Y0.83
X68.22Y58.23
X68.22Y51.48
X68.27Y48.15
X68.27Y40.38
X68.61Y36.04
X68.86Y48.73
X68.88Y33.55
X69.171Y47.21
X69.34Y51.49
X69.45Y49.31
X69.48Y34.36
X69.49Y63.62
X69.52Y58.08
X69.6Y38.04
X69.97Y46.4
X70.01Y36.54
X70.04Y49.82
X70.6Y50.37
X71.04Y32.7
X71.46Y49.5
X71.6Y44.12
X71.67Y45.92
X72.271Y48.669
X72.28Y46.48
X72.39Y44.94
X72.39Y41.5
X72.8Y47.06
X73.33Y47.61
X73.49Y64.86
X74.22Y46.83
X74.38Y45.21
X74.39Y43.49
X74.98Y34.32
X75.03Y66.22
X75.59Y64.18
X76.08Y33.04
X76.392Y30.862
X76.45Y54.57
X76.96Y53.28
X77.28Y27.
X77.28Y25.17
X77.58Y65.29
X77.7Y50.3
X77.9Y32.74
X79.57Y23.7
X80.51Y26.12
X80.55Y26.965
X80.55Y22.87
X80.56Y28.86
X80.74Y34.34
X80.84Y0.77
X81.98Y54.57
X82.13Y33.84
X82.5Y35.75
X82.61Y32.75
X82.82Y37.78
X83.315Y34.46
X83.59Y31.58
X83.6Y29.87
X84.06Y43.44
X84.08Y45.93
X84.11Y65.42
X84.13Y61.9
X84.14Y57.17
X84.24Y69.19
X84.98Y37.78
X85.08Y36.11
X85.11Y34.2
X86.24Y53.23
X86.38Y36.58
X86.39Y35.47
X86.48Y55.86
X86.58Y33.16
X86.6Y42.56
X86.62Y61.87
X86.74Y50.14
X86.78Y65.49
X87.02Y34.55
X87.33Y54.54
X87.35Y52.09
X88.46Y20.23
X88.81Y34.56
X88.83Y33.24
X88.84Y36.35
X88.99Y11.17
X89.18Y54.49
X89.19Y51.76
X89.2Y61.98
X89.22Y65.47
X89.98Y46.91
X90.59Y39.83
X91.49Y39.81
X91.51Y39.02
X91.63Y49.09
X91.9Y38.46
X92.21Y43.03
X92.43Y12.53
X92.94Y40.4
X92.94Y36.5
X93.5Y45.89
X93.61Y48.09
X95.38Y4.98
X95.87Y45.86
X95.94Y41.77
X98.44Y10.09
X98.45Y20.22
X98.85Y0.84
T2
X1.06Y5.14
X1.13Y25.28
X1.18Y56.48
X1.18Y40.3
X1.23Y48.36
X1.23Y32.89
X1.23Y16.46
X5.14Y44.05
X5.14Y36.42
X5.14Y32.77
X5.24Y27.11
X5.59Y48.38
X5.7Y14.99
X7.31Y46.71
X7.98Y56.63
X8.21Y51.32
X8.47Y20.09
X8.91Y28.56
X9.Y48.77
X9.08Y23.51
X9.9Y13.59
X10.45Y44.17
X10.5Y32.77
X11.66Y37.16
X11.66Y28.61
X13.67Y1.22
X14.64Y46.23
X14.97Y56.6
X15.45Y16.46
X16.49Y20.11
X17.76Y18.07
X19.02Y32.73
X19.35Y12.34
X19.36Y3.31
X20.52Y4.98
X20.82Y62.76
X20.95Y69.13
X21.67Y46.23
X21.89Y53.66
X22.05Y1.265
X23.01Y60.11
X23.07Y44.19
X23.08Y9.4
X23.08Y5.83
X24.51Y55.65
X24.53Y56.86
X24.55Y59.46
X24.56Y60.78
X24.56Y58.16
X25.01Y54.46
X25.38Y28.59
X25.58Y37.19
X25.72Y55.63
X26.02Y56.89
X26.39Y58.17
X26.701Y59.451
X26.9Y9.1
X27.05Y60.7
X27.05Y7.19
X28.13Y28.64
X28.49Y19.03
X28.97Y24.51
X29.11Y32.72
X29.77Y50.
X30.611Y50.811
X31.19Y69.03
X31.28Y24.24
X31.404Y51.614
X32.176Y52.422
X32.22Y2.04
X32.59Y21.4
X32.89Y14.76
X32.996Y53.256
X33.12Y25.96
X33.62Y29.15
X33.95Y44.77
X35.02Y53.03
X35.05Y46.36
X35.35Y11.76
X35.56Y13.98
X36.259Y46.759
X36.47Y53.02
X36.57Y17.65
X37.321Y47.253
X37.33Y69.
X38.27Y62.15
X38.35Y31.58
X38.35Y12.62
X38.62Y47.63
X39.31Y12.66
X39.75Y10.21
X39.79Y52.81
X40.45Y57.11
X40.89Y8.44
X40.98Y15.78
X41.34Y48.07
X41.35Y44.76
X42.33Y19.78
X42.48Y61.68
X42.74Y45.18
X42.89Y5.52
X42.98Y12.89
X43.05Y37.94
X43.06Y8.64
X43.32Y64.33
X43.42Y69.09
X45.35Y23.04
X46.18Y26.16
X47.89Y24.62
X48.81Y13.83
X48.84Y16.07
X50.33Y47.95
X50.33Y45.13
X50.48Y1.22
X52.41Y41.76
X54.01Y26.12
X54.45Y34.94
X54.45Y32.44
X55.36Y65.48
X55.42Y38.17
X57.45Y43.74
X57.95Y28.24
X58.64Y55.44
X58.95Y1.23
X59.02Y8.64
X59.55Y58.47
X60.45Y28.24
X61.01Y26.09
X61.01Y23.82
X62.35Y46.49
X63.09Y69.35
X63.32Y26.07
X63.47Y23.8
X63.78Y60.22
X64.45Y28.25
X64.95Y9.99
X64.95Y2.29
X65.35Y21.79
X66.95Y28.25
X68.67Y19.2
X69.282Y43.438
X69.6Y40.54
X70.83Y13.65
X71.45Y69.27
X71.58Y21.7
X73.92Y15.93
X74.42Y36.86
X74.88Y13.73
X75.09Y30.71
X75.09Y22.83
X75.34Y1.95
X75.43Y35.88
X77.78Y14.78
X79.02Y16.59
X79.22Y19.27
X79.28Y41.82
X80.52Y40.87
X80.78Y14.9
X81.52Y35.89
X81.59Y4.62
X82.98Y21.8
X83.07Y18.89
X83.1Y11.2
X85.88Y16.59
X85.96Y44.42
X86.39Y1.93
X86.51Y39.24
X88.46Y44.42
X88.81Y49.67
X88.865Y47.115
X88.91Y15.01
X89.27Y69.19
X90.5Y44.9
X92.3Y21.85
X92.47Y17.5
X94.11Y41.59
X95.98Y38.94
X98.55Y36.8
X98.55Y21.73
X98.59Y45.75
X98.6Y68.89
X98.63Y28.39
X98.67Y60.94
X98.67Y53.7
T3
X75.325Y4.615
X76.825Y4.615
X78.325Y4.615
X79.825Y4.615
X86.375Y4.615
X87.875Y4.615
X89.375Y4.615
X90.875Y4.615
T4
X4.75Y9.29
X4.75Y6.73
X49.02Y28.61
X50.13Y26.97
X57.57Y18.04
X62.65Y18.04
T5
X57.56Y12.49
X57.57Y4.79
X62.64Y12.49
X62.65Y4.79
T6
X72.25Y17.22
X72.25Y14.68
X72.25Y12.14
X94.29Y17.24
X94.29Y14.7
X94.29Y12.16
T7
X10.45Y50.86
X11.42Y24.34
X12.99Y50.86
X13.96Y24.34
X15.53Y50.86
X16.5Y24.34
X18.07Y50.86
X20.61Y50.86
X23.15Y50.86
X25.1Y21.94
X25.11Y17.54
X27.64Y21.94
X27.65Y17.54
X30.18Y21.94
X30.19Y17.54
X40.325Y41.81
X40.325Y39.27
X40.325Y36.73
X40.325Y34.19
X40.325Y31.65
X40.325Y29.11
X43.65Y21.33
X46.19Y21.33
X60.84Y22.27
X63.56Y22.27
X66.59Y61.05
X69.3Y8.07
X69.3Y5.53
X69.3Y2.99
X69.44Y61.07
X71.98Y61.07
X73.73Y8.24
X76.27Y8.24
X78.81Y8.24
X81.35Y8.24
X84.85Y8.24
X87.39Y8.24
X87.96Y53.3
X89.93Y8.24
X90.5Y53.3
X92.47Y8.24
T8
X77.8Y63.23
X77.81Y67.34
X80.34Y63.23
X80.35Y67.34
X82.88Y63.23
X82.89Y67.34
X85.42Y63.23
X85.43Y67.34
X87.96Y63.23
X87.97Y67.34
X90.5Y63.23
X90.51Y67.34
T9
X87.2Y30.94
X87.2Y28.4
X87.2Y25.86
X87.2Y23.32
T10
X9.4Y4.69
X14.4Y4.69
T11
X2.8Y66.99
X2.8Y2.99
X96.8Y66.99
X96.8Y2.99
T12
X49.51Y60.43
T13
X39.49Y4.49
X43.89Y4.49
T0
M30
