%FSLAX45Y45*%
G04 Gerber Fmt 4.5, Leading zero omitted, Abs format (unit mm)*
G04 Created by KiCad (PCBNEW 4.0.4-stable) date 09/22/17 06:06:12*
%MOMM*%
%LPD*%
G01*
G04 APERTURE LIST*
%ADD10C,0.127000*%
%ADD11C,0.150000*%
%ADD12C,0.200000*%
%ADD13C,0.300000*%
G04 APERTURE END LIST*
D10*
D11*
X29718000Y0D02*
X29540200Y0D01*
X14757400Y-17067500D02*
X14757400Y-8762494D01*
X2447500Y-17068800D02*
X14757500Y-17068800D01*
X2447500Y-8762497D02*
X2447500Y-17068802D01*
X14757501Y-8763000D02*
X2447500Y-8763000D01*
D12*
X4220000Y-9241000D02*
X4260000Y-9281000D01*
X4260000Y-9241000D02*
X4220000Y-9281000D01*
X6642000Y-16621000D02*
X6682000Y-16661000D01*
X6682000Y-16621000D02*
X6642000Y-16661000D01*
X6646000Y-16157000D02*
X6686000Y-16197000D01*
X6686000Y-16157000D02*
X6646000Y-16197000D01*
X6650000Y-9448000D02*
X6690000Y-9488000D01*
X6690000Y-9448000D02*
X6650000Y-9488000D01*
X6722000Y-15725000D02*
X6762000Y-15765000D01*
X6762000Y-15725000D02*
X6722000Y-15765000D01*
X7235000Y-15455000D02*
X7275000Y-15495000D01*
X7275000Y-15455000D02*
X7235000Y-15495000D01*
X7964000Y-14116000D02*
X8004000Y-14156000D01*
X8004000Y-14116000D02*
X7964000Y-14156000D01*
X8415000Y-12640000D02*
X8455000Y-12680000D01*
X8455000Y-12640000D02*
X8415000Y-12680000D01*
X8455000Y-9845000D02*
X8495000Y-9885000D01*
X8495000Y-9845000D02*
X8455000Y-9885000D01*
X8515868Y-13086400D02*
X8555868Y-13126400D01*
X8555868Y-13086400D02*
X8515868Y-13126400D01*
X8612000Y-16341000D02*
X8652000Y-16381000D01*
X8652000Y-16341000D02*
X8612000Y-16381000D01*
X8756000Y-15192000D02*
X8796000Y-15232000D01*
X8796000Y-15192000D02*
X8756000Y-15232000D01*
X8885000Y-12691371D02*
X8925000Y-12731371D01*
X8925000Y-12691371D02*
X8885000Y-12731371D01*
X8925000Y-11145000D02*
X8965000Y-11185000D01*
X8965000Y-11145000D02*
X8925000Y-11185000D01*
X8982000Y-11408000D02*
X9022000Y-11448000D01*
X9022000Y-11408000D02*
X8982000Y-11448000D01*
X9001767Y-13007795D02*
X9041767Y-13047795D01*
X9041767Y-13007795D02*
X9001767Y-13047795D01*
X9075000Y-13040000D02*
X9115000Y-13080000D01*
X9115000Y-13040000D02*
X9075000Y-13080000D01*
X9145000Y-13125000D02*
X9185000Y-13165000D01*
X9185000Y-13125000D02*
X9145000Y-13165000D01*
X9174800Y-11562400D02*
X9214800Y-11602400D01*
X9214800Y-11562400D02*
X9174800Y-11602400D01*
X9190000Y-11935000D02*
X9230000Y-11975000D01*
X9230000Y-11935000D02*
X9190000Y-11975000D01*
X9198898Y-12037873D02*
X9238898Y-12077873D01*
X9238898Y-12037873D02*
X9198898Y-12077873D01*
X9217265Y-13033418D02*
X9257265Y-13073418D01*
X9257265Y-13033418D02*
X9217265Y-13073418D01*
X9276400Y-11562400D02*
X9316400Y-11602400D01*
X9316400Y-11562400D02*
X9276400Y-11602400D01*
X9364301Y-12691371D02*
X9404301Y-12731371D01*
X9404301Y-12691371D02*
X9364301Y-12731371D01*
X9405000Y-11905000D02*
X9445000Y-11945000D01*
X9445000Y-11905000D02*
X9405000Y-11945000D01*
X9427265Y-13147215D02*
X9467265Y-13187215D01*
X9467265Y-13147215D02*
X9427265Y-13187215D01*
X9439541Y-12399401D02*
X9479541Y-12439401D01*
X9479541Y-12399401D02*
X9439541Y-12439401D01*
X9538000Y-9340000D02*
X9578000Y-9380000D01*
X9578000Y-9340000D02*
X9538000Y-9380000D01*
X9553425Y-12809375D02*
X9593425Y-12849375D01*
X9593425Y-12809375D02*
X9553425Y-12849375D01*
X9565000Y-11112500D02*
X9605000Y-11152500D01*
X9605000Y-11112500D02*
X9565000Y-11152500D01*
X9630000Y-12125000D02*
X9670000Y-12165000D01*
X9670000Y-12125000D02*
X9630000Y-12165000D01*
X9708200Y-11562400D02*
X9748200Y-11602400D01*
X9748200Y-11562400D02*
X9708200Y-11602400D01*
X9809800Y-12680000D02*
X9849800Y-12720000D01*
X9849800Y-12680000D02*
X9809800Y-12720000D01*
X9835000Y-11112500D02*
X9875000Y-11152500D01*
X9875000Y-11112500D02*
X9835000Y-11152500D01*
X9915000Y-12120000D02*
X9955000Y-12160000D01*
X9955000Y-12120000D02*
X9915000Y-12160000D01*
X9936800Y-11867200D02*
X9976800Y-11907200D01*
X9976800Y-11867200D02*
X9936800Y-11907200D01*
X10005000Y-12587000D02*
X10045000Y-12627000D01*
X10045000Y-12587000D02*
X10005000Y-12627000D01*
X10013000Y-11929701D02*
X10053000Y-11969701D01*
X10053000Y-11929701D02*
X10013000Y-11969701D01*
X10064000Y-9803000D02*
X10104000Y-9843000D01*
X10104000Y-9803000D02*
X10064000Y-9843000D01*
X10065750Y-9898000D02*
X10105750Y-9938000D01*
X10105750Y-9898000D02*
X10065750Y-9938000D01*
X10229899Y-12309566D02*
X10269899Y-12349566D01*
X10269899Y-12309566D02*
X10229899Y-12349566D01*
X10241600Y-11605700D02*
X10281600Y-11645700D01*
X10281600Y-11605700D02*
X10241600Y-11645700D01*
X10241600Y-12807000D02*
X10281600Y-12847000D01*
X10281600Y-12807000D02*
X10241600Y-12847000D01*
X10368600Y-12013698D02*
X10408600Y-12053698D01*
X10408600Y-12013698D02*
X10368600Y-12053698D01*
X10380974Y-11934659D02*
X10420974Y-11974659D01*
X10420974Y-11934659D02*
X10380974Y-11974659D01*
X10399902Y-12388899D02*
X10439902Y-12428899D01*
X10439902Y-12388899D02*
X10399902Y-12428899D01*
X10452000Y-9902000D02*
X10492000Y-9942000D01*
X10492000Y-9902000D02*
X10452000Y-9942000D01*
X10501695Y-11212895D02*
X10541695Y-11252895D01*
X10541695Y-11212895D02*
X10501695Y-11252895D01*
X10605095Y-11109495D02*
X10645095Y-11149495D01*
X10645095Y-11109495D02*
X10605095Y-11149495D01*
X10622600Y-13342000D02*
X10662600Y-13382000D01*
X10662600Y-13342000D02*
X10622600Y-13382000D01*
X10701124Y-11248501D02*
X10741124Y-11288501D01*
X10741124Y-11248501D02*
X10701124Y-11288501D01*
X10844000Y-10582000D02*
X10884000Y-10622000D01*
X10884000Y-10582000D02*
X10844000Y-10622000D01*
X10978200Y-10673400D02*
X11018200Y-10713400D01*
X11018200Y-10673400D02*
X10978200Y-10713400D01*
X10987000Y-10566000D02*
X11027000Y-10606000D01*
X11027000Y-10566000D02*
X10987000Y-10606000D01*
X11003600Y-10775000D02*
X11043600Y-10815000D01*
X11043600Y-10775000D02*
X11003600Y-10815000D01*
X12197000Y-11172000D02*
X12237000Y-11212000D01*
X12237000Y-11172000D02*
X12197000Y-11212000D01*
X12405000Y-9822000D02*
X12445000Y-9862000D01*
X12445000Y-9822000D02*
X12405000Y-9862000D01*
X12410000Y-10425000D02*
X12450000Y-10465000D01*
X12450000Y-10425000D02*
X12410000Y-10465000D01*
X12531000Y-13411000D02*
X12571000Y-13451000D01*
X12571000Y-13411000D02*
X12531000Y-13451000D01*
X13450000Y-11099000D02*
X13490000Y-11139000D01*
X13490000Y-11099000D02*
X13450000Y-11139000D01*
X14234000Y-11309000D02*
X14274000Y-11349000D01*
X14274000Y-11309000D02*
X14234000Y-11349000D01*
X3438600Y-13817600D02*
G75*
G03X3438600Y-13817600I-35000J0D01*
G01*
X3438600Y-14325600D02*
G75*
G03X3438600Y-14325600I-35000J0D01*
G01*
X8213800Y-16078200D02*
G75*
G03X8213800Y-16078200I-35000J0D01*
G01*
X8213800Y-16334200D02*
G75*
G03X8213800Y-16334200I-35000J0D01*
G01*
X11634000Y-12776000D02*
G75*
G03X11634000Y-12776000I-35000J0D01*
G01*
X11824000Y-12776000D02*
G75*
G03X11824000Y-12776000I-35000J0D01*
G01*
X3565000Y-9667500D02*
X3565000Y-9748500D01*
X3524500Y-9708000D02*
X3605500Y-9708000D01*
X3565000Y-9921500D02*
X3565000Y-10002500D01*
X3524500Y-9962000D02*
X3605500Y-9962000D01*
X3765000Y-9667500D02*
X3765000Y-9748500D01*
X3724500Y-9708000D02*
X3805500Y-9708000D01*
X3765000Y-9921500D02*
X3765000Y-10002500D01*
X3724500Y-9962000D02*
X3805500Y-9962000D01*
X5401237Y-13835737D02*
X5401237Y-13778263D01*
X5343763Y-13778263D01*
X5343763Y-13835737D01*
X5401237Y-13835737D01*
X5401237Y-14343737D02*
X5401237Y-14286263D01*
X5343763Y-14286263D01*
X5343763Y-14343737D01*
X5401237Y-14343737D01*
X6178737Y-13834737D02*
X6178737Y-13777263D01*
X6121263Y-13777263D01*
X6121263Y-13834737D01*
X6178737Y-13834737D01*
X6178737Y-14342737D02*
X6178737Y-14285263D01*
X6121263Y-14285263D01*
X6121263Y-14342737D01*
X6178737Y-14342737D01*
X3069500Y-16857500D02*
X3119500Y-16807500D01*
X3069500Y-16757500D01*
X3019500Y-16807500D01*
X3069500Y-16857500D01*
X3323500Y-16857500D02*
X3373500Y-16807500D01*
X3323500Y-16757500D01*
X3273500Y-16807500D01*
X3323500Y-16857500D01*
X3365000Y-12466000D02*
X3415000Y-12416000D01*
X3365000Y-12366000D01*
X3315000Y-12416000D01*
X3365000Y-12466000D01*
X3365000Y-12720000D02*
X3415000Y-12670000D01*
X3365000Y-12620000D01*
X3315000Y-12670000D01*
X3365000Y-12720000D01*
X3365000Y-12974000D02*
X3415000Y-12924000D01*
X3365000Y-12874000D01*
X3315000Y-12924000D01*
X3365000Y-12974000D01*
X3365000Y-13228000D02*
X3415000Y-13178000D01*
X3365000Y-13128000D01*
X3315000Y-13178000D01*
X3365000Y-13228000D01*
X3577500Y-16857500D02*
X3627500Y-16807500D01*
X3577500Y-16757500D01*
X3527500Y-16807500D01*
X3577500Y-16857500D01*
X4530000Y-11995000D02*
X4580000Y-11945000D01*
X4530000Y-11895000D01*
X4480000Y-11945000D01*
X4530000Y-11995000D01*
X5511000Y-13510000D02*
X5561000Y-13460000D01*
X5511000Y-13410000D01*
X5461000Y-13460000D01*
X5511000Y-13510000D01*
X5765000Y-13510000D02*
X5815000Y-13460000D01*
X5765000Y-13410000D01*
X5715000Y-13460000D01*
X5765000Y-13510000D01*
X6019000Y-13510000D02*
X6069000Y-13460000D01*
X6019000Y-13410000D01*
X5969000Y-13460000D01*
X6019000Y-13510000D01*
X6602500Y-10273500D02*
X6652500Y-10223500D01*
X6602500Y-10173500D01*
X6552500Y-10223500D01*
X6602500Y-10273500D01*
X6602500Y-10527500D02*
X6652500Y-10477500D01*
X6602500Y-10427500D01*
X6552500Y-10477500D01*
X6602500Y-10527500D01*
X7693000Y-9644000D02*
X7743000Y-9594000D01*
X7693000Y-9544000D01*
X7643000Y-9594000D01*
X7693000Y-9644000D01*
X7947000Y-9644000D02*
X7997000Y-9594000D01*
X7947000Y-9544000D01*
X7897000Y-9594000D01*
X7947000Y-9644000D01*
X8201000Y-9644000D02*
X8251000Y-9594000D01*
X8201000Y-9544000D01*
X8151000Y-9594000D01*
X8201000Y-9644000D01*
X8455000Y-9644000D02*
X8505000Y-9594000D01*
X8455000Y-9544000D01*
X8405000Y-9594000D01*
X8455000Y-9644000D01*
X8709000Y-9644000D02*
X8759000Y-9594000D01*
X8709000Y-9544000D01*
X8659000Y-9594000D01*
X8709000Y-9644000D01*
X8963000Y-9644000D02*
X9013000Y-9594000D01*
X8963000Y-9544000D01*
X8913000Y-9594000D01*
X8963000Y-9644000D01*
X9841000Y-14765000D02*
X9891000Y-14715000D01*
X9841000Y-14665000D01*
X9791000Y-14715000D01*
X9841000Y-14765000D01*
X10095000Y-14765000D02*
X10145000Y-14715000D01*
X10095000Y-14665000D01*
X10045000Y-14715000D01*
X10095000Y-14765000D01*
X10241000Y-9404000D02*
X10291000Y-9354000D01*
X10241000Y-9304000D01*
X10191000Y-9354000D01*
X10241000Y-9404000D01*
X10349000Y-14765000D02*
X10399000Y-14715000D01*
X10349000Y-14665000D01*
X10299000Y-14715000D01*
X10349000Y-14765000D01*
X10495000Y-9404000D02*
X10545000Y-9354000D01*
X10495000Y-9304000D01*
X10445000Y-9354000D01*
X10495000Y-9404000D01*
X10603000Y-14765000D02*
X10653000Y-14715000D01*
X10603000Y-14665000D01*
X10553000Y-14715000D01*
X10603000Y-14765000D01*
X10857000Y-14765000D02*
X10907000Y-14715000D01*
X10857000Y-14665000D01*
X10807000Y-14715000D01*
X10857000Y-14765000D01*
X10864000Y-9847000D02*
X10914000Y-9797000D01*
X10864000Y-9747000D01*
X10814000Y-9797000D01*
X10864000Y-9847000D01*
X10864000Y-10101000D02*
X10914000Y-10051000D01*
X10864000Y-10001000D01*
X10814000Y-10051000D01*
X10864000Y-10101000D01*
X11111000Y-14765000D02*
X11161000Y-14715000D01*
X11111000Y-14665000D01*
X11061000Y-14715000D01*
X11111000Y-14765000D01*
X11303000Y-12828000D02*
X11353000Y-12778000D01*
X11303000Y-12728000D01*
X11253000Y-12778000D01*
X11303000Y-12828000D01*
X11938000Y-11581600D02*
X11988000Y-11531600D01*
X11938000Y-11481600D01*
X11888000Y-11531600D01*
X11938000Y-11581600D01*
X11938000Y-11835600D02*
X11988000Y-11785600D01*
X11938000Y-11735600D01*
X11888000Y-11785600D01*
X11938000Y-11835600D01*
X12661000Y-9557000D02*
X12711000Y-9507000D01*
X12661000Y-9457000D01*
X12611000Y-9507000D01*
X12661000Y-9557000D01*
X12661000Y-9811000D02*
X12711000Y-9761000D01*
X12661000Y-9711000D01*
X12611000Y-9761000D01*
X12661000Y-9811000D01*
X12661000Y-10065000D02*
X12711000Y-10015000D01*
X12661000Y-9965000D01*
X12611000Y-10015000D01*
X12661000Y-10065000D01*
X2931200Y-15359800D02*
X3063200Y-15491800D01*
X3063200Y-15359800D02*
X2931200Y-15491800D01*
X3063200Y-15425800D02*
G75*
G03X3063200Y-15425800I-66000J0D01*
G01*
X2931200Y-15859800D02*
X3063200Y-15991800D01*
X3063200Y-15859800D02*
X2931200Y-15991800D01*
X3063200Y-15925800D02*
G75*
G03X3063200Y-15925800I-66000J0D01*
G01*
X2949000Y-10908000D02*
X3169000Y-11128000D01*
X3169000Y-10908000D02*
X2949000Y-11128000D01*
X3059000Y-10908000D02*
X3059000Y-11128000D01*
X2949000Y-11018000D02*
X3169000Y-11018000D01*
X2951000Y-14503000D02*
X3171000Y-14723000D01*
X3171000Y-14503000D02*
X2951000Y-14723000D01*
X3061000Y-14503000D02*
X3061000Y-14723000D01*
X2951000Y-14613000D02*
X3171000Y-14613000D01*
X8995000Y-14905000D02*
X9215000Y-15125000D01*
X9215000Y-14905000D02*
X8995000Y-15125000D01*
X9105000Y-14905000D02*
X9105000Y-15125000D01*
X8995000Y-15015000D02*
X9215000Y-15015000D01*
X9135000Y-16456000D02*
X9355000Y-16676000D01*
X9355000Y-16456000D02*
X9135000Y-16676000D01*
X9245000Y-16456000D02*
X9245000Y-16676000D01*
X9135000Y-16566000D02*
X9355000Y-16566000D01*
X13125000Y-14664000D02*
X13345000Y-14884000D01*
X13345000Y-14664000D02*
X13125000Y-14884000D01*
X13235000Y-14664000D02*
X13235000Y-14884000D01*
X13125000Y-14774000D02*
X13345000Y-14774000D01*
X14190200Y-9084800D02*
X14410200Y-9304800D01*
X14410200Y-9084800D02*
X14190200Y-9304800D01*
X14300200Y-9084800D02*
X14300200Y-9304800D01*
X14190200Y-9194800D02*
X14410200Y-9194800D01*
X3180000Y-9120000D02*
X3410000Y-9350000D01*
X3410000Y-9120000D02*
X3180000Y-9350000D01*
X3376318Y-9316318D02*
X3376318Y-9153682D01*
X3213682Y-9153682D01*
X3213682Y-9316318D01*
X3376318Y-9316318D01*
X3180000Y-10320000D02*
X3410000Y-10550000D01*
X3410000Y-10320000D02*
X3180000Y-10550000D01*
X3376318Y-10516318D02*
X3376318Y-10353682D01*
X3213682Y-10353682D01*
X3213682Y-10516318D01*
X3376318Y-10516318D01*
D13*
X2711429Y-17542017D02*
X2711429Y-17242017D01*
X2782857Y-17242017D01*
X2825714Y-17256303D01*
X2854286Y-17284874D01*
X2868571Y-17313445D01*
X2882857Y-17370588D01*
X2882857Y-17413445D01*
X2868571Y-17470588D01*
X2854286Y-17499160D01*
X2825714Y-17527731D01*
X2782857Y-17542017D01*
X2711429Y-17542017D01*
X3011428Y-17542017D02*
X3011428Y-17342017D01*
X3011428Y-17399160D02*
X3025714Y-17370588D01*
X3040000Y-17356303D01*
X3068571Y-17342017D01*
X3097143Y-17342017D01*
X3197143Y-17542017D02*
X3197143Y-17342017D01*
X3197143Y-17242017D02*
X3182857Y-17256303D01*
X3197143Y-17270588D01*
X3211428Y-17256303D01*
X3197143Y-17242017D01*
X3197143Y-17270588D01*
X3382857Y-17542017D02*
X3354286Y-17527731D01*
X3340000Y-17499160D01*
X3340000Y-17242017D01*
X3540000Y-17542017D02*
X3511428Y-17527731D01*
X3497143Y-17499160D01*
X3497143Y-17242017D01*
X3882857Y-17542017D02*
X3882857Y-17242017D01*
X3982857Y-17456303D01*
X4082857Y-17242017D01*
X4082857Y-17542017D01*
X4354286Y-17542017D02*
X4354286Y-17384874D01*
X4340000Y-17356303D01*
X4311429Y-17342017D01*
X4254286Y-17342017D01*
X4225714Y-17356303D01*
X4354286Y-17527731D02*
X4325714Y-17542017D01*
X4254286Y-17542017D01*
X4225714Y-17527731D01*
X4211429Y-17499160D01*
X4211429Y-17470588D01*
X4225714Y-17442017D01*
X4254286Y-17427731D01*
X4325714Y-17427731D01*
X4354286Y-17413445D01*
X4497143Y-17342017D02*
X4497143Y-17642017D01*
X4497143Y-17356303D02*
X4525714Y-17342017D01*
X4582857Y-17342017D01*
X4611429Y-17356303D01*
X4625714Y-17370588D01*
X4640000Y-17399160D01*
X4640000Y-17484874D01*
X4625714Y-17513445D01*
X4611429Y-17527731D01*
X4582857Y-17542017D01*
X4525714Y-17542017D01*
X4497143Y-17527731D01*
X4768571Y-17513445D02*
X4782857Y-17527731D01*
X4768571Y-17542017D01*
X4754286Y-17527731D01*
X4768571Y-17513445D01*
X4768571Y-17542017D01*
X4768571Y-17356303D02*
X4782857Y-17370588D01*
X4768571Y-17384874D01*
X4754286Y-17370588D01*
X4768571Y-17356303D01*
X4768571Y-17384874D01*
X2400000Y-18016303D02*
X2440000Y-18056303D01*
X2440000Y-18016303D02*
X2400000Y-18056303D01*
X2768571Y-17872017D02*
X2797143Y-17872017D01*
X2825714Y-17886303D01*
X2840000Y-17900588D01*
X2854286Y-17929160D01*
X2868571Y-17986303D01*
X2868571Y-18057731D01*
X2854286Y-18114874D01*
X2840000Y-18143445D01*
X2825714Y-18157731D01*
X2797143Y-18172017D01*
X2768571Y-18172017D01*
X2740000Y-18157731D01*
X2725714Y-18143445D01*
X2711429Y-18114874D01*
X2697143Y-18057731D01*
X2697143Y-17986303D01*
X2711429Y-17929160D01*
X2725714Y-17900588D01*
X2740000Y-17886303D01*
X2768571Y-17872017D01*
X2997143Y-18143445D02*
X3011428Y-18157731D01*
X2997143Y-18172017D01*
X2982857Y-18157731D01*
X2997143Y-18143445D01*
X2997143Y-18172017D01*
X3268571Y-17972017D02*
X3268571Y-18172017D01*
X3197143Y-17857731D02*
X3125714Y-18072017D01*
X3311428Y-18072017D01*
X3482857Y-17872017D02*
X3511428Y-17872017D01*
X3540000Y-17886303D01*
X3554286Y-17900588D01*
X3568571Y-17929160D01*
X3582857Y-17986303D01*
X3582857Y-18057731D01*
X3568571Y-18114874D01*
X3554286Y-18143445D01*
X3540000Y-18157731D01*
X3511428Y-18172017D01*
X3482857Y-18172017D01*
X3454286Y-18157731D01*
X3440000Y-18143445D01*
X3425714Y-18114874D01*
X3411428Y-18057731D01*
X3411428Y-17986303D01*
X3425714Y-17929160D01*
X3440000Y-17900588D01*
X3454286Y-17886303D01*
X3482857Y-17872017D01*
X3711428Y-18172017D02*
X3711428Y-17972017D01*
X3711428Y-18000588D02*
X3725714Y-17986303D01*
X3754286Y-17972017D01*
X3797143Y-17972017D01*
X3825714Y-17986303D01*
X3840000Y-18014874D01*
X3840000Y-18172017D01*
X3840000Y-18014874D02*
X3854286Y-17986303D01*
X3882857Y-17972017D01*
X3925714Y-17972017D01*
X3954286Y-17986303D01*
X3968571Y-18014874D01*
X3968571Y-18172017D01*
X4111428Y-18172017D02*
X4111428Y-17972017D01*
X4111428Y-18000588D02*
X4125714Y-17986303D01*
X4154286Y-17972017D01*
X4197143Y-17972017D01*
X4225714Y-17986303D01*
X4240000Y-18014874D01*
X4240000Y-18172017D01*
X4240000Y-18014874D02*
X4254286Y-17986303D01*
X4282857Y-17972017D01*
X4325714Y-17972017D01*
X4354286Y-17986303D01*
X4368571Y-18014874D01*
X4368571Y-18172017D01*
X4954286Y-17857731D02*
X4697143Y-18243445D01*
X5340000Y-17872017D02*
X5368571Y-17872017D01*
X5397143Y-17886303D01*
X5411428Y-17900588D01*
X5425714Y-17929160D01*
X5440000Y-17986303D01*
X5440000Y-18057731D01*
X5425714Y-18114874D01*
X5411428Y-18143445D01*
X5397143Y-18157731D01*
X5368571Y-18172017D01*
X5340000Y-18172017D01*
X5311428Y-18157731D01*
X5297143Y-18143445D01*
X5282857Y-18114874D01*
X5268571Y-18057731D01*
X5268571Y-17986303D01*
X5282857Y-17929160D01*
X5297143Y-17900588D01*
X5311428Y-17886303D01*
X5340000Y-17872017D01*
X5568571Y-18143445D02*
X5582857Y-18157731D01*
X5568571Y-18172017D01*
X5554286Y-18157731D01*
X5568571Y-18143445D01*
X5568571Y-18172017D01*
X5768571Y-17872017D02*
X5797143Y-17872017D01*
X5825714Y-17886303D01*
X5840000Y-17900588D01*
X5854285Y-17929160D01*
X5868571Y-17986303D01*
X5868571Y-18057731D01*
X5854285Y-18114874D01*
X5840000Y-18143445D01*
X5825714Y-18157731D01*
X5797143Y-18172017D01*
X5768571Y-18172017D01*
X5740000Y-18157731D01*
X5725714Y-18143445D01*
X5711428Y-18114874D01*
X5697143Y-18057731D01*
X5697143Y-17986303D01*
X5711428Y-17929160D01*
X5725714Y-17900588D01*
X5740000Y-17886303D01*
X5768571Y-17872017D01*
X6154285Y-18172017D02*
X5982857Y-18172017D01*
X6068571Y-18172017D02*
X6068571Y-17872017D01*
X6040000Y-17914874D01*
X6011428Y-17943445D01*
X5982857Y-17957731D01*
X6411428Y-17872017D02*
X6354285Y-17872017D01*
X6325714Y-17886303D01*
X6311428Y-17900588D01*
X6282857Y-17943445D01*
X6268571Y-18000588D01*
X6268571Y-18114874D01*
X6282857Y-18143445D01*
X6297143Y-18157731D01*
X6325714Y-18172017D01*
X6382857Y-18172017D01*
X6411428Y-18157731D01*
X6425714Y-18143445D01*
X6440000Y-18114874D01*
X6440000Y-18043445D01*
X6425714Y-18014874D01*
X6411428Y-18000588D01*
X6382857Y-17986303D01*
X6325714Y-17986303D01*
X6297143Y-18000588D01*
X6282857Y-18014874D01*
X6268571Y-18043445D01*
X6554286Y-17872017D02*
X6554286Y-17929160D01*
X6668571Y-17872017D02*
X6668571Y-17929160D01*
X7111428Y-18286303D02*
X7097143Y-18272017D01*
X7068571Y-18229160D01*
X7054285Y-18200588D01*
X7040000Y-18157731D01*
X7025714Y-18086303D01*
X7025714Y-18029160D01*
X7040000Y-17957731D01*
X7054285Y-17914874D01*
X7068571Y-17886303D01*
X7097143Y-17843445D01*
X7111428Y-17829160D01*
X7354285Y-17872017D02*
X7297143Y-17872017D01*
X7268571Y-17886303D01*
X7254285Y-17900588D01*
X7225714Y-17943445D01*
X7211428Y-18000588D01*
X7211428Y-18114874D01*
X7225714Y-18143445D01*
X7240000Y-18157731D01*
X7268571Y-18172017D01*
X7325714Y-18172017D01*
X7354285Y-18157731D01*
X7368571Y-18143445D01*
X7382857Y-18114874D01*
X7382857Y-18043445D01*
X7368571Y-18014874D01*
X7354285Y-18000588D01*
X7325714Y-17986303D01*
X7268571Y-17986303D01*
X7240000Y-18000588D01*
X7225714Y-18014874D01*
X7211428Y-18043445D01*
X7668571Y-18172017D02*
X7497143Y-18172017D01*
X7582857Y-18172017D02*
X7582857Y-17872017D01*
X7554285Y-17914874D01*
X7525714Y-17943445D01*
X7497143Y-17957731D01*
X8025714Y-18172017D02*
X8025714Y-17872017D01*
X8154285Y-18172017D02*
X8154285Y-18014874D01*
X8140000Y-17986303D01*
X8111428Y-17972017D01*
X8068571Y-17972017D01*
X8040000Y-17986303D01*
X8025714Y-18000588D01*
X8340000Y-18172017D02*
X8311428Y-18157731D01*
X8297143Y-18143445D01*
X8282857Y-18114874D01*
X8282857Y-18029160D01*
X8297143Y-18000588D01*
X8311428Y-17986303D01*
X8340000Y-17972017D01*
X8382857Y-17972017D01*
X8411428Y-17986303D01*
X8425714Y-18000588D01*
X8440000Y-18029160D01*
X8440000Y-18114874D01*
X8425714Y-18143445D01*
X8411428Y-18157731D01*
X8382857Y-18172017D01*
X8340000Y-18172017D01*
X8611428Y-18172017D02*
X8582857Y-18157731D01*
X8568571Y-18129160D01*
X8568571Y-17872017D01*
X8840000Y-18157731D02*
X8811429Y-18172017D01*
X8754286Y-18172017D01*
X8725714Y-18157731D01*
X8711429Y-18129160D01*
X8711429Y-18014874D01*
X8725714Y-17986303D01*
X8754286Y-17972017D01*
X8811429Y-17972017D01*
X8840000Y-17986303D01*
X8854286Y-18014874D01*
X8854286Y-18043445D01*
X8711429Y-18072017D01*
X8968571Y-18157731D02*
X8997143Y-18172017D01*
X9054286Y-18172017D01*
X9082857Y-18157731D01*
X9097143Y-18129160D01*
X9097143Y-18114874D01*
X9082857Y-18086303D01*
X9054286Y-18072017D01*
X9011429Y-18072017D01*
X8982857Y-18057731D01*
X8968571Y-18029160D01*
X8968571Y-18014874D01*
X8982857Y-17986303D01*
X9011429Y-17972017D01*
X9054286Y-17972017D01*
X9082857Y-17986303D01*
X9197143Y-18286303D02*
X9211429Y-18272017D01*
X9240000Y-18229160D01*
X9254286Y-18200588D01*
X9268571Y-18157731D01*
X9282857Y-18086303D01*
X9282857Y-18029160D01*
X9268571Y-17957731D01*
X9254286Y-17914874D01*
X9240000Y-17886303D01*
X9211429Y-17843445D01*
X9197143Y-17829160D01*
X2440000Y-18432303D02*
G75*
G03X2440000Y-18432303I-35000J0D01*
G01*
X2768571Y-18268017D02*
X2797143Y-18268017D01*
X2825714Y-18282303D01*
X2840000Y-18296588D01*
X2854286Y-18325160D01*
X2868571Y-18382303D01*
X2868571Y-18453731D01*
X2854286Y-18510874D01*
X2840000Y-18539445D01*
X2825714Y-18553731D01*
X2797143Y-18568017D01*
X2768571Y-18568017D01*
X2740000Y-18553731D01*
X2725714Y-18539445D01*
X2711429Y-18510874D01*
X2697143Y-18453731D01*
X2697143Y-18382303D01*
X2711429Y-18325160D01*
X2725714Y-18296588D01*
X2740000Y-18282303D01*
X2768571Y-18268017D01*
X2997143Y-18539445D02*
X3011428Y-18553731D01*
X2997143Y-18568017D01*
X2982857Y-18553731D01*
X2997143Y-18539445D01*
X2997143Y-18568017D01*
X3111428Y-18268017D02*
X3311428Y-18268017D01*
X3182857Y-18568017D01*
X3482857Y-18268017D02*
X3511428Y-18268017D01*
X3540000Y-18282303D01*
X3554286Y-18296588D01*
X3568571Y-18325160D01*
X3582857Y-18382303D01*
X3582857Y-18453731D01*
X3568571Y-18510874D01*
X3554286Y-18539445D01*
X3540000Y-18553731D01*
X3511428Y-18568017D01*
X3482857Y-18568017D01*
X3454286Y-18553731D01*
X3440000Y-18539445D01*
X3425714Y-18510874D01*
X3411428Y-18453731D01*
X3411428Y-18382303D01*
X3425714Y-18325160D01*
X3440000Y-18296588D01*
X3454286Y-18282303D01*
X3482857Y-18268017D01*
X3711428Y-18568017D02*
X3711428Y-18368017D01*
X3711428Y-18396588D02*
X3725714Y-18382303D01*
X3754286Y-18368017D01*
X3797143Y-18368017D01*
X3825714Y-18382303D01*
X3840000Y-18410874D01*
X3840000Y-18568017D01*
X3840000Y-18410874D02*
X3854286Y-18382303D01*
X3882857Y-18368017D01*
X3925714Y-18368017D01*
X3954286Y-18382303D01*
X3968571Y-18410874D01*
X3968571Y-18568017D01*
X4111428Y-18568017D02*
X4111428Y-18368017D01*
X4111428Y-18396588D02*
X4125714Y-18382303D01*
X4154286Y-18368017D01*
X4197143Y-18368017D01*
X4225714Y-18382303D01*
X4240000Y-18410874D01*
X4240000Y-18568017D01*
X4240000Y-18410874D02*
X4254286Y-18382303D01*
X4282857Y-18368017D01*
X4325714Y-18368017D01*
X4354286Y-18382303D01*
X4368571Y-18410874D01*
X4368571Y-18568017D01*
X4954286Y-18253731D02*
X4697143Y-18639445D01*
X5340000Y-18268017D02*
X5368571Y-18268017D01*
X5397143Y-18282303D01*
X5411428Y-18296588D01*
X5425714Y-18325160D01*
X5440000Y-18382303D01*
X5440000Y-18453731D01*
X5425714Y-18510874D01*
X5411428Y-18539445D01*
X5397143Y-18553731D01*
X5368571Y-18568017D01*
X5340000Y-18568017D01*
X5311428Y-18553731D01*
X5297143Y-18539445D01*
X5282857Y-18510874D01*
X5268571Y-18453731D01*
X5268571Y-18382303D01*
X5282857Y-18325160D01*
X5297143Y-18296588D01*
X5311428Y-18282303D01*
X5340000Y-18268017D01*
X5568571Y-18539445D02*
X5582857Y-18553731D01*
X5568571Y-18568017D01*
X5554286Y-18553731D01*
X5568571Y-18539445D01*
X5568571Y-18568017D01*
X5768571Y-18268017D02*
X5797143Y-18268017D01*
X5825714Y-18282303D01*
X5840000Y-18296588D01*
X5854285Y-18325160D01*
X5868571Y-18382303D01*
X5868571Y-18453731D01*
X5854285Y-18510874D01*
X5840000Y-18539445D01*
X5825714Y-18553731D01*
X5797143Y-18568017D01*
X5768571Y-18568017D01*
X5740000Y-18553731D01*
X5725714Y-18539445D01*
X5711428Y-18510874D01*
X5697143Y-18453731D01*
X5697143Y-18382303D01*
X5711428Y-18325160D01*
X5725714Y-18296588D01*
X5740000Y-18282303D01*
X5768571Y-18268017D01*
X5982857Y-18296588D02*
X5997143Y-18282303D01*
X6025714Y-18268017D01*
X6097143Y-18268017D01*
X6125714Y-18282303D01*
X6140000Y-18296588D01*
X6154285Y-18325160D01*
X6154285Y-18353731D01*
X6140000Y-18396588D01*
X5968571Y-18568017D01*
X6154285Y-18568017D01*
X6325714Y-18396588D02*
X6297143Y-18382303D01*
X6282857Y-18368017D01*
X6268571Y-18339445D01*
X6268571Y-18325160D01*
X6282857Y-18296588D01*
X6297143Y-18282303D01*
X6325714Y-18268017D01*
X6382857Y-18268017D01*
X6411428Y-18282303D01*
X6425714Y-18296588D01*
X6440000Y-18325160D01*
X6440000Y-18339445D01*
X6425714Y-18368017D01*
X6411428Y-18382303D01*
X6382857Y-18396588D01*
X6325714Y-18396588D01*
X6297143Y-18410874D01*
X6282857Y-18425160D01*
X6268571Y-18453731D01*
X6268571Y-18510874D01*
X6282857Y-18539445D01*
X6297143Y-18553731D01*
X6325714Y-18568017D01*
X6382857Y-18568017D01*
X6411428Y-18553731D01*
X6425714Y-18539445D01*
X6440000Y-18510874D01*
X6440000Y-18453731D01*
X6425714Y-18425160D01*
X6411428Y-18410874D01*
X6382857Y-18396588D01*
X6554286Y-18268017D02*
X6554286Y-18325160D01*
X6668571Y-18268017D02*
X6668571Y-18325160D01*
X7111428Y-18682303D02*
X7097143Y-18668017D01*
X7068571Y-18625160D01*
X7054285Y-18596588D01*
X7040000Y-18553731D01*
X7025714Y-18482303D01*
X7025714Y-18425160D01*
X7040000Y-18353731D01*
X7054285Y-18310874D01*
X7068571Y-18282303D01*
X7097143Y-18239445D01*
X7111428Y-18225160D01*
X7354285Y-18268017D02*
X7297143Y-18268017D01*
X7268571Y-18282303D01*
X7254285Y-18296588D01*
X7225714Y-18339445D01*
X7211428Y-18396588D01*
X7211428Y-18510874D01*
X7225714Y-18539445D01*
X7240000Y-18553731D01*
X7268571Y-18568017D01*
X7325714Y-18568017D01*
X7354285Y-18553731D01*
X7368571Y-18539445D01*
X7382857Y-18510874D01*
X7382857Y-18439445D01*
X7368571Y-18410874D01*
X7354285Y-18396588D01*
X7325714Y-18382303D01*
X7268571Y-18382303D01*
X7240000Y-18396588D01*
X7225714Y-18410874D01*
X7211428Y-18439445D01*
X7740000Y-18568017D02*
X7740000Y-18268017D01*
X7868571Y-18568017D02*
X7868571Y-18410874D01*
X7854285Y-18382303D01*
X7825714Y-18368017D01*
X7782857Y-18368017D01*
X7754285Y-18382303D01*
X7740000Y-18396588D01*
X8054285Y-18568017D02*
X8025714Y-18553731D01*
X8011428Y-18539445D01*
X7997143Y-18510874D01*
X7997143Y-18425160D01*
X8011428Y-18396588D01*
X8025714Y-18382303D01*
X8054285Y-18368017D01*
X8097143Y-18368017D01*
X8125714Y-18382303D01*
X8140000Y-18396588D01*
X8154285Y-18425160D01*
X8154285Y-18510874D01*
X8140000Y-18539445D01*
X8125714Y-18553731D01*
X8097143Y-18568017D01*
X8054285Y-18568017D01*
X8325714Y-18568017D02*
X8297143Y-18553731D01*
X8282857Y-18525160D01*
X8282857Y-18268017D01*
X8554286Y-18553731D02*
X8525714Y-18568017D01*
X8468571Y-18568017D01*
X8440000Y-18553731D01*
X8425714Y-18525160D01*
X8425714Y-18410874D01*
X8440000Y-18382303D01*
X8468571Y-18368017D01*
X8525714Y-18368017D01*
X8554286Y-18382303D01*
X8568571Y-18410874D01*
X8568571Y-18439445D01*
X8425714Y-18468017D01*
X8682857Y-18553731D02*
X8711429Y-18568017D01*
X8768571Y-18568017D01*
X8797143Y-18553731D01*
X8811429Y-18525160D01*
X8811429Y-18510874D01*
X8797143Y-18482303D01*
X8768571Y-18468017D01*
X8725714Y-18468017D01*
X8697143Y-18453731D01*
X8682857Y-18425160D01*
X8682857Y-18410874D01*
X8697143Y-18382303D01*
X8725714Y-18368017D01*
X8768571Y-18368017D01*
X8797143Y-18382303D01*
X8911428Y-18682303D02*
X8925714Y-18668017D01*
X8954286Y-18625160D01*
X8968571Y-18596588D01*
X8982857Y-18553731D01*
X8997143Y-18482303D01*
X8997143Y-18425160D01*
X8982857Y-18353731D01*
X8968571Y-18310874D01*
X8954286Y-18282303D01*
X8925714Y-18239445D01*
X8911428Y-18225160D01*
X2399500Y-18787803D02*
X2399500Y-18868803D01*
X2359000Y-18828303D02*
X2440000Y-18828303D01*
X2768571Y-18664017D02*
X2797143Y-18664017D01*
X2825714Y-18678303D01*
X2840000Y-18692588D01*
X2854286Y-18721160D01*
X2868571Y-18778303D01*
X2868571Y-18849731D01*
X2854286Y-18906874D01*
X2840000Y-18935445D01*
X2825714Y-18949731D01*
X2797143Y-18964017D01*
X2768571Y-18964017D01*
X2740000Y-18949731D01*
X2725714Y-18935445D01*
X2711429Y-18906874D01*
X2697143Y-18849731D01*
X2697143Y-18778303D01*
X2711429Y-18721160D01*
X2725714Y-18692588D01*
X2740000Y-18678303D01*
X2768571Y-18664017D01*
X2997143Y-18935445D02*
X3011428Y-18949731D01*
X2997143Y-18964017D01*
X2982857Y-18949731D01*
X2997143Y-18935445D01*
X2997143Y-18964017D01*
X3182857Y-18792588D02*
X3154286Y-18778303D01*
X3140000Y-18764017D01*
X3125714Y-18735445D01*
X3125714Y-18721160D01*
X3140000Y-18692588D01*
X3154286Y-18678303D01*
X3182857Y-18664017D01*
X3240000Y-18664017D01*
X3268571Y-18678303D01*
X3282857Y-18692588D01*
X3297143Y-18721160D01*
X3297143Y-18735445D01*
X3282857Y-18764017D01*
X3268571Y-18778303D01*
X3240000Y-18792588D01*
X3182857Y-18792588D01*
X3154286Y-18806874D01*
X3140000Y-18821160D01*
X3125714Y-18849731D01*
X3125714Y-18906874D01*
X3140000Y-18935445D01*
X3154286Y-18949731D01*
X3182857Y-18964017D01*
X3240000Y-18964017D01*
X3268571Y-18949731D01*
X3282857Y-18935445D01*
X3297143Y-18906874D01*
X3297143Y-18849731D01*
X3282857Y-18821160D01*
X3268571Y-18806874D01*
X3240000Y-18792588D01*
X3582857Y-18964017D02*
X3411428Y-18964017D01*
X3497143Y-18964017D02*
X3497143Y-18664017D01*
X3468571Y-18706874D01*
X3440000Y-18735445D01*
X3411428Y-18749731D01*
X3711428Y-18964017D02*
X3711428Y-18764017D01*
X3711428Y-18792588D02*
X3725714Y-18778303D01*
X3754286Y-18764017D01*
X3797143Y-18764017D01*
X3825714Y-18778303D01*
X3840000Y-18806874D01*
X3840000Y-18964017D01*
X3840000Y-18806874D02*
X3854286Y-18778303D01*
X3882857Y-18764017D01*
X3925714Y-18764017D01*
X3954286Y-18778303D01*
X3968571Y-18806874D01*
X3968571Y-18964017D01*
X4111428Y-18964017D02*
X4111428Y-18764017D01*
X4111428Y-18792588D02*
X4125714Y-18778303D01*
X4154286Y-18764017D01*
X4197143Y-18764017D01*
X4225714Y-18778303D01*
X4240000Y-18806874D01*
X4240000Y-18964017D01*
X4240000Y-18806874D02*
X4254286Y-18778303D01*
X4282857Y-18764017D01*
X4325714Y-18764017D01*
X4354286Y-18778303D01*
X4368571Y-18806874D01*
X4368571Y-18964017D01*
X4954286Y-18649731D02*
X4697143Y-19035445D01*
X5340000Y-18664017D02*
X5368571Y-18664017D01*
X5397143Y-18678303D01*
X5411428Y-18692588D01*
X5425714Y-18721160D01*
X5440000Y-18778303D01*
X5440000Y-18849731D01*
X5425714Y-18906874D01*
X5411428Y-18935445D01*
X5397143Y-18949731D01*
X5368571Y-18964017D01*
X5340000Y-18964017D01*
X5311428Y-18949731D01*
X5297143Y-18935445D01*
X5282857Y-18906874D01*
X5268571Y-18849731D01*
X5268571Y-18778303D01*
X5282857Y-18721160D01*
X5297143Y-18692588D01*
X5311428Y-18678303D01*
X5340000Y-18664017D01*
X5568571Y-18935445D02*
X5582857Y-18949731D01*
X5568571Y-18964017D01*
X5554286Y-18949731D01*
X5568571Y-18935445D01*
X5568571Y-18964017D01*
X5768571Y-18664017D02*
X5797143Y-18664017D01*
X5825714Y-18678303D01*
X5840000Y-18692588D01*
X5854285Y-18721160D01*
X5868571Y-18778303D01*
X5868571Y-18849731D01*
X5854285Y-18906874D01*
X5840000Y-18935445D01*
X5825714Y-18949731D01*
X5797143Y-18964017D01*
X5768571Y-18964017D01*
X5740000Y-18949731D01*
X5725714Y-18935445D01*
X5711428Y-18906874D01*
X5697143Y-18849731D01*
X5697143Y-18778303D01*
X5711428Y-18721160D01*
X5725714Y-18692588D01*
X5740000Y-18678303D01*
X5768571Y-18664017D01*
X5968571Y-18664017D02*
X6154285Y-18664017D01*
X6054285Y-18778303D01*
X6097143Y-18778303D01*
X6125714Y-18792588D01*
X6140000Y-18806874D01*
X6154285Y-18835445D01*
X6154285Y-18906874D01*
X6140000Y-18935445D01*
X6125714Y-18949731D01*
X6097143Y-18964017D01*
X6011428Y-18964017D01*
X5982857Y-18949731D01*
X5968571Y-18935445D01*
X6268571Y-18692588D02*
X6282857Y-18678303D01*
X6311428Y-18664017D01*
X6382857Y-18664017D01*
X6411428Y-18678303D01*
X6425714Y-18692588D01*
X6440000Y-18721160D01*
X6440000Y-18749731D01*
X6425714Y-18792588D01*
X6254285Y-18964017D01*
X6440000Y-18964017D01*
X6554286Y-18664017D02*
X6554286Y-18721160D01*
X6668571Y-18664017D02*
X6668571Y-18721160D01*
X7111428Y-19078303D02*
X7097143Y-19064017D01*
X7068571Y-19021160D01*
X7054285Y-18992588D01*
X7040000Y-18949731D01*
X7025714Y-18878303D01*
X7025714Y-18821160D01*
X7040000Y-18749731D01*
X7054285Y-18706874D01*
X7068571Y-18678303D01*
X7097143Y-18635445D01*
X7111428Y-18621160D01*
X7354285Y-18764017D02*
X7354285Y-18964017D01*
X7282857Y-18649731D02*
X7211428Y-18864017D01*
X7397143Y-18864017D01*
X7740000Y-18964017D02*
X7740000Y-18664017D01*
X7868571Y-18964017D02*
X7868571Y-18806874D01*
X7854285Y-18778303D01*
X7825714Y-18764017D01*
X7782857Y-18764017D01*
X7754285Y-18778303D01*
X7740000Y-18792588D01*
X8054285Y-18964017D02*
X8025714Y-18949731D01*
X8011428Y-18935445D01*
X7997143Y-18906874D01*
X7997143Y-18821160D01*
X8011428Y-18792588D01*
X8025714Y-18778303D01*
X8054285Y-18764017D01*
X8097143Y-18764017D01*
X8125714Y-18778303D01*
X8140000Y-18792588D01*
X8154285Y-18821160D01*
X8154285Y-18906874D01*
X8140000Y-18935445D01*
X8125714Y-18949731D01*
X8097143Y-18964017D01*
X8054285Y-18964017D01*
X8325714Y-18964017D02*
X8297143Y-18949731D01*
X8282857Y-18921160D01*
X8282857Y-18664017D01*
X8554286Y-18949731D02*
X8525714Y-18964017D01*
X8468571Y-18964017D01*
X8440000Y-18949731D01*
X8425714Y-18921160D01*
X8425714Y-18806874D01*
X8440000Y-18778303D01*
X8468571Y-18764017D01*
X8525714Y-18764017D01*
X8554286Y-18778303D01*
X8568571Y-18806874D01*
X8568571Y-18835445D01*
X8425714Y-18864017D01*
X8682857Y-18949731D02*
X8711429Y-18964017D01*
X8768571Y-18964017D01*
X8797143Y-18949731D01*
X8811429Y-18921160D01*
X8811429Y-18906874D01*
X8797143Y-18878303D01*
X8768571Y-18864017D01*
X8725714Y-18864017D01*
X8697143Y-18849731D01*
X8682857Y-18821160D01*
X8682857Y-18806874D01*
X8697143Y-18778303D01*
X8725714Y-18764017D01*
X8768571Y-18764017D01*
X8797143Y-18778303D01*
X8911428Y-19078303D02*
X8925714Y-19064017D01*
X8954286Y-19021160D01*
X8968571Y-18992588D01*
X8982857Y-18949731D01*
X8997143Y-18878303D01*
X8997143Y-18821160D01*
X8982857Y-18749731D01*
X8968571Y-18706874D01*
X8954286Y-18678303D01*
X8925714Y-18635445D01*
X8911428Y-18621160D01*
X2428097Y-19253040D02*
X2428097Y-19195565D01*
X2370623Y-19195565D01*
X2370623Y-19253040D01*
X2428097Y-19253040D01*
X2768571Y-19060017D02*
X2797143Y-19060017D01*
X2825714Y-19074303D01*
X2840000Y-19088588D01*
X2854286Y-19117160D01*
X2868571Y-19174303D01*
X2868571Y-19245731D01*
X2854286Y-19302874D01*
X2840000Y-19331445D01*
X2825714Y-19345731D01*
X2797143Y-19360017D01*
X2768571Y-19360017D01*
X2740000Y-19345731D01*
X2725714Y-19331445D01*
X2711429Y-19302874D01*
X2697143Y-19245731D01*
X2697143Y-19174303D01*
X2711429Y-19117160D01*
X2725714Y-19088588D01*
X2740000Y-19074303D01*
X2768571Y-19060017D01*
X2997143Y-19331445D02*
X3011428Y-19345731D01*
X2997143Y-19360017D01*
X2982857Y-19345731D01*
X2997143Y-19331445D01*
X2997143Y-19360017D01*
X3182857Y-19188588D02*
X3154286Y-19174303D01*
X3140000Y-19160017D01*
X3125714Y-19131445D01*
X3125714Y-19117160D01*
X3140000Y-19088588D01*
X3154286Y-19074303D01*
X3182857Y-19060017D01*
X3240000Y-19060017D01*
X3268571Y-19074303D01*
X3282857Y-19088588D01*
X3297143Y-19117160D01*
X3297143Y-19131445D01*
X3282857Y-19160017D01*
X3268571Y-19174303D01*
X3240000Y-19188588D01*
X3182857Y-19188588D01*
X3154286Y-19202874D01*
X3140000Y-19217160D01*
X3125714Y-19245731D01*
X3125714Y-19302874D01*
X3140000Y-19331445D01*
X3154286Y-19345731D01*
X3182857Y-19360017D01*
X3240000Y-19360017D01*
X3268571Y-19345731D01*
X3282857Y-19331445D01*
X3297143Y-19302874D01*
X3297143Y-19245731D01*
X3282857Y-19217160D01*
X3268571Y-19202874D01*
X3240000Y-19188588D01*
X3582857Y-19360017D02*
X3411428Y-19360017D01*
X3497143Y-19360017D02*
X3497143Y-19060017D01*
X3468571Y-19102874D01*
X3440000Y-19131445D01*
X3411428Y-19145731D01*
X3711428Y-19360017D02*
X3711428Y-19160017D01*
X3711428Y-19188588D02*
X3725714Y-19174303D01*
X3754286Y-19160017D01*
X3797143Y-19160017D01*
X3825714Y-19174303D01*
X3840000Y-19202874D01*
X3840000Y-19360017D01*
X3840000Y-19202874D02*
X3854286Y-19174303D01*
X3882857Y-19160017D01*
X3925714Y-19160017D01*
X3954286Y-19174303D01*
X3968571Y-19202874D01*
X3968571Y-19360017D01*
X4111428Y-19360017D02*
X4111428Y-19160017D01*
X4111428Y-19188588D02*
X4125714Y-19174303D01*
X4154286Y-19160017D01*
X4197143Y-19160017D01*
X4225714Y-19174303D01*
X4240000Y-19202874D01*
X4240000Y-19360017D01*
X4240000Y-19202874D02*
X4254286Y-19174303D01*
X4282857Y-19160017D01*
X4325714Y-19160017D01*
X4354286Y-19174303D01*
X4368571Y-19202874D01*
X4368571Y-19360017D01*
X4954286Y-19045731D02*
X4697143Y-19431445D01*
X5340000Y-19060017D02*
X5368571Y-19060017D01*
X5397143Y-19074303D01*
X5411428Y-19088588D01*
X5425714Y-19117160D01*
X5440000Y-19174303D01*
X5440000Y-19245731D01*
X5425714Y-19302874D01*
X5411428Y-19331445D01*
X5397143Y-19345731D01*
X5368571Y-19360017D01*
X5340000Y-19360017D01*
X5311428Y-19345731D01*
X5297143Y-19331445D01*
X5282857Y-19302874D01*
X5268571Y-19245731D01*
X5268571Y-19174303D01*
X5282857Y-19117160D01*
X5297143Y-19088588D01*
X5311428Y-19074303D01*
X5340000Y-19060017D01*
X5568571Y-19331445D02*
X5582857Y-19345731D01*
X5568571Y-19360017D01*
X5554286Y-19345731D01*
X5568571Y-19331445D01*
X5568571Y-19360017D01*
X5768571Y-19060017D02*
X5797143Y-19060017D01*
X5825714Y-19074303D01*
X5840000Y-19088588D01*
X5854285Y-19117160D01*
X5868571Y-19174303D01*
X5868571Y-19245731D01*
X5854285Y-19302874D01*
X5840000Y-19331445D01*
X5825714Y-19345731D01*
X5797143Y-19360017D01*
X5768571Y-19360017D01*
X5740000Y-19345731D01*
X5725714Y-19331445D01*
X5711428Y-19302874D01*
X5697143Y-19245731D01*
X5697143Y-19174303D01*
X5711428Y-19117160D01*
X5725714Y-19088588D01*
X5740000Y-19074303D01*
X5768571Y-19060017D01*
X5968571Y-19060017D02*
X6154285Y-19060017D01*
X6054285Y-19174303D01*
X6097143Y-19174303D01*
X6125714Y-19188588D01*
X6140000Y-19202874D01*
X6154285Y-19231445D01*
X6154285Y-19302874D01*
X6140000Y-19331445D01*
X6125714Y-19345731D01*
X6097143Y-19360017D01*
X6011428Y-19360017D01*
X5982857Y-19345731D01*
X5968571Y-19331445D01*
X6268571Y-19088588D02*
X6282857Y-19074303D01*
X6311428Y-19060017D01*
X6382857Y-19060017D01*
X6411428Y-19074303D01*
X6425714Y-19088588D01*
X6440000Y-19117160D01*
X6440000Y-19145731D01*
X6425714Y-19188588D01*
X6254285Y-19360017D01*
X6440000Y-19360017D01*
X6554286Y-19060017D02*
X6554286Y-19117160D01*
X6668571Y-19060017D02*
X6668571Y-19117160D01*
X7111428Y-19474303D02*
X7097143Y-19460017D01*
X7068571Y-19417160D01*
X7054285Y-19388588D01*
X7040000Y-19345731D01*
X7025714Y-19274303D01*
X7025714Y-19217160D01*
X7040000Y-19145731D01*
X7054285Y-19102874D01*
X7068571Y-19074303D01*
X7097143Y-19031445D01*
X7111428Y-19017160D01*
X7354285Y-19160017D02*
X7354285Y-19360017D01*
X7282857Y-19045731D02*
X7211428Y-19260017D01*
X7397143Y-19260017D01*
X7740000Y-19360017D02*
X7740000Y-19060017D01*
X7868571Y-19360017D02*
X7868571Y-19202874D01*
X7854285Y-19174303D01*
X7825714Y-19160017D01*
X7782857Y-19160017D01*
X7754285Y-19174303D01*
X7740000Y-19188588D01*
X8054285Y-19360017D02*
X8025714Y-19345731D01*
X8011428Y-19331445D01*
X7997143Y-19302874D01*
X7997143Y-19217160D01*
X8011428Y-19188588D01*
X8025714Y-19174303D01*
X8054285Y-19160017D01*
X8097143Y-19160017D01*
X8125714Y-19174303D01*
X8140000Y-19188588D01*
X8154285Y-19217160D01*
X8154285Y-19302874D01*
X8140000Y-19331445D01*
X8125714Y-19345731D01*
X8097143Y-19360017D01*
X8054285Y-19360017D01*
X8325714Y-19360017D02*
X8297143Y-19345731D01*
X8282857Y-19317160D01*
X8282857Y-19060017D01*
X8554286Y-19345731D02*
X8525714Y-19360017D01*
X8468571Y-19360017D01*
X8440000Y-19345731D01*
X8425714Y-19317160D01*
X8425714Y-19202874D01*
X8440000Y-19174303D01*
X8468571Y-19160017D01*
X8525714Y-19160017D01*
X8554286Y-19174303D01*
X8568571Y-19202874D01*
X8568571Y-19231445D01*
X8425714Y-19260017D01*
X8682857Y-19345731D02*
X8711429Y-19360017D01*
X8768571Y-19360017D01*
X8797143Y-19345731D01*
X8811429Y-19317160D01*
X8811429Y-19302874D01*
X8797143Y-19274303D01*
X8768571Y-19260017D01*
X8725714Y-19260017D01*
X8697143Y-19245731D01*
X8682857Y-19217160D01*
X8682857Y-19202874D01*
X8697143Y-19174303D01*
X8725714Y-19160017D01*
X8768571Y-19160017D01*
X8797143Y-19174303D01*
X8911428Y-19474303D02*
X8925714Y-19460017D01*
X8954286Y-19417160D01*
X8968571Y-19388588D01*
X8982857Y-19345731D01*
X8997143Y-19274303D01*
X8997143Y-19217160D01*
X8982857Y-19145731D01*
X8968571Y-19102874D01*
X8954286Y-19074303D01*
X8925714Y-19031445D01*
X8911428Y-19017160D01*
X2390000Y-19670303D02*
X2440000Y-19620303D01*
X2390000Y-19570303D01*
X2340000Y-19620303D01*
X2390000Y-19670303D01*
X2868571Y-19756017D02*
X2697143Y-19756017D01*
X2782857Y-19756017D02*
X2782857Y-19456017D01*
X2754286Y-19498874D01*
X2725714Y-19527445D01*
X2697143Y-19541731D01*
X2997143Y-19727445D02*
X3011428Y-19741731D01*
X2997143Y-19756017D01*
X2982857Y-19741731D01*
X2997143Y-19727445D01*
X2997143Y-19756017D01*
X3197143Y-19456017D02*
X3225714Y-19456017D01*
X3254286Y-19470303D01*
X3268571Y-19484588D01*
X3282857Y-19513160D01*
X3297143Y-19570303D01*
X3297143Y-19641731D01*
X3282857Y-19698874D01*
X3268571Y-19727445D01*
X3254286Y-19741731D01*
X3225714Y-19756017D01*
X3197143Y-19756017D01*
X3168571Y-19741731D01*
X3154286Y-19727445D01*
X3140000Y-19698874D01*
X3125714Y-19641731D01*
X3125714Y-19570303D01*
X3140000Y-19513160D01*
X3154286Y-19484588D01*
X3168571Y-19470303D01*
X3197143Y-19456017D01*
X3482857Y-19456017D02*
X3511428Y-19456017D01*
X3540000Y-19470303D01*
X3554286Y-19484588D01*
X3568571Y-19513160D01*
X3582857Y-19570303D01*
X3582857Y-19641731D01*
X3568571Y-19698874D01*
X3554286Y-19727445D01*
X3540000Y-19741731D01*
X3511428Y-19756017D01*
X3482857Y-19756017D01*
X3454286Y-19741731D01*
X3440000Y-19727445D01*
X3425714Y-19698874D01*
X3411428Y-19641731D01*
X3411428Y-19570303D01*
X3425714Y-19513160D01*
X3440000Y-19484588D01*
X3454286Y-19470303D01*
X3482857Y-19456017D01*
X3711428Y-19756017D02*
X3711428Y-19556017D01*
X3711428Y-19584588D02*
X3725714Y-19570303D01*
X3754286Y-19556017D01*
X3797143Y-19556017D01*
X3825714Y-19570303D01*
X3840000Y-19598874D01*
X3840000Y-19756017D01*
X3840000Y-19598874D02*
X3854286Y-19570303D01*
X3882857Y-19556017D01*
X3925714Y-19556017D01*
X3954286Y-19570303D01*
X3968571Y-19598874D01*
X3968571Y-19756017D01*
X4111428Y-19756017D02*
X4111428Y-19556017D01*
X4111428Y-19584588D02*
X4125714Y-19570303D01*
X4154286Y-19556017D01*
X4197143Y-19556017D01*
X4225714Y-19570303D01*
X4240000Y-19598874D01*
X4240000Y-19756017D01*
X4240000Y-19598874D02*
X4254286Y-19570303D01*
X4282857Y-19556017D01*
X4325714Y-19556017D01*
X4354286Y-19570303D01*
X4368571Y-19598874D01*
X4368571Y-19756017D01*
X4954286Y-19441731D02*
X4697143Y-19827445D01*
X5340000Y-19456017D02*
X5368571Y-19456017D01*
X5397143Y-19470303D01*
X5411428Y-19484588D01*
X5425714Y-19513160D01*
X5440000Y-19570303D01*
X5440000Y-19641731D01*
X5425714Y-19698874D01*
X5411428Y-19727445D01*
X5397143Y-19741731D01*
X5368571Y-19756017D01*
X5340000Y-19756017D01*
X5311428Y-19741731D01*
X5297143Y-19727445D01*
X5282857Y-19698874D01*
X5268571Y-19641731D01*
X5268571Y-19570303D01*
X5282857Y-19513160D01*
X5297143Y-19484588D01*
X5311428Y-19470303D01*
X5340000Y-19456017D01*
X5568571Y-19727445D02*
X5582857Y-19741731D01*
X5568571Y-19756017D01*
X5554286Y-19741731D01*
X5568571Y-19727445D01*
X5568571Y-19756017D01*
X5768571Y-19456017D02*
X5797143Y-19456017D01*
X5825714Y-19470303D01*
X5840000Y-19484588D01*
X5854285Y-19513160D01*
X5868571Y-19570303D01*
X5868571Y-19641731D01*
X5854285Y-19698874D01*
X5840000Y-19727445D01*
X5825714Y-19741731D01*
X5797143Y-19756017D01*
X5768571Y-19756017D01*
X5740000Y-19741731D01*
X5725714Y-19727445D01*
X5711428Y-19698874D01*
X5697143Y-19641731D01*
X5697143Y-19570303D01*
X5711428Y-19513160D01*
X5725714Y-19484588D01*
X5740000Y-19470303D01*
X5768571Y-19456017D01*
X5968571Y-19456017D02*
X6154285Y-19456017D01*
X6054285Y-19570303D01*
X6097143Y-19570303D01*
X6125714Y-19584588D01*
X6140000Y-19598874D01*
X6154285Y-19627445D01*
X6154285Y-19698874D01*
X6140000Y-19727445D01*
X6125714Y-19741731D01*
X6097143Y-19756017D01*
X6011428Y-19756017D01*
X5982857Y-19741731D01*
X5968571Y-19727445D01*
X6297143Y-19756017D02*
X6354285Y-19756017D01*
X6382857Y-19741731D01*
X6397143Y-19727445D01*
X6425714Y-19684588D01*
X6440000Y-19627445D01*
X6440000Y-19513160D01*
X6425714Y-19484588D01*
X6411428Y-19470303D01*
X6382857Y-19456017D01*
X6325714Y-19456017D01*
X6297143Y-19470303D01*
X6282857Y-19484588D01*
X6268571Y-19513160D01*
X6268571Y-19584588D01*
X6282857Y-19613160D01*
X6297143Y-19627445D01*
X6325714Y-19641731D01*
X6382857Y-19641731D01*
X6411428Y-19627445D01*
X6425714Y-19613160D01*
X6440000Y-19584588D01*
X6554286Y-19456017D02*
X6554286Y-19513160D01*
X6668571Y-19456017D02*
X6668571Y-19513160D01*
X7111428Y-19870303D02*
X7097143Y-19856017D01*
X7068571Y-19813160D01*
X7054285Y-19784588D01*
X7040000Y-19741731D01*
X7025714Y-19670303D01*
X7025714Y-19613160D01*
X7040000Y-19541731D01*
X7054285Y-19498874D01*
X7068571Y-19470303D01*
X7097143Y-19427445D01*
X7111428Y-19413160D01*
X7197143Y-19456017D02*
X7382857Y-19456017D01*
X7282857Y-19570303D01*
X7325714Y-19570303D01*
X7354285Y-19584588D01*
X7368571Y-19598874D01*
X7382857Y-19627445D01*
X7382857Y-19698874D01*
X7368571Y-19727445D01*
X7354285Y-19741731D01*
X7325714Y-19756017D01*
X7240000Y-19756017D01*
X7211428Y-19741731D01*
X7197143Y-19727445D01*
X7654285Y-19456017D02*
X7511428Y-19456017D01*
X7497143Y-19598874D01*
X7511428Y-19584588D01*
X7540000Y-19570303D01*
X7611428Y-19570303D01*
X7640000Y-19584588D01*
X7654285Y-19598874D01*
X7668571Y-19627445D01*
X7668571Y-19698874D01*
X7654285Y-19727445D01*
X7640000Y-19741731D01*
X7611428Y-19756017D01*
X7540000Y-19756017D01*
X7511428Y-19741731D01*
X7497143Y-19727445D01*
X8025714Y-19756017D02*
X8025714Y-19456017D01*
X8154285Y-19756017D02*
X8154285Y-19598874D01*
X8140000Y-19570303D01*
X8111428Y-19556017D01*
X8068571Y-19556017D01*
X8040000Y-19570303D01*
X8025714Y-19584588D01*
X8340000Y-19756017D02*
X8311428Y-19741731D01*
X8297143Y-19727445D01*
X8282857Y-19698874D01*
X8282857Y-19613160D01*
X8297143Y-19584588D01*
X8311428Y-19570303D01*
X8340000Y-19556017D01*
X8382857Y-19556017D01*
X8411428Y-19570303D01*
X8425714Y-19584588D01*
X8440000Y-19613160D01*
X8440000Y-19698874D01*
X8425714Y-19727445D01*
X8411428Y-19741731D01*
X8382857Y-19756017D01*
X8340000Y-19756017D01*
X8611428Y-19756017D02*
X8582857Y-19741731D01*
X8568571Y-19713160D01*
X8568571Y-19456017D01*
X8840000Y-19741731D02*
X8811429Y-19756017D01*
X8754286Y-19756017D01*
X8725714Y-19741731D01*
X8711429Y-19713160D01*
X8711429Y-19598874D01*
X8725714Y-19570303D01*
X8754286Y-19556017D01*
X8811429Y-19556017D01*
X8840000Y-19570303D01*
X8854286Y-19598874D01*
X8854286Y-19627445D01*
X8711429Y-19656017D01*
X8968571Y-19741731D02*
X8997143Y-19756017D01*
X9054286Y-19756017D01*
X9082857Y-19741731D01*
X9097143Y-19713160D01*
X9097143Y-19698874D01*
X9082857Y-19670303D01*
X9054286Y-19656017D01*
X9011429Y-19656017D01*
X8982857Y-19641731D01*
X8968571Y-19613160D01*
X8968571Y-19598874D01*
X8982857Y-19570303D01*
X9011429Y-19556017D01*
X9054286Y-19556017D01*
X9082857Y-19570303D01*
X9197143Y-19870303D02*
X9211429Y-19856017D01*
X9240000Y-19813160D01*
X9254286Y-19784588D01*
X9268571Y-19741731D01*
X9282857Y-19670303D01*
X9282857Y-19613160D01*
X9268571Y-19541731D01*
X9254286Y-19498874D01*
X9240000Y-19470303D01*
X9211429Y-19427445D01*
X9197143Y-19413160D01*
X2308000Y-19950303D02*
X2440000Y-20082303D01*
X2440000Y-19950303D02*
X2308000Y-20082303D01*
X2440000Y-20016303D02*
G75*
G03X2440000Y-20016303I-66000J0D01*
G01*
X2868571Y-20152017D02*
X2697143Y-20152017D01*
X2782857Y-20152017D02*
X2782857Y-19852017D01*
X2754286Y-19894874D01*
X2725714Y-19923445D01*
X2697143Y-19937731D01*
X2997143Y-20123445D02*
X3011428Y-20137731D01*
X2997143Y-20152017D01*
X2982857Y-20137731D01*
X2997143Y-20123445D01*
X2997143Y-20152017D01*
X3111428Y-19852017D02*
X3297143Y-19852017D01*
X3197143Y-19966303D01*
X3240000Y-19966303D01*
X3268571Y-19980588D01*
X3282857Y-19994874D01*
X3297143Y-20023445D01*
X3297143Y-20094874D01*
X3282857Y-20123445D01*
X3268571Y-20137731D01*
X3240000Y-20152017D01*
X3154286Y-20152017D01*
X3125714Y-20137731D01*
X3111428Y-20123445D01*
X3411428Y-19880588D02*
X3425714Y-19866303D01*
X3454286Y-19852017D01*
X3525714Y-19852017D01*
X3554286Y-19866303D01*
X3568571Y-19880588D01*
X3582857Y-19909160D01*
X3582857Y-19937731D01*
X3568571Y-19980588D01*
X3397143Y-20152017D01*
X3582857Y-20152017D01*
X3711428Y-20152017D02*
X3711428Y-19952017D01*
X3711428Y-19980588D02*
X3725714Y-19966303D01*
X3754286Y-19952017D01*
X3797143Y-19952017D01*
X3825714Y-19966303D01*
X3840000Y-19994874D01*
X3840000Y-20152017D01*
X3840000Y-19994874D02*
X3854286Y-19966303D01*
X3882857Y-19952017D01*
X3925714Y-19952017D01*
X3954286Y-19966303D01*
X3968571Y-19994874D01*
X3968571Y-20152017D01*
X4111428Y-20152017D02*
X4111428Y-19952017D01*
X4111428Y-19980588D02*
X4125714Y-19966303D01*
X4154286Y-19952017D01*
X4197143Y-19952017D01*
X4225714Y-19966303D01*
X4240000Y-19994874D01*
X4240000Y-20152017D01*
X4240000Y-19994874D02*
X4254286Y-19966303D01*
X4282857Y-19952017D01*
X4325714Y-19952017D01*
X4354286Y-19966303D01*
X4368571Y-19994874D01*
X4368571Y-20152017D01*
X4954286Y-19837731D02*
X4697143Y-20223445D01*
X5340000Y-19852017D02*
X5368571Y-19852017D01*
X5397143Y-19866303D01*
X5411428Y-19880588D01*
X5425714Y-19909160D01*
X5440000Y-19966303D01*
X5440000Y-20037731D01*
X5425714Y-20094874D01*
X5411428Y-20123445D01*
X5397143Y-20137731D01*
X5368571Y-20152017D01*
X5340000Y-20152017D01*
X5311428Y-20137731D01*
X5297143Y-20123445D01*
X5282857Y-20094874D01*
X5268571Y-20037731D01*
X5268571Y-19966303D01*
X5282857Y-19909160D01*
X5297143Y-19880588D01*
X5311428Y-19866303D01*
X5340000Y-19852017D01*
X5568571Y-20123445D02*
X5582857Y-20137731D01*
X5568571Y-20152017D01*
X5554286Y-20137731D01*
X5568571Y-20123445D01*
X5568571Y-20152017D01*
X5768571Y-19852017D02*
X5797143Y-19852017D01*
X5825714Y-19866303D01*
X5840000Y-19880588D01*
X5854285Y-19909160D01*
X5868571Y-19966303D01*
X5868571Y-20037731D01*
X5854285Y-20094874D01*
X5840000Y-20123445D01*
X5825714Y-20137731D01*
X5797143Y-20152017D01*
X5768571Y-20152017D01*
X5740000Y-20137731D01*
X5725714Y-20123445D01*
X5711428Y-20094874D01*
X5697143Y-20037731D01*
X5697143Y-19966303D01*
X5711428Y-19909160D01*
X5725714Y-19880588D01*
X5740000Y-19866303D01*
X5768571Y-19852017D01*
X6140000Y-19852017D02*
X5997143Y-19852017D01*
X5982857Y-19994874D01*
X5997143Y-19980588D01*
X6025714Y-19966303D01*
X6097143Y-19966303D01*
X6125714Y-19980588D01*
X6140000Y-19994874D01*
X6154285Y-20023445D01*
X6154285Y-20094874D01*
X6140000Y-20123445D01*
X6125714Y-20137731D01*
X6097143Y-20152017D01*
X6025714Y-20152017D01*
X5997143Y-20137731D01*
X5982857Y-20123445D01*
X6268571Y-19880588D02*
X6282857Y-19866303D01*
X6311428Y-19852017D01*
X6382857Y-19852017D01*
X6411428Y-19866303D01*
X6425714Y-19880588D01*
X6440000Y-19909160D01*
X6440000Y-19937731D01*
X6425714Y-19980588D01*
X6254285Y-20152017D01*
X6440000Y-20152017D01*
X6554286Y-19852017D02*
X6554286Y-19909160D01*
X6668571Y-19852017D02*
X6668571Y-19909160D01*
X7111428Y-20266303D02*
X7097143Y-20252017D01*
X7068571Y-20209160D01*
X7054285Y-20180588D01*
X7040000Y-20137731D01*
X7025714Y-20066303D01*
X7025714Y-20009160D01*
X7040000Y-19937731D01*
X7054285Y-19894874D01*
X7068571Y-19866303D01*
X7097143Y-19823445D01*
X7111428Y-19809160D01*
X7211428Y-19880588D02*
X7225714Y-19866303D01*
X7254285Y-19852017D01*
X7325714Y-19852017D01*
X7354285Y-19866303D01*
X7368571Y-19880588D01*
X7382857Y-19909160D01*
X7382857Y-19937731D01*
X7368571Y-19980588D01*
X7197143Y-20152017D01*
X7382857Y-20152017D01*
X7740000Y-20152017D02*
X7740000Y-19852017D01*
X7868571Y-20152017D02*
X7868571Y-19994874D01*
X7854285Y-19966303D01*
X7825714Y-19952017D01*
X7782857Y-19952017D01*
X7754285Y-19966303D01*
X7740000Y-19980588D01*
X8054285Y-20152017D02*
X8025714Y-20137731D01*
X8011428Y-20123445D01*
X7997143Y-20094874D01*
X7997143Y-20009160D01*
X8011428Y-19980588D01*
X8025714Y-19966303D01*
X8054285Y-19952017D01*
X8097143Y-19952017D01*
X8125714Y-19966303D01*
X8140000Y-19980588D01*
X8154285Y-20009160D01*
X8154285Y-20094874D01*
X8140000Y-20123445D01*
X8125714Y-20137731D01*
X8097143Y-20152017D01*
X8054285Y-20152017D01*
X8325714Y-20152017D02*
X8297143Y-20137731D01*
X8282857Y-20109160D01*
X8282857Y-19852017D01*
X8554286Y-20137731D02*
X8525714Y-20152017D01*
X8468571Y-20152017D01*
X8440000Y-20137731D01*
X8425714Y-20109160D01*
X8425714Y-19994874D01*
X8440000Y-19966303D01*
X8468571Y-19952017D01*
X8525714Y-19952017D01*
X8554286Y-19966303D01*
X8568571Y-19994874D01*
X8568571Y-20023445D01*
X8425714Y-20052017D01*
X8682857Y-20137731D02*
X8711429Y-20152017D01*
X8768571Y-20152017D01*
X8797143Y-20137731D01*
X8811429Y-20109160D01*
X8811429Y-20094874D01*
X8797143Y-20066303D01*
X8768571Y-20052017D01*
X8725714Y-20052017D01*
X8697143Y-20037731D01*
X8682857Y-20009160D01*
X8682857Y-19994874D01*
X8697143Y-19966303D01*
X8725714Y-19952017D01*
X8768571Y-19952017D01*
X8797143Y-19966303D01*
X8911428Y-20266303D02*
X8925714Y-20252017D01*
X8954286Y-20209160D01*
X8968571Y-20180588D01*
X8982857Y-20137731D01*
X8997143Y-20066303D01*
X8997143Y-20009160D01*
X8982857Y-19937731D01*
X8968571Y-19894874D01*
X8954286Y-19866303D01*
X8925714Y-19823445D01*
X8911428Y-19809160D01*
X2220000Y-20302303D02*
X2440000Y-20522303D01*
X2440000Y-20302303D02*
X2220000Y-20522303D01*
X2330000Y-20302303D02*
X2330000Y-20522303D01*
X2220000Y-20412303D02*
X2440000Y-20412303D01*
X2697143Y-20276588D02*
X2711429Y-20262303D01*
X2740000Y-20248017D01*
X2811428Y-20248017D01*
X2840000Y-20262303D01*
X2854286Y-20276588D01*
X2868571Y-20305160D01*
X2868571Y-20333731D01*
X2854286Y-20376588D01*
X2682857Y-20548017D01*
X2868571Y-20548017D01*
X2997143Y-20519445D02*
X3011428Y-20533731D01*
X2997143Y-20548017D01*
X2982857Y-20533731D01*
X2997143Y-20519445D01*
X2997143Y-20548017D01*
X3125714Y-20276588D02*
X3140000Y-20262303D01*
X3168571Y-20248017D01*
X3240000Y-20248017D01*
X3268571Y-20262303D01*
X3282857Y-20276588D01*
X3297143Y-20305160D01*
X3297143Y-20333731D01*
X3282857Y-20376588D01*
X3111428Y-20548017D01*
X3297143Y-20548017D01*
X3482857Y-20248017D02*
X3511428Y-20248017D01*
X3540000Y-20262303D01*
X3554286Y-20276588D01*
X3568571Y-20305160D01*
X3582857Y-20362303D01*
X3582857Y-20433731D01*
X3568571Y-20490874D01*
X3554286Y-20519445D01*
X3540000Y-20533731D01*
X3511428Y-20548017D01*
X3482857Y-20548017D01*
X3454286Y-20533731D01*
X3440000Y-20519445D01*
X3425714Y-20490874D01*
X3411428Y-20433731D01*
X3411428Y-20362303D01*
X3425714Y-20305160D01*
X3440000Y-20276588D01*
X3454286Y-20262303D01*
X3482857Y-20248017D01*
X3711428Y-20548017D02*
X3711428Y-20348017D01*
X3711428Y-20376588D02*
X3725714Y-20362303D01*
X3754286Y-20348017D01*
X3797143Y-20348017D01*
X3825714Y-20362303D01*
X3840000Y-20390874D01*
X3840000Y-20548017D01*
X3840000Y-20390874D02*
X3854286Y-20362303D01*
X3882857Y-20348017D01*
X3925714Y-20348017D01*
X3954286Y-20362303D01*
X3968571Y-20390874D01*
X3968571Y-20548017D01*
X4111428Y-20548017D02*
X4111428Y-20348017D01*
X4111428Y-20376588D02*
X4125714Y-20362303D01*
X4154286Y-20348017D01*
X4197143Y-20348017D01*
X4225714Y-20362303D01*
X4240000Y-20390874D01*
X4240000Y-20548017D01*
X4240000Y-20390874D02*
X4254286Y-20362303D01*
X4282857Y-20348017D01*
X4325714Y-20348017D01*
X4354286Y-20362303D01*
X4368571Y-20390874D01*
X4368571Y-20548017D01*
X4954286Y-20233731D02*
X4697143Y-20619445D01*
X5340000Y-20248017D02*
X5368571Y-20248017D01*
X5397143Y-20262303D01*
X5411428Y-20276588D01*
X5425714Y-20305160D01*
X5440000Y-20362303D01*
X5440000Y-20433731D01*
X5425714Y-20490874D01*
X5411428Y-20519445D01*
X5397143Y-20533731D01*
X5368571Y-20548017D01*
X5340000Y-20548017D01*
X5311428Y-20533731D01*
X5297143Y-20519445D01*
X5282857Y-20490874D01*
X5268571Y-20433731D01*
X5268571Y-20362303D01*
X5282857Y-20305160D01*
X5297143Y-20276588D01*
X5311428Y-20262303D01*
X5340000Y-20248017D01*
X5568571Y-20519445D02*
X5582857Y-20533731D01*
X5568571Y-20548017D01*
X5554286Y-20533731D01*
X5568571Y-20519445D01*
X5568571Y-20548017D01*
X5768571Y-20248017D02*
X5797143Y-20248017D01*
X5825714Y-20262303D01*
X5840000Y-20276588D01*
X5854285Y-20305160D01*
X5868571Y-20362303D01*
X5868571Y-20433731D01*
X5854285Y-20490874D01*
X5840000Y-20519445D01*
X5825714Y-20533731D01*
X5797143Y-20548017D01*
X5768571Y-20548017D01*
X5740000Y-20533731D01*
X5725714Y-20519445D01*
X5711428Y-20490874D01*
X5697143Y-20433731D01*
X5697143Y-20362303D01*
X5711428Y-20305160D01*
X5725714Y-20276588D01*
X5740000Y-20262303D01*
X5768571Y-20248017D01*
X6040000Y-20376588D02*
X6011428Y-20362303D01*
X5997143Y-20348017D01*
X5982857Y-20319445D01*
X5982857Y-20305160D01*
X5997143Y-20276588D01*
X6011428Y-20262303D01*
X6040000Y-20248017D01*
X6097143Y-20248017D01*
X6125714Y-20262303D01*
X6140000Y-20276588D01*
X6154285Y-20305160D01*
X6154285Y-20319445D01*
X6140000Y-20348017D01*
X6125714Y-20362303D01*
X6097143Y-20376588D01*
X6040000Y-20376588D01*
X6011428Y-20390874D01*
X5997143Y-20405160D01*
X5982857Y-20433731D01*
X5982857Y-20490874D01*
X5997143Y-20519445D01*
X6011428Y-20533731D01*
X6040000Y-20548017D01*
X6097143Y-20548017D01*
X6125714Y-20533731D01*
X6140000Y-20519445D01*
X6154285Y-20490874D01*
X6154285Y-20433731D01*
X6140000Y-20405160D01*
X6125714Y-20390874D01*
X6097143Y-20376588D01*
X6254285Y-20248017D02*
X6454285Y-20248017D01*
X6325714Y-20548017D01*
X6554286Y-20248017D02*
X6554286Y-20305160D01*
X6668571Y-20248017D02*
X6668571Y-20305160D01*
X7111428Y-20662303D02*
X7097143Y-20648017D01*
X7068571Y-20605160D01*
X7054285Y-20576588D01*
X7040000Y-20533731D01*
X7025714Y-20462303D01*
X7025714Y-20405160D01*
X7040000Y-20333731D01*
X7054285Y-20290874D01*
X7068571Y-20262303D01*
X7097143Y-20219445D01*
X7111428Y-20205160D01*
X7354285Y-20248017D02*
X7297143Y-20248017D01*
X7268571Y-20262303D01*
X7254285Y-20276588D01*
X7225714Y-20319445D01*
X7211428Y-20376588D01*
X7211428Y-20490874D01*
X7225714Y-20519445D01*
X7240000Y-20533731D01*
X7268571Y-20548017D01*
X7325714Y-20548017D01*
X7354285Y-20533731D01*
X7368571Y-20519445D01*
X7382857Y-20490874D01*
X7382857Y-20419445D01*
X7368571Y-20390874D01*
X7354285Y-20376588D01*
X7325714Y-20362303D01*
X7268571Y-20362303D01*
X7240000Y-20376588D01*
X7225714Y-20390874D01*
X7211428Y-20419445D01*
X7740000Y-20548017D02*
X7740000Y-20248017D01*
X7868571Y-20548017D02*
X7868571Y-20390874D01*
X7854285Y-20362303D01*
X7825714Y-20348017D01*
X7782857Y-20348017D01*
X7754285Y-20362303D01*
X7740000Y-20376588D01*
X8054285Y-20548017D02*
X8025714Y-20533731D01*
X8011428Y-20519445D01*
X7997143Y-20490874D01*
X7997143Y-20405160D01*
X8011428Y-20376588D01*
X8025714Y-20362303D01*
X8054285Y-20348017D01*
X8097143Y-20348017D01*
X8125714Y-20362303D01*
X8140000Y-20376588D01*
X8154285Y-20405160D01*
X8154285Y-20490874D01*
X8140000Y-20519445D01*
X8125714Y-20533731D01*
X8097143Y-20548017D01*
X8054285Y-20548017D01*
X8325714Y-20548017D02*
X8297143Y-20533731D01*
X8282857Y-20505160D01*
X8282857Y-20248017D01*
X8554286Y-20533731D02*
X8525714Y-20548017D01*
X8468571Y-20548017D01*
X8440000Y-20533731D01*
X8425714Y-20505160D01*
X8425714Y-20390874D01*
X8440000Y-20362303D01*
X8468571Y-20348017D01*
X8525714Y-20348017D01*
X8554286Y-20362303D01*
X8568571Y-20390874D01*
X8568571Y-20419445D01*
X8425714Y-20448017D01*
X8682857Y-20533731D02*
X8711429Y-20548017D01*
X8768571Y-20548017D01*
X8797143Y-20533731D01*
X8811429Y-20505160D01*
X8811429Y-20490874D01*
X8797143Y-20462303D01*
X8768571Y-20448017D01*
X8725714Y-20448017D01*
X8697143Y-20433731D01*
X8682857Y-20405160D01*
X8682857Y-20390874D01*
X8697143Y-20362303D01*
X8725714Y-20348017D01*
X8768571Y-20348017D01*
X8797143Y-20362303D01*
X8911428Y-20662303D02*
X8925714Y-20648017D01*
X8954286Y-20605160D01*
X8968571Y-20576588D01*
X8982857Y-20533731D01*
X8997143Y-20462303D01*
X8997143Y-20405160D01*
X8982857Y-20333731D01*
X8968571Y-20290874D01*
X8954286Y-20262303D01*
X8925714Y-20219445D01*
X8911428Y-20205160D01*
X2210000Y-20693303D02*
X2440000Y-20923303D01*
X2440000Y-20693303D02*
X2210000Y-20923303D01*
X2406318Y-20889621D02*
X2406318Y-20726984D01*
X2243682Y-20726984D01*
X2243682Y-20889621D01*
X2406318Y-20889621D01*
X2697143Y-20672588D02*
X2711429Y-20658303D01*
X2740000Y-20644017D01*
X2811428Y-20644017D01*
X2840000Y-20658303D01*
X2854286Y-20672588D01*
X2868571Y-20701160D01*
X2868571Y-20729731D01*
X2854286Y-20772588D01*
X2682857Y-20944017D01*
X2868571Y-20944017D01*
X2997143Y-20915445D02*
X3011428Y-20929731D01*
X2997143Y-20944017D01*
X2982857Y-20929731D01*
X2997143Y-20915445D01*
X2997143Y-20944017D01*
X3111428Y-20644017D02*
X3297143Y-20644017D01*
X3197143Y-20758303D01*
X3240000Y-20758303D01*
X3268571Y-20772588D01*
X3282857Y-20786874D01*
X3297143Y-20815445D01*
X3297143Y-20886874D01*
X3282857Y-20915445D01*
X3268571Y-20929731D01*
X3240000Y-20944017D01*
X3154286Y-20944017D01*
X3125714Y-20929731D01*
X3111428Y-20915445D01*
X3482857Y-20644017D02*
X3511428Y-20644017D01*
X3540000Y-20658303D01*
X3554286Y-20672588D01*
X3568571Y-20701160D01*
X3582857Y-20758303D01*
X3582857Y-20829731D01*
X3568571Y-20886874D01*
X3554286Y-20915445D01*
X3540000Y-20929731D01*
X3511428Y-20944017D01*
X3482857Y-20944017D01*
X3454286Y-20929731D01*
X3440000Y-20915445D01*
X3425714Y-20886874D01*
X3411428Y-20829731D01*
X3411428Y-20758303D01*
X3425714Y-20701160D01*
X3440000Y-20672588D01*
X3454286Y-20658303D01*
X3482857Y-20644017D01*
X3711428Y-20944017D02*
X3711428Y-20744017D01*
X3711428Y-20772588D02*
X3725714Y-20758303D01*
X3754286Y-20744017D01*
X3797143Y-20744017D01*
X3825714Y-20758303D01*
X3840000Y-20786874D01*
X3840000Y-20944017D01*
X3840000Y-20786874D02*
X3854286Y-20758303D01*
X3882857Y-20744017D01*
X3925714Y-20744017D01*
X3954286Y-20758303D01*
X3968571Y-20786874D01*
X3968571Y-20944017D01*
X4111428Y-20944017D02*
X4111428Y-20744017D01*
X4111428Y-20772588D02*
X4125714Y-20758303D01*
X4154286Y-20744017D01*
X4197143Y-20744017D01*
X4225714Y-20758303D01*
X4240000Y-20786874D01*
X4240000Y-20944017D01*
X4240000Y-20786874D02*
X4254286Y-20758303D01*
X4282857Y-20744017D01*
X4325714Y-20744017D01*
X4354286Y-20758303D01*
X4368571Y-20786874D01*
X4368571Y-20944017D01*
X4954286Y-20629731D02*
X4697143Y-21015445D01*
X5340000Y-20644017D02*
X5368571Y-20644017D01*
X5397143Y-20658303D01*
X5411428Y-20672588D01*
X5425714Y-20701160D01*
X5440000Y-20758303D01*
X5440000Y-20829731D01*
X5425714Y-20886874D01*
X5411428Y-20915445D01*
X5397143Y-20929731D01*
X5368571Y-20944017D01*
X5340000Y-20944017D01*
X5311428Y-20929731D01*
X5297143Y-20915445D01*
X5282857Y-20886874D01*
X5268571Y-20829731D01*
X5268571Y-20758303D01*
X5282857Y-20701160D01*
X5297143Y-20672588D01*
X5311428Y-20658303D01*
X5340000Y-20644017D01*
X5568571Y-20915445D02*
X5582857Y-20929731D01*
X5568571Y-20944017D01*
X5554286Y-20929731D01*
X5568571Y-20915445D01*
X5568571Y-20944017D01*
X5768571Y-20644017D02*
X5797143Y-20644017D01*
X5825714Y-20658303D01*
X5840000Y-20672588D01*
X5854285Y-20701160D01*
X5868571Y-20758303D01*
X5868571Y-20829731D01*
X5854285Y-20886874D01*
X5840000Y-20915445D01*
X5825714Y-20929731D01*
X5797143Y-20944017D01*
X5768571Y-20944017D01*
X5740000Y-20929731D01*
X5725714Y-20915445D01*
X5711428Y-20886874D01*
X5697143Y-20829731D01*
X5697143Y-20758303D01*
X5711428Y-20701160D01*
X5725714Y-20672588D01*
X5740000Y-20658303D01*
X5768571Y-20644017D01*
X6011428Y-20944017D02*
X6068571Y-20944017D01*
X6097143Y-20929731D01*
X6111428Y-20915445D01*
X6140000Y-20872588D01*
X6154285Y-20815445D01*
X6154285Y-20701160D01*
X6140000Y-20672588D01*
X6125714Y-20658303D01*
X6097143Y-20644017D01*
X6040000Y-20644017D01*
X6011428Y-20658303D01*
X5997143Y-20672588D01*
X5982857Y-20701160D01*
X5982857Y-20772588D01*
X5997143Y-20801160D01*
X6011428Y-20815445D01*
X6040000Y-20829731D01*
X6097143Y-20829731D01*
X6125714Y-20815445D01*
X6140000Y-20801160D01*
X6154285Y-20772588D01*
X6440000Y-20944017D02*
X6268571Y-20944017D01*
X6354285Y-20944017D02*
X6354285Y-20644017D01*
X6325714Y-20686874D01*
X6297143Y-20715445D01*
X6268571Y-20729731D01*
X6554286Y-20644017D02*
X6554286Y-20701160D01*
X6668571Y-20644017D02*
X6668571Y-20701160D01*
X7111428Y-21058303D02*
X7097143Y-21044017D01*
X7068571Y-21001160D01*
X7054285Y-20972588D01*
X7040000Y-20929731D01*
X7025714Y-20858303D01*
X7025714Y-20801160D01*
X7040000Y-20729731D01*
X7054285Y-20686874D01*
X7068571Y-20658303D01*
X7097143Y-20615445D01*
X7111428Y-20601160D01*
X7211428Y-20672588D02*
X7225714Y-20658303D01*
X7254285Y-20644017D01*
X7325714Y-20644017D01*
X7354285Y-20658303D01*
X7368571Y-20672588D01*
X7382857Y-20701160D01*
X7382857Y-20729731D01*
X7368571Y-20772588D01*
X7197143Y-20944017D01*
X7382857Y-20944017D01*
X7740000Y-20944017D02*
X7740000Y-20644017D01*
X7868571Y-20944017D02*
X7868571Y-20786874D01*
X7854285Y-20758303D01*
X7825714Y-20744017D01*
X7782857Y-20744017D01*
X7754285Y-20758303D01*
X7740000Y-20772588D01*
X8054285Y-20944017D02*
X8025714Y-20929731D01*
X8011428Y-20915445D01*
X7997143Y-20886874D01*
X7997143Y-20801160D01*
X8011428Y-20772588D01*
X8025714Y-20758303D01*
X8054285Y-20744017D01*
X8097143Y-20744017D01*
X8125714Y-20758303D01*
X8140000Y-20772588D01*
X8154285Y-20801160D01*
X8154285Y-20886874D01*
X8140000Y-20915445D01*
X8125714Y-20929731D01*
X8097143Y-20944017D01*
X8054285Y-20944017D01*
X8325714Y-20944017D02*
X8297143Y-20929731D01*
X8282857Y-20901160D01*
X8282857Y-20644017D01*
X8554286Y-20929731D02*
X8525714Y-20944017D01*
X8468571Y-20944017D01*
X8440000Y-20929731D01*
X8425714Y-20901160D01*
X8425714Y-20786874D01*
X8440000Y-20758303D01*
X8468571Y-20744017D01*
X8525714Y-20744017D01*
X8554286Y-20758303D01*
X8568571Y-20786874D01*
X8568571Y-20815445D01*
X8425714Y-20844017D01*
X8682857Y-20929731D02*
X8711429Y-20944017D01*
X8768571Y-20944017D01*
X8797143Y-20929731D01*
X8811429Y-20901160D01*
X8811429Y-20886874D01*
X8797143Y-20858303D01*
X8768571Y-20844017D01*
X8725714Y-20844017D01*
X8697143Y-20829731D01*
X8682857Y-20801160D01*
X8682857Y-20786874D01*
X8697143Y-20758303D01*
X8725714Y-20744017D01*
X8768571Y-20744017D01*
X8797143Y-20758303D01*
X8911428Y-21058303D02*
X8925714Y-21044017D01*
X8954286Y-21001160D01*
X8968571Y-20972588D01*
X8982857Y-20929731D01*
X8997143Y-20858303D01*
X8997143Y-20801160D01*
X8982857Y-20729731D01*
X8968571Y-20686874D01*
X8954286Y-20658303D01*
X8925714Y-20615445D01*
X8911428Y-20601160D01*
M02*
