G04 #@! TF.FileFunction,Copper,L2,Bot,Signal*
%FSLAX46Y46*%
G04 Gerber Fmt 4.6, Leading zero omitted, Abs format (unit mm)*
G04 Created by KiCad (PCBNEW 4.0.4-stable) date 12/06/17 08:33:33*
%MOMM*%
%LPD*%
G01*
G04 APERTURE LIST*
%ADD10C,0.100000*%
%ADD11R,1.700000X1.700000*%
%ADD12C,1.700000*%
%ADD13R,1.905000X1.905000*%
%ADD14C,1.905000*%
%ADD15R,1.980000X3.960000*%
%ADD16O,1.980000X3.960000*%
%ADD17O,1.700000X1.700000*%
%ADD18C,1.400000*%
%ADD19O,1.400000X1.400000*%
%ADD20R,1.727200X2.032000*%
%ADD21O,1.727200X2.032000*%
%ADD22R,1.620000X1.620000*%
%ADD23C,1.620000*%
%ADD24C,2.200000*%
%ADD25C,1.000000*%
%ADD26R,2.600000X2.000000*%
%ADD27O,2.600000X2.000000*%
%ADD28R,1.400000X1.700000*%
%ADD29O,1.400000X1.700000*%
%ADD30C,6.000000*%
%ADD31C,0.550000*%
%ADD32C,0.450000*%
%ADD33C,0.600000*%
%ADD34C,0.850000*%
%ADD35C,0.250000*%
%ADD36C,0.300000*%
%ADD37C,0.350000*%
%ADD38C,0.200000*%
%ADD39C,0.400000*%
%ADD40C,0.600000*%
%ADD41C,0.500000*%
%ADD42C,0.700000*%
%ADD43C,0.254000*%
G04 APERTURE END LIST*
D10*
D11*
X60840000Y22270000D03*
D12*
X4750000Y9290000D03*
D11*
X4750000Y6730000D03*
D13*
X62650000Y4790000D03*
D14*
X57570000Y4790000D03*
D13*
X62640000Y12490000D03*
D14*
X57560000Y12490000D03*
D15*
X9400000Y4690000D03*
D16*
X14400000Y4690000D03*
D11*
X40325000Y41810000D03*
D17*
X40325000Y39270000D03*
X40325000Y36730000D03*
X40325000Y34190000D03*
X40325000Y31650000D03*
X40325000Y29110000D03*
D11*
X43650000Y21330000D03*
D17*
X46190000Y21330000D03*
D11*
X71980000Y61070000D03*
D17*
X69440000Y61070000D03*
D11*
X90500000Y53300000D03*
D17*
X87960000Y53300000D03*
D11*
X23150000Y50860000D03*
D17*
X20610000Y50860000D03*
X18070000Y50860000D03*
X15530000Y50860000D03*
X12990000Y50860000D03*
X10450000Y50860000D03*
D11*
X11420000Y24340000D03*
D17*
X13960000Y24340000D03*
X16500000Y24340000D03*
D11*
X66590000Y61050000D03*
X63560000Y22270000D03*
X69300000Y2990000D03*
D17*
X69300000Y5530000D03*
X69300000Y8070000D03*
D18*
X57570000Y18040000D03*
D19*
X62650000Y18040000D03*
D20*
X77810000Y67340000D03*
D21*
X80350000Y67340000D03*
X82890000Y67340000D03*
X85430000Y67340000D03*
X87970000Y67340000D03*
X90510000Y67340000D03*
D22*
X94290000Y12160000D03*
D23*
X94290000Y14700000D03*
X94290000Y17240000D03*
D22*
X72250000Y12140000D03*
D23*
X72250000Y14680000D03*
X72250000Y17220000D03*
D11*
X84850000Y8240000D03*
D17*
X87390000Y8240000D03*
X89930000Y8240000D03*
X92470000Y8240000D03*
D11*
X73730000Y8240000D03*
D17*
X76270000Y8240000D03*
X78810000Y8240000D03*
X81350000Y8240000D03*
D24*
X96800000Y66990000D03*
X96800000Y2990000D03*
X2800000Y66990000D03*
X2800000Y2990000D03*
D11*
X25110000Y17540000D03*
D17*
X27650000Y17540000D03*
X30190000Y17540000D03*
D11*
X25100000Y21940000D03*
D17*
X27640000Y21940000D03*
X30180000Y21940000D03*
D25*
X86375000Y4615000D03*
X87875000Y4615000D03*
X89375000Y4615000D03*
X90875000Y4615000D03*
X75325000Y4615000D03*
X76825000Y4615000D03*
X78325000Y4615000D03*
X79825000Y4615000D03*
D26*
X87200000Y30940000D03*
D27*
X87200000Y28400000D03*
X87200000Y25860000D03*
X87200000Y23320000D03*
D28*
X77800000Y63230000D03*
D29*
X80340000Y63230000D03*
X82880000Y63230000D03*
X85420000Y63230000D03*
X87960000Y63230000D03*
X90500000Y63230000D03*
D30*
X49510000Y60430000D03*
D31*
X34770000Y53140000D03*
D32*
X36890000Y59500000D03*
X52450000Y58060000D03*
X56280000Y56710000D03*
X65540000Y63530000D03*
X61570000Y63510000D03*
X69490000Y63620000D03*
X61430000Y62080000D03*
X73490000Y64860000D03*
X75030000Y66220000D03*
X64430000Y65860000D03*
X75590000Y64180000D03*
X77580000Y65290000D03*
X84130000Y61900000D03*
X84110000Y65420000D03*
X89200000Y61980000D03*
X89220000Y65470000D03*
X86780000Y65490000D03*
X84240000Y69190000D03*
X86620000Y61870000D03*
X86480000Y55860000D03*
X84140000Y57170000D03*
X27890000Y15570000D03*
X23010000Y17960000D03*
X63580000Y42430000D03*
X72271439Y48668561D03*
X67620000Y44060000D03*
D33*
X80520000Y40870000D03*
X74420000Y36860000D03*
X81520000Y35890000D03*
X75430000Y35880000D03*
X79280000Y41820000D03*
X23070000Y44190000D03*
X5140000Y32770000D03*
X10500000Y32770000D03*
X19020000Y32730000D03*
X29110000Y32720000D03*
X38350000Y31580000D03*
X33620000Y29150000D03*
X28970000Y24510000D03*
X32590000Y21400000D03*
X31280000Y24240000D03*
X33120000Y25960000D03*
X46180000Y26160000D03*
X45350000Y23040000D03*
X47890000Y24620000D03*
X54010000Y26120000D03*
X61010000Y23820000D03*
X61010000Y26090000D03*
X63320000Y26070000D03*
X63470000Y23800000D03*
X65350000Y21790000D03*
X71580000Y21700000D03*
X82980000Y21800000D03*
X92300000Y21850000D03*
X98550000Y21730000D03*
X98630000Y28390000D03*
X98550000Y36800000D03*
X98590000Y45750000D03*
X98670000Y53700000D03*
X98670000Y60940000D03*
X98600000Y68890000D03*
X89270000Y69190000D03*
X71450000Y69270000D03*
X63090000Y69350000D03*
X43320000Y64330000D03*
X43420000Y69090000D03*
X37330000Y69000000D03*
X31190000Y69030000D03*
X20950000Y69130000D03*
X20820000Y62760000D03*
D31*
X14970000Y56600000D03*
D33*
X9080000Y23510000D03*
X5240000Y27110000D03*
X5140000Y36420000D03*
X5140000Y44050000D03*
X8470000Y20090000D03*
X15450000Y16460000D03*
X13670000Y1220000D03*
X1060000Y5140000D03*
X1230000Y16460000D03*
X1130000Y25280000D03*
X1230000Y32890000D03*
X1180000Y40300000D03*
X1230000Y48360000D03*
X1180000Y56480000D03*
X7980000Y56630000D03*
D32*
X56710000Y44970000D03*
X61240000Y43080000D03*
X57690000Y42280000D03*
X58760000Y43910000D03*
X53990000Y40860000D03*
X83590000Y31580000D03*
X59940000Y40100000D03*
X80740000Y34340000D03*
X82820000Y37780000D03*
X84980000Y37780000D03*
X86380000Y36580000D03*
X74980000Y34320000D03*
X69480000Y34360000D03*
X71040000Y32700000D03*
X76080000Y33040000D03*
X79570000Y23700000D03*
X77280000Y25170000D03*
X77280000Y27000000D03*
X80550000Y26965002D03*
X80560000Y28860000D03*
X65260000Y45440000D03*
X66820000Y44915024D03*
X61190002Y44374990D03*
X66770000Y41500000D03*
D33*
X26900000Y9100000D03*
X19360000Y3310000D03*
X23080000Y9400000D03*
X20520000Y4980000D03*
X23080000Y5830000D03*
X32220000Y2040000D03*
X27050000Y7190000D03*
X22050000Y1265000D03*
X42890000Y5520000D03*
X50480000Y1220000D03*
X58950000Y1230000D03*
X59020000Y8640000D03*
X40980000Y15780000D03*
X35350000Y11760000D03*
X43060000Y8640000D03*
X28490000Y19030000D03*
X16490000Y20110000D03*
X17760000Y18070000D03*
X19350000Y12340000D03*
X5700000Y14990000D03*
X9900000Y13590000D03*
D32*
X69520000Y58080000D03*
X69340000Y51490000D03*
X69970000Y46400000D03*
X69170872Y47209836D03*
X73329998Y47610000D03*
X71460000Y49500000D03*
X70600259Y50369741D03*
X68270000Y48150002D03*
X66990000Y49500000D03*
X68220000Y58230000D03*
X68220000Y51480000D03*
X66989998Y58220000D03*
X66990002Y51490000D03*
X72390000Y41500000D03*
X74390000Y43490000D03*
X74380000Y45210000D03*
X72390000Y44940000D03*
X74220000Y46830000D03*
X77700000Y50300000D03*
X81980000Y54570000D03*
X60110000Y35110000D03*
X61920000Y33150000D03*
X60930000Y32210000D03*
X60140000Y31140000D03*
X62160000Y31160000D03*
X58780010Y34418000D03*
X76392056Y30862000D03*
X82610000Y32750000D03*
X68270000Y40380000D03*
X69600000Y38040000D03*
X88830000Y33240000D03*
D31*
X21890000Y53660000D03*
X25009998Y54459990D03*
X29770000Y50000000D03*
X30610918Y50810918D03*
X36470000Y53020000D03*
X50329998Y47950000D03*
X41340000Y48070002D03*
X50330000Y45130000D03*
X42740000Y45180000D03*
X41350000Y44760000D03*
X33950000Y44770000D03*
X27050000Y60700000D03*
D32*
X39710000Y48140000D03*
X32290000Y47510000D03*
X33870000Y45930000D03*
X57620000Y34050000D03*
X57600000Y38640000D03*
D31*
X35050000Y46360000D03*
X38620000Y47630000D03*
X36259082Y46759082D03*
X25720000Y55630000D03*
X32996084Y53256084D03*
X32175854Y52422309D03*
X31404082Y51614082D03*
X37321028Y47252801D03*
D32*
X50640000Y38040000D03*
X50650000Y36530000D03*
X84060000Y43440000D03*
X42340000Y32400000D03*
X48820000Y34520000D03*
X48810000Y31650000D03*
X42350000Y30900000D03*
X42340000Y34390000D03*
D31*
X43050000Y37940000D03*
D32*
X83600000Y29870000D03*
X77900000Y32740000D03*
X88810000Y34560000D03*
X87020000Y34550000D03*
X88840000Y36350000D03*
X91510000Y39020000D03*
X90590000Y39830000D03*
X86240000Y53230000D03*
X87350000Y52089999D03*
X76960000Y53280000D03*
X89190000Y51760000D03*
X87330000Y54540000D03*
X89180000Y54490000D03*
X76450000Y54570000D03*
X95940000Y41770000D03*
X95870000Y45860000D03*
X91630000Y49090000D03*
X93610000Y48090000D03*
D31*
X39790000Y52810000D03*
X38270000Y62150000D03*
X63780000Y60220000D03*
D32*
X14429998Y47450000D03*
X21670004Y47480000D03*
X24530000Y47510000D03*
X24470000Y46250000D03*
D31*
X26701084Y59451084D03*
X26020000Y56890000D03*
X26389998Y58170000D03*
X24560000Y58159988D03*
X24550000Y59459998D03*
X36570000Y17650000D03*
X42330000Y19780000D03*
X64450000Y28250000D03*
X57950000Y28240000D03*
D34*
X49020000Y28610000D03*
D31*
X21670000Y46230000D03*
X14640000Y46230000D03*
X5590000Y48380000D03*
X9000000Y48770002D03*
X8210000Y51320000D03*
X7310000Y46710000D03*
X10450000Y44170000D03*
X25380000Y28590000D03*
X25580000Y37190000D03*
X8910000Y28560000D03*
X11660000Y37160000D03*
D33*
X32890000Y14760000D03*
X42980000Y12890000D03*
X39750000Y10210000D03*
D32*
X21730000Y49710000D03*
X19350000Y49720000D03*
X16810000Y49680000D03*
X14250000Y49640000D03*
X93500000Y45890000D03*
X92940000Y36500000D03*
X92940000Y40400000D03*
X84080000Y45930000D03*
X89980000Y46910000D03*
D31*
X88460000Y44420000D03*
X86510000Y39240000D03*
X54450000Y34940000D03*
X62350000Y46490000D03*
X24510000Y55650000D03*
X24530000Y56860011D03*
X24560000Y60780000D03*
X55360000Y65480000D03*
X42790000Y61730000D03*
D33*
X69281594Y43438406D03*
D31*
X52409998Y41760000D03*
D33*
X69600000Y40540000D03*
D31*
X55420000Y38170000D03*
X66950000Y28250000D03*
X60450000Y28240000D03*
D34*
X50130002Y26970000D03*
D31*
X28130000Y28640000D03*
X11660000Y28610000D03*
X90499996Y44900000D03*
X85960000Y44420000D03*
X88865000Y47115000D03*
X54450000Y32440000D03*
X57450000Y43740000D03*
X79010000Y17490000D03*
X85910000Y17490000D03*
D33*
X76780000Y9950000D03*
X81590000Y4620000D03*
X68620000Y19180000D03*
X92380000Y18020000D03*
X92410000Y13490000D03*
X73870000Y13690000D03*
X77380000Y16500000D03*
X80130000Y16500000D03*
D32*
X80840000Y770000D03*
X67820000Y830000D03*
X98850000Y840000D03*
X60600000Y790000D03*
X60550000Y11090000D03*
X60490000Y20420000D03*
X75750000Y19320000D03*
X95370000Y4520000D03*
X98440000Y11050000D03*
X98410000Y20190000D03*
D33*
X64950000Y2290000D03*
X64950000Y9990000D03*
X75340000Y1950000D03*
X86390000Y1930000D03*
D31*
X83170000Y11270000D03*
X83130000Y18640000D03*
X89260000Y11280000D03*
X88450000Y20250000D03*
D32*
X53180000Y38669990D03*
X14390000Y30610000D03*
X71600000Y44120000D03*
X71670002Y45920000D03*
X68860000Y48730000D03*
D33*
X38350001Y12620000D03*
X40890000Y8440000D03*
D32*
X65950000Y40740000D03*
X67090000Y38540000D03*
X86740000Y50139994D03*
X66020000Y44910000D03*
X80509998Y26120000D03*
X91489998Y39810000D03*
X85110000Y34200000D03*
X59480000Y42520000D03*
D31*
X75090000Y30710000D03*
D32*
X64300000Y43840021D03*
X83314980Y34460000D03*
X80550004Y22870000D03*
X91900000Y38460000D03*
X60160000Y42500000D03*
D31*
X95980000Y38940000D03*
X75090000Y22830000D03*
X88810000Y49670000D03*
D32*
X70010000Y36540002D03*
X72800002Y47060000D03*
X70040000Y49820000D03*
X67150010Y37040000D03*
X72280000Y46479998D03*
X69450000Y49310000D03*
X61960000Y42190000D03*
X86600000Y42560000D03*
X64110000Y40490000D03*
X92210000Y43030000D03*
X82130000Y33840000D03*
X86580000Y33160000D03*
D31*
X94110000Y41590000D03*
D32*
X68880000Y33550000D03*
X40612840Y48009174D03*
X45310002Y43800000D03*
X55570000Y35950000D03*
X45930000Y37250000D03*
D33*
X35560000Y13980000D03*
X48840000Y16070000D03*
X39310000Y12660000D03*
X48810000Y13830000D03*
D32*
X68610000Y36039990D03*
X59979998Y36080000D03*
D31*
X23009998Y60110000D03*
D32*
X59420000Y36740000D03*
X57190000Y32540000D03*
X55510000Y32440000D03*
X45507741Y36735966D03*
X55690000Y40825009D03*
X62960000Y40850000D03*
X85080000Y36110000D03*
X82500000Y35750000D03*
X64460000Y30940000D03*
X86390000Y35470000D03*
D35*
X26701084Y59451084D02*
X26701084Y60351084D01*
X26701084Y60351084D02*
X27050000Y60700000D01*
X26389998Y58170000D02*
X26389998Y59139998D01*
X26389998Y59139998D02*
X26701084Y59451084D01*
X26020000Y56890000D02*
X26020000Y57800002D01*
X26020000Y57800002D02*
X26389998Y58170000D01*
X25720000Y55630000D02*
X25720000Y56590000D01*
X25720000Y56590000D02*
X26020000Y56890000D01*
X25009998Y54459990D02*
X25009998Y54919998D01*
X25009998Y54919998D02*
X25720000Y55630000D01*
X34770000Y53140000D02*
X36350000Y53140000D01*
X36350000Y53140000D02*
X36470000Y53020000D01*
X32996084Y53256084D02*
X34653916Y53256084D01*
X34653916Y53256084D02*
X34770000Y53140000D01*
X32175854Y52422309D02*
X32175854Y52435854D01*
X32175854Y52435854D02*
X32996084Y53256084D01*
X31404082Y51614082D02*
X31404082Y51650537D01*
X31404082Y51650537D02*
X32175854Y52422309D01*
X30610918Y50810918D02*
X30610918Y50820918D01*
X30610918Y50820918D02*
X31404082Y51614082D01*
X29770000Y50000000D02*
X29800000Y50000000D01*
X29800000Y50000000D02*
X30610918Y50810918D01*
X38270000Y62150000D02*
X38270000Y62025000D01*
X38270000Y62025000D02*
X36890000Y60645000D01*
X36890000Y60645000D02*
X36890000Y59500000D01*
X56280000Y56710000D02*
X53800000Y56710000D01*
X53800000Y56710000D02*
X52450000Y58060000D01*
X69490000Y63620000D02*
X65630000Y63620000D01*
X65315001Y63754999D02*
X65540000Y63530000D01*
X65630000Y63620000D02*
X65540000Y63530000D01*
X64430000Y64640000D02*
X65315001Y63754999D01*
X64430000Y65860000D02*
X64430000Y64640000D01*
X60560000Y63540000D02*
X61740000Y62360000D01*
X58620000Y65480000D02*
X60560000Y63540000D01*
X60560000Y63540000D02*
X61540000Y63540000D01*
X61540000Y63540000D02*
X61570000Y63510000D01*
X61740000Y62360000D02*
X63780000Y60320000D01*
X61740000Y62360000D02*
X61710000Y62360000D01*
X61710000Y62360000D02*
X61430000Y62080000D01*
X75030000Y66220000D02*
X74850000Y66220000D01*
X74850000Y66220000D02*
X73490000Y64860000D01*
X75254999Y65995001D02*
X75030000Y66220000D01*
X75590000Y65660000D02*
X75254999Y65995001D01*
X75590000Y64180000D02*
X75590000Y65660000D01*
X63090000Y69350000D02*
X63090000Y67200000D01*
X63090000Y67200000D02*
X64430000Y65860000D01*
X77580000Y65290000D02*
X76700000Y65290000D01*
X76700000Y65290000D02*
X75590000Y64180000D01*
X84110000Y65420000D02*
X77710000Y65420000D01*
X77710000Y65420000D02*
X77580000Y65290000D01*
X86620000Y61870000D02*
X84160000Y61870000D01*
X84160000Y61870000D02*
X84130000Y61900000D01*
X84180000Y65490000D02*
X84110000Y65420000D01*
X86780000Y65490000D02*
X84180000Y65490000D01*
X86780000Y65490000D02*
X89200000Y65490000D01*
X89200000Y65490000D02*
X89220000Y65470000D01*
X82047600Y69190000D02*
X84240000Y69190000D01*
X84240000Y69190000D02*
X89270000Y69190000D01*
X84140000Y57170000D02*
X85170000Y57170000D01*
X85170000Y57170000D02*
X86480000Y55860000D01*
X26900000Y9100000D02*
X26900000Y14580000D01*
X26900000Y14580000D02*
X27890000Y15570000D01*
X61490000Y41520000D02*
X62670000Y41520000D01*
X62670000Y41520000D02*
X63580000Y42430000D01*
X61015001Y41994999D02*
X61490000Y41520000D01*
X61015001Y42074999D02*
X61015001Y41994999D01*
X61240000Y43080000D02*
X61015001Y42855001D01*
X61015001Y42855001D02*
X61015001Y42074999D01*
D36*
X72348561Y48668561D02*
X72271439Y48668561D01*
X72238561Y48668561D02*
X72271439Y48668561D01*
X69970000Y46400000D02*
X72238561Y48668561D01*
X76960000Y53280000D02*
X72348561Y48668561D01*
D35*
X67620000Y44060000D02*
X69960000Y46400000D01*
X69960000Y46400000D02*
X69970000Y46400000D01*
X67395001Y43835001D02*
X67620000Y44060000D01*
X66900011Y43340011D02*
X67395001Y43835001D01*
X61500011Y43340011D02*
X66900011Y43340011D01*
X61240000Y43080000D02*
X61500011Y43340011D01*
X79280000Y41820000D02*
X74420000Y36960000D01*
X74420000Y36960000D02*
X74420000Y36860000D01*
X75430000Y35880000D02*
X81510000Y35880000D01*
X81510000Y35880000D02*
X81520000Y35890000D01*
X74390000Y43490000D02*
X77610000Y43490000D01*
X77610000Y43490000D02*
X79280000Y41820000D01*
X5140000Y36420000D02*
X5140000Y32770000D01*
X5140000Y32770000D02*
X5140000Y27210000D01*
X19020000Y32730000D02*
X10540000Y32730000D01*
X10540000Y32730000D02*
X10500000Y32770000D01*
X38350000Y31580000D02*
X37210000Y32720000D01*
X37210000Y32720000D02*
X29110000Y32720000D01*
X31280000Y24240000D02*
X29240000Y24240000D01*
X29240000Y24240000D02*
X28970000Y24510000D01*
X33120000Y25960000D02*
X31400000Y24240000D01*
X31400000Y24240000D02*
X31280000Y24240000D01*
X47890000Y24620000D02*
X47720000Y24620000D01*
X47720000Y24620000D02*
X46180000Y26160000D01*
X47890000Y24620000D02*
X46930000Y24620000D01*
X46930000Y24620000D02*
X45350000Y23040000D01*
X54010000Y26120000D02*
X49390000Y26120000D01*
X49390000Y26120000D02*
X47890000Y24620000D01*
X61010000Y26090000D02*
X54040000Y26090000D01*
X54040000Y26090000D02*
X54010000Y26120000D01*
X65350000Y21790000D02*
X65350000Y22214264D01*
X65350000Y22214264D02*
X65340000Y22224264D01*
X65340000Y22224264D02*
X65340000Y22910000D01*
X65340000Y22910000D02*
X64450000Y23800000D01*
X64450000Y23800000D02*
X63470000Y23800000D01*
X63320000Y26070000D02*
X61030000Y26070000D01*
X61030000Y26070000D02*
X61010000Y26090000D01*
X82980000Y21800000D02*
X71680000Y21800000D01*
X71680000Y21800000D02*
X71580000Y21700000D01*
X98550000Y36800000D02*
X98550000Y28470000D01*
X98550000Y28470000D02*
X98630000Y28390000D01*
X98670000Y53700000D02*
X98670000Y45830000D01*
X98670000Y45830000D02*
X98590000Y45750000D01*
X98600000Y68890000D02*
X98600000Y61010000D01*
X98600000Y61010000D02*
X98670000Y60940000D01*
X80350000Y67340000D02*
X80350000Y67492400D01*
X80350000Y67492400D02*
X82047600Y69190000D01*
X55360000Y65480000D02*
X59220000Y65480000D01*
X59220000Y65480000D02*
X63090000Y69350000D01*
X43420000Y69090000D02*
X43420000Y64430000D01*
X43420000Y64430000D02*
X43320000Y64330000D01*
X37330000Y69000000D02*
X43330000Y69000000D01*
X43330000Y69000000D02*
X43420000Y69090000D01*
X20950000Y69130000D02*
X31090000Y69130000D01*
X31090000Y69130000D02*
X31190000Y69030000D01*
X20670000Y58240000D02*
X19120000Y56690000D01*
X21360000Y58930000D02*
X20670000Y58240000D01*
X20670000Y58240000D02*
X20670000Y62610000D01*
X20670000Y62610000D02*
X20820000Y62760000D01*
X21360000Y60780000D02*
X21360000Y58930000D01*
X19120000Y56690000D02*
X15060000Y56690000D01*
X15060000Y56690000D02*
X14970000Y56600000D01*
D36*
X24560000Y60780000D02*
X21360000Y60780000D01*
D35*
X5140000Y27210000D02*
X5240000Y27110000D01*
X7310000Y46710000D02*
X7310000Y46220000D01*
X7310000Y46220000D02*
X5140000Y44050000D01*
D36*
X13500000Y17440000D02*
X9900000Y13840000D01*
X14130000Y18070000D02*
X13500000Y17440000D01*
D35*
X13500000Y17440000D02*
X14470000Y17440000D01*
X14470000Y17440000D02*
X15450000Y16460000D01*
X9400000Y4690000D02*
X9400000Y3700000D01*
X9400000Y3700000D02*
X11880000Y1220000D01*
X11880000Y1220000D02*
X13670000Y1220000D01*
X1060000Y5140000D02*
X1510000Y4690000D01*
X1510000Y4690000D02*
X9400000Y4690000D01*
X1130000Y25280000D02*
X1130000Y16560000D01*
X1130000Y16560000D02*
X1230000Y16460000D01*
X1180000Y40300000D02*
X1180000Y32940000D01*
X1180000Y32940000D02*
X1230000Y32890000D01*
X1180000Y56480000D02*
X1180000Y48410000D01*
X1180000Y48410000D02*
X1230000Y48360000D01*
X8210000Y51320000D02*
X8210000Y56400000D01*
X8210000Y56400000D02*
X7980000Y56630000D01*
X58760000Y44260000D02*
X58050000Y44970000D01*
X58050000Y44970000D02*
X56710000Y44970000D01*
X58760000Y43910000D02*
X58760000Y44260000D01*
X57690000Y42598198D02*
X57690000Y42280000D01*
X57690000Y42840000D02*
X57690000Y42598198D01*
X58760000Y43910000D02*
X57690000Y42840000D01*
X59940000Y40100000D02*
X59715001Y40324999D01*
X59715001Y40324999D02*
X56084999Y40324999D01*
X56084999Y40324999D02*
X55960000Y40200000D01*
X55960000Y40200000D02*
X54650000Y40200000D01*
X54650000Y40200000D02*
X53990000Y40860000D01*
X83600000Y31570000D02*
X83590000Y31580000D01*
X83600000Y29870000D02*
X83600000Y31570000D01*
D36*
X84980000Y37780000D02*
X82820000Y37780000D01*
X74980000Y34140000D02*
X74980000Y34320000D01*
X76080000Y33040000D02*
X74980000Y34140000D01*
X77900000Y32740000D02*
X76380000Y32740000D01*
X76380000Y32740000D02*
X76080000Y33040000D01*
X77280000Y25170000D02*
X78100000Y25170000D01*
X78100000Y25170000D02*
X79570000Y23700000D01*
X77280000Y27000000D02*
X77280000Y25170000D01*
X80560000Y26975002D02*
X80550000Y26965002D01*
X80560000Y28860000D02*
X80560000Y26975002D01*
D35*
X66279966Y44374990D02*
X66595001Y44690025D01*
X66876060Y44915024D02*
X66820000Y44915024D01*
X69170872Y47209836D02*
X66876060Y44915024D01*
X66595001Y44690025D02*
X66820000Y44915024D01*
X61190002Y44374990D02*
X66279966Y44374990D01*
X68270000Y40380000D02*
X67890000Y40380000D01*
X67890000Y40380000D02*
X66770000Y41500000D01*
D37*
X23080000Y5830000D02*
X23080000Y9400000D01*
X20819999Y4680001D02*
X20520000Y4980000D01*
X22050000Y3450000D02*
X20819999Y4680001D01*
X22050000Y1265000D02*
X22050000Y3450000D01*
X58515736Y1220000D02*
X50480000Y1220000D01*
X58950000Y1230000D02*
X58525736Y1230000D01*
X58525736Y1230000D02*
X58515736Y1220000D01*
X42544264Y7700000D02*
X39410000Y7700000D01*
X39410000Y7700000D02*
X35350000Y11760000D01*
X43060000Y8640000D02*
X43060000Y8215736D01*
X43060000Y8215736D02*
X42544264Y7700000D01*
D36*
X5700000Y14990000D02*
X8750000Y14990000D01*
X8750000Y14990000D02*
X9900000Y13840000D01*
X9900000Y13840000D02*
X9900000Y13590000D01*
X17760000Y18070000D02*
X14130000Y18070000D01*
X17760000Y18070000D02*
X18184264Y18070000D01*
X18184264Y18070000D02*
X19350000Y16904264D01*
X19350000Y16904264D02*
X19350000Y13265000D01*
X19350000Y13265000D02*
X19350000Y12340000D01*
D35*
X69480000Y51490000D02*
X69340000Y51490000D01*
X70600259Y50369741D02*
X69480000Y51490000D01*
D36*
X70010000Y46340000D02*
X69970000Y46380000D01*
X69970000Y46380000D02*
X69970000Y46400000D01*
D35*
X69170872Y47210872D02*
X69170872Y47209836D01*
X71460000Y49500000D02*
X69170872Y47210872D01*
X73440000Y47610000D02*
X73329998Y47610000D01*
X74220000Y46830000D02*
X73440000Y47610000D01*
X71460000Y49580000D02*
X71460000Y49500000D01*
X76450000Y54570000D02*
X71460000Y49580000D01*
X68270000Y48220000D02*
X68270000Y48150002D01*
X66990000Y49500000D02*
X68270000Y48220000D01*
X68220000Y51480000D02*
X68220000Y58230000D01*
X66990002Y58219996D02*
X66989998Y58220000D01*
X66990002Y51490000D02*
X66990002Y58219996D01*
X72390000Y41500000D02*
X72390000Y41818198D01*
X72390000Y41818198D02*
X72390000Y44940000D01*
X74380000Y45210000D02*
X74380000Y43500000D01*
X74380000Y43500000D02*
X74390000Y43490000D01*
X74220000Y46830000D02*
X74220000Y45370000D01*
X74220000Y45370000D02*
X74380000Y45210000D01*
X81980000Y54570000D02*
X87300000Y54570000D01*
X76450000Y54570000D02*
X81980000Y54570000D01*
X60930000Y32210000D02*
X60980000Y32210000D01*
X60980000Y32210000D02*
X61920000Y33150000D01*
X62160000Y31160000D02*
X61110000Y32210000D01*
X61110000Y32210000D02*
X60930000Y32210000D01*
X62160000Y31160000D02*
X60160000Y31160000D01*
X60160000Y31160000D02*
X60140000Y31140000D01*
X58461812Y34418000D02*
X58780010Y34418000D01*
X57988000Y34418000D02*
X58461812Y34418000D01*
X57620000Y34050000D02*
X57988000Y34418000D01*
X76392056Y31180198D02*
X76392056Y30862000D01*
X76392056Y31232056D02*
X76392056Y31180198D01*
X77900000Y32740000D02*
X76392056Y31232056D01*
D36*
X68270000Y40061802D02*
X68270000Y40380000D01*
X68270000Y39495000D02*
X68270000Y40061802D01*
X69600000Y38165000D02*
X68270000Y39495000D01*
X69600000Y38040000D02*
X69600000Y38165000D01*
D35*
X88810000Y33260000D02*
X88830000Y33240000D01*
X88810000Y34560000D02*
X88810000Y33260000D01*
D36*
X24510000Y55650000D02*
X25009998Y55150002D01*
X25009998Y54848898D02*
X25009998Y54459990D01*
X25009998Y55150002D02*
X25009998Y54848898D01*
D35*
X36420000Y53070000D02*
X36470000Y53020000D01*
X50330000Y47949998D02*
X50329998Y47950000D01*
X50330000Y45130000D02*
X50330000Y47949998D01*
X41350000Y44760000D02*
X42320000Y44760000D01*
X42320000Y44760000D02*
X42740000Y45180000D01*
X33870000Y45930000D02*
X33870000Y44850000D01*
X33870000Y44850000D02*
X33950000Y44770000D01*
X39485001Y47915001D02*
X39710000Y48140000D01*
X39200000Y47630000D02*
X39485001Y47915001D01*
X38620000Y47630000D02*
X39200000Y47630000D01*
X37321028Y47252801D02*
X38242801Y47252801D01*
X38242801Y47252801D02*
X38620000Y47630000D01*
X36259082Y46759082D02*
X36827309Y46759082D01*
X36827309Y46759082D02*
X37321028Y47252801D01*
X35050000Y46360000D02*
X35860000Y46360000D01*
X35860000Y46360000D02*
X36259082Y46759082D01*
X33870000Y45930000D02*
X34620000Y45930000D01*
X34620000Y45930000D02*
X35050000Y46360000D01*
X24530000Y47510000D02*
X32290000Y47510000D01*
X54450000Y34940000D02*
X52240000Y34940000D01*
X52240000Y34940000D02*
X50650000Y36530000D01*
X89064999Y36615003D02*
X89064999Y36574999D01*
X91469996Y39020000D02*
X89064999Y36615003D01*
X91510000Y39020000D02*
X91469996Y39020000D01*
X89064999Y36574999D02*
X88840000Y36350000D01*
D36*
X94140000Y40400000D02*
X92940000Y40400000D01*
X93500000Y45890000D02*
X93500000Y45880000D01*
X94790000Y44590000D02*
X94790000Y41050000D01*
X93500000Y45880000D02*
X94790000Y44590000D01*
X94790000Y41050000D02*
X94140000Y40400000D01*
D35*
X84080000Y45930000D02*
X84080000Y43460000D01*
X84080000Y43460000D02*
X84060000Y43440000D01*
X42350000Y32390000D02*
X42340000Y32400000D01*
X42350000Y30900000D02*
X42350000Y32390000D01*
X42340000Y32280000D02*
X42340000Y32400000D01*
X42340000Y34390000D02*
X42340000Y32280000D01*
X48810000Y31650000D02*
X48810000Y34510000D01*
X48810000Y34510000D02*
X48820000Y34520000D01*
X49020000Y28610000D02*
X49020000Y31440000D01*
X49020000Y31440000D02*
X48810000Y31650000D01*
X88840000Y36350000D02*
X87040000Y34550000D01*
X87040000Y34550000D02*
X87020000Y34550000D01*
D36*
X91828198Y39020000D02*
X91510000Y39020000D01*
X94910000Y39020000D02*
X91828198Y39020000D01*
X95940000Y41770000D02*
X95940000Y40050000D01*
X95940000Y40050000D02*
X94910000Y39020000D01*
X86190000Y53280000D02*
X86240000Y53230000D01*
X76960000Y53280000D02*
X86190000Y53280000D01*
X87350000Y51771801D02*
X87350000Y52089999D01*
X88547004Y49090000D02*
X87350000Y50287004D01*
X87350000Y50287004D02*
X87350000Y51771801D01*
X91630000Y49090000D02*
X88547004Y49090000D01*
X89180000Y51770000D02*
X89190000Y51760000D01*
X89180000Y54490000D02*
X89180000Y51770000D01*
X87330000Y54540000D02*
X89130000Y54540000D01*
X89130000Y54540000D02*
X89180000Y54490000D01*
D35*
X87300000Y54570000D02*
X87330000Y54540000D01*
D36*
X95870000Y45860000D02*
X95960000Y45770000D01*
X95960000Y45770000D02*
X95960000Y41790000D01*
X95960000Y41790000D02*
X95940000Y41770000D01*
X95940000Y41770000D02*
X95940000Y41451802D01*
X95840000Y45860000D02*
X95870000Y45860000D01*
X93610000Y48090000D02*
X95840000Y45860000D01*
X93610000Y48090000D02*
X92610000Y49090000D01*
X91948198Y49090000D02*
X91630000Y49090000D01*
X92610000Y49090000D02*
X91948198Y49090000D01*
D35*
X55360000Y65480000D02*
X58620000Y65480000D01*
X63780000Y60320000D02*
X63780000Y60220000D01*
D36*
X10450000Y44170000D02*
X10740000Y44170000D01*
X10740000Y44170000D02*
X14020000Y47450000D01*
X14111800Y47450000D02*
X14429998Y47450000D01*
X14020000Y47450000D02*
X14111800Y47450000D01*
X14640000Y46230000D02*
X14430000Y46440000D01*
X14430000Y46440000D02*
X14430000Y47449998D01*
X14430000Y47449998D02*
X14429998Y47450000D01*
X14250000Y49640000D02*
X14250000Y47629998D01*
X14250000Y47629998D02*
X14429998Y47450000D01*
X14459998Y47480000D02*
X14429998Y47450000D01*
X21670004Y47480000D02*
X14459998Y47480000D01*
X21670000Y47479996D02*
X21670004Y47480000D01*
X21670000Y46230000D02*
X21670000Y47479996D01*
X21730000Y47539996D02*
X21670004Y47480000D01*
D35*
X21700004Y47510000D02*
X21670004Y47480000D01*
X24530000Y47510000D02*
X21700004Y47510000D01*
D36*
X21730000Y49710000D02*
X21730000Y47539996D01*
D35*
X21670000Y46230000D02*
X24450000Y46230000D01*
X24450000Y46230000D02*
X24470000Y46250000D01*
D38*
X24550000Y59459998D02*
X24550000Y58169988D01*
D36*
X24530000Y56860011D02*
X24530000Y58129988D01*
X24530000Y58129988D02*
X24560000Y58159988D01*
D38*
X24550000Y58169988D02*
X24560000Y58159988D01*
D36*
X24560000Y60780000D02*
X24560000Y59469998D01*
X24560000Y59469998D02*
X24550000Y59459998D01*
X5590000Y48700000D02*
X5590000Y48380000D01*
X8210000Y51320000D02*
X5590000Y48700000D01*
X5640000Y48380000D02*
X5590000Y48380000D01*
X7310000Y46710000D02*
X5640000Y48380000D01*
X9000000Y49158910D02*
X9000000Y48770002D01*
X9000000Y50530000D02*
X9000000Y49158910D01*
X8210000Y51320000D02*
X9000000Y50530000D01*
X9274999Y48495003D02*
X9000000Y48770002D01*
X10450000Y47320002D02*
X9274999Y48495003D01*
X10450000Y44170000D02*
X10450000Y47320002D01*
X9000000Y48400000D02*
X9000000Y48770002D01*
X7310000Y46710000D02*
X9000000Y48400000D01*
X19350000Y49720000D02*
X19630000Y49440000D01*
X19630000Y49440000D02*
X19630000Y49400000D01*
X19630000Y49400000D02*
X21420000Y49400000D01*
X21420000Y49400000D02*
X21730000Y49710000D01*
X16810000Y49680000D02*
X17100000Y49390000D01*
X17100000Y49390000D02*
X19020000Y49390000D01*
X19020000Y49390000D02*
X19350000Y49720000D01*
X14250000Y49640000D02*
X14490000Y49400000D01*
X14490000Y49400000D02*
X16530000Y49400000D01*
X16530000Y49400000D02*
X16810000Y49680000D01*
D39*
X88460000Y44420000D02*
X88460000Y44390000D01*
D38*
X24530000Y55670000D02*
X24510000Y55650000D01*
X24530000Y56860011D02*
X24530000Y55670000D01*
D40*
X69581593Y43138407D02*
X69281594Y43438406D01*
X69600000Y43120000D02*
X69581593Y43138407D01*
X69600000Y40540000D02*
X69600000Y43120000D01*
D36*
X54389998Y43740000D02*
X52684997Y42034999D01*
X57450000Y43740000D02*
X54389998Y43740000D01*
X52359998Y41810000D02*
X52409998Y41760000D01*
X52684997Y42034999D02*
X52409998Y41760000D01*
X40325000Y41810000D02*
X52359998Y41810000D01*
D39*
X56810000Y36780000D02*
X55694999Y37895001D01*
X54450000Y32440000D02*
X54450000Y32565000D01*
X55694999Y37895001D02*
X55420000Y38170000D01*
X54450000Y32565000D02*
X56810000Y34925000D01*
X56810000Y34925000D02*
X56810000Y36780000D01*
D40*
X29440000Y20220000D02*
X37400000Y20220000D01*
X56750000Y12490000D02*
X57560000Y12490000D01*
X37400000Y20220000D02*
X39800000Y17820000D01*
X39800000Y17820000D02*
X51420000Y17820000D01*
X51420000Y17820000D02*
X56750000Y12490000D01*
X27640000Y21940000D02*
X27640000Y21510000D01*
X27640000Y21510000D02*
X28930000Y20220000D01*
X28930000Y20220000D02*
X29440000Y20220000D01*
X26440000Y20220000D02*
X29440000Y20220000D01*
D41*
X61860000Y26980000D02*
X65930000Y26980000D01*
X65930000Y26980000D02*
X66950000Y28000000D01*
X66950000Y28000000D02*
X66950000Y28250000D01*
X60450000Y28240000D02*
X60450000Y27560000D01*
X60450000Y27560000D02*
X59870000Y26980000D01*
X59870000Y26980000D02*
X59190000Y26980000D01*
X61860000Y26980000D02*
X61020000Y26980000D01*
X61020000Y26980000D02*
X60450000Y27550000D01*
X60450000Y27550000D02*
X60450000Y28240000D01*
X59190000Y26980000D02*
X61860000Y26980000D01*
X59190000Y26980000D02*
X50140002Y26980000D01*
X50140002Y26980000D02*
X50130002Y26970000D01*
D40*
X16500000Y24340000D02*
X16500000Y25542081D01*
X16500000Y25542081D02*
X13432081Y28610000D01*
X13432081Y28610000D02*
X13010000Y28610000D01*
X13010000Y28610000D02*
X11660000Y28610000D01*
D42*
X27640000Y21940000D02*
X27640000Y21420000D01*
X26440000Y20220000D02*
X17990000Y20220000D01*
X27640000Y21420000D02*
X26440000Y20220000D01*
X17990000Y20220000D02*
X16500000Y21710000D01*
X16500000Y21710000D02*
X16500000Y24340000D01*
D35*
X90499996Y45480004D02*
X90499996Y45288908D01*
X88865000Y47115000D02*
X90499996Y45480004D01*
X90499996Y45288908D02*
X90499996Y44900000D01*
X85970000Y44410000D02*
X85960000Y44420000D01*
D37*
X85960000Y44420000D02*
X86085000Y44420000D01*
X86085000Y44420000D02*
X88780000Y47115000D01*
X88780000Y47115000D02*
X88865000Y47115000D01*
D41*
X81350000Y8240000D02*
X79010000Y10580000D01*
X79010000Y10580000D02*
X79010000Y17490000D01*
X79010000Y17490000D02*
X79398908Y17490000D01*
X79398908Y17490000D02*
X85910000Y17490000D01*
D35*
X76480001Y10249999D02*
X76780000Y9950000D01*
X73870000Y12860000D02*
X76480001Y10249999D01*
X73870000Y13690000D02*
X73870000Y12860000D01*
X92410000Y13490000D02*
X92410000Y17990000D01*
X92410000Y17990000D02*
X92380000Y18020000D01*
X89260000Y11280000D02*
X90200000Y11280000D01*
X90200000Y11280000D02*
X92410000Y13490000D01*
X77380000Y16500000D02*
X76680000Y16500000D01*
X76680000Y16500000D02*
X73870000Y13690000D01*
X83170000Y11270000D02*
X83170000Y13460000D01*
X83170000Y13460000D02*
X80130000Y16500000D01*
X80910000Y840000D02*
X80840000Y770000D01*
X60600000Y790000D02*
X67780000Y790000D01*
X67780000Y790000D02*
X67820000Y830000D01*
X83130000Y18640000D02*
X76430000Y18640000D01*
X76430000Y18640000D02*
X75750000Y19320000D01*
D41*
X75325000Y4615000D02*
X75325000Y1965000D01*
X75325000Y1965000D02*
X75340000Y1950000D01*
X86375000Y4615000D02*
X86375000Y1945000D01*
X86375000Y1945000D02*
X86390000Y1930000D01*
D40*
X69300000Y5530000D02*
X74410000Y5530000D01*
X74410000Y5530000D02*
X75325000Y4615000D01*
X62650000Y18040000D02*
X63639949Y18040000D01*
X65020000Y9810000D02*
X68450001Y6379999D01*
X63639949Y18040000D02*
X65020000Y16659949D01*
X65020000Y16659949D02*
X65020000Y9810000D01*
X68450001Y6379999D02*
X69300000Y5530000D01*
D35*
X15415000Y30610000D02*
X15655000Y30370000D01*
X52861802Y38669990D02*
X53180000Y38669990D01*
X45599990Y38669990D02*
X52861802Y38669990D01*
X41600000Y31180000D02*
X41600000Y34670000D01*
X40790000Y30370000D02*
X41600000Y31180000D01*
X15655000Y30370000D02*
X40790000Y30370000D01*
X14390000Y30610000D02*
X15415000Y30610000D01*
X41600000Y34670000D02*
X45599990Y38669990D01*
D36*
X66590000Y61050000D02*
X66590000Y61040000D01*
X66590000Y61040000D02*
X66394998Y60844998D01*
X66394998Y60844998D02*
X66394998Y51185002D01*
X66394998Y51185002D02*
X68625001Y48954999D01*
X68625001Y48954999D02*
X68635001Y48954999D01*
X68635001Y48954999D02*
X68860000Y48730000D01*
D35*
X71670002Y44190002D02*
X71600000Y44120000D01*
X71670002Y45920000D02*
X71670002Y44190002D01*
D40*
X27650000Y17540000D02*
X38420000Y6770000D01*
X38420000Y6770000D02*
X55590000Y6770000D01*
X55590000Y6770000D02*
X57570000Y4790000D01*
D42*
X27650000Y17540000D02*
X27650000Y18000000D01*
X27650000Y18000000D02*
X26510000Y19140000D01*
X26510000Y19140000D02*
X15070000Y19140000D01*
X15070000Y19140000D02*
X11420000Y22790000D01*
X11420000Y22790000D02*
X11420000Y24340000D01*
D39*
X40890000Y8440000D02*
X40010000Y8440000D01*
X40010000Y8440000D02*
X38350001Y10099999D01*
X38350001Y10099999D02*
X38350001Y12620000D01*
D35*
X40325000Y39270000D02*
X40705000Y39650000D01*
X40705000Y39650000D02*
X59120000Y39650000D01*
X65725001Y40515001D02*
X65950000Y40740000D01*
X59120000Y39650000D02*
X59600000Y39170000D01*
X59600000Y39170000D02*
X64380000Y39170000D01*
X64380000Y39170000D02*
X65725001Y40515001D01*
X40325000Y34190000D02*
X45305000Y39170000D01*
X45305000Y39170000D02*
X58900000Y39170000D01*
X59530000Y38540000D02*
X66771802Y38540000D01*
X58900000Y39170000D02*
X59530000Y38540000D01*
X66771802Y38540000D02*
X67090000Y38540000D01*
D36*
X88404996Y48474998D02*
X86964999Y49914995D01*
X92205002Y48474998D02*
X88404996Y48474998D01*
X95380000Y40590000D02*
X95380000Y45300000D01*
X94600000Y39810000D02*
X95380000Y40590000D01*
X91489998Y39810000D02*
X94600000Y39810000D01*
X86964999Y49914995D02*
X86740000Y50139994D01*
X95380000Y45300000D02*
X92205002Y48474998D01*
X90500000Y53300000D02*
X90500000Y54450000D01*
X90500000Y54450000D02*
X89824998Y55125002D01*
X89824998Y55125002D02*
X76235002Y55125002D01*
X76235002Y55125002D02*
X66244999Y45134999D01*
X66244999Y45134999D02*
X66020000Y44910000D01*
X60930917Y44910000D02*
X65701802Y44910000D01*
X65701802Y44910000D02*
X66020000Y44910000D01*
X59480000Y43459083D02*
X60930917Y44910000D01*
X59480000Y42520000D02*
X59480000Y43459083D01*
X80191800Y26120000D02*
X80509998Y26120000D01*
X79580000Y26120000D02*
X80191800Y26120000D01*
X75090000Y30610000D02*
X79580000Y26120000D01*
X75090000Y30710000D02*
X75090000Y30610000D01*
D35*
X91264999Y39585001D02*
X91489998Y39810000D01*
X85879998Y34200000D02*
X91264999Y39585001D01*
X85110000Y34200000D02*
X85879998Y34200000D01*
D36*
X60160000Y43037004D02*
X60963017Y43840021D01*
X60160000Y42500000D02*
X60160000Y43037004D01*
X87960000Y53300000D02*
X87280000Y53980000D01*
X76722996Y53980000D02*
X66583017Y43840021D01*
X87280000Y53980000D02*
X76722996Y53980000D01*
X64618198Y43840021D02*
X64300000Y43840021D01*
X66583017Y43840021D02*
X64618198Y43840021D01*
X63981802Y43840021D02*
X64300000Y43840021D01*
X60963017Y43840021D02*
X63981802Y43840021D01*
D35*
X84900694Y33696758D02*
X84137452Y34460000D01*
X87136758Y33696758D02*
X84900694Y33696758D01*
X83633178Y34460000D02*
X83314980Y34460000D01*
X91900000Y38460000D02*
X87136758Y33696758D01*
X81970000Y34460000D02*
X82996782Y34460000D01*
X84137452Y34460000D02*
X83633178Y34460000D01*
X81260000Y33750000D02*
X81970000Y34460000D01*
X80550004Y22870000D02*
X81260000Y23579996D01*
X82996782Y34460000D02*
X83314980Y34460000D01*
X81260000Y23579996D02*
X81260000Y33750000D01*
D36*
X75090000Y22830000D02*
X80510004Y22830000D01*
X80510004Y22830000D02*
X80550004Y22870000D01*
D35*
X92218198Y38460000D02*
X91900000Y38460000D01*
X95500000Y38460000D02*
X92218198Y38460000D01*
X95980000Y38940000D02*
X95500000Y38460000D01*
D36*
X88810000Y49670000D02*
X93060000Y49670000D01*
X93060000Y49670000D02*
X96520000Y46210000D01*
X96520000Y46210000D02*
X96520000Y39480000D01*
X96254999Y39214999D02*
X95980000Y38940000D01*
X96520000Y39480000D02*
X96254999Y39214999D01*
X87960000Y50520000D02*
X88535001Y49944999D01*
X87960000Y53300000D02*
X87960000Y50520000D01*
X88535001Y49944999D02*
X88810000Y49670000D01*
D35*
X71980000Y61070000D02*
X71770000Y61070000D01*
X71770000Y61070000D02*
X68839998Y58139998D01*
X69815001Y50044999D02*
X70040000Y49820000D01*
X68839998Y58139998D02*
X68839998Y51020002D01*
X68839998Y51020002D02*
X69815001Y50044999D01*
X72800002Y47060000D02*
X73650000Y46210002D01*
X73650000Y46210002D02*
X73650000Y40180002D01*
X73650000Y40180002D02*
X70234999Y36765001D01*
X70234999Y36765001D02*
X70010000Y36540002D01*
X69440000Y61070000D02*
X67600000Y59230000D01*
X67600000Y59230000D02*
X67600000Y51140000D01*
X67600000Y51140000D02*
X69450000Y49290000D01*
X69450000Y49290000D02*
X69450000Y49310000D01*
X67110000Y37040000D02*
X67150010Y37040000D01*
X67468208Y37040000D02*
X67150010Y37040000D01*
X69700000Y37040000D02*
X67468208Y37040000D01*
X73070000Y40410000D02*
X69700000Y37040000D01*
X73070000Y45689998D02*
X73070000Y40410000D01*
X67100000Y37030000D02*
X67110000Y37040000D01*
X72280000Y46479998D02*
X73070000Y45689998D01*
X86600000Y42560000D02*
X80350000Y42560000D01*
X80350000Y42560000D02*
X74349987Y48560013D01*
X74349987Y48560013D02*
X72870013Y48560013D01*
X72870013Y48560013D02*
X67250000Y42940000D01*
X67250000Y42940000D02*
X62710000Y42940000D01*
X62710000Y42940000D02*
X62184999Y42414999D01*
X62184999Y42414999D02*
X61960000Y42190000D01*
X92210000Y43030000D02*
X91239999Y42059999D01*
X91239999Y42059999D02*
X80130001Y42059999D01*
X74029998Y48160002D02*
X73139998Y48160002D01*
X80130001Y42059999D02*
X74029998Y48160002D01*
X73139998Y48160002D02*
X67479996Y42500000D01*
X67479996Y42500000D02*
X66120000Y42500000D01*
X66120000Y42500000D02*
X64334999Y40714999D01*
X64334999Y40714999D02*
X64110000Y40490000D01*
X86580000Y33160000D02*
X84720000Y33160000D01*
X84720000Y33160000D02*
X84040000Y33840000D01*
X84040000Y33840000D02*
X82130000Y33840000D01*
X68880000Y33550000D02*
X72120000Y33550000D01*
X72120000Y33550000D02*
X80160000Y41590000D01*
X80160000Y41590000D02*
X93721092Y41590000D01*
X93721092Y41590000D02*
X94110000Y41590000D01*
X45310002Y43800000D02*
X42480002Y46630000D01*
X42480002Y46630000D02*
X41992014Y46630000D01*
X41992014Y46630000D02*
X40612840Y48009174D01*
X55345001Y36174999D02*
X55570000Y35950000D01*
X54270000Y37250000D02*
X55345001Y36174999D01*
X45930000Y37250000D02*
X54270000Y37250000D01*
D39*
X48840000Y16070000D02*
X47540000Y14770000D01*
X47540000Y14770000D02*
X36350000Y14770000D01*
X36350000Y14770000D02*
X35560000Y13980000D01*
D41*
X48810000Y13830000D02*
X40480000Y13830000D01*
X40480000Y13830000D02*
X39310000Y12660000D01*
D35*
X59979998Y36080000D02*
X68569990Y36080000D01*
X68569990Y36080000D02*
X68610000Y36039990D01*
D36*
X23150000Y59969998D02*
X23009998Y60110000D01*
X23150000Y50860000D02*
X23150000Y59969998D01*
D35*
X57190000Y32540000D02*
X58160000Y32540000D01*
X58160000Y32540000D02*
X59430000Y33810000D01*
X59430000Y33810000D02*
X59430000Y36730000D01*
X59430000Y36730000D02*
X59420000Y36740000D01*
X54880000Y31810000D02*
X55285001Y32215001D01*
X49234034Y36735966D02*
X54160000Y31810000D01*
X45507741Y36735966D02*
X49234034Y36735966D01*
X54160000Y31810000D02*
X54880000Y31810000D01*
X55285001Y32215001D02*
X55510000Y32440000D01*
X55714991Y40850000D02*
X55690000Y40825009D01*
X62960000Y40850000D02*
X55714991Y40850000D01*
X84855001Y35885001D02*
X85080000Y36110000D01*
X84720000Y35750000D02*
X84855001Y35885001D01*
X82500000Y35750000D02*
X84720000Y35750000D01*
X86390000Y35470000D02*
X86050000Y35130000D01*
X64778198Y30940000D02*
X64460000Y30940000D01*
X86050000Y35130000D02*
X74470000Y35130000D01*
X74470000Y35130000D02*
X70280000Y30940000D01*
X70280000Y30940000D02*
X64778198Y30940000D01*
D43*
G36*
X99073000Y567000D02*
X60277000Y567000D01*
X60277000Y5742500D01*
X61160176Y5742500D01*
X61160176Y3837500D01*
X61196923Y3642206D01*
X61312342Y3462840D01*
X61488451Y3342510D01*
X61697500Y3300176D01*
X63602500Y3300176D01*
X63797794Y3336923D01*
X63977160Y3452342D01*
X64097490Y3628451D01*
X64139824Y3837500D01*
X64139824Y3840000D01*
X67912676Y3840000D01*
X67912676Y2140000D01*
X67949423Y1944706D01*
X68064842Y1765340D01*
X68240951Y1645010D01*
X68450000Y1602676D01*
X70150000Y1602676D01*
X70345294Y1639423D01*
X70524660Y1754842D01*
X70644990Y1930951D01*
X70687324Y2140000D01*
X70687324Y2667789D01*
X95172718Y2667789D01*
X95419892Y2069582D01*
X95877175Y1611501D01*
X96474950Y1363283D01*
X97122211Y1362718D01*
X97720418Y1609892D01*
X98178499Y2067175D01*
X98426717Y2664950D01*
X98427282Y3312211D01*
X98180108Y3910418D01*
X97722825Y4368499D01*
X97125050Y4616717D01*
X96477789Y4617282D01*
X95879582Y4370108D01*
X95421501Y3912825D01*
X95173283Y3315050D01*
X95172718Y2667789D01*
X70687324Y2667789D01*
X70687324Y3840000D01*
X70658289Y3994312D01*
X74883917Y3994312D01*
X74937778Y3865968D01*
X75253895Y3774801D01*
X75580838Y3811547D01*
X75712222Y3865968D01*
X75766083Y3994312D01*
X75325000Y4435395D01*
X74883917Y3994312D01*
X70658289Y3994312D01*
X70650577Y4035294D01*
X70535158Y4214660D01*
X70359049Y4334990D01*
X70150000Y4377324D01*
X69427002Y4377324D01*
X69427002Y4441609D01*
X69608487Y4394134D01*
X70019682Y4598650D01*
X70095854Y4686105D01*
X74484801Y4686105D01*
X74521547Y4359162D01*
X74575968Y4227778D01*
X74704312Y4173917D01*
X75145395Y4615000D01*
X75504605Y4615000D01*
X75861074Y4258531D01*
X75953844Y4034011D01*
X76242492Y3744860D01*
X76619821Y3588179D01*
X77028387Y3587822D01*
X77405989Y3743844D01*
X77575041Y3912602D01*
X77742492Y3744860D01*
X78119821Y3588179D01*
X78528387Y3587822D01*
X78905989Y3743844D01*
X79075041Y3912602D01*
X79242492Y3744860D01*
X79619821Y3588179D01*
X80028387Y3587822D01*
X80405989Y3743844D01*
X80656893Y3994312D01*
X85933917Y3994312D01*
X85987778Y3865968D01*
X86303895Y3774801D01*
X86630838Y3811547D01*
X86762222Y3865968D01*
X86816083Y3994312D01*
X86375000Y4435395D01*
X85933917Y3994312D01*
X80656893Y3994312D01*
X80695140Y4032492D01*
X80851821Y4409821D01*
X80852062Y4686105D01*
X85534801Y4686105D01*
X85571547Y4359162D01*
X85625968Y4227778D01*
X85754312Y4173917D01*
X86195395Y4615000D01*
X86554605Y4615000D01*
X86911074Y4258531D01*
X87003844Y4034011D01*
X87292492Y3744860D01*
X87669821Y3588179D01*
X88078387Y3587822D01*
X88455989Y3743844D01*
X88625041Y3912602D01*
X88792492Y3744860D01*
X89169821Y3588179D01*
X89578387Y3587822D01*
X89955989Y3743844D01*
X90125041Y3912602D01*
X90292492Y3744860D01*
X90669821Y3588179D01*
X91078387Y3587822D01*
X91455989Y3743844D01*
X91745140Y4032492D01*
X91901821Y4409821D01*
X91902178Y4818387D01*
X91746156Y5195989D01*
X91457508Y5485140D01*
X91080179Y5641821D01*
X90671613Y5642178D01*
X90294011Y5486156D01*
X90124959Y5317398D01*
X89957508Y5485140D01*
X89580179Y5641821D01*
X89171613Y5642178D01*
X88794011Y5486156D01*
X88624959Y5317398D01*
X88457508Y5485140D01*
X88080179Y5641821D01*
X87671613Y5642178D01*
X87294011Y5486156D01*
X87004860Y5197508D01*
X86910948Y4971343D01*
X86554605Y4615000D01*
X86195395Y4615000D01*
X85754312Y5056083D01*
X85625968Y5002222D01*
X85534801Y4686105D01*
X80852062Y4686105D01*
X80852178Y4818387D01*
X80696156Y5195989D01*
X80656527Y5235688D01*
X85933917Y5235688D01*
X86375000Y4794605D01*
X86816083Y5235688D01*
X86762222Y5364032D01*
X86446105Y5455199D01*
X86119162Y5418453D01*
X85987778Y5364032D01*
X85933917Y5235688D01*
X80656527Y5235688D01*
X80407508Y5485140D01*
X80030179Y5641821D01*
X79621613Y5642178D01*
X79244011Y5486156D01*
X79074959Y5317398D01*
X78907508Y5485140D01*
X78530179Y5641821D01*
X78121613Y5642178D01*
X77744011Y5486156D01*
X77574959Y5317398D01*
X77407508Y5485140D01*
X77030179Y5641821D01*
X76621613Y5642178D01*
X76244011Y5486156D01*
X75954860Y5197508D01*
X75860948Y4971343D01*
X75504605Y4615000D01*
X75145395Y4615000D01*
X74704312Y5056083D01*
X74575968Y5002222D01*
X74484801Y4686105D01*
X70095854Y4686105D01*
X70321312Y4944955D01*
X70435855Y5221515D01*
X70432108Y5235688D01*
X74883917Y5235688D01*
X75325000Y4794605D01*
X75766083Y5235688D01*
X75712222Y5364032D01*
X75396105Y5455199D01*
X75069162Y5418453D01*
X74937778Y5364032D01*
X74883917Y5235688D01*
X70432108Y5235688D01*
X70387862Y5403000D01*
X69427000Y5403000D01*
X69427000Y5383000D01*
X69173000Y5383000D01*
X69173000Y5403000D01*
X68212138Y5403000D01*
X68164145Y5221515D01*
X68278688Y4944955D01*
X68580318Y4598650D01*
X68991513Y4394134D01*
X69172998Y4441609D01*
X69172998Y4377324D01*
X68450000Y4377324D01*
X68254706Y4340577D01*
X68075340Y4225158D01*
X67955010Y4049049D01*
X67912676Y3840000D01*
X64139824Y3840000D01*
X64139824Y5742500D01*
X64103077Y5937794D01*
X63987658Y6117160D01*
X63811549Y6237490D01*
X63602500Y6279824D01*
X61697500Y6279824D01*
X61502206Y6243077D01*
X61322840Y6127658D01*
X61202510Y5951549D01*
X61160176Y5742500D01*
X60277000Y5742500D01*
X60277000Y8070000D01*
X67896023Y8070000D01*
X68000841Y7543045D01*
X68299337Y7096314D01*
X68746068Y6797818D01*
X69202640Y6707000D01*
X69172998Y6707000D01*
X69172998Y6618391D01*
X68991513Y6665866D01*
X68580318Y6461350D01*
X68278688Y6115045D01*
X68164145Y5838485D01*
X68212138Y5657000D01*
X69173000Y5657000D01*
X69173000Y5677000D01*
X69427000Y5677000D01*
X69427000Y5657000D01*
X70387862Y5657000D01*
X70435855Y5838485D01*
X70321312Y6115045D01*
X70019682Y6461350D01*
X69608487Y6665866D01*
X69427002Y6618391D01*
X69427002Y6707000D01*
X69397360Y6707000D01*
X69853932Y6797818D01*
X70300663Y7096314D01*
X70599159Y7543045D01*
X70696269Y8031250D01*
X72553000Y8031250D01*
X72553000Y7324956D01*
X72602783Y7204770D01*
X72694769Y7112783D01*
X72814955Y7063000D01*
X73521250Y7063000D01*
X73603000Y7144750D01*
X73603000Y8113000D01*
X72634750Y8113000D01*
X72553000Y8031250D01*
X70696269Y8031250D01*
X70703977Y8070000D01*
X70599159Y8596955D01*
X70300663Y9043686D01*
X70134004Y9155044D01*
X72553000Y9155044D01*
X72553000Y8448750D01*
X72634750Y8367000D01*
X73603000Y8367000D01*
X73603000Y9335250D01*
X73857000Y9335250D01*
X73857000Y8367000D01*
X73877000Y8367000D01*
X73877000Y8113000D01*
X73857000Y8113000D01*
X73857000Y7144750D01*
X73938750Y7063000D01*
X74645045Y7063000D01*
X74765231Y7112783D01*
X74857217Y7204770D01*
X74907000Y7324956D01*
X74907000Y8031250D01*
X74825252Y8112998D01*
X74907000Y8112998D01*
X74907000Y8142640D01*
X74997818Y7686068D01*
X75296314Y7239337D01*
X75743045Y6940841D01*
X76270000Y6836023D01*
X76796955Y6940841D01*
X77243686Y7239337D01*
X77540000Y7682802D01*
X77836314Y7239337D01*
X78283045Y6940841D01*
X78810000Y6836023D01*
X79336955Y6940841D01*
X79783686Y7239337D01*
X80080000Y7682802D01*
X80376314Y7239337D01*
X80823045Y6940841D01*
X81350000Y6836023D01*
X81876955Y6940841D01*
X82323686Y7239337D01*
X82622182Y7686068D01*
X82690843Y8031250D01*
X83673000Y8031250D01*
X83673000Y7324956D01*
X83722783Y7204770D01*
X83814769Y7112783D01*
X83934955Y7063000D01*
X84641250Y7063000D01*
X84723000Y7144750D01*
X84723000Y8113000D01*
X83754750Y8113000D01*
X83673000Y8031250D01*
X82690843Y8031250D01*
X82727000Y8213023D01*
X82727000Y8266977D01*
X82622182Y8793932D01*
X82380895Y9155044D01*
X83673000Y9155044D01*
X83673000Y8448750D01*
X83754750Y8367000D01*
X84723000Y8367000D01*
X84723000Y9335250D01*
X84977000Y9335250D01*
X84977000Y8367000D01*
X84997000Y8367000D01*
X84997000Y8113000D01*
X84977000Y8113000D01*
X84977000Y7144750D01*
X85058750Y7063000D01*
X85765045Y7063000D01*
X85885231Y7112783D01*
X85977217Y7204770D01*
X86027000Y7324956D01*
X86027000Y8031250D01*
X85945252Y8112998D01*
X86027000Y8112998D01*
X86027000Y8142640D01*
X86117818Y7686068D01*
X86416314Y7239337D01*
X86863045Y6940841D01*
X87390000Y6836023D01*
X87916955Y6940841D01*
X88363686Y7239337D01*
X88660000Y7682802D01*
X88956314Y7239337D01*
X89403045Y6940841D01*
X89930000Y6836023D01*
X90456955Y6940841D01*
X90903686Y7239337D01*
X91200000Y7682802D01*
X91496314Y7239337D01*
X91943045Y6940841D01*
X92470000Y6836023D01*
X92996955Y6940841D01*
X93443686Y7239337D01*
X93742182Y7686068D01*
X93847000Y8213023D01*
X93847000Y8266977D01*
X93742182Y8793932D01*
X93443686Y9240663D01*
X92996955Y9539159D01*
X92470000Y9643977D01*
X91943045Y9539159D01*
X91496314Y9240663D01*
X91200000Y8797198D01*
X90903686Y9240663D01*
X90456955Y9539159D01*
X89930000Y9643977D01*
X89403045Y9539159D01*
X88956314Y9240663D01*
X88660000Y8797198D01*
X88363686Y9240663D01*
X87916955Y9539159D01*
X87390000Y9643977D01*
X86863045Y9539159D01*
X86416314Y9240663D01*
X86117818Y8793932D01*
X86027000Y8337360D01*
X86027000Y8367002D01*
X85945252Y8367002D01*
X86027000Y8448750D01*
X86027000Y9155044D01*
X85977217Y9275230D01*
X85885231Y9367217D01*
X85765045Y9417000D01*
X85058750Y9417000D01*
X84977000Y9335250D01*
X84723000Y9335250D01*
X84641250Y9417000D01*
X83934955Y9417000D01*
X83814769Y9367217D01*
X83722783Y9275230D01*
X83673000Y9155044D01*
X82380895Y9155044D01*
X82323686Y9240663D01*
X81876955Y9539159D01*
X81350000Y9643977D01*
X81095492Y9593352D01*
X79787000Y10901844D01*
X79787000Y12970000D01*
X92942676Y12970000D01*
X92942676Y11350000D01*
X92979423Y11154706D01*
X93094842Y10975340D01*
X93270951Y10855010D01*
X93480000Y10812676D01*
X95100000Y10812676D01*
X95295294Y10849423D01*
X95474660Y10964842D01*
X95594990Y11140951D01*
X95637324Y11350000D01*
X95637324Y12970000D01*
X95600577Y13165294D01*
X95485158Y13344660D01*
X95309049Y13464990D01*
X95100000Y13507324D01*
X94904629Y13507324D01*
X95046360Y13565886D01*
X95422792Y13941662D01*
X95626767Y14432888D01*
X95627231Y14964779D01*
X95424114Y15456360D01*
X95048338Y15832792D01*
X94717698Y15970086D01*
X95046360Y16105886D01*
X95422792Y16481662D01*
X95626767Y16972888D01*
X95627231Y17504779D01*
X95424114Y17996360D01*
X95048338Y18372792D01*
X94557112Y18576767D01*
X94025221Y18577231D01*
X93533640Y18374114D01*
X93157208Y17998338D01*
X92953233Y17507112D01*
X92952769Y16975221D01*
X93155886Y16483640D01*
X93531662Y16107208D01*
X93862302Y15969914D01*
X93533640Y15834114D01*
X93157208Y15458338D01*
X92953233Y14967112D01*
X92952769Y14435221D01*
X93155886Y13943640D01*
X93531662Y13567208D01*
X93675879Y13507324D01*
X93480000Y13507324D01*
X93284706Y13470577D01*
X93105340Y13355158D01*
X92985010Y13179049D01*
X92942676Y12970000D01*
X79787000Y12970000D01*
X79787000Y16713000D01*
X85689902Y16713000D01*
X85749772Y16688140D01*
X86068828Y16687861D01*
X86363703Y16809701D01*
X86589506Y17035110D01*
X86711860Y17329772D01*
X86712139Y17648828D01*
X86590299Y17943703D01*
X86364890Y18169506D01*
X86070228Y18291860D01*
X85751172Y18292139D01*
X85690331Y18267000D01*
X79230098Y18267000D01*
X79170228Y18291860D01*
X78851172Y18292139D01*
X78556297Y18170299D01*
X78330494Y17944890D01*
X78208140Y17650228D01*
X78207861Y17331172D01*
X78233000Y17270331D01*
X78233000Y10580000D01*
X78292146Y10282655D01*
X78460578Y10030578D01*
X78856411Y9634745D01*
X78810000Y9643977D01*
X78283045Y9539159D01*
X77836314Y9240663D01*
X77540000Y8797198D01*
X77243686Y9240663D01*
X76796955Y9539159D01*
X76270000Y9643977D01*
X75743045Y9539159D01*
X75296314Y9240663D01*
X74997818Y8793932D01*
X74907000Y8337360D01*
X74907000Y8367002D01*
X74825252Y8367002D01*
X74907000Y8448750D01*
X74907000Y9155044D01*
X74857217Y9275230D01*
X74765231Y9367217D01*
X74645045Y9417000D01*
X73938750Y9417000D01*
X73857000Y9335250D01*
X73603000Y9335250D01*
X73521250Y9417000D01*
X72814955Y9417000D01*
X72694769Y9367217D01*
X72602783Y9275230D01*
X72553000Y9155044D01*
X70134004Y9155044D01*
X69853932Y9342182D01*
X69326977Y9447000D01*
X69273023Y9447000D01*
X68746068Y9342182D01*
X68299337Y9043686D01*
X68000841Y8596955D01*
X67896023Y8070000D01*
X60277000Y8070000D01*
X60277000Y13442500D01*
X61150176Y13442500D01*
X61150176Y11537500D01*
X61186923Y11342206D01*
X61302342Y11162840D01*
X61478451Y11042510D01*
X61687500Y11000176D01*
X63592500Y11000176D01*
X63787794Y11036923D01*
X63967160Y11152342D01*
X64087490Y11328451D01*
X64129824Y11537500D01*
X64129824Y12950000D01*
X70902676Y12950000D01*
X70902676Y11330000D01*
X70939423Y11134706D01*
X71054842Y10955340D01*
X71230951Y10835010D01*
X71440000Y10792676D01*
X73060000Y10792676D01*
X73255294Y10829423D01*
X73434660Y10944842D01*
X73554990Y11120951D01*
X73597324Y11330000D01*
X73597324Y12950000D01*
X73560577Y13145294D01*
X73445158Y13324660D01*
X73269049Y13444990D01*
X73060000Y13487324D01*
X72864629Y13487324D01*
X73006360Y13545886D01*
X73382792Y13921662D01*
X73586767Y14412888D01*
X73587231Y14944779D01*
X73384114Y15436360D01*
X73008338Y15812792D01*
X72677698Y15950086D01*
X73006360Y16085886D01*
X73382792Y16461662D01*
X73586767Y16952888D01*
X73587231Y17484779D01*
X73384114Y17976360D01*
X73008338Y18352792D01*
X72517112Y18556767D01*
X71985221Y18557231D01*
X71493640Y18354114D01*
X71117208Y17978338D01*
X70913233Y17487112D01*
X70912769Y16955221D01*
X71115886Y16463640D01*
X71491662Y16087208D01*
X71822302Y15949914D01*
X71493640Y15814114D01*
X71117208Y15438338D01*
X70913233Y14947112D01*
X70912769Y14415221D01*
X71115886Y13923640D01*
X71491662Y13547208D01*
X71635879Y13487324D01*
X71440000Y13487324D01*
X71244706Y13450577D01*
X71065340Y13335158D01*
X70945010Y13159049D01*
X70902676Y12950000D01*
X64129824Y12950000D01*
X64129824Y13442500D01*
X64093077Y13637794D01*
X63977658Y13817160D01*
X63801549Y13937490D01*
X63592500Y13979824D01*
X61687500Y13979824D01*
X61492206Y13943077D01*
X61312840Y13827658D01*
X61192510Y13651549D01*
X61150176Y13442500D01*
X60277000Y13442500D01*
X60277000Y17755139D01*
X61663297Y17755139D01*
X61750857Y17543715D01*
X62009220Y17237405D01*
X62365136Y17053283D01*
X62523000Y17102619D01*
X62523000Y17913000D01*
X62777000Y17913000D01*
X62777000Y17102619D01*
X62934864Y17053283D01*
X63290780Y17237405D01*
X63549143Y17543715D01*
X63636703Y17755139D01*
X63586680Y17913000D01*
X62777000Y17913000D01*
X62523000Y17913000D01*
X61713320Y17913000D01*
X61663297Y17755139D01*
X60277000Y17755139D01*
X60277000Y18324861D01*
X61663297Y18324861D01*
X61713320Y18167000D01*
X62523000Y18167000D01*
X62523000Y18977381D01*
X62777000Y18977381D01*
X62777000Y18167000D01*
X63586680Y18167000D01*
X63636703Y18324861D01*
X63549143Y18536285D01*
X63290780Y18842595D01*
X62934864Y19026717D01*
X62777000Y18977381D01*
X62523000Y18977381D01*
X62365136Y19026717D01*
X62009220Y18842595D01*
X61750857Y18536285D01*
X61663297Y18324861D01*
X60277000Y18324861D01*
X60277000Y20763000D01*
X99073000Y20763000D01*
X99073000Y567000D01*
X99073000Y567000D01*
G37*
X99073000Y567000D02*
X60277000Y567000D01*
X60277000Y5742500D01*
X61160176Y5742500D01*
X61160176Y3837500D01*
X61196923Y3642206D01*
X61312342Y3462840D01*
X61488451Y3342510D01*
X61697500Y3300176D01*
X63602500Y3300176D01*
X63797794Y3336923D01*
X63977160Y3452342D01*
X64097490Y3628451D01*
X64139824Y3837500D01*
X64139824Y3840000D01*
X67912676Y3840000D01*
X67912676Y2140000D01*
X67949423Y1944706D01*
X68064842Y1765340D01*
X68240951Y1645010D01*
X68450000Y1602676D01*
X70150000Y1602676D01*
X70345294Y1639423D01*
X70524660Y1754842D01*
X70644990Y1930951D01*
X70687324Y2140000D01*
X70687324Y2667789D01*
X95172718Y2667789D01*
X95419892Y2069582D01*
X95877175Y1611501D01*
X96474950Y1363283D01*
X97122211Y1362718D01*
X97720418Y1609892D01*
X98178499Y2067175D01*
X98426717Y2664950D01*
X98427282Y3312211D01*
X98180108Y3910418D01*
X97722825Y4368499D01*
X97125050Y4616717D01*
X96477789Y4617282D01*
X95879582Y4370108D01*
X95421501Y3912825D01*
X95173283Y3315050D01*
X95172718Y2667789D01*
X70687324Y2667789D01*
X70687324Y3840000D01*
X70658289Y3994312D01*
X74883917Y3994312D01*
X74937778Y3865968D01*
X75253895Y3774801D01*
X75580838Y3811547D01*
X75712222Y3865968D01*
X75766083Y3994312D01*
X75325000Y4435395D01*
X74883917Y3994312D01*
X70658289Y3994312D01*
X70650577Y4035294D01*
X70535158Y4214660D01*
X70359049Y4334990D01*
X70150000Y4377324D01*
X69427002Y4377324D01*
X69427002Y4441609D01*
X69608487Y4394134D01*
X70019682Y4598650D01*
X70095854Y4686105D01*
X74484801Y4686105D01*
X74521547Y4359162D01*
X74575968Y4227778D01*
X74704312Y4173917D01*
X75145395Y4615000D01*
X75504605Y4615000D01*
X75861074Y4258531D01*
X75953844Y4034011D01*
X76242492Y3744860D01*
X76619821Y3588179D01*
X77028387Y3587822D01*
X77405989Y3743844D01*
X77575041Y3912602D01*
X77742492Y3744860D01*
X78119821Y3588179D01*
X78528387Y3587822D01*
X78905989Y3743844D01*
X79075041Y3912602D01*
X79242492Y3744860D01*
X79619821Y3588179D01*
X80028387Y3587822D01*
X80405989Y3743844D01*
X80656893Y3994312D01*
X85933917Y3994312D01*
X85987778Y3865968D01*
X86303895Y3774801D01*
X86630838Y3811547D01*
X86762222Y3865968D01*
X86816083Y3994312D01*
X86375000Y4435395D01*
X85933917Y3994312D01*
X80656893Y3994312D01*
X80695140Y4032492D01*
X80851821Y4409821D01*
X80852062Y4686105D01*
X85534801Y4686105D01*
X85571547Y4359162D01*
X85625968Y4227778D01*
X85754312Y4173917D01*
X86195395Y4615000D01*
X86554605Y4615000D01*
X86911074Y4258531D01*
X87003844Y4034011D01*
X87292492Y3744860D01*
X87669821Y3588179D01*
X88078387Y3587822D01*
X88455989Y3743844D01*
X88625041Y3912602D01*
X88792492Y3744860D01*
X89169821Y3588179D01*
X89578387Y3587822D01*
X89955989Y3743844D01*
X90125041Y3912602D01*
X90292492Y3744860D01*
X90669821Y3588179D01*
X91078387Y3587822D01*
X91455989Y3743844D01*
X91745140Y4032492D01*
X91901821Y4409821D01*
X91902178Y4818387D01*
X91746156Y5195989D01*
X91457508Y5485140D01*
X91080179Y5641821D01*
X90671613Y5642178D01*
X90294011Y5486156D01*
X90124959Y5317398D01*
X89957508Y5485140D01*
X89580179Y5641821D01*
X89171613Y5642178D01*
X88794011Y5486156D01*
X88624959Y5317398D01*
X88457508Y5485140D01*
X88080179Y5641821D01*
X87671613Y5642178D01*
X87294011Y5486156D01*
X87004860Y5197508D01*
X86910948Y4971343D01*
X86554605Y4615000D01*
X86195395Y4615000D01*
X85754312Y5056083D01*
X85625968Y5002222D01*
X85534801Y4686105D01*
X80852062Y4686105D01*
X80852178Y4818387D01*
X80696156Y5195989D01*
X80656527Y5235688D01*
X85933917Y5235688D01*
X86375000Y4794605D01*
X86816083Y5235688D01*
X86762222Y5364032D01*
X86446105Y5455199D01*
X86119162Y5418453D01*
X85987778Y5364032D01*
X85933917Y5235688D01*
X80656527Y5235688D01*
X80407508Y5485140D01*
X80030179Y5641821D01*
X79621613Y5642178D01*
X79244011Y5486156D01*
X79074959Y5317398D01*
X78907508Y5485140D01*
X78530179Y5641821D01*
X78121613Y5642178D01*
X77744011Y5486156D01*
X77574959Y5317398D01*
X77407508Y5485140D01*
X77030179Y5641821D01*
X76621613Y5642178D01*
X76244011Y5486156D01*
X75954860Y5197508D01*
X75860948Y4971343D01*
X75504605Y4615000D01*
X75145395Y4615000D01*
X74704312Y5056083D01*
X74575968Y5002222D01*
X74484801Y4686105D01*
X70095854Y4686105D01*
X70321312Y4944955D01*
X70435855Y5221515D01*
X70432108Y5235688D01*
X74883917Y5235688D01*
X75325000Y4794605D01*
X75766083Y5235688D01*
X75712222Y5364032D01*
X75396105Y5455199D01*
X75069162Y5418453D01*
X74937778Y5364032D01*
X74883917Y5235688D01*
X70432108Y5235688D01*
X70387862Y5403000D01*
X69427000Y5403000D01*
X69427000Y5383000D01*
X69173000Y5383000D01*
X69173000Y5403000D01*
X68212138Y5403000D01*
X68164145Y5221515D01*
X68278688Y4944955D01*
X68580318Y4598650D01*
X68991513Y4394134D01*
X69172998Y4441609D01*
X69172998Y4377324D01*
X68450000Y4377324D01*
X68254706Y4340577D01*
X68075340Y4225158D01*
X67955010Y4049049D01*
X67912676Y3840000D01*
X64139824Y3840000D01*
X64139824Y5742500D01*
X64103077Y5937794D01*
X63987658Y6117160D01*
X63811549Y6237490D01*
X63602500Y6279824D01*
X61697500Y6279824D01*
X61502206Y6243077D01*
X61322840Y6127658D01*
X61202510Y5951549D01*
X61160176Y5742500D01*
X60277000Y5742500D01*
X60277000Y8070000D01*
X67896023Y8070000D01*
X68000841Y7543045D01*
X68299337Y7096314D01*
X68746068Y6797818D01*
X69202640Y6707000D01*
X69172998Y6707000D01*
X69172998Y6618391D01*
X68991513Y6665866D01*
X68580318Y6461350D01*
X68278688Y6115045D01*
X68164145Y5838485D01*
X68212138Y5657000D01*
X69173000Y5657000D01*
X69173000Y5677000D01*
X69427000Y5677000D01*
X69427000Y5657000D01*
X70387862Y5657000D01*
X70435855Y5838485D01*
X70321312Y6115045D01*
X70019682Y6461350D01*
X69608487Y6665866D01*
X69427002Y6618391D01*
X69427002Y6707000D01*
X69397360Y6707000D01*
X69853932Y6797818D01*
X70300663Y7096314D01*
X70599159Y7543045D01*
X70696269Y8031250D01*
X72553000Y8031250D01*
X72553000Y7324956D01*
X72602783Y7204770D01*
X72694769Y7112783D01*
X72814955Y7063000D01*
X73521250Y7063000D01*
X73603000Y7144750D01*
X73603000Y8113000D01*
X72634750Y8113000D01*
X72553000Y8031250D01*
X70696269Y8031250D01*
X70703977Y8070000D01*
X70599159Y8596955D01*
X70300663Y9043686D01*
X70134004Y9155044D01*
X72553000Y9155044D01*
X72553000Y8448750D01*
X72634750Y8367000D01*
X73603000Y8367000D01*
X73603000Y9335250D01*
X73857000Y9335250D01*
X73857000Y8367000D01*
X73877000Y8367000D01*
X73877000Y8113000D01*
X73857000Y8113000D01*
X73857000Y7144750D01*
X73938750Y7063000D01*
X74645045Y7063000D01*
X74765231Y7112783D01*
X74857217Y7204770D01*
X74907000Y7324956D01*
X74907000Y8031250D01*
X74825252Y8112998D01*
X74907000Y8112998D01*
X74907000Y8142640D01*
X74997818Y7686068D01*
X75296314Y7239337D01*
X75743045Y6940841D01*
X76270000Y6836023D01*
X76796955Y6940841D01*
X77243686Y7239337D01*
X77540000Y7682802D01*
X77836314Y7239337D01*
X78283045Y6940841D01*
X78810000Y6836023D01*
X79336955Y6940841D01*
X79783686Y7239337D01*
X80080000Y7682802D01*
X80376314Y7239337D01*
X80823045Y6940841D01*
X81350000Y6836023D01*
X81876955Y6940841D01*
X82323686Y7239337D01*
X82622182Y7686068D01*
X82690843Y8031250D01*
X83673000Y8031250D01*
X83673000Y7324956D01*
X83722783Y7204770D01*
X83814769Y7112783D01*
X83934955Y7063000D01*
X84641250Y7063000D01*
X84723000Y7144750D01*
X84723000Y8113000D01*
X83754750Y8113000D01*
X83673000Y8031250D01*
X82690843Y8031250D01*
X82727000Y8213023D01*
X82727000Y8266977D01*
X82622182Y8793932D01*
X82380895Y9155044D01*
X83673000Y9155044D01*
X83673000Y8448750D01*
X83754750Y8367000D01*
X84723000Y8367000D01*
X84723000Y9335250D01*
X84977000Y9335250D01*
X84977000Y8367000D01*
X84997000Y8367000D01*
X84997000Y8113000D01*
X84977000Y8113000D01*
X84977000Y7144750D01*
X85058750Y7063000D01*
X85765045Y7063000D01*
X85885231Y7112783D01*
X85977217Y7204770D01*
X86027000Y7324956D01*
X86027000Y8031250D01*
X85945252Y8112998D01*
X86027000Y8112998D01*
X86027000Y8142640D01*
X86117818Y7686068D01*
X86416314Y7239337D01*
X86863045Y6940841D01*
X87390000Y6836023D01*
X87916955Y6940841D01*
X88363686Y7239337D01*
X88660000Y7682802D01*
X88956314Y7239337D01*
X89403045Y6940841D01*
X89930000Y6836023D01*
X90456955Y6940841D01*
X90903686Y7239337D01*
X91200000Y7682802D01*
X91496314Y7239337D01*
X91943045Y6940841D01*
X92470000Y6836023D01*
X92996955Y6940841D01*
X93443686Y7239337D01*
X93742182Y7686068D01*
X93847000Y8213023D01*
X93847000Y8266977D01*
X93742182Y8793932D01*
X93443686Y9240663D01*
X92996955Y9539159D01*
X92470000Y9643977D01*
X91943045Y9539159D01*
X91496314Y9240663D01*
X91200000Y8797198D01*
X90903686Y9240663D01*
X90456955Y9539159D01*
X89930000Y9643977D01*
X89403045Y9539159D01*
X88956314Y9240663D01*
X88660000Y8797198D01*
X88363686Y9240663D01*
X87916955Y9539159D01*
X87390000Y9643977D01*
X86863045Y9539159D01*
X86416314Y9240663D01*
X86117818Y8793932D01*
X86027000Y8337360D01*
X86027000Y8367002D01*
X85945252Y8367002D01*
X86027000Y8448750D01*
X86027000Y9155044D01*
X85977217Y9275230D01*
X85885231Y9367217D01*
X85765045Y9417000D01*
X85058750Y9417000D01*
X84977000Y9335250D01*
X84723000Y9335250D01*
X84641250Y9417000D01*
X83934955Y9417000D01*
X83814769Y9367217D01*
X83722783Y9275230D01*
X83673000Y9155044D01*
X82380895Y9155044D01*
X82323686Y9240663D01*
X81876955Y9539159D01*
X81350000Y9643977D01*
X81095492Y9593352D01*
X79787000Y10901844D01*
X79787000Y12970000D01*
X92942676Y12970000D01*
X92942676Y11350000D01*
X92979423Y11154706D01*
X93094842Y10975340D01*
X93270951Y10855010D01*
X93480000Y10812676D01*
X95100000Y10812676D01*
X95295294Y10849423D01*
X95474660Y10964842D01*
X95594990Y11140951D01*
X95637324Y11350000D01*
X95637324Y12970000D01*
X95600577Y13165294D01*
X95485158Y13344660D01*
X95309049Y13464990D01*
X95100000Y13507324D01*
X94904629Y13507324D01*
X95046360Y13565886D01*
X95422792Y13941662D01*
X95626767Y14432888D01*
X95627231Y14964779D01*
X95424114Y15456360D01*
X95048338Y15832792D01*
X94717698Y15970086D01*
X95046360Y16105886D01*
X95422792Y16481662D01*
X95626767Y16972888D01*
X95627231Y17504779D01*
X95424114Y17996360D01*
X95048338Y18372792D01*
X94557112Y18576767D01*
X94025221Y18577231D01*
X93533640Y18374114D01*
X93157208Y17998338D01*
X92953233Y17507112D01*
X92952769Y16975221D01*
X93155886Y16483640D01*
X93531662Y16107208D01*
X93862302Y15969914D01*
X93533640Y15834114D01*
X93157208Y15458338D01*
X92953233Y14967112D01*
X92952769Y14435221D01*
X93155886Y13943640D01*
X93531662Y13567208D01*
X93675879Y13507324D01*
X93480000Y13507324D01*
X93284706Y13470577D01*
X93105340Y13355158D01*
X92985010Y13179049D01*
X92942676Y12970000D01*
X79787000Y12970000D01*
X79787000Y16713000D01*
X85689902Y16713000D01*
X85749772Y16688140D01*
X86068828Y16687861D01*
X86363703Y16809701D01*
X86589506Y17035110D01*
X86711860Y17329772D01*
X86712139Y17648828D01*
X86590299Y17943703D01*
X86364890Y18169506D01*
X86070228Y18291860D01*
X85751172Y18292139D01*
X85690331Y18267000D01*
X79230098Y18267000D01*
X79170228Y18291860D01*
X78851172Y18292139D01*
X78556297Y18170299D01*
X78330494Y17944890D01*
X78208140Y17650228D01*
X78207861Y17331172D01*
X78233000Y17270331D01*
X78233000Y10580000D01*
X78292146Y10282655D01*
X78460578Y10030578D01*
X78856411Y9634745D01*
X78810000Y9643977D01*
X78283045Y9539159D01*
X77836314Y9240663D01*
X77540000Y8797198D01*
X77243686Y9240663D01*
X76796955Y9539159D01*
X76270000Y9643977D01*
X75743045Y9539159D01*
X75296314Y9240663D01*
X74997818Y8793932D01*
X74907000Y8337360D01*
X74907000Y8367002D01*
X74825252Y8367002D01*
X74907000Y8448750D01*
X74907000Y9155044D01*
X74857217Y9275230D01*
X74765231Y9367217D01*
X74645045Y9417000D01*
X73938750Y9417000D01*
X73857000Y9335250D01*
X73603000Y9335250D01*
X73521250Y9417000D01*
X72814955Y9417000D01*
X72694769Y9367217D01*
X72602783Y9275230D01*
X72553000Y9155044D01*
X70134004Y9155044D01*
X69853932Y9342182D01*
X69326977Y9447000D01*
X69273023Y9447000D01*
X68746068Y9342182D01*
X68299337Y9043686D01*
X68000841Y8596955D01*
X67896023Y8070000D01*
X60277000Y8070000D01*
X60277000Y13442500D01*
X61150176Y13442500D01*
X61150176Y11537500D01*
X61186923Y11342206D01*
X61302342Y11162840D01*
X61478451Y11042510D01*
X61687500Y11000176D01*
X63592500Y11000176D01*
X63787794Y11036923D01*
X63967160Y11152342D01*
X64087490Y11328451D01*
X64129824Y11537500D01*
X64129824Y12950000D01*
X70902676Y12950000D01*
X70902676Y11330000D01*
X70939423Y11134706D01*
X71054842Y10955340D01*
X71230951Y10835010D01*
X71440000Y10792676D01*
X73060000Y10792676D01*
X73255294Y10829423D01*
X73434660Y10944842D01*
X73554990Y11120951D01*
X73597324Y11330000D01*
X73597324Y12950000D01*
X73560577Y13145294D01*
X73445158Y13324660D01*
X73269049Y13444990D01*
X73060000Y13487324D01*
X72864629Y13487324D01*
X73006360Y13545886D01*
X73382792Y13921662D01*
X73586767Y14412888D01*
X73587231Y14944779D01*
X73384114Y15436360D01*
X73008338Y15812792D01*
X72677698Y15950086D01*
X73006360Y16085886D01*
X73382792Y16461662D01*
X73586767Y16952888D01*
X73587231Y17484779D01*
X73384114Y17976360D01*
X73008338Y18352792D01*
X72517112Y18556767D01*
X71985221Y18557231D01*
X71493640Y18354114D01*
X71117208Y17978338D01*
X70913233Y17487112D01*
X70912769Y16955221D01*
X71115886Y16463640D01*
X71491662Y16087208D01*
X71822302Y15949914D01*
X71493640Y15814114D01*
X71117208Y15438338D01*
X70913233Y14947112D01*
X70912769Y14415221D01*
X71115886Y13923640D01*
X71491662Y13547208D01*
X71635879Y13487324D01*
X71440000Y13487324D01*
X71244706Y13450577D01*
X71065340Y13335158D01*
X70945010Y13159049D01*
X70902676Y12950000D01*
X64129824Y12950000D01*
X64129824Y13442500D01*
X64093077Y13637794D01*
X63977658Y13817160D01*
X63801549Y13937490D01*
X63592500Y13979824D01*
X61687500Y13979824D01*
X61492206Y13943077D01*
X61312840Y13827658D01*
X61192510Y13651549D01*
X61150176Y13442500D01*
X60277000Y13442500D01*
X60277000Y17755139D01*
X61663297Y17755139D01*
X61750857Y17543715D01*
X62009220Y17237405D01*
X62365136Y17053283D01*
X62523000Y17102619D01*
X62523000Y17913000D01*
X62777000Y17913000D01*
X62777000Y17102619D01*
X62934864Y17053283D01*
X63290780Y17237405D01*
X63549143Y17543715D01*
X63636703Y17755139D01*
X63586680Y17913000D01*
X62777000Y17913000D01*
X62523000Y17913000D01*
X61713320Y17913000D01*
X61663297Y17755139D01*
X60277000Y17755139D01*
X60277000Y18324861D01*
X61663297Y18324861D01*
X61713320Y18167000D01*
X62523000Y18167000D01*
X62523000Y18977381D01*
X62777000Y18977381D01*
X62777000Y18167000D01*
X63586680Y18167000D01*
X63636703Y18324861D01*
X63549143Y18536285D01*
X63290780Y18842595D01*
X62934864Y19026717D01*
X62777000Y18977381D01*
X62523000Y18977381D01*
X62365136Y19026717D01*
X62009220Y18842595D01*
X61750857Y18536285D01*
X61663297Y18324861D01*
X60277000Y18324861D01*
X60277000Y20763000D01*
X99073000Y20763000D01*
X99073000Y567000D01*
G36*
X99223000Y21417000D02*
X64793777Y21417000D01*
X64794385Y21420000D01*
X64794385Y23120000D01*
X64768097Y23259708D01*
X64685530Y23388020D01*
X64559547Y23474101D01*
X64410000Y23504385D01*
X62710000Y23504385D01*
X62570292Y23478097D01*
X62441980Y23395530D01*
X62355899Y23269547D01*
X62325615Y23120000D01*
X62325615Y21420000D01*
X62326179Y21417000D01*
X62073777Y21417000D01*
X62074385Y21420000D01*
X62074385Y23120000D01*
X62048097Y23259708D01*
X61965530Y23388020D01*
X61839547Y23474101D01*
X61690000Y23504385D01*
X59990000Y23504385D01*
X59850292Y23478097D01*
X59721980Y23395530D01*
X59635899Y23269547D01*
X59605615Y23120000D01*
X59605615Y21420000D01*
X59631903Y21280292D01*
X59709116Y21160301D01*
X59664520Y21095033D01*
X59623000Y20890000D01*
X59623000Y417000D01*
X427000Y417000D01*
X427000Y2697495D01*
X1322744Y2697495D01*
X1547130Y2154440D01*
X1962254Y1738591D01*
X2504918Y1513257D01*
X3092505Y1512744D01*
X3635560Y1737130D01*
X4051409Y2152254D01*
X4276743Y2694918D01*
X4277256Y3282505D01*
X4052870Y3825560D01*
X3637746Y4241409D01*
X3120352Y4456250D01*
X7983000Y4456250D01*
X7983000Y2625064D01*
X8048007Y2468124D01*
X8168124Y2348007D01*
X8325065Y2283000D01*
X9166250Y2283000D01*
X9273000Y2389750D01*
X9273000Y4563000D01*
X9527000Y4563000D01*
X9527000Y2389750D01*
X9633750Y2283000D01*
X10474935Y2283000D01*
X10631876Y2348007D01*
X10751993Y2468124D01*
X10817000Y2625064D01*
X10817000Y4456250D01*
X10710250Y4563000D01*
X9527000Y4563000D01*
X9273000Y4563000D01*
X8089750Y4563000D01*
X7983000Y4456250D01*
X3120352Y4456250D01*
X3095082Y4466743D01*
X2507495Y4467256D01*
X1964440Y4242870D01*
X1548591Y3827746D01*
X1323257Y3285082D01*
X1322744Y2697495D01*
X427000Y2697495D01*
X427000Y7580000D01*
X3515615Y7580000D01*
X3515615Y5880000D01*
X3541903Y5740292D01*
X3624470Y5611980D01*
X3750453Y5525899D01*
X3900000Y5495615D01*
X5600000Y5495615D01*
X5739708Y5521903D01*
X5868020Y5604470D01*
X5954101Y5730453D01*
X5984385Y5880000D01*
X5984385Y6754936D01*
X7983000Y6754936D01*
X7983000Y4923750D01*
X8089750Y4817000D01*
X9273000Y4817000D01*
X9273000Y6990250D01*
X9527000Y6990250D01*
X9527000Y4817000D01*
X10710250Y4817000D01*
X10817000Y4923750D01*
X10817000Y5726176D01*
X13033000Y5726176D01*
X13033000Y3653824D01*
X13137057Y3130696D01*
X13433385Y2687209D01*
X13876872Y2390881D01*
X14400000Y2286824D01*
X14923128Y2390881D01*
X15366615Y2687209D01*
X15662943Y3130696D01*
X15767000Y3653824D01*
X15767000Y4326221D01*
X38662857Y4326221D01*
X38788495Y4022154D01*
X39020930Y3789312D01*
X39324778Y3663144D01*
X39653779Y3662857D01*
X39957846Y3788495D01*
X40190688Y4020930D01*
X40316856Y4324778D01*
X40316857Y4326221D01*
X43062857Y4326221D01*
X43188495Y4022154D01*
X43420930Y3789312D01*
X43724778Y3663144D01*
X44053779Y3662857D01*
X44357846Y3788495D01*
X44590688Y4020930D01*
X44716856Y4324778D01*
X44717143Y4653779D01*
X44591505Y4957846D01*
X44359070Y5190688D01*
X44055222Y5316856D01*
X43726221Y5317143D01*
X43422154Y5191505D01*
X43189312Y4959070D01*
X43063144Y4655222D01*
X43062857Y4326221D01*
X40316857Y4326221D01*
X40317143Y4653779D01*
X40191505Y4957846D01*
X39959070Y5190688D01*
X39655222Y5316856D01*
X39326221Y5317143D01*
X39022154Y5191505D01*
X38789312Y4959070D01*
X38663144Y4655222D01*
X38662857Y4326221D01*
X15767000Y4326221D01*
X15767000Y5726176D01*
X15662943Y6249304D01*
X15366615Y6692791D01*
X14923128Y6989119D01*
X14400000Y7093176D01*
X13876872Y6989119D01*
X13433385Y6692791D01*
X13137057Y6249304D01*
X13033000Y5726176D01*
X10817000Y5726176D01*
X10817000Y6754936D01*
X10751993Y6911876D01*
X10631876Y7031993D01*
X10474935Y7097000D01*
X9633750Y7097000D01*
X9527000Y6990250D01*
X9273000Y6990250D01*
X9166250Y7097000D01*
X8325065Y7097000D01*
X8168124Y7031993D01*
X8048007Y6911876D01*
X7983000Y6754936D01*
X5984385Y6754936D01*
X5984385Y7580000D01*
X5958097Y7719708D01*
X5875530Y7848020D01*
X5749547Y7934101D01*
X5600000Y7964385D01*
X3900000Y7964385D01*
X3760292Y7938097D01*
X3631980Y7855530D01*
X3545899Y7729547D01*
X3515615Y7580000D01*
X427000Y7580000D01*
X427000Y8359800D01*
X3999405Y8359800D01*
X4091088Y8167020D01*
X4570991Y8000347D01*
X5078146Y8030012D01*
X5408912Y8167020D01*
X5500595Y8359800D01*
X4750000Y9110395D01*
X3999405Y8359800D01*
X427000Y8359800D01*
X427000Y9469009D01*
X3460347Y9469009D01*
X3490012Y8961854D01*
X3627020Y8631088D01*
X3819800Y8539405D01*
X4570395Y9290000D01*
X4929605Y9290000D01*
X5680200Y8539405D01*
X5872980Y8631088D01*
X6039653Y9110991D01*
X6009988Y9618146D01*
X5872980Y9948912D01*
X5680200Y10040595D01*
X4929605Y9290000D01*
X4570395Y9290000D01*
X3819800Y10040595D01*
X3627020Y9948912D01*
X3460347Y9469009D01*
X427000Y9469009D01*
X427000Y10220200D01*
X3999405Y10220200D01*
X4750000Y9469605D01*
X5500595Y10220200D01*
X5408912Y10412980D01*
X4929009Y10579653D01*
X4421854Y10549988D01*
X4091088Y10412980D01*
X3999405Y10220200D01*
X427000Y10220200D01*
X427000Y25190000D01*
X10185615Y25190000D01*
X10185615Y23490000D01*
X10211903Y23350292D01*
X10294470Y23221980D01*
X10420453Y23135899D01*
X10570000Y23105615D01*
X10693000Y23105615D01*
X10693000Y22790005D01*
X10692999Y22790000D01*
X10717466Y22667000D01*
X10748340Y22511789D01*
X10873484Y22324497D01*
X10905933Y22275933D01*
X14555931Y18625936D01*
X14555933Y18625933D01*
X14685220Y18539547D01*
X14791790Y18468339D01*
X15070000Y18412999D01*
X15070005Y18413000D01*
X23880273Y18413000D01*
X23875615Y18390000D01*
X23875615Y16690000D01*
X23901903Y16550292D01*
X23984470Y16421980D01*
X24110453Y16335899D01*
X24260000Y16305615D01*
X25960000Y16305615D01*
X26099708Y16331903D01*
X26228020Y16414470D01*
X26314101Y16540453D01*
X26344385Y16690000D01*
X26344385Y18277481D01*
X26545189Y18076677D01*
X26516400Y18033591D01*
X26423000Y17564038D01*
X26423000Y17515962D01*
X26516400Y17046409D01*
X26782380Y16648342D01*
X27180447Y16382362D01*
X27650000Y16288962D01*
X27894902Y16337676D01*
X37941289Y6291289D01*
X38160923Y6144534D01*
X38420000Y6093000D01*
X55309578Y6093000D01*
X56271901Y5130677D01*
X56240732Y5055614D01*
X56240270Y4526706D01*
X56442248Y4037883D01*
X56815916Y3663562D01*
X57304386Y3460732D01*
X57833294Y3460270D01*
X58322117Y3662248D01*
X58696438Y4035916D01*
X58899268Y4524386D01*
X58899730Y5053294D01*
X58697752Y5542117D01*
X58324084Y5916438D01*
X57835614Y6119268D01*
X57306706Y6119730D01*
X57229566Y6087856D01*
X56068711Y7248711D01*
X56066345Y7250292D01*
X55849077Y7395466D01*
X55590000Y7447000D01*
X38700422Y7447000D01*
X32301495Y13845927D01*
X34882883Y13845927D01*
X34985733Y13597011D01*
X35176010Y13406402D01*
X35424746Y13303118D01*
X35694073Y13302883D01*
X35942989Y13405733D01*
X36133598Y13596010D01*
X36234137Y13838135D01*
X36589001Y14193000D01*
X39956288Y14193000D01*
X39047227Y13283939D01*
X38927011Y13234267D01*
X38809998Y13117458D01*
X38733991Y13193598D01*
X38485255Y13296882D01*
X38215928Y13297117D01*
X37967012Y13194267D01*
X37776403Y13003990D01*
X37673119Y12755254D01*
X37672884Y12485927D01*
X37773001Y12243625D01*
X37773001Y10100004D01*
X37773000Y10099999D01*
X37816923Y9879191D01*
X37942000Y9691998D01*
X39601999Y8031999D01*
X39789192Y7906922D01*
X40010000Y7863000D01*
X40514203Y7863000D01*
X40754746Y7763118D01*
X41024073Y7762883D01*
X41272989Y7865733D01*
X41463598Y8056010D01*
X41566882Y8304746D01*
X41567117Y8574073D01*
X41464267Y8822989D01*
X41273990Y9013598D01*
X41025254Y9116882D01*
X40755927Y9117117D01*
X40513625Y9017000D01*
X40249002Y9017000D01*
X38927001Y10339001D01*
X38927001Y12085991D01*
X39174746Y11983118D01*
X39444073Y11982883D01*
X39692989Y12085733D01*
X39883598Y12276010D01*
X39933926Y12397214D01*
X40739712Y13203000D01*
X48554617Y13203000D01*
X48674746Y13153118D01*
X48944073Y13152883D01*
X49192989Y13255733D01*
X49383598Y13446010D01*
X49486882Y13694746D01*
X49487117Y13964073D01*
X49384267Y14212989D01*
X49193990Y14403598D01*
X48945254Y14506882D01*
X48675927Y14507117D01*
X48554635Y14457000D01*
X48043002Y14457000D01*
X48982272Y15396271D01*
X49222989Y15495733D01*
X49413598Y15686010D01*
X49516882Y15934746D01*
X49517117Y16204073D01*
X49414267Y16452989D01*
X49223990Y16643598D01*
X48975254Y16746882D01*
X48705927Y16747117D01*
X48457011Y16644267D01*
X48266402Y16453990D01*
X48165863Y16211864D01*
X47300998Y15347000D01*
X36350005Y15347000D01*
X36350000Y15347001D01*
X36129192Y15303078D01*
X35941999Y15178001D01*
X35941997Y15177998D01*
X35417727Y14653729D01*
X35177011Y14554267D01*
X34986402Y14363990D01*
X34883118Y14115254D01*
X34882883Y13845927D01*
X32301495Y13845927D01*
X29776138Y16371284D01*
X30190000Y16288962D01*
X30659553Y16382362D01*
X31057620Y16648342D01*
X31323600Y17046409D01*
X31417000Y17515962D01*
X31417000Y17564038D01*
X31323600Y18033591D01*
X31057620Y18431658D01*
X30659553Y18697638D01*
X30190000Y18791038D01*
X29720447Y18697638D01*
X29322380Y18431658D01*
X29056400Y18033591D01*
X28963000Y17564038D01*
X28963000Y17515962D01*
X29045322Y17102100D01*
X28836262Y17311160D01*
X28877000Y17515962D01*
X28877000Y17564038D01*
X28783600Y18033591D01*
X28517620Y18431658D01*
X28119553Y18697638D01*
X27945967Y18732167D01*
X27135134Y19543000D01*
X37119578Y19543000D01*
X39321289Y17341288D01*
X39540924Y17194533D01*
X39800000Y17143000D01*
X51139578Y17143000D01*
X56271289Y12011289D01*
X56337581Y11966994D01*
X56432248Y11737883D01*
X56805916Y11363562D01*
X57294386Y11160732D01*
X57823294Y11160270D01*
X58312117Y11362248D01*
X58686438Y11735916D01*
X58889268Y12224386D01*
X58889730Y12753294D01*
X58687752Y13242117D01*
X58314084Y13616438D01*
X57825614Y13819268D01*
X57296706Y13819730D01*
X56807883Y13617752D01*
X56693677Y13503745D01*
X52978771Y17218651D01*
X56928256Y17218651D01*
X57001472Y17041422D01*
X57426888Y16899869D01*
X57874091Y16931889D01*
X58138528Y17041422D01*
X58211744Y17218651D01*
X57570000Y17860395D01*
X56928256Y17218651D01*
X52978771Y17218651D01*
X52014310Y18183112D01*
X56429869Y18183112D01*
X56461889Y17735909D01*
X56571422Y17471472D01*
X56748651Y17398256D01*
X57390395Y18040000D01*
X57749605Y18040000D01*
X58391349Y17398256D01*
X58568578Y17471472D01*
X58710131Y17896888D01*
X58678111Y18344091D01*
X58568578Y18608528D01*
X58391349Y18681744D01*
X57749605Y18040000D01*
X57390395Y18040000D01*
X56748651Y18681744D01*
X56571422Y18608528D01*
X56429869Y18183112D01*
X52014310Y18183112D01*
X51898711Y18298711D01*
X51830795Y18344091D01*
X51679077Y18445466D01*
X51420000Y18497000D01*
X40080423Y18497000D01*
X39716074Y18861349D01*
X56928256Y18861349D01*
X57570000Y18219605D01*
X58211744Y18861349D01*
X58138528Y19038578D01*
X57713112Y19180131D01*
X57265909Y19148111D01*
X57001472Y19038578D01*
X56928256Y18861349D01*
X39716074Y18861349D01*
X37878711Y20698711D01*
X37804436Y20748340D01*
X37659077Y20845466D01*
X37400000Y20897000D01*
X30821121Y20897000D01*
X31047620Y21048342D01*
X31313600Y21446409D01*
X31407000Y21915962D01*
X31407000Y21964038D01*
X31364043Y22180000D01*
X42415615Y22180000D01*
X42415615Y20480000D01*
X42441903Y20340292D01*
X42524470Y20211980D01*
X42650453Y20125899D01*
X42800000Y20095615D01*
X44500000Y20095615D01*
X44639708Y20121903D01*
X44768020Y20204470D01*
X44854101Y20330453D01*
X44884385Y20480000D01*
X44884385Y21354038D01*
X44963000Y21354038D01*
X44963000Y21305962D01*
X45056400Y20836409D01*
X45322380Y20438342D01*
X45720447Y20172362D01*
X46190000Y20078962D01*
X46659553Y20172362D01*
X47057620Y20438342D01*
X47323600Y20836409D01*
X47417000Y21305962D01*
X47417000Y21354038D01*
X47323600Y21823591D01*
X47057620Y22221658D01*
X46659553Y22487638D01*
X46190000Y22581038D01*
X45720447Y22487638D01*
X45322380Y22221658D01*
X45056400Y21823591D01*
X44963000Y21354038D01*
X44884385Y21354038D01*
X44884385Y22180000D01*
X44858097Y22319708D01*
X44775530Y22448020D01*
X44649547Y22534101D01*
X44500000Y22564385D01*
X42800000Y22564385D01*
X42660292Y22538097D01*
X42531980Y22455530D01*
X42445899Y22329547D01*
X42415615Y22180000D01*
X31364043Y22180000D01*
X31313600Y22433591D01*
X31047620Y22831658D01*
X30649553Y23097638D01*
X30180000Y23191038D01*
X29710447Y23097638D01*
X29312380Y22831658D01*
X29046400Y22433591D01*
X28953000Y21964038D01*
X28953000Y21915962D01*
X29046400Y21446409D01*
X29312380Y21048342D01*
X29538879Y20897000D01*
X29210423Y20897000D01*
X28728504Y21378918D01*
X28773600Y21446409D01*
X28867000Y21915962D01*
X28867000Y21964038D01*
X28773600Y22433591D01*
X28507620Y22831658D01*
X28109553Y23097638D01*
X27640000Y23191038D01*
X27170447Y23097638D01*
X26772380Y22831658D01*
X26506400Y22433591D01*
X26413000Y21964038D01*
X26413000Y21915962D01*
X26506400Y21446409D01*
X26559222Y21367355D01*
X26334385Y21142519D01*
X26334385Y22790000D01*
X26308097Y22929708D01*
X26225530Y23058020D01*
X26099547Y23144101D01*
X25950000Y23174385D01*
X24250000Y23174385D01*
X24110292Y23148097D01*
X23981980Y23065530D01*
X23895899Y22939547D01*
X23865615Y22790000D01*
X23865615Y21090000D01*
X23891903Y20950292D01*
X23894021Y20947000D01*
X18291133Y20947000D01*
X17227000Y22011134D01*
X17227000Y23354383D01*
X17367620Y23448342D01*
X17633600Y23846409D01*
X17727000Y24315962D01*
X17727000Y24364038D01*
X17633600Y24833591D01*
X17367620Y25231658D01*
X17177000Y25359026D01*
X17177000Y25542081D01*
X17158892Y25633115D01*
X17125467Y25801157D01*
X16978712Y26020792D01*
X16188332Y26811172D01*
X49327863Y26811172D01*
X49449703Y26516297D01*
X49675112Y26290494D01*
X49969774Y26168140D01*
X50288830Y26167861D01*
X50583705Y26289701D01*
X50647115Y26353000D01*
X65930000Y26353000D01*
X66169943Y26400728D01*
X66373356Y26536644D01*
X67393356Y27556644D01*
X67529273Y27760058D01*
X67577000Y28000000D01*
X67577000Y28059808D01*
X67601886Y28119740D01*
X67602113Y28379122D01*
X67503061Y28618846D01*
X67319810Y28802416D01*
X67080260Y28901886D01*
X66820878Y28902113D01*
X66581154Y28803061D01*
X66397584Y28619810D01*
X66298114Y28380260D01*
X66297987Y28234699D01*
X65670288Y27607000D01*
X61279712Y27607000D01*
X61077000Y27809712D01*
X61077000Y28049808D01*
X61101886Y28109740D01*
X61102113Y28369122D01*
X61003061Y28608846D01*
X60819810Y28792416D01*
X60580260Y28891886D01*
X60320878Y28892113D01*
X60081154Y28793061D01*
X59897584Y28609810D01*
X59798114Y28370260D01*
X59797887Y28110878D01*
X59823000Y28050100D01*
X59823000Y27819712D01*
X59610288Y27607000D01*
X50627324Y27607000D01*
X50584892Y27649506D01*
X50290230Y27771860D01*
X49971174Y27772139D01*
X49676299Y27650299D01*
X49450496Y27424890D01*
X49328142Y27130228D01*
X49327863Y26811172D01*
X16188332Y26811172D01*
X14488626Y28510878D01*
X27477887Y28510878D01*
X27576939Y28271154D01*
X27760190Y28087584D01*
X27999740Y27988114D01*
X28259122Y27987887D01*
X28498846Y28086939D01*
X28682416Y28270190D01*
X28781886Y28509740D01*
X28782113Y28769122D01*
X28683061Y29008846D01*
X28499810Y29192416D01*
X28260260Y29291886D01*
X28000878Y29292113D01*
X27761154Y29193061D01*
X27577584Y29009810D01*
X27478114Y28770260D01*
X27477887Y28510878D01*
X14488626Y28510878D01*
X13910792Y29088711D01*
X13878931Y29110000D01*
X13691158Y29235466D01*
X13432081Y29287000D01*
X11660000Y29287000D01*
X11534868Y29262110D01*
X11530878Y29262113D01*
X11527158Y29260576D01*
X11400923Y29235466D01*
X11294842Y29164585D01*
X11291154Y29163061D01*
X11288305Y29160217D01*
X11181289Y29088711D01*
X11110406Y28982627D01*
X11107584Y28979810D01*
X11106042Y28976096D01*
X11034534Y28869077D01*
X11009643Y28743942D01*
X11008114Y28740260D01*
X11008110Y28736238D01*
X10983000Y28610000D01*
X11007890Y28484868D01*
X11007887Y28480878D01*
X11009424Y28477158D01*
X11034534Y28350923D01*
X11105415Y28244842D01*
X11106939Y28241154D01*
X11109783Y28238305D01*
X11181289Y28131289D01*
X11287373Y28060406D01*
X11290190Y28057584D01*
X11293904Y28056042D01*
X11400923Y27984534D01*
X11526058Y27959643D01*
X11529740Y27958114D01*
X11533762Y27958110D01*
X11660000Y27933000D01*
X13151659Y27933000D01*
X15764632Y25320026D01*
X15632380Y25231658D01*
X15366400Y24833591D01*
X15273000Y24364038D01*
X15273000Y24315962D01*
X15366400Y23846409D01*
X15632380Y23448342D01*
X15773000Y23354383D01*
X15773000Y21710005D01*
X15772999Y21710000D01*
X15812783Y21510000D01*
X15828340Y21431789D01*
X15949190Y21250923D01*
X15985933Y21195933D01*
X17314867Y19867000D01*
X15371133Y19867000D01*
X12147000Y23091134D01*
X12147000Y23105615D01*
X12270000Y23105615D01*
X12409708Y23131903D01*
X12538020Y23214470D01*
X12624101Y23340453D01*
X12654385Y23490000D01*
X12654385Y24015785D01*
X12724831Y24015785D01*
X12942924Y23567786D01*
X13315858Y23237349D01*
X13635787Y23104842D01*
X13833000Y23176662D01*
X13833000Y24213000D01*
X14087000Y24213000D01*
X14087000Y23176662D01*
X14284213Y23104842D01*
X14604142Y23237349D01*
X14977076Y23567786D01*
X15195169Y24015785D01*
X15123930Y24213000D01*
X14087000Y24213000D01*
X13833000Y24213000D01*
X12796070Y24213000D01*
X12724831Y24015785D01*
X12654385Y24015785D01*
X12654385Y24664215D01*
X12724831Y24664215D01*
X12796070Y24467000D01*
X13833000Y24467000D01*
X13833000Y25503338D01*
X14087000Y25503338D01*
X14087000Y24467000D01*
X15123930Y24467000D01*
X15195169Y24664215D01*
X14977076Y25112214D01*
X14604142Y25442651D01*
X14284213Y25575158D01*
X14087000Y25503338D01*
X13833000Y25503338D01*
X13635787Y25575158D01*
X13315858Y25442651D01*
X12942924Y25112214D01*
X12724831Y24664215D01*
X12654385Y24664215D01*
X12654385Y25190000D01*
X12628097Y25329708D01*
X12545530Y25458020D01*
X12419547Y25544101D01*
X12270000Y25574385D01*
X10570000Y25574385D01*
X10430292Y25548097D01*
X10301980Y25465530D01*
X10215899Y25339547D01*
X10185615Y25190000D01*
X427000Y25190000D01*
X427000Y30490780D01*
X13787896Y30490780D01*
X13879352Y30269440D01*
X14048549Y30099947D01*
X14269729Y30008105D01*
X14509220Y30007896D01*
X14730560Y30099352D01*
X14739223Y30108000D01*
X15207065Y30108000D01*
X15300030Y30015035D01*
X15300032Y30015032D01*
X15397660Y29949800D01*
X15462892Y29906212D01*
X15655000Y29868000D01*
X39360096Y29868000D01*
X39167362Y29579553D01*
X39073962Y29110000D01*
X39167362Y28640447D01*
X39433342Y28242380D01*
X39831409Y27976400D01*
X40300962Y27883000D01*
X40349038Y27883000D01*
X40818591Y27976400D01*
X41216658Y28242380D01*
X41482638Y28640447D01*
X41576038Y29110000D01*
X41482638Y29579553D01*
X41216658Y29977620D01*
X41151256Y30021320D01*
X41954968Y30825032D01*
X42063788Y30987893D01*
X42102001Y31180000D01*
X42102000Y31180005D01*
X42102000Y34462064D01*
X45807926Y38167990D01*
X52830510Y38167990D01*
X52838549Y38159937D01*
X53059729Y38068095D01*
X53299220Y38067886D01*
X53520560Y38159342D01*
X53690053Y38328539D01*
X53781895Y38549719D01*
X53781998Y38668000D01*
X54995997Y38668000D01*
X54867584Y38539810D01*
X54768114Y38300260D01*
X54767887Y38040878D01*
X54866939Y37801154D01*
X55050190Y37617584D01*
X55231844Y37542154D01*
X55286996Y37487003D01*
X55286998Y37487000D01*
X56233000Y36540999D01*
X56233000Y35164002D01*
X54041999Y32973001D01*
X54003820Y32915861D01*
X53897584Y32809810D01*
X53889528Y32790408D01*
X49931936Y36748000D01*
X54062064Y36748000D01*
X54967906Y35842158D01*
X54967896Y35830780D01*
X55059352Y35609440D01*
X55228549Y35439947D01*
X55449729Y35348105D01*
X55689220Y35347896D01*
X55910560Y35439352D01*
X56080053Y35608549D01*
X56171895Y35829729D01*
X56172104Y36069220D01*
X56080648Y36290560D01*
X55911451Y36460053D01*
X55690271Y36551895D01*
X55678030Y36551906D01*
X54624968Y37604968D01*
X54462107Y37713788D01*
X54270000Y37752001D01*
X54269995Y37752000D01*
X46279490Y37752000D01*
X46271451Y37760053D01*
X46050271Y37851895D01*
X45810780Y37852104D01*
X45589440Y37760648D01*
X45419947Y37591451D01*
X45328105Y37370271D01*
X45328055Y37313086D01*
X45167181Y37246614D01*
X44997688Y37077417D01*
X44905846Y36856237D01*
X44905637Y36616746D01*
X44997093Y36395406D01*
X45166290Y36225913D01*
X45387470Y36134071D01*
X45626961Y36133862D01*
X45848301Y36225318D01*
X45856964Y36233966D01*
X49026098Y36233966D01*
X53805032Y31455032D01*
X53967893Y31346212D01*
X54160000Y31307999D01*
X54160005Y31308000D01*
X54879995Y31308000D01*
X54880000Y31307999D01*
X55072107Y31346212D01*
X55234968Y31455032D01*
X55617842Y31837906D01*
X55629220Y31837896D01*
X55850560Y31929352D01*
X56020053Y32098549D01*
X56111895Y32319729D01*
X56112104Y32559220D01*
X56020648Y32780560D01*
X55851451Y32950053D01*
X55709852Y33008850D01*
X57218001Y34516999D01*
X57343078Y34704192D01*
X57387001Y34925000D01*
X57387000Y34925005D01*
X57387000Y36779995D01*
X57387001Y36780000D01*
X57343078Y37000808D01*
X57316891Y37040000D01*
X57218001Y37188001D01*
X57217998Y37188003D01*
X56103000Y38303002D01*
X56102997Y38303004D01*
X56047633Y38358368D01*
X55973061Y38538846D01*
X55844131Y38668000D01*
X58692064Y38668000D01*
X59175030Y38185035D01*
X59175032Y38185032D01*
X59273198Y38119440D01*
X59337893Y38076212D01*
X59530000Y38037999D01*
X59530005Y38038000D01*
X66740510Y38038000D01*
X66748549Y38029947D01*
X66969729Y37938105D01*
X67209220Y37937896D01*
X67430560Y38029352D01*
X67600053Y38198549D01*
X67691895Y38419729D01*
X67692104Y38659220D01*
X67600648Y38880560D01*
X67431451Y39050053D01*
X67210271Y39141895D01*
X66970780Y39142104D01*
X66749440Y39050648D01*
X66740777Y39042000D01*
X64961936Y39042000D01*
X66057841Y40137906D01*
X66069220Y40137896D01*
X66290560Y40229352D01*
X66460053Y40398549D01*
X66551895Y40619729D01*
X66552104Y40859220D01*
X66460648Y41080560D01*
X66291451Y41250053D01*
X66070271Y41341895D01*
X65830780Y41342104D01*
X65609440Y41250648D01*
X65439947Y41081451D01*
X65348105Y40860271D01*
X65348094Y40848029D01*
X64172064Y39672000D01*
X59807935Y39672000D01*
X59474968Y40004968D01*
X59312107Y40113788D01*
X59120000Y40152001D01*
X59119995Y40152000D01*
X41195137Y40152000D01*
X40818591Y40403600D01*
X40349038Y40497000D01*
X40300962Y40497000D01*
X39831409Y40403600D01*
X39433342Y40137620D01*
X39167362Y39739553D01*
X39073962Y39270000D01*
X39167362Y38800447D01*
X39433342Y38402380D01*
X39831409Y38136400D01*
X40300962Y38043000D01*
X40349038Y38043000D01*
X40818591Y38136400D01*
X41216658Y38402380D01*
X41482638Y38800447D01*
X41551771Y39148000D01*
X44573065Y39148000D01*
X40760266Y35335202D01*
X40349038Y35417000D01*
X40300962Y35417000D01*
X39831409Y35323600D01*
X39433342Y35057620D01*
X39167362Y34659553D01*
X39073962Y34190000D01*
X39167362Y33720447D01*
X39433342Y33322380D01*
X39831409Y33056400D01*
X40300962Y32963000D01*
X40349038Y32963000D01*
X40818591Y33056400D01*
X41098000Y33243095D01*
X41098000Y32596905D01*
X40818591Y32783600D01*
X40349038Y32877000D01*
X40300962Y32877000D01*
X39831409Y32783600D01*
X39433342Y32517620D01*
X39167362Y32119553D01*
X39073962Y31650000D01*
X39167362Y31180447D01*
X39373460Y30872000D01*
X15862936Y30872000D01*
X15769968Y30964968D01*
X15607107Y31073788D01*
X15415000Y31112001D01*
X15414995Y31112000D01*
X14739490Y31112000D01*
X14731451Y31120053D01*
X14510271Y31211895D01*
X14270780Y31212104D01*
X14049440Y31120648D01*
X13879947Y30951451D01*
X13788105Y30730271D01*
X13787896Y30490780D01*
X427000Y30490780D01*
X427000Y36405787D01*
X39089842Y36405787D01*
X39222349Y36085858D01*
X39552786Y35712924D01*
X40000785Y35494831D01*
X40198000Y35566070D01*
X40198000Y36603000D01*
X40452000Y36603000D01*
X40452000Y35566070D01*
X40649215Y35494831D01*
X41097214Y35712924D01*
X41427651Y36085858D01*
X41560158Y36405787D01*
X41488338Y36603000D01*
X40452000Y36603000D01*
X40198000Y36603000D01*
X39161662Y36603000D01*
X39089842Y36405787D01*
X427000Y36405787D01*
X427000Y37054213D01*
X39089842Y37054213D01*
X39161662Y36857000D01*
X40198000Y36857000D01*
X40198000Y37893930D01*
X40452000Y37893930D01*
X40452000Y36857000D01*
X41488338Y36857000D01*
X41560158Y37054213D01*
X41427651Y37374142D01*
X41097214Y37747076D01*
X40649215Y37965169D01*
X40452000Y37893930D01*
X40198000Y37893930D01*
X40000785Y37965169D01*
X39552786Y37747076D01*
X39222349Y37374142D01*
X39089842Y37054213D01*
X427000Y37054213D01*
X427000Y42660000D01*
X39090615Y42660000D01*
X39090615Y40960000D01*
X39116903Y40820292D01*
X39199470Y40691980D01*
X39325453Y40605899D01*
X39475000Y40575615D01*
X41175000Y40575615D01*
X41314708Y40601903D01*
X41443020Y40684470D01*
X41457586Y40705789D01*
X55087896Y40705789D01*
X55179352Y40484449D01*
X55348549Y40314956D01*
X55569729Y40223114D01*
X55809220Y40222905D01*
X56030560Y40314361D01*
X56064258Y40348000D01*
X62610510Y40348000D01*
X62618549Y40339947D01*
X62839729Y40248105D01*
X63079220Y40247896D01*
X63300560Y40339352D01*
X63470053Y40508549D01*
X63508096Y40600167D01*
X63507896Y40370780D01*
X63599352Y40149440D01*
X63768549Y39979947D01*
X63989729Y39888105D01*
X64229220Y39887896D01*
X64450560Y39979352D01*
X64620053Y40148549D01*
X64711895Y40369729D01*
X64711906Y40381970D01*
X66327935Y41998000D01*
X67479991Y41998000D01*
X67479996Y41997999D01*
X67672103Y42036212D01*
X67834964Y42145032D01*
X68726321Y43036390D01*
X68897604Y42864808D01*
X68897887Y42864690D01*
X68923000Y42839578D01*
X68923000Y40540017D01*
X68922883Y40405927D01*
X69025733Y40157011D01*
X69216010Y39966402D01*
X69464746Y39863118D01*
X69734073Y39862883D01*
X69982989Y39965733D01*
X70173598Y40156010D01*
X70276882Y40404746D01*
X70277117Y40674073D01*
X70277000Y40674356D01*
X70277000Y43120000D01*
X70225466Y43379077D01*
X70128706Y43523889D01*
X70078711Y43598712D01*
X70060307Y43617115D01*
X70060305Y43617118D01*
X69760722Y43916700D01*
X69683744Y43993812D01*
X71168002Y45478071D01*
X71168002Y44539370D01*
X71089947Y44461451D01*
X70998105Y44240271D01*
X70997896Y44000780D01*
X71089352Y43779440D01*
X71258549Y43609947D01*
X71479729Y43518105D01*
X71719220Y43517896D01*
X71940560Y43609352D01*
X72110053Y43778549D01*
X72201895Y43999729D01*
X72202104Y44239220D01*
X72172002Y44312072D01*
X72172002Y45570510D01*
X72180055Y45578549D01*
X72265570Y45784492D01*
X72568000Y45482063D01*
X72568000Y40617935D01*
X69492064Y37542000D01*
X67499500Y37542000D01*
X67491461Y37550053D01*
X67270281Y37641895D01*
X67030790Y37642104D01*
X66809450Y37550648D01*
X66639957Y37381451D01*
X66548115Y37160271D01*
X66547906Y36920780D01*
X66639362Y36699440D01*
X66756597Y36582000D01*
X60329488Y36582000D01*
X60321449Y36590053D01*
X60100269Y36681895D01*
X60021949Y36681963D01*
X60022104Y36859220D01*
X59930648Y37080560D01*
X59761451Y37250053D01*
X59540271Y37341895D01*
X59300780Y37342104D01*
X59079440Y37250648D01*
X58909947Y37081451D01*
X58818105Y36860271D01*
X58817896Y36620780D01*
X58909352Y36399440D01*
X58928000Y36380759D01*
X58928000Y34017935D01*
X57952064Y33042000D01*
X57539490Y33042000D01*
X57531451Y33050053D01*
X57310271Y33141895D01*
X57070780Y33142104D01*
X56849440Y33050648D01*
X56679947Y32881451D01*
X56588105Y32660271D01*
X56587896Y32420780D01*
X56679352Y32199440D01*
X56848549Y32029947D01*
X57069729Y31938105D01*
X57309220Y31937896D01*
X57530560Y32029352D01*
X57539223Y32038000D01*
X58159995Y32038000D01*
X58160000Y32037999D01*
X58352107Y32076212D01*
X58514968Y32185032D01*
X59784965Y33455030D01*
X59784968Y33455032D01*
X59853697Y33557893D01*
X59893788Y33617892D01*
X59932000Y33810000D01*
X59932000Y35478042D01*
X60099218Y35477896D01*
X60320558Y35569352D01*
X60329221Y35578000D01*
X68220570Y35578000D01*
X68268549Y35529937D01*
X68489729Y35438095D01*
X68729220Y35437886D01*
X68950560Y35529342D01*
X69120053Y35698539D01*
X69211895Y35919719D01*
X69212104Y36159210D01*
X69120648Y36380550D01*
X68963473Y36538000D01*
X69407998Y36538000D01*
X69407896Y36420782D01*
X69499352Y36199442D01*
X69668549Y36029949D01*
X69889729Y35938107D01*
X70129220Y35937898D01*
X70350560Y36029354D01*
X70520053Y36198551D01*
X70611895Y36419731D01*
X70611906Y36431972D01*
X74004965Y39825032D01*
X74004968Y39825034D01*
X74113788Y39987895D01*
X74121410Y40026212D01*
X74152001Y40180002D01*
X74152000Y40180007D01*
X74152000Y46209997D01*
X74152001Y46210002D01*
X74113788Y46402109D01*
X74094719Y46430648D01*
X74004968Y46564970D01*
X74004965Y46564972D01*
X73402096Y47167842D01*
X73402106Y47179220D01*
X73310650Y47400560D01*
X73200667Y47510736D01*
X73347933Y47658002D01*
X73822062Y47658002D01*
X79670064Y41810000D01*
X71912064Y34052000D01*
X69229490Y34052000D01*
X69221451Y34060053D01*
X69000271Y34151895D01*
X68760780Y34152104D01*
X68539440Y34060648D01*
X68369947Y33891451D01*
X68278105Y33670271D01*
X68277896Y33430780D01*
X68369352Y33209440D01*
X68538549Y33039947D01*
X68759729Y32948105D01*
X68999220Y32947896D01*
X69220560Y33039352D01*
X69229223Y33048000D01*
X71678064Y33048000D01*
X70072064Y31442000D01*
X64809490Y31442000D01*
X64801451Y31450053D01*
X64580271Y31541895D01*
X64340780Y31542104D01*
X64119440Y31450648D01*
X63949947Y31281451D01*
X63858105Y31060271D01*
X63857896Y30820780D01*
X63949352Y30599440D01*
X64118549Y30429947D01*
X64339729Y30338105D01*
X64579220Y30337896D01*
X64800560Y30429352D01*
X64809223Y30438000D01*
X70279995Y30438000D01*
X70280000Y30437999D01*
X70472107Y30476212D01*
X70634968Y30585032D01*
X74677935Y34628000D01*
X81428065Y34628000D01*
X80905032Y34104968D01*
X80796212Y33942107D01*
X80757999Y33750000D01*
X80758000Y33749995D01*
X80758000Y26668856D01*
X80630269Y26721895D01*
X80390778Y26722104D01*
X80209013Y26647000D01*
X79798290Y26647000D01*
X75741994Y30703296D01*
X75742113Y30839122D01*
X75643061Y31078846D01*
X75459810Y31262416D01*
X75220260Y31361886D01*
X74960878Y31362113D01*
X74721154Y31263061D01*
X74537584Y31079810D01*
X74438114Y30840260D01*
X74437887Y30580878D01*
X74536939Y30341154D01*
X74720190Y30157584D01*
X74851758Y30102952D01*
X79207355Y25747355D01*
X79378325Y25633115D01*
X79580000Y25593000D01*
X80209360Y25593000D01*
X80389727Y25518105D01*
X80629218Y25517896D01*
X80758000Y25571108D01*
X80758000Y23787932D01*
X80442162Y23472094D01*
X80430784Y23472104D01*
X80209444Y23380648D01*
X80185755Y23357000D01*
X75485182Y23357000D01*
X75459810Y23382416D01*
X75220260Y23481886D01*
X74960878Y23482113D01*
X74721154Y23383061D01*
X74537584Y23199810D01*
X74438114Y22960260D01*
X74437887Y22700878D01*
X74536939Y22461154D01*
X74720190Y22277584D01*
X74959740Y22178114D01*
X75219122Y22177887D01*
X75458846Y22276939D01*
X75484952Y22303000D01*
X80345697Y22303000D01*
X80429733Y22268105D01*
X80669224Y22267896D01*
X80890564Y22359352D01*
X81060057Y22528549D01*
X81151899Y22749729D01*
X81151910Y22761970D01*
X81362157Y22972217D01*
X85516029Y22972217D01*
X85533023Y22891243D01*
X85801156Y22400761D01*
X86236578Y22050225D01*
X86773000Y21893000D01*
X87073000Y21893000D01*
X87073000Y23193000D01*
X87327000Y23193000D01*
X87327000Y21893000D01*
X87627000Y21893000D01*
X88163422Y22050225D01*
X88598844Y22400761D01*
X88866977Y22891243D01*
X88883971Y22972217D01*
X88814127Y23193000D01*
X87327000Y23193000D01*
X87073000Y23193000D01*
X85585873Y23193000D01*
X85516029Y22972217D01*
X81362157Y22972217D01*
X81614968Y23225028D01*
X81723788Y23387889D01*
X81762001Y23579996D01*
X81762000Y23580001D01*
X81762000Y28400000D01*
X85490146Y28400000D01*
X85594964Y27873045D01*
X85893460Y27426314D01*
X86336925Y27130000D01*
X85893460Y26833686D01*
X85594964Y26386955D01*
X85490146Y25860000D01*
X85594964Y25333045D01*
X85893460Y24886314D01*
X86306563Y24610288D01*
X86236578Y24589775D01*
X85801156Y24239239D01*
X85533023Y23748757D01*
X85516029Y23667783D01*
X85585873Y23447000D01*
X87073000Y23447000D01*
X87073000Y23467000D01*
X87327000Y23467000D01*
X87327000Y23447000D01*
X88814127Y23447000D01*
X88883971Y23667783D01*
X88866977Y23748757D01*
X88598844Y24239239D01*
X88163422Y24589775D01*
X88093437Y24610288D01*
X88506540Y24886314D01*
X88805036Y25333045D01*
X88909854Y25860000D01*
X88805036Y26386955D01*
X88506540Y26833686D01*
X88063075Y27130000D01*
X88506540Y27426314D01*
X88805036Y27873045D01*
X88909854Y28400000D01*
X88805036Y28926955D01*
X88506540Y29373686D01*
X88234264Y29555615D01*
X88500000Y29555615D01*
X88639708Y29581903D01*
X88768020Y29664470D01*
X88854101Y29790453D01*
X88884385Y29940000D01*
X88884385Y31940000D01*
X88858097Y32079708D01*
X88775530Y32208020D01*
X88649547Y32294101D01*
X88500000Y32324385D01*
X85900000Y32324385D01*
X85760292Y32298097D01*
X85631980Y32215530D01*
X85545899Y32089547D01*
X85515615Y31940000D01*
X85515615Y29940000D01*
X85541903Y29800292D01*
X85624470Y29671980D01*
X85750453Y29585899D01*
X85900000Y29555615D01*
X86165736Y29555615D01*
X85893460Y29373686D01*
X85594964Y28926955D01*
X85490146Y28400000D01*
X81762000Y28400000D01*
X81762000Y32340000D01*
X93093000Y32340000D01*
X93093000Y21930000D01*
X93125503Y21766594D01*
X93218065Y21628065D01*
X93356594Y21535503D01*
X93520000Y21503000D01*
X96599980Y21503000D01*
X96600000Y21502996D01*
X96763406Y21535499D01*
X96901935Y21628061D01*
X96994497Y21766590D01*
X97027000Y21929996D01*
X97027000Y32340000D01*
X96994497Y32503406D01*
X96901935Y32641935D01*
X96763406Y32734497D01*
X96600000Y32767000D01*
X93520000Y32767000D01*
X93356594Y32734497D01*
X93218065Y32641935D01*
X93125503Y32503406D01*
X93093000Y32340000D01*
X81762000Y32340000D01*
X81762000Y33356542D01*
X81788549Y33329947D01*
X82009729Y33238105D01*
X82249220Y33237896D01*
X82470560Y33329352D01*
X82479223Y33338000D01*
X83832064Y33338000D01*
X84365030Y32805035D01*
X84365032Y32805032D01*
X84462660Y32739800D01*
X84527892Y32696212D01*
X84720000Y32658000D01*
X86230510Y32658000D01*
X86238549Y32649947D01*
X86459729Y32558105D01*
X86699220Y32557896D01*
X86920560Y32649352D01*
X87090053Y32818549D01*
X87181895Y33039729D01*
X87182038Y33203764D01*
X87328865Y33232970D01*
X87491726Y33341790D01*
X92007841Y37857906D01*
X92019220Y37857896D01*
X92240560Y37949352D01*
X92249223Y37958000D01*
X95499995Y37958000D01*
X95500000Y37957999D01*
X95692107Y37996212D01*
X95854968Y38105032D01*
X96037885Y38287949D01*
X96109122Y38287887D01*
X96348846Y38386939D01*
X96532416Y38570190D01*
X96631886Y38809740D01*
X96631918Y38846628D01*
X96892645Y39107355D01*
X97006885Y39278325D01*
X97047000Y39480000D01*
X97047000Y46210000D01*
X97034077Y46274968D01*
X97006885Y46411675D01*
X96892645Y46582645D01*
X93432645Y50042645D01*
X93261675Y50156885D01*
X93060000Y50197000D01*
X89205182Y50197000D01*
X89179810Y50222416D01*
X88940260Y50321886D01*
X88903372Y50321918D01*
X88487000Y50738290D01*
X88487000Y52180747D01*
X88827620Y52408342D01*
X89093600Y52806409D01*
X89187000Y53275962D01*
X89187000Y53324038D01*
X89093600Y53793591D01*
X88827620Y54191658D01*
X88429553Y54457638D01*
X87960000Y54551038D01*
X87494352Y54458415D01*
X87481675Y54466885D01*
X87280000Y54507000D01*
X76722996Y54507000D01*
X76521321Y54466885D01*
X76350351Y54352645D01*
X66364727Y44367021D01*
X66282313Y44367021D01*
X66360560Y44399352D01*
X66530053Y44568549D01*
X66605474Y44750183D01*
X66617645Y44762354D01*
X66617647Y44762357D01*
X76453292Y54598002D01*
X89606708Y54598002D01*
X89670325Y54534385D01*
X89650000Y54534385D01*
X89510292Y54508097D01*
X89381980Y54425530D01*
X89295899Y54299547D01*
X89265615Y54150000D01*
X89265615Y52450000D01*
X89291903Y52310292D01*
X89374470Y52181980D01*
X89500453Y52095899D01*
X89650000Y52065615D01*
X91350000Y52065615D01*
X91489708Y52091903D01*
X91618020Y52174470D01*
X91704101Y52300453D01*
X91734385Y52450000D01*
X91734385Y54150000D01*
X91708097Y54289708D01*
X91625530Y54418020D01*
X91499547Y54504101D01*
X91350000Y54534385D01*
X91010215Y54534385D01*
X90986885Y54651674D01*
X90986885Y54651675D01*
X90872645Y54822645D01*
X90197643Y55497647D01*
X90026673Y55611887D01*
X89824998Y55652002D01*
X76235002Y55652002D01*
X76033328Y55611887D01*
X75862357Y55497647D01*
X70537970Y50173260D01*
X70381451Y50330053D01*
X70160271Y50421895D01*
X70148029Y50421906D01*
X69341998Y51227938D01*
X69341998Y57932062D01*
X71245550Y59835615D01*
X72830000Y59835615D01*
X72969708Y59861903D01*
X73098020Y59944470D01*
X73184101Y60070453D01*
X73214385Y60220000D01*
X73214385Y61920000D01*
X73188097Y62059708D01*
X73105530Y62188020D01*
X72979547Y62274101D01*
X72830000Y62304385D01*
X71130000Y62304385D01*
X70990292Y62278097D01*
X70861980Y62195530D01*
X70775899Y62069547D01*
X70745615Y61920000D01*
X70745615Y60755550D01*
X70575369Y60585305D01*
X70667000Y61045962D01*
X70667000Y61094038D01*
X70573600Y61563591D01*
X70307620Y61961658D01*
X69909553Y62227638D01*
X69440000Y62321038D01*
X68970447Y62227638D01*
X68572380Y61961658D01*
X68306400Y61563591D01*
X68213000Y61094038D01*
X68213000Y61045962D01*
X68294798Y60634734D01*
X67815325Y60155261D01*
X67824385Y60200000D01*
X67824385Y61900000D01*
X67798097Y62039708D01*
X67715530Y62168020D01*
X67589547Y62254101D01*
X67440000Y62284385D01*
X65740000Y62284385D01*
X65600292Y62258097D01*
X65471980Y62175530D01*
X65385899Y62049547D01*
X65355615Y61900000D01*
X65355615Y60200000D01*
X65381903Y60060292D01*
X65464470Y59931980D01*
X65590453Y59845899D01*
X65740000Y59815615D01*
X65867998Y59815615D01*
X65867998Y51185002D01*
X65908113Y50983327D01*
X66022353Y50812357D01*
X68252355Y48582354D01*
X68276234Y48566399D01*
X68349352Y48389440D01*
X68518549Y48219947D01*
X68565261Y48200551D01*
X65872357Y45507647D01*
X65872354Y45507645D01*
X65859937Y45495228D01*
X65719015Y45437000D01*
X60930917Y45437000D01*
X60729243Y45396885D01*
X60729241Y45396884D01*
X60729242Y45396884D01*
X60558271Y45282645D01*
X59107355Y43831728D01*
X58993115Y43660758D01*
X58961032Y43499461D01*
X58953000Y43459083D01*
X58953000Y42820638D01*
X58878105Y42640271D01*
X58877896Y42400780D01*
X58969352Y42179440D01*
X59138549Y42009947D01*
X59359729Y41918105D01*
X59599220Y41917896D01*
X59805422Y42003097D01*
X59818549Y41989947D01*
X60039729Y41898105D01*
X60279220Y41897896D01*
X60500560Y41989352D01*
X60670053Y42158549D01*
X60761895Y42379729D01*
X60762104Y42619220D01*
X60687000Y42800985D01*
X60687000Y42818714D01*
X61181308Y43313021D01*
X62382050Y43313021D01*
X62355032Y43294968D01*
X62355030Y43294965D01*
X61852158Y42792094D01*
X61840780Y42792104D01*
X61619440Y42700648D01*
X61449947Y42531451D01*
X61358105Y42310271D01*
X61357896Y42070780D01*
X61449352Y41849440D01*
X61618549Y41679947D01*
X61839729Y41588105D01*
X62079220Y41587896D01*
X62300560Y41679352D01*
X62470053Y41848549D01*
X62561895Y42069729D01*
X62561906Y42081970D01*
X62917935Y42438000D01*
X65348065Y42438000D01*
X64002158Y41092094D01*
X63990780Y41092104D01*
X63769440Y41000648D01*
X63599947Y40831451D01*
X63561904Y40739833D01*
X63562104Y40969220D01*
X63470648Y41190560D01*
X63301451Y41360053D01*
X63080271Y41451895D01*
X62840780Y41452104D01*
X62619440Y41360648D01*
X62610777Y41352000D01*
X55990660Y41352000D01*
X55810271Y41426904D01*
X55570780Y41427113D01*
X55349440Y41335657D01*
X55179947Y41166460D01*
X55088105Y40945280D01*
X55087896Y40705789D01*
X41457586Y40705789D01*
X41529101Y40810453D01*
X41559385Y40960000D01*
X41559385Y41283000D01*
X51964903Y41283000D01*
X52040188Y41207584D01*
X52279738Y41108114D01*
X52539120Y41107887D01*
X52778844Y41206939D01*
X52962414Y41390190D01*
X53061884Y41629740D01*
X53061916Y41666628D01*
X54608289Y43213000D01*
X57054818Y43213000D01*
X57080190Y43187584D01*
X57319740Y43088114D01*
X57579122Y43087887D01*
X57818846Y43186939D01*
X58002416Y43370190D01*
X58101886Y43609740D01*
X58102113Y43869122D01*
X58003061Y44108846D01*
X57819810Y44292416D01*
X57580260Y44391886D01*
X57320878Y44392113D01*
X57081154Y44293061D01*
X57055048Y44267000D01*
X54389998Y44267000D01*
X54188324Y44226885D01*
X54017353Y44112646D01*
X52316790Y42412082D01*
X52280876Y42412113D01*
X52099089Y42337000D01*
X41559385Y42337000D01*
X41559385Y42660000D01*
X41533097Y42799708D01*
X41450530Y42928020D01*
X41324547Y43014101D01*
X41175000Y43044385D01*
X39475000Y43044385D01*
X39335292Y43018097D01*
X39206980Y42935530D01*
X39120899Y42809547D01*
X39090615Y42660000D01*
X427000Y42660000D01*
X427000Y47889954D01*
X40010736Y47889954D01*
X40102192Y47668614D01*
X40271389Y47499121D01*
X40492569Y47407279D01*
X40504810Y47407268D01*
X41637044Y46275035D01*
X41637046Y46275032D01*
X41799907Y46166212D01*
X41992014Y46127999D01*
X41992019Y46128000D01*
X42272066Y46128000D01*
X44707908Y43692159D01*
X44707898Y43680780D01*
X44799354Y43459440D01*
X44968551Y43289947D01*
X45189731Y43198105D01*
X45429222Y43197896D01*
X45650562Y43289352D01*
X45820055Y43458549D01*
X45911897Y43679729D01*
X45912106Y43919220D01*
X45820650Y44140560D01*
X45651453Y44310053D01*
X45430273Y44401895D01*
X45418031Y44401906D01*
X42834970Y46984968D01*
X42672109Y47093788D01*
X42480002Y47132001D01*
X42479997Y47132000D01*
X42199949Y47132000D01*
X41214934Y48117016D01*
X41214944Y48128394D01*
X41123488Y48349734D01*
X40954291Y48519227D01*
X40733111Y48611069D01*
X40493620Y48611278D01*
X40272280Y48519822D01*
X40102787Y48350625D01*
X40010945Y48129445D01*
X40010736Y47889954D01*
X427000Y47889954D01*
X427000Y50884038D01*
X9223000Y50884038D01*
X9223000Y50835962D01*
X9316400Y50366409D01*
X9582380Y49968342D01*
X9980447Y49702362D01*
X10450000Y49608962D01*
X10919553Y49702362D01*
X11317620Y49968342D01*
X11583600Y50366409D01*
X11677000Y50835962D01*
X11677000Y50884038D01*
X11763000Y50884038D01*
X11763000Y50835962D01*
X11856400Y50366409D01*
X12122380Y49968342D01*
X12520447Y49702362D01*
X12990000Y49608962D01*
X13459553Y49702362D01*
X13857620Y49968342D01*
X14123600Y50366409D01*
X14217000Y50835962D01*
X14217000Y50884038D01*
X14303000Y50884038D01*
X14303000Y50835962D01*
X14396400Y50366409D01*
X14662380Y49968342D01*
X15060447Y49702362D01*
X15530000Y49608962D01*
X15999553Y49702362D01*
X16397620Y49968342D01*
X16663600Y50366409D01*
X16757000Y50835962D01*
X16757000Y50884038D01*
X16843000Y50884038D01*
X16843000Y50835962D01*
X16936400Y50366409D01*
X17202380Y49968342D01*
X17600447Y49702362D01*
X18070000Y49608962D01*
X18539553Y49702362D01*
X18937620Y49968342D01*
X19203600Y50366409D01*
X19297000Y50835962D01*
X19297000Y50884038D01*
X19383000Y50884038D01*
X19383000Y50835962D01*
X19476400Y50366409D01*
X19742380Y49968342D01*
X20140447Y49702362D01*
X20610000Y49608962D01*
X21079553Y49702362D01*
X21477620Y49968342D01*
X21743600Y50366409D01*
X21837000Y50835962D01*
X21837000Y50884038D01*
X21743600Y51353591D01*
X21505455Y51710000D01*
X21915615Y51710000D01*
X21915615Y50010000D01*
X21941903Y49870292D01*
X22024470Y49741980D01*
X22150453Y49655899D01*
X22300000Y49625615D01*
X24000000Y49625615D01*
X24139708Y49651903D01*
X24268020Y49734470D01*
X24354101Y49860453D01*
X24384385Y50010000D01*
X24384385Y51710000D01*
X24358097Y51849708D01*
X24275530Y51978020D01*
X24149547Y52064101D01*
X24000000Y52094385D01*
X23677000Y52094385D01*
X23677000Y59761220D01*
X46132415Y59761220D01*
X46645450Y58519582D01*
X47594586Y57568788D01*
X48835326Y57053588D01*
X50178780Y57052415D01*
X51420418Y57565450D01*
X52371212Y58514586D01*
X52886412Y59755326D01*
X52887585Y61098780D01*
X52374550Y62340418D01*
X51425414Y63291212D01*
X50184674Y63806412D01*
X48841220Y63807585D01*
X47599582Y63294550D01*
X46648788Y62345414D01*
X46133588Y61104674D01*
X46132415Y59761220D01*
X23677000Y59761220D01*
X23677000Y59969998D01*
X23661942Y60045702D01*
X23662111Y60239122D01*
X23563059Y60478846D01*
X23379808Y60662416D01*
X23140258Y60761886D01*
X22880876Y60762113D01*
X22641152Y60663061D01*
X22457582Y60479810D01*
X22358112Y60240260D01*
X22357885Y59980878D01*
X22456937Y59741154D01*
X22623000Y59574802D01*
X22623000Y52094385D01*
X22300000Y52094385D01*
X22160292Y52068097D01*
X22031980Y51985530D01*
X21945899Y51859547D01*
X21915615Y51710000D01*
X21505455Y51710000D01*
X21477620Y51751658D01*
X21079553Y52017638D01*
X20610000Y52111038D01*
X20140447Y52017638D01*
X19742380Y51751658D01*
X19476400Y51353591D01*
X19383000Y50884038D01*
X19297000Y50884038D01*
X19203600Y51353591D01*
X18937620Y51751658D01*
X18539553Y52017638D01*
X18070000Y52111038D01*
X17600447Y52017638D01*
X17202380Y51751658D01*
X16936400Y51353591D01*
X16843000Y50884038D01*
X16757000Y50884038D01*
X16663600Y51353591D01*
X16397620Y51751658D01*
X15999553Y52017638D01*
X15530000Y52111038D01*
X15060447Y52017638D01*
X14662380Y51751658D01*
X14396400Y51353591D01*
X14303000Y50884038D01*
X14217000Y50884038D01*
X14123600Y51353591D01*
X13857620Y51751658D01*
X13459553Y52017638D01*
X12990000Y52111038D01*
X12520447Y52017638D01*
X12122380Y51751658D01*
X11856400Y51353591D01*
X11763000Y50884038D01*
X11677000Y50884038D01*
X11583600Y51353591D01*
X11317620Y51751658D01*
X10919553Y52017638D01*
X10450000Y52111038D01*
X9980447Y52017638D01*
X9582380Y51751658D01*
X9316400Y51353591D01*
X9223000Y50884038D01*
X427000Y50884038D01*
X427000Y57132953D01*
X19379586Y57130887D01*
X19418289Y57136924D01*
X19462302Y57161506D01*
X19493284Y57201275D01*
X19506353Y57249965D01*
X19933231Y64080000D01*
X76715615Y64080000D01*
X76715615Y62380000D01*
X76741903Y62240292D01*
X76824470Y62111980D01*
X76950453Y62025899D01*
X77100000Y61995615D01*
X78500000Y61995615D01*
X78639708Y62021903D01*
X78768020Y62104470D01*
X78854101Y62230453D01*
X78884385Y62380000D01*
X78884385Y62926213D01*
X79222000Y62926213D01*
X79365954Y62510079D01*
X79658198Y62180710D01*
X80039385Y61993833D01*
X80213000Y62067685D01*
X80213000Y63103000D01*
X80467000Y63103000D01*
X80467000Y62067685D01*
X80640615Y61993833D01*
X81021802Y62180710D01*
X81314046Y62510079D01*
X81458000Y62926213D01*
X81361543Y63103000D01*
X80467000Y63103000D01*
X80213000Y63103000D01*
X79318457Y63103000D01*
X79222000Y62926213D01*
X78884385Y62926213D01*
X78884385Y63533787D01*
X79222000Y63533787D01*
X79318457Y63357000D01*
X80213000Y63357000D01*
X80213000Y64392315D01*
X80467000Y64392315D01*
X80467000Y63357000D01*
X81361543Y63357000D01*
X81387207Y63404038D01*
X81803000Y63404038D01*
X81803000Y63055962D01*
X81884982Y62643812D01*
X82118446Y62294408D01*
X82467850Y62060944D01*
X82880000Y61978962D01*
X83292150Y62060944D01*
X83641554Y62294408D01*
X83875018Y62643812D01*
X83957000Y63055962D01*
X83957000Y63404038D01*
X84343000Y63404038D01*
X84343000Y63055962D01*
X84424982Y62643812D01*
X84658446Y62294408D01*
X85007850Y62060944D01*
X85420000Y61978962D01*
X85832150Y62060944D01*
X86181554Y62294408D01*
X86415018Y62643812D01*
X86497000Y63055962D01*
X86497000Y63404038D01*
X86883000Y63404038D01*
X86883000Y63055962D01*
X86964982Y62643812D01*
X87198446Y62294408D01*
X87547850Y62060944D01*
X87960000Y61978962D01*
X88372150Y62060944D01*
X88721554Y62294408D01*
X88955018Y62643812D01*
X89037000Y63055962D01*
X89037000Y63404038D01*
X89423000Y63404038D01*
X89423000Y63055962D01*
X89504982Y62643812D01*
X89738446Y62294408D01*
X90087850Y62060944D01*
X90500000Y61978962D01*
X90912150Y62060944D01*
X91261554Y62294408D01*
X91495018Y62643812D01*
X91577000Y63055962D01*
X91577000Y63404038D01*
X91495018Y63816188D01*
X91261554Y64165592D01*
X90912150Y64399056D01*
X90500000Y64481038D01*
X90087850Y64399056D01*
X89738446Y64165592D01*
X89504982Y63816188D01*
X89423000Y63404038D01*
X89037000Y63404038D01*
X88955018Y63816188D01*
X88721554Y64165592D01*
X88372150Y64399056D01*
X87960000Y64481038D01*
X87547850Y64399056D01*
X87198446Y64165592D01*
X86964982Y63816188D01*
X86883000Y63404038D01*
X86497000Y63404038D01*
X86415018Y63816188D01*
X86181554Y64165592D01*
X85832150Y64399056D01*
X85420000Y64481038D01*
X85007850Y64399056D01*
X84658446Y64165592D01*
X84424982Y63816188D01*
X84343000Y63404038D01*
X83957000Y63404038D01*
X83875018Y63816188D01*
X83641554Y64165592D01*
X83292150Y64399056D01*
X82880000Y64481038D01*
X82467850Y64399056D01*
X82118446Y64165592D01*
X81884982Y63816188D01*
X81803000Y63404038D01*
X81387207Y63404038D01*
X81458000Y63533787D01*
X81314046Y63949921D01*
X81021802Y64279290D01*
X80640615Y64466167D01*
X80467000Y64392315D01*
X80213000Y64392315D01*
X80039385Y64466167D01*
X79658198Y64279290D01*
X79365954Y63949921D01*
X79222000Y63533787D01*
X78884385Y63533787D01*
X78884385Y64080000D01*
X78858097Y64219708D01*
X78775530Y64348020D01*
X78649547Y64434101D01*
X78500000Y64464385D01*
X77100000Y64464385D01*
X76960292Y64438097D01*
X76831980Y64355530D01*
X76745899Y64229547D01*
X76715615Y64080000D01*
X19933231Y64080000D01*
X20200482Y68356000D01*
X76562015Y68356000D01*
X76562015Y66324000D01*
X76588303Y66184292D01*
X76670870Y66055980D01*
X76796853Y65969899D01*
X76946400Y65939615D01*
X78673600Y65939615D01*
X78813308Y65965903D01*
X78941620Y66048470D01*
X79027701Y66174453D01*
X79057985Y66324000D01*
X79057985Y67010598D01*
X79070084Y67010598D01*
X79235248Y66534269D01*
X79570122Y66157404D01*
X80023649Y65938943D01*
X80223000Y66010582D01*
X80223000Y67213000D01*
X80477000Y67213000D01*
X80477000Y66010582D01*
X80676351Y65938943D01*
X81129878Y66157404D01*
X81464752Y66534269D01*
X81629916Y67010598D01*
X81535097Y67213000D01*
X80477000Y67213000D01*
X80223000Y67213000D01*
X79164903Y67213000D01*
X79070084Y67010598D01*
X79057985Y67010598D01*
X79057985Y67669402D01*
X79070084Y67669402D01*
X79164903Y67467000D01*
X80223000Y67467000D01*
X80223000Y68669418D01*
X80477000Y68669418D01*
X80477000Y67467000D01*
X81535097Y67467000D01*
X81559780Y67519690D01*
X81649400Y67519690D01*
X81649400Y67160310D01*
X81743835Y66685553D01*
X82012763Y66283073D01*
X82415243Y66014145D01*
X82890000Y65919710D01*
X83364757Y66014145D01*
X83767237Y66283073D01*
X84036165Y66685553D01*
X84130600Y67160310D01*
X84130600Y67519690D01*
X84189400Y67519690D01*
X84189400Y67160310D01*
X84283835Y66685553D01*
X84552763Y66283073D01*
X84955243Y66014145D01*
X85430000Y65919710D01*
X85904757Y66014145D01*
X86307237Y66283073D01*
X86576165Y66685553D01*
X86670600Y67160310D01*
X86670600Y67519690D01*
X86729400Y67519690D01*
X86729400Y67160310D01*
X86823835Y66685553D01*
X87092763Y66283073D01*
X87495243Y66014145D01*
X87970000Y65919710D01*
X88444757Y66014145D01*
X88847237Y66283073D01*
X89116165Y66685553D01*
X89210600Y67160310D01*
X89210600Y67519690D01*
X89269400Y67519690D01*
X89269400Y67160310D01*
X89363835Y66685553D01*
X89632763Y66283073D01*
X90035243Y66014145D01*
X90510000Y65919710D01*
X90984757Y66014145D01*
X91387237Y66283073D01*
X91656165Y66685553D01*
X91658540Y66697495D01*
X95322744Y66697495D01*
X95547130Y66154440D01*
X95962254Y65738591D01*
X96504918Y65513257D01*
X97092505Y65512744D01*
X97635560Y65737130D01*
X98051409Y66152254D01*
X98276743Y66694918D01*
X98277256Y67282505D01*
X98052870Y67825560D01*
X97637746Y68241409D01*
X97095082Y68466743D01*
X96507495Y68467256D01*
X95964440Y68242870D01*
X95548591Y67827746D01*
X95323257Y67285082D01*
X95322744Y66697495D01*
X91658540Y66697495D01*
X91750600Y67160310D01*
X91750600Y67519690D01*
X91656165Y67994447D01*
X91387237Y68396927D01*
X90984757Y68665855D01*
X90510000Y68760290D01*
X90035243Y68665855D01*
X89632763Y68396927D01*
X89363835Y67994447D01*
X89269400Y67519690D01*
X89210600Y67519690D01*
X89116165Y67994447D01*
X88847237Y68396927D01*
X88444757Y68665855D01*
X87970000Y68760290D01*
X87495243Y68665855D01*
X87092763Y68396927D01*
X86823835Y67994447D01*
X86729400Y67519690D01*
X86670600Y67519690D01*
X86576165Y67994447D01*
X86307237Y68396927D01*
X85904757Y68665855D01*
X85430000Y68760290D01*
X84955243Y68665855D01*
X84552763Y68396927D01*
X84283835Y67994447D01*
X84189400Y67519690D01*
X84130600Y67519690D01*
X84036165Y67994447D01*
X83767237Y68396927D01*
X83364757Y68665855D01*
X82890000Y68760290D01*
X82415243Y68665855D01*
X82012763Y68396927D01*
X81743835Y67994447D01*
X81649400Y67519690D01*
X81559780Y67519690D01*
X81629916Y67669402D01*
X81464752Y68145731D01*
X81129878Y68522596D01*
X80676351Y68741057D01*
X80477000Y68669418D01*
X80223000Y68669418D01*
X80023649Y68741057D01*
X79570122Y68522596D01*
X79235248Y68145731D01*
X79070084Y67669402D01*
X79057985Y67669402D01*
X79057985Y68356000D01*
X79031697Y68495708D01*
X78949130Y68624020D01*
X78823147Y68710101D01*
X78673600Y68740385D01*
X76946400Y68740385D01*
X76806692Y68714097D01*
X76678380Y68631530D01*
X76592299Y68505547D01*
X76562015Y68356000D01*
X20200482Y68356000D01*
X20275920Y69563000D01*
X99223000Y69563000D01*
X99223000Y21417000D01*
X99223000Y21417000D01*
G37*
X99223000Y21417000D02*
X64793777Y21417000D01*
X64794385Y21420000D01*
X64794385Y23120000D01*
X64768097Y23259708D01*
X64685530Y23388020D01*
X64559547Y23474101D01*
X64410000Y23504385D01*
X62710000Y23504385D01*
X62570292Y23478097D01*
X62441980Y23395530D01*
X62355899Y23269547D01*
X62325615Y23120000D01*
X62325615Y21420000D01*
X62326179Y21417000D01*
X62073777Y21417000D01*
X62074385Y21420000D01*
X62074385Y23120000D01*
X62048097Y23259708D01*
X61965530Y23388020D01*
X61839547Y23474101D01*
X61690000Y23504385D01*
X59990000Y23504385D01*
X59850292Y23478097D01*
X59721980Y23395530D01*
X59635899Y23269547D01*
X59605615Y23120000D01*
X59605615Y21420000D01*
X59631903Y21280292D01*
X59709116Y21160301D01*
X59664520Y21095033D01*
X59623000Y20890000D01*
X59623000Y417000D01*
X427000Y417000D01*
X427000Y2697495D01*
X1322744Y2697495D01*
X1547130Y2154440D01*
X1962254Y1738591D01*
X2504918Y1513257D01*
X3092505Y1512744D01*
X3635560Y1737130D01*
X4051409Y2152254D01*
X4276743Y2694918D01*
X4277256Y3282505D01*
X4052870Y3825560D01*
X3637746Y4241409D01*
X3120352Y4456250D01*
X7983000Y4456250D01*
X7983000Y2625064D01*
X8048007Y2468124D01*
X8168124Y2348007D01*
X8325065Y2283000D01*
X9166250Y2283000D01*
X9273000Y2389750D01*
X9273000Y4563000D01*
X9527000Y4563000D01*
X9527000Y2389750D01*
X9633750Y2283000D01*
X10474935Y2283000D01*
X10631876Y2348007D01*
X10751993Y2468124D01*
X10817000Y2625064D01*
X10817000Y4456250D01*
X10710250Y4563000D01*
X9527000Y4563000D01*
X9273000Y4563000D01*
X8089750Y4563000D01*
X7983000Y4456250D01*
X3120352Y4456250D01*
X3095082Y4466743D01*
X2507495Y4467256D01*
X1964440Y4242870D01*
X1548591Y3827746D01*
X1323257Y3285082D01*
X1322744Y2697495D01*
X427000Y2697495D01*
X427000Y7580000D01*
X3515615Y7580000D01*
X3515615Y5880000D01*
X3541903Y5740292D01*
X3624470Y5611980D01*
X3750453Y5525899D01*
X3900000Y5495615D01*
X5600000Y5495615D01*
X5739708Y5521903D01*
X5868020Y5604470D01*
X5954101Y5730453D01*
X5984385Y5880000D01*
X5984385Y6754936D01*
X7983000Y6754936D01*
X7983000Y4923750D01*
X8089750Y4817000D01*
X9273000Y4817000D01*
X9273000Y6990250D01*
X9527000Y6990250D01*
X9527000Y4817000D01*
X10710250Y4817000D01*
X10817000Y4923750D01*
X10817000Y5726176D01*
X13033000Y5726176D01*
X13033000Y3653824D01*
X13137057Y3130696D01*
X13433385Y2687209D01*
X13876872Y2390881D01*
X14400000Y2286824D01*
X14923128Y2390881D01*
X15366615Y2687209D01*
X15662943Y3130696D01*
X15767000Y3653824D01*
X15767000Y4326221D01*
X38662857Y4326221D01*
X38788495Y4022154D01*
X39020930Y3789312D01*
X39324778Y3663144D01*
X39653779Y3662857D01*
X39957846Y3788495D01*
X40190688Y4020930D01*
X40316856Y4324778D01*
X40316857Y4326221D01*
X43062857Y4326221D01*
X43188495Y4022154D01*
X43420930Y3789312D01*
X43724778Y3663144D01*
X44053779Y3662857D01*
X44357846Y3788495D01*
X44590688Y4020930D01*
X44716856Y4324778D01*
X44717143Y4653779D01*
X44591505Y4957846D01*
X44359070Y5190688D01*
X44055222Y5316856D01*
X43726221Y5317143D01*
X43422154Y5191505D01*
X43189312Y4959070D01*
X43063144Y4655222D01*
X43062857Y4326221D01*
X40316857Y4326221D01*
X40317143Y4653779D01*
X40191505Y4957846D01*
X39959070Y5190688D01*
X39655222Y5316856D01*
X39326221Y5317143D01*
X39022154Y5191505D01*
X38789312Y4959070D01*
X38663144Y4655222D01*
X38662857Y4326221D01*
X15767000Y4326221D01*
X15767000Y5726176D01*
X15662943Y6249304D01*
X15366615Y6692791D01*
X14923128Y6989119D01*
X14400000Y7093176D01*
X13876872Y6989119D01*
X13433385Y6692791D01*
X13137057Y6249304D01*
X13033000Y5726176D01*
X10817000Y5726176D01*
X10817000Y6754936D01*
X10751993Y6911876D01*
X10631876Y7031993D01*
X10474935Y7097000D01*
X9633750Y7097000D01*
X9527000Y6990250D01*
X9273000Y6990250D01*
X9166250Y7097000D01*
X8325065Y7097000D01*
X8168124Y7031993D01*
X8048007Y6911876D01*
X7983000Y6754936D01*
X5984385Y6754936D01*
X5984385Y7580000D01*
X5958097Y7719708D01*
X5875530Y7848020D01*
X5749547Y7934101D01*
X5600000Y7964385D01*
X3900000Y7964385D01*
X3760292Y7938097D01*
X3631980Y7855530D01*
X3545899Y7729547D01*
X3515615Y7580000D01*
X427000Y7580000D01*
X427000Y8359800D01*
X3999405Y8359800D01*
X4091088Y8167020D01*
X4570991Y8000347D01*
X5078146Y8030012D01*
X5408912Y8167020D01*
X5500595Y8359800D01*
X4750000Y9110395D01*
X3999405Y8359800D01*
X427000Y8359800D01*
X427000Y9469009D01*
X3460347Y9469009D01*
X3490012Y8961854D01*
X3627020Y8631088D01*
X3819800Y8539405D01*
X4570395Y9290000D01*
X4929605Y9290000D01*
X5680200Y8539405D01*
X5872980Y8631088D01*
X6039653Y9110991D01*
X6009988Y9618146D01*
X5872980Y9948912D01*
X5680200Y10040595D01*
X4929605Y9290000D01*
X4570395Y9290000D01*
X3819800Y10040595D01*
X3627020Y9948912D01*
X3460347Y9469009D01*
X427000Y9469009D01*
X427000Y10220200D01*
X3999405Y10220200D01*
X4750000Y9469605D01*
X5500595Y10220200D01*
X5408912Y10412980D01*
X4929009Y10579653D01*
X4421854Y10549988D01*
X4091088Y10412980D01*
X3999405Y10220200D01*
X427000Y10220200D01*
X427000Y25190000D01*
X10185615Y25190000D01*
X10185615Y23490000D01*
X10211903Y23350292D01*
X10294470Y23221980D01*
X10420453Y23135899D01*
X10570000Y23105615D01*
X10693000Y23105615D01*
X10693000Y22790005D01*
X10692999Y22790000D01*
X10717466Y22667000D01*
X10748340Y22511789D01*
X10873484Y22324497D01*
X10905933Y22275933D01*
X14555931Y18625936D01*
X14555933Y18625933D01*
X14685220Y18539547D01*
X14791790Y18468339D01*
X15070000Y18412999D01*
X15070005Y18413000D01*
X23880273Y18413000D01*
X23875615Y18390000D01*
X23875615Y16690000D01*
X23901903Y16550292D01*
X23984470Y16421980D01*
X24110453Y16335899D01*
X24260000Y16305615D01*
X25960000Y16305615D01*
X26099708Y16331903D01*
X26228020Y16414470D01*
X26314101Y16540453D01*
X26344385Y16690000D01*
X26344385Y18277481D01*
X26545189Y18076677D01*
X26516400Y18033591D01*
X26423000Y17564038D01*
X26423000Y17515962D01*
X26516400Y17046409D01*
X26782380Y16648342D01*
X27180447Y16382362D01*
X27650000Y16288962D01*
X27894902Y16337676D01*
X37941289Y6291289D01*
X38160923Y6144534D01*
X38420000Y6093000D01*
X55309578Y6093000D01*
X56271901Y5130677D01*
X56240732Y5055614D01*
X56240270Y4526706D01*
X56442248Y4037883D01*
X56815916Y3663562D01*
X57304386Y3460732D01*
X57833294Y3460270D01*
X58322117Y3662248D01*
X58696438Y4035916D01*
X58899268Y4524386D01*
X58899730Y5053294D01*
X58697752Y5542117D01*
X58324084Y5916438D01*
X57835614Y6119268D01*
X57306706Y6119730D01*
X57229566Y6087856D01*
X56068711Y7248711D01*
X56066345Y7250292D01*
X55849077Y7395466D01*
X55590000Y7447000D01*
X38700422Y7447000D01*
X32301495Y13845927D01*
X34882883Y13845927D01*
X34985733Y13597011D01*
X35176010Y13406402D01*
X35424746Y13303118D01*
X35694073Y13302883D01*
X35942989Y13405733D01*
X36133598Y13596010D01*
X36234137Y13838135D01*
X36589001Y14193000D01*
X39956288Y14193000D01*
X39047227Y13283939D01*
X38927011Y13234267D01*
X38809998Y13117458D01*
X38733991Y13193598D01*
X38485255Y13296882D01*
X38215928Y13297117D01*
X37967012Y13194267D01*
X37776403Y13003990D01*
X37673119Y12755254D01*
X37672884Y12485927D01*
X37773001Y12243625D01*
X37773001Y10100004D01*
X37773000Y10099999D01*
X37816923Y9879191D01*
X37942000Y9691998D01*
X39601999Y8031999D01*
X39789192Y7906922D01*
X40010000Y7863000D01*
X40514203Y7863000D01*
X40754746Y7763118D01*
X41024073Y7762883D01*
X41272989Y7865733D01*
X41463598Y8056010D01*
X41566882Y8304746D01*
X41567117Y8574073D01*
X41464267Y8822989D01*
X41273990Y9013598D01*
X41025254Y9116882D01*
X40755927Y9117117D01*
X40513625Y9017000D01*
X40249002Y9017000D01*
X38927001Y10339001D01*
X38927001Y12085991D01*
X39174746Y11983118D01*
X39444073Y11982883D01*
X39692989Y12085733D01*
X39883598Y12276010D01*
X39933926Y12397214D01*
X40739712Y13203000D01*
X48554617Y13203000D01*
X48674746Y13153118D01*
X48944073Y13152883D01*
X49192989Y13255733D01*
X49383598Y13446010D01*
X49486882Y13694746D01*
X49487117Y13964073D01*
X49384267Y14212989D01*
X49193990Y14403598D01*
X48945254Y14506882D01*
X48675927Y14507117D01*
X48554635Y14457000D01*
X48043002Y14457000D01*
X48982272Y15396271D01*
X49222989Y15495733D01*
X49413598Y15686010D01*
X49516882Y15934746D01*
X49517117Y16204073D01*
X49414267Y16452989D01*
X49223990Y16643598D01*
X48975254Y16746882D01*
X48705927Y16747117D01*
X48457011Y16644267D01*
X48266402Y16453990D01*
X48165863Y16211864D01*
X47300998Y15347000D01*
X36350005Y15347000D01*
X36350000Y15347001D01*
X36129192Y15303078D01*
X35941999Y15178001D01*
X35941997Y15177998D01*
X35417727Y14653729D01*
X35177011Y14554267D01*
X34986402Y14363990D01*
X34883118Y14115254D01*
X34882883Y13845927D01*
X32301495Y13845927D01*
X29776138Y16371284D01*
X30190000Y16288962D01*
X30659553Y16382362D01*
X31057620Y16648342D01*
X31323600Y17046409D01*
X31417000Y17515962D01*
X31417000Y17564038D01*
X31323600Y18033591D01*
X31057620Y18431658D01*
X30659553Y18697638D01*
X30190000Y18791038D01*
X29720447Y18697638D01*
X29322380Y18431658D01*
X29056400Y18033591D01*
X28963000Y17564038D01*
X28963000Y17515962D01*
X29045322Y17102100D01*
X28836262Y17311160D01*
X28877000Y17515962D01*
X28877000Y17564038D01*
X28783600Y18033591D01*
X28517620Y18431658D01*
X28119553Y18697638D01*
X27945967Y18732167D01*
X27135134Y19543000D01*
X37119578Y19543000D01*
X39321289Y17341288D01*
X39540924Y17194533D01*
X39800000Y17143000D01*
X51139578Y17143000D01*
X56271289Y12011289D01*
X56337581Y11966994D01*
X56432248Y11737883D01*
X56805916Y11363562D01*
X57294386Y11160732D01*
X57823294Y11160270D01*
X58312117Y11362248D01*
X58686438Y11735916D01*
X58889268Y12224386D01*
X58889730Y12753294D01*
X58687752Y13242117D01*
X58314084Y13616438D01*
X57825614Y13819268D01*
X57296706Y13819730D01*
X56807883Y13617752D01*
X56693677Y13503745D01*
X52978771Y17218651D01*
X56928256Y17218651D01*
X57001472Y17041422D01*
X57426888Y16899869D01*
X57874091Y16931889D01*
X58138528Y17041422D01*
X58211744Y17218651D01*
X57570000Y17860395D01*
X56928256Y17218651D01*
X52978771Y17218651D01*
X52014310Y18183112D01*
X56429869Y18183112D01*
X56461889Y17735909D01*
X56571422Y17471472D01*
X56748651Y17398256D01*
X57390395Y18040000D01*
X57749605Y18040000D01*
X58391349Y17398256D01*
X58568578Y17471472D01*
X58710131Y17896888D01*
X58678111Y18344091D01*
X58568578Y18608528D01*
X58391349Y18681744D01*
X57749605Y18040000D01*
X57390395Y18040000D01*
X56748651Y18681744D01*
X56571422Y18608528D01*
X56429869Y18183112D01*
X52014310Y18183112D01*
X51898711Y18298711D01*
X51830795Y18344091D01*
X51679077Y18445466D01*
X51420000Y18497000D01*
X40080423Y18497000D01*
X39716074Y18861349D01*
X56928256Y18861349D01*
X57570000Y18219605D01*
X58211744Y18861349D01*
X58138528Y19038578D01*
X57713112Y19180131D01*
X57265909Y19148111D01*
X57001472Y19038578D01*
X56928256Y18861349D01*
X39716074Y18861349D01*
X37878711Y20698711D01*
X37804436Y20748340D01*
X37659077Y20845466D01*
X37400000Y20897000D01*
X30821121Y20897000D01*
X31047620Y21048342D01*
X31313600Y21446409D01*
X31407000Y21915962D01*
X31407000Y21964038D01*
X31364043Y22180000D01*
X42415615Y22180000D01*
X42415615Y20480000D01*
X42441903Y20340292D01*
X42524470Y20211980D01*
X42650453Y20125899D01*
X42800000Y20095615D01*
X44500000Y20095615D01*
X44639708Y20121903D01*
X44768020Y20204470D01*
X44854101Y20330453D01*
X44884385Y20480000D01*
X44884385Y21354038D01*
X44963000Y21354038D01*
X44963000Y21305962D01*
X45056400Y20836409D01*
X45322380Y20438342D01*
X45720447Y20172362D01*
X46190000Y20078962D01*
X46659553Y20172362D01*
X47057620Y20438342D01*
X47323600Y20836409D01*
X47417000Y21305962D01*
X47417000Y21354038D01*
X47323600Y21823591D01*
X47057620Y22221658D01*
X46659553Y22487638D01*
X46190000Y22581038D01*
X45720447Y22487638D01*
X45322380Y22221658D01*
X45056400Y21823591D01*
X44963000Y21354038D01*
X44884385Y21354038D01*
X44884385Y22180000D01*
X44858097Y22319708D01*
X44775530Y22448020D01*
X44649547Y22534101D01*
X44500000Y22564385D01*
X42800000Y22564385D01*
X42660292Y22538097D01*
X42531980Y22455530D01*
X42445899Y22329547D01*
X42415615Y22180000D01*
X31364043Y22180000D01*
X31313600Y22433591D01*
X31047620Y22831658D01*
X30649553Y23097638D01*
X30180000Y23191038D01*
X29710447Y23097638D01*
X29312380Y22831658D01*
X29046400Y22433591D01*
X28953000Y21964038D01*
X28953000Y21915962D01*
X29046400Y21446409D01*
X29312380Y21048342D01*
X29538879Y20897000D01*
X29210423Y20897000D01*
X28728504Y21378918D01*
X28773600Y21446409D01*
X28867000Y21915962D01*
X28867000Y21964038D01*
X28773600Y22433591D01*
X28507620Y22831658D01*
X28109553Y23097638D01*
X27640000Y23191038D01*
X27170447Y23097638D01*
X26772380Y22831658D01*
X26506400Y22433591D01*
X26413000Y21964038D01*
X26413000Y21915962D01*
X26506400Y21446409D01*
X26559222Y21367355D01*
X26334385Y21142519D01*
X26334385Y22790000D01*
X26308097Y22929708D01*
X26225530Y23058020D01*
X26099547Y23144101D01*
X25950000Y23174385D01*
X24250000Y23174385D01*
X24110292Y23148097D01*
X23981980Y23065530D01*
X23895899Y22939547D01*
X23865615Y22790000D01*
X23865615Y21090000D01*
X23891903Y20950292D01*
X23894021Y20947000D01*
X18291133Y20947000D01*
X17227000Y22011134D01*
X17227000Y23354383D01*
X17367620Y23448342D01*
X17633600Y23846409D01*
X17727000Y24315962D01*
X17727000Y24364038D01*
X17633600Y24833591D01*
X17367620Y25231658D01*
X17177000Y25359026D01*
X17177000Y25542081D01*
X17158892Y25633115D01*
X17125467Y25801157D01*
X16978712Y26020792D01*
X16188332Y26811172D01*
X49327863Y26811172D01*
X49449703Y26516297D01*
X49675112Y26290494D01*
X49969774Y26168140D01*
X50288830Y26167861D01*
X50583705Y26289701D01*
X50647115Y26353000D01*
X65930000Y26353000D01*
X66169943Y26400728D01*
X66373356Y26536644D01*
X67393356Y27556644D01*
X67529273Y27760058D01*
X67577000Y28000000D01*
X67577000Y28059808D01*
X67601886Y28119740D01*
X67602113Y28379122D01*
X67503061Y28618846D01*
X67319810Y28802416D01*
X67080260Y28901886D01*
X66820878Y28902113D01*
X66581154Y28803061D01*
X66397584Y28619810D01*
X66298114Y28380260D01*
X66297987Y28234699D01*
X65670288Y27607000D01*
X61279712Y27607000D01*
X61077000Y27809712D01*
X61077000Y28049808D01*
X61101886Y28109740D01*
X61102113Y28369122D01*
X61003061Y28608846D01*
X60819810Y28792416D01*
X60580260Y28891886D01*
X60320878Y28892113D01*
X60081154Y28793061D01*
X59897584Y28609810D01*
X59798114Y28370260D01*
X59797887Y28110878D01*
X59823000Y28050100D01*
X59823000Y27819712D01*
X59610288Y27607000D01*
X50627324Y27607000D01*
X50584892Y27649506D01*
X50290230Y27771860D01*
X49971174Y27772139D01*
X49676299Y27650299D01*
X49450496Y27424890D01*
X49328142Y27130228D01*
X49327863Y26811172D01*
X16188332Y26811172D01*
X14488626Y28510878D01*
X27477887Y28510878D01*
X27576939Y28271154D01*
X27760190Y28087584D01*
X27999740Y27988114D01*
X28259122Y27987887D01*
X28498846Y28086939D01*
X28682416Y28270190D01*
X28781886Y28509740D01*
X28782113Y28769122D01*
X28683061Y29008846D01*
X28499810Y29192416D01*
X28260260Y29291886D01*
X28000878Y29292113D01*
X27761154Y29193061D01*
X27577584Y29009810D01*
X27478114Y28770260D01*
X27477887Y28510878D01*
X14488626Y28510878D01*
X13910792Y29088711D01*
X13878931Y29110000D01*
X13691158Y29235466D01*
X13432081Y29287000D01*
X11660000Y29287000D01*
X11534868Y29262110D01*
X11530878Y29262113D01*
X11527158Y29260576D01*
X11400923Y29235466D01*
X11294842Y29164585D01*
X11291154Y29163061D01*
X11288305Y29160217D01*
X11181289Y29088711D01*
X11110406Y28982627D01*
X11107584Y28979810D01*
X11106042Y28976096D01*
X11034534Y28869077D01*
X11009643Y28743942D01*
X11008114Y28740260D01*
X11008110Y28736238D01*
X10983000Y28610000D01*
X11007890Y28484868D01*
X11007887Y28480878D01*
X11009424Y28477158D01*
X11034534Y28350923D01*
X11105415Y28244842D01*
X11106939Y28241154D01*
X11109783Y28238305D01*
X11181289Y28131289D01*
X11287373Y28060406D01*
X11290190Y28057584D01*
X11293904Y28056042D01*
X11400923Y27984534D01*
X11526058Y27959643D01*
X11529740Y27958114D01*
X11533762Y27958110D01*
X11660000Y27933000D01*
X13151659Y27933000D01*
X15764632Y25320026D01*
X15632380Y25231658D01*
X15366400Y24833591D01*
X15273000Y24364038D01*
X15273000Y24315962D01*
X15366400Y23846409D01*
X15632380Y23448342D01*
X15773000Y23354383D01*
X15773000Y21710005D01*
X15772999Y21710000D01*
X15812783Y21510000D01*
X15828340Y21431789D01*
X15949190Y21250923D01*
X15985933Y21195933D01*
X17314867Y19867000D01*
X15371133Y19867000D01*
X12147000Y23091134D01*
X12147000Y23105615D01*
X12270000Y23105615D01*
X12409708Y23131903D01*
X12538020Y23214470D01*
X12624101Y23340453D01*
X12654385Y23490000D01*
X12654385Y24015785D01*
X12724831Y24015785D01*
X12942924Y23567786D01*
X13315858Y23237349D01*
X13635787Y23104842D01*
X13833000Y23176662D01*
X13833000Y24213000D01*
X14087000Y24213000D01*
X14087000Y23176662D01*
X14284213Y23104842D01*
X14604142Y23237349D01*
X14977076Y23567786D01*
X15195169Y24015785D01*
X15123930Y24213000D01*
X14087000Y24213000D01*
X13833000Y24213000D01*
X12796070Y24213000D01*
X12724831Y24015785D01*
X12654385Y24015785D01*
X12654385Y24664215D01*
X12724831Y24664215D01*
X12796070Y24467000D01*
X13833000Y24467000D01*
X13833000Y25503338D01*
X14087000Y25503338D01*
X14087000Y24467000D01*
X15123930Y24467000D01*
X15195169Y24664215D01*
X14977076Y25112214D01*
X14604142Y25442651D01*
X14284213Y25575158D01*
X14087000Y25503338D01*
X13833000Y25503338D01*
X13635787Y25575158D01*
X13315858Y25442651D01*
X12942924Y25112214D01*
X12724831Y24664215D01*
X12654385Y24664215D01*
X12654385Y25190000D01*
X12628097Y25329708D01*
X12545530Y25458020D01*
X12419547Y25544101D01*
X12270000Y25574385D01*
X10570000Y25574385D01*
X10430292Y25548097D01*
X10301980Y25465530D01*
X10215899Y25339547D01*
X10185615Y25190000D01*
X427000Y25190000D01*
X427000Y30490780D01*
X13787896Y30490780D01*
X13879352Y30269440D01*
X14048549Y30099947D01*
X14269729Y30008105D01*
X14509220Y30007896D01*
X14730560Y30099352D01*
X14739223Y30108000D01*
X15207065Y30108000D01*
X15300030Y30015035D01*
X15300032Y30015032D01*
X15397660Y29949800D01*
X15462892Y29906212D01*
X15655000Y29868000D01*
X39360096Y29868000D01*
X39167362Y29579553D01*
X39073962Y29110000D01*
X39167362Y28640447D01*
X39433342Y28242380D01*
X39831409Y27976400D01*
X40300962Y27883000D01*
X40349038Y27883000D01*
X40818591Y27976400D01*
X41216658Y28242380D01*
X41482638Y28640447D01*
X41576038Y29110000D01*
X41482638Y29579553D01*
X41216658Y29977620D01*
X41151256Y30021320D01*
X41954968Y30825032D01*
X42063788Y30987893D01*
X42102001Y31180000D01*
X42102000Y31180005D01*
X42102000Y34462064D01*
X45807926Y38167990D01*
X52830510Y38167990D01*
X52838549Y38159937D01*
X53059729Y38068095D01*
X53299220Y38067886D01*
X53520560Y38159342D01*
X53690053Y38328539D01*
X53781895Y38549719D01*
X53781998Y38668000D01*
X54995997Y38668000D01*
X54867584Y38539810D01*
X54768114Y38300260D01*
X54767887Y38040878D01*
X54866939Y37801154D01*
X55050190Y37617584D01*
X55231844Y37542154D01*
X55286996Y37487003D01*
X55286998Y37487000D01*
X56233000Y36540999D01*
X56233000Y35164002D01*
X54041999Y32973001D01*
X54003820Y32915861D01*
X53897584Y32809810D01*
X53889528Y32790408D01*
X49931936Y36748000D01*
X54062064Y36748000D01*
X54967906Y35842158D01*
X54967896Y35830780D01*
X55059352Y35609440D01*
X55228549Y35439947D01*
X55449729Y35348105D01*
X55689220Y35347896D01*
X55910560Y35439352D01*
X56080053Y35608549D01*
X56171895Y35829729D01*
X56172104Y36069220D01*
X56080648Y36290560D01*
X55911451Y36460053D01*
X55690271Y36551895D01*
X55678030Y36551906D01*
X54624968Y37604968D01*
X54462107Y37713788D01*
X54270000Y37752001D01*
X54269995Y37752000D01*
X46279490Y37752000D01*
X46271451Y37760053D01*
X46050271Y37851895D01*
X45810780Y37852104D01*
X45589440Y37760648D01*
X45419947Y37591451D01*
X45328105Y37370271D01*
X45328055Y37313086D01*
X45167181Y37246614D01*
X44997688Y37077417D01*
X44905846Y36856237D01*
X44905637Y36616746D01*
X44997093Y36395406D01*
X45166290Y36225913D01*
X45387470Y36134071D01*
X45626961Y36133862D01*
X45848301Y36225318D01*
X45856964Y36233966D01*
X49026098Y36233966D01*
X53805032Y31455032D01*
X53967893Y31346212D01*
X54160000Y31307999D01*
X54160005Y31308000D01*
X54879995Y31308000D01*
X54880000Y31307999D01*
X55072107Y31346212D01*
X55234968Y31455032D01*
X55617842Y31837906D01*
X55629220Y31837896D01*
X55850560Y31929352D01*
X56020053Y32098549D01*
X56111895Y32319729D01*
X56112104Y32559220D01*
X56020648Y32780560D01*
X55851451Y32950053D01*
X55709852Y33008850D01*
X57218001Y34516999D01*
X57343078Y34704192D01*
X57387001Y34925000D01*
X57387000Y34925005D01*
X57387000Y36779995D01*
X57387001Y36780000D01*
X57343078Y37000808D01*
X57316891Y37040000D01*
X57218001Y37188001D01*
X57217998Y37188003D01*
X56103000Y38303002D01*
X56102997Y38303004D01*
X56047633Y38358368D01*
X55973061Y38538846D01*
X55844131Y38668000D01*
X58692064Y38668000D01*
X59175030Y38185035D01*
X59175032Y38185032D01*
X59273198Y38119440D01*
X59337893Y38076212D01*
X59530000Y38037999D01*
X59530005Y38038000D01*
X66740510Y38038000D01*
X66748549Y38029947D01*
X66969729Y37938105D01*
X67209220Y37937896D01*
X67430560Y38029352D01*
X67600053Y38198549D01*
X67691895Y38419729D01*
X67692104Y38659220D01*
X67600648Y38880560D01*
X67431451Y39050053D01*
X67210271Y39141895D01*
X66970780Y39142104D01*
X66749440Y39050648D01*
X66740777Y39042000D01*
X64961936Y39042000D01*
X66057841Y40137906D01*
X66069220Y40137896D01*
X66290560Y40229352D01*
X66460053Y40398549D01*
X66551895Y40619729D01*
X66552104Y40859220D01*
X66460648Y41080560D01*
X66291451Y41250053D01*
X66070271Y41341895D01*
X65830780Y41342104D01*
X65609440Y41250648D01*
X65439947Y41081451D01*
X65348105Y40860271D01*
X65348094Y40848029D01*
X64172064Y39672000D01*
X59807935Y39672000D01*
X59474968Y40004968D01*
X59312107Y40113788D01*
X59120000Y40152001D01*
X59119995Y40152000D01*
X41195137Y40152000D01*
X40818591Y40403600D01*
X40349038Y40497000D01*
X40300962Y40497000D01*
X39831409Y40403600D01*
X39433342Y40137620D01*
X39167362Y39739553D01*
X39073962Y39270000D01*
X39167362Y38800447D01*
X39433342Y38402380D01*
X39831409Y38136400D01*
X40300962Y38043000D01*
X40349038Y38043000D01*
X40818591Y38136400D01*
X41216658Y38402380D01*
X41482638Y38800447D01*
X41551771Y39148000D01*
X44573065Y39148000D01*
X40760266Y35335202D01*
X40349038Y35417000D01*
X40300962Y35417000D01*
X39831409Y35323600D01*
X39433342Y35057620D01*
X39167362Y34659553D01*
X39073962Y34190000D01*
X39167362Y33720447D01*
X39433342Y33322380D01*
X39831409Y33056400D01*
X40300962Y32963000D01*
X40349038Y32963000D01*
X40818591Y33056400D01*
X41098000Y33243095D01*
X41098000Y32596905D01*
X40818591Y32783600D01*
X40349038Y32877000D01*
X40300962Y32877000D01*
X39831409Y32783600D01*
X39433342Y32517620D01*
X39167362Y32119553D01*
X39073962Y31650000D01*
X39167362Y31180447D01*
X39373460Y30872000D01*
X15862936Y30872000D01*
X15769968Y30964968D01*
X15607107Y31073788D01*
X15415000Y31112001D01*
X15414995Y31112000D01*
X14739490Y31112000D01*
X14731451Y31120053D01*
X14510271Y31211895D01*
X14270780Y31212104D01*
X14049440Y31120648D01*
X13879947Y30951451D01*
X13788105Y30730271D01*
X13787896Y30490780D01*
X427000Y30490780D01*
X427000Y36405787D01*
X39089842Y36405787D01*
X39222349Y36085858D01*
X39552786Y35712924D01*
X40000785Y35494831D01*
X40198000Y35566070D01*
X40198000Y36603000D01*
X40452000Y36603000D01*
X40452000Y35566070D01*
X40649215Y35494831D01*
X41097214Y35712924D01*
X41427651Y36085858D01*
X41560158Y36405787D01*
X41488338Y36603000D01*
X40452000Y36603000D01*
X40198000Y36603000D01*
X39161662Y36603000D01*
X39089842Y36405787D01*
X427000Y36405787D01*
X427000Y37054213D01*
X39089842Y37054213D01*
X39161662Y36857000D01*
X40198000Y36857000D01*
X40198000Y37893930D01*
X40452000Y37893930D01*
X40452000Y36857000D01*
X41488338Y36857000D01*
X41560158Y37054213D01*
X41427651Y37374142D01*
X41097214Y37747076D01*
X40649215Y37965169D01*
X40452000Y37893930D01*
X40198000Y37893930D01*
X40000785Y37965169D01*
X39552786Y37747076D01*
X39222349Y37374142D01*
X39089842Y37054213D01*
X427000Y37054213D01*
X427000Y42660000D01*
X39090615Y42660000D01*
X39090615Y40960000D01*
X39116903Y40820292D01*
X39199470Y40691980D01*
X39325453Y40605899D01*
X39475000Y40575615D01*
X41175000Y40575615D01*
X41314708Y40601903D01*
X41443020Y40684470D01*
X41457586Y40705789D01*
X55087896Y40705789D01*
X55179352Y40484449D01*
X55348549Y40314956D01*
X55569729Y40223114D01*
X55809220Y40222905D01*
X56030560Y40314361D01*
X56064258Y40348000D01*
X62610510Y40348000D01*
X62618549Y40339947D01*
X62839729Y40248105D01*
X63079220Y40247896D01*
X63300560Y40339352D01*
X63470053Y40508549D01*
X63508096Y40600167D01*
X63507896Y40370780D01*
X63599352Y40149440D01*
X63768549Y39979947D01*
X63989729Y39888105D01*
X64229220Y39887896D01*
X64450560Y39979352D01*
X64620053Y40148549D01*
X64711895Y40369729D01*
X64711906Y40381970D01*
X66327935Y41998000D01*
X67479991Y41998000D01*
X67479996Y41997999D01*
X67672103Y42036212D01*
X67834964Y42145032D01*
X68726321Y43036390D01*
X68897604Y42864808D01*
X68897887Y42864690D01*
X68923000Y42839578D01*
X68923000Y40540017D01*
X68922883Y40405927D01*
X69025733Y40157011D01*
X69216010Y39966402D01*
X69464746Y39863118D01*
X69734073Y39862883D01*
X69982989Y39965733D01*
X70173598Y40156010D01*
X70276882Y40404746D01*
X70277117Y40674073D01*
X70277000Y40674356D01*
X70277000Y43120000D01*
X70225466Y43379077D01*
X70128706Y43523889D01*
X70078711Y43598712D01*
X70060307Y43617115D01*
X70060305Y43617118D01*
X69760722Y43916700D01*
X69683744Y43993812D01*
X71168002Y45478071D01*
X71168002Y44539370D01*
X71089947Y44461451D01*
X70998105Y44240271D01*
X70997896Y44000780D01*
X71089352Y43779440D01*
X71258549Y43609947D01*
X71479729Y43518105D01*
X71719220Y43517896D01*
X71940560Y43609352D01*
X72110053Y43778549D01*
X72201895Y43999729D01*
X72202104Y44239220D01*
X72172002Y44312072D01*
X72172002Y45570510D01*
X72180055Y45578549D01*
X72265570Y45784492D01*
X72568000Y45482063D01*
X72568000Y40617935D01*
X69492064Y37542000D01*
X67499500Y37542000D01*
X67491461Y37550053D01*
X67270281Y37641895D01*
X67030790Y37642104D01*
X66809450Y37550648D01*
X66639957Y37381451D01*
X66548115Y37160271D01*
X66547906Y36920780D01*
X66639362Y36699440D01*
X66756597Y36582000D01*
X60329488Y36582000D01*
X60321449Y36590053D01*
X60100269Y36681895D01*
X60021949Y36681963D01*
X60022104Y36859220D01*
X59930648Y37080560D01*
X59761451Y37250053D01*
X59540271Y37341895D01*
X59300780Y37342104D01*
X59079440Y37250648D01*
X58909947Y37081451D01*
X58818105Y36860271D01*
X58817896Y36620780D01*
X58909352Y36399440D01*
X58928000Y36380759D01*
X58928000Y34017935D01*
X57952064Y33042000D01*
X57539490Y33042000D01*
X57531451Y33050053D01*
X57310271Y33141895D01*
X57070780Y33142104D01*
X56849440Y33050648D01*
X56679947Y32881451D01*
X56588105Y32660271D01*
X56587896Y32420780D01*
X56679352Y32199440D01*
X56848549Y32029947D01*
X57069729Y31938105D01*
X57309220Y31937896D01*
X57530560Y32029352D01*
X57539223Y32038000D01*
X58159995Y32038000D01*
X58160000Y32037999D01*
X58352107Y32076212D01*
X58514968Y32185032D01*
X59784965Y33455030D01*
X59784968Y33455032D01*
X59853697Y33557893D01*
X59893788Y33617892D01*
X59932000Y33810000D01*
X59932000Y35478042D01*
X60099218Y35477896D01*
X60320558Y35569352D01*
X60329221Y35578000D01*
X68220570Y35578000D01*
X68268549Y35529937D01*
X68489729Y35438095D01*
X68729220Y35437886D01*
X68950560Y35529342D01*
X69120053Y35698539D01*
X69211895Y35919719D01*
X69212104Y36159210D01*
X69120648Y36380550D01*
X68963473Y36538000D01*
X69407998Y36538000D01*
X69407896Y36420782D01*
X69499352Y36199442D01*
X69668549Y36029949D01*
X69889729Y35938107D01*
X70129220Y35937898D01*
X70350560Y36029354D01*
X70520053Y36198551D01*
X70611895Y36419731D01*
X70611906Y36431972D01*
X74004965Y39825032D01*
X74004968Y39825034D01*
X74113788Y39987895D01*
X74121410Y40026212D01*
X74152001Y40180002D01*
X74152000Y40180007D01*
X74152000Y46209997D01*
X74152001Y46210002D01*
X74113788Y46402109D01*
X74094719Y46430648D01*
X74004968Y46564970D01*
X74004965Y46564972D01*
X73402096Y47167842D01*
X73402106Y47179220D01*
X73310650Y47400560D01*
X73200667Y47510736D01*
X73347933Y47658002D01*
X73822062Y47658002D01*
X79670064Y41810000D01*
X71912064Y34052000D01*
X69229490Y34052000D01*
X69221451Y34060053D01*
X69000271Y34151895D01*
X68760780Y34152104D01*
X68539440Y34060648D01*
X68369947Y33891451D01*
X68278105Y33670271D01*
X68277896Y33430780D01*
X68369352Y33209440D01*
X68538549Y33039947D01*
X68759729Y32948105D01*
X68999220Y32947896D01*
X69220560Y33039352D01*
X69229223Y33048000D01*
X71678064Y33048000D01*
X70072064Y31442000D01*
X64809490Y31442000D01*
X64801451Y31450053D01*
X64580271Y31541895D01*
X64340780Y31542104D01*
X64119440Y31450648D01*
X63949947Y31281451D01*
X63858105Y31060271D01*
X63857896Y30820780D01*
X63949352Y30599440D01*
X64118549Y30429947D01*
X64339729Y30338105D01*
X64579220Y30337896D01*
X64800560Y30429352D01*
X64809223Y30438000D01*
X70279995Y30438000D01*
X70280000Y30437999D01*
X70472107Y30476212D01*
X70634968Y30585032D01*
X74677935Y34628000D01*
X81428065Y34628000D01*
X80905032Y34104968D01*
X80796212Y33942107D01*
X80757999Y33750000D01*
X80758000Y33749995D01*
X80758000Y26668856D01*
X80630269Y26721895D01*
X80390778Y26722104D01*
X80209013Y26647000D01*
X79798290Y26647000D01*
X75741994Y30703296D01*
X75742113Y30839122D01*
X75643061Y31078846D01*
X75459810Y31262416D01*
X75220260Y31361886D01*
X74960878Y31362113D01*
X74721154Y31263061D01*
X74537584Y31079810D01*
X74438114Y30840260D01*
X74437887Y30580878D01*
X74536939Y30341154D01*
X74720190Y30157584D01*
X74851758Y30102952D01*
X79207355Y25747355D01*
X79378325Y25633115D01*
X79580000Y25593000D01*
X80209360Y25593000D01*
X80389727Y25518105D01*
X80629218Y25517896D01*
X80758000Y25571108D01*
X80758000Y23787932D01*
X80442162Y23472094D01*
X80430784Y23472104D01*
X80209444Y23380648D01*
X80185755Y23357000D01*
X75485182Y23357000D01*
X75459810Y23382416D01*
X75220260Y23481886D01*
X74960878Y23482113D01*
X74721154Y23383061D01*
X74537584Y23199810D01*
X74438114Y22960260D01*
X74437887Y22700878D01*
X74536939Y22461154D01*
X74720190Y22277584D01*
X74959740Y22178114D01*
X75219122Y22177887D01*
X75458846Y22276939D01*
X75484952Y22303000D01*
X80345697Y22303000D01*
X80429733Y22268105D01*
X80669224Y22267896D01*
X80890564Y22359352D01*
X81060057Y22528549D01*
X81151899Y22749729D01*
X81151910Y22761970D01*
X81362157Y22972217D01*
X85516029Y22972217D01*
X85533023Y22891243D01*
X85801156Y22400761D01*
X86236578Y22050225D01*
X86773000Y21893000D01*
X87073000Y21893000D01*
X87073000Y23193000D01*
X87327000Y23193000D01*
X87327000Y21893000D01*
X87627000Y21893000D01*
X88163422Y22050225D01*
X88598844Y22400761D01*
X88866977Y22891243D01*
X88883971Y22972217D01*
X88814127Y23193000D01*
X87327000Y23193000D01*
X87073000Y23193000D01*
X85585873Y23193000D01*
X85516029Y22972217D01*
X81362157Y22972217D01*
X81614968Y23225028D01*
X81723788Y23387889D01*
X81762001Y23579996D01*
X81762000Y23580001D01*
X81762000Y28400000D01*
X85490146Y28400000D01*
X85594964Y27873045D01*
X85893460Y27426314D01*
X86336925Y27130000D01*
X85893460Y26833686D01*
X85594964Y26386955D01*
X85490146Y25860000D01*
X85594964Y25333045D01*
X85893460Y24886314D01*
X86306563Y24610288D01*
X86236578Y24589775D01*
X85801156Y24239239D01*
X85533023Y23748757D01*
X85516029Y23667783D01*
X85585873Y23447000D01*
X87073000Y23447000D01*
X87073000Y23467000D01*
X87327000Y23467000D01*
X87327000Y23447000D01*
X88814127Y23447000D01*
X88883971Y23667783D01*
X88866977Y23748757D01*
X88598844Y24239239D01*
X88163422Y24589775D01*
X88093437Y24610288D01*
X88506540Y24886314D01*
X88805036Y25333045D01*
X88909854Y25860000D01*
X88805036Y26386955D01*
X88506540Y26833686D01*
X88063075Y27130000D01*
X88506540Y27426314D01*
X88805036Y27873045D01*
X88909854Y28400000D01*
X88805036Y28926955D01*
X88506540Y29373686D01*
X88234264Y29555615D01*
X88500000Y29555615D01*
X88639708Y29581903D01*
X88768020Y29664470D01*
X88854101Y29790453D01*
X88884385Y29940000D01*
X88884385Y31940000D01*
X88858097Y32079708D01*
X88775530Y32208020D01*
X88649547Y32294101D01*
X88500000Y32324385D01*
X85900000Y32324385D01*
X85760292Y32298097D01*
X85631980Y32215530D01*
X85545899Y32089547D01*
X85515615Y31940000D01*
X85515615Y29940000D01*
X85541903Y29800292D01*
X85624470Y29671980D01*
X85750453Y29585899D01*
X85900000Y29555615D01*
X86165736Y29555615D01*
X85893460Y29373686D01*
X85594964Y28926955D01*
X85490146Y28400000D01*
X81762000Y28400000D01*
X81762000Y32340000D01*
X93093000Y32340000D01*
X93093000Y21930000D01*
X93125503Y21766594D01*
X93218065Y21628065D01*
X93356594Y21535503D01*
X93520000Y21503000D01*
X96599980Y21503000D01*
X96600000Y21502996D01*
X96763406Y21535499D01*
X96901935Y21628061D01*
X96994497Y21766590D01*
X97027000Y21929996D01*
X97027000Y32340000D01*
X96994497Y32503406D01*
X96901935Y32641935D01*
X96763406Y32734497D01*
X96600000Y32767000D01*
X93520000Y32767000D01*
X93356594Y32734497D01*
X93218065Y32641935D01*
X93125503Y32503406D01*
X93093000Y32340000D01*
X81762000Y32340000D01*
X81762000Y33356542D01*
X81788549Y33329947D01*
X82009729Y33238105D01*
X82249220Y33237896D01*
X82470560Y33329352D01*
X82479223Y33338000D01*
X83832064Y33338000D01*
X84365030Y32805035D01*
X84365032Y32805032D01*
X84462660Y32739800D01*
X84527892Y32696212D01*
X84720000Y32658000D01*
X86230510Y32658000D01*
X86238549Y32649947D01*
X86459729Y32558105D01*
X86699220Y32557896D01*
X86920560Y32649352D01*
X87090053Y32818549D01*
X87181895Y33039729D01*
X87182038Y33203764D01*
X87328865Y33232970D01*
X87491726Y33341790D01*
X92007841Y37857906D01*
X92019220Y37857896D01*
X92240560Y37949352D01*
X92249223Y37958000D01*
X95499995Y37958000D01*
X95500000Y37957999D01*
X95692107Y37996212D01*
X95854968Y38105032D01*
X96037885Y38287949D01*
X96109122Y38287887D01*
X96348846Y38386939D01*
X96532416Y38570190D01*
X96631886Y38809740D01*
X96631918Y38846628D01*
X96892645Y39107355D01*
X97006885Y39278325D01*
X97047000Y39480000D01*
X97047000Y46210000D01*
X97034077Y46274968D01*
X97006885Y46411675D01*
X96892645Y46582645D01*
X93432645Y50042645D01*
X93261675Y50156885D01*
X93060000Y50197000D01*
X89205182Y50197000D01*
X89179810Y50222416D01*
X88940260Y50321886D01*
X88903372Y50321918D01*
X88487000Y50738290D01*
X88487000Y52180747D01*
X88827620Y52408342D01*
X89093600Y52806409D01*
X89187000Y53275962D01*
X89187000Y53324038D01*
X89093600Y53793591D01*
X88827620Y54191658D01*
X88429553Y54457638D01*
X87960000Y54551038D01*
X87494352Y54458415D01*
X87481675Y54466885D01*
X87280000Y54507000D01*
X76722996Y54507000D01*
X76521321Y54466885D01*
X76350351Y54352645D01*
X66364727Y44367021D01*
X66282313Y44367021D01*
X66360560Y44399352D01*
X66530053Y44568549D01*
X66605474Y44750183D01*
X66617645Y44762354D01*
X66617647Y44762357D01*
X76453292Y54598002D01*
X89606708Y54598002D01*
X89670325Y54534385D01*
X89650000Y54534385D01*
X89510292Y54508097D01*
X89381980Y54425530D01*
X89295899Y54299547D01*
X89265615Y54150000D01*
X89265615Y52450000D01*
X89291903Y52310292D01*
X89374470Y52181980D01*
X89500453Y52095899D01*
X89650000Y52065615D01*
X91350000Y52065615D01*
X91489708Y52091903D01*
X91618020Y52174470D01*
X91704101Y52300453D01*
X91734385Y52450000D01*
X91734385Y54150000D01*
X91708097Y54289708D01*
X91625530Y54418020D01*
X91499547Y54504101D01*
X91350000Y54534385D01*
X91010215Y54534385D01*
X90986885Y54651674D01*
X90986885Y54651675D01*
X90872645Y54822645D01*
X90197643Y55497647D01*
X90026673Y55611887D01*
X89824998Y55652002D01*
X76235002Y55652002D01*
X76033328Y55611887D01*
X75862357Y55497647D01*
X70537970Y50173260D01*
X70381451Y50330053D01*
X70160271Y50421895D01*
X70148029Y50421906D01*
X69341998Y51227938D01*
X69341998Y57932062D01*
X71245550Y59835615D01*
X72830000Y59835615D01*
X72969708Y59861903D01*
X73098020Y59944470D01*
X73184101Y60070453D01*
X73214385Y60220000D01*
X73214385Y61920000D01*
X73188097Y62059708D01*
X73105530Y62188020D01*
X72979547Y62274101D01*
X72830000Y62304385D01*
X71130000Y62304385D01*
X70990292Y62278097D01*
X70861980Y62195530D01*
X70775899Y62069547D01*
X70745615Y61920000D01*
X70745615Y60755550D01*
X70575369Y60585305D01*
X70667000Y61045962D01*
X70667000Y61094038D01*
X70573600Y61563591D01*
X70307620Y61961658D01*
X69909553Y62227638D01*
X69440000Y62321038D01*
X68970447Y62227638D01*
X68572380Y61961658D01*
X68306400Y61563591D01*
X68213000Y61094038D01*
X68213000Y61045962D01*
X68294798Y60634734D01*
X67815325Y60155261D01*
X67824385Y60200000D01*
X67824385Y61900000D01*
X67798097Y62039708D01*
X67715530Y62168020D01*
X67589547Y62254101D01*
X67440000Y62284385D01*
X65740000Y62284385D01*
X65600292Y62258097D01*
X65471980Y62175530D01*
X65385899Y62049547D01*
X65355615Y61900000D01*
X65355615Y60200000D01*
X65381903Y60060292D01*
X65464470Y59931980D01*
X65590453Y59845899D01*
X65740000Y59815615D01*
X65867998Y59815615D01*
X65867998Y51185002D01*
X65908113Y50983327D01*
X66022353Y50812357D01*
X68252355Y48582354D01*
X68276234Y48566399D01*
X68349352Y48389440D01*
X68518549Y48219947D01*
X68565261Y48200551D01*
X65872357Y45507647D01*
X65872354Y45507645D01*
X65859937Y45495228D01*
X65719015Y45437000D01*
X60930917Y45437000D01*
X60729243Y45396885D01*
X60729241Y45396884D01*
X60729242Y45396884D01*
X60558271Y45282645D01*
X59107355Y43831728D01*
X58993115Y43660758D01*
X58961032Y43499461D01*
X58953000Y43459083D01*
X58953000Y42820638D01*
X58878105Y42640271D01*
X58877896Y42400780D01*
X58969352Y42179440D01*
X59138549Y42009947D01*
X59359729Y41918105D01*
X59599220Y41917896D01*
X59805422Y42003097D01*
X59818549Y41989947D01*
X60039729Y41898105D01*
X60279220Y41897896D01*
X60500560Y41989352D01*
X60670053Y42158549D01*
X60761895Y42379729D01*
X60762104Y42619220D01*
X60687000Y42800985D01*
X60687000Y42818714D01*
X61181308Y43313021D01*
X62382050Y43313021D01*
X62355032Y43294968D01*
X62355030Y43294965D01*
X61852158Y42792094D01*
X61840780Y42792104D01*
X61619440Y42700648D01*
X61449947Y42531451D01*
X61358105Y42310271D01*
X61357896Y42070780D01*
X61449352Y41849440D01*
X61618549Y41679947D01*
X61839729Y41588105D01*
X62079220Y41587896D01*
X62300560Y41679352D01*
X62470053Y41848549D01*
X62561895Y42069729D01*
X62561906Y42081970D01*
X62917935Y42438000D01*
X65348065Y42438000D01*
X64002158Y41092094D01*
X63990780Y41092104D01*
X63769440Y41000648D01*
X63599947Y40831451D01*
X63561904Y40739833D01*
X63562104Y40969220D01*
X63470648Y41190560D01*
X63301451Y41360053D01*
X63080271Y41451895D01*
X62840780Y41452104D01*
X62619440Y41360648D01*
X62610777Y41352000D01*
X55990660Y41352000D01*
X55810271Y41426904D01*
X55570780Y41427113D01*
X55349440Y41335657D01*
X55179947Y41166460D01*
X55088105Y40945280D01*
X55087896Y40705789D01*
X41457586Y40705789D01*
X41529101Y40810453D01*
X41559385Y40960000D01*
X41559385Y41283000D01*
X51964903Y41283000D01*
X52040188Y41207584D01*
X52279738Y41108114D01*
X52539120Y41107887D01*
X52778844Y41206939D01*
X52962414Y41390190D01*
X53061884Y41629740D01*
X53061916Y41666628D01*
X54608289Y43213000D01*
X57054818Y43213000D01*
X57080190Y43187584D01*
X57319740Y43088114D01*
X57579122Y43087887D01*
X57818846Y43186939D01*
X58002416Y43370190D01*
X58101886Y43609740D01*
X58102113Y43869122D01*
X58003061Y44108846D01*
X57819810Y44292416D01*
X57580260Y44391886D01*
X57320878Y44392113D01*
X57081154Y44293061D01*
X57055048Y44267000D01*
X54389998Y44267000D01*
X54188324Y44226885D01*
X54017353Y44112646D01*
X52316790Y42412082D01*
X52280876Y42412113D01*
X52099089Y42337000D01*
X41559385Y42337000D01*
X41559385Y42660000D01*
X41533097Y42799708D01*
X41450530Y42928020D01*
X41324547Y43014101D01*
X41175000Y43044385D01*
X39475000Y43044385D01*
X39335292Y43018097D01*
X39206980Y42935530D01*
X39120899Y42809547D01*
X39090615Y42660000D01*
X427000Y42660000D01*
X427000Y47889954D01*
X40010736Y47889954D01*
X40102192Y47668614D01*
X40271389Y47499121D01*
X40492569Y47407279D01*
X40504810Y47407268D01*
X41637044Y46275035D01*
X41637046Y46275032D01*
X41799907Y46166212D01*
X41992014Y46127999D01*
X41992019Y46128000D01*
X42272066Y46128000D01*
X44707908Y43692159D01*
X44707898Y43680780D01*
X44799354Y43459440D01*
X44968551Y43289947D01*
X45189731Y43198105D01*
X45429222Y43197896D01*
X45650562Y43289352D01*
X45820055Y43458549D01*
X45911897Y43679729D01*
X45912106Y43919220D01*
X45820650Y44140560D01*
X45651453Y44310053D01*
X45430273Y44401895D01*
X45418031Y44401906D01*
X42834970Y46984968D01*
X42672109Y47093788D01*
X42480002Y47132001D01*
X42479997Y47132000D01*
X42199949Y47132000D01*
X41214934Y48117016D01*
X41214944Y48128394D01*
X41123488Y48349734D01*
X40954291Y48519227D01*
X40733111Y48611069D01*
X40493620Y48611278D01*
X40272280Y48519822D01*
X40102787Y48350625D01*
X40010945Y48129445D01*
X40010736Y47889954D01*
X427000Y47889954D01*
X427000Y50884038D01*
X9223000Y50884038D01*
X9223000Y50835962D01*
X9316400Y50366409D01*
X9582380Y49968342D01*
X9980447Y49702362D01*
X10450000Y49608962D01*
X10919553Y49702362D01*
X11317620Y49968342D01*
X11583600Y50366409D01*
X11677000Y50835962D01*
X11677000Y50884038D01*
X11763000Y50884038D01*
X11763000Y50835962D01*
X11856400Y50366409D01*
X12122380Y49968342D01*
X12520447Y49702362D01*
X12990000Y49608962D01*
X13459553Y49702362D01*
X13857620Y49968342D01*
X14123600Y50366409D01*
X14217000Y50835962D01*
X14217000Y50884038D01*
X14303000Y50884038D01*
X14303000Y50835962D01*
X14396400Y50366409D01*
X14662380Y49968342D01*
X15060447Y49702362D01*
X15530000Y49608962D01*
X15999553Y49702362D01*
X16397620Y49968342D01*
X16663600Y50366409D01*
X16757000Y50835962D01*
X16757000Y50884038D01*
X16843000Y50884038D01*
X16843000Y50835962D01*
X16936400Y50366409D01*
X17202380Y49968342D01*
X17600447Y49702362D01*
X18070000Y49608962D01*
X18539553Y49702362D01*
X18937620Y49968342D01*
X19203600Y50366409D01*
X19297000Y50835962D01*
X19297000Y50884038D01*
X19383000Y50884038D01*
X19383000Y50835962D01*
X19476400Y50366409D01*
X19742380Y49968342D01*
X20140447Y49702362D01*
X20610000Y49608962D01*
X21079553Y49702362D01*
X21477620Y49968342D01*
X21743600Y50366409D01*
X21837000Y50835962D01*
X21837000Y50884038D01*
X21743600Y51353591D01*
X21505455Y51710000D01*
X21915615Y51710000D01*
X21915615Y50010000D01*
X21941903Y49870292D01*
X22024470Y49741980D01*
X22150453Y49655899D01*
X22300000Y49625615D01*
X24000000Y49625615D01*
X24139708Y49651903D01*
X24268020Y49734470D01*
X24354101Y49860453D01*
X24384385Y50010000D01*
X24384385Y51710000D01*
X24358097Y51849708D01*
X24275530Y51978020D01*
X24149547Y52064101D01*
X24000000Y52094385D01*
X23677000Y52094385D01*
X23677000Y59761220D01*
X46132415Y59761220D01*
X46645450Y58519582D01*
X47594586Y57568788D01*
X48835326Y57053588D01*
X50178780Y57052415D01*
X51420418Y57565450D01*
X52371212Y58514586D01*
X52886412Y59755326D01*
X52887585Y61098780D01*
X52374550Y62340418D01*
X51425414Y63291212D01*
X50184674Y63806412D01*
X48841220Y63807585D01*
X47599582Y63294550D01*
X46648788Y62345414D01*
X46133588Y61104674D01*
X46132415Y59761220D01*
X23677000Y59761220D01*
X23677000Y59969998D01*
X23661942Y60045702D01*
X23662111Y60239122D01*
X23563059Y60478846D01*
X23379808Y60662416D01*
X23140258Y60761886D01*
X22880876Y60762113D01*
X22641152Y60663061D01*
X22457582Y60479810D01*
X22358112Y60240260D01*
X22357885Y59980878D01*
X22456937Y59741154D01*
X22623000Y59574802D01*
X22623000Y52094385D01*
X22300000Y52094385D01*
X22160292Y52068097D01*
X22031980Y51985530D01*
X21945899Y51859547D01*
X21915615Y51710000D01*
X21505455Y51710000D01*
X21477620Y51751658D01*
X21079553Y52017638D01*
X20610000Y52111038D01*
X20140447Y52017638D01*
X19742380Y51751658D01*
X19476400Y51353591D01*
X19383000Y50884038D01*
X19297000Y50884038D01*
X19203600Y51353591D01*
X18937620Y51751658D01*
X18539553Y52017638D01*
X18070000Y52111038D01*
X17600447Y52017638D01*
X17202380Y51751658D01*
X16936400Y51353591D01*
X16843000Y50884038D01*
X16757000Y50884038D01*
X16663600Y51353591D01*
X16397620Y51751658D01*
X15999553Y52017638D01*
X15530000Y52111038D01*
X15060447Y52017638D01*
X14662380Y51751658D01*
X14396400Y51353591D01*
X14303000Y50884038D01*
X14217000Y50884038D01*
X14123600Y51353591D01*
X13857620Y51751658D01*
X13459553Y52017638D01*
X12990000Y52111038D01*
X12520447Y52017638D01*
X12122380Y51751658D01*
X11856400Y51353591D01*
X11763000Y50884038D01*
X11677000Y50884038D01*
X11583600Y51353591D01*
X11317620Y51751658D01*
X10919553Y52017638D01*
X10450000Y52111038D01*
X9980447Y52017638D01*
X9582380Y51751658D01*
X9316400Y51353591D01*
X9223000Y50884038D01*
X427000Y50884038D01*
X427000Y57132953D01*
X19379586Y57130887D01*
X19418289Y57136924D01*
X19462302Y57161506D01*
X19493284Y57201275D01*
X19506353Y57249965D01*
X19933231Y64080000D01*
X76715615Y64080000D01*
X76715615Y62380000D01*
X76741903Y62240292D01*
X76824470Y62111980D01*
X76950453Y62025899D01*
X77100000Y61995615D01*
X78500000Y61995615D01*
X78639708Y62021903D01*
X78768020Y62104470D01*
X78854101Y62230453D01*
X78884385Y62380000D01*
X78884385Y62926213D01*
X79222000Y62926213D01*
X79365954Y62510079D01*
X79658198Y62180710D01*
X80039385Y61993833D01*
X80213000Y62067685D01*
X80213000Y63103000D01*
X80467000Y63103000D01*
X80467000Y62067685D01*
X80640615Y61993833D01*
X81021802Y62180710D01*
X81314046Y62510079D01*
X81458000Y62926213D01*
X81361543Y63103000D01*
X80467000Y63103000D01*
X80213000Y63103000D01*
X79318457Y63103000D01*
X79222000Y62926213D01*
X78884385Y62926213D01*
X78884385Y63533787D01*
X79222000Y63533787D01*
X79318457Y63357000D01*
X80213000Y63357000D01*
X80213000Y64392315D01*
X80467000Y64392315D01*
X80467000Y63357000D01*
X81361543Y63357000D01*
X81387207Y63404038D01*
X81803000Y63404038D01*
X81803000Y63055962D01*
X81884982Y62643812D01*
X82118446Y62294408D01*
X82467850Y62060944D01*
X82880000Y61978962D01*
X83292150Y62060944D01*
X83641554Y62294408D01*
X83875018Y62643812D01*
X83957000Y63055962D01*
X83957000Y63404038D01*
X84343000Y63404038D01*
X84343000Y63055962D01*
X84424982Y62643812D01*
X84658446Y62294408D01*
X85007850Y62060944D01*
X85420000Y61978962D01*
X85832150Y62060944D01*
X86181554Y62294408D01*
X86415018Y62643812D01*
X86497000Y63055962D01*
X86497000Y63404038D01*
X86883000Y63404038D01*
X86883000Y63055962D01*
X86964982Y62643812D01*
X87198446Y62294408D01*
X87547850Y62060944D01*
X87960000Y61978962D01*
X88372150Y62060944D01*
X88721554Y62294408D01*
X88955018Y62643812D01*
X89037000Y63055962D01*
X89037000Y63404038D01*
X89423000Y63404038D01*
X89423000Y63055962D01*
X89504982Y62643812D01*
X89738446Y62294408D01*
X90087850Y62060944D01*
X90500000Y61978962D01*
X90912150Y62060944D01*
X91261554Y62294408D01*
X91495018Y62643812D01*
X91577000Y63055962D01*
X91577000Y63404038D01*
X91495018Y63816188D01*
X91261554Y64165592D01*
X90912150Y64399056D01*
X90500000Y64481038D01*
X90087850Y64399056D01*
X89738446Y64165592D01*
X89504982Y63816188D01*
X89423000Y63404038D01*
X89037000Y63404038D01*
X88955018Y63816188D01*
X88721554Y64165592D01*
X88372150Y64399056D01*
X87960000Y64481038D01*
X87547850Y64399056D01*
X87198446Y64165592D01*
X86964982Y63816188D01*
X86883000Y63404038D01*
X86497000Y63404038D01*
X86415018Y63816188D01*
X86181554Y64165592D01*
X85832150Y64399056D01*
X85420000Y64481038D01*
X85007850Y64399056D01*
X84658446Y64165592D01*
X84424982Y63816188D01*
X84343000Y63404038D01*
X83957000Y63404038D01*
X83875018Y63816188D01*
X83641554Y64165592D01*
X83292150Y64399056D01*
X82880000Y64481038D01*
X82467850Y64399056D01*
X82118446Y64165592D01*
X81884982Y63816188D01*
X81803000Y63404038D01*
X81387207Y63404038D01*
X81458000Y63533787D01*
X81314046Y63949921D01*
X81021802Y64279290D01*
X80640615Y64466167D01*
X80467000Y64392315D01*
X80213000Y64392315D01*
X80039385Y64466167D01*
X79658198Y64279290D01*
X79365954Y63949921D01*
X79222000Y63533787D01*
X78884385Y63533787D01*
X78884385Y64080000D01*
X78858097Y64219708D01*
X78775530Y64348020D01*
X78649547Y64434101D01*
X78500000Y64464385D01*
X77100000Y64464385D01*
X76960292Y64438097D01*
X76831980Y64355530D01*
X76745899Y64229547D01*
X76715615Y64080000D01*
X19933231Y64080000D01*
X20200482Y68356000D01*
X76562015Y68356000D01*
X76562015Y66324000D01*
X76588303Y66184292D01*
X76670870Y66055980D01*
X76796853Y65969899D01*
X76946400Y65939615D01*
X78673600Y65939615D01*
X78813308Y65965903D01*
X78941620Y66048470D01*
X79027701Y66174453D01*
X79057985Y66324000D01*
X79057985Y67010598D01*
X79070084Y67010598D01*
X79235248Y66534269D01*
X79570122Y66157404D01*
X80023649Y65938943D01*
X80223000Y66010582D01*
X80223000Y67213000D01*
X80477000Y67213000D01*
X80477000Y66010582D01*
X80676351Y65938943D01*
X81129878Y66157404D01*
X81464752Y66534269D01*
X81629916Y67010598D01*
X81535097Y67213000D01*
X80477000Y67213000D01*
X80223000Y67213000D01*
X79164903Y67213000D01*
X79070084Y67010598D01*
X79057985Y67010598D01*
X79057985Y67669402D01*
X79070084Y67669402D01*
X79164903Y67467000D01*
X80223000Y67467000D01*
X80223000Y68669418D01*
X80477000Y68669418D01*
X80477000Y67467000D01*
X81535097Y67467000D01*
X81559780Y67519690D01*
X81649400Y67519690D01*
X81649400Y67160310D01*
X81743835Y66685553D01*
X82012763Y66283073D01*
X82415243Y66014145D01*
X82890000Y65919710D01*
X83364757Y66014145D01*
X83767237Y66283073D01*
X84036165Y66685553D01*
X84130600Y67160310D01*
X84130600Y67519690D01*
X84189400Y67519690D01*
X84189400Y67160310D01*
X84283835Y66685553D01*
X84552763Y66283073D01*
X84955243Y66014145D01*
X85430000Y65919710D01*
X85904757Y66014145D01*
X86307237Y66283073D01*
X86576165Y66685553D01*
X86670600Y67160310D01*
X86670600Y67519690D01*
X86729400Y67519690D01*
X86729400Y67160310D01*
X86823835Y66685553D01*
X87092763Y66283073D01*
X87495243Y66014145D01*
X87970000Y65919710D01*
X88444757Y66014145D01*
X88847237Y66283073D01*
X89116165Y66685553D01*
X89210600Y67160310D01*
X89210600Y67519690D01*
X89269400Y67519690D01*
X89269400Y67160310D01*
X89363835Y66685553D01*
X89632763Y66283073D01*
X90035243Y66014145D01*
X90510000Y65919710D01*
X90984757Y66014145D01*
X91387237Y66283073D01*
X91656165Y66685553D01*
X91658540Y66697495D01*
X95322744Y66697495D01*
X95547130Y66154440D01*
X95962254Y65738591D01*
X96504918Y65513257D01*
X97092505Y65512744D01*
X97635560Y65737130D01*
X98051409Y66152254D01*
X98276743Y66694918D01*
X98277256Y67282505D01*
X98052870Y67825560D01*
X97637746Y68241409D01*
X97095082Y68466743D01*
X96507495Y68467256D01*
X95964440Y68242870D01*
X95548591Y67827746D01*
X95323257Y67285082D01*
X95322744Y66697495D01*
X91658540Y66697495D01*
X91750600Y67160310D01*
X91750600Y67519690D01*
X91656165Y67994447D01*
X91387237Y68396927D01*
X90984757Y68665855D01*
X90510000Y68760290D01*
X90035243Y68665855D01*
X89632763Y68396927D01*
X89363835Y67994447D01*
X89269400Y67519690D01*
X89210600Y67519690D01*
X89116165Y67994447D01*
X88847237Y68396927D01*
X88444757Y68665855D01*
X87970000Y68760290D01*
X87495243Y68665855D01*
X87092763Y68396927D01*
X86823835Y67994447D01*
X86729400Y67519690D01*
X86670600Y67519690D01*
X86576165Y67994447D01*
X86307237Y68396927D01*
X85904757Y68665855D01*
X85430000Y68760290D01*
X84955243Y68665855D01*
X84552763Y68396927D01*
X84283835Y67994447D01*
X84189400Y67519690D01*
X84130600Y67519690D01*
X84036165Y67994447D01*
X83767237Y68396927D01*
X83364757Y68665855D01*
X82890000Y68760290D01*
X82415243Y68665855D01*
X82012763Y68396927D01*
X81743835Y67994447D01*
X81649400Y67519690D01*
X81559780Y67519690D01*
X81629916Y67669402D01*
X81464752Y68145731D01*
X81129878Y68522596D01*
X80676351Y68741057D01*
X80477000Y68669418D01*
X80223000Y68669418D01*
X80023649Y68741057D01*
X79570122Y68522596D01*
X79235248Y68145731D01*
X79070084Y67669402D01*
X79057985Y67669402D01*
X79057985Y68356000D01*
X79031697Y68495708D01*
X78949130Y68624020D01*
X78823147Y68710101D01*
X78673600Y68740385D01*
X76946400Y68740385D01*
X76806692Y68714097D01*
X76678380Y68631530D01*
X76592299Y68505547D01*
X76562015Y68356000D01*
X20200482Y68356000D01*
X20275920Y69563000D01*
X99223000Y69563000D01*
X99223000Y21417000D01*
G36*
X95993000Y45991710D02*
X95993000Y39698290D01*
X95886792Y39592082D01*
X95850878Y39592113D01*
X95611154Y39493061D01*
X95427584Y39309810D01*
X95328114Y39070260D01*
X95328051Y38997986D01*
X95292064Y38962000D01*
X92249490Y38962000D01*
X92241451Y38970053D01*
X92020271Y39061895D01*
X91780780Y39062104D01*
X91559440Y38970648D01*
X91389947Y38801451D01*
X91298105Y38580271D01*
X91298094Y38568029D01*
X86928822Y34198758D01*
X86588692Y34198758D01*
X91597839Y39207906D01*
X91609218Y39207896D01*
X91790983Y39283000D01*
X94600000Y39283000D01*
X94801675Y39323115D01*
X94972645Y39437355D01*
X95752646Y40217355D01*
X95866885Y40388326D01*
X95907000Y40590000D01*
X95907000Y45300000D01*
X95866885Y45501674D01*
X95866885Y45501675D01*
X95752645Y45672645D01*
X92577647Y48847643D01*
X92406677Y48961883D01*
X92205002Y49001998D01*
X88623286Y49001998D01*
X88555638Y49069646D01*
X88679740Y49018114D01*
X88939122Y49017887D01*
X89178846Y49116939D01*
X89204952Y49143000D01*
X92841710Y49143000D01*
X95993000Y45991710D01*
X95993000Y45991710D01*
G37*
X95993000Y45991710D02*
X95993000Y39698290D01*
X95886792Y39592082D01*
X95850878Y39592113D01*
X95611154Y39493061D01*
X95427584Y39309810D01*
X95328114Y39070260D01*
X95328051Y38997986D01*
X95292064Y38962000D01*
X92249490Y38962000D01*
X92241451Y38970053D01*
X92020271Y39061895D01*
X91780780Y39062104D01*
X91559440Y38970648D01*
X91389947Y38801451D01*
X91298105Y38580271D01*
X91298094Y38568029D01*
X86928822Y34198758D01*
X86588692Y34198758D01*
X91597839Y39207906D01*
X91609218Y39207896D01*
X91790983Y39283000D01*
X94600000Y39283000D01*
X94801675Y39323115D01*
X94972645Y39437355D01*
X95752646Y40217355D01*
X95866885Y40388326D01*
X95907000Y40590000D01*
X95907000Y45300000D01*
X95866885Y45501674D01*
X95866885Y45501675D01*
X95752645Y45672645D01*
X92577647Y48847643D01*
X92406677Y48961883D01*
X92205002Y49001998D01*
X88623286Y49001998D01*
X88555638Y49069646D01*
X88679740Y49018114D01*
X88939122Y49017887D01*
X89178846Y49116939D01*
X89204952Y49143000D01*
X92841710Y49143000D01*
X95993000Y45991710D01*
G36*
X86733000Y53324038D02*
X86733000Y53275962D01*
X86826400Y52806409D01*
X87092380Y52408342D01*
X87433000Y52180747D01*
X87433000Y50520000D01*
X87473115Y50318325D01*
X87587355Y50147355D01*
X88157918Y49576792D01*
X88157887Y49540878D01*
X88209628Y49415656D01*
X87337647Y50287637D01*
X87337645Y50287640D01*
X87325228Y50300057D01*
X87250648Y50480554D01*
X87081451Y50650047D01*
X86860271Y50741889D01*
X86620780Y50742098D01*
X86399440Y50650642D01*
X86229947Y50481445D01*
X86138105Y50260265D01*
X86137896Y50020774D01*
X86229352Y49799434D01*
X86398549Y49629941D01*
X86580183Y49554520D01*
X86592354Y49542349D01*
X86592357Y49542347D01*
X88032351Y48102353D01*
X88203321Y47988113D01*
X88236781Y47981458D01*
X88404996Y47947998D01*
X91986712Y47947998D01*
X94853000Y45081710D01*
X94853000Y40808291D01*
X94381710Y40337000D01*
X91790636Y40337000D01*
X91610269Y40411895D01*
X91370778Y40412104D01*
X91149438Y40320648D01*
X90979945Y40151451D01*
X90888103Y39930271D01*
X90888092Y39918029D01*
X86840688Y35870625D01*
X86731451Y35980053D01*
X86510271Y36071895D01*
X86270780Y36072104D01*
X86049440Y35980648D01*
X85879947Y35811451D01*
X85805432Y35632000D01*
X85453265Y35632000D01*
X85590053Y35768549D01*
X85681895Y35989729D01*
X85682104Y36229220D01*
X85590648Y36450560D01*
X85421451Y36620053D01*
X85200271Y36711895D01*
X84960780Y36712104D01*
X84739440Y36620648D01*
X84569947Y36451451D01*
X84487128Y36252000D01*
X82849490Y36252000D01*
X82841451Y36260053D01*
X82620271Y36351895D01*
X82380780Y36352104D01*
X82159440Y36260648D01*
X81989947Y36091451D01*
X81898105Y35870271D01*
X81897897Y35632000D01*
X74911936Y35632000D01*
X80367936Y41088000D01*
X93689862Y41088000D01*
X93740190Y41037584D01*
X93979740Y40938114D01*
X94239122Y40937887D01*
X94478846Y41036939D01*
X94662416Y41220190D01*
X94761886Y41459740D01*
X94762113Y41719122D01*
X94663061Y41958846D01*
X94479810Y42142416D01*
X94240260Y42241886D01*
X93980878Y42242113D01*
X93741154Y42143061D01*
X93690004Y42092000D01*
X91981936Y42092000D01*
X92317841Y42427906D01*
X92329220Y42427896D01*
X92550560Y42519352D01*
X92720053Y42688549D01*
X92811895Y42909729D01*
X92812104Y43149220D01*
X92720648Y43370560D01*
X92551451Y43540053D01*
X92330271Y43631895D01*
X92090780Y43632104D01*
X91869440Y43540648D01*
X91699947Y43371451D01*
X91608105Y43150271D01*
X91608094Y43138030D01*
X91032063Y42561999D01*
X87202002Y42561999D01*
X87202104Y42679220D01*
X87110648Y42900560D01*
X86941451Y43070053D01*
X86720271Y43161895D01*
X86480780Y43162104D01*
X86259440Y43070648D01*
X86250777Y43062000D01*
X80557935Y43062000D01*
X79329058Y44290878D01*
X85307887Y44290878D01*
X85406939Y44051154D01*
X85590190Y43867584D01*
X85829740Y43768114D01*
X86089122Y43767887D01*
X86328846Y43866939D01*
X86512416Y44050190D01*
X86524189Y44078543D01*
X88857855Y46412209D01*
X89973940Y45296125D01*
X89947580Y45269810D01*
X89848110Y45030260D01*
X89847883Y44770878D01*
X89946935Y44531154D01*
X90130186Y44347584D01*
X90369736Y44248114D01*
X90629118Y44247887D01*
X90868842Y44346939D01*
X91052412Y44530190D01*
X91151882Y44769740D01*
X91152109Y45029122D01*
X91053057Y45268846D01*
X91001996Y45319996D01*
X91001996Y45479999D01*
X91001997Y45480004D01*
X90963784Y45672111D01*
X90909939Y45752696D01*
X90854964Y45834972D01*
X90854961Y45834974D01*
X89517051Y47172885D01*
X89517113Y47244122D01*
X89418061Y47483846D01*
X89234810Y47667416D01*
X88995260Y47766886D01*
X88735878Y47767113D01*
X88496154Y47668061D01*
X88312584Y47484810D01*
X88272407Y47388053D01*
X85956357Y45072003D01*
X85830878Y45072113D01*
X85591154Y44973061D01*
X85407584Y44789810D01*
X85308114Y44550260D01*
X85307887Y44290878D01*
X79329058Y44290878D01*
X74704955Y48914981D01*
X74542094Y49023801D01*
X74349987Y49062014D01*
X74349982Y49062013D01*
X72870018Y49062013D01*
X72870013Y49062014D01*
X72677906Y49023801D01*
X72515045Y48914981D01*
X72515043Y48914978D01*
X67042064Y43442000D01*
X66917685Y43442000D01*
X66955662Y43467376D01*
X76941286Y53453000D01*
X86758652Y53453000D01*
X86733000Y53324038D01*
X86733000Y53324038D01*
G37*
X86733000Y53324038D02*
X86733000Y53275962D01*
X86826400Y52806409D01*
X87092380Y52408342D01*
X87433000Y52180747D01*
X87433000Y50520000D01*
X87473115Y50318325D01*
X87587355Y50147355D01*
X88157918Y49576792D01*
X88157887Y49540878D01*
X88209628Y49415656D01*
X87337647Y50287637D01*
X87337645Y50287640D01*
X87325228Y50300057D01*
X87250648Y50480554D01*
X87081451Y50650047D01*
X86860271Y50741889D01*
X86620780Y50742098D01*
X86399440Y50650642D01*
X86229947Y50481445D01*
X86138105Y50260265D01*
X86137896Y50020774D01*
X86229352Y49799434D01*
X86398549Y49629941D01*
X86580183Y49554520D01*
X86592354Y49542349D01*
X86592357Y49542347D01*
X88032351Y48102353D01*
X88203321Y47988113D01*
X88236781Y47981458D01*
X88404996Y47947998D01*
X91986712Y47947998D01*
X94853000Y45081710D01*
X94853000Y40808291D01*
X94381710Y40337000D01*
X91790636Y40337000D01*
X91610269Y40411895D01*
X91370778Y40412104D01*
X91149438Y40320648D01*
X90979945Y40151451D01*
X90888103Y39930271D01*
X90888092Y39918029D01*
X86840688Y35870625D01*
X86731451Y35980053D01*
X86510271Y36071895D01*
X86270780Y36072104D01*
X86049440Y35980648D01*
X85879947Y35811451D01*
X85805432Y35632000D01*
X85453265Y35632000D01*
X85590053Y35768549D01*
X85681895Y35989729D01*
X85682104Y36229220D01*
X85590648Y36450560D01*
X85421451Y36620053D01*
X85200271Y36711895D01*
X84960780Y36712104D01*
X84739440Y36620648D01*
X84569947Y36451451D01*
X84487128Y36252000D01*
X82849490Y36252000D01*
X82841451Y36260053D01*
X82620271Y36351895D01*
X82380780Y36352104D01*
X82159440Y36260648D01*
X81989947Y36091451D01*
X81898105Y35870271D01*
X81897897Y35632000D01*
X74911936Y35632000D01*
X80367936Y41088000D01*
X93689862Y41088000D01*
X93740190Y41037584D01*
X93979740Y40938114D01*
X94239122Y40937887D01*
X94478846Y41036939D01*
X94662416Y41220190D01*
X94761886Y41459740D01*
X94762113Y41719122D01*
X94663061Y41958846D01*
X94479810Y42142416D01*
X94240260Y42241886D01*
X93980878Y42242113D01*
X93741154Y42143061D01*
X93690004Y42092000D01*
X91981936Y42092000D01*
X92317841Y42427906D01*
X92329220Y42427896D01*
X92550560Y42519352D01*
X92720053Y42688549D01*
X92811895Y42909729D01*
X92812104Y43149220D01*
X92720648Y43370560D01*
X92551451Y43540053D01*
X92330271Y43631895D01*
X92090780Y43632104D01*
X91869440Y43540648D01*
X91699947Y43371451D01*
X91608105Y43150271D01*
X91608094Y43138030D01*
X91032063Y42561999D01*
X87202002Y42561999D01*
X87202104Y42679220D01*
X87110648Y42900560D01*
X86941451Y43070053D01*
X86720271Y43161895D01*
X86480780Y43162104D01*
X86259440Y43070648D01*
X86250777Y43062000D01*
X80557935Y43062000D01*
X79329058Y44290878D01*
X85307887Y44290878D01*
X85406939Y44051154D01*
X85590190Y43867584D01*
X85829740Y43768114D01*
X86089122Y43767887D01*
X86328846Y43866939D01*
X86512416Y44050190D01*
X86524189Y44078543D01*
X88857855Y46412209D01*
X89973940Y45296125D01*
X89947580Y45269810D01*
X89848110Y45030260D01*
X89847883Y44770878D01*
X89946935Y44531154D01*
X90130186Y44347584D01*
X90369736Y44248114D01*
X90629118Y44247887D01*
X90868842Y44346939D01*
X91052412Y44530190D01*
X91151882Y44769740D01*
X91152109Y45029122D01*
X91053057Y45268846D01*
X91001996Y45319996D01*
X91001996Y45479999D01*
X91001997Y45480004D01*
X90963784Y45672111D01*
X90909939Y45752696D01*
X90854964Y45834972D01*
X90854961Y45834974D01*
X89517051Y47172885D01*
X89517113Y47244122D01*
X89418061Y47483846D01*
X89234810Y47667416D01*
X88995260Y47766886D01*
X88735878Y47767113D01*
X88496154Y47668061D01*
X88312584Y47484810D01*
X88272407Y47388053D01*
X85956357Y45072003D01*
X85830878Y45072113D01*
X85591154Y44973061D01*
X85407584Y44789810D01*
X85308114Y44550260D01*
X85307887Y44290878D01*
X79329058Y44290878D01*
X74704955Y48914981D01*
X74542094Y49023801D01*
X74349987Y49062014D01*
X74349982Y49062013D01*
X72870018Y49062013D01*
X72870013Y49062014D01*
X72677906Y49023801D01*
X72515045Y48914981D01*
X72515043Y48914978D01*
X67042064Y43442000D01*
X66917685Y43442000D01*
X66955662Y43467376D01*
X76941286Y53453000D01*
X86758652Y53453000D01*
X86733000Y53324038D01*
G36*
X63999015Y44367021D02*
X61133229Y44367021D01*
X61149208Y44383000D01*
X64037687Y44383000D01*
X63999015Y44367021D01*
X63999015Y44367021D01*
G37*
X63999015Y44367021D02*
X61133229Y44367021D01*
X61149208Y44383000D01*
X64037687Y44383000D01*
X63999015Y44367021D01*
G36*
X68485030Y58494966D02*
X68376210Y58332105D01*
X68337997Y58139998D01*
X68337998Y58139993D01*
X68337998Y51111938D01*
X68102000Y51347936D01*
X68102000Y59022064D01*
X68988673Y59908737D01*
X69440000Y59818962D01*
X69900657Y59910592D01*
X68485030Y58494966D01*
X68485030Y58494966D01*
G37*
X68485030Y58494966D02*
X68376210Y58332105D01*
X68337997Y58139998D01*
X68337998Y58139993D01*
X68337998Y51111938D01*
X68102000Y51347936D01*
X68102000Y59022064D01*
X68988673Y59908737D01*
X69440000Y59818962D01*
X69900657Y59910592D01*
X68485030Y58494966D01*
G36*
X67245032Y59584968D02*
X67136212Y59422107D01*
X67097999Y59230000D01*
X67098000Y59229995D01*
X67098000Y51227290D01*
X66921998Y51403292D01*
X66921998Y59815615D01*
X67440000Y59815615D01*
X67483949Y59823885D01*
X67245032Y59584968D01*
X67245032Y59584968D01*
G37*
X67245032Y59584968D02*
X67136212Y59422107D01*
X67097999Y59230000D01*
X67098000Y59229995D01*
X67098000Y51227290D01*
X66921998Y51403292D01*
X66921998Y59815615D01*
X67440000Y59815615D01*
X67483949Y59823885D01*
X67245032Y59584968D01*
M02*
