G04 #@! TF.FileFunction,Legend,Top*
%FSLAX46Y46*%
G04 Gerber Fmt 4.6, Leading zero omitted, Abs format (unit mm)*
G04 Created by KiCad (PCBNEW 4.0.4-stable) date 11/09/17 15:47:28*
%MOMM*%
%LPD*%
G01*
G04 APERTURE LIST*
%ADD10C,0.100000*%
%ADD11C,0.150000*%
%ADD12C,0.200000*%
%ADD13C,0.300000*%
%ADD14C,0.120000*%
%ADD15C,0.050000*%
%ADD16R,0.700000X0.230000*%
%ADD17R,0.230000X0.700000*%
%ADD18R,0.350000X0.750000*%
%ADD19R,0.750000X0.350000*%
%ADD20R,1.250000X1.500000*%
%ADD21R,1.700000X1.700000*%
%ADD22O,1.700000X1.700000*%
%ADD23R,3.000000X1.600000*%
%ADD24R,1.500000X1.250000*%
%ADD25R,2.000000X4.500000*%
%ADD26R,1.600000X1.000000*%
%ADD27R,1.000000X1.600000*%
%ADD28R,1.600000X3.000000*%
%ADD29R,0.600000X0.450000*%
%ADD30C,1.700000*%
%ADD31R,1.700000X2.000000*%
%ADD32R,1.905000X1.905000*%
%ADD33C,1.905000*%
%ADD34R,1.980000X3.960000*%
%ADD35O,1.980000X3.960000*%
%ADD36R,0.400000X1.350000*%
%ADD37O,1.250000X0.950000*%
%ADD38O,1.000000X1.550000*%
%ADD39R,1.900000X0.800000*%
%ADD40R,1.300000X1.500000*%
%ADD41R,1.500000X1.300000*%
%ADD42C,1.400000*%
%ADD43O,1.400000X1.400000*%
%ADD44R,1.000000X0.250000*%
%ADD45R,0.250000X1.000000*%
%ADD46R,0.450000X1.750000*%
%ADD47R,0.450000X0.400000*%
%ADD48R,0.400000X0.450000*%
%ADD49R,0.550000X1.750000*%
%ADD50R,1.550000X1.300000*%
%ADD51R,1.727200X2.032000*%
%ADD52O,1.727200X2.032000*%
%ADD53R,1.620000X1.620000*%
%ADD54C,1.620000*%
%ADD55R,3.800000X2.000000*%
%ADD56R,1.500000X2.000000*%
%ADD57C,2.200000*%
%ADD58R,0.375000X0.350000*%
%ADD59R,0.350000X0.375000*%
%ADD60R,1.270000X1.270000*%
%ADD61R,2.000000X0.900000*%
%ADD62C,6.000000*%
%ADD63R,2.200000X1.600000*%
%ADD64R,1.600000X2.200000*%
%ADD65C,1.000000*%
%ADD66R,1.200000X1.700000*%
%ADD67O,1.200000X1.700000*%
%ADD68R,1.600000X1.600000*%
%ADD69O,1.600000X1.600000*%
G04 APERTURE END LIST*
D10*
D11*
X102680952Y-111702381D02*
X103252381Y-111702381D01*
X102966666Y-112702381D02*
X102966666Y-111702381D01*
X103490476Y-111702381D02*
X104157143Y-112702381D01*
X104157143Y-111702381D02*
X103490476Y-112702381D01*
X105871429Y-112702381D02*
X105538095Y-112226190D01*
X105300000Y-112702381D02*
X105300000Y-111702381D01*
X105680953Y-111702381D01*
X105776191Y-111750000D01*
X105823810Y-111797619D01*
X105871429Y-111892857D01*
X105871429Y-112035714D01*
X105823810Y-112130952D01*
X105776191Y-112178571D01*
X105680953Y-112226190D01*
X105300000Y-112226190D01*
X106204762Y-111702381D02*
X106871429Y-112702381D01*
X106871429Y-111702381D02*
X106204762Y-112702381D01*
X98615476Y-111727381D02*
X99186905Y-111727381D01*
X98901190Y-112727381D02*
X98901190Y-111727381D01*
X99710714Y-111727381D02*
X99901191Y-111727381D01*
X99996429Y-111775000D01*
X100091667Y-111870238D01*
X100139286Y-112060714D01*
X100139286Y-112394048D01*
X100091667Y-112584524D01*
X99996429Y-112679762D01*
X99901191Y-112727381D01*
X99710714Y-112727381D01*
X99615476Y-112679762D01*
X99520238Y-112584524D01*
X99472619Y-112394048D01*
X99472619Y-112060714D01*
X99520238Y-111870238D01*
X99615476Y-111775000D01*
X99710714Y-111727381D01*
X101091667Y-111775000D02*
X100996429Y-111727381D01*
X100853572Y-111727381D01*
X100710714Y-111775000D01*
X100615476Y-111870238D01*
X100567857Y-111965476D01*
X100520238Y-112155952D01*
X100520238Y-112298810D01*
X100567857Y-112489286D01*
X100615476Y-112584524D01*
X100710714Y-112679762D01*
X100853572Y-112727381D01*
X100948810Y-112727381D01*
X101091667Y-112679762D01*
X101139286Y-112632143D01*
X101139286Y-112298810D01*
X100948810Y-112298810D01*
D12*
X47050000Y-142046428D02*
X46992857Y-142160714D01*
X46992857Y-142332143D01*
X47050000Y-142503571D01*
X47164286Y-142617857D01*
X47278571Y-142675000D01*
X47507143Y-142732143D01*
X47678571Y-142732143D01*
X47907143Y-142675000D01*
X48021429Y-142617857D01*
X48135714Y-142503571D01*
X48192857Y-142332143D01*
X48192857Y-142217857D01*
X48135714Y-142046428D01*
X48078571Y-141989285D01*
X47678571Y-141989285D01*
X47678571Y-142217857D01*
X48192857Y-141475000D02*
X46992857Y-141475000D01*
X46992857Y-141017857D01*
X47050000Y-140903571D01*
X47107143Y-140846428D01*
X47221429Y-140789285D01*
X47392857Y-140789285D01*
X47507143Y-140846428D01*
X47564286Y-140903571D01*
X47621429Y-141017857D01*
X47621429Y-141475000D01*
X47564286Y-138960714D02*
X47621429Y-138789285D01*
X47678571Y-138732142D01*
X47792857Y-138674999D01*
X47964286Y-138674999D01*
X48078571Y-138732142D01*
X48135714Y-138789285D01*
X48192857Y-138903571D01*
X48192857Y-139360714D01*
X46992857Y-139360714D01*
X46992857Y-138960714D01*
X47050000Y-138846428D01*
X47107143Y-138789285D01*
X47221429Y-138732142D01*
X47335714Y-138732142D01*
X47450000Y-138789285D01*
X47507143Y-138846428D01*
X47564286Y-138960714D01*
X47564286Y-139360714D01*
X47392857Y-137646428D02*
X48192857Y-137646428D01*
X47392857Y-138160714D02*
X48021429Y-138160714D01*
X48135714Y-138103571D01*
X48192857Y-137989285D01*
X48192857Y-137817857D01*
X48135714Y-137703571D01*
X48078571Y-137646428D01*
X47392857Y-137246428D02*
X47392857Y-136789285D01*
X46992857Y-137075000D02*
X48021429Y-137075000D01*
X48135714Y-137017857D01*
X48192857Y-136903571D01*
X48192857Y-136789285D01*
X47392857Y-136560714D02*
X47392857Y-136103571D01*
X46992857Y-136389286D02*
X48021429Y-136389286D01*
X48135714Y-136332143D01*
X48192857Y-136217857D01*
X48192857Y-136103571D01*
X81967857Y-127942857D02*
X81967857Y-126742857D01*
X82425000Y-126742857D01*
X82539286Y-126800000D01*
X82596429Y-126857143D01*
X82653572Y-126971429D01*
X82653572Y-127142857D01*
X82596429Y-127257143D01*
X82539286Y-127314286D01*
X82425000Y-127371429D01*
X81967857Y-127371429D01*
X83167857Y-127942857D02*
X83167857Y-127142857D01*
X83167857Y-127371429D02*
X83225000Y-127257143D01*
X83282143Y-127200000D01*
X83396429Y-127142857D01*
X83510714Y-127142857D01*
X84082143Y-127942857D02*
X83967857Y-127885714D01*
X83910714Y-127828571D01*
X83853571Y-127714286D01*
X83853571Y-127371429D01*
X83910714Y-127257143D01*
X83967857Y-127200000D01*
X84082143Y-127142857D01*
X84253571Y-127142857D01*
X84367857Y-127200000D01*
X84425000Y-127257143D01*
X84482143Y-127371429D01*
X84482143Y-127714286D01*
X84425000Y-127828571D01*
X84367857Y-127885714D01*
X84253571Y-127942857D01*
X84082143Y-127942857D01*
X85510714Y-127142857D02*
X85510714Y-128114286D01*
X85453571Y-128228571D01*
X85396428Y-128285714D01*
X85282143Y-128342857D01*
X85110714Y-128342857D01*
X84996428Y-128285714D01*
X85510714Y-127885714D02*
X85396428Y-127942857D01*
X85167857Y-127942857D01*
X85053571Y-127885714D01*
X84996428Y-127828571D01*
X84939285Y-127714286D01*
X84939285Y-127371429D01*
X84996428Y-127257143D01*
X85053571Y-127200000D01*
X85167857Y-127142857D01*
X85396428Y-127142857D01*
X85510714Y-127200000D01*
X86082142Y-127828571D02*
X86139285Y-127885714D01*
X86082142Y-127942857D01*
X86024999Y-127885714D01*
X86082142Y-127828571D01*
X86082142Y-127942857D01*
X62732143Y-141892857D02*
X62732143Y-140692857D01*
X63189286Y-140692857D01*
X63303572Y-140750000D01*
X63360715Y-140807143D01*
X63417858Y-140921429D01*
X63417858Y-141092857D01*
X63360715Y-141207143D01*
X63303572Y-141264286D01*
X63189286Y-141321429D01*
X62732143Y-141321429D01*
X63932143Y-141892857D02*
X63932143Y-141092857D01*
X63932143Y-141321429D02*
X63989286Y-141207143D01*
X64046429Y-141150000D01*
X64160715Y-141092857D01*
X64275000Y-141092857D01*
X65132143Y-141835714D02*
X65017857Y-141892857D01*
X64789286Y-141892857D01*
X64675000Y-141835714D01*
X64617857Y-141721429D01*
X64617857Y-141264286D01*
X64675000Y-141150000D01*
X64789286Y-141092857D01*
X65017857Y-141092857D01*
X65132143Y-141150000D01*
X65189286Y-141264286D01*
X65189286Y-141378571D01*
X64617857Y-141492857D01*
X65646428Y-141835714D02*
X65760714Y-141892857D01*
X65989286Y-141892857D01*
X66103571Y-141835714D01*
X66160714Y-141721429D01*
X66160714Y-141664286D01*
X66103571Y-141550000D01*
X65989286Y-141492857D01*
X65817857Y-141492857D01*
X65703571Y-141435714D01*
X65646428Y-141321429D01*
X65646428Y-141264286D01*
X65703571Y-141150000D01*
X65817857Y-141092857D01*
X65989286Y-141092857D01*
X66103571Y-141150000D01*
X66617857Y-141835714D02*
X66732143Y-141892857D01*
X66960715Y-141892857D01*
X67075000Y-141835714D01*
X67132143Y-141721429D01*
X67132143Y-141664286D01*
X67075000Y-141550000D01*
X66960715Y-141492857D01*
X66789286Y-141492857D01*
X66675000Y-141435714D01*
X66617857Y-141321429D01*
X66617857Y-141264286D01*
X66675000Y-141150000D01*
X66789286Y-141092857D01*
X66960715Y-141092857D01*
X67075000Y-141150000D01*
X68160715Y-141092857D02*
X68160715Y-141892857D01*
X67646429Y-141092857D02*
X67646429Y-141721429D01*
X67703572Y-141835714D01*
X67817858Y-141892857D01*
X67989286Y-141892857D01*
X68103572Y-141835714D01*
X68160715Y-141778571D01*
X68732143Y-141892857D02*
X68732143Y-141092857D01*
X68732143Y-141321429D02*
X68789286Y-141207143D01*
X68846429Y-141150000D01*
X68960715Y-141092857D01*
X69075000Y-141092857D01*
X69932143Y-141835714D02*
X69817857Y-141892857D01*
X69589286Y-141892857D01*
X69475000Y-141835714D01*
X69417857Y-141721429D01*
X69417857Y-141264286D01*
X69475000Y-141150000D01*
X69589286Y-141092857D01*
X69817857Y-141092857D01*
X69932143Y-141150000D01*
X69989286Y-141264286D01*
X69989286Y-141378571D01*
X69417857Y-141492857D01*
X71417857Y-141892857D02*
X71417857Y-140692857D01*
X71417857Y-141264286D02*
X72103572Y-141264286D01*
X72103572Y-141892857D02*
X72103572Y-140692857D01*
X73189286Y-141092857D02*
X73189286Y-141892857D01*
X72675000Y-141092857D02*
X72675000Y-141721429D01*
X72732143Y-141835714D01*
X72846429Y-141892857D01*
X73017857Y-141892857D01*
X73132143Y-141835714D01*
X73189286Y-141778571D01*
X73760714Y-141892857D02*
X73760714Y-141092857D01*
X73760714Y-141207143D02*
X73817857Y-141150000D01*
X73932143Y-141092857D01*
X74103571Y-141092857D01*
X74217857Y-141150000D01*
X74275000Y-141264286D01*
X74275000Y-141892857D01*
X74275000Y-141264286D02*
X74332143Y-141150000D01*
X74446429Y-141092857D01*
X74617857Y-141092857D01*
X74732143Y-141150000D01*
X74789286Y-141264286D01*
X74789286Y-141892857D01*
X75360714Y-141892857D02*
X75360714Y-141092857D01*
X75360714Y-140692857D02*
X75303571Y-140750000D01*
X75360714Y-140807143D01*
X75417857Y-140750000D01*
X75360714Y-140692857D01*
X75360714Y-140807143D01*
X76446429Y-141892857D02*
X76446429Y-140692857D01*
X76446429Y-141835714D02*
X76332143Y-141892857D01*
X76103572Y-141892857D01*
X75989286Y-141835714D01*
X75932143Y-141778571D01*
X75875000Y-141664286D01*
X75875000Y-141321429D01*
X75932143Y-141207143D01*
X75989286Y-141150000D01*
X76103572Y-141092857D01*
X76332143Y-141092857D01*
X76446429Y-141150000D01*
X77017857Y-141892857D02*
X77017857Y-141092857D01*
X77017857Y-140692857D02*
X76960714Y-140750000D01*
X77017857Y-140807143D01*
X77075000Y-140750000D01*
X77017857Y-140692857D01*
X77017857Y-140807143D01*
X77417858Y-141092857D02*
X77875001Y-141092857D01*
X77589286Y-140692857D02*
X77589286Y-141721429D01*
X77646429Y-141835714D01*
X77760715Y-141892857D01*
X77875001Y-141892857D01*
X78160715Y-141092857D02*
X78446429Y-141892857D01*
X78732143Y-141092857D02*
X78446429Y-141892857D01*
X78332143Y-142178571D01*
X78275000Y-142235714D01*
X78160715Y-142292857D01*
D13*
X53850000Y-104592857D02*
X54064286Y-104664286D01*
X54135714Y-104735714D01*
X54207143Y-104878571D01*
X54207143Y-105092857D01*
X54135714Y-105235714D01*
X54064286Y-105307143D01*
X53921428Y-105378571D01*
X53350000Y-105378571D01*
X53350000Y-103878571D01*
X53850000Y-103878571D01*
X53992857Y-103950000D01*
X54064286Y-104021429D01*
X54135714Y-104164286D01*
X54135714Y-104307143D01*
X54064286Y-104450000D01*
X53992857Y-104521429D01*
X53850000Y-104592857D01*
X53350000Y-104592857D01*
X55064286Y-105378571D02*
X54921428Y-105307143D01*
X54850000Y-105164286D01*
X54850000Y-103878571D01*
X56278571Y-104378571D02*
X56278571Y-105378571D01*
X55635714Y-104378571D02*
X55635714Y-105164286D01*
X55707142Y-105307143D01*
X55850000Y-105378571D01*
X56064285Y-105378571D01*
X56207142Y-105307143D01*
X56278571Y-105235714D01*
X57564285Y-105307143D02*
X57421428Y-105378571D01*
X57135714Y-105378571D01*
X56992857Y-105307143D01*
X56921428Y-105164286D01*
X56921428Y-104592857D01*
X56992857Y-104450000D01*
X57135714Y-104378571D01*
X57421428Y-104378571D01*
X57564285Y-104450000D01*
X57635714Y-104592857D01*
X57635714Y-104735714D01*
X56921428Y-104878571D01*
X58064285Y-104378571D02*
X58635714Y-104378571D01*
X58278571Y-103878571D02*
X58278571Y-105164286D01*
X58349999Y-105307143D01*
X58492857Y-105378571D01*
X58635714Y-105378571D01*
X59350000Y-105378571D02*
X59207142Y-105307143D01*
X59135714Y-105235714D01*
X59064285Y-105092857D01*
X59064285Y-104664286D01*
X59135714Y-104521429D01*
X59207142Y-104450000D01*
X59350000Y-104378571D01*
X59564285Y-104378571D01*
X59707142Y-104450000D01*
X59778571Y-104521429D01*
X59850000Y-104664286D01*
X59850000Y-105092857D01*
X59778571Y-105235714D01*
X59707142Y-105307143D01*
X59564285Y-105378571D01*
X59350000Y-105378571D01*
X60707143Y-105378571D02*
X60564285Y-105307143D01*
X60492857Y-105235714D01*
X60421428Y-105092857D01*
X60421428Y-104664286D01*
X60492857Y-104521429D01*
X60564285Y-104450000D01*
X60707143Y-104378571D01*
X60921428Y-104378571D01*
X61064285Y-104450000D01*
X61135714Y-104521429D01*
X61207143Y-104664286D01*
X61207143Y-105092857D01*
X61135714Y-105235714D01*
X61064285Y-105307143D01*
X60921428Y-105378571D01*
X60707143Y-105378571D01*
X61635714Y-104378571D02*
X62207143Y-104378571D01*
X61850000Y-103878571D02*
X61850000Y-105164286D01*
X61921428Y-105307143D01*
X62064286Y-105378571D01*
X62207143Y-105378571D01*
X62707143Y-105378571D02*
X62707143Y-103878571D01*
X63350000Y-105378571D02*
X63350000Y-104592857D01*
X63278571Y-104450000D01*
X63135714Y-104378571D01*
X62921429Y-104378571D01*
X62778571Y-104450000D01*
X62707143Y-104521429D01*
X84878572Y-121600000D02*
X84735715Y-121528571D01*
X84521429Y-121528571D01*
X84307144Y-121600000D01*
X84164286Y-121742857D01*
X84092858Y-121885714D01*
X84021429Y-122171429D01*
X84021429Y-122385714D01*
X84092858Y-122671429D01*
X84164286Y-122814286D01*
X84307144Y-122957143D01*
X84521429Y-123028571D01*
X84664286Y-123028571D01*
X84878572Y-122957143D01*
X84950001Y-122885714D01*
X84950001Y-122385714D01*
X84664286Y-122385714D01*
X85592858Y-123028571D02*
X85592858Y-121528571D01*
X86164286Y-121528571D01*
X86307144Y-121600000D01*
X86378572Y-121671429D01*
X86450001Y-121814286D01*
X86450001Y-122028571D01*
X86378572Y-122171429D01*
X86307144Y-122242857D01*
X86164286Y-122314286D01*
X85592858Y-122314286D01*
X87021429Y-122957143D02*
X87235715Y-123028571D01*
X87592858Y-123028571D01*
X87735715Y-122957143D01*
X87807144Y-122885714D01*
X87878572Y-122742857D01*
X87878572Y-122600000D01*
X87807144Y-122457143D01*
X87735715Y-122385714D01*
X87592858Y-122314286D01*
X87307144Y-122242857D01*
X87164286Y-122171429D01*
X87092858Y-122100000D01*
X87021429Y-121957143D01*
X87021429Y-121814286D01*
X87092858Y-121671429D01*
X87164286Y-121600000D01*
X87307144Y-121528571D01*
X87664286Y-121528571D01*
X87878572Y-121600000D01*
X132803571Y-112257143D02*
X132803571Y-111400000D01*
X134303571Y-111828571D02*
X132803571Y-111828571D01*
X134303571Y-110900000D02*
X133303571Y-110900000D01*
X132803571Y-110900000D02*
X132875000Y-110971429D01*
X132946429Y-110900000D01*
X132875000Y-110828572D01*
X132803571Y-110900000D01*
X132946429Y-110900000D01*
X134303571Y-110185714D02*
X133303571Y-110185714D01*
X133446429Y-110185714D02*
X133375000Y-110114286D01*
X133303571Y-109971428D01*
X133303571Y-109757143D01*
X133375000Y-109614286D01*
X133517857Y-109542857D01*
X134303571Y-109542857D01*
X133517857Y-109542857D02*
X133375000Y-109471428D01*
X133303571Y-109328571D01*
X133303571Y-109114286D01*
X133375000Y-108971428D01*
X133517857Y-108900000D01*
X134303571Y-108900000D01*
X134232143Y-107614286D02*
X134303571Y-107757143D01*
X134303571Y-108042857D01*
X134232143Y-108185714D01*
X134089286Y-108257143D01*
X133517857Y-108257143D01*
X133375000Y-108185714D01*
X133303571Y-108042857D01*
X133303571Y-107757143D01*
X133375000Y-107614286D01*
X133517857Y-107542857D01*
X133660714Y-107542857D01*
X133803571Y-108257143D01*
X134303571Y-105542857D02*
X134232143Y-105685715D01*
X134160714Y-105757143D01*
X134017857Y-105828572D01*
X133589286Y-105828572D01*
X133446429Y-105757143D01*
X133375000Y-105685715D01*
X133303571Y-105542857D01*
X133303571Y-105328572D01*
X133375000Y-105185715D01*
X133446429Y-105114286D01*
X133589286Y-105042857D01*
X134017857Y-105042857D01*
X134160714Y-105114286D01*
X134232143Y-105185715D01*
X134303571Y-105328572D01*
X134303571Y-105542857D01*
X133303571Y-104614286D02*
X133303571Y-104042857D01*
X134303571Y-104400000D02*
X133017857Y-104400000D01*
X132875000Y-104328572D01*
X132803571Y-104185714D01*
X132803571Y-104042857D01*
X136067857Y-110471428D02*
X136067857Y-110971428D01*
X136853571Y-110971428D02*
X135353571Y-110971428D01*
X135353571Y-110257142D01*
X136853571Y-109471428D02*
X136782143Y-109614286D01*
X136639286Y-109685714D01*
X135353571Y-109685714D01*
X136853571Y-108900000D02*
X135853571Y-108900000D01*
X135353571Y-108900000D02*
X135425000Y-108971429D01*
X135496429Y-108900000D01*
X135425000Y-108828572D01*
X135353571Y-108900000D01*
X135496429Y-108900000D01*
X135853571Y-107542857D02*
X137067857Y-107542857D01*
X137210714Y-107614286D01*
X137282143Y-107685714D01*
X137353571Y-107828571D01*
X137353571Y-108042857D01*
X137282143Y-108185714D01*
X136782143Y-107542857D02*
X136853571Y-107685714D01*
X136853571Y-107971428D01*
X136782143Y-108114286D01*
X136710714Y-108185714D01*
X136567857Y-108257143D01*
X136139286Y-108257143D01*
X135996429Y-108185714D01*
X135925000Y-108114286D01*
X135853571Y-107971428D01*
X135853571Y-107685714D01*
X135925000Y-107542857D01*
X136853571Y-106828571D02*
X135353571Y-106828571D01*
X136853571Y-106185714D02*
X136067857Y-106185714D01*
X135925000Y-106257143D01*
X135853571Y-106400000D01*
X135853571Y-106614285D01*
X135925000Y-106757143D01*
X135996429Y-106828571D01*
X135853571Y-105685714D02*
X135853571Y-105114285D01*
X135353571Y-105471428D02*
X136639286Y-105471428D01*
X136782143Y-105400000D01*
X136853571Y-105257142D01*
X136853571Y-105114285D01*
X121503571Y-145792857D02*
X120003571Y-145792857D01*
X121503571Y-145078571D02*
X120003571Y-145078571D01*
X121075000Y-144578571D01*
X120003571Y-144078571D01*
X121503571Y-144078571D01*
X120003571Y-143364285D02*
X121217857Y-143364285D01*
X121360714Y-143292857D01*
X121432143Y-143221428D01*
X121503571Y-143078571D01*
X121503571Y-142792857D01*
X121432143Y-142649999D01*
X121360714Y-142578571D01*
X121217857Y-142507142D01*
X120003571Y-142507142D01*
X123267857Y-146935714D02*
X123339286Y-146721428D01*
X123410714Y-146650000D01*
X123553571Y-146578571D01*
X123767857Y-146578571D01*
X123910714Y-146650000D01*
X123982143Y-146721428D01*
X124053571Y-146864286D01*
X124053571Y-147435714D01*
X122553571Y-147435714D01*
X122553571Y-146935714D01*
X122625000Y-146792857D01*
X122696429Y-146721428D01*
X122839286Y-146650000D01*
X122982143Y-146650000D01*
X123125000Y-146721428D01*
X123196429Y-146792857D01*
X123267857Y-146935714D01*
X123267857Y-147435714D01*
X124053571Y-145221428D02*
X124053571Y-145935714D01*
X122553571Y-145935714D01*
X122553571Y-144435714D02*
X122553571Y-144150000D01*
X122625000Y-144007142D01*
X122767857Y-143864285D01*
X123053571Y-143792857D01*
X123553571Y-143792857D01*
X123839286Y-143864285D01*
X123982143Y-144007142D01*
X124053571Y-144150000D01*
X124053571Y-144435714D01*
X123982143Y-144578571D01*
X123839286Y-144721428D01*
X123553571Y-144792857D01*
X123053571Y-144792857D01*
X122767857Y-144721428D01*
X122625000Y-144578571D01*
X122553571Y-144435714D01*
X123910714Y-142292856D02*
X123982143Y-142364285D01*
X124053571Y-142578571D01*
X124053571Y-142721428D01*
X123982143Y-142935713D01*
X123839286Y-143078571D01*
X123696429Y-143149999D01*
X123410714Y-143221428D01*
X123196429Y-143221428D01*
X122910714Y-143149999D01*
X122767857Y-143078571D01*
X122625000Y-142935713D01*
X122553571Y-142721428D01*
X122553571Y-142578571D01*
X122625000Y-142364285D01*
X122696429Y-142292856D01*
X124053571Y-141649999D02*
X122553571Y-141649999D01*
X124053571Y-140792856D02*
X123196429Y-141435713D01*
X122553571Y-140792856D02*
X123410714Y-141649999D01*
X111450000Y-161278572D02*
X111450000Y-160564286D01*
X111878571Y-161421429D02*
X110378571Y-160921429D01*
X111878571Y-160421429D01*
X111878571Y-159921429D02*
X110378571Y-159921429D01*
X111878571Y-159064286D01*
X110378571Y-159064286D01*
X111450000Y-158421429D02*
X111450000Y-157707143D01*
X111878571Y-158564286D02*
X110378571Y-158064286D01*
X111878571Y-157564286D01*
X111878571Y-156350000D02*
X111878571Y-157064286D01*
X110378571Y-157064286D01*
X110378571Y-155564286D02*
X110378571Y-155278572D01*
X110450000Y-155135714D01*
X110592857Y-154992857D01*
X110878571Y-154921429D01*
X111378571Y-154921429D01*
X111664286Y-154992857D01*
X111807143Y-155135714D01*
X111878571Y-155278572D01*
X111878571Y-155564286D01*
X111807143Y-155707143D01*
X111664286Y-155850000D01*
X111378571Y-155921429D01*
X110878571Y-155921429D01*
X110592857Y-155850000D01*
X110450000Y-155707143D01*
X110378571Y-155564286D01*
X110450000Y-153492857D02*
X110378571Y-153635714D01*
X110378571Y-153850000D01*
X110450000Y-154064285D01*
X110592857Y-154207143D01*
X110735714Y-154278571D01*
X111021429Y-154350000D01*
X111235714Y-154350000D01*
X111521429Y-154278571D01*
X111664286Y-154207143D01*
X111807143Y-154064285D01*
X111878571Y-153850000D01*
X111878571Y-153707143D01*
X111807143Y-153492857D01*
X111735714Y-153421428D01*
X111235714Y-153421428D01*
X111235714Y-153707143D01*
X82907143Y-153028571D02*
X82907143Y-154242857D01*
X82978571Y-154385714D01*
X83050000Y-154457143D01*
X83192857Y-154528571D01*
X83478571Y-154528571D01*
X83621429Y-154457143D01*
X83692857Y-154385714D01*
X83764286Y-154242857D01*
X83764286Y-153028571D01*
X84407143Y-154457143D02*
X84621429Y-154528571D01*
X84978572Y-154528571D01*
X85121429Y-154457143D01*
X85192858Y-154385714D01*
X85264286Y-154242857D01*
X85264286Y-154100000D01*
X85192858Y-153957143D01*
X85121429Y-153885714D01*
X84978572Y-153814286D01*
X84692858Y-153742857D01*
X84550000Y-153671429D01*
X84478572Y-153600000D01*
X84407143Y-153457143D01*
X84407143Y-153314286D01*
X84478572Y-153171429D01*
X84550000Y-153100000D01*
X84692858Y-153028571D01*
X85050000Y-153028571D01*
X85264286Y-153100000D01*
X86407143Y-153742857D02*
X86621429Y-153814286D01*
X86692857Y-153885714D01*
X86764286Y-154028571D01*
X86764286Y-154242857D01*
X86692857Y-154385714D01*
X86621429Y-154457143D01*
X86478571Y-154528571D01*
X85907143Y-154528571D01*
X85907143Y-153028571D01*
X86407143Y-153028571D01*
X86550000Y-153100000D01*
X86621429Y-153171429D01*
X86692857Y-153314286D01*
X86692857Y-153457143D01*
X86621429Y-153600000D01*
X86550000Y-153671429D01*
X86407143Y-153742857D01*
X85907143Y-153742857D01*
X44935714Y-149678571D02*
X44935714Y-148178571D01*
X45507142Y-148178571D01*
X45650000Y-148250000D01*
X45721428Y-148321429D01*
X45792857Y-148464286D01*
X45792857Y-148678571D01*
X45721428Y-148821429D01*
X45650000Y-148892857D01*
X45507142Y-148964286D01*
X44935714Y-148964286D01*
X46721428Y-148178571D02*
X47007142Y-148178571D01*
X47150000Y-148250000D01*
X47292857Y-148392857D01*
X47364285Y-148678571D01*
X47364285Y-149178571D01*
X47292857Y-149464286D01*
X47150000Y-149607143D01*
X47007142Y-149678571D01*
X46721428Y-149678571D01*
X46578571Y-149607143D01*
X46435714Y-149464286D01*
X46364285Y-149178571D01*
X46364285Y-148678571D01*
X46435714Y-148392857D01*
X46578571Y-148250000D01*
X46721428Y-148178571D01*
X47864286Y-148178571D02*
X48221429Y-149678571D01*
X48507143Y-148607143D01*
X48792857Y-149678571D01*
X49150000Y-148178571D01*
X49721429Y-148892857D02*
X50221429Y-148892857D01*
X50435715Y-149678571D02*
X49721429Y-149678571D01*
X49721429Y-148178571D01*
X50435715Y-148178571D01*
X51935715Y-149678571D02*
X51435715Y-148964286D01*
X51078572Y-149678571D02*
X51078572Y-148178571D01*
X51650000Y-148178571D01*
X51792858Y-148250000D01*
X51864286Y-148321429D01*
X51935715Y-148464286D01*
X51935715Y-148678571D01*
X51864286Y-148821429D01*
X51792858Y-148892857D01*
X51650000Y-148964286D01*
X51078572Y-148964286D01*
X99602380Y-117559524D02*
X99888095Y-117654762D01*
X100364285Y-117654762D01*
X100554761Y-117559524D01*
X100649999Y-117464286D01*
X100745238Y-117273810D01*
X100745238Y-117083333D01*
X100649999Y-116892857D01*
X100554761Y-116797619D01*
X100364285Y-116702381D01*
X99983333Y-116607143D01*
X99792857Y-116511905D01*
X99697618Y-116416667D01*
X99602380Y-116226190D01*
X99602380Y-116035714D01*
X99697618Y-115845238D01*
X99792857Y-115750000D01*
X99983333Y-115654762D01*
X100459523Y-115654762D01*
X100745238Y-115750000D01*
X101507142Y-117083333D02*
X102459523Y-117083333D01*
X101316666Y-117654762D02*
X101983333Y-115654762D01*
X102650000Y-117654762D01*
X103316666Y-117654762D02*
X103316666Y-115654762D01*
X105221428Y-117654762D02*
X104269047Y-117654762D01*
X104269047Y-115654762D01*
X106269048Y-115654762D02*
X106650000Y-115654762D01*
X106840476Y-115750000D01*
X107030953Y-115940476D01*
X107126191Y-116321429D01*
X107126191Y-116988095D01*
X107030953Y-117369048D01*
X106840476Y-117559524D01*
X106650000Y-117654762D01*
X106269048Y-117654762D01*
X106078572Y-117559524D01*
X105888095Y-117369048D01*
X105792857Y-116988095D01*
X105792857Y-116321429D01*
X105888095Y-115940476D01*
X106078572Y-115750000D01*
X106269048Y-115654762D01*
X109126191Y-117654762D02*
X108459524Y-116702381D01*
X107983333Y-117654762D02*
X107983333Y-115654762D01*
X108745238Y-115654762D01*
X108935714Y-115750000D01*
X109030953Y-115845238D01*
X109126191Y-116035714D01*
X109126191Y-116321429D01*
X109030953Y-116511905D01*
X108935714Y-116607143D01*
X108745238Y-116702381D01*
X107983333Y-116702381D01*
X109888095Y-117083333D02*
X110840476Y-117083333D01*
X109697619Y-117654762D02*
X110364286Y-115654762D01*
X111030953Y-117654762D01*
X111697619Y-117654762D02*
X111697619Y-115654762D01*
X112650000Y-117654762D02*
X112650000Y-115654762D01*
X113126191Y-115654762D01*
X113411905Y-115750000D01*
X113602381Y-115940476D01*
X113697620Y-116130952D01*
X113792858Y-116511905D01*
X113792858Y-116797619D01*
X113697620Y-117178571D01*
X113602381Y-117369048D01*
X113411905Y-117559524D01*
X113126191Y-117654762D01*
X112650000Y-117654762D01*
X117316668Y-117654762D02*
X116650001Y-116702381D01*
X116173810Y-117654762D02*
X116173810Y-115654762D01*
X116935715Y-115654762D01*
X117126191Y-115750000D01*
X117221430Y-115845238D01*
X117316668Y-116035714D01*
X117316668Y-116321429D01*
X117221430Y-116511905D01*
X117126191Y-116607143D01*
X116935715Y-116702381D01*
X116173810Y-116702381D01*
X118173810Y-116607143D02*
X118840477Y-116607143D01*
X119126191Y-117654762D02*
X118173810Y-117654762D01*
X118173810Y-115654762D01*
X119126191Y-115654762D01*
X119697620Y-115654762D02*
X120364287Y-117654762D01*
X121030954Y-115654762D01*
X121697620Y-117464286D02*
X121792859Y-117559524D01*
X121697620Y-117654762D01*
X121602382Y-117559524D01*
X121697620Y-117464286D01*
X121697620Y-117654762D01*
X122554763Y-115845238D02*
X122650001Y-115750000D01*
X122840478Y-115654762D01*
X123316668Y-115654762D01*
X123507144Y-115750000D01*
X123602382Y-115845238D01*
X123697621Y-116035714D01*
X123697621Y-116226190D01*
X123602382Y-116511905D01*
X122459525Y-117654762D01*
X123697621Y-117654762D01*
D11*
X110152381Y-165638095D02*
X110152381Y-165019047D01*
X110533333Y-165352381D01*
X110533333Y-165209523D01*
X110580952Y-165114285D01*
X110628571Y-165066666D01*
X110723810Y-165019047D01*
X110961905Y-165019047D01*
X111057143Y-165066666D01*
X111104762Y-165114285D01*
X111152381Y-165209523D01*
X111152381Y-165495238D01*
X111104762Y-165590476D01*
X111057143Y-165638095D01*
X110152381Y-164733333D02*
X111152381Y-164400000D01*
X110152381Y-164066666D01*
X110152381Y-163828571D02*
X110152381Y-163209523D01*
X110533333Y-163542857D01*
X110533333Y-163399999D01*
X110580952Y-163304761D01*
X110628571Y-163257142D01*
X110723810Y-163209523D01*
X110961905Y-163209523D01*
X111057143Y-163257142D01*
X111104762Y-163304761D01*
X111152381Y-163399999D01*
X111152381Y-163685714D01*
X111104762Y-163780952D01*
X111057143Y-163828571D01*
X110250000Y-166738095D02*
X110202381Y-166833333D01*
X110202381Y-166976190D01*
X110250000Y-167119048D01*
X110345238Y-167214286D01*
X110440476Y-167261905D01*
X110630952Y-167309524D01*
X110773810Y-167309524D01*
X110964286Y-167261905D01*
X111059524Y-167214286D01*
X111154762Y-167119048D01*
X111202381Y-166976190D01*
X111202381Y-166880952D01*
X111154762Y-166738095D01*
X111107143Y-166690476D01*
X110773810Y-166690476D01*
X110773810Y-166880952D01*
X110152381Y-169790476D02*
X110152381Y-170266667D01*
X110628571Y-170314286D01*
X110580952Y-170266667D01*
X110533333Y-170171429D01*
X110533333Y-169933333D01*
X110580952Y-169838095D01*
X110628571Y-169790476D01*
X110723810Y-169742857D01*
X110961905Y-169742857D01*
X111057143Y-169790476D01*
X111104762Y-169838095D01*
X111152381Y-169933333D01*
X111152381Y-170171429D01*
X111104762Y-170266667D01*
X111057143Y-170314286D01*
X110152381Y-169457143D02*
X111152381Y-169123810D01*
X110152381Y-168790476D01*
D12*
X59800000Y-123350000D02*
X59800000Y-124400000D01*
D11*
X61716667Y-123735714D02*
X61678572Y-123773810D01*
X61564286Y-123811905D01*
X61488096Y-123811905D01*
X61373810Y-123773810D01*
X61297619Y-123697619D01*
X61259524Y-123621429D01*
X61221429Y-123469048D01*
X61221429Y-123354762D01*
X61259524Y-123202381D01*
X61297619Y-123126190D01*
X61373810Y-123050000D01*
X61488096Y-123011905D01*
X61564286Y-123011905D01*
X61678572Y-123050000D01*
X61716667Y-123088095D01*
X62021429Y-123773810D02*
X62135715Y-123811905D01*
X62326191Y-123811905D01*
X62402381Y-123773810D01*
X62440477Y-123735714D01*
X62478572Y-123659524D01*
X62478572Y-123583333D01*
X62440477Y-123507143D01*
X62402381Y-123469048D01*
X62326191Y-123430952D01*
X62173810Y-123392857D01*
X62097619Y-123354762D01*
X62059524Y-123316667D01*
X62021429Y-123240476D01*
X62021429Y-123164286D01*
X62059524Y-123088095D01*
X62097619Y-123050000D01*
X62173810Y-123011905D01*
X62364286Y-123011905D01*
X62478572Y-123050000D01*
D12*
X59400000Y-122950000D02*
X59400000Y-121550000D01*
X59800000Y-123350000D02*
X59400000Y-122950000D01*
D11*
X59592857Y-125511905D02*
X59592857Y-124711905D01*
X59859524Y-125283333D01*
X60126191Y-124711905D01*
X60126191Y-125511905D01*
X60507143Y-125511905D02*
X60507143Y-124711905D01*
X60850000Y-125473810D02*
X60964286Y-125511905D01*
X61154762Y-125511905D01*
X61230952Y-125473810D01*
X61269048Y-125435714D01*
X61307143Y-125359524D01*
X61307143Y-125283333D01*
X61269048Y-125207143D01*
X61230952Y-125169048D01*
X61154762Y-125130952D01*
X61002381Y-125092857D01*
X60926190Y-125054762D01*
X60888095Y-125016667D01*
X60850000Y-124940476D01*
X60850000Y-124864286D01*
X60888095Y-124788095D01*
X60926190Y-124750000D01*
X61002381Y-124711905D01*
X61192857Y-124711905D01*
X61307143Y-124750000D01*
X61802381Y-124711905D02*
X61954762Y-124711905D01*
X62030953Y-124750000D01*
X62107143Y-124826190D01*
X62145238Y-124978571D01*
X62145238Y-125245238D01*
X62107143Y-125397619D01*
X62030953Y-125473810D01*
X61954762Y-125511905D01*
X61802381Y-125511905D01*
X61726191Y-125473810D01*
X61650000Y-125397619D01*
X61611905Y-125245238D01*
X61611905Y-124978571D01*
X61650000Y-124826190D01*
X61726191Y-124750000D01*
X61802381Y-124711905D01*
X57592857Y-129511905D02*
X57592857Y-128711905D01*
X57859524Y-129283333D01*
X58126191Y-128711905D01*
X58126191Y-129511905D01*
X58659524Y-128711905D02*
X58811905Y-128711905D01*
X58888096Y-128750000D01*
X58964286Y-128826190D01*
X59002381Y-128978571D01*
X59002381Y-129245238D01*
X58964286Y-129397619D01*
X58888096Y-129473810D01*
X58811905Y-129511905D01*
X58659524Y-129511905D01*
X58583334Y-129473810D01*
X58507143Y-129397619D01*
X58469048Y-129245238D01*
X58469048Y-128978571D01*
X58507143Y-128826190D01*
X58583334Y-128750000D01*
X58659524Y-128711905D01*
X59307143Y-129473810D02*
X59421429Y-129511905D01*
X59611905Y-129511905D01*
X59688095Y-129473810D01*
X59726191Y-129435714D01*
X59764286Y-129359524D01*
X59764286Y-129283333D01*
X59726191Y-129207143D01*
X59688095Y-129169048D01*
X59611905Y-129130952D01*
X59459524Y-129092857D01*
X59383333Y-129054762D01*
X59345238Y-129016667D01*
X59307143Y-128940476D01*
X59307143Y-128864286D01*
X59345238Y-128788095D01*
X59383333Y-128750000D01*
X59459524Y-128711905D01*
X59650000Y-128711905D01*
X59764286Y-128750000D01*
X60107143Y-129511905D02*
X60107143Y-128711905D01*
X55923810Y-129435714D02*
X55885715Y-129473810D01*
X55771429Y-129511905D01*
X55695239Y-129511905D01*
X55580953Y-129473810D01*
X55504762Y-129397619D01*
X55466667Y-129321429D01*
X55428572Y-129169048D01*
X55428572Y-129054762D01*
X55466667Y-128902381D01*
X55504762Y-128826190D01*
X55580953Y-128750000D01*
X55695239Y-128711905D01*
X55771429Y-128711905D01*
X55885715Y-128750000D01*
X55923810Y-128788095D01*
X56647620Y-129511905D02*
X56266667Y-129511905D01*
X56266667Y-128711905D01*
X52280953Y-129511905D02*
X52280953Y-128711905D01*
X53119048Y-129511905D02*
X52852381Y-129130952D01*
X52661905Y-129511905D02*
X52661905Y-128711905D01*
X52966667Y-128711905D01*
X53042858Y-128750000D01*
X53080953Y-128788095D01*
X53119048Y-128864286D01*
X53119048Y-128978571D01*
X53080953Y-129054762D01*
X53042858Y-129092857D01*
X52966667Y-129130952D01*
X52661905Y-129130952D01*
X53995239Y-129588095D02*
X53919048Y-129550000D01*
X53842858Y-129473810D01*
X53728572Y-129359524D01*
X53652381Y-129321429D01*
X53576191Y-129321429D01*
X53614286Y-129511905D02*
X53538096Y-129473810D01*
X53461905Y-129397619D01*
X53423810Y-129245238D01*
X53423810Y-128978571D01*
X53461905Y-128826190D01*
X53538096Y-128750000D01*
X53614286Y-128711905D01*
X53766667Y-128711905D01*
X53842858Y-128750000D01*
X53919048Y-128826190D01*
X53957143Y-128978571D01*
X53957143Y-129245238D01*
X53919048Y-129397619D01*
X53842858Y-129473810D01*
X53766667Y-129511905D01*
X53614286Y-129511905D01*
D12*
X58850000Y-123500000D02*
X58850000Y-128350000D01*
X56850000Y-121500000D02*
X58850000Y-123500000D01*
X53100000Y-123200000D02*
X53100000Y-128350000D01*
X51550000Y-121650000D02*
X53100000Y-123200000D01*
X56000000Y-123350000D02*
X56000000Y-128350000D01*
X54300000Y-121650000D02*
X56000000Y-123350000D01*
D11*
X109897619Y-149204762D02*
X109897619Y-148728571D01*
X110897619Y-148728571D01*
X109992857Y-150109524D02*
X109945238Y-150061905D01*
X109897619Y-149919048D01*
X109897619Y-149823810D01*
X109945238Y-149680952D01*
X110040476Y-149585714D01*
X110135714Y-149538095D01*
X110326190Y-149490476D01*
X110469048Y-149490476D01*
X110659524Y-149538095D01*
X110754762Y-149585714D01*
X110850000Y-149680952D01*
X110897619Y-149823810D01*
X110897619Y-149919048D01*
X110850000Y-150061905D01*
X110802381Y-150109524D01*
X110183333Y-150490476D02*
X110183333Y-150966667D01*
X109897619Y-150395238D02*
X110897619Y-150728571D01*
X109897619Y-151061905D01*
X110802381Y-151347619D02*
X110850000Y-151395238D01*
X110897619Y-151490476D01*
X110897619Y-151728572D01*
X110850000Y-151823810D01*
X110802381Y-151871429D01*
X110707143Y-151919048D01*
X110611905Y-151919048D01*
X110469048Y-151871429D01*
X109897619Y-151300000D01*
X109897619Y-151919048D01*
X102002381Y-151195238D02*
X102002381Y-151671429D01*
X101002381Y-151671429D01*
X101907143Y-150290476D02*
X101954762Y-150338095D01*
X102002381Y-150480952D01*
X102002381Y-150576190D01*
X101954762Y-150719048D01*
X101859524Y-150814286D01*
X101764286Y-150861905D01*
X101573810Y-150909524D01*
X101430952Y-150909524D01*
X101240476Y-150861905D01*
X101145238Y-150814286D01*
X101050000Y-150719048D01*
X101002381Y-150576190D01*
X101002381Y-150480952D01*
X101050000Y-150338095D01*
X101097619Y-150290476D01*
X101716667Y-149909524D02*
X101716667Y-149433333D01*
X102002381Y-150004762D02*
X101002381Y-149671429D01*
X102002381Y-149338095D01*
X102002381Y-148480952D02*
X102002381Y-149052381D01*
X102002381Y-148766667D02*
X101002381Y-148766667D01*
X101145238Y-148861905D01*
X101240476Y-148957143D01*
X101288095Y-149052381D01*
X57911905Y-149950000D02*
X57816667Y-149902381D01*
X57673810Y-149902381D01*
X57530952Y-149950000D01*
X57435714Y-150045238D01*
X57388095Y-150140476D01*
X57340476Y-150330952D01*
X57340476Y-150473810D01*
X57388095Y-150664286D01*
X57435714Y-150759524D01*
X57530952Y-150854762D01*
X57673810Y-150902381D01*
X57769048Y-150902381D01*
X57911905Y-150854762D01*
X57959524Y-150807143D01*
X57959524Y-150473810D01*
X57769048Y-150473810D01*
X59011905Y-149852381D02*
X59630953Y-149852381D01*
X59297619Y-150233333D01*
X59440477Y-150233333D01*
X59535715Y-150280952D01*
X59583334Y-150328571D01*
X59630953Y-150423810D01*
X59630953Y-150661905D01*
X59583334Y-150757143D01*
X59535715Y-150804762D01*
X59440477Y-150852381D01*
X59154762Y-150852381D01*
X59059524Y-150804762D01*
X59011905Y-150757143D01*
X59916667Y-149852381D02*
X60250000Y-150852381D01*
X60583334Y-149852381D01*
X60821429Y-149852381D02*
X61440477Y-149852381D01*
X61107143Y-150233333D01*
X61250001Y-150233333D01*
X61345239Y-150280952D01*
X61392858Y-150328571D01*
X61440477Y-150423810D01*
X61440477Y-150661905D01*
X61392858Y-150757143D01*
X61345239Y-150804762D01*
X61250001Y-150852381D01*
X60964286Y-150852381D01*
X60869048Y-150804762D01*
X60821429Y-150757143D01*
X54859524Y-149852381D02*
X54383333Y-149852381D01*
X54335714Y-150328571D01*
X54383333Y-150280952D01*
X54478571Y-150233333D01*
X54716667Y-150233333D01*
X54811905Y-150280952D01*
X54859524Y-150328571D01*
X54907143Y-150423810D01*
X54907143Y-150661905D01*
X54859524Y-150757143D01*
X54811905Y-150804762D01*
X54716667Y-150852381D01*
X54478571Y-150852381D01*
X54383333Y-150804762D01*
X54335714Y-150757143D01*
X55192857Y-149852381D02*
X55526190Y-150852381D01*
X55859524Y-149852381D01*
X70428572Y-152157143D02*
X70428572Y-152800000D01*
X70385714Y-152928571D01*
X70300000Y-153014286D01*
X70171429Y-153057143D01*
X70085714Y-153057143D01*
X70857143Y-153057143D02*
X70857143Y-152157143D01*
X71200000Y-152157143D01*
X71285714Y-152200000D01*
X71328571Y-152242857D01*
X71371428Y-152328571D01*
X71371428Y-152457143D01*
X71328571Y-152542857D01*
X71285714Y-152585714D01*
X71200000Y-152628571D01*
X70857143Y-152628571D01*
X72271428Y-153057143D02*
X71971428Y-152628571D01*
X71757143Y-153057143D02*
X71757143Y-152157143D01*
X72100000Y-152157143D01*
X72185714Y-152200000D01*
X72228571Y-152242857D01*
X72271428Y-152328571D01*
X72271428Y-152457143D01*
X72228571Y-152542857D01*
X72185714Y-152585714D01*
X72100000Y-152628571D01*
X71757143Y-152628571D01*
X94833334Y-157302381D02*
X94500000Y-156826190D01*
X94261905Y-157302381D02*
X94261905Y-156302381D01*
X94642858Y-156302381D01*
X94738096Y-156350000D01*
X94785715Y-156397619D01*
X94833334Y-156492857D01*
X94833334Y-156635714D01*
X94785715Y-156730952D01*
X94738096Y-156778571D01*
X94642858Y-156826190D01*
X94261905Y-156826190D01*
X95166667Y-156302381D02*
X95833334Y-157302381D01*
X95833334Y-156302381D02*
X95166667Y-157302381D01*
X94238095Y-158852381D02*
X94809524Y-158852381D01*
X94523809Y-159852381D02*
X94523809Y-158852381D01*
X95047619Y-158852381D02*
X95714286Y-159852381D01*
X95714286Y-158852381D02*
X95047619Y-159852381D01*
X76409524Y-154302381D02*
X75933333Y-154302381D01*
X75885714Y-154778571D01*
X75933333Y-154730952D01*
X76028571Y-154683333D01*
X76266667Y-154683333D01*
X76361905Y-154730952D01*
X76409524Y-154778571D01*
X76457143Y-154873810D01*
X76457143Y-155111905D01*
X76409524Y-155207143D01*
X76361905Y-155254762D01*
X76266667Y-155302381D01*
X76028571Y-155302381D01*
X75933333Y-155254762D01*
X75885714Y-155207143D01*
X76742857Y-154302381D02*
X77076190Y-155302381D01*
X77409524Y-154302381D01*
X75811905Y-149852381D02*
X76430953Y-149852381D01*
X76097619Y-150233333D01*
X76240477Y-150233333D01*
X76335715Y-150280952D01*
X76383334Y-150328571D01*
X76430953Y-150423810D01*
X76430953Y-150661905D01*
X76383334Y-150757143D01*
X76335715Y-150804762D01*
X76240477Y-150852381D01*
X75954762Y-150852381D01*
X75859524Y-150804762D01*
X75811905Y-150757143D01*
X76716667Y-149852381D02*
X77050000Y-150852381D01*
X77383334Y-149852381D01*
X77621429Y-149852381D02*
X78240477Y-149852381D01*
X77907143Y-150233333D01*
X78050001Y-150233333D01*
X78145239Y-150280952D01*
X78192858Y-150328571D01*
X78240477Y-150423810D01*
X78240477Y-150661905D01*
X78192858Y-150757143D01*
X78145239Y-150804762D01*
X78050001Y-150852381D01*
X77764286Y-150852381D01*
X77669048Y-150804762D01*
X77621429Y-150757143D01*
X72764286Y-147507143D02*
X72764286Y-148235714D01*
X72807143Y-148321429D01*
X72850000Y-148364286D01*
X72935714Y-148407143D01*
X73107143Y-148407143D01*
X73192857Y-148364286D01*
X73235714Y-148321429D01*
X73278571Y-148235714D01*
X73278571Y-147507143D01*
X73664286Y-148364286D02*
X73792857Y-148407143D01*
X74007143Y-148407143D01*
X74092857Y-148364286D01*
X74135714Y-148321429D01*
X74178571Y-148235714D01*
X74178571Y-148150000D01*
X74135714Y-148064286D01*
X74092857Y-148021429D01*
X74007143Y-147978571D01*
X73835714Y-147935714D01*
X73750000Y-147892857D01*
X73707143Y-147850000D01*
X73664286Y-147764286D01*
X73664286Y-147678571D01*
X73707143Y-147592857D01*
X73750000Y-147550000D01*
X73835714Y-147507143D01*
X74050000Y-147507143D01*
X74178571Y-147550000D01*
X74864286Y-147935714D02*
X74992857Y-147978571D01*
X75035714Y-148021429D01*
X75078571Y-148107143D01*
X75078571Y-148235714D01*
X75035714Y-148321429D01*
X74992857Y-148364286D01*
X74907143Y-148407143D01*
X74564286Y-148407143D01*
X74564286Y-147507143D01*
X74864286Y-147507143D01*
X74950000Y-147550000D01*
X74992857Y-147592857D01*
X75035714Y-147678571D01*
X75035714Y-147764286D01*
X74992857Y-147850000D01*
X74950000Y-147892857D01*
X74864286Y-147935714D01*
X74564286Y-147935714D01*
X66842857Y-148164286D02*
X66971428Y-148207143D01*
X67185714Y-148207143D01*
X67271428Y-148164286D01*
X67314285Y-148121429D01*
X67357142Y-148035714D01*
X67357142Y-147950000D01*
X67314285Y-147864286D01*
X67271428Y-147821429D01*
X67185714Y-147778571D01*
X67014285Y-147735714D01*
X66928571Y-147692857D01*
X66885714Y-147650000D01*
X66842857Y-147564286D01*
X66842857Y-147478571D01*
X66885714Y-147392857D01*
X66928571Y-147350000D01*
X67014285Y-147307143D01*
X67228571Y-147307143D01*
X67357142Y-147350000D01*
X68128571Y-147607143D02*
X68128571Y-148207143D01*
X67742857Y-147607143D02*
X67742857Y-148078571D01*
X67785714Y-148164286D01*
X67871428Y-148207143D01*
X68000000Y-148207143D01*
X68085714Y-148164286D01*
X68128571Y-148121429D01*
X68557143Y-147607143D02*
X68557143Y-148507143D01*
X68557143Y-147650000D02*
X68642857Y-147607143D01*
X68814286Y-147607143D01*
X68900000Y-147650000D01*
X68942857Y-147692857D01*
X68985714Y-147778571D01*
X68985714Y-148035714D01*
X68942857Y-148121429D01*
X68900000Y-148164286D01*
X68814286Y-148207143D01*
X68642857Y-148207143D01*
X68557143Y-148164286D01*
X69371429Y-147607143D02*
X69371429Y-148507143D01*
X69371429Y-147650000D02*
X69457143Y-147607143D01*
X69628572Y-147607143D01*
X69714286Y-147650000D01*
X69757143Y-147692857D01*
X69800000Y-147778571D01*
X69800000Y-148035714D01*
X69757143Y-148121429D01*
X69714286Y-148164286D01*
X69628572Y-148207143D01*
X69457143Y-148207143D01*
X69371429Y-148164286D01*
X70314286Y-148207143D02*
X70228572Y-148164286D01*
X70185715Y-148078571D01*
X70185715Y-147307143D01*
X70571429Y-147607143D02*
X70785715Y-148207143D01*
X71000001Y-147607143D02*
X70785715Y-148207143D01*
X70700001Y-148421429D01*
X70657144Y-148464286D01*
X70571429Y-148507143D01*
D12*
X68850000Y-156600000D02*
X68850000Y-148600000D01*
X73900000Y-156600000D02*
X73900000Y-148650000D01*
D11*
X75997619Y-138411905D02*
X75997619Y-137611905D01*
X76188095Y-137611905D01*
X76302381Y-137650000D01*
X76378572Y-137726190D01*
X76416667Y-137802381D01*
X76454762Y-137954762D01*
X76454762Y-138069048D01*
X76416667Y-138221429D01*
X76378572Y-138297619D01*
X76302381Y-138373810D01*
X76188095Y-138411905D01*
X75997619Y-138411905D01*
X77254762Y-138411905D02*
X76988095Y-138030952D01*
X76797619Y-138411905D02*
X76797619Y-137611905D01*
X77102381Y-137611905D01*
X77178572Y-137650000D01*
X77216667Y-137688095D01*
X77254762Y-137764286D01*
X77254762Y-137878571D01*
X77216667Y-137954762D01*
X77178572Y-137992857D01*
X77102381Y-138030952D01*
X76797619Y-138030952D01*
X77597619Y-138411905D02*
X77597619Y-137611905D01*
X77788095Y-137611905D01*
X77902381Y-137650000D01*
X77978572Y-137726190D01*
X78016667Y-137802381D01*
X78054762Y-137954762D01*
X78054762Y-138069048D01*
X78016667Y-138221429D01*
X77978572Y-138297619D01*
X77902381Y-138373810D01*
X77788095Y-138411905D01*
X77597619Y-138411905D01*
X78550000Y-138030952D02*
X78550000Y-138411905D01*
X78283333Y-137611905D02*
X78550000Y-138030952D01*
X78816667Y-137611905D01*
X61161905Y-135802381D02*
X60361905Y-135802381D01*
X60361905Y-135611905D01*
X60400000Y-135497619D01*
X60476190Y-135421428D01*
X60552381Y-135383333D01*
X60704762Y-135345238D01*
X60819048Y-135345238D01*
X60971429Y-135383333D01*
X61047619Y-135421428D01*
X61123810Y-135497619D01*
X61161905Y-135611905D01*
X61161905Y-135802381D01*
X61161905Y-134545238D02*
X60780952Y-134811905D01*
X61161905Y-135002381D02*
X60361905Y-135002381D01*
X60361905Y-134697619D01*
X60400000Y-134621428D01*
X60438095Y-134583333D01*
X60514286Y-134545238D01*
X60628571Y-134545238D01*
X60704762Y-134583333D01*
X60742857Y-134621428D01*
X60780952Y-134697619D01*
X60780952Y-135002381D01*
X61161905Y-134202381D02*
X60361905Y-134202381D01*
X60361905Y-134011905D01*
X60400000Y-133897619D01*
X60476190Y-133821428D01*
X60552381Y-133783333D01*
X60704762Y-133745238D01*
X60819048Y-133745238D01*
X60971429Y-133783333D01*
X61047619Y-133821428D01*
X61123810Y-133897619D01*
X61161905Y-134011905D01*
X61161905Y-134202381D01*
X60780952Y-133250000D02*
X61161905Y-133250000D01*
X60361905Y-133516667D02*
X60780952Y-133250000D01*
X60361905Y-132983333D01*
X61164286Y-138664285D02*
X61207143Y-138535714D01*
X61207143Y-138321428D01*
X61164286Y-138235714D01*
X61121429Y-138192857D01*
X61035714Y-138150000D01*
X60950000Y-138150000D01*
X60864286Y-138192857D01*
X60821429Y-138235714D01*
X60778571Y-138321428D01*
X60735714Y-138492857D01*
X60692857Y-138578571D01*
X60650000Y-138621428D01*
X60564286Y-138664285D01*
X60478571Y-138664285D01*
X60392857Y-138621428D01*
X60350000Y-138578571D01*
X60307143Y-138492857D01*
X60307143Y-138278571D01*
X60350000Y-138150000D01*
X60950000Y-137807142D02*
X60950000Y-137378571D01*
X61207143Y-137892857D02*
X60307143Y-137592857D01*
X61207143Y-137292857D01*
X60307143Y-136821428D02*
X60307143Y-136649999D01*
X60350000Y-136564285D01*
X60435714Y-136478571D01*
X60607143Y-136435713D01*
X60907143Y-136435713D01*
X61078571Y-136478571D01*
X61164286Y-136564285D01*
X61207143Y-136649999D01*
X61207143Y-136821428D01*
X61164286Y-136907142D01*
X61078571Y-136992856D01*
X60907143Y-137035713D01*
X60607143Y-137035713D01*
X60435714Y-136992856D01*
X60350000Y-136907142D01*
X60307143Y-136821428D01*
X71035715Y-128357143D02*
X71035715Y-127457143D01*
X71035715Y-127885714D02*
X71550000Y-127885714D01*
X71550000Y-128357143D02*
X71550000Y-127457143D01*
X71850000Y-127457143D02*
X72364286Y-127457143D01*
X72107143Y-128357143D02*
X72107143Y-127457143D01*
X72621429Y-128314286D02*
X72750000Y-128357143D01*
X72964286Y-128357143D01*
X73050000Y-128314286D01*
X73092857Y-128271429D01*
X73135714Y-128185714D01*
X73135714Y-128100000D01*
X73092857Y-128014286D01*
X73050000Y-127971429D01*
X72964286Y-127928571D01*
X72792857Y-127885714D01*
X72707143Y-127842857D01*
X72664286Y-127800000D01*
X72621429Y-127714286D01*
X72621429Y-127628571D01*
X72664286Y-127542857D01*
X72707143Y-127500000D01*
X72792857Y-127457143D01*
X73007143Y-127457143D01*
X73135714Y-127500000D01*
X73478572Y-127542857D02*
X73521429Y-127500000D01*
X73607143Y-127457143D01*
X73821429Y-127457143D01*
X73907143Y-127500000D01*
X73950000Y-127542857D01*
X73992857Y-127628571D01*
X73992857Y-127714286D01*
X73950000Y-127842857D01*
X73435714Y-128357143D01*
X73992857Y-128357143D01*
X74335715Y-127542857D02*
X74378572Y-127500000D01*
X74464286Y-127457143D01*
X74678572Y-127457143D01*
X74764286Y-127500000D01*
X74807143Y-127542857D01*
X74850000Y-127628571D01*
X74850000Y-127714286D01*
X74807143Y-127842857D01*
X74292857Y-128357143D01*
X74850000Y-128357143D01*
X75707143Y-128357143D02*
X75192858Y-128357143D01*
X75450000Y-128357143D02*
X75450000Y-127457143D01*
X75364286Y-127585714D01*
X75278572Y-127671429D01*
X75192858Y-127714286D01*
X64871429Y-128357143D02*
X64442858Y-128357143D01*
X64442858Y-127457143D01*
X65171429Y-128357143D02*
X65171429Y-127457143D01*
X65514286Y-127457143D01*
X65600000Y-127500000D01*
X65642857Y-127542857D01*
X65685714Y-127628571D01*
X65685714Y-127757143D01*
X65642857Y-127842857D01*
X65600000Y-127885714D01*
X65514286Y-127928571D01*
X65171429Y-127928571D01*
X66028572Y-128314286D02*
X66157143Y-128357143D01*
X66371429Y-128357143D01*
X66457143Y-128314286D01*
X66500000Y-128271429D01*
X66542857Y-128185714D01*
X66542857Y-128100000D01*
X66500000Y-128014286D01*
X66457143Y-127971429D01*
X66371429Y-127928571D01*
X66200000Y-127885714D01*
X66114286Y-127842857D01*
X66071429Y-127800000D01*
X66028572Y-127714286D01*
X66028572Y-127628571D01*
X66071429Y-127542857D01*
X66114286Y-127500000D01*
X66200000Y-127457143D01*
X66414286Y-127457143D01*
X66542857Y-127500000D01*
X66885715Y-127542857D02*
X66928572Y-127500000D01*
X67014286Y-127457143D01*
X67228572Y-127457143D01*
X67314286Y-127500000D01*
X67357143Y-127542857D01*
X67400000Y-127628571D01*
X67400000Y-127714286D01*
X67357143Y-127842857D01*
X66842857Y-128357143D01*
X67400000Y-128357143D01*
X67742858Y-127542857D02*
X67785715Y-127500000D01*
X67871429Y-127457143D01*
X68085715Y-127457143D01*
X68171429Y-127500000D01*
X68214286Y-127542857D01*
X68257143Y-127628571D01*
X68257143Y-127714286D01*
X68214286Y-127842857D01*
X67700000Y-128357143D01*
X68257143Y-128357143D01*
X68642858Y-128357143D02*
X68642858Y-127457143D01*
X68642858Y-127885714D02*
X69157143Y-127885714D01*
X69157143Y-128357143D02*
X69157143Y-127457143D01*
X69885715Y-127885714D02*
X70014286Y-127928571D01*
X70057143Y-127971429D01*
X70100000Y-128057143D01*
X70100000Y-128185714D01*
X70057143Y-128271429D01*
X70014286Y-128314286D01*
X69928572Y-128357143D01*
X69585715Y-128357143D01*
X69585715Y-127457143D01*
X69885715Y-127457143D01*
X69971429Y-127500000D01*
X70014286Y-127542857D01*
X70057143Y-127628571D01*
X70057143Y-127714286D01*
X70014286Y-127800000D01*
X69971429Y-127842857D01*
X69885715Y-127885714D01*
X69585715Y-127885714D01*
X131800001Y-115666667D02*
X131800001Y-114966667D01*
X131966667Y-114966667D01*
X132066667Y-115000000D01*
X132133334Y-115066667D01*
X132166667Y-115133333D01*
X132200001Y-115266667D01*
X132200001Y-115366667D01*
X132166667Y-115500000D01*
X132133334Y-115566667D01*
X132066667Y-115633333D01*
X131966667Y-115666667D01*
X131800001Y-115666667D01*
X132900001Y-115666667D02*
X132666667Y-115333333D01*
X132500001Y-115666667D02*
X132500001Y-114966667D01*
X132766667Y-114966667D01*
X132833334Y-115000000D01*
X132866667Y-115033333D01*
X132900001Y-115100000D01*
X132900001Y-115200000D01*
X132866667Y-115266667D01*
X132833334Y-115300000D01*
X132766667Y-115333333D01*
X132500001Y-115333333D01*
X133200001Y-115666667D02*
X133200001Y-114966667D01*
X133366667Y-114966667D01*
X133466667Y-115000000D01*
X133533334Y-115066667D01*
X133566667Y-115133333D01*
X133600001Y-115266667D01*
X133600001Y-115366667D01*
X133566667Y-115500000D01*
X133533334Y-115566667D01*
X133466667Y-115633333D01*
X133366667Y-115666667D01*
X133200001Y-115666667D01*
X134033334Y-115333333D02*
X134033334Y-115666667D01*
X133800001Y-114966667D02*
X134033334Y-115333333D01*
X134266667Y-114966667D01*
X135033334Y-115666667D02*
X135033334Y-114966667D01*
X135266667Y-115466667D01*
X135500000Y-114966667D01*
X135500000Y-115666667D01*
X127266668Y-115616667D02*
X127266668Y-114916667D01*
X127600001Y-115150000D02*
X127600001Y-115616667D01*
X127600001Y-115216667D02*
X127633334Y-115183333D01*
X127700001Y-115150000D01*
X127800001Y-115150000D01*
X127866667Y-115183333D01*
X127900001Y-115250000D01*
X127900001Y-115616667D01*
X128133334Y-115150000D02*
X128400000Y-115150000D01*
X128233334Y-114916667D02*
X128233334Y-115516667D01*
X128266667Y-115583333D01*
X128333334Y-115616667D01*
X128400000Y-115616667D01*
X129166667Y-115616667D02*
X129166667Y-114916667D01*
X129400000Y-115416667D01*
X129633333Y-114916667D01*
X129633333Y-115616667D01*
X136716667Y-114316667D02*
X137050001Y-114316667D01*
X136650001Y-114516667D02*
X136883334Y-113816667D01*
X137116667Y-114516667D01*
X137650001Y-114483333D02*
X137583334Y-114516667D01*
X137450001Y-114516667D01*
X137383334Y-114483333D01*
X137350001Y-114450000D01*
X137316667Y-114383333D01*
X137316667Y-114183333D01*
X137350001Y-114116667D01*
X137383334Y-114083333D01*
X137450001Y-114050000D01*
X137583334Y-114050000D01*
X137650001Y-114083333D01*
X138250001Y-114483333D02*
X138183334Y-114516667D01*
X138050001Y-114516667D01*
X137983334Y-114483333D01*
X137950001Y-114450000D01*
X137916667Y-114383333D01*
X137916667Y-114183333D01*
X137950001Y-114116667D01*
X137983334Y-114083333D01*
X138050001Y-114050000D01*
X138183334Y-114050000D01*
X138250001Y-114083333D01*
X139050001Y-113783333D02*
X138450001Y-114683333D01*
X139650000Y-113850000D02*
X139583334Y-113816667D01*
X139483334Y-113816667D01*
X139383334Y-113850000D01*
X139316667Y-113916667D01*
X139283334Y-113983333D01*
X139250000Y-114116667D01*
X139250000Y-114216667D01*
X139283334Y-114350000D01*
X139316667Y-114416667D01*
X139383334Y-114483333D01*
X139483334Y-114516667D01*
X139550000Y-114516667D01*
X139650000Y-114483333D01*
X139683334Y-114450000D01*
X139683334Y-114216667D01*
X139550000Y-114216667D01*
X139916667Y-114050000D02*
X140083334Y-114516667D01*
X140250000Y-114050000D02*
X140083334Y-114516667D01*
X140016667Y-114683333D01*
X139983334Y-114716667D01*
X139916667Y-114750000D01*
X140516667Y-114516667D02*
X140516667Y-114050000D01*
X140516667Y-114183333D02*
X140550000Y-114116667D01*
X140583333Y-114083333D01*
X140650000Y-114050000D01*
X140716667Y-114050000D01*
X141050000Y-114516667D02*
X140983333Y-114483333D01*
X140950000Y-114450000D01*
X140916666Y-114383333D01*
X140916666Y-114183333D01*
X140950000Y-114116667D01*
X140983333Y-114083333D01*
X141050000Y-114050000D01*
X141150000Y-114050000D01*
X141216666Y-114083333D01*
X141250000Y-114116667D01*
X141283333Y-114183333D01*
X141283333Y-114383333D01*
X141250000Y-114450000D01*
X141216666Y-114483333D01*
X141150000Y-114516667D01*
X141050000Y-114516667D01*
X137533334Y-115716667D02*
X137133334Y-115716667D01*
X137333334Y-115716667D02*
X137333334Y-115016667D01*
X137266668Y-115116667D01*
X137200001Y-115183333D01*
X137133334Y-115216667D01*
X138366668Y-115716667D02*
X138366668Y-115016667D01*
X138700001Y-115716667D02*
X138700001Y-115016667D01*
X139100001Y-115716667D01*
X139100001Y-115016667D01*
X139333334Y-115016667D02*
X139733334Y-115016667D01*
X139533334Y-115716667D02*
X139533334Y-115016667D01*
X140466666Y-115083333D02*
X140500000Y-115050000D01*
X140566666Y-115016667D01*
X140733333Y-115016667D01*
X140800000Y-115050000D01*
X140833333Y-115083333D01*
X140866666Y-115150000D01*
X140866666Y-115216667D01*
X140833333Y-115316667D01*
X140433333Y-115716667D01*
X140866666Y-115716667D01*
X119957143Y-124842858D02*
X119957143Y-124285715D01*
X120300000Y-124585715D01*
X120300000Y-124457143D01*
X120342857Y-124371429D01*
X120385714Y-124328572D01*
X120471429Y-124285715D01*
X120685714Y-124285715D01*
X120771429Y-124328572D01*
X120814286Y-124371429D01*
X120857143Y-124457143D01*
X120857143Y-124714286D01*
X120814286Y-124800000D01*
X120771429Y-124842858D01*
X119957143Y-123728572D02*
X119957143Y-123642857D01*
X120000000Y-123557143D01*
X120042857Y-123514286D01*
X120128571Y-123471429D01*
X120300000Y-123428572D01*
X120514286Y-123428572D01*
X120685714Y-123471429D01*
X120771429Y-123514286D01*
X120814286Y-123557143D01*
X120857143Y-123642857D01*
X120857143Y-123728572D01*
X120814286Y-123814286D01*
X120771429Y-123857143D01*
X120685714Y-123900000D01*
X120514286Y-123942857D01*
X120300000Y-123942857D01*
X120128571Y-123900000D01*
X120042857Y-123857143D01*
X120000000Y-123814286D01*
X119957143Y-123728572D01*
X119957143Y-123128572D02*
X119957143Y-122571429D01*
X120300000Y-122871429D01*
X120300000Y-122742857D01*
X120342857Y-122657143D01*
X120385714Y-122614286D01*
X120471429Y-122571429D01*
X120685714Y-122571429D01*
X120771429Y-122614286D01*
X120814286Y-122657143D01*
X120857143Y-122742857D01*
X120857143Y-123000000D01*
X120814286Y-123085714D01*
X120771429Y-123128572D01*
X120600000Y-122228571D02*
X120600000Y-121800000D01*
X120857143Y-122314286D02*
X119957143Y-122014286D01*
X120857143Y-121714286D01*
X120000000Y-120942857D02*
X119957143Y-121028571D01*
X119957143Y-121157142D01*
X120000000Y-121285714D01*
X120085714Y-121371428D01*
X120171429Y-121414285D01*
X120342857Y-121457142D01*
X120471429Y-121457142D01*
X120642857Y-121414285D01*
X120728571Y-121371428D01*
X120814286Y-121285714D01*
X120857143Y-121157142D01*
X120857143Y-121071428D01*
X120814286Y-120942857D01*
X120771429Y-120900000D01*
X120471429Y-120900000D01*
X120471429Y-121071428D01*
X120857143Y-120000000D02*
X120428571Y-120300000D01*
X120857143Y-120514285D02*
X119957143Y-120514285D01*
X119957143Y-120171428D01*
X120000000Y-120085714D01*
X120042857Y-120042857D01*
X120128571Y-120000000D01*
X120257143Y-120000000D01*
X120342857Y-120042857D01*
X120385714Y-120085714D01*
X120428571Y-120171428D01*
X120428571Y-120514285D01*
X119957143Y-129621428D02*
X119957143Y-129792857D01*
X120000000Y-129878571D01*
X120042857Y-129921428D01*
X120171429Y-130007142D01*
X120342857Y-130049999D01*
X120685714Y-130049999D01*
X120771429Y-130007142D01*
X120814286Y-129964285D01*
X120857143Y-129878571D01*
X120857143Y-129707142D01*
X120814286Y-129621428D01*
X120771429Y-129578571D01*
X120685714Y-129535714D01*
X120471429Y-129535714D01*
X120385714Y-129578571D01*
X120342857Y-129621428D01*
X120300000Y-129707142D01*
X120300000Y-129878571D01*
X120342857Y-129964285D01*
X120385714Y-130007142D01*
X120471429Y-130049999D01*
X120857143Y-129149999D02*
X119957143Y-129149999D01*
X119957143Y-128935714D01*
X120000000Y-128807142D01*
X120085714Y-128721428D01*
X120171429Y-128678571D01*
X120342857Y-128635714D01*
X120471429Y-128635714D01*
X120642857Y-128678571D01*
X120728571Y-128721428D01*
X120814286Y-128807142D01*
X120857143Y-128935714D01*
X120857143Y-129149999D01*
X120814286Y-128292856D02*
X120857143Y-128164285D01*
X120857143Y-127949999D01*
X120814286Y-127864285D01*
X120771429Y-127821428D01*
X120685714Y-127778571D01*
X120600000Y-127778571D01*
X120514286Y-127821428D01*
X120471429Y-127864285D01*
X120428571Y-127949999D01*
X120385714Y-128121428D01*
X120342857Y-128207142D01*
X120300000Y-128249999D01*
X120214286Y-128292856D01*
X120128571Y-128292856D01*
X120042857Y-128249999D01*
X120000000Y-128207142D01*
X119957143Y-128121428D01*
X119957143Y-127907142D01*
X120000000Y-127778571D01*
X120857143Y-126964285D02*
X120857143Y-127392856D01*
X119957143Y-127392856D01*
X120857143Y-136778571D02*
X120857143Y-136607143D01*
X120814286Y-136521428D01*
X120771429Y-136478571D01*
X120642857Y-136392857D01*
X120471429Y-136350000D01*
X120128571Y-136350000D01*
X120042857Y-136392857D01*
X120000000Y-136435714D01*
X119957143Y-136521428D01*
X119957143Y-136692857D01*
X120000000Y-136778571D01*
X120042857Y-136821428D01*
X120128571Y-136864285D01*
X120342857Y-136864285D01*
X120428571Y-136821428D01*
X120471429Y-136778571D01*
X120514286Y-136692857D01*
X120514286Y-136521428D01*
X120471429Y-136435714D01*
X120428571Y-136392857D01*
X120342857Y-136350000D01*
X120857143Y-135964285D02*
X119957143Y-135964285D01*
X119957143Y-135750000D01*
X120000000Y-135621428D01*
X120085714Y-135535714D01*
X120171429Y-135492857D01*
X120342857Y-135450000D01*
X120471429Y-135450000D01*
X120642857Y-135492857D01*
X120728571Y-135535714D01*
X120814286Y-135621428D01*
X120857143Y-135750000D01*
X120857143Y-135964285D01*
X120814286Y-135107142D02*
X120857143Y-134978571D01*
X120857143Y-134764285D01*
X120814286Y-134678571D01*
X120771429Y-134635714D01*
X120685714Y-134592857D01*
X120600000Y-134592857D01*
X120514286Y-134635714D01*
X120471429Y-134678571D01*
X120428571Y-134764285D01*
X120385714Y-134935714D01*
X120342857Y-135021428D01*
X120300000Y-135064285D01*
X120214286Y-135107142D01*
X120128571Y-135107142D01*
X120042857Y-135064285D01*
X120000000Y-135021428D01*
X119957143Y-134935714D01*
X119957143Y-134721428D01*
X120000000Y-134592857D01*
X120857143Y-133735714D02*
X120857143Y-134249999D01*
X120857143Y-133992857D02*
X119957143Y-133992857D01*
X120085714Y-134078571D01*
X120171429Y-134164285D01*
X120214286Y-134249999D01*
X81007143Y-143550000D02*
X81907143Y-142950000D01*
X81007143Y-142950000D02*
X81907143Y-143550000D01*
X81907143Y-140446429D02*
X81478571Y-140746429D01*
X81907143Y-140960714D02*
X81007143Y-140960714D01*
X81007143Y-140617857D01*
X81050000Y-140532143D01*
X81092857Y-140489286D01*
X81178571Y-140446429D01*
X81307143Y-140446429D01*
X81392857Y-140489286D01*
X81435714Y-140532143D01*
X81478571Y-140617857D01*
X81478571Y-140960714D01*
X81907143Y-138671428D02*
X81007143Y-138671428D01*
X81007143Y-138071429D02*
X81007143Y-137900000D01*
X81050000Y-137814286D01*
X81135714Y-137728572D01*
X81307143Y-137685714D01*
X81607143Y-137685714D01*
X81778571Y-137728572D01*
X81864286Y-137814286D01*
X81907143Y-137900000D01*
X81907143Y-138071429D01*
X81864286Y-138157143D01*
X81778571Y-138242857D01*
X81607143Y-138285714D01*
X81307143Y-138285714D01*
X81135714Y-138242857D01*
X81050000Y-138157143D01*
X81007143Y-138071429D01*
X81050000Y-135364286D02*
X81007143Y-135450000D01*
X81007143Y-135578571D01*
X81050000Y-135707143D01*
X81135714Y-135792857D01*
X81221429Y-135835714D01*
X81392857Y-135878571D01*
X81521429Y-135878571D01*
X81692857Y-135835714D01*
X81778571Y-135792857D01*
X81864286Y-135707143D01*
X81907143Y-135578571D01*
X81907143Y-135492857D01*
X81864286Y-135364286D01*
X81821429Y-135321429D01*
X81521429Y-135321429D01*
X81521429Y-135492857D01*
X81821429Y-133135714D02*
X81864286Y-133178571D01*
X81907143Y-133307142D01*
X81907143Y-133392856D01*
X81864286Y-133521428D01*
X81778571Y-133607142D01*
X81692857Y-133649999D01*
X81521429Y-133692856D01*
X81392857Y-133692856D01*
X81221429Y-133649999D01*
X81135714Y-133607142D01*
X81050000Y-133521428D01*
X81007143Y-133392856D01*
X81007143Y-133307142D01*
X81050000Y-133178571D01*
X81092857Y-133135714D01*
X81907143Y-132321428D02*
X81907143Y-132749999D01*
X81007143Y-132749999D01*
X81007143Y-131614286D02*
X81007143Y-131057143D01*
X81350000Y-131357143D01*
X81350000Y-131228571D01*
X81392857Y-131142857D01*
X81435714Y-131100000D01*
X81521429Y-131057143D01*
X81735714Y-131057143D01*
X81821429Y-131100000D01*
X81864286Y-131142857D01*
X81907143Y-131228571D01*
X81907143Y-131485714D01*
X81864286Y-131571428D01*
X81821429Y-131614286D01*
X81007143Y-130800000D02*
X81907143Y-130500000D01*
X81007143Y-130200000D01*
X81007143Y-129985714D02*
X81007143Y-129428571D01*
X81350000Y-129728571D01*
X81350000Y-129599999D01*
X81392857Y-129514285D01*
X81435714Y-129471428D01*
X81521429Y-129428571D01*
X81735714Y-129428571D01*
X81821429Y-129471428D01*
X81864286Y-129514285D01*
X81907143Y-129599999D01*
X81907143Y-129857142D01*
X81864286Y-129942856D01*
X81821429Y-129985714D01*
D12*
X142050000Y-169350000D02*
G75*
G03X142050000Y-169350000I-1500000J0D01*
G01*
X142050000Y-105350000D02*
G75*
G03X142050000Y-105350000I-1500000J0D01*
G01*
X48050000Y-105350000D02*
G75*
G03X48050000Y-105350000I-1500000J0D01*
G01*
X48050000Y-169350000D02*
G75*
G03X48050000Y-169350000I-1500000J0D01*
G01*
D14*
X132710000Y-144895000D02*
G75*
G03X132710000Y-144895000I-60000J0D01*
G01*
X132800000Y-144895000D02*
G75*
G03X132800000Y-144895000I-150000J0D01*
G01*
X129250000Y-144895000D02*
X129950000Y-144895000D01*
X129250000Y-148795000D02*
X129250000Y-148045000D01*
X132650000Y-148795000D02*
X131950000Y-148795000D01*
X132650000Y-148045000D02*
X132650000Y-148795000D01*
X129950000Y-148795000D02*
X129250000Y-148795000D01*
X129250000Y-145645000D02*
X129250000Y-144895000D01*
X137407500Y-123230000D02*
X137407500Y-123730000D01*
X137407500Y-123730000D02*
X136907500Y-123730000D01*
X136907500Y-123730000D02*
X136907500Y-123730000D01*
X135707500Y-123730000D02*
X135207500Y-123730000D01*
X135207500Y-123730000D02*
X135207500Y-123230000D01*
X135207500Y-123230000D02*
X135207500Y-123230000D01*
X135207500Y-122030000D02*
X135207500Y-121530000D01*
X135207500Y-121530000D02*
X135707500Y-121530000D01*
X135707500Y-121530000D02*
X135707500Y-121530000D01*
X137407500Y-122030000D02*
X137407500Y-121530000D01*
X137407500Y-121530000D02*
X137407500Y-121530000D01*
X134900000Y-122850000D02*
X134900000Y-121850000D01*
X133200000Y-121850000D02*
X133200000Y-122850000D01*
X134960000Y-119030000D02*
X134960000Y-116370000D01*
X129820000Y-119030000D02*
X134960000Y-119030000D01*
X129820000Y-116370000D02*
X134960000Y-116370000D01*
X129820000Y-119030000D02*
X129820000Y-116370000D01*
X128550000Y-119030000D02*
X127220000Y-119030000D01*
X127220000Y-119030000D02*
X127220000Y-117700000D01*
X132330000Y-131390000D02*
X132330000Y-129840000D01*
X132330000Y-126060000D02*
X132330000Y-127610000D01*
X137670000Y-126820000D02*
X137670000Y-127610000D01*
X137670000Y-130630000D02*
X137670000Y-129840000D01*
X132330000Y-131390000D02*
X136910000Y-131390000D01*
X136910000Y-131390000D02*
X137670000Y-130630000D01*
X137670000Y-126820000D02*
X136910000Y-126060000D01*
X136910000Y-126060000D02*
X132330000Y-126060000D01*
X133100000Y-124100000D02*
X133100000Y-123100000D01*
X131400000Y-123100000D02*
X131400000Y-124100000D01*
X136200000Y-125850000D02*
X137200000Y-125850000D01*
X137200000Y-124150000D02*
X136200000Y-124150000D01*
X76070000Y-134420000D02*
X76070000Y-137080000D01*
X76130000Y-134420000D02*
X76070000Y-134420000D01*
X76130000Y-137080000D02*
X76070000Y-137080000D01*
X76130000Y-134420000D02*
X76130000Y-137080000D01*
X77400000Y-134420000D02*
X78730000Y-134420000D01*
X78730000Y-134420000D02*
X78730000Y-135750000D01*
X97050000Y-140950000D02*
X97050000Y-128350000D01*
X97050000Y-128350000D02*
X91950000Y-128350000D01*
X91950000Y-128350000D02*
X91950000Y-140950000D01*
X102720000Y-151530000D02*
X105380000Y-151530000D01*
X102720000Y-151470000D02*
X102720000Y-151530000D01*
X105380000Y-151470000D02*
X105380000Y-151530000D01*
X102720000Y-151470000D02*
X105380000Y-151470000D01*
X102720000Y-150200000D02*
X102720000Y-148870000D01*
X102720000Y-148870000D02*
X104050000Y-148870000D01*
X65150000Y-118440000D02*
X65150000Y-118040000D01*
X56350000Y-118440000D02*
X65150000Y-118440000D01*
X54650000Y-118440000D02*
X54750000Y-118440000D01*
X51450000Y-118440000D02*
X54650000Y-118440000D01*
X51450000Y-118040000D02*
X51450000Y-118440000D01*
X51450000Y-111440000D02*
X50750000Y-111440000D01*
X51450000Y-111340000D02*
X51450000Y-111440000D01*
X65150000Y-106740000D02*
X65150000Y-111440000D01*
X51450000Y-106740000D02*
X65150000Y-106740000D01*
X51450000Y-111340000D02*
X51450000Y-106740000D01*
X73350000Y-159050000D02*
X73350000Y-160050000D01*
X75050000Y-160050000D02*
X75050000Y-159050000D01*
X78740000Y-170570000D02*
X77190000Y-170570000D01*
X73410000Y-170570000D02*
X74960000Y-170570000D01*
X74170000Y-165230000D02*
X74960000Y-165230000D01*
X77980000Y-165230000D02*
X77190000Y-165230000D01*
X78740000Y-170570000D02*
X78740000Y-165990000D01*
X78740000Y-165990000D02*
X77980000Y-165230000D01*
X74170000Y-165230000D02*
X73410000Y-165990000D01*
X73410000Y-165990000D02*
X73410000Y-170570000D01*
X103450000Y-143250000D02*
X102450000Y-143250000D01*
X102450000Y-144950000D02*
X103450000Y-144950000D01*
X91800000Y-132550000D02*
X91800000Y-131550000D01*
X90100000Y-131550000D02*
X90100000Y-132550000D01*
X90100000Y-137550000D02*
X90100000Y-138550000D01*
X91800000Y-138550000D02*
X91800000Y-137550000D01*
X75250000Y-159050000D02*
X75250000Y-160050000D01*
X76950000Y-160050000D02*
X76950000Y-159050000D01*
X69900000Y-162300000D02*
X68900000Y-162300000D01*
X68900000Y-164000000D02*
X69900000Y-164000000D01*
X110050000Y-143250000D02*
X109050000Y-143250000D01*
X109050000Y-144950000D02*
X110050000Y-144950000D01*
X62350000Y-159150000D02*
X61350000Y-159150000D01*
X61350000Y-160850000D02*
X62350000Y-160850000D01*
X99050000Y-139150000D02*
X99050000Y-138150000D01*
X97350000Y-138150000D02*
X97350000Y-139150000D01*
X109550000Y-169300000D02*
X109550000Y-168300000D01*
X107850000Y-168300000D02*
X107850000Y-169300000D01*
X101950000Y-129450000D02*
X102950000Y-129450000D01*
X102950000Y-127750000D02*
X101950000Y-127750000D01*
X59760000Y-152480000D02*
X61310000Y-152480000D01*
X65090000Y-152480000D02*
X63540000Y-152480000D01*
X64330000Y-157820000D02*
X63540000Y-157820000D01*
X60520000Y-157820000D02*
X61310000Y-157820000D01*
X59760000Y-152480000D02*
X59760000Y-157060000D01*
X59760000Y-157060000D02*
X60520000Y-157820000D01*
X64330000Y-157820000D02*
X65090000Y-157060000D01*
X65090000Y-157060000D02*
X65090000Y-152480000D01*
X112500000Y-132550000D02*
X112500000Y-133550000D01*
X114200000Y-133550000D02*
X114200000Y-132550000D01*
X109550000Y-161600000D02*
X109550000Y-160600000D01*
X107850000Y-160600000D02*
X107850000Y-161600000D01*
X52140000Y-157820000D02*
X50590000Y-157820000D01*
X46810000Y-157820000D02*
X48360000Y-157820000D01*
X47570000Y-152480000D02*
X48360000Y-152480000D01*
X51380000Y-152480000D02*
X50590000Y-152480000D01*
X52140000Y-157820000D02*
X52140000Y-153240000D01*
X52140000Y-153240000D02*
X51380000Y-152480000D01*
X47570000Y-152480000D02*
X46810000Y-153240000D01*
X46810000Y-153240000D02*
X46810000Y-157820000D01*
X49500000Y-160950000D02*
X50500000Y-160950000D01*
X50500000Y-159250000D02*
X49500000Y-159250000D01*
X72800000Y-134200000D02*
X73800000Y-134200000D01*
X73800000Y-132500000D02*
X72800000Y-132500000D01*
X48650000Y-123600000D02*
X47650000Y-123600000D01*
X47650000Y-125300000D02*
X48650000Y-125300000D01*
X72800000Y-138100000D02*
X73800000Y-138100000D01*
X73800000Y-136400000D02*
X72800000Y-136400000D01*
X75250000Y-109500000D02*
X75250000Y-108500000D01*
X73550000Y-108500000D02*
X73550000Y-109500000D01*
X51910000Y-142930000D02*
X50910000Y-142930000D01*
X50910000Y-144630000D02*
X51910000Y-144630000D01*
X134140000Y-133140000D02*
X133140000Y-133140000D01*
X133140000Y-134840000D02*
X134140000Y-134840000D01*
X67200000Y-137250000D02*
X67200000Y-136250000D01*
X65500000Y-136250000D02*
X65500000Y-137250000D01*
X85950000Y-132650000D02*
X85950000Y-133650000D01*
X87650000Y-133650000D02*
X87650000Y-132650000D01*
X71700000Y-171750000D02*
X71700000Y-170050000D01*
X71700000Y-170050000D02*
X69150000Y-170050000D01*
X71700000Y-171750000D02*
X69150000Y-171750000D01*
X49010000Y-167260000D02*
X50030000Y-166250000D01*
X45960000Y-162440000D02*
X45960000Y-162180000D01*
X45960000Y-162440000D02*
X45710000Y-162440000D01*
X45580000Y-163070000D02*
X45580000Y-162820000D01*
X45580000Y-163070000D02*
X45330000Y-163070000D01*
X44820000Y-162310000D02*
X45580000Y-163070000D01*
X45200000Y-161670000D02*
X45960000Y-162440000D01*
X50030000Y-166880000D02*
X50030000Y-161800000D01*
X49957295Y-161757600D02*
G75*
G03X50030000Y-166880000I-1457295J-2582400D01*
G01*
X75930000Y-131880000D02*
X75930000Y-129220000D01*
X73330000Y-131880000D02*
X75930000Y-131880000D01*
X73330000Y-129220000D02*
X75930000Y-129220000D01*
X73330000Y-131880000D02*
X73330000Y-129220000D01*
X72060000Y-131880000D02*
X70730000Y-131880000D01*
X70730000Y-131880000D02*
X70730000Y-130550000D01*
X64620000Y-129220000D02*
X64620000Y-131880000D01*
X67220000Y-129220000D02*
X64620000Y-129220000D01*
X67220000Y-131880000D02*
X64620000Y-131880000D01*
X67220000Y-129220000D02*
X67220000Y-131880000D01*
X68490000Y-129220000D02*
X69820000Y-129220000D01*
X69820000Y-129220000D02*
X69820000Y-130550000D01*
X79270000Y-159550000D02*
X79270000Y-161550000D01*
X77130000Y-161550000D02*
X77130000Y-159550000D01*
D11*
X107670000Y-167550000D02*
G75*
G03X107670000Y-167550000I-3810000J0D01*
G01*
X107660000Y-159850000D02*
G75*
G03X107660000Y-159850000I-3810000J0D01*
G01*
D14*
X50500000Y-161350000D02*
X50500000Y-173950000D01*
X50500000Y-173950000D02*
X60850000Y-173950000D01*
X60850000Y-173950000D02*
X60850000Y-173000000D01*
X60850000Y-173000000D02*
X61350000Y-173250000D01*
X61350000Y-173250000D02*
X61350000Y-171350000D01*
X61350000Y-171350000D02*
X61350000Y-171300000D01*
X61350000Y-171300000D02*
X60850000Y-171550000D01*
X60850000Y-171550000D02*
X60850000Y-166150000D01*
X60850000Y-166150000D02*
X61350000Y-166450000D01*
X61350000Y-166450000D02*
X61350000Y-161350000D01*
X61350000Y-161350000D02*
X50500000Y-161350000D01*
X79650000Y-173880000D02*
X88350000Y-173880000D01*
X79650000Y-167470000D02*
X88350000Y-167470000D01*
X88350000Y-167470000D02*
X88350000Y-173880000D01*
X88350000Y-172650000D02*
X79650000Y-172650000D01*
X79650000Y-173880000D02*
X79650000Y-167470000D01*
X82745000Y-144560000D02*
X85405000Y-144560000D01*
X82745000Y-131800000D02*
X82745000Y-144560000D01*
X85405000Y-131800000D02*
X85405000Y-144560000D01*
X82745000Y-131800000D02*
X85405000Y-131800000D01*
X82745000Y-130530000D02*
X82745000Y-129200000D01*
X82745000Y-129200000D02*
X84075000Y-129200000D01*
X93580000Y-155520000D02*
X90920000Y-155520000D01*
X93580000Y-158120000D02*
X93580000Y-155520000D01*
X90920000Y-158120000D02*
X90920000Y-155520000D01*
X93580000Y-158120000D02*
X90920000Y-158120000D01*
X93580000Y-159390000D02*
X93580000Y-160720000D01*
X93580000Y-160720000D02*
X92250000Y-160720000D01*
X102155000Y-108345000D02*
X102155000Y-111005000D01*
X104755000Y-108345000D02*
X102155000Y-108345000D01*
X104755000Y-111005000D02*
X102155000Y-111005000D01*
X104755000Y-108345000D02*
X104755000Y-111005000D01*
X106025000Y-108345000D02*
X107355000Y-108345000D01*
X107355000Y-108345000D02*
X107355000Y-109675000D01*
X136180000Y-116370000D02*
X136180000Y-119030000D01*
X138780000Y-116370000D02*
X136180000Y-116370000D01*
X138780000Y-119030000D02*
X136180000Y-119030000D01*
X138780000Y-116370000D02*
X138780000Y-119030000D01*
X140050000Y-116370000D02*
X141380000Y-116370000D01*
X141380000Y-116370000D02*
X141380000Y-117700000D01*
X61970000Y-138630000D02*
X64630000Y-138630000D01*
X61970000Y-136030000D02*
X61970000Y-138630000D01*
X64630000Y-136030000D02*
X64630000Y-138630000D01*
X61970000Y-136030000D02*
X64630000Y-136030000D01*
X61970000Y-134760000D02*
X61970000Y-133430000D01*
X61970000Y-133430000D02*
X63300000Y-133430000D01*
X50470000Y-120120000D02*
X50470000Y-122780000D01*
X63230000Y-120120000D02*
X50470000Y-120120000D01*
X63230000Y-122780000D02*
X50470000Y-122780000D01*
X63230000Y-120120000D02*
X63230000Y-122780000D01*
X64500000Y-120120000D02*
X65830000Y-120120000D01*
X65830000Y-120120000D02*
X65830000Y-121450000D01*
X61580000Y-149330000D02*
X61580000Y-146670000D01*
X56440000Y-149330000D02*
X61580000Y-149330000D01*
X56440000Y-146670000D02*
X61580000Y-146670000D01*
X56440000Y-149330000D02*
X56440000Y-146670000D01*
X55170000Y-149330000D02*
X53840000Y-149330000D01*
X53840000Y-149330000D02*
X53840000Y-148000000D01*
X98470000Y-111005000D02*
X101130000Y-111005000D01*
X98470000Y-110945000D02*
X98470000Y-111005000D01*
X101130000Y-110945000D02*
X101130000Y-111005000D01*
X98470000Y-110945000D02*
X101130000Y-110945000D01*
X98470000Y-109675000D02*
X98470000Y-108345000D01*
X98470000Y-108345000D02*
X99800000Y-108345000D01*
X106520000Y-151530000D02*
X109180000Y-151530000D01*
X106520000Y-151470000D02*
X106520000Y-151530000D01*
X109180000Y-151470000D02*
X109180000Y-151530000D01*
X106520000Y-151470000D02*
X109180000Y-151470000D01*
X106520000Y-150200000D02*
X106520000Y-148870000D01*
X106520000Y-148870000D02*
X107850000Y-148870000D01*
X114380000Y-162940000D02*
X111720000Y-162940000D01*
X114380000Y-168080000D02*
X114380000Y-162940000D01*
X111720000Y-168080000D02*
X111720000Y-162940000D01*
X114380000Y-168080000D02*
X111720000Y-168080000D01*
X114380000Y-169350000D02*
X114380000Y-170680000D01*
X114380000Y-170680000D02*
X113050000Y-170680000D01*
X63540000Y-168545000D02*
X63540000Y-169475000D01*
X63540000Y-171705000D02*
X63540000Y-170775000D01*
X63540000Y-171705000D02*
X66700000Y-171705000D01*
X63540000Y-168545000D02*
X65000000Y-168545000D01*
X63540000Y-164945000D02*
X63540000Y-165875000D01*
X63540000Y-168105000D02*
X63540000Y-167175000D01*
X63540000Y-168105000D02*
X66700000Y-168105000D01*
X63540000Y-164945000D02*
X65000000Y-164945000D01*
X63540000Y-161345000D02*
X63540000Y-162275000D01*
X63540000Y-164505000D02*
X63540000Y-163575000D01*
X63540000Y-164505000D02*
X66700000Y-164505000D01*
X63540000Y-161345000D02*
X65000000Y-161345000D01*
X99355000Y-126625000D02*
X99355000Y-127825000D01*
X97595000Y-127825000D02*
X97595000Y-126625000D01*
X106980000Y-126600000D02*
X106980000Y-127800000D01*
X105220000Y-127800000D02*
X105220000Y-126600000D01*
X70050000Y-169830000D02*
X68850000Y-169830000D01*
X68850000Y-168070000D02*
X70050000Y-168070000D01*
X70050000Y-167930000D02*
X68850000Y-167930000D01*
X68850000Y-166170000D02*
X70050000Y-166170000D01*
X68850000Y-164270000D02*
X70050000Y-164270000D01*
X70050000Y-166030000D02*
X68850000Y-166030000D01*
X53570000Y-126300000D02*
X53570000Y-125100000D01*
X55330000Y-125100000D02*
X55330000Y-126300000D01*
X73520000Y-114450000D02*
X73520000Y-113250000D01*
X75280000Y-113250000D02*
X75280000Y-114450000D01*
X56520000Y-126300000D02*
X56520000Y-125100000D01*
X58280000Y-125100000D02*
X58280000Y-126300000D01*
X52680000Y-125150000D02*
X52680000Y-126350000D01*
X50920000Y-126350000D02*
X50920000Y-125150000D01*
X140730000Y-157800000D02*
X140730000Y-159000000D01*
X138970000Y-159000000D02*
X138970000Y-157800000D01*
X104600000Y-105420000D02*
X105800000Y-105420000D01*
X105800000Y-107180000D02*
X104600000Y-107180000D01*
X104600000Y-103570000D02*
X105800000Y-103570000D01*
X105800000Y-105330000D02*
X104600000Y-105330000D01*
X114630000Y-157900000D02*
X114630000Y-159100000D01*
X112870000Y-159100000D02*
X112870000Y-157900000D01*
X57360000Y-136060000D02*
X56160000Y-136060000D01*
X56160000Y-134300000D02*
X57360000Y-134300000D01*
X97830000Y-109000000D02*
X97830000Y-110200000D01*
X96070000Y-110200000D02*
X96070000Y-109000000D01*
X56160000Y-142850000D02*
X57360000Y-142850000D01*
X57360000Y-144610000D02*
X56160000Y-144610000D01*
X102000000Y-153440000D02*
X105720000Y-153440000D01*
X102000000Y-155160000D02*
X105720000Y-155160000D01*
D11*
X100775000Y-131375000D02*
X100775000Y-132375000D01*
X111125000Y-131375000D02*
X111125000Y-132450000D01*
X111125000Y-141725000D02*
X111125000Y-140650000D01*
X100775000Y-141725000D02*
X100775000Y-140650000D01*
X100775000Y-131375000D02*
X101850000Y-131375000D01*
X100775000Y-141725000D02*
X101850000Y-141725000D01*
X111125000Y-141725000D02*
X110050000Y-141725000D01*
X111125000Y-131375000D02*
X110050000Y-131375000D01*
X100775000Y-132375000D02*
X99750000Y-132375000D01*
X90225000Y-157575000D02*
X89650000Y-157575000D01*
X90225000Y-163325000D02*
X89575000Y-163325000D01*
X79575000Y-163325000D02*
X80225000Y-163325000D01*
X79575000Y-157575000D02*
X80225000Y-157575000D01*
X90225000Y-157575000D02*
X90225000Y-163325000D01*
X79575000Y-157575000D02*
X79575000Y-163325000D01*
X89650000Y-157575000D02*
X89650000Y-155975000D01*
D10*
X72350000Y-136300000D02*
X74350000Y-136300000D01*
X72350000Y-136300000D02*
X72350000Y-134300000D01*
X74350000Y-134300000D02*
X72350000Y-134300000D01*
X74350000Y-134300000D02*
X74350000Y-136300000D01*
D11*
X127095000Y-160100000D02*
X127750000Y-160100000D01*
X127095000Y-154600000D02*
X127845000Y-154600000D01*
X133505000Y-154600000D02*
X132755000Y-154600000D01*
X133505000Y-160100000D02*
X132755000Y-160100000D01*
X127095000Y-160100000D02*
X127095000Y-154600000D01*
X133505000Y-160100000D02*
X133505000Y-154600000D01*
X127750000Y-160100000D02*
X127750000Y-161850000D01*
X135044536Y-136250000D02*
G75*
G03X135044536Y-136250000I-134536J0D01*
G01*
X133410000Y-137500000D02*
X133410000Y-135000000D01*
X136410000Y-137500000D02*
X136410000Y-135000000D01*
X134910000Y-135000000D02*
X133410000Y-135000000D01*
X134910000Y-137500000D02*
X133410000Y-137500000D01*
X134910000Y-137500000D02*
X136410000Y-137500000D01*
X134910000Y-135000000D02*
X136410000Y-135000000D01*
X136534536Y-137490000D02*
G75*
G03X136534536Y-137490000I-134536J0D01*
G01*
D14*
X50930000Y-142710000D02*
X50930000Y-142680000D01*
X50930000Y-136250000D02*
X50930000Y-136280000D01*
X57390000Y-136250000D02*
X57390000Y-136280000D01*
X57390000Y-142680000D02*
X57390000Y-142710000D01*
X50930000Y-140780000D02*
X50930000Y-138180000D01*
X57390000Y-142710000D02*
X50930000Y-142710000D01*
X57390000Y-140780000D02*
X57390000Y-138180000D01*
X57390000Y-136250000D02*
X50930000Y-136250000D01*
D11*
X120195000Y-160100000D02*
X120850000Y-160100000D01*
X120195000Y-154600000D02*
X120945000Y-154600000D01*
X126605000Y-154600000D02*
X125855000Y-154600000D01*
X126605000Y-160100000D02*
X125855000Y-160100000D01*
X120195000Y-160100000D02*
X120195000Y-154600000D01*
X126605000Y-160100000D02*
X126605000Y-154600000D01*
X120850000Y-160100000D02*
X120850000Y-161850000D01*
X128335000Y-111155000D02*
X115635000Y-111155000D01*
X115635000Y-111155000D02*
X115635000Y-113695000D01*
X115635000Y-113695000D02*
X128335000Y-113695000D01*
X131155000Y-110875000D02*
X129605000Y-110875000D01*
X128335000Y-111155000D02*
X128335000Y-113695000D01*
X129605000Y-113975000D02*
X131155000Y-113975000D01*
X131155000Y-113975000D02*
X131155000Y-110875000D01*
D14*
X136564824Y-160575158D02*
G75*
G02X134255000Y-160555000I-1154824J20158D01*
G01*
X134256043Y-160575774D02*
G75*
G02X135570000Y-159412000I1153957J20774D01*
G01*
X134010000Y-161945000D02*
X139080000Y-161945000D01*
X139080000Y-161945000D02*
X139080000Y-160955000D01*
X139080000Y-160955000D02*
X138700000Y-160955000D01*
X138700000Y-160955000D02*
X138700000Y-153165000D01*
X138700000Y-153165000D02*
X139080000Y-153165000D01*
X139080000Y-153165000D02*
X139080000Y-152175000D01*
X139080000Y-152175000D02*
X134010000Y-152175000D01*
X134010000Y-152175000D02*
X134010000Y-161945000D01*
X136144000Y-161431000D02*
X134534000Y-159820000D01*
X136285000Y-161291000D02*
X135593000Y-160598000D01*
X135552000Y-160558000D02*
X134675000Y-159679000D01*
X135770000Y-162185000D02*
X133770000Y-162185000D01*
X133770000Y-162185000D02*
X133770000Y-160185000D01*
X117085176Y-153644842D02*
G75*
G02X119395000Y-153665000I1154824J-20158D01*
G01*
X119393957Y-153644226D02*
G75*
G02X118080000Y-154808000I-1153957J-20774D01*
G01*
X119640000Y-152275000D02*
X114570000Y-152275000D01*
X114570000Y-152275000D02*
X114570000Y-153265000D01*
X114570000Y-153265000D02*
X114950000Y-153265000D01*
X114950000Y-153265000D02*
X114950000Y-161055000D01*
X114950000Y-161055000D02*
X114570000Y-161055000D01*
X114570000Y-161055000D02*
X114570000Y-162045000D01*
X114570000Y-162045000D02*
X119640000Y-162045000D01*
X119640000Y-162045000D02*
X119640000Y-152275000D01*
X117506000Y-152789000D02*
X119116000Y-154400000D01*
X117365000Y-152929000D02*
X118057000Y-153622000D01*
X118098000Y-153662000D02*
X118975000Y-154541000D01*
X117880000Y-152035000D02*
X119880000Y-152035000D01*
X119880000Y-152035000D02*
X119880000Y-154035000D01*
X137550000Y-165430000D02*
X137550000Y-162770000D01*
X129870000Y-165430000D02*
X137550000Y-165430000D01*
X129870000Y-162770000D02*
X137550000Y-162770000D01*
X129870000Y-165430000D02*
X129870000Y-162770000D01*
X128600000Y-165430000D02*
X127270000Y-165430000D01*
X127270000Y-165430000D02*
X127270000Y-164100000D01*
X126430000Y-165430000D02*
X126430000Y-162770000D01*
X118750000Y-165430000D02*
X126430000Y-165430000D01*
X118750000Y-162770000D02*
X126430000Y-162770000D01*
X118750000Y-165430000D02*
X118750000Y-162770000D01*
X117480000Y-165430000D02*
X116150000Y-165430000D01*
X116150000Y-165430000D02*
X116150000Y-164100000D01*
X59360000Y-153690000D02*
X58100000Y-153690000D01*
X52540000Y-153690000D02*
X53800000Y-153690000D01*
X59360000Y-157450000D02*
X59360000Y-153690000D01*
X52540000Y-159700000D02*
X52540000Y-153690000D01*
D10*
X67010000Y-132800000D02*
G75*
G03X67010000Y-132800000I-150000J0D01*
G01*
D15*
X67360000Y-132400000D02*
X65360000Y-132400000D01*
X67360000Y-134400000D02*
X67360000Y-132400000D01*
X65360000Y-134400000D02*
X67360000Y-134400000D01*
X65360000Y-132400000D02*
X65360000Y-134400000D01*
D14*
X87650000Y-165400000D02*
X86650000Y-165400000D01*
X86650000Y-167100000D02*
X87650000Y-167100000D01*
X75270000Y-156130000D02*
X75270000Y-153470000D01*
X70130000Y-156130000D02*
X75270000Y-156130000D01*
X70130000Y-153470000D02*
X75270000Y-153470000D01*
X70130000Y-156130000D02*
X70130000Y-153470000D01*
X68860000Y-156130000D02*
X67530000Y-156130000D01*
X67530000Y-156130000D02*
X67530000Y-154800000D01*
X75260000Y-151730000D02*
X75260000Y-149070000D01*
X70120000Y-151730000D02*
X75260000Y-151730000D01*
X70120000Y-149070000D02*
X75260000Y-149070000D01*
X70120000Y-151730000D02*
X70120000Y-149070000D01*
X68850000Y-151730000D02*
X67520000Y-151730000D01*
X67520000Y-151730000D02*
X67520000Y-150400000D01*
X50030000Y-169300000D02*
X50030000Y-170500000D01*
X48270000Y-170500000D02*
X48270000Y-169300000D01*
X107170000Y-127800000D02*
X107170000Y-126600000D01*
X108930000Y-126600000D02*
X108930000Y-127800000D01*
X109070000Y-127800000D02*
X109070000Y-126600000D01*
X110830000Y-126600000D02*
X110830000Y-127800000D01*
D11*
X84012910Y-114263415D02*
X88082910Y-109873415D01*
X84012910Y-109863415D02*
X88072910Y-114243415D01*
X89052910Y-112063415D02*
G75*
G03X89052910Y-112063415I-3000000J0D01*
G01*
X78484210Y-102815000D02*
G75*
G03X78484210Y-102815000I-359210J0D01*
G01*
X77795000Y-120955000D02*
X77795000Y-103175000D01*
X77795000Y-103175000D02*
X94305000Y-103175000D01*
X94305000Y-103175000D02*
X94305000Y-120955000D01*
X94305000Y-120955000D02*
X77795000Y-120955000D01*
D14*
X95100000Y-142000000D02*
X95710000Y-142610000D01*
X92540000Y-142000000D02*
X92540000Y-142610000D01*
X95080000Y-145440000D02*
X95680000Y-144850000D01*
X92540000Y-145440000D02*
X92540000Y-144850000D01*
X95100000Y-142000000D02*
X92560000Y-142000000D01*
X92540000Y-145440000D02*
X95080000Y-145440000D01*
X115280000Y-147030000D02*
X114670000Y-147640000D01*
X115280000Y-144470000D02*
X114670000Y-144470000D01*
X111840000Y-147010000D02*
X112430000Y-147610000D01*
X111840000Y-144470000D02*
X112430000Y-144470000D01*
X115280000Y-147030000D02*
X115280000Y-144490000D01*
X111840000Y-144470000D02*
X111840000Y-147010000D01*
X101420000Y-127580000D02*
X100810000Y-126970000D01*
X103980000Y-127580000D02*
X103980000Y-126970000D01*
X101440000Y-124140000D02*
X100840000Y-124730000D01*
X103980000Y-124140000D02*
X103980000Y-124730000D01*
X101420000Y-127580000D02*
X103960000Y-127580000D01*
X103980000Y-124140000D02*
X101440000Y-124140000D01*
X67520000Y-134520000D02*
X68130000Y-133910000D01*
X67520000Y-137080000D02*
X68130000Y-137080000D01*
X70960000Y-134540000D02*
X70370000Y-133940000D01*
X70960000Y-137080000D02*
X70370000Y-137080000D01*
X67520000Y-134520000D02*
X67520000Y-137060000D01*
X70960000Y-137080000D02*
X70960000Y-134540000D01*
D11*
X135625000Y-172125000D02*
X135625000Y-172325000D01*
X129125000Y-172125000D02*
X135625000Y-172125000D01*
X136125000Y-172325000D02*
X135625000Y-172325000D01*
X129125000Y-172325000D02*
X129125000Y-172125000D01*
X128625000Y-172325000D02*
X129125000Y-172325000D01*
X130125000Y-167725000D02*
X130125000Y-171325000D01*
X128625000Y-167725000D02*
X136125000Y-167725000D01*
X128625000Y-172325000D02*
X128625000Y-166325000D01*
X136125000Y-166325000D02*
X136125000Y-172325000D01*
X136075000Y-166325000D02*
X136125000Y-166325000D01*
X128625000Y-166325000D02*
X136075000Y-166325000D01*
X131625000Y-167725000D02*
X131625000Y-171325000D01*
X133125000Y-167725000D02*
X133125000Y-171325000D01*
X134625000Y-167725000D02*
X134625000Y-171325000D01*
X124575000Y-172125000D02*
X124575000Y-172325000D01*
X118075000Y-172125000D02*
X124575000Y-172125000D01*
X125075000Y-172325000D02*
X124575000Y-172325000D01*
X118075000Y-172325000D02*
X118075000Y-172125000D01*
X117575000Y-172325000D02*
X118075000Y-172325000D01*
X119075000Y-167725000D02*
X119075000Y-171325000D01*
X117575000Y-167725000D02*
X125075000Y-167725000D01*
X117575000Y-172325000D02*
X117575000Y-166325000D01*
X125075000Y-166325000D02*
X125075000Y-172325000D01*
X125025000Y-166325000D02*
X125075000Y-166325000D01*
X117575000Y-166325000D02*
X125025000Y-166325000D01*
X120575000Y-167725000D02*
X120575000Y-171325000D01*
X122075000Y-167725000D02*
X122075000Y-171325000D01*
X123575000Y-167725000D02*
X123575000Y-171325000D01*
D14*
X129025000Y-102375000D02*
X129025000Y-106725000D01*
X129025000Y-106725000D02*
X117525000Y-106725000D01*
X117525000Y-106725000D02*
X117525000Y-102375000D01*
X130325000Y-108575000D02*
X130675000Y-108575000D01*
X130675000Y-108575000D02*
X130675000Y-110175000D01*
X130675000Y-110175000D02*
X131575000Y-110175000D01*
X131575000Y-110175000D02*
X131575000Y-102375000D01*
X131575000Y-102375000D02*
X114974925Y-102375000D01*
X114975000Y-102375000D02*
X114975000Y-110175000D01*
X114975000Y-110175000D02*
X115875000Y-110175000D01*
X115875000Y-110175000D02*
X115875000Y-108575000D01*
X115875000Y-108575000D02*
X116225000Y-108575000D01*
X131575000Y-108575000D02*
X130675000Y-108575000D01*
X114975000Y-108575000D02*
X115875000Y-108575000D01*
X130825000Y-106225000D02*
X130825000Y-104625000D01*
X130825000Y-104625000D02*
X129825000Y-104625000D01*
X129825000Y-104625000D02*
X129825000Y-106225000D01*
X129825000Y-106225000D02*
X130825000Y-106225000D01*
X115725000Y-106225000D02*
X115725000Y-104625000D01*
X115725000Y-104625000D02*
X116725000Y-104625000D01*
X116725000Y-104625000D02*
X116725000Y-106225000D01*
X116725000Y-106225000D02*
X115725000Y-106225000D01*
X129825000Y-104625000D02*
X129825000Y-102375000D01*
X130325000Y-104625000D02*
X130325000Y-102375000D01*
X130325000Y-108575000D02*
X130325000Y-109775000D01*
X116225000Y-104625000D02*
X116225000Y-102375000D01*
X116725000Y-104625000D02*
X116725000Y-102375000D01*
X139620000Y-138610000D02*
X139620000Y-140160000D01*
X139620000Y-143940000D02*
X139620000Y-142390000D01*
X134280000Y-143180000D02*
X134280000Y-142390000D01*
X134280000Y-139370000D02*
X134280000Y-140160000D01*
X139620000Y-138610000D02*
X135040000Y-138610000D01*
X135040000Y-138610000D02*
X134280000Y-139370000D01*
X134280000Y-143180000D02*
X135040000Y-143940000D01*
X135040000Y-143940000D02*
X139620000Y-143940000D01*
X130450000Y-144100000D02*
X131450000Y-144100000D01*
X131450000Y-142400000D02*
X130450000Y-142400000D01*
X135950000Y-147750000D02*
X134950000Y-147750000D01*
X134950000Y-149450000D02*
X135950000Y-149450000D01*
X135950000Y-145950000D02*
X134950000Y-145950000D01*
X134950000Y-147650000D02*
X135950000Y-147650000D01*
X135950000Y-144150000D02*
X134950000Y-144150000D01*
X134950000Y-145850000D02*
X135950000Y-145850000D01*
X121470000Y-137730000D02*
X124130000Y-137730000D01*
X121470000Y-135130000D02*
X121470000Y-137730000D01*
X124130000Y-135130000D02*
X124130000Y-137730000D01*
X121470000Y-135130000D02*
X124130000Y-135130000D01*
X121470000Y-133860000D02*
X121470000Y-132530000D01*
X121470000Y-132530000D02*
X122800000Y-132530000D01*
X133120000Y-150410000D02*
G75*
G02X135120000Y-150410000I1000000J0D01*
G01*
X135120000Y-150410000D02*
X140580000Y-150410000D01*
X140580000Y-150410000D02*
X140580000Y-119810000D01*
X140580000Y-119810000D02*
X127660000Y-119810000D01*
X127660000Y-119810000D02*
X127660000Y-150410000D01*
X127660000Y-150410000D02*
X133120000Y-150410000D01*
X143070000Y-150470000D02*
X143070000Y-119750000D01*
X143070000Y-119750000D02*
X125170000Y-119750000D01*
X125170000Y-119750000D02*
X125170000Y-150470000D01*
X125170000Y-150470000D02*
X143070000Y-150470000D01*
X124230000Y-119720000D02*
X121570000Y-119720000D01*
X124230000Y-122320000D02*
X124230000Y-119720000D01*
X121570000Y-122320000D02*
X121570000Y-119720000D01*
X124230000Y-122320000D02*
X121570000Y-122320000D01*
X124230000Y-123590000D02*
X124230000Y-124920000D01*
X124230000Y-124920000D02*
X122900000Y-124920000D01*
X121570000Y-131230000D02*
X124230000Y-131230000D01*
X121570000Y-128630000D02*
X121570000Y-131230000D01*
X124230000Y-128630000D02*
X124230000Y-131230000D01*
X121570000Y-128630000D02*
X124230000Y-128630000D01*
X121570000Y-127360000D02*
X121570000Y-126030000D01*
X121570000Y-126030000D02*
X122900000Y-126030000D01*
D11*
X129902381Y-150152381D02*
X129902381Y-149152381D01*
X130378571Y-150152381D02*
X130378571Y-149152381D01*
X130711905Y-149866667D01*
X131045238Y-149152381D01*
X131045238Y-150152381D01*
X132045238Y-150152381D02*
X131473809Y-150152381D01*
X131759523Y-150152381D02*
X131759523Y-149152381D01*
X131664285Y-149295238D01*
X131569047Y-149390476D01*
X131473809Y-149438095D01*
X128488095Y-122902381D02*
X128488095Y-123711905D01*
X128535714Y-123807143D01*
X128583333Y-123854762D01*
X128678571Y-123902381D01*
X128869048Y-123902381D01*
X128964286Y-123854762D01*
X129011905Y-123807143D01*
X129059524Y-123711905D01*
X129059524Y-122902381D01*
X129678571Y-123330952D02*
X129583333Y-123283333D01*
X129535714Y-123235714D01*
X129488095Y-123140476D01*
X129488095Y-123092857D01*
X129535714Y-122997619D01*
X129583333Y-122950000D01*
X129678571Y-122902381D01*
X129869048Y-122902381D01*
X129964286Y-122950000D01*
X130011905Y-122997619D01*
X130059524Y-123092857D01*
X130059524Y-123140476D01*
X130011905Y-123235714D01*
X129964286Y-123283333D01*
X129869048Y-123330952D01*
X129678571Y-123330952D01*
X129583333Y-123378571D01*
X129535714Y-123426190D01*
X129488095Y-123521429D01*
X129488095Y-123711905D01*
X129535714Y-123807143D01*
X129583333Y-123854762D01*
X129678571Y-123902381D01*
X129869048Y-123902381D01*
X129964286Y-123854762D01*
X130011905Y-123807143D01*
X130059524Y-123711905D01*
X130059524Y-123521429D01*
X130011905Y-123426190D01*
X129964286Y-123378571D01*
X129869048Y-123330952D01*
X131457143Y-121107143D02*
X131409524Y-121154762D01*
X131266667Y-121202381D01*
X131171429Y-121202381D01*
X131028571Y-121154762D01*
X130933333Y-121059524D01*
X130885714Y-120964286D01*
X130838095Y-120773810D01*
X130838095Y-120630952D01*
X130885714Y-120440476D01*
X130933333Y-120345238D01*
X131028571Y-120250000D01*
X131171429Y-120202381D01*
X131266667Y-120202381D01*
X131409524Y-120250000D01*
X131457143Y-120297619D01*
X131790476Y-120202381D02*
X132409524Y-120202381D01*
X132076190Y-120583333D01*
X132219048Y-120583333D01*
X132314286Y-120630952D01*
X132361905Y-120678571D01*
X132409524Y-120773810D01*
X132409524Y-121011905D01*
X132361905Y-121107143D01*
X132314286Y-121154762D01*
X132219048Y-121202381D01*
X131933333Y-121202381D01*
X131838095Y-121154762D01*
X131790476Y-121107143D01*
X133361905Y-121202381D02*
X132790476Y-121202381D01*
X133076190Y-121202381D02*
X133076190Y-120202381D01*
X132980952Y-120345238D01*
X132885714Y-120440476D01*
X132790476Y-120488095D01*
X134307143Y-130907143D02*
X134259524Y-130954762D01*
X134116667Y-131002381D01*
X134021429Y-131002381D01*
X133878571Y-130954762D01*
X133783333Y-130859524D01*
X133735714Y-130764286D01*
X133688095Y-130573810D01*
X133688095Y-130430952D01*
X133735714Y-130240476D01*
X133783333Y-130145238D01*
X133878571Y-130050000D01*
X134021429Y-130002381D01*
X134116667Y-130002381D01*
X134259524Y-130050000D01*
X134307143Y-130097619D01*
X134688095Y-130097619D02*
X134735714Y-130050000D01*
X134830952Y-130002381D01*
X135069048Y-130002381D01*
X135164286Y-130050000D01*
X135211905Y-130097619D01*
X135259524Y-130192857D01*
X135259524Y-130288095D01*
X135211905Y-130430952D01*
X134640476Y-131002381D01*
X135259524Y-131002381D01*
X136116667Y-130002381D02*
X135926190Y-130002381D01*
X135830952Y-130050000D01*
X135783333Y-130097619D01*
X135688095Y-130240476D01*
X135640476Y-130430952D01*
X135640476Y-130811905D01*
X135688095Y-130907143D01*
X135735714Y-130954762D01*
X135830952Y-131002381D01*
X136021429Y-131002381D01*
X136116667Y-130954762D01*
X136164286Y-130907143D01*
X136211905Y-130811905D01*
X136211905Y-130573810D01*
X136164286Y-130478571D01*
X136116667Y-130430952D01*
X136021429Y-130383333D01*
X135830952Y-130383333D01*
X135735714Y-130430952D01*
X135688095Y-130478571D01*
X135640476Y-130573810D01*
X137999048Y-126431429D02*
X138760953Y-126431429D01*
X138380001Y-126812381D02*
X138380001Y-126050476D01*
X131407143Y-124092857D02*
X131454762Y-124140476D01*
X131502381Y-124283333D01*
X131502381Y-124378571D01*
X131454762Y-124521429D01*
X131359524Y-124616667D01*
X131264286Y-124664286D01*
X131073810Y-124711905D01*
X130930952Y-124711905D01*
X130740476Y-124664286D01*
X130645238Y-124616667D01*
X130550000Y-124521429D01*
X130502381Y-124378571D01*
X130502381Y-124283333D01*
X130550000Y-124140476D01*
X130597619Y-124092857D01*
X130597619Y-123711905D02*
X130550000Y-123664286D01*
X130502381Y-123569048D01*
X130502381Y-123330952D01*
X130550000Y-123235714D01*
X130597619Y-123188095D01*
X130692857Y-123140476D01*
X130788095Y-123140476D01*
X130930952Y-123188095D01*
X131502381Y-123759524D01*
X131502381Y-123140476D01*
X130502381Y-122235714D02*
X130502381Y-122711905D01*
X130978571Y-122759524D01*
X130930952Y-122711905D01*
X130883333Y-122616667D01*
X130883333Y-122378571D01*
X130930952Y-122283333D01*
X130978571Y-122235714D01*
X131073810Y-122188095D01*
X131311905Y-122188095D01*
X131407143Y-122235714D01*
X131454762Y-122283333D01*
X131502381Y-122378571D01*
X131502381Y-122616667D01*
X131454762Y-122711905D01*
X131407143Y-122759524D01*
X138707143Y-123542857D02*
X138754762Y-123590476D01*
X138802381Y-123733333D01*
X138802381Y-123828571D01*
X138754762Y-123971429D01*
X138659524Y-124066667D01*
X138564286Y-124114286D01*
X138373810Y-124161905D01*
X138230952Y-124161905D01*
X138040476Y-124114286D01*
X137945238Y-124066667D01*
X137850000Y-123971429D01*
X137802381Y-123828571D01*
X137802381Y-123733333D01*
X137850000Y-123590476D01*
X137897619Y-123542857D01*
X137897619Y-123161905D02*
X137850000Y-123114286D01*
X137802381Y-123019048D01*
X137802381Y-122780952D01*
X137850000Y-122685714D01*
X137897619Y-122638095D01*
X137992857Y-122590476D01*
X138088095Y-122590476D01*
X138230952Y-122638095D01*
X138802381Y-123209524D01*
X138802381Y-122590476D01*
X138802381Y-122114286D02*
X138802381Y-121923810D01*
X138754762Y-121828571D01*
X138707143Y-121780952D01*
X138564286Y-121685714D01*
X138373810Y-121638095D01*
X137992857Y-121638095D01*
X137897619Y-121685714D01*
X137850000Y-121733333D01*
X137802381Y-121828571D01*
X137802381Y-122019048D01*
X137850000Y-122114286D01*
X137897619Y-122161905D01*
X137992857Y-122209524D01*
X138230952Y-122209524D01*
X138326190Y-122161905D01*
X138373810Y-122114286D01*
X138421429Y-122019048D01*
X138421429Y-121828571D01*
X138373810Y-121733333D01*
X138326190Y-121685714D01*
X138230952Y-121638095D01*
X57813095Y-114927381D02*
X57813095Y-115736905D01*
X57860714Y-115832143D01*
X57908333Y-115879762D01*
X58003571Y-115927381D01*
X58194048Y-115927381D01*
X58289286Y-115879762D01*
X58336905Y-115832143D01*
X58384524Y-115736905D01*
X58384524Y-114927381D01*
X59289286Y-114927381D02*
X59098809Y-114927381D01*
X59003571Y-114975000D01*
X58955952Y-115022619D01*
X58860714Y-115165476D01*
X58813095Y-115355952D01*
X58813095Y-115736905D01*
X58860714Y-115832143D01*
X58908333Y-115879762D01*
X59003571Y-115927381D01*
X59194048Y-115927381D01*
X59289286Y-115879762D01*
X59336905Y-115832143D01*
X59384524Y-115736905D01*
X59384524Y-115498810D01*
X59336905Y-115403571D01*
X59289286Y-115355952D01*
X59194048Y-115308333D01*
X59003571Y-115308333D01*
X58908333Y-115355952D01*
X58860714Y-115403571D01*
X58813095Y-115498810D01*
X74083334Y-162757143D02*
X74035715Y-162804762D01*
X73892858Y-162852381D01*
X73797620Y-162852381D01*
X73654762Y-162804762D01*
X73559524Y-162709524D01*
X73511905Y-162614286D01*
X73464286Y-162423810D01*
X73464286Y-162280952D01*
X73511905Y-162090476D01*
X73559524Y-161995238D01*
X73654762Y-161900000D01*
X73797620Y-161852381D01*
X73892858Y-161852381D01*
X74035715Y-161900000D01*
X74083334Y-161947619D01*
X74940477Y-161852381D02*
X74750000Y-161852381D01*
X74654762Y-161900000D01*
X74607143Y-161947619D01*
X74511905Y-162090476D01*
X74464286Y-162280952D01*
X74464286Y-162661905D01*
X74511905Y-162757143D01*
X74559524Y-162804762D01*
X74654762Y-162852381D01*
X74845239Y-162852381D01*
X74940477Y-162804762D01*
X74988096Y-162757143D01*
X75035715Y-162661905D01*
X75035715Y-162423810D01*
X74988096Y-162328571D01*
X74940477Y-162280952D01*
X74845239Y-162233333D01*
X74654762Y-162233333D01*
X74559524Y-162280952D01*
X74511905Y-162328571D01*
X74464286Y-162423810D01*
X74757143Y-168116666D02*
X74804762Y-168164285D01*
X74852381Y-168307142D01*
X74852381Y-168402380D01*
X74804762Y-168545238D01*
X74709524Y-168640476D01*
X74614286Y-168688095D01*
X74423810Y-168735714D01*
X74280952Y-168735714D01*
X74090476Y-168688095D01*
X73995238Y-168640476D01*
X73900000Y-168545238D01*
X73852381Y-168402380D01*
X73852381Y-168307142D01*
X73900000Y-168164285D01*
X73947619Y-168116666D01*
X73852381Y-167783333D02*
X73852381Y-167116666D01*
X74852381Y-167545238D01*
X73781429Y-164900952D02*
X73781429Y-164139047D01*
X74162381Y-164519999D02*
X73400476Y-164519999D01*
X102783334Y-145907143D02*
X102735715Y-145954762D01*
X102592858Y-146002381D01*
X102497620Y-146002381D01*
X102354762Y-145954762D01*
X102259524Y-145859524D01*
X102211905Y-145764286D01*
X102164286Y-145573810D01*
X102164286Y-145430952D01*
X102211905Y-145240476D01*
X102259524Y-145145238D01*
X102354762Y-145050000D01*
X102497620Y-145002381D01*
X102592858Y-145002381D01*
X102735715Y-145050000D01*
X102783334Y-145097619D01*
X103735715Y-146002381D02*
X103164286Y-146002381D01*
X103450000Y-146002381D02*
X103450000Y-145002381D01*
X103354762Y-145145238D01*
X103259524Y-145240476D01*
X103164286Y-145288095D01*
X90057143Y-132416666D02*
X90104762Y-132464285D01*
X90152381Y-132607142D01*
X90152381Y-132702380D01*
X90104762Y-132845238D01*
X90009524Y-132940476D01*
X89914286Y-132988095D01*
X89723810Y-133035714D01*
X89580952Y-133035714D01*
X89390476Y-132988095D01*
X89295238Y-132940476D01*
X89200000Y-132845238D01*
X89152381Y-132702380D01*
X89152381Y-132607142D01*
X89200000Y-132464285D01*
X89247619Y-132416666D01*
X89247619Y-132035714D02*
X89200000Y-131988095D01*
X89152381Y-131892857D01*
X89152381Y-131654761D01*
X89200000Y-131559523D01*
X89247619Y-131511904D01*
X89342857Y-131464285D01*
X89438095Y-131464285D01*
X89580952Y-131511904D01*
X90152381Y-132083333D01*
X90152381Y-131464285D01*
X89907143Y-138216666D02*
X89954762Y-138264285D01*
X90002381Y-138407142D01*
X90002381Y-138502380D01*
X89954762Y-138645238D01*
X89859524Y-138740476D01*
X89764286Y-138788095D01*
X89573810Y-138835714D01*
X89430952Y-138835714D01*
X89240476Y-138788095D01*
X89145238Y-138740476D01*
X89050000Y-138645238D01*
X89002381Y-138502380D01*
X89002381Y-138407142D01*
X89050000Y-138264285D01*
X89097619Y-138216666D01*
X89002381Y-137883333D02*
X89002381Y-137264285D01*
X89383333Y-137597619D01*
X89383333Y-137454761D01*
X89430952Y-137359523D01*
X89478571Y-137311904D01*
X89573810Y-137264285D01*
X89811905Y-137264285D01*
X89907143Y-137311904D01*
X89954762Y-137359523D01*
X90002381Y-137454761D01*
X90002381Y-137740476D01*
X89954762Y-137835714D01*
X89907143Y-137883333D01*
X75883334Y-162807143D02*
X75835715Y-162854762D01*
X75692858Y-162902381D01*
X75597620Y-162902381D01*
X75454762Y-162854762D01*
X75359524Y-162759524D01*
X75311905Y-162664286D01*
X75264286Y-162473810D01*
X75264286Y-162330952D01*
X75311905Y-162140476D01*
X75359524Y-162045238D01*
X75454762Y-161950000D01*
X75597620Y-161902381D01*
X75692858Y-161902381D01*
X75835715Y-161950000D01*
X75883334Y-161997619D01*
X76454762Y-162330952D02*
X76359524Y-162283333D01*
X76311905Y-162235714D01*
X76264286Y-162140476D01*
X76264286Y-162092857D01*
X76311905Y-161997619D01*
X76359524Y-161950000D01*
X76454762Y-161902381D01*
X76645239Y-161902381D01*
X76740477Y-161950000D01*
X76788096Y-161997619D01*
X76835715Y-162092857D01*
X76835715Y-162140476D01*
X76788096Y-162235714D01*
X76740477Y-162283333D01*
X76645239Y-162330952D01*
X76454762Y-162330952D01*
X76359524Y-162378571D01*
X76311905Y-162426190D01*
X76264286Y-162521429D01*
X76264286Y-162711905D01*
X76311905Y-162807143D01*
X76359524Y-162854762D01*
X76454762Y-162902381D01*
X76645239Y-162902381D01*
X76740477Y-162854762D01*
X76788096Y-162807143D01*
X76835715Y-162711905D01*
X76835715Y-162521429D01*
X76788096Y-162426190D01*
X76740477Y-162378571D01*
X76645239Y-162330952D01*
X72807143Y-163316666D02*
X72854762Y-163364285D01*
X72902381Y-163507142D01*
X72902381Y-163602380D01*
X72854762Y-163745238D01*
X72759524Y-163840476D01*
X72664286Y-163888095D01*
X72473810Y-163935714D01*
X72330952Y-163935714D01*
X72140476Y-163888095D01*
X72045238Y-163840476D01*
X71950000Y-163745238D01*
X71902381Y-163602380D01*
X71902381Y-163507142D01*
X71950000Y-163364285D01*
X71997619Y-163316666D01*
X72902381Y-162840476D02*
X72902381Y-162650000D01*
X72854762Y-162554761D01*
X72807143Y-162507142D01*
X72664286Y-162411904D01*
X72473810Y-162364285D01*
X72092857Y-162364285D01*
X71997619Y-162411904D01*
X71950000Y-162459523D01*
X71902381Y-162554761D01*
X71902381Y-162745238D01*
X71950000Y-162840476D01*
X71997619Y-162888095D01*
X72092857Y-162935714D01*
X72330952Y-162935714D01*
X72426190Y-162888095D01*
X72473810Y-162840476D01*
X72521429Y-162745238D01*
X72521429Y-162554761D01*
X72473810Y-162459523D01*
X72426190Y-162411904D01*
X72330952Y-162364285D01*
X108857143Y-146007143D02*
X108809524Y-146054762D01*
X108666667Y-146102381D01*
X108571429Y-146102381D01*
X108428571Y-146054762D01*
X108333333Y-145959524D01*
X108285714Y-145864286D01*
X108238095Y-145673810D01*
X108238095Y-145530952D01*
X108285714Y-145340476D01*
X108333333Y-145245238D01*
X108428571Y-145150000D01*
X108571429Y-145102381D01*
X108666667Y-145102381D01*
X108809524Y-145150000D01*
X108857143Y-145197619D01*
X109809524Y-146102381D02*
X109238095Y-146102381D01*
X109523809Y-146102381D02*
X109523809Y-145102381D01*
X109428571Y-145245238D01*
X109333333Y-145340476D01*
X109238095Y-145388095D01*
X110761905Y-146102381D02*
X110190476Y-146102381D01*
X110476190Y-146102381D02*
X110476190Y-145102381D01*
X110380952Y-145245238D01*
X110285714Y-145340476D01*
X110190476Y-145388095D01*
X64857143Y-160357143D02*
X64809524Y-160404762D01*
X64666667Y-160452381D01*
X64571429Y-160452381D01*
X64428571Y-160404762D01*
X64333333Y-160309524D01*
X64285714Y-160214286D01*
X64238095Y-160023810D01*
X64238095Y-159880952D01*
X64285714Y-159690476D01*
X64333333Y-159595238D01*
X64428571Y-159500000D01*
X64571429Y-159452381D01*
X64666667Y-159452381D01*
X64809524Y-159500000D01*
X64857143Y-159547619D01*
X65809524Y-160452381D02*
X65238095Y-160452381D01*
X65523809Y-160452381D02*
X65523809Y-159452381D01*
X65428571Y-159595238D01*
X65333333Y-159690476D01*
X65238095Y-159738095D01*
X66190476Y-159547619D02*
X66238095Y-159500000D01*
X66333333Y-159452381D01*
X66571429Y-159452381D01*
X66666667Y-159500000D01*
X66714286Y-159547619D01*
X66761905Y-159642857D01*
X66761905Y-159738095D01*
X66714286Y-159880952D01*
X66142857Y-160452381D01*
X66761905Y-160452381D01*
X98607143Y-142742857D02*
X98654762Y-142790476D01*
X98702381Y-142933333D01*
X98702381Y-143028571D01*
X98654762Y-143171429D01*
X98559524Y-143266667D01*
X98464286Y-143314286D01*
X98273810Y-143361905D01*
X98130952Y-143361905D01*
X97940476Y-143314286D01*
X97845238Y-143266667D01*
X97750000Y-143171429D01*
X97702381Y-143028571D01*
X97702381Y-142933333D01*
X97750000Y-142790476D01*
X97797619Y-142742857D01*
X98702381Y-141790476D02*
X98702381Y-142361905D01*
X98702381Y-142076191D02*
X97702381Y-142076191D01*
X97845238Y-142171429D01*
X97940476Y-142266667D01*
X97988095Y-142361905D01*
X97702381Y-141457143D02*
X97702381Y-140838095D01*
X98083333Y-141171429D01*
X98083333Y-141028571D01*
X98130952Y-140933333D01*
X98178571Y-140885714D01*
X98273810Y-140838095D01*
X98511905Y-140838095D01*
X98607143Y-140885714D01*
X98654762Y-140933333D01*
X98702381Y-141028571D01*
X98702381Y-141314286D01*
X98654762Y-141409524D01*
X98607143Y-141457143D01*
X109007143Y-165892857D02*
X109054762Y-165940476D01*
X109102381Y-166083333D01*
X109102381Y-166178571D01*
X109054762Y-166321429D01*
X108959524Y-166416667D01*
X108864286Y-166464286D01*
X108673810Y-166511905D01*
X108530952Y-166511905D01*
X108340476Y-166464286D01*
X108245238Y-166416667D01*
X108150000Y-166321429D01*
X108102381Y-166178571D01*
X108102381Y-166083333D01*
X108150000Y-165940476D01*
X108197619Y-165892857D01*
X109102381Y-164940476D02*
X109102381Y-165511905D01*
X109102381Y-165226191D02*
X108102381Y-165226191D01*
X108245238Y-165321429D01*
X108340476Y-165416667D01*
X108388095Y-165511905D01*
X108435714Y-164083333D02*
X109102381Y-164083333D01*
X108054762Y-164321429D02*
X108769048Y-164559524D01*
X108769048Y-163940476D01*
X101757143Y-130107143D02*
X101709524Y-130154762D01*
X101566667Y-130202381D01*
X101471429Y-130202381D01*
X101328571Y-130154762D01*
X101233333Y-130059524D01*
X101185714Y-129964286D01*
X101138095Y-129773810D01*
X101138095Y-129630952D01*
X101185714Y-129440476D01*
X101233333Y-129345238D01*
X101328571Y-129250000D01*
X101471429Y-129202381D01*
X101566667Y-129202381D01*
X101709524Y-129250000D01*
X101757143Y-129297619D01*
X102709524Y-130202381D02*
X102138095Y-130202381D01*
X102423809Y-130202381D02*
X102423809Y-129202381D01*
X102328571Y-129345238D01*
X102233333Y-129440476D01*
X102138095Y-129488095D01*
X103614286Y-129202381D02*
X103138095Y-129202381D01*
X103090476Y-129678571D01*
X103138095Y-129630952D01*
X103233333Y-129583333D01*
X103471429Y-129583333D01*
X103566667Y-129630952D01*
X103614286Y-129678571D01*
X103661905Y-129773810D01*
X103661905Y-130011905D01*
X103614286Y-130107143D01*
X103566667Y-130154762D01*
X103471429Y-130202381D01*
X103233333Y-130202381D01*
X103138095Y-130154762D01*
X103090476Y-130107143D01*
X61757143Y-155507143D02*
X61709524Y-155554762D01*
X61566667Y-155602381D01*
X61471429Y-155602381D01*
X61328571Y-155554762D01*
X61233333Y-155459524D01*
X61185714Y-155364286D01*
X61138095Y-155173810D01*
X61138095Y-155030952D01*
X61185714Y-154840476D01*
X61233333Y-154745238D01*
X61328571Y-154650000D01*
X61471429Y-154602381D01*
X61566667Y-154602381D01*
X61709524Y-154650000D01*
X61757143Y-154697619D01*
X62709524Y-155602381D02*
X62138095Y-155602381D01*
X62423809Y-155602381D02*
X62423809Y-154602381D01*
X62328571Y-154745238D01*
X62233333Y-154840476D01*
X62138095Y-154888095D01*
X63566667Y-154602381D02*
X63376190Y-154602381D01*
X63280952Y-154650000D01*
X63233333Y-154697619D01*
X63138095Y-154840476D01*
X63090476Y-155030952D01*
X63090476Y-155411905D01*
X63138095Y-155507143D01*
X63185714Y-155554762D01*
X63280952Y-155602381D01*
X63471429Y-155602381D01*
X63566667Y-155554762D01*
X63614286Y-155507143D01*
X63661905Y-155411905D01*
X63661905Y-155173810D01*
X63614286Y-155078571D01*
X63566667Y-155030952D01*
X63471429Y-154983333D01*
X63280952Y-154983333D01*
X63185714Y-155030952D01*
X63138095Y-155078571D01*
X63090476Y-155173810D01*
X64861429Y-158910952D02*
X64861429Y-158149047D01*
X65242381Y-158529999D02*
X64480476Y-158529999D01*
X115257143Y-133642857D02*
X115304762Y-133690476D01*
X115352381Y-133833333D01*
X115352381Y-133928571D01*
X115304762Y-134071429D01*
X115209524Y-134166667D01*
X115114286Y-134214286D01*
X114923810Y-134261905D01*
X114780952Y-134261905D01*
X114590476Y-134214286D01*
X114495238Y-134166667D01*
X114400000Y-134071429D01*
X114352381Y-133928571D01*
X114352381Y-133833333D01*
X114400000Y-133690476D01*
X114447619Y-133642857D01*
X115352381Y-132690476D02*
X115352381Y-133261905D01*
X115352381Y-132976191D02*
X114352381Y-132976191D01*
X114495238Y-133071429D01*
X114590476Y-133166667D01*
X114638095Y-133261905D01*
X114352381Y-132357143D02*
X114352381Y-131690476D01*
X115352381Y-132119048D01*
X109057143Y-158092857D02*
X109104762Y-158140476D01*
X109152381Y-158283333D01*
X109152381Y-158378571D01*
X109104762Y-158521429D01*
X109009524Y-158616667D01*
X108914286Y-158664286D01*
X108723810Y-158711905D01*
X108580952Y-158711905D01*
X108390476Y-158664286D01*
X108295238Y-158616667D01*
X108200000Y-158521429D01*
X108152381Y-158378571D01*
X108152381Y-158283333D01*
X108200000Y-158140476D01*
X108247619Y-158092857D01*
X109152381Y-157140476D02*
X109152381Y-157711905D01*
X109152381Y-157426191D02*
X108152381Y-157426191D01*
X108295238Y-157521429D01*
X108390476Y-157616667D01*
X108438095Y-157711905D01*
X108580952Y-156569048D02*
X108533333Y-156664286D01*
X108485714Y-156711905D01*
X108390476Y-156759524D01*
X108342857Y-156759524D01*
X108247619Y-156711905D01*
X108200000Y-156664286D01*
X108152381Y-156569048D01*
X108152381Y-156378571D01*
X108200000Y-156283333D01*
X108247619Y-156235714D01*
X108342857Y-156188095D01*
X108390476Y-156188095D01*
X108485714Y-156235714D01*
X108533333Y-156283333D01*
X108580952Y-156378571D01*
X108580952Y-156569048D01*
X108628571Y-156664286D01*
X108676190Y-156711905D01*
X108771429Y-156759524D01*
X108961905Y-156759524D01*
X109057143Y-156711905D01*
X109104762Y-156664286D01*
X109152381Y-156569048D01*
X109152381Y-156378571D01*
X109104762Y-156283333D01*
X109057143Y-156235714D01*
X108961905Y-156188095D01*
X108771429Y-156188095D01*
X108676190Y-156235714D01*
X108628571Y-156283333D01*
X108580952Y-156378571D01*
X48707143Y-155507143D02*
X48659524Y-155554762D01*
X48516667Y-155602381D01*
X48421429Y-155602381D01*
X48278571Y-155554762D01*
X48183333Y-155459524D01*
X48135714Y-155364286D01*
X48088095Y-155173810D01*
X48088095Y-155030952D01*
X48135714Y-154840476D01*
X48183333Y-154745238D01*
X48278571Y-154650000D01*
X48421429Y-154602381D01*
X48516667Y-154602381D01*
X48659524Y-154650000D01*
X48707143Y-154697619D01*
X49659524Y-155602381D02*
X49088095Y-155602381D01*
X49373809Y-155602381D02*
X49373809Y-154602381D01*
X49278571Y-154745238D01*
X49183333Y-154840476D01*
X49088095Y-154888095D01*
X50135714Y-155602381D02*
X50326190Y-155602381D01*
X50421429Y-155554762D01*
X50469048Y-155507143D01*
X50564286Y-155364286D01*
X50611905Y-155173810D01*
X50611905Y-154792857D01*
X50564286Y-154697619D01*
X50516667Y-154650000D01*
X50421429Y-154602381D01*
X50230952Y-154602381D01*
X50135714Y-154650000D01*
X50088095Y-154697619D01*
X50040476Y-154792857D01*
X50040476Y-155030952D01*
X50088095Y-155126190D01*
X50135714Y-155173810D01*
X50230952Y-155221429D01*
X50421429Y-155221429D01*
X50516667Y-155173810D01*
X50564286Y-155126190D01*
X50611905Y-155030952D01*
X47181429Y-152150952D02*
X47181429Y-151389047D01*
X47562381Y-151769999D02*
X46800476Y-151769999D01*
X45557143Y-160457143D02*
X45509524Y-160504762D01*
X45366667Y-160552381D01*
X45271429Y-160552381D01*
X45128571Y-160504762D01*
X45033333Y-160409524D01*
X44985714Y-160314286D01*
X44938095Y-160123810D01*
X44938095Y-159980952D01*
X44985714Y-159790476D01*
X45033333Y-159695238D01*
X45128571Y-159600000D01*
X45271429Y-159552381D01*
X45366667Y-159552381D01*
X45509524Y-159600000D01*
X45557143Y-159647619D01*
X45938095Y-159647619D02*
X45985714Y-159600000D01*
X46080952Y-159552381D01*
X46319048Y-159552381D01*
X46414286Y-159600000D01*
X46461905Y-159647619D01*
X46509524Y-159742857D01*
X46509524Y-159838095D01*
X46461905Y-159980952D01*
X45890476Y-160552381D01*
X46509524Y-160552381D01*
X47128571Y-159552381D02*
X47223810Y-159552381D01*
X47319048Y-159600000D01*
X47366667Y-159647619D01*
X47414286Y-159742857D01*
X47461905Y-159933333D01*
X47461905Y-160171429D01*
X47414286Y-160361905D01*
X47366667Y-160457143D01*
X47319048Y-160504762D01*
X47223810Y-160552381D01*
X47128571Y-160552381D01*
X47033333Y-160504762D01*
X46985714Y-160457143D01*
X46938095Y-160361905D01*
X46890476Y-160171429D01*
X46890476Y-159933333D01*
X46938095Y-159742857D01*
X46985714Y-159647619D01*
X47033333Y-159600000D01*
X47128571Y-159552381D01*
X76057143Y-133657143D02*
X76009524Y-133704762D01*
X75866667Y-133752381D01*
X75771429Y-133752381D01*
X75628571Y-133704762D01*
X75533333Y-133609524D01*
X75485714Y-133514286D01*
X75438095Y-133323810D01*
X75438095Y-133180952D01*
X75485714Y-132990476D01*
X75533333Y-132895238D01*
X75628571Y-132800000D01*
X75771429Y-132752381D01*
X75866667Y-132752381D01*
X76009524Y-132800000D01*
X76057143Y-132847619D01*
X76438095Y-132847619D02*
X76485714Y-132800000D01*
X76580952Y-132752381D01*
X76819048Y-132752381D01*
X76914286Y-132800000D01*
X76961905Y-132847619D01*
X77009524Y-132942857D01*
X77009524Y-133038095D01*
X76961905Y-133180952D01*
X76390476Y-133752381D01*
X77009524Y-133752381D01*
X77961905Y-133752381D02*
X77390476Y-133752381D01*
X77676190Y-133752381D02*
X77676190Y-132752381D01*
X77580952Y-132895238D01*
X77485714Y-132990476D01*
X77390476Y-133038095D01*
X47957143Y-123257143D02*
X47909524Y-123304762D01*
X47766667Y-123352381D01*
X47671429Y-123352381D01*
X47528571Y-123304762D01*
X47433333Y-123209524D01*
X47385714Y-123114286D01*
X47338095Y-122923810D01*
X47338095Y-122780952D01*
X47385714Y-122590476D01*
X47433333Y-122495238D01*
X47528571Y-122400000D01*
X47671429Y-122352381D01*
X47766667Y-122352381D01*
X47909524Y-122400000D01*
X47957143Y-122447619D01*
X48338095Y-122447619D02*
X48385714Y-122400000D01*
X48480952Y-122352381D01*
X48719048Y-122352381D01*
X48814286Y-122400000D01*
X48861905Y-122447619D01*
X48909524Y-122542857D01*
X48909524Y-122638095D01*
X48861905Y-122780952D01*
X48290476Y-123352381D01*
X48909524Y-123352381D01*
X49290476Y-122447619D02*
X49338095Y-122400000D01*
X49433333Y-122352381D01*
X49671429Y-122352381D01*
X49766667Y-122400000D01*
X49814286Y-122447619D01*
X49861905Y-122542857D01*
X49861905Y-122638095D01*
X49814286Y-122780952D01*
X49242857Y-123352381D01*
X49861905Y-123352381D01*
X72607143Y-139157143D02*
X72559524Y-139204762D01*
X72416667Y-139252381D01*
X72321429Y-139252381D01*
X72178571Y-139204762D01*
X72083333Y-139109524D01*
X72035714Y-139014286D01*
X71988095Y-138823810D01*
X71988095Y-138680952D01*
X72035714Y-138490476D01*
X72083333Y-138395238D01*
X72178571Y-138300000D01*
X72321429Y-138252381D01*
X72416667Y-138252381D01*
X72559524Y-138300000D01*
X72607143Y-138347619D01*
X72988095Y-138347619D02*
X73035714Y-138300000D01*
X73130952Y-138252381D01*
X73369048Y-138252381D01*
X73464286Y-138300000D01*
X73511905Y-138347619D01*
X73559524Y-138442857D01*
X73559524Y-138538095D01*
X73511905Y-138680952D01*
X72940476Y-139252381D01*
X73559524Y-139252381D01*
X73892857Y-138252381D02*
X74511905Y-138252381D01*
X74178571Y-138633333D01*
X74321429Y-138633333D01*
X74416667Y-138680952D01*
X74464286Y-138728571D01*
X74511905Y-138823810D01*
X74511905Y-139061905D01*
X74464286Y-139157143D01*
X74416667Y-139204762D01*
X74321429Y-139252381D01*
X74035714Y-139252381D01*
X73940476Y-139204762D01*
X73892857Y-139157143D01*
X73257143Y-109642857D02*
X73304762Y-109690476D01*
X73352381Y-109833333D01*
X73352381Y-109928571D01*
X73304762Y-110071429D01*
X73209524Y-110166667D01*
X73114286Y-110214286D01*
X72923810Y-110261905D01*
X72780952Y-110261905D01*
X72590476Y-110214286D01*
X72495238Y-110166667D01*
X72400000Y-110071429D01*
X72352381Y-109928571D01*
X72352381Y-109833333D01*
X72400000Y-109690476D01*
X72447619Y-109642857D01*
X72447619Y-109261905D02*
X72400000Y-109214286D01*
X72352381Y-109119048D01*
X72352381Y-108880952D01*
X72400000Y-108785714D01*
X72447619Y-108738095D01*
X72542857Y-108690476D01*
X72638095Y-108690476D01*
X72780952Y-108738095D01*
X73352381Y-109309524D01*
X73352381Y-108690476D01*
X72685714Y-107833333D02*
X73352381Y-107833333D01*
X72304762Y-108071429D02*
X73019048Y-108309524D01*
X73019048Y-107690476D01*
X50757143Y-145657143D02*
X50709524Y-145704762D01*
X50566667Y-145752381D01*
X50471429Y-145752381D01*
X50328571Y-145704762D01*
X50233333Y-145609524D01*
X50185714Y-145514286D01*
X50138095Y-145323810D01*
X50138095Y-145180952D01*
X50185714Y-144990476D01*
X50233333Y-144895238D01*
X50328571Y-144800000D01*
X50471429Y-144752381D01*
X50566667Y-144752381D01*
X50709524Y-144800000D01*
X50757143Y-144847619D01*
X51138095Y-144847619D02*
X51185714Y-144800000D01*
X51280952Y-144752381D01*
X51519048Y-144752381D01*
X51614286Y-144800000D01*
X51661905Y-144847619D01*
X51709524Y-144942857D01*
X51709524Y-145038095D01*
X51661905Y-145180952D01*
X51090476Y-145752381D01*
X51709524Y-145752381D01*
X52042857Y-144752381D02*
X52709524Y-144752381D01*
X52280952Y-145752381D01*
X132997143Y-132597143D02*
X132949524Y-132644762D01*
X132806667Y-132692381D01*
X132711429Y-132692381D01*
X132568571Y-132644762D01*
X132473333Y-132549524D01*
X132425714Y-132454286D01*
X132378095Y-132263810D01*
X132378095Y-132120952D01*
X132425714Y-131930476D01*
X132473333Y-131835238D01*
X132568571Y-131740000D01*
X132711429Y-131692381D01*
X132806667Y-131692381D01*
X132949524Y-131740000D01*
X132997143Y-131787619D01*
X133378095Y-131787619D02*
X133425714Y-131740000D01*
X133520952Y-131692381D01*
X133759048Y-131692381D01*
X133854286Y-131740000D01*
X133901905Y-131787619D01*
X133949524Y-131882857D01*
X133949524Y-131978095D01*
X133901905Y-132120952D01*
X133330476Y-132692381D01*
X133949524Y-132692381D01*
X134520952Y-132120952D02*
X134425714Y-132073333D01*
X134378095Y-132025714D01*
X134330476Y-131930476D01*
X134330476Y-131882857D01*
X134378095Y-131787619D01*
X134425714Y-131740000D01*
X134520952Y-131692381D01*
X134711429Y-131692381D01*
X134806667Y-131740000D01*
X134854286Y-131787619D01*
X134901905Y-131882857D01*
X134901905Y-131930476D01*
X134854286Y-132025714D01*
X134806667Y-132073333D01*
X134711429Y-132120952D01*
X134520952Y-132120952D01*
X134425714Y-132168571D01*
X134378095Y-132216190D01*
X134330476Y-132311429D01*
X134330476Y-132501905D01*
X134378095Y-132597143D01*
X134425714Y-132644762D01*
X134520952Y-132692381D01*
X134711429Y-132692381D01*
X134806667Y-132644762D01*
X134854286Y-132597143D01*
X134901905Y-132501905D01*
X134901905Y-132311429D01*
X134854286Y-132216190D01*
X134806667Y-132168571D01*
X134711429Y-132120952D01*
X65557143Y-140107143D02*
X65509524Y-140154762D01*
X65366667Y-140202381D01*
X65271429Y-140202381D01*
X65128571Y-140154762D01*
X65033333Y-140059524D01*
X64985714Y-139964286D01*
X64938095Y-139773810D01*
X64938095Y-139630952D01*
X64985714Y-139440476D01*
X65033333Y-139345238D01*
X65128571Y-139250000D01*
X65271429Y-139202381D01*
X65366667Y-139202381D01*
X65509524Y-139250000D01*
X65557143Y-139297619D01*
X65890476Y-139202381D02*
X66509524Y-139202381D01*
X66176190Y-139583333D01*
X66319048Y-139583333D01*
X66414286Y-139630952D01*
X66461905Y-139678571D01*
X66509524Y-139773810D01*
X66509524Y-140011905D01*
X66461905Y-140107143D01*
X66414286Y-140154762D01*
X66319048Y-140202381D01*
X66033333Y-140202381D01*
X65938095Y-140154762D01*
X65890476Y-140107143D01*
X66890476Y-139297619D02*
X66938095Y-139250000D01*
X67033333Y-139202381D01*
X67271429Y-139202381D01*
X67366667Y-139250000D01*
X67414286Y-139297619D01*
X67461905Y-139392857D01*
X67461905Y-139488095D01*
X67414286Y-139630952D01*
X66842857Y-140202381D01*
X67461905Y-140202381D01*
X87232143Y-137567857D02*
X87279762Y-137615476D01*
X87327381Y-137758333D01*
X87327381Y-137853571D01*
X87279762Y-137996429D01*
X87184524Y-138091667D01*
X87089286Y-138139286D01*
X86898810Y-138186905D01*
X86755952Y-138186905D01*
X86565476Y-138139286D01*
X86470238Y-138091667D01*
X86375000Y-137996429D01*
X86327381Y-137853571D01*
X86327381Y-137758333D01*
X86375000Y-137615476D01*
X86422619Y-137567857D01*
X86327381Y-137234524D02*
X86327381Y-136615476D01*
X86708333Y-136948810D01*
X86708333Y-136805952D01*
X86755952Y-136710714D01*
X86803571Y-136663095D01*
X86898810Y-136615476D01*
X87136905Y-136615476D01*
X87232143Y-136663095D01*
X87279762Y-136710714D01*
X87327381Y-136805952D01*
X87327381Y-137091667D01*
X87279762Y-137186905D01*
X87232143Y-137234524D01*
X86327381Y-136282143D02*
X86327381Y-135663095D01*
X86708333Y-135996429D01*
X86708333Y-135853571D01*
X86755952Y-135758333D01*
X86803571Y-135710714D01*
X86898810Y-135663095D01*
X87136905Y-135663095D01*
X87232143Y-135710714D01*
X87279762Y-135758333D01*
X87327381Y-135853571D01*
X87327381Y-136139286D01*
X87279762Y-136234524D01*
X87232143Y-136282143D01*
X69611905Y-171352381D02*
X69611905Y-170352381D01*
X69850000Y-170352381D01*
X69992858Y-170400000D01*
X70088096Y-170495238D01*
X70135715Y-170590476D01*
X70183334Y-170780952D01*
X70183334Y-170923810D01*
X70135715Y-171114286D01*
X70088096Y-171209524D01*
X69992858Y-171304762D01*
X69850000Y-171352381D01*
X69611905Y-171352381D01*
X71135715Y-171352381D02*
X70564286Y-171352381D01*
X70850000Y-171352381D02*
X70850000Y-170352381D01*
X70754762Y-170495238D01*
X70659524Y-170590476D01*
X70564286Y-170638095D01*
X47452381Y-165038095D02*
X46452381Y-165038095D01*
X46452381Y-164800000D01*
X46500000Y-164657142D01*
X46595238Y-164561904D01*
X46690476Y-164514285D01*
X46880952Y-164466666D01*
X47023810Y-164466666D01*
X47214286Y-164514285D01*
X47309524Y-164561904D01*
X47404762Y-164657142D01*
X47452381Y-164800000D01*
X47452381Y-165038095D01*
X46547619Y-164085714D02*
X46500000Y-164038095D01*
X46452381Y-163942857D01*
X46452381Y-163704761D01*
X46500000Y-163609523D01*
X46547619Y-163561904D01*
X46642857Y-163514285D01*
X46738095Y-163514285D01*
X46880952Y-163561904D01*
X47452381Y-164133333D01*
X47452381Y-163514285D01*
X72466667Y-126152381D02*
X72466667Y-126866667D01*
X72419047Y-127009524D01*
X72323809Y-127104762D01*
X72180952Y-127152381D01*
X72085714Y-127152381D01*
X72942857Y-127152381D02*
X72942857Y-126152381D01*
X73323810Y-126152381D01*
X73419048Y-126200000D01*
X73466667Y-126247619D01*
X73514286Y-126342857D01*
X73514286Y-126485714D01*
X73466667Y-126580952D01*
X73419048Y-126628571D01*
X73323810Y-126676190D01*
X72942857Y-126676190D01*
X74466667Y-127152381D02*
X73895238Y-127152381D01*
X74180952Y-127152381D02*
X74180952Y-126152381D01*
X74085714Y-126295238D01*
X73990476Y-126390476D01*
X73895238Y-126438095D01*
X66416667Y-126102381D02*
X66416667Y-126816667D01*
X66369047Y-126959524D01*
X66273809Y-127054762D01*
X66130952Y-127102381D01*
X66035714Y-127102381D01*
X66892857Y-127102381D02*
X66892857Y-126102381D01*
X67273810Y-126102381D01*
X67369048Y-126150000D01*
X67416667Y-126197619D01*
X67464286Y-126292857D01*
X67464286Y-126435714D01*
X67416667Y-126530952D01*
X67369048Y-126578571D01*
X67273810Y-126626190D01*
X66892857Y-126626190D01*
X67845238Y-126197619D02*
X67892857Y-126150000D01*
X67988095Y-126102381D01*
X68226191Y-126102381D01*
X68321429Y-126150000D01*
X68369048Y-126197619D01*
X68416667Y-126292857D01*
X68416667Y-126388095D01*
X68369048Y-126530952D01*
X67797619Y-127102381D01*
X68416667Y-127102381D01*
X78552381Y-160616666D02*
X78552381Y-161092857D01*
X77552381Y-161092857D01*
X78552381Y-159759523D02*
X78552381Y-160330952D01*
X78552381Y-160045238D02*
X77552381Y-160045238D01*
X77695238Y-160140476D01*
X77790476Y-160235714D01*
X77838095Y-160330952D01*
X103693334Y-166003401D02*
X103217143Y-166003401D01*
X103217143Y-165003401D01*
X103979048Y-165098639D02*
X104026667Y-165051020D01*
X104121905Y-165003401D01*
X104360001Y-165003401D01*
X104455239Y-165051020D01*
X104502858Y-165098639D01*
X104550477Y-165193877D01*
X104550477Y-165289115D01*
X104502858Y-165431972D01*
X103931429Y-166003401D01*
X104550477Y-166003401D01*
X103683334Y-158303401D02*
X103207143Y-158303401D01*
X103207143Y-157303401D01*
X103921429Y-157303401D02*
X104540477Y-157303401D01*
X104207143Y-157684353D01*
X104350001Y-157684353D01*
X104445239Y-157731972D01*
X104492858Y-157779591D01*
X104540477Y-157874830D01*
X104540477Y-158112925D01*
X104492858Y-158208163D01*
X104445239Y-158255782D01*
X104350001Y-158303401D01*
X104064286Y-158303401D01*
X103969048Y-158255782D01*
X103921429Y-158208163D01*
X55161905Y-164502381D02*
X55161905Y-163502381D01*
X55542858Y-163502381D01*
X55638096Y-163550000D01*
X55685715Y-163597619D01*
X55733334Y-163692857D01*
X55733334Y-163835714D01*
X55685715Y-163930952D01*
X55638096Y-163978571D01*
X55542858Y-164026190D01*
X55161905Y-164026190D01*
X56685715Y-164502381D02*
X56114286Y-164502381D01*
X56400000Y-164502381D02*
X56400000Y-163502381D01*
X56304762Y-163645238D01*
X56209524Y-163740476D01*
X56114286Y-163788095D01*
X83261905Y-171602381D02*
X83261905Y-170602381D01*
X83642858Y-170602381D01*
X83738096Y-170650000D01*
X83785715Y-170697619D01*
X83833334Y-170792857D01*
X83833334Y-170935714D01*
X83785715Y-171030952D01*
X83738096Y-171078571D01*
X83642858Y-171126190D01*
X83261905Y-171126190D01*
X84214286Y-170697619D02*
X84261905Y-170650000D01*
X84357143Y-170602381D01*
X84595239Y-170602381D01*
X84690477Y-170650000D01*
X84738096Y-170697619D01*
X84785715Y-170792857D01*
X84785715Y-170888095D01*
X84738096Y-171030952D01*
X84166667Y-171602381D01*
X84785715Y-171602381D01*
X64554762Y-170672619D02*
X64459524Y-170625000D01*
X64364286Y-170529762D01*
X64221429Y-170386905D01*
X64126190Y-170339286D01*
X64030952Y-170339286D01*
X64078571Y-170577381D02*
X63983333Y-170529762D01*
X63888095Y-170434524D01*
X63840476Y-170244048D01*
X63840476Y-169910714D01*
X63888095Y-169720238D01*
X63983333Y-169625000D01*
X64078571Y-169577381D01*
X64269048Y-169577381D01*
X64364286Y-169625000D01*
X64459524Y-169720238D01*
X64507143Y-169910714D01*
X64507143Y-170244048D01*
X64459524Y-170434524D01*
X64364286Y-170529762D01*
X64269048Y-170577381D01*
X64078571Y-170577381D01*
X65459524Y-170577381D02*
X64888095Y-170577381D01*
X65173809Y-170577381D02*
X65173809Y-169577381D01*
X65078571Y-169720238D01*
X64983333Y-169815476D01*
X64888095Y-169863095D01*
X64554762Y-167047619D02*
X64459524Y-167000000D01*
X64364286Y-166904762D01*
X64221429Y-166761905D01*
X64126190Y-166714286D01*
X64030952Y-166714286D01*
X64078571Y-166952381D02*
X63983333Y-166904762D01*
X63888095Y-166809524D01*
X63840476Y-166619048D01*
X63840476Y-166285714D01*
X63888095Y-166095238D01*
X63983333Y-166000000D01*
X64078571Y-165952381D01*
X64269048Y-165952381D01*
X64364286Y-166000000D01*
X64459524Y-166095238D01*
X64507143Y-166285714D01*
X64507143Y-166619048D01*
X64459524Y-166809524D01*
X64364286Y-166904762D01*
X64269048Y-166952381D01*
X64078571Y-166952381D01*
X64888095Y-166047619D02*
X64935714Y-166000000D01*
X65030952Y-165952381D01*
X65269048Y-165952381D01*
X65364286Y-166000000D01*
X65411905Y-166047619D01*
X65459524Y-166142857D01*
X65459524Y-166238095D01*
X65411905Y-166380952D01*
X64840476Y-166952381D01*
X65459524Y-166952381D01*
X64554762Y-163497619D02*
X64459524Y-163450000D01*
X64364286Y-163354762D01*
X64221429Y-163211905D01*
X64126190Y-163164286D01*
X64030952Y-163164286D01*
X64078571Y-163402381D02*
X63983333Y-163354762D01*
X63888095Y-163259524D01*
X63840476Y-163069048D01*
X63840476Y-162735714D01*
X63888095Y-162545238D01*
X63983333Y-162450000D01*
X64078571Y-162402381D01*
X64269048Y-162402381D01*
X64364286Y-162450000D01*
X64459524Y-162545238D01*
X64507143Y-162735714D01*
X64507143Y-163069048D01*
X64459524Y-163259524D01*
X64364286Y-163354762D01*
X64269048Y-163402381D01*
X64078571Y-163402381D01*
X64840476Y-162402381D02*
X65459524Y-162402381D01*
X65126190Y-162783333D01*
X65269048Y-162783333D01*
X65364286Y-162830952D01*
X65411905Y-162878571D01*
X65459524Y-162973810D01*
X65459524Y-163211905D01*
X65411905Y-163307143D01*
X65364286Y-163354762D01*
X65269048Y-163402381D01*
X64983333Y-163402381D01*
X64888095Y-163354762D01*
X64840476Y-163307143D01*
X98183334Y-127677381D02*
X97850000Y-127201190D01*
X97611905Y-127677381D02*
X97611905Y-126677381D01*
X97992858Y-126677381D01*
X98088096Y-126725000D01*
X98135715Y-126772619D01*
X98183334Y-126867857D01*
X98183334Y-127010714D01*
X98135715Y-127105952D01*
X98088096Y-127153571D01*
X97992858Y-127201190D01*
X97611905Y-127201190D01*
X99135715Y-127677381D02*
X98564286Y-127677381D01*
X98850000Y-127677381D02*
X98850000Y-126677381D01*
X98754762Y-126820238D01*
X98659524Y-126915476D01*
X98564286Y-126963095D01*
X106552381Y-124166666D02*
X106076190Y-124500000D01*
X106552381Y-124738095D02*
X105552381Y-124738095D01*
X105552381Y-124357142D01*
X105600000Y-124261904D01*
X105647619Y-124214285D01*
X105742857Y-124166666D01*
X105885714Y-124166666D01*
X105980952Y-124214285D01*
X106028571Y-124261904D01*
X106076190Y-124357142D01*
X106076190Y-124738095D01*
X105647619Y-123785714D02*
X105600000Y-123738095D01*
X105552381Y-123642857D01*
X105552381Y-123404761D01*
X105600000Y-123309523D01*
X105647619Y-123261904D01*
X105742857Y-123214285D01*
X105838095Y-123214285D01*
X105980952Y-123261904D01*
X106552381Y-123833333D01*
X106552381Y-123214285D01*
X73002381Y-169116666D02*
X72526190Y-169450000D01*
X73002381Y-169688095D02*
X72002381Y-169688095D01*
X72002381Y-169307142D01*
X72050000Y-169211904D01*
X72097619Y-169164285D01*
X72192857Y-169116666D01*
X72335714Y-169116666D01*
X72430952Y-169164285D01*
X72478571Y-169211904D01*
X72526190Y-169307142D01*
X72526190Y-169688095D01*
X72002381Y-168783333D02*
X72002381Y-168164285D01*
X72383333Y-168497619D01*
X72383333Y-168354761D01*
X72430952Y-168259523D01*
X72478571Y-168211904D01*
X72573810Y-168164285D01*
X72811905Y-168164285D01*
X72907143Y-168211904D01*
X72954762Y-168259523D01*
X73002381Y-168354761D01*
X73002381Y-168640476D01*
X72954762Y-168735714D01*
X72907143Y-168783333D01*
X73002381Y-167216666D02*
X72526190Y-167550000D01*
X73002381Y-167788095D02*
X72002381Y-167788095D01*
X72002381Y-167407142D01*
X72050000Y-167311904D01*
X72097619Y-167264285D01*
X72192857Y-167216666D01*
X72335714Y-167216666D01*
X72430952Y-167264285D01*
X72478571Y-167311904D01*
X72526190Y-167407142D01*
X72526190Y-167788095D01*
X72335714Y-166359523D02*
X73002381Y-166359523D01*
X71954762Y-166597619D02*
X72669048Y-166835714D01*
X72669048Y-166216666D01*
X73002381Y-165266666D02*
X72526190Y-165600000D01*
X73002381Y-165838095D02*
X72002381Y-165838095D01*
X72002381Y-165457142D01*
X72050000Y-165361904D01*
X72097619Y-165314285D01*
X72192857Y-165266666D01*
X72335714Y-165266666D01*
X72430952Y-165314285D01*
X72478571Y-165361904D01*
X72526190Y-165457142D01*
X72526190Y-165838095D01*
X72002381Y-164361904D02*
X72002381Y-164838095D01*
X72478571Y-164885714D01*
X72430952Y-164838095D01*
X72383333Y-164742857D01*
X72383333Y-164504761D01*
X72430952Y-164409523D01*
X72478571Y-164361904D01*
X72573810Y-164314285D01*
X72811905Y-164314285D01*
X72907143Y-164361904D01*
X72954762Y-164409523D01*
X73002381Y-164504761D01*
X73002381Y-164742857D01*
X72954762Y-164838095D01*
X72907143Y-164885714D01*
X54183334Y-126202381D02*
X53850000Y-125726190D01*
X53611905Y-126202381D02*
X53611905Y-125202381D01*
X53992858Y-125202381D01*
X54088096Y-125250000D01*
X54135715Y-125297619D01*
X54183334Y-125392857D01*
X54183334Y-125535714D01*
X54135715Y-125630952D01*
X54088096Y-125678571D01*
X53992858Y-125726190D01*
X53611905Y-125726190D01*
X55040477Y-125202381D02*
X54850000Y-125202381D01*
X54754762Y-125250000D01*
X54707143Y-125297619D01*
X54611905Y-125440476D01*
X54564286Y-125630952D01*
X54564286Y-126011905D01*
X54611905Y-126107143D01*
X54659524Y-126154762D01*
X54754762Y-126202381D01*
X54945239Y-126202381D01*
X55040477Y-126154762D01*
X55088096Y-126107143D01*
X55135715Y-126011905D01*
X55135715Y-125773810D01*
X55088096Y-125678571D01*
X55040477Y-125630952D01*
X54945239Y-125583333D01*
X54754762Y-125583333D01*
X54659524Y-125630952D01*
X54611905Y-125678571D01*
X54564286Y-125773810D01*
X73502381Y-113716666D02*
X73026190Y-114050000D01*
X73502381Y-114288095D02*
X72502381Y-114288095D01*
X72502381Y-113907142D01*
X72550000Y-113811904D01*
X72597619Y-113764285D01*
X72692857Y-113716666D01*
X72835714Y-113716666D01*
X72930952Y-113764285D01*
X72978571Y-113811904D01*
X73026190Y-113907142D01*
X73026190Y-114288095D01*
X72502381Y-113383333D02*
X72502381Y-112716666D01*
X73502381Y-113145238D01*
X57133334Y-126202381D02*
X56800000Y-125726190D01*
X56561905Y-126202381D02*
X56561905Y-125202381D01*
X56942858Y-125202381D01*
X57038096Y-125250000D01*
X57085715Y-125297619D01*
X57133334Y-125392857D01*
X57133334Y-125535714D01*
X57085715Y-125630952D01*
X57038096Y-125678571D01*
X56942858Y-125726190D01*
X56561905Y-125726190D01*
X57704762Y-125630952D02*
X57609524Y-125583333D01*
X57561905Y-125535714D01*
X57514286Y-125440476D01*
X57514286Y-125392857D01*
X57561905Y-125297619D01*
X57609524Y-125250000D01*
X57704762Y-125202381D01*
X57895239Y-125202381D01*
X57990477Y-125250000D01*
X58038096Y-125297619D01*
X58085715Y-125392857D01*
X58085715Y-125440476D01*
X58038096Y-125535714D01*
X57990477Y-125583333D01*
X57895239Y-125630952D01*
X57704762Y-125630952D01*
X57609524Y-125678571D01*
X57561905Y-125726190D01*
X57514286Y-125821429D01*
X57514286Y-126011905D01*
X57561905Y-126107143D01*
X57609524Y-126154762D01*
X57704762Y-126202381D01*
X57895239Y-126202381D01*
X57990477Y-126154762D01*
X58038096Y-126107143D01*
X58085715Y-126011905D01*
X58085715Y-125821429D01*
X58038096Y-125726190D01*
X57990477Y-125678571D01*
X57895239Y-125630952D01*
X51533334Y-126252381D02*
X51200000Y-125776190D01*
X50961905Y-126252381D02*
X50961905Y-125252381D01*
X51342858Y-125252381D01*
X51438096Y-125300000D01*
X51485715Y-125347619D01*
X51533334Y-125442857D01*
X51533334Y-125585714D01*
X51485715Y-125680952D01*
X51438096Y-125728571D01*
X51342858Y-125776190D01*
X50961905Y-125776190D01*
X52009524Y-126252381D02*
X52200000Y-126252381D01*
X52295239Y-126204762D01*
X52342858Y-126157143D01*
X52438096Y-126014286D01*
X52485715Y-125823810D01*
X52485715Y-125442857D01*
X52438096Y-125347619D01*
X52390477Y-125300000D01*
X52295239Y-125252381D01*
X52104762Y-125252381D01*
X52009524Y-125300000D01*
X51961905Y-125347619D01*
X51914286Y-125442857D01*
X51914286Y-125680952D01*
X51961905Y-125776190D01*
X52009524Y-125823810D01*
X52104762Y-125871429D01*
X52295239Y-125871429D01*
X52390477Y-125823810D01*
X52438096Y-125776190D01*
X52485715Y-125680952D01*
X140302381Y-155242857D02*
X139826190Y-155576191D01*
X140302381Y-155814286D02*
X139302381Y-155814286D01*
X139302381Y-155433333D01*
X139350000Y-155338095D01*
X139397619Y-155290476D01*
X139492857Y-155242857D01*
X139635714Y-155242857D01*
X139730952Y-155290476D01*
X139778571Y-155338095D01*
X139826190Y-155433333D01*
X139826190Y-155814286D01*
X140302381Y-154290476D02*
X140302381Y-154861905D01*
X140302381Y-154576191D02*
X139302381Y-154576191D01*
X139445238Y-154671429D01*
X139540476Y-154766667D01*
X139588095Y-154861905D01*
X139302381Y-153671429D02*
X139302381Y-153576190D01*
X139350000Y-153480952D01*
X139397619Y-153433333D01*
X139492857Y-153385714D01*
X139683333Y-153338095D01*
X139921429Y-153338095D01*
X140111905Y-153385714D01*
X140207143Y-153433333D01*
X140254762Y-153480952D01*
X140302381Y-153576190D01*
X140302381Y-153671429D01*
X140254762Y-153766667D01*
X140207143Y-153814286D01*
X140111905Y-153861905D01*
X139921429Y-153909524D01*
X139683333Y-153909524D01*
X139492857Y-153861905D01*
X139397619Y-153814286D01*
X139350000Y-153766667D01*
X139302381Y-153671429D01*
X108407143Y-106602381D02*
X108073809Y-106126190D01*
X107835714Y-106602381D02*
X107835714Y-105602381D01*
X108216667Y-105602381D01*
X108311905Y-105650000D01*
X108359524Y-105697619D01*
X108407143Y-105792857D01*
X108407143Y-105935714D01*
X108359524Y-106030952D01*
X108311905Y-106078571D01*
X108216667Y-106126190D01*
X107835714Y-106126190D01*
X109359524Y-106602381D02*
X108788095Y-106602381D01*
X109073809Y-106602381D02*
X109073809Y-105602381D01*
X108978571Y-105745238D01*
X108883333Y-105840476D01*
X108788095Y-105888095D01*
X110311905Y-106602381D02*
X109740476Y-106602381D01*
X110026190Y-106602381D02*
X110026190Y-105602381D01*
X109930952Y-105745238D01*
X109835714Y-105840476D01*
X109740476Y-105888095D01*
X108407143Y-104852381D02*
X108073809Y-104376190D01*
X107835714Y-104852381D02*
X107835714Y-103852381D01*
X108216667Y-103852381D01*
X108311905Y-103900000D01*
X108359524Y-103947619D01*
X108407143Y-104042857D01*
X108407143Y-104185714D01*
X108359524Y-104280952D01*
X108311905Y-104328571D01*
X108216667Y-104376190D01*
X107835714Y-104376190D01*
X109359524Y-104852381D02*
X108788095Y-104852381D01*
X109073809Y-104852381D02*
X109073809Y-103852381D01*
X108978571Y-103995238D01*
X108883333Y-104090476D01*
X108788095Y-104138095D01*
X109740476Y-103947619D02*
X109788095Y-103900000D01*
X109883333Y-103852381D01*
X110121429Y-103852381D01*
X110216667Y-103900000D01*
X110264286Y-103947619D01*
X110311905Y-104042857D01*
X110311905Y-104138095D01*
X110264286Y-104280952D01*
X109692857Y-104852381D01*
X110311905Y-104852381D01*
X114202381Y-155292857D02*
X113726190Y-155626191D01*
X114202381Y-155864286D02*
X113202381Y-155864286D01*
X113202381Y-155483333D01*
X113250000Y-155388095D01*
X113297619Y-155340476D01*
X113392857Y-155292857D01*
X113535714Y-155292857D01*
X113630952Y-155340476D01*
X113678571Y-155388095D01*
X113726190Y-155483333D01*
X113726190Y-155864286D01*
X114202381Y-154340476D02*
X114202381Y-154911905D01*
X114202381Y-154626191D02*
X113202381Y-154626191D01*
X113345238Y-154721429D01*
X113440476Y-154816667D01*
X113488095Y-154911905D01*
X113202381Y-154007143D02*
X113202381Y-153388095D01*
X113583333Y-153721429D01*
X113583333Y-153578571D01*
X113630952Y-153483333D01*
X113678571Y-153435714D01*
X113773810Y-153388095D01*
X114011905Y-153388095D01*
X114107143Y-153435714D01*
X114154762Y-153483333D01*
X114202381Y-153578571D01*
X114202381Y-153864286D01*
X114154762Y-153959524D01*
X114107143Y-154007143D01*
X56467143Y-134082381D02*
X56133809Y-133606190D01*
X55895714Y-134082381D02*
X55895714Y-133082381D01*
X56276667Y-133082381D01*
X56371905Y-133130000D01*
X56419524Y-133177619D01*
X56467143Y-133272857D01*
X56467143Y-133415714D01*
X56419524Y-133510952D01*
X56371905Y-133558571D01*
X56276667Y-133606190D01*
X55895714Y-133606190D01*
X57419524Y-134082381D02*
X56848095Y-134082381D01*
X57133809Y-134082381D02*
X57133809Y-133082381D01*
X57038571Y-133225238D01*
X56943333Y-133320476D01*
X56848095Y-133368095D01*
X58324286Y-133082381D02*
X57848095Y-133082381D01*
X57800476Y-133558571D01*
X57848095Y-133510952D01*
X57943333Y-133463333D01*
X58181429Y-133463333D01*
X58276667Y-133510952D01*
X58324286Y-133558571D01*
X58371905Y-133653810D01*
X58371905Y-133891905D01*
X58324286Y-133987143D01*
X58276667Y-134034762D01*
X58181429Y-134082381D01*
X57943333Y-134082381D01*
X57848095Y-134034762D01*
X57800476Y-133987143D01*
X97427381Y-114142857D02*
X96951190Y-114476191D01*
X97427381Y-114714286D02*
X96427381Y-114714286D01*
X96427381Y-114333333D01*
X96475000Y-114238095D01*
X96522619Y-114190476D01*
X96617857Y-114142857D01*
X96760714Y-114142857D01*
X96855952Y-114190476D01*
X96903571Y-114238095D01*
X96951190Y-114333333D01*
X96951190Y-114714286D01*
X97427381Y-113190476D02*
X97427381Y-113761905D01*
X97427381Y-113476191D02*
X96427381Y-113476191D01*
X96570238Y-113571429D01*
X96665476Y-113666667D01*
X96713095Y-113761905D01*
X96427381Y-112333333D02*
X96427381Y-112523810D01*
X96475000Y-112619048D01*
X96522619Y-112666667D01*
X96665476Y-112761905D01*
X96855952Y-112809524D01*
X97236905Y-112809524D01*
X97332143Y-112761905D01*
X97379762Y-112714286D01*
X97427381Y-112619048D01*
X97427381Y-112428571D01*
X97379762Y-112333333D01*
X97332143Y-112285714D01*
X97236905Y-112238095D01*
X96998810Y-112238095D01*
X96903571Y-112285714D01*
X96855952Y-112333333D01*
X96808333Y-112428571D01*
X96808333Y-112619048D01*
X96855952Y-112714286D01*
X96903571Y-112761905D01*
X96998810Y-112809524D01*
X56367143Y-145732381D02*
X56033809Y-145256190D01*
X55795714Y-145732381D02*
X55795714Y-144732381D01*
X56176667Y-144732381D01*
X56271905Y-144780000D01*
X56319524Y-144827619D01*
X56367143Y-144922857D01*
X56367143Y-145065714D01*
X56319524Y-145160952D01*
X56271905Y-145208571D01*
X56176667Y-145256190D01*
X55795714Y-145256190D01*
X57319524Y-145732381D02*
X56748095Y-145732381D01*
X57033809Y-145732381D02*
X57033809Y-144732381D01*
X56938571Y-144875238D01*
X56843333Y-144970476D01*
X56748095Y-145018095D01*
X57890952Y-145160952D02*
X57795714Y-145113333D01*
X57748095Y-145065714D01*
X57700476Y-144970476D01*
X57700476Y-144922857D01*
X57748095Y-144827619D01*
X57795714Y-144780000D01*
X57890952Y-144732381D01*
X58081429Y-144732381D01*
X58176667Y-144780000D01*
X58224286Y-144827619D01*
X58271905Y-144922857D01*
X58271905Y-144970476D01*
X58224286Y-145065714D01*
X58176667Y-145113333D01*
X58081429Y-145160952D01*
X57890952Y-145160952D01*
X57795714Y-145208571D01*
X57748095Y-145256190D01*
X57700476Y-145351429D01*
X57700476Y-145541905D01*
X57748095Y-145637143D01*
X57795714Y-145684762D01*
X57890952Y-145732381D01*
X58081429Y-145732381D01*
X58176667Y-145684762D01*
X58224286Y-145637143D01*
X58271905Y-145541905D01*
X58271905Y-145351429D01*
X58224286Y-145256190D01*
X58176667Y-145208571D01*
X58081429Y-145160952D01*
X103207143Y-154752381D02*
X102873809Y-154276190D01*
X102635714Y-154752381D02*
X102635714Y-153752381D01*
X103016667Y-153752381D01*
X103111905Y-153800000D01*
X103159524Y-153847619D01*
X103207143Y-153942857D01*
X103207143Y-154085714D01*
X103159524Y-154180952D01*
X103111905Y-154228571D01*
X103016667Y-154276190D01*
X102635714Y-154276190D01*
X103588095Y-153847619D02*
X103635714Y-153800000D01*
X103730952Y-153752381D01*
X103969048Y-153752381D01*
X104064286Y-153800000D01*
X104111905Y-153847619D01*
X104159524Y-153942857D01*
X104159524Y-154038095D01*
X104111905Y-154180952D01*
X103540476Y-154752381D01*
X104159524Y-154752381D01*
X105111905Y-154752381D02*
X104540476Y-154752381D01*
X104826190Y-154752381D02*
X104826190Y-153752381D01*
X104730952Y-153895238D01*
X104635714Y-153990476D01*
X104540476Y-154038095D01*
X105288095Y-134352381D02*
X105288095Y-135161905D01*
X105335714Y-135257143D01*
X105383333Y-135304762D01*
X105478571Y-135352381D01*
X105669048Y-135352381D01*
X105764286Y-135304762D01*
X105811905Y-135257143D01*
X105859524Y-135161905D01*
X105859524Y-134352381D01*
X106859524Y-135352381D02*
X106288095Y-135352381D01*
X106573809Y-135352381D02*
X106573809Y-134352381D01*
X106478571Y-134495238D01*
X106383333Y-134590476D01*
X106288095Y-134638095D01*
X84138095Y-159902381D02*
X84138095Y-160711905D01*
X84185714Y-160807143D01*
X84233333Y-160854762D01*
X84328571Y-160902381D01*
X84519048Y-160902381D01*
X84614286Y-160854762D01*
X84661905Y-160807143D01*
X84709524Y-160711905D01*
X84709524Y-159902381D01*
X85090476Y-159902381D02*
X85709524Y-159902381D01*
X85376190Y-160283333D01*
X85519048Y-160283333D01*
X85614286Y-160330952D01*
X85661905Y-160378571D01*
X85709524Y-160473810D01*
X85709524Y-160711905D01*
X85661905Y-160807143D01*
X85614286Y-160854762D01*
X85519048Y-160902381D01*
X85233333Y-160902381D01*
X85138095Y-160854762D01*
X85090476Y-160807143D01*
X71202381Y-136061905D02*
X72011905Y-136061905D01*
X72107143Y-136014286D01*
X72154762Y-135966667D01*
X72202381Y-135871429D01*
X72202381Y-135680952D01*
X72154762Y-135585714D01*
X72107143Y-135538095D01*
X72011905Y-135490476D01*
X71202381Y-135490476D01*
X71535714Y-134585714D02*
X72202381Y-134585714D01*
X71154762Y-134823810D02*
X71869048Y-135061905D01*
X71869048Y-134442857D01*
X129538095Y-156802381D02*
X129538095Y-157611905D01*
X129585714Y-157707143D01*
X129633333Y-157754762D01*
X129728571Y-157802381D01*
X129919048Y-157802381D01*
X130014286Y-157754762D01*
X130061905Y-157707143D01*
X130109524Y-157611905D01*
X130109524Y-156802381D01*
X131061905Y-156802381D02*
X130585714Y-156802381D01*
X130538095Y-157278571D01*
X130585714Y-157230952D01*
X130680952Y-157183333D01*
X130919048Y-157183333D01*
X131014286Y-157230952D01*
X131061905Y-157278571D01*
X131109524Y-157373810D01*
X131109524Y-157611905D01*
X131061905Y-157707143D01*
X131014286Y-157754762D01*
X130919048Y-157802381D01*
X130680952Y-157802381D01*
X130585714Y-157754762D01*
X130538095Y-157707143D01*
X138288095Y-135952381D02*
X138288095Y-136761905D01*
X138335714Y-136857143D01*
X138383333Y-136904762D01*
X138478571Y-136952381D01*
X138669048Y-136952381D01*
X138764286Y-136904762D01*
X138811905Y-136857143D01*
X138859524Y-136761905D01*
X138859524Y-135952381D01*
X139383333Y-136952381D02*
X139573809Y-136952381D01*
X139669048Y-136904762D01*
X139716667Y-136857143D01*
X139811905Y-136714286D01*
X139859524Y-136523810D01*
X139859524Y-136142857D01*
X139811905Y-136047619D01*
X139764286Y-136000000D01*
X139669048Y-135952381D01*
X139478571Y-135952381D01*
X139383333Y-136000000D01*
X139335714Y-136047619D01*
X139288095Y-136142857D01*
X139288095Y-136380952D01*
X139335714Y-136476190D01*
X139383333Y-136523810D01*
X139478571Y-136571429D01*
X139669048Y-136571429D01*
X139764286Y-136523810D01*
X139811905Y-136476190D01*
X139859524Y-136380952D01*
X53001905Y-140382381D02*
X53001905Y-141191905D01*
X53049524Y-141287143D01*
X53097143Y-141334762D01*
X53192381Y-141382381D01*
X53382858Y-141382381D01*
X53478096Y-141334762D01*
X53525715Y-141287143D01*
X53573334Y-141191905D01*
X53573334Y-140382381D01*
X54573334Y-141382381D02*
X54001905Y-141382381D01*
X54287619Y-141382381D02*
X54287619Y-140382381D01*
X54192381Y-140525238D01*
X54097143Y-140620476D01*
X54001905Y-140668095D01*
X55192381Y-140382381D02*
X55287620Y-140382381D01*
X55382858Y-140430000D01*
X55430477Y-140477619D01*
X55478096Y-140572857D01*
X55525715Y-140763333D01*
X55525715Y-141001429D01*
X55478096Y-141191905D01*
X55430477Y-141287143D01*
X55382858Y-141334762D01*
X55287620Y-141382381D01*
X55192381Y-141382381D01*
X55097143Y-141334762D01*
X55049524Y-141287143D01*
X55001905Y-141191905D01*
X54954286Y-141001429D01*
X54954286Y-140763333D01*
X55001905Y-140572857D01*
X55049524Y-140477619D01*
X55097143Y-140430000D01*
X55192381Y-140382381D01*
X122161905Y-156802381D02*
X122161905Y-157611905D01*
X122209524Y-157707143D01*
X122257143Y-157754762D01*
X122352381Y-157802381D01*
X122542858Y-157802381D01*
X122638096Y-157754762D01*
X122685715Y-157707143D01*
X122733334Y-157611905D01*
X122733334Y-156802381D01*
X123733334Y-157802381D02*
X123161905Y-157802381D01*
X123447619Y-157802381D02*
X123447619Y-156802381D01*
X123352381Y-156945238D01*
X123257143Y-157040476D01*
X123161905Y-157088095D01*
X124114286Y-156897619D02*
X124161905Y-156850000D01*
X124257143Y-156802381D01*
X124495239Y-156802381D01*
X124590477Y-156850000D01*
X124638096Y-156897619D01*
X124685715Y-156992857D01*
X124685715Y-157088095D01*
X124638096Y-157230952D01*
X124066667Y-157802381D01*
X124685715Y-157802381D01*
X135352381Y-157515238D02*
X134876190Y-157848572D01*
X135352381Y-158086667D02*
X134352381Y-158086667D01*
X134352381Y-157705714D01*
X134400000Y-157610476D01*
X134447619Y-157562857D01*
X134542857Y-157515238D01*
X134685714Y-157515238D01*
X134780952Y-157562857D01*
X134828571Y-157610476D01*
X134876190Y-157705714D01*
X134876190Y-158086667D01*
X134352381Y-157229524D02*
X135352381Y-156896191D01*
X134352381Y-156562857D01*
X135352381Y-155705714D02*
X135352381Y-156277143D01*
X135352381Y-155991429D02*
X134352381Y-155991429D01*
X134495238Y-156086667D01*
X134590476Y-156181905D01*
X134638095Y-156277143D01*
X119352381Y-158145238D02*
X118876190Y-158478572D01*
X119352381Y-158716667D02*
X118352381Y-158716667D01*
X118352381Y-158335714D01*
X118400000Y-158240476D01*
X118447619Y-158192857D01*
X118542857Y-158145238D01*
X118685714Y-158145238D01*
X118780952Y-158192857D01*
X118828571Y-158240476D01*
X118876190Y-158335714D01*
X118876190Y-158716667D01*
X118352381Y-157859524D02*
X119352381Y-157526191D01*
X118352381Y-157192857D01*
X118447619Y-156907143D02*
X118400000Y-156859524D01*
X118352381Y-156764286D01*
X118352381Y-156526190D01*
X118400000Y-156430952D01*
X118447619Y-156383333D01*
X118542857Y-156335714D01*
X118638095Y-156335714D01*
X118780952Y-156383333D01*
X119352381Y-156954762D01*
X119352381Y-156335714D01*
X55188095Y-155352381D02*
X55188095Y-156161905D01*
X55235714Y-156257143D01*
X55283333Y-156304762D01*
X55378571Y-156352381D01*
X55569048Y-156352381D01*
X55664286Y-156304762D01*
X55711905Y-156257143D01*
X55759524Y-156161905D01*
X55759524Y-155352381D01*
X56188095Y-155447619D02*
X56235714Y-155400000D01*
X56330952Y-155352381D01*
X56569048Y-155352381D01*
X56664286Y-155400000D01*
X56711905Y-155447619D01*
X56759524Y-155542857D01*
X56759524Y-155638095D01*
X56711905Y-155780952D01*
X56140476Y-156352381D01*
X56759524Y-156352381D01*
X82757143Y-166657143D02*
X82709524Y-166704762D01*
X82566667Y-166752381D01*
X82471429Y-166752381D01*
X82328571Y-166704762D01*
X82233333Y-166609524D01*
X82185714Y-166514286D01*
X82138095Y-166323810D01*
X82138095Y-166180952D01*
X82185714Y-165990476D01*
X82233333Y-165895238D01*
X82328571Y-165800000D01*
X82471429Y-165752381D01*
X82566667Y-165752381D01*
X82709524Y-165800000D01*
X82757143Y-165847619D01*
X83090476Y-165752381D02*
X83709524Y-165752381D01*
X83376190Y-166133333D01*
X83519048Y-166133333D01*
X83614286Y-166180952D01*
X83661905Y-166228571D01*
X83709524Y-166323810D01*
X83709524Y-166561905D01*
X83661905Y-166657143D01*
X83614286Y-166704762D01*
X83519048Y-166752381D01*
X83233333Y-166752381D01*
X83138095Y-166704762D01*
X83090476Y-166657143D01*
X84566667Y-166085714D02*
X84566667Y-166752381D01*
X84328571Y-165704762D02*
X84090476Y-166419048D01*
X84709524Y-166419048D01*
X45857143Y-172002381D02*
X45523809Y-171526190D01*
X45285714Y-172002381D02*
X45285714Y-171002381D01*
X45666667Y-171002381D01*
X45761905Y-171050000D01*
X45809524Y-171097619D01*
X45857143Y-171192857D01*
X45857143Y-171335714D01*
X45809524Y-171430952D01*
X45761905Y-171478571D01*
X45666667Y-171526190D01*
X45285714Y-171526190D01*
X46809524Y-172002381D02*
X46238095Y-172002381D01*
X46523809Y-172002381D02*
X46523809Y-171002381D01*
X46428571Y-171145238D01*
X46333333Y-171240476D01*
X46238095Y-171288095D01*
X47666667Y-171335714D02*
X47666667Y-172002381D01*
X47428571Y-170954762D02*
X47190476Y-171669048D01*
X47809524Y-171669048D01*
X108552381Y-124192857D02*
X108076190Y-124526191D01*
X108552381Y-124764286D02*
X107552381Y-124764286D01*
X107552381Y-124383333D01*
X107600000Y-124288095D01*
X107647619Y-124240476D01*
X107742857Y-124192857D01*
X107885714Y-124192857D01*
X107980952Y-124240476D01*
X108028571Y-124288095D01*
X108076190Y-124383333D01*
X108076190Y-124764286D01*
X108552381Y-123240476D02*
X108552381Y-123811905D01*
X108552381Y-123526191D02*
X107552381Y-123526191D01*
X107695238Y-123621429D01*
X107790476Y-123716667D01*
X107838095Y-123811905D01*
X107552381Y-122907143D02*
X107552381Y-122240476D01*
X108552381Y-122669048D01*
X110402381Y-124192857D02*
X109926190Y-124526191D01*
X110402381Y-124764286D02*
X109402381Y-124764286D01*
X109402381Y-124383333D01*
X109450000Y-124288095D01*
X109497619Y-124240476D01*
X109592857Y-124192857D01*
X109735714Y-124192857D01*
X109830952Y-124240476D01*
X109878571Y-124288095D01*
X109926190Y-124383333D01*
X109926190Y-124764286D01*
X110402381Y-123240476D02*
X110402381Y-123811905D01*
X110402381Y-123526191D02*
X109402381Y-123526191D01*
X109545238Y-123621429D01*
X109640476Y-123716667D01*
X109688095Y-123811905D01*
X110402381Y-122764286D02*
X110402381Y-122573810D01*
X110354762Y-122478571D01*
X110307143Y-122430952D01*
X110164286Y-122335714D01*
X109973810Y-122288095D01*
X109592857Y-122288095D01*
X109497619Y-122335714D01*
X109450000Y-122383333D01*
X109402381Y-122478571D01*
X109402381Y-122669048D01*
X109450000Y-122764286D01*
X109497619Y-122811905D01*
X109592857Y-122859524D01*
X109830952Y-122859524D01*
X109926190Y-122811905D01*
X109973810Y-122764286D01*
X110021429Y-122669048D01*
X110021429Y-122478571D01*
X109973810Y-122383333D01*
X109926190Y-122335714D01*
X109830952Y-122288095D01*
X85573095Y-103677381D02*
X85573095Y-104486905D01*
X85620714Y-104582143D01*
X85668333Y-104629762D01*
X85763571Y-104677381D01*
X85954048Y-104677381D01*
X86049286Y-104629762D01*
X86096905Y-104582143D01*
X86144524Y-104486905D01*
X86144524Y-103677381D01*
X86525476Y-103677381D02*
X87192143Y-103677381D01*
X86763571Y-104677381D01*
X94083334Y-146507143D02*
X94035715Y-146554762D01*
X93892858Y-146602381D01*
X93797620Y-146602381D01*
X93654762Y-146554762D01*
X93559524Y-146459524D01*
X93511905Y-146364286D01*
X93464286Y-146173810D01*
X93464286Y-146030952D01*
X93511905Y-145840476D01*
X93559524Y-145745238D01*
X93654762Y-145650000D01*
X93797620Y-145602381D01*
X93892858Y-145602381D01*
X94035715Y-145650000D01*
X94083334Y-145697619D01*
X94940477Y-145935714D02*
X94940477Y-146602381D01*
X94702381Y-145554762D02*
X94464286Y-146269048D01*
X95083334Y-146269048D01*
X96109048Y-142401429D02*
X96870953Y-142401429D01*
X96490001Y-142782381D02*
X96490001Y-142020476D01*
X116507143Y-146216666D02*
X116554762Y-146264285D01*
X116602381Y-146407142D01*
X116602381Y-146502380D01*
X116554762Y-146645238D01*
X116459524Y-146740476D01*
X116364286Y-146788095D01*
X116173810Y-146835714D01*
X116030952Y-146835714D01*
X115840476Y-146788095D01*
X115745238Y-146740476D01*
X115650000Y-146645238D01*
X115602381Y-146502380D01*
X115602381Y-146407142D01*
X115650000Y-146264285D01*
X115697619Y-146216666D01*
X115602381Y-145311904D02*
X115602381Y-145788095D01*
X116078571Y-145835714D01*
X116030952Y-145788095D01*
X115983333Y-145692857D01*
X115983333Y-145454761D01*
X116030952Y-145359523D01*
X116078571Y-145311904D01*
X116173810Y-145264285D01*
X116411905Y-145264285D01*
X116507143Y-145311904D01*
X116554762Y-145359523D01*
X116602381Y-145454761D01*
X116602381Y-145692857D01*
X116554762Y-145788095D01*
X116507143Y-145835714D01*
X115021429Y-148800952D02*
X115021429Y-148039047D01*
X115402381Y-148419999D02*
X114640476Y-148419999D01*
X101707143Y-123707143D02*
X101659524Y-123754762D01*
X101516667Y-123802381D01*
X101421429Y-123802381D01*
X101278571Y-123754762D01*
X101183333Y-123659524D01*
X101135714Y-123564286D01*
X101088095Y-123373810D01*
X101088095Y-123230952D01*
X101135714Y-123040476D01*
X101183333Y-122945238D01*
X101278571Y-122850000D01*
X101421429Y-122802381D01*
X101516667Y-122802381D01*
X101659524Y-122850000D01*
X101707143Y-122897619D01*
X102659524Y-123802381D02*
X102088095Y-123802381D01*
X102373809Y-123802381D02*
X102373809Y-122802381D01*
X102278571Y-122945238D01*
X102183333Y-123040476D01*
X102088095Y-123088095D01*
X103278571Y-122802381D02*
X103373810Y-122802381D01*
X103469048Y-122850000D01*
X103516667Y-122897619D01*
X103564286Y-122992857D01*
X103611905Y-123183333D01*
X103611905Y-123421429D01*
X103564286Y-123611905D01*
X103516667Y-123707143D01*
X103469048Y-123754762D01*
X103373810Y-123802381D01*
X103278571Y-123802381D01*
X103183333Y-123754762D01*
X103135714Y-123707143D01*
X103088095Y-123611905D01*
X103040476Y-123421429D01*
X103040476Y-123183333D01*
X103088095Y-122992857D01*
X103135714Y-122897619D01*
X103183333Y-122850000D01*
X103278571Y-122802381D01*
X99649048Y-127321429D02*
X100410953Y-127321429D01*
X100030001Y-127702381D02*
X100030001Y-126940476D01*
X68557143Y-139257143D02*
X68509524Y-139304762D01*
X68366667Y-139352381D01*
X68271429Y-139352381D01*
X68128571Y-139304762D01*
X68033333Y-139209524D01*
X67985714Y-139114286D01*
X67938095Y-138923810D01*
X67938095Y-138780952D01*
X67985714Y-138590476D01*
X68033333Y-138495238D01*
X68128571Y-138400000D01*
X68271429Y-138352381D01*
X68366667Y-138352381D01*
X68509524Y-138400000D01*
X68557143Y-138447619D01*
X68890476Y-138352381D02*
X69509524Y-138352381D01*
X69176190Y-138733333D01*
X69319048Y-138733333D01*
X69414286Y-138780952D01*
X69461905Y-138828571D01*
X69509524Y-138923810D01*
X69509524Y-139161905D01*
X69461905Y-139257143D01*
X69414286Y-139304762D01*
X69319048Y-139352381D01*
X69033333Y-139352381D01*
X68938095Y-139304762D01*
X68890476Y-139257143D01*
X70128571Y-138352381D02*
X70223810Y-138352381D01*
X70319048Y-138400000D01*
X70366667Y-138447619D01*
X70414286Y-138542857D01*
X70461905Y-138733333D01*
X70461905Y-138971429D01*
X70414286Y-139161905D01*
X70366667Y-139257143D01*
X70319048Y-139304762D01*
X70223810Y-139352381D01*
X70128571Y-139352381D01*
X70033333Y-139304762D01*
X69985714Y-139257143D01*
X69938095Y-139161905D01*
X69890476Y-138971429D01*
X69890476Y-138733333D01*
X69938095Y-138542857D01*
X69985714Y-138447619D01*
X70033333Y-138400000D01*
X70128571Y-138352381D01*
X67921429Y-133510952D02*
X67921429Y-132749047D01*
X68302381Y-133129999D02*
X67540476Y-133129999D01*
X131636905Y-173777381D02*
X131636905Y-172777381D01*
X132017858Y-172777381D01*
X132113096Y-172825000D01*
X132160715Y-172872619D01*
X132208334Y-172967857D01*
X132208334Y-173110714D01*
X132160715Y-173205952D01*
X132113096Y-173253571D01*
X132017858Y-173301190D01*
X131636905Y-173301190D01*
X132541667Y-172777381D02*
X133160715Y-172777381D01*
X132827381Y-173158333D01*
X132970239Y-173158333D01*
X133065477Y-173205952D01*
X133113096Y-173253571D01*
X133160715Y-173348810D01*
X133160715Y-173586905D01*
X133113096Y-173682143D01*
X133065477Y-173729762D01*
X132970239Y-173777381D01*
X132684524Y-173777381D01*
X132589286Y-173729762D01*
X132541667Y-173682143D01*
X120586905Y-173777381D02*
X120586905Y-172777381D01*
X120967858Y-172777381D01*
X121063096Y-172825000D01*
X121110715Y-172872619D01*
X121158334Y-172967857D01*
X121158334Y-173110714D01*
X121110715Y-173205952D01*
X121063096Y-173253571D01*
X120967858Y-173301190D01*
X120586905Y-173301190D01*
X122015477Y-173110714D02*
X122015477Y-173777381D01*
X121777381Y-172729762D02*
X121539286Y-173444048D01*
X122158334Y-173444048D01*
X122060714Y-105977381D02*
X122060714Y-104977381D01*
X122441667Y-104977381D01*
X122536905Y-105025000D01*
X122584524Y-105072619D01*
X122632143Y-105167857D01*
X122632143Y-105310714D01*
X122584524Y-105405952D01*
X122536905Y-105453571D01*
X122441667Y-105501190D01*
X122060714Y-105501190D01*
X123013095Y-105072619D02*
X123060714Y-105025000D01*
X123155952Y-104977381D01*
X123394048Y-104977381D01*
X123489286Y-105025000D01*
X123536905Y-105072619D01*
X123584524Y-105167857D01*
X123584524Y-105263095D01*
X123536905Y-105405952D01*
X122965476Y-105977381D01*
X123584524Y-105977381D01*
X124441667Y-105310714D02*
X124441667Y-105977381D01*
X124203571Y-104929762D02*
X123965476Y-105644048D01*
X124584524Y-105644048D01*
X136457143Y-143357143D02*
X136409524Y-143404762D01*
X136266667Y-143452381D01*
X136171429Y-143452381D01*
X136028571Y-143404762D01*
X135933333Y-143309524D01*
X135885714Y-143214286D01*
X135838095Y-143023810D01*
X135838095Y-142880952D01*
X135885714Y-142690476D01*
X135933333Y-142595238D01*
X136028571Y-142500000D01*
X136171429Y-142452381D01*
X136266667Y-142452381D01*
X136409524Y-142500000D01*
X136457143Y-142547619D01*
X136790476Y-142452381D02*
X137409524Y-142452381D01*
X137076190Y-142833333D01*
X137219048Y-142833333D01*
X137314286Y-142880952D01*
X137361905Y-142928571D01*
X137409524Y-143023810D01*
X137409524Y-143261905D01*
X137361905Y-143357143D01*
X137314286Y-143404762D01*
X137219048Y-143452381D01*
X136933333Y-143452381D01*
X136838095Y-143404762D01*
X136790476Y-143357143D01*
X138314286Y-142452381D02*
X137838095Y-142452381D01*
X137790476Y-142928571D01*
X137838095Y-142880952D01*
X137933333Y-142833333D01*
X138171429Y-142833333D01*
X138266667Y-142880952D01*
X138314286Y-142928571D01*
X138361905Y-143023810D01*
X138361905Y-143261905D01*
X138314286Y-143357143D01*
X138266667Y-143404762D01*
X138171429Y-143452381D01*
X137933333Y-143452381D01*
X137838095Y-143404762D01*
X137790476Y-143357143D01*
X133189048Y-143711429D02*
X133950953Y-143711429D01*
X133570001Y-144092381D02*
X133570001Y-143330476D01*
X130307143Y-143607143D02*
X130259524Y-143654762D01*
X130116667Y-143702381D01*
X130021429Y-143702381D01*
X129878571Y-143654762D01*
X129783333Y-143559524D01*
X129735714Y-143464286D01*
X129688095Y-143273810D01*
X129688095Y-143130952D01*
X129735714Y-142940476D01*
X129783333Y-142845238D01*
X129878571Y-142750000D01*
X130021429Y-142702381D01*
X130116667Y-142702381D01*
X130259524Y-142750000D01*
X130307143Y-142797619D01*
X130640476Y-142702381D02*
X131259524Y-142702381D01*
X130926190Y-143083333D01*
X131069048Y-143083333D01*
X131164286Y-143130952D01*
X131211905Y-143178571D01*
X131259524Y-143273810D01*
X131259524Y-143511905D01*
X131211905Y-143607143D01*
X131164286Y-143654762D01*
X131069048Y-143702381D01*
X130783333Y-143702381D01*
X130688095Y-143654762D01*
X130640476Y-143607143D01*
X132116667Y-142702381D02*
X131926190Y-142702381D01*
X131830952Y-142750000D01*
X131783333Y-142797619D01*
X131688095Y-142940476D01*
X131640476Y-143130952D01*
X131640476Y-143511905D01*
X131688095Y-143607143D01*
X131735714Y-143654762D01*
X131830952Y-143702381D01*
X132021429Y-143702381D01*
X132116667Y-143654762D01*
X132164286Y-143607143D01*
X132211905Y-143511905D01*
X132211905Y-143273810D01*
X132164286Y-143178571D01*
X132116667Y-143130952D01*
X132021429Y-143083333D01*
X131830952Y-143083333D01*
X131735714Y-143130952D01*
X131688095Y-143178571D01*
X131640476Y-143273810D01*
X138557143Y-149107143D02*
X138509524Y-149154762D01*
X138366667Y-149202381D01*
X138271429Y-149202381D01*
X138128571Y-149154762D01*
X138033333Y-149059524D01*
X137985714Y-148964286D01*
X137938095Y-148773810D01*
X137938095Y-148630952D01*
X137985714Y-148440476D01*
X138033333Y-148345238D01*
X138128571Y-148250000D01*
X138271429Y-148202381D01*
X138366667Y-148202381D01*
X138509524Y-148250000D01*
X138557143Y-148297619D01*
X138890476Y-148202381D02*
X139509524Y-148202381D01*
X139176190Y-148583333D01*
X139319048Y-148583333D01*
X139414286Y-148630952D01*
X139461905Y-148678571D01*
X139509524Y-148773810D01*
X139509524Y-149011905D01*
X139461905Y-149107143D01*
X139414286Y-149154762D01*
X139319048Y-149202381D01*
X139033333Y-149202381D01*
X138938095Y-149154762D01*
X138890476Y-149107143D01*
X139842857Y-148202381D02*
X140509524Y-148202381D01*
X140080952Y-149202381D01*
X138657143Y-147257143D02*
X138609524Y-147304762D01*
X138466667Y-147352381D01*
X138371429Y-147352381D01*
X138228571Y-147304762D01*
X138133333Y-147209524D01*
X138085714Y-147114286D01*
X138038095Y-146923810D01*
X138038095Y-146780952D01*
X138085714Y-146590476D01*
X138133333Y-146495238D01*
X138228571Y-146400000D01*
X138371429Y-146352381D01*
X138466667Y-146352381D01*
X138609524Y-146400000D01*
X138657143Y-146447619D01*
X138990476Y-146352381D02*
X139609524Y-146352381D01*
X139276190Y-146733333D01*
X139419048Y-146733333D01*
X139514286Y-146780952D01*
X139561905Y-146828571D01*
X139609524Y-146923810D01*
X139609524Y-147161905D01*
X139561905Y-147257143D01*
X139514286Y-147304762D01*
X139419048Y-147352381D01*
X139133333Y-147352381D01*
X139038095Y-147304762D01*
X138990476Y-147257143D01*
X140180952Y-146780952D02*
X140085714Y-146733333D01*
X140038095Y-146685714D01*
X139990476Y-146590476D01*
X139990476Y-146542857D01*
X140038095Y-146447619D01*
X140085714Y-146400000D01*
X140180952Y-146352381D01*
X140371429Y-146352381D01*
X140466667Y-146400000D01*
X140514286Y-146447619D01*
X140561905Y-146542857D01*
X140561905Y-146590476D01*
X140514286Y-146685714D01*
X140466667Y-146733333D01*
X140371429Y-146780952D01*
X140180952Y-146780952D01*
X140085714Y-146828571D01*
X140038095Y-146876190D01*
X139990476Y-146971429D01*
X139990476Y-147161905D01*
X140038095Y-147257143D01*
X140085714Y-147304762D01*
X140180952Y-147352381D01*
X140371429Y-147352381D01*
X140466667Y-147304762D01*
X140514286Y-147257143D01*
X140561905Y-147161905D01*
X140561905Y-146971429D01*
X140514286Y-146876190D01*
X140466667Y-146828571D01*
X140371429Y-146780952D01*
X138607143Y-145307143D02*
X138559524Y-145354762D01*
X138416667Y-145402381D01*
X138321429Y-145402381D01*
X138178571Y-145354762D01*
X138083333Y-145259524D01*
X138035714Y-145164286D01*
X137988095Y-144973810D01*
X137988095Y-144830952D01*
X138035714Y-144640476D01*
X138083333Y-144545238D01*
X138178571Y-144450000D01*
X138321429Y-144402381D01*
X138416667Y-144402381D01*
X138559524Y-144450000D01*
X138607143Y-144497619D01*
X138940476Y-144402381D02*
X139559524Y-144402381D01*
X139226190Y-144783333D01*
X139369048Y-144783333D01*
X139464286Y-144830952D01*
X139511905Y-144878571D01*
X139559524Y-144973810D01*
X139559524Y-145211905D01*
X139511905Y-145307143D01*
X139464286Y-145354762D01*
X139369048Y-145402381D01*
X139083333Y-145402381D01*
X138988095Y-145354762D01*
X138940476Y-145307143D01*
X140035714Y-145402381D02*
X140226190Y-145402381D01*
X140321429Y-145354762D01*
X140369048Y-145307143D01*
X140464286Y-145164286D01*
X140511905Y-144973810D01*
X140511905Y-144592857D01*
X140464286Y-144497619D01*
X140416667Y-144450000D01*
X140321429Y-144402381D01*
X140130952Y-144402381D01*
X140035714Y-144450000D01*
X139988095Y-144497619D01*
X139940476Y-144592857D01*
X139940476Y-144830952D01*
X139988095Y-144926190D01*
X140035714Y-144973810D01*
X140130952Y-145021429D01*
X140321429Y-145021429D01*
X140416667Y-144973810D01*
X140464286Y-144926190D01*
X140511905Y-144830952D01*
X118702381Y-136183333D02*
X119416667Y-136183333D01*
X119559524Y-136230953D01*
X119654762Y-136326191D01*
X119702381Y-136469048D01*
X119702381Y-136564286D01*
X119702381Y-135707143D02*
X118702381Y-135707143D01*
X118702381Y-135326190D01*
X118750000Y-135230952D01*
X118797619Y-135183333D01*
X118892857Y-135135714D01*
X119035714Y-135135714D01*
X119130952Y-135183333D01*
X119178571Y-135230952D01*
X119226190Y-135326190D01*
X119226190Y-135707143D01*
X118702381Y-134230952D02*
X118702381Y-134707143D01*
X119178571Y-134754762D01*
X119130952Y-134707143D01*
X119083333Y-134611905D01*
X119083333Y-134373809D01*
X119130952Y-134278571D01*
X119178571Y-134230952D01*
X119273810Y-134183333D01*
X119511905Y-134183333D01*
X119607143Y-134230952D01*
X119654762Y-134278571D01*
X119702381Y-134373809D01*
X119702381Y-134611905D01*
X119654762Y-134707143D01*
X119607143Y-134754762D01*
X118452381Y-123333333D02*
X119166667Y-123333333D01*
X119309524Y-123380953D01*
X119404762Y-123476191D01*
X119452381Y-123619048D01*
X119452381Y-123714286D01*
X119452381Y-122857143D02*
X118452381Y-122857143D01*
X118452381Y-122476190D01*
X118500000Y-122380952D01*
X118547619Y-122333333D01*
X118642857Y-122285714D01*
X118785714Y-122285714D01*
X118880952Y-122333333D01*
X118928571Y-122380952D01*
X118976190Y-122476190D01*
X118976190Y-122857143D01*
X118452381Y-121428571D02*
X118452381Y-121619048D01*
X118500000Y-121714286D01*
X118547619Y-121761905D01*
X118690476Y-121857143D01*
X118880952Y-121904762D01*
X119261905Y-121904762D01*
X119357143Y-121857143D01*
X119404762Y-121809524D01*
X119452381Y-121714286D01*
X119452381Y-121523809D01*
X119404762Y-121428571D01*
X119357143Y-121380952D01*
X119261905Y-121333333D01*
X119023810Y-121333333D01*
X118928571Y-121380952D01*
X118880952Y-121428571D01*
X118833333Y-121523809D01*
X118833333Y-121714286D01*
X118880952Y-121809524D01*
X118928571Y-121857143D01*
X119023810Y-121904762D01*
X118602381Y-129433333D02*
X119316667Y-129433333D01*
X119459524Y-129480953D01*
X119554762Y-129576191D01*
X119602381Y-129719048D01*
X119602381Y-129814286D01*
X119602381Y-128957143D02*
X118602381Y-128957143D01*
X118602381Y-128576190D01*
X118650000Y-128480952D01*
X118697619Y-128433333D01*
X118792857Y-128385714D01*
X118935714Y-128385714D01*
X119030952Y-128433333D01*
X119078571Y-128480952D01*
X119126190Y-128576190D01*
X119126190Y-128957143D01*
X118602381Y-128052381D02*
X118602381Y-127385714D01*
X119602381Y-127814286D01*
%LPC*%
D16*
X132350000Y-145340000D03*
D17*
X131595000Y-145195000D03*
X131595000Y-148495000D03*
X131165000Y-145195000D03*
X131165000Y-148495000D03*
X130735000Y-145195000D03*
X130735000Y-148495000D03*
X130305000Y-145195000D03*
X130305000Y-148495000D03*
D16*
X132350000Y-145770000D03*
X132350000Y-146200000D03*
X132350000Y-146630000D03*
X132350000Y-147060000D03*
X132350000Y-147490000D03*
X132350000Y-147920000D03*
X132350000Y-148350000D03*
X129550000Y-145340000D03*
X129550000Y-145770000D03*
X129550000Y-146200000D03*
X129550000Y-146630000D03*
X129550000Y-147060000D03*
X129550000Y-147490000D03*
X129550000Y-147920000D03*
X129550000Y-148350000D03*
D18*
X136557500Y-121680000D03*
X136057500Y-121680000D03*
X136557500Y-123580000D03*
X136057500Y-123580000D03*
X135557500Y-121680000D03*
X135557500Y-123580000D03*
X137057500Y-121680000D03*
X137057500Y-123580000D03*
D19*
X135357500Y-122380000D03*
X135357500Y-122880000D03*
X137257500Y-122880000D03*
X137257500Y-122380000D03*
D20*
X134050000Y-121100000D03*
X134050000Y-123600000D03*
D21*
X128550000Y-117700000D03*
D22*
X131090000Y-117700000D03*
X133630000Y-117700000D03*
D23*
X137200000Y-128700000D03*
X132800000Y-128700000D03*
D20*
X132250000Y-122350000D03*
X132250000Y-124850000D03*
D24*
X137950000Y-125000000D03*
X135450000Y-125000000D03*
D21*
X77400000Y-135750000D03*
D25*
X94500000Y-130800000D03*
X94500000Y-139300000D03*
D21*
X104050000Y-150200000D03*
D26*
X51550000Y-112260000D03*
X51550000Y-113530000D03*
X51550000Y-114800000D03*
X51550000Y-116070000D03*
X51550000Y-117340000D03*
X65050000Y-117340000D03*
X65050000Y-116070000D03*
X65050000Y-114800000D03*
X65050000Y-113530000D03*
X65050000Y-112260000D03*
D27*
X55550000Y-118340000D03*
D20*
X74200000Y-160800000D03*
X74200000Y-158300000D03*
D28*
X76050000Y-165700000D03*
X76050000Y-170100000D03*
D24*
X101700000Y-144100000D03*
X104200000Y-144100000D03*
D20*
X90950000Y-130800000D03*
X90950000Y-133300000D03*
X90950000Y-139300000D03*
X90950000Y-136800000D03*
X76100000Y-160800000D03*
X76100000Y-158300000D03*
D24*
X68150000Y-163150000D03*
X70650000Y-163150000D03*
X108300000Y-144100000D03*
X110800000Y-144100000D03*
X60600000Y-160000000D03*
X63100000Y-160000000D03*
D20*
X98200000Y-137400000D03*
X98200000Y-139900000D03*
X108700000Y-167550000D03*
X108700000Y-170050000D03*
D24*
X103700000Y-128600000D03*
X101200000Y-128600000D03*
D28*
X62450000Y-157350000D03*
X62450000Y-152950000D03*
D20*
X113350000Y-134300000D03*
X113350000Y-131800000D03*
X108700000Y-159850000D03*
X108700000Y-162350000D03*
D28*
X49450000Y-152950000D03*
X49450000Y-157350000D03*
D24*
X51250000Y-160100000D03*
X48750000Y-160100000D03*
X74550000Y-133350000D03*
X72050000Y-133350000D03*
X46900000Y-124450000D03*
X49400000Y-124450000D03*
X74550000Y-137250000D03*
X72050000Y-137250000D03*
D20*
X74400000Y-107750000D03*
X74400000Y-110250000D03*
D24*
X50160000Y-143780000D03*
X52660000Y-143780000D03*
X132390000Y-133990000D03*
X134890000Y-133990000D03*
D20*
X66350000Y-135500000D03*
X66350000Y-138000000D03*
X86800000Y-134400000D03*
X86800000Y-131900000D03*
D29*
X71250000Y-170900000D03*
X69150000Y-170900000D03*
D30*
X48500000Y-163050000D03*
D21*
X48500000Y-165610000D03*
X72060000Y-130550000D03*
D22*
X74600000Y-130550000D03*
D21*
X68490000Y-130550000D03*
D22*
X65950000Y-130550000D03*
D31*
X78200000Y-162550000D03*
X78200000Y-158550000D03*
D32*
X106400000Y-167550000D03*
D33*
X101320000Y-167550000D03*
D32*
X106390000Y-159850000D03*
D33*
X101310000Y-159850000D03*
D34*
X53150000Y-167650000D03*
D35*
X58150000Y-167650000D03*
D36*
X82700000Y-168500000D03*
X83350000Y-168500000D03*
X84000000Y-168500000D03*
X84650000Y-168500000D03*
X85300000Y-168500000D03*
D37*
X81500000Y-168500000D03*
X86500000Y-168500000D03*
D38*
X80500000Y-171200000D03*
X87500000Y-171200000D03*
D21*
X84075000Y-130530000D03*
D22*
X84075000Y-133070000D03*
X84075000Y-135610000D03*
X84075000Y-138150000D03*
X84075000Y-140690000D03*
X84075000Y-143230000D03*
D21*
X92250000Y-159390000D03*
D22*
X92250000Y-156850000D03*
D21*
X106025000Y-109675000D03*
D22*
X103485000Y-109675000D03*
D21*
X140050000Y-117700000D03*
D22*
X137510000Y-117700000D03*
D21*
X63300000Y-134760000D03*
D22*
X63300000Y-137300000D03*
D21*
X64500000Y-121450000D03*
D22*
X61960000Y-121450000D03*
X59420000Y-121450000D03*
X56880000Y-121450000D03*
X54340000Y-121450000D03*
X51800000Y-121450000D03*
D21*
X55170000Y-148000000D03*
D22*
X57710000Y-148000000D03*
X60250000Y-148000000D03*
D21*
X99800000Y-109675000D03*
X107850000Y-150200000D03*
X113050000Y-169350000D03*
D22*
X113050000Y-166810000D03*
X113050000Y-164270000D03*
D39*
X65800000Y-171075000D03*
X65800000Y-169175000D03*
X62800000Y-170125000D03*
X65800000Y-167475000D03*
X65800000Y-165575000D03*
X62800000Y-166525000D03*
X65800000Y-163875000D03*
X65800000Y-161975000D03*
X62800000Y-162925000D03*
D40*
X98475000Y-128575000D03*
X98475000Y-125875000D03*
X106100000Y-128550000D03*
X106100000Y-125850000D03*
D41*
X68100000Y-168950000D03*
X70800000Y-168950000D03*
X68100000Y-167050000D03*
X70800000Y-167050000D03*
X70800000Y-165150000D03*
X68100000Y-165150000D03*
D40*
X54450000Y-124350000D03*
X54450000Y-127050000D03*
X74400000Y-112500000D03*
X74400000Y-115200000D03*
X57400000Y-124350000D03*
X57400000Y-127050000D03*
X51800000Y-127100000D03*
X51800000Y-124400000D03*
X139850000Y-159750000D03*
X139850000Y-157050000D03*
D41*
X106550000Y-106300000D03*
X103850000Y-106300000D03*
X106550000Y-104450000D03*
X103850000Y-104450000D03*
D40*
X113750000Y-159850000D03*
X113750000Y-157150000D03*
D41*
X55410000Y-135180000D03*
X58110000Y-135180000D03*
D40*
X96950000Y-110950000D03*
X96950000Y-108250000D03*
D41*
X58110000Y-143730000D03*
X55410000Y-143730000D03*
D42*
X101320000Y-154300000D03*
D43*
X106400000Y-154300000D03*
D44*
X100250000Y-132800000D03*
X100250000Y-133300000D03*
X100250000Y-133800000D03*
X100250000Y-134300000D03*
X100250000Y-134800000D03*
X100250000Y-135300000D03*
X100250000Y-135800000D03*
X100250000Y-136300000D03*
X100250000Y-136800000D03*
X100250000Y-137300000D03*
X100250000Y-137800000D03*
X100250000Y-138300000D03*
X100250000Y-138800000D03*
X100250000Y-139300000D03*
X100250000Y-139800000D03*
X100250000Y-140300000D03*
D45*
X102200000Y-142250000D03*
X102700000Y-142250000D03*
X103200000Y-142250000D03*
X103700000Y-142250000D03*
X104200000Y-142250000D03*
X104700000Y-142250000D03*
X105200000Y-142250000D03*
X105700000Y-142250000D03*
X106200000Y-142250000D03*
X106700000Y-142250000D03*
X107200000Y-142250000D03*
X107700000Y-142250000D03*
X108200000Y-142250000D03*
X108700000Y-142250000D03*
X109200000Y-142250000D03*
X109700000Y-142250000D03*
D44*
X111650000Y-140300000D03*
X111650000Y-139800000D03*
X111650000Y-139300000D03*
X111650000Y-138800000D03*
X111650000Y-138300000D03*
X111650000Y-137800000D03*
X111650000Y-137300000D03*
X111650000Y-136800000D03*
X111650000Y-136300000D03*
X111650000Y-135800000D03*
X111650000Y-135300000D03*
X111650000Y-134800000D03*
X111650000Y-134300000D03*
X111650000Y-133800000D03*
X111650000Y-133300000D03*
X111650000Y-132800000D03*
D45*
X109700000Y-130850000D03*
X109200000Y-130850000D03*
X108700000Y-130850000D03*
X108200000Y-130850000D03*
X107700000Y-130850000D03*
X107200000Y-130850000D03*
X106700000Y-130850000D03*
X106200000Y-130850000D03*
X105700000Y-130850000D03*
X105200000Y-130850000D03*
X104700000Y-130850000D03*
X104200000Y-130850000D03*
X103700000Y-130850000D03*
X103200000Y-130850000D03*
X102700000Y-130850000D03*
X102200000Y-130850000D03*
D46*
X89125000Y-156850000D03*
X88475000Y-156850000D03*
X87825000Y-156850000D03*
X87175000Y-156850000D03*
X86525000Y-156850000D03*
X85875000Y-156850000D03*
X85225000Y-156850000D03*
X84575000Y-156850000D03*
X83925000Y-156850000D03*
X83275000Y-156850000D03*
X82625000Y-156850000D03*
X81975000Y-156850000D03*
X81325000Y-156850000D03*
X80675000Y-156850000D03*
X80675000Y-164050000D03*
X81325000Y-164050000D03*
X81975000Y-164050000D03*
X82625000Y-164050000D03*
X83275000Y-164050000D03*
X83925000Y-164050000D03*
X84575000Y-164050000D03*
X85225000Y-164050000D03*
X85875000Y-164050000D03*
X86525000Y-164050000D03*
X87175000Y-164050000D03*
X87825000Y-164050000D03*
X88475000Y-164050000D03*
X89125000Y-164050000D03*
D47*
X73350000Y-134550000D03*
X73350000Y-136050000D03*
D48*
X74100000Y-134800000D03*
X74100000Y-135800000D03*
X72600000Y-134800000D03*
X72600000Y-135800000D03*
D49*
X128395000Y-161050000D03*
X129665000Y-161050000D03*
X130935000Y-161050000D03*
X132205000Y-161050000D03*
X132205000Y-153650000D03*
X130935000Y-153650000D03*
X129665000Y-153650000D03*
X128395000Y-153650000D03*
D50*
X58140000Y-137230000D03*
X58140000Y-141730000D03*
X50180000Y-141730000D03*
X50180000Y-137230000D03*
D49*
X121495000Y-161050000D03*
X122765000Y-161050000D03*
X124035000Y-161050000D03*
X125305000Y-161050000D03*
X125305000Y-153650000D03*
X124035000Y-153650000D03*
X122765000Y-153650000D03*
X121495000Y-153650000D03*
D51*
X129605000Y-112425000D03*
D52*
X127065000Y-112425000D03*
X124525000Y-112425000D03*
X121985000Y-112425000D03*
X119445000Y-112425000D03*
X116905000Y-112425000D03*
D53*
X136550000Y-159600000D03*
D54*
X136550000Y-157060000D03*
X136550000Y-154520000D03*
D53*
X117100000Y-154620000D03*
D54*
X117100000Y-157160000D03*
X117100000Y-159700000D03*
D21*
X128600000Y-164100000D03*
D22*
X131140000Y-164100000D03*
X133680000Y-164100000D03*
X136220000Y-164100000D03*
D21*
X117480000Y-164100000D03*
D22*
X120020000Y-164100000D03*
X122560000Y-164100000D03*
X125100000Y-164100000D03*
D55*
X55950000Y-152450000D03*
D56*
X55950000Y-158750000D03*
X58250000Y-158750000D03*
X53650000Y-158750000D03*
D57*
X140550000Y-105350000D03*
X140550000Y-169350000D03*
X46550000Y-105350000D03*
X46550000Y-169350000D03*
D58*
X65550000Y-133400000D03*
X65550000Y-132900000D03*
X65550000Y-133900000D03*
X67170000Y-133400000D03*
X67170000Y-132900000D03*
X67170000Y-133900000D03*
D59*
X66110000Y-134210000D03*
X66610000Y-134210000D03*
X66110000Y-132590000D03*
X66610000Y-132590000D03*
D24*
X85900000Y-166250000D03*
X88400000Y-166250000D03*
D21*
X68860000Y-154800000D03*
D22*
X71400000Y-154800000D03*
X73940000Y-154800000D03*
D21*
X68850000Y-150400000D03*
D22*
X71390000Y-150400000D03*
X73930000Y-150400000D03*
D40*
X49150000Y-171250000D03*
X49150000Y-168550000D03*
X108050000Y-125850000D03*
X108050000Y-128550000D03*
X109950000Y-125850000D03*
X109950000Y-128550000D03*
D60*
X82180000Y-117770000D03*
X84720000Y-117770000D03*
X87260000Y-117770000D03*
X89800000Y-117770000D03*
X82280000Y-106350000D03*
X84820000Y-106350000D03*
X87360000Y-106350000D03*
X89900000Y-106350000D03*
D61*
X94425000Y-119685000D03*
X94425000Y-118415000D03*
X94425000Y-117145000D03*
X94425000Y-115875000D03*
X94425000Y-109525000D03*
X94425000Y-110795000D03*
X94425000Y-113335000D03*
X94425000Y-112065000D03*
X94425000Y-114605000D03*
X94425000Y-108255000D03*
X94425000Y-104445000D03*
X94425000Y-106985000D03*
X94425000Y-105715000D03*
X77675000Y-118405000D03*
X77675000Y-117135000D03*
X77675000Y-105705000D03*
X77675000Y-104435000D03*
X77675000Y-106975000D03*
X77675000Y-110785000D03*
X77675000Y-109515000D03*
X77675000Y-108245000D03*
X77675000Y-119675000D03*
D62*
X86055000Y-112065000D03*
D63*
X92770000Y-143730000D03*
X95770000Y-143730000D03*
D64*
X113550000Y-144700000D03*
X113550000Y-147700000D03*
D63*
X103750000Y-125850000D03*
X100750000Y-125850000D03*
D64*
X69250000Y-136850000D03*
X69250000Y-133850000D03*
D65*
X130125000Y-167725000D03*
X131625000Y-167725000D03*
X133125000Y-167725000D03*
X134625000Y-167725000D03*
X119075000Y-167725000D03*
X120575000Y-167725000D03*
X122075000Y-167725000D03*
X123575000Y-167725000D03*
D66*
X129525000Y-108725000D03*
D67*
X127025000Y-108725000D03*
X124525000Y-108725000D03*
X122025000Y-108725000D03*
X119525000Y-108725000D03*
X117025000Y-108725000D03*
D23*
X134750000Y-141300000D03*
X139150000Y-141300000D03*
D24*
X132200000Y-143250000D03*
X129700000Y-143250000D03*
X134200000Y-148600000D03*
X136700000Y-148600000D03*
X134200000Y-146800000D03*
X136700000Y-146800000D03*
X134200000Y-145000000D03*
X136700000Y-145000000D03*
D21*
X122800000Y-133860000D03*
D22*
X122800000Y-136400000D03*
D68*
X141740000Y-149080000D03*
D69*
X126500000Y-121140000D03*
X141740000Y-146540000D03*
X126500000Y-123680000D03*
X141740000Y-144000000D03*
X126500000Y-126220000D03*
X141740000Y-141460000D03*
X126500000Y-128760000D03*
X141740000Y-138920000D03*
X126500000Y-131300000D03*
X141740000Y-136380000D03*
X126500000Y-133840000D03*
X141740000Y-133840000D03*
X126500000Y-136380000D03*
X141740000Y-131300000D03*
X126500000Y-138920000D03*
X141740000Y-128760000D03*
X126500000Y-141460000D03*
X141740000Y-126220000D03*
X126500000Y-144000000D03*
X141740000Y-123680000D03*
X126500000Y-146540000D03*
X141740000Y-121140000D03*
X126500000Y-149080000D03*
D21*
X122900000Y-123590000D03*
D22*
X122900000Y-121050000D03*
D21*
X122900000Y-127360000D03*
D22*
X122900000Y-129900000D03*
M02*
