G04 #@! TF.FileFunction,Legend,Top*
%FSLAX46Y46*%
G04 Gerber Fmt 4.6, Leading zero omitted, Abs format (unit mm)*
G04 Created by KiCad (PCBNEW 4.0.4-stable) date 12/06/17 10:47:40*
%MOMM*%
%LPD*%
G01*
G04 APERTURE LIST*
%ADD10C,0.100000*%
%ADD11C,0.150000*%
%ADD12C,0.300000*%
%ADD13C,0.200000*%
%ADD14C,0.120000*%
%ADD15C,0.050000*%
%ADD16R,1.600000X3.000000*%
%ADD17R,1.250000X1.500000*%
%ADD18R,2.000000X4.500000*%
%ADD19R,1.700000X1.700000*%
%ADD20R,1.600000X1.000000*%
%ADD21R,1.000000X1.600000*%
%ADD22R,1.500000X1.250000*%
%ADD23R,0.600000X0.450000*%
%ADD24C,1.700000*%
%ADD25R,1.700000X2.000000*%
%ADD26R,1.905000X1.905000*%
%ADD27C,1.905000*%
%ADD28R,1.980000X3.960000*%
%ADD29O,1.980000X3.960000*%
%ADD30O,1.700000X1.700000*%
%ADD31R,1.900000X0.800000*%
%ADD32R,1.500000X1.300000*%
%ADD33R,1.300000X1.500000*%
%ADD34C,1.400000*%
%ADD35O,1.400000X1.400000*%
%ADD36R,1.000000X0.250000*%
%ADD37R,0.250000X1.000000*%
%ADD38R,0.450000X1.750000*%
%ADD39R,1.550000X1.300000*%
%ADD40R,1.727200X2.032000*%
%ADD41O,1.727200X2.032000*%
%ADD42R,1.620000X1.620000*%
%ADD43C,1.620000*%
%ADD44R,3.800000X2.000000*%
%ADD45R,1.500000X2.000000*%
%ADD46C,2.200000*%
%ADD47R,2.200000X1.600000*%
%ADD48C,1.000000*%
%ADD49R,0.450000X0.900000*%
%ADD50R,0.900000X0.450000*%
%ADD51R,0.350000X1.000000*%
%ADD52R,1.000000X0.350000*%
%ADD53R,0.350000X0.800000*%
%ADD54R,0.800000X0.350000*%
%ADD55R,2.600000X2.000000*%
%ADD56O,2.600000X2.000000*%
%ADD57R,0.800000X0.900000*%
%ADD58R,1.400000X1.700000*%
%ADD59O,1.400000X1.700000*%
%ADD60R,1.270000X1.270000*%
%ADD61R,2.000000X0.900000*%
%ADD62C,6.000000*%
%ADD63R,0.500000X2.300000*%
%ADD64R,2.000000X2.500000*%
%ADD65C,0.900000*%
%ADD66R,0.600000X1.550000*%
G04 APERTURE END LIST*
D10*
X89410000Y56180000D02*
X89410000Y54800000D01*
D11*
X89968571Y55027619D02*
X89968571Y56027619D01*
X90206666Y56027619D01*
X90349524Y55980000D01*
X90444762Y55884762D01*
X90492381Y55789524D01*
X90540000Y55599048D01*
X90540000Y55456190D01*
X90492381Y55265714D01*
X90444762Y55170476D01*
X90349524Y55075238D01*
X90206666Y55027619D01*
X89968571Y55027619D01*
X90920952Y55313333D02*
X91397143Y55313333D01*
X90825714Y55027619D02*
X91159047Y56027619D01*
X91492381Y55027619D01*
X91682857Y56027619D02*
X92254286Y56027619D01*
X91968571Y55027619D02*
X91968571Y56027619D01*
X87084762Y55152857D02*
X87037143Y55105238D01*
X86894286Y55057619D01*
X86799048Y55057619D01*
X86656190Y55105238D01*
X86560952Y55200476D01*
X86513333Y55295714D01*
X86465714Y55486190D01*
X86465714Y55629048D01*
X86513333Y55819524D01*
X86560952Y55914762D01*
X86656190Y56010000D01*
X86799048Y56057619D01*
X86894286Y56057619D01*
X87037143Y56010000D01*
X87084762Y55962381D01*
X87989524Y55057619D02*
X87513333Y55057619D01*
X87513333Y56057619D01*
X88322857Y55057619D02*
X88322857Y56057619D01*
X88894286Y55057619D02*
X88465714Y55629048D01*
X88894286Y56057619D02*
X88322857Y55486190D01*
D12*
X81822857Y52465714D02*
X81822857Y54265714D01*
X82594286Y54094286D02*
X82680000Y54180000D01*
X82851429Y54265714D01*
X83280000Y54265714D01*
X83451429Y54180000D01*
X83537143Y54094286D01*
X83622858Y53922857D01*
X83622858Y53751429D01*
X83537143Y53494286D01*
X82508572Y52465714D01*
X83622858Y52465714D01*
X85422858Y52637143D02*
X85337144Y52551429D01*
X85080001Y52465714D01*
X84908572Y52465714D01*
X84651429Y52551429D01*
X84480001Y52722857D01*
X84394286Y52894286D01*
X84308572Y53237143D01*
X84308572Y53494286D01*
X84394286Y53837143D01*
X84480001Y54008571D01*
X84651429Y54180000D01*
X84908572Y54265714D01*
X85080001Y54265714D01*
X85337144Y54180000D01*
X85422858Y54094286D01*
X20944286Y30275715D02*
X20087143Y29675715D01*
X20944286Y29247143D02*
X19144286Y29247143D01*
X19144286Y29932858D01*
X19230000Y30104286D01*
X19315714Y30190001D01*
X19487143Y30275715D01*
X19744286Y30275715D01*
X19915714Y30190001D01*
X20001429Y30104286D01*
X20087143Y29932858D01*
X20087143Y29247143D01*
X20001429Y31047143D02*
X20001429Y31647143D01*
X20944286Y31904286D02*
X20944286Y31047143D01*
X19144286Y31047143D01*
X19144286Y31904286D01*
X20858571Y32590000D02*
X20944286Y32847143D01*
X20944286Y33275714D01*
X20858571Y33447143D01*
X20772857Y33532857D01*
X20601429Y33618572D01*
X20430000Y33618572D01*
X20258571Y33532857D01*
X20172857Y33447143D01*
X20087143Y33275714D01*
X20001429Y32932857D01*
X19915714Y32761429D01*
X19830000Y32675714D01*
X19658571Y32590000D01*
X19487143Y32590000D01*
X19315714Y32675714D01*
X19230000Y32761429D01*
X19144286Y32932857D01*
X19144286Y33361429D01*
X19230000Y33618572D01*
X20001429Y34390000D02*
X20001429Y34990000D01*
X20944286Y35247143D02*
X20944286Y34390000D01*
X19144286Y34390000D01*
X19144286Y35247143D01*
X19144286Y35761429D02*
X19144286Y36790000D01*
X20944286Y36275714D02*
X19144286Y36275714D01*
X98207143Y30337142D02*
X98135714Y30122856D01*
X98064286Y30051428D01*
X97921429Y29979999D01*
X97707143Y29979999D01*
X97564286Y30051428D01*
X97492857Y30122856D01*
X97421429Y30265714D01*
X97421429Y30837142D01*
X98921429Y30837142D01*
X98921429Y30337142D01*
X98850000Y30194285D01*
X98778571Y30122856D01*
X98635714Y30051428D01*
X98492857Y30051428D01*
X98350000Y30122856D01*
X98278571Y30194285D01*
X98207143Y30337142D01*
X98207143Y30837142D01*
X97421429Y28694285D02*
X98207143Y28694285D01*
X98350000Y28765714D01*
X98421429Y28908571D01*
X98421429Y29194285D01*
X98350000Y29337142D01*
X97492857Y28694285D02*
X97421429Y28837142D01*
X97421429Y29194285D01*
X97492857Y29337142D01*
X97635714Y29408571D01*
X97778571Y29408571D01*
X97921429Y29337142D01*
X97992857Y29194285D01*
X97992857Y28837142D01*
X98064286Y28694285D01*
X98421429Y28194285D02*
X98421429Y27622856D01*
X98921429Y27979999D02*
X97635714Y27979999D01*
X97492857Y27908571D01*
X97421429Y27765713D01*
X97421429Y27622856D01*
X98421429Y27337142D02*
X98421429Y26765713D01*
X98921429Y27122856D02*
X97635714Y27122856D01*
X97492857Y27051428D01*
X97421429Y26908570D01*
X97421429Y26765713D01*
X97492857Y25694285D02*
X97421429Y25837142D01*
X97421429Y26122856D01*
X97492857Y26265713D01*
X97635714Y26337142D01*
X98207143Y26337142D01*
X98350000Y26265713D01*
X98421429Y26122856D01*
X98421429Y25837142D01*
X98350000Y25694285D01*
X98207143Y25622856D01*
X98064286Y25622856D01*
X97921429Y26337142D01*
X97421429Y24979999D02*
X98421429Y24979999D01*
X98135714Y24979999D02*
X98278571Y24908571D01*
X98350000Y24837142D01*
X98421429Y24694285D01*
X98421429Y24551428D01*
X98421429Y24194285D02*
X97421429Y23837142D01*
X98421429Y23480000D02*
X97421429Y23837142D01*
X97064286Y23980000D01*
X96992857Y24051428D01*
X96921429Y24194285D01*
D13*
X92180000Y23270000D02*
X93460351Y23270000D01*
X92189649Y25840000D02*
X93470000Y25840000D01*
X92189649Y28390000D02*
X93470000Y28390000D01*
X92160000Y30960000D02*
X93470000Y30960000D01*
X90279974Y24140000D02*
X92150000Y24140000D01*
X92150000Y24140000D02*
X92150000Y22470000D01*
X92150000Y22470000D02*
X90280000Y22470000D01*
X92150000Y26690000D02*
X92150000Y25020000D01*
X92150000Y25020000D02*
X90280000Y25020000D01*
X90279974Y26690000D02*
X92150000Y26690000D01*
X92150000Y29230000D02*
X92150000Y27560000D01*
X92150000Y27560000D02*
X90280000Y27560000D01*
X90279974Y29230000D02*
X92150000Y29230000D01*
X92150000Y30110000D02*
X90280000Y30110000D01*
X92150000Y31780000D02*
X92150000Y30110000D01*
X90279974Y31780000D02*
X92150000Y31780000D01*
D11*
X89976667Y64683333D02*
X89976667Y65383333D01*
X90143333Y65383333D01*
X90243333Y65350000D01*
X90310000Y65283333D01*
X90343333Y65216667D01*
X90376667Y65083333D01*
X90376667Y64983333D01*
X90343333Y64850000D01*
X90310000Y64783333D01*
X90243333Y64716667D01*
X90143333Y64683333D01*
X89976667Y64683333D01*
X90643333Y64883333D02*
X90976667Y64883333D01*
X90576667Y64683333D02*
X90810000Y65383333D01*
X91043333Y64683333D01*
X87863334Y64770000D02*
X87830000Y64736667D01*
X87730000Y64703333D01*
X87663334Y64703333D01*
X87563334Y64736667D01*
X87496667Y64803333D01*
X87463334Y64870000D01*
X87430000Y65003333D01*
X87430000Y65103333D01*
X87463334Y65236667D01*
X87496667Y65303333D01*
X87563334Y65370000D01*
X87663334Y65403333D01*
X87730000Y65403333D01*
X87830000Y65370000D01*
X87863334Y65336667D01*
X88496667Y64703333D02*
X88163334Y64703333D01*
X88163334Y65403333D01*
X84850000Y64726667D02*
X84950000Y64693333D01*
X85116667Y64693333D01*
X85183334Y64726667D01*
X85216667Y64760000D01*
X85250000Y64826667D01*
X85250000Y64893333D01*
X85216667Y64960000D01*
X85183334Y64993333D01*
X85116667Y65026667D01*
X84983334Y65060000D01*
X84916667Y65093333D01*
X84883334Y65126667D01*
X84850000Y65193333D01*
X84850000Y65260000D01*
X84883334Y65326667D01*
X84916667Y65360000D01*
X84983334Y65393333D01*
X85150000Y65393333D01*
X85250000Y65360000D01*
X85550001Y64693333D02*
X85550001Y65393333D01*
X85716667Y65393333D01*
X85816667Y65360000D01*
X85883334Y65293333D01*
X85916667Y65226667D01*
X85950001Y65093333D01*
X85950001Y64993333D01*
X85916667Y64860000D01*
X85883334Y64793333D01*
X85816667Y64726667D01*
X85716667Y64693333D01*
X85550001Y64693333D01*
X82380000Y64790000D02*
X82346666Y64756667D01*
X82246666Y64723333D01*
X82180000Y64723333D01*
X82080000Y64756667D01*
X82013333Y64823333D01*
X81980000Y64890000D01*
X81946666Y65023333D01*
X81946666Y65123333D01*
X81980000Y65256667D01*
X82013333Y65323333D01*
X82080000Y65390000D01*
X82180000Y65423333D01*
X82246666Y65423333D01*
X82346666Y65390000D01*
X82380000Y65356667D01*
X83046666Y64723333D02*
X82646666Y64723333D01*
X82846666Y64723333D02*
X82846666Y65423333D01*
X82780000Y65323333D01*
X82713333Y65256667D01*
X82646666Y65223333D01*
X83480000Y65423333D02*
X83546667Y65423333D01*
X83613333Y65390000D01*
X83646667Y65356667D01*
X83680000Y65290000D01*
X83713333Y65156667D01*
X83713333Y64990000D01*
X83680000Y64856667D01*
X83646667Y64790000D01*
X83613333Y64756667D01*
X83546667Y64723333D01*
X83480000Y64723333D01*
X83413333Y64756667D01*
X83380000Y64790000D01*
X83346667Y64856667D01*
X83313333Y64990000D01*
X83313333Y65156667D01*
X83346667Y65290000D01*
X83380000Y65356667D01*
X83413333Y65390000D01*
X83480000Y65423333D01*
X80483333Y65380000D02*
X80416667Y65413333D01*
X80316667Y65413333D01*
X80216667Y65380000D01*
X80150000Y65313333D01*
X80116667Y65246667D01*
X80083333Y65113333D01*
X80083333Y65013333D01*
X80116667Y64880000D01*
X80150000Y64813333D01*
X80216667Y64746667D01*
X80316667Y64713333D01*
X80383333Y64713333D01*
X80483333Y64746667D01*
X80516667Y64780000D01*
X80516667Y65013333D01*
X80383333Y65013333D01*
X76943333Y65393333D02*
X77376666Y65393333D01*
X77143333Y65126667D01*
X77243333Y65126667D01*
X77310000Y65093333D01*
X77343333Y65060000D01*
X77376666Y64993333D01*
X77376666Y64826667D01*
X77343333Y64760000D01*
X77310000Y64726667D01*
X77243333Y64693333D01*
X77043333Y64693333D01*
X76976666Y64726667D01*
X76943333Y64760000D01*
X77576667Y65393333D02*
X77810000Y64693333D01*
X78043333Y65393333D01*
X78210000Y65393333D02*
X78643333Y65393333D01*
X78410000Y65126667D01*
X78510000Y65126667D01*
X78576667Y65093333D01*
X78610000Y65060000D01*
X78643333Y64993333D01*
X78643333Y64826667D01*
X78610000Y64760000D01*
X78576667Y64726667D01*
X78510000Y64693333D01*
X78310000Y64693333D01*
X78243333Y64726667D01*
X78210000Y64760000D01*
X68780952Y59327619D02*
X69352381Y59327619D01*
X69066666Y58327619D02*
X69066666Y59327619D01*
X69590476Y59327619D02*
X70257143Y58327619D01*
X70257143Y59327619D02*
X69590476Y58327619D01*
X71971429Y58327619D02*
X71638095Y58803810D01*
X71400000Y58327619D02*
X71400000Y59327619D01*
X71780953Y59327619D01*
X71876191Y59280000D01*
X71923810Y59232381D01*
X71971429Y59137143D01*
X71971429Y58994286D01*
X71923810Y58899048D01*
X71876191Y58851429D01*
X71780953Y58803810D01*
X71400000Y58803810D01*
X72304762Y59327619D02*
X72971429Y58327619D01*
X72971429Y59327619D02*
X72304762Y58327619D01*
X65290476Y59327619D02*
X65861905Y59327619D01*
X65576190Y58327619D02*
X65576190Y59327619D01*
X66385714Y59327619D02*
X66576191Y59327619D01*
X66671429Y59280000D01*
X66766667Y59184762D01*
X66814286Y58994286D01*
X66814286Y58660952D01*
X66766667Y58470476D01*
X66671429Y58375238D01*
X66576191Y58327619D01*
X66385714Y58327619D01*
X66290476Y58375238D01*
X66195238Y58470476D01*
X66147619Y58660952D01*
X66147619Y58994286D01*
X66195238Y59184762D01*
X66290476Y59280000D01*
X66385714Y59327619D01*
X67766667Y59280000D02*
X67671429Y59327619D01*
X67528572Y59327619D01*
X67385714Y59280000D01*
X67290476Y59184762D01*
X67242857Y59089524D01*
X67195238Y58899048D01*
X67195238Y58756190D01*
X67242857Y58565714D01*
X67290476Y58470476D01*
X67385714Y58375238D01*
X67528572Y58327619D01*
X67623810Y58327619D01*
X67766667Y58375238D01*
X67814286Y58422857D01*
X67814286Y58756190D01*
X67623810Y58756190D01*
D13*
X3300000Y30293572D02*
X3242857Y30179286D01*
X3242857Y30007857D01*
X3300000Y29836429D01*
X3414286Y29722143D01*
X3528571Y29665000D01*
X3757143Y29607857D01*
X3928571Y29607857D01*
X4157143Y29665000D01*
X4271429Y29722143D01*
X4385714Y29836429D01*
X4442857Y30007857D01*
X4442857Y30122143D01*
X4385714Y30293572D01*
X4328571Y30350715D01*
X3928571Y30350715D01*
X3928571Y30122143D01*
X4442857Y30865000D02*
X3242857Y30865000D01*
X3242857Y31322143D01*
X3300000Y31436429D01*
X3357143Y31493572D01*
X3471429Y31550715D01*
X3642857Y31550715D01*
X3757143Y31493572D01*
X3814286Y31436429D01*
X3871429Y31322143D01*
X3871429Y30865000D01*
X3814286Y33379286D02*
X3871429Y33550715D01*
X3928571Y33607858D01*
X4042857Y33665001D01*
X4214286Y33665001D01*
X4328571Y33607858D01*
X4385714Y33550715D01*
X4442857Y33436429D01*
X4442857Y32979286D01*
X3242857Y32979286D01*
X3242857Y33379286D01*
X3300000Y33493572D01*
X3357143Y33550715D01*
X3471429Y33607858D01*
X3585714Y33607858D01*
X3700000Y33550715D01*
X3757143Y33493572D01*
X3814286Y33379286D01*
X3814286Y32979286D01*
X3642857Y34693572D02*
X4442857Y34693572D01*
X3642857Y34179286D02*
X4271429Y34179286D01*
X4385714Y34236429D01*
X4442857Y34350715D01*
X4442857Y34522143D01*
X4385714Y34636429D01*
X4328571Y34693572D01*
X3642857Y35093572D02*
X3642857Y35550715D01*
X3242857Y35265000D02*
X4271429Y35265000D01*
X4385714Y35322143D01*
X4442857Y35436429D01*
X4442857Y35550715D01*
X3642857Y35779286D02*
X3642857Y36236429D01*
X3242857Y35950714D02*
X4271429Y35950714D01*
X4385714Y36007857D01*
X4442857Y36122143D01*
X4442857Y36236429D01*
X38242857Y44227143D02*
X38242857Y45427143D01*
X38700000Y45427143D01*
X38814286Y45370000D01*
X38871429Y45312857D01*
X38928572Y45198571D01*
X38928572Y45027143D01*
X38871429Y44912857D01*
X38814286Y44855714D01*
X38700000Y44798571D01*
X38242857Y44798571D01*
X39442857Y44227143D02*
X39442857Y45027143D01*
X39442857Y44798571D02*
X39500000Y44912857D01*
X39557143Y44970000D01*
X39671429Y45027143D01*
X39785714Y45027143D01*
X40357143Y44227143D02*
X40242857Y44284286D01*
X40185714Y44341429D01*
X40128571Y44455714D01*
X40128571Y44798571D01*
X40185714Y44912857D01*
X40242857Y44970000D01*
X40357143Y45027143D01*
X40528571Y45027143D01*
X40642857Y44970000D01*
X40700000Y44912857D01*
X40757143Y44798571D01*
X40757143Y44455714D01*
X40700000Y44341429D01*
X40642857Y44284286D01*
X40528571Y44227143D01*
X40357143Y44227143D01*
X41785714Y45027143D02*
X41785714Y44055714D01*
X41728571Y43941429D01*
X41671428Y43884286D01*
X41557143Y43827143D01*
X41385714Y43827143D01*
X41271428Y43884286D01*
X41785714Y44284286D02*
X41671428Y44227143D01*
X41442857Y44227143D01*
X41328571Y44284286D01*
X41271428Y44341429D01*
X41214285Y44455714D01*
X41214285Y44798571D01*
X41271428Y44912857D01*
X41328571Y44970000D01*
X41442857Y45027143D01*
X41671428Y45027143D01*
X41785714Y44970000D01*
X42357142Y44341429D02*
X42414285Y44284286D01*
X42357142Y44227143D01*
X42299999Y44284286D01*
X42357142Y44341429D01*
X42357142Y44227143D01*
D12*
X10100000Y67747143D02*
X10314286Y67675714D01*
X10385714Y67604286D01*
X10457143Y67461429D01*
X10457143Y67247143D01*
X10385714Y67104286D01*
X10314286Y67032857D01*
X10171428Y66961429D01*
X9600000Y66961429D01*
X9600000Y68461429D01*
X10100000Y68461429D01*
X10242857Y68390000D01*
X10314286Y68318571D01*
X10385714Y68175714D01*
X10385714Y68032857D01*
X10314286Y67890000D01*
X10242857Y67818571D01*
X10100000Y67747143D01*
X9600000Y67747143D01*
X11314286Y66961429D02*
X11171428Y67032857D01*
X11100000Y67175714D01*
X11100000Y68461429D01*
X12528571Y67961429D02*
X12528571Y66961429D01*
X11885714Y67961429D02*
X11885714Y67175714D01*
X11957142Y67032857D01*
X12100000Y66961429D01*
X12314285Y66961429D01*
X12457142Y67032857D01*
X12528571Y67104286D01*
X13814285Y67032857D02*
X13671428Y66961429D01*
X13385714Y66961429D01*
X13242857Y67032857D01*
X13171428Y67175714D01*
X13171428Y67747143D01*
X13242857Y67890000D01*
X13385714Y67961429D01*
X13671428Y67961429D01*
X13814285Y67890000D01*
X13885714Y67747143D01*
X13885714Y67604286D01*
X13171428Y67461429D01*
X14314285Y67961429D02*
X14885714Y67961429D01*
X14528571Y68461429D02*
X14528571Y67175714D01*
X14599999Y67032857D01*
X14742857Y66961429D01*
X14885714Y66961429D01*
X15600000Y66961429D02*
X15457142Y67032857D01*
X15385714Y67104286D01*
X15314285Y67247143D01*
X15314285Y67675714D01*
X15385714Y67818571D01*
X15457142Y67890000D01*
X15600000Y67961429D01*
X15814285Y67961429D01*
X15957142Y67890000D01*
X16028571Y67818571D01*
X16100000Y67675714D01*
X16100000Y67247143D01*
X16028571Y67104286D01*
X15957142Y67032857D01*
X15814285Y66961429D01*
X15600000Y66961429D01*
X16957143Y66961429D02*
X16814285Y67032857D01*
X16742857Y67104286D01*
X16671428Y67247143D01*
X16671428Y67675714D01*
X16742857Y67818571D01*
X16814285Y67890000D01*
X16957143Y67961429D01*
X17171428Y67961429D01*
X17314285Y67890000D01*
X17385714Y67818571D01*
X17457143Y67675714D01*
X17457143Y67247143D01*
X17385714Y67104286D01*
X17314285Y67032857D01*
X17171428Y66961429D01*
X16957143Y66961429D01*
X17885714Y67961429D02*
X18457143Y67961429D01*
X18100000Y68461429D02*
X18100000Y67175714D01*
X18171428Y67032857D01*
X18314286Y66961429D01*
X18457143Y66961429D01*
X18957143Y66961429D02*
X18957143Y68461429D01*
X19600000Y66961429D02*
X19600000Y67747143D01*
X19528571Y67890000D01*
X19385714Y67961429D01*
X19171429Y67961429D01*
X19028571Y67890000D01*
X18957143Y67818571D01*
X34778572Y68080000D02*
X34635715Y68151429D01*
X34421429Y68151429D01*
X34207144Y68080000D01*
X34064286Y67937143D01*
X33992858Y67794286D01*
X33921429Y67508571D01*
X33921429Y67294286D01*
X33992858Y67008571D01*
X34064286Y66865714D01*
X34207144Y66722857D01*
X34421429Y66651429D01*
X34564286Y66651429D01*
X34778572Y66722857D01*
X34850001Y66794286D01*
X34850001Y67294286D01*
X34564286Y67294286D01*
X35492858Y66651429D02*
X35492858Y68151429D01*
X36064286Y68151429D01*
X36207144Y68080000D01*
X36278572Y68008571D01*
X36350001Y67865714D01*
X36350001Y67651429D01*
X36278572Y67508571D01*
X36207144Y67437143D01*
X36064286Y67365714D01*
X35492858Y67365714D01*
X36921429Y66722857D02*
X37135715Y66651429D01*
X37492858Y66651429D01*
X37635715Y66722857D01*
X37707144Y66794286D01*
X37778572Y66937143D01*
X37778572Y67080000D01*
X37707144Y67222857D01*
X37635715Y67294286D01*
X37492858Y67365714D01*
X37207144Y67437143D01*
X37064286Y67508571D01*
X36992858Y67580000D01*
X36921429Y67722857D01*
X36921429Y67865714D01*
X36992858Y68008571D01*
X37064286Y68080000D01*
X37207144Y68151429D01*
X37564286Y68151429D01*
X37778572Y68080000D01*
X93240000Y61551429D02*
X94097143Y61551429D01*
X93668572Y60051429D02*
X93668572Y61551429D01*
X94811429Y60051429D02*
X94668571Y60122857D01*
X94597143Y60194286D01*
X94525714Y60337143D01*
X94525714Y60765714D01*
X94597143Y60908571D01*
X94668571Y60980000D01*
X94811429Y61051429D01*
X95025714Y61051429D01*
X95168571Y60980000D01*
X95240000Y60908571D01*
X95311429Y60765714D01*
X95311429Y60337143D01*
X95240000Y60194286D01*
X95168571Y60122857D01*
X95025714Y60051429D01*
X94811429Y60051429D01*
X96454286Y60837143D02*
X95954286Y60837143D01*
X95954286Y60051429D02*
X95954286Y61551429D01*
X96668572Y61551429D01*
X67700000Y11061428D02*
X67700000Y11775714D01*
X68128571Y10918571D02*
X66628571Y11418571D01*
X68128571Y11918571D01*
X68128571Y12418571D02*
X66628571Y12418571D01*
X68128571Y13275714D01*
X66628571Y13275714D01*
X67700000Y13918571D02*
X67700000Y14632857D01*
X68128571Y13775714D02*
X66628571Y14275714D01*
X68128571Y14775714D01*
X68128571Y15990000D02*
X68128571Y15275714D01*
X66628571Y15275714D01*
X66628571Y16775714D02*
X66628571Y17061428D01*
X66700000Y17204286D01*
X66842857Y17347143D01*
X67128571Y17418571D01*
X67628571Y17418571D01*
X67914286Y17347143D01*
X68057143Y17204286D01*
X68128571Y17061428D01*
X68128571Y16775714D01*
X68057143Y16632857D01*
X67914286Y16490000D01*
X67628571Y16418571D01*
X67128571Y16418571D01*
X66842857Y16490000D01*
X66700000Y16632857D01*
X66628571Y16775714D01*
X66700000Y18847143D02*
X66628571Y18704286D01*
X66628571Y18490000D01*
X66700000Y18275715D01*
X66842857Y18132857D01*
X66985714Y18061429D01*
X67271429Y17990000D01*
X67485714Y17990000D01*
X67771429Y18061429D01*
X67914286Y18132857D01*
X68057143Y18275715D01*
X68128571Y18490000D01*
X68128571Y18632857D01*
X68057143Y18847143D01*
X67985714Y18918572D01*
X67485714Y18918572D01*
X67485714Y18632857D01*
X36397143Y21901429D02*
X36397143Y20687143D01*
X36468571Y20544286D01*
X36540000Y20472857D01*
X36682857Y20401429D01*
X36968571Y20401429D01*
X37111429Y20472857D01*
X37182857Y20544286D01*
X37254286Y20687143D01*
X37254286Y21901429D01*
X37897143Y20472857D02*
X38111429Y20401429D01*
X38468572Y20401429D01*
X38611429Y20472857D01*
X38682858Y20544286D01*
X38754286Y20687143D01*
X38754286Y20830000D01*
X38682858Y20972857D01*
X38611429Y21044286D01*
X38468572Y21115714D01*
X38182858Y21187143D01*
X38040000Y21258571D01*
X37968572Y21330000D01*
X37897143Y21472857D01*
X37897143Y21615714D01*
X37968572Y21758571D01*
X38040000Y21830000D01*
X38182858Y21901429D01*
X38540000Y21901429D01*
X38754286Y21830000D01*
X39897143Y21187143D02*
X40111429Y21115714D01*
X40182857Y21044286D01*
X40254286Y20901429D01*
X40254286Y20687143D01*
X40182857Y20544286D01*
X40111429Y20472857D01*
X39968571Y20401429D01*
X39397143Y20401429D01*
X39397143Y21901429D01*
X39897143Y21901429D01*
X40040000Y21830000D01*
X40111429Y21758571D01*
X40182857Y21615714D01*
X40182857Y21472857D01*
X40111429Y21330000D01*
X40040000Y21258571D01*
X39897143Y21187143D01*
X39397143Y21187143D01*
X1985714Y23451429D02*
X1985714Y24951429D01*
X2557142Y24951429D01*
X2700000Y24880000D01*
X2771428Y24808571D01*
X2842857Y24665714D01*
X2842857Y24451429D01*
X2771428Y24308571D01*
X2700000Y24237143D01*
X2557142Y24165714D01*
X1985714Y24165714D01*
X3771428Y24951429D02*
X4057142Y24951429D01*
X4200000Y24880000D01*
X4342857Y24737143D01*
X4414285Y24451429D01*
X4414285Y23951429D01*
X4342857Y23665714D01*
X4200000Y23522857D01*
X4057142Y23451429D01*
X3771428Y23451429D01*
X3628571Y23522857D01*
X3485714Y23665714D01*
X3414285Y23951429D01*
X3414285Y24451429D01*
X3485714Y24737143D01*
X3628571Y24880000D01*
X3771428Y24951429D01*
X4914286Y24951429D02*
X5271429Y23451429D01*
X5557143Y24522857D01*
X5842857Y23451429D01*
X6200000Y24951429D01*
X6771429Y24237143D02*
X7271429Y24237143D01*
X7485715Y23451429D02*
X6771429Y23451429D01*
X6771429Y24951429D01*
X7485715Y24951429D01*
X8985715Y23451429D02*
X8485715Y24165714D01*
X8128572Y23451429D02*
X8128572Y24951429D01*
X8700000Y24951429D01*
X8842858Y24880000D01*
X8914286Y24808571D01*
X8985715Y24665714D01*
X8985715Y24451429D01*
X8914286Y24308571D01*
X8842858Y24237143D01*
X8700000Y24165714D01*
X8128572Y24165714D01*
X27302380Y47580476D02*
X27588095Y47485238D01*
X28064285Y47485238D01*
X28254761Y47580476D01*
X28349999Y47675714D01*
X28445238Y47866190D01*
X28445238Y48056667D01*
X28349999Y48247143D01*
X28254761Y48342381D01*
X28064285Y48437619D01*
X27683333Y48532857D01*
X27492857Y48628095D01*
X27397618Y48723333D01*
X27302380Y48913810D01*
X27302380Y49104286D01*
X27397618Y49294762D01*
X27492857Y49390000D01*
X27683333Y49485238D01*
X28159523Y49485238D01*
X28445238Y49390000D01*
X29207142Y48056667D02*
X30159523Y48056667D01*
X29016666Y47485238D02*
X29683333Y49485238D01*
X30350000Y47485238D01*
X31016666Y47485238D02*
X31016666Y49485238D01*
X32921428Y47485238D02*
X31969047Y47485238D01*
X31969047Y49485238D01*
X33969048Y49485238D02*
X34350000Y49485238D01*
X34540476Y49390000D01*
X34730953Y49199524D01*
X34826191Y48818571D01*
X34826191Y48151905D01*
X34730953Y47770952D01*
X34540476Y47580476D01*
X34350000Y47485238D01*
X33969048Y47485238D01*
X33778572Y47580476D01*
X33588095Y47770952D01*
X33492857Y48151905D01*
X33492857Y48818571D01*
X33588095Y49199524D01*
X33778572Y49390000D01*
X33969048Y49485238D01*
X36826191Y47485238D02*
X36159524Y48437619D01*
X35683333Y47485238D02*
X35683333Y49485238D01*
X36445238Y49485238D01*
X36635714Y49390000D01*
X36730953Y49294762D01*
X36826191Y49104286D01*
X36826191Y48818571D01*
X36730953Y48628095D01*
X36635714Y48532857D01*
X36445238Y48437619D01*
X35683333Y48437619D01*
X37588095Y48056667D02*
X38540476Y48056667D01*
X37397619Y47485238D02*
X38064286Y49485238D01*
X38730953Y47485238D01*
X39397619Y47485238D02*
X39397619Y49485238D01*
X40350000Y47485238D02*
X40350000Y49485238D01*
X40826191Y49485238D01*
X41111905Y49390000D01*
X41302381Y49199524D01*
X41397620Y49009048D01*
X41492858Y48628095D01*
X41492858Y48342381D01*
X41397620Y47961429D01*
X41302381Y47770952D01*
X41111905Y47580476D01*
X40826191Y47485238D01*
X40350000Y47485238D01*
X45016668Y47485238D02*
X44350001Y48437619D01*
X43873810Y47485238D02*
X43873810Y49485238D01*
X44635715Y49485238D01*
X44826191Y49390000D01*
X44921430Y49294762D01*
X45016668Y49104286D01*
X45016668Y48818571D01*
X44921430Y48628095D01*
X44826191Y48532857D01*
X44635715Y48437619D01*
X43873810Y48437619D01*
X45873810Y48532857D02*
X46540477Y48532857D01*
X46826191Y47485238D02*
X45873810Y47485238D01*
X45873810Y49485238D01*
X46826191Y49485238D01*
X47397620Y49485238D02*
X48064287Y47485238D01*
X48730954Y49485238D01*
X49397620Y47675714D02*
X49492859Y47580476D01*
X49397620Y47485238D01*
X49302382Y47580476D01*
X49397620Y47675714D01*
X49397620Y47485238D01*
X50159525Y49485238D02*
X51397621Y49485238D01*
X50730954Y48723333D01*
X51016668Y48723333D01*
X51207144Y48628095D01*
X51302382Y48532857D01*
X51397621Y48342381D01*
X51397621Y47866190D01*
X51302382Y47675714D01*
X51207144Y47580476D01*
X51016668Y47485238D01*
X50445240Y47485238D01*
X50254763Y47580476D01*
X50159525Y47675714D01*
D11*
X66402381Y6701905D02*
X66402381Y7320953D01*
X66783333Y6987619D01*
X66783333Y7130477D01*
X66830952Y7225715D01*
X66878571Y7273334D01*
X66973810Y7320953D01*
X67211905Y7320953D01*
X67307143Y7273334D01*
X67354762Y7225715D01*
X67402381Y7130477D01*
X67402381Y6844762D01*
X67354762Y6749524D01*
X67307143Y6701905D01*
X66402381Y7606667D02*
X67402381Y7940000D01*
X66402381Y8273334D01*
X66402381Y8511429D02*
X66402381Y9130477D01*
X66783333Y8797143D01*
X66783333Y8940001D01*
X66830952Y9035239D01*
X66878571Y9082858D01*
X66973810Y9130477D01*
X67211905Y9130477D01*
X67307143Y9082858D01*
X67354762Y9035239D01*
X67402381Y8940001D01*
X67402381Y8654286D01*
X67354762Y8559048D01*
X67307143Y8511429D01*
X66500000Y5601905D02*
X66452381Y5506667D01*
X66452381Y5363810D01*
X66500000Y5220952D01*
X66595238Y5125714D01*
X66690476Y5078095D01*
X66880952Y5030476D01*
X67023810Y5030476D01*
X67214286Y5078095D01*
X67309524Y5125714D01*
X67404762Y5220952D01*
X67452381Y5363810D01*
X67452381Y5459048D01*
X67404762Y5601905D01*
X67357143Y5649524D01*
X67023810Y5649524D01*
X67023810Y5459048D01*
X66402381Y2549524D02*
X66402381Y2073333D01*
X66878571Y2025714D01*
X66830952Y2073333D01*
X66783333Y2168571D01*
X66783333Y2406667D01*
X66830952Y2501905D01*
X66878571Y2549524D01*
X66973810Y2597143D01*
X67211905Y2597143D01*
X67307143Y2549524D01*
X67354762Y2501905D01*
X67402381Y2406667D01*
X67402381Y2168571D01*
X67354762Y2073333D01*
X67307143Y2025714D01*
X66402381Y2882857D02*
X67402381Y3216190D01*
X66402381Y3549524D01*
X14186667Y43724286D02*
X14148572Y43686190D01*
X14034286Y43648095D01*
X13958096Y43648095D01*
X13843810Y43686190D01*
X13767619Y43762381D01*
X13729524Y43838571D01*
X13691429Y43990952D01*
X13691429Y44105238D01*
X13729524Y44257619D01*
X13767619Y44333810D01*
X13843810Y44410000D01*
X13958096Y44448095D01*
X14034286Y44448095D01*
X14148572Y44410000D01*
X14186667Y44371905D01*
X14491429Y43686190D02*
X14605715Y43648095D01*
X14796191Y43648095D01*
X14872381Y43686190D01*
X14910477Y43724286D01*
X14948572Y43800476D01*
X14948572Y43876667D01*
X14910477Y43952857D01*
X14872381Y43990952D01*
X14796191Y44029048D01*
X14643810Y44067143D01*
X14567619Y44105238D01*
X14529524Y44143333D01*
X14491429Y44219524D01*
X14491429Y44295714D01*
X14529524Y44371905D01*
X14567619Y44410000D01*
X14643810Y44448095D01*
X14834286Y44448095D01*
X14948572Y44410000D01*
X18471905Y46492857D02*
X17671905Y46492857D01*
X18243333Y46759524D01*
X17671905Y47026191D01*
X18471905Y47026191D01*
X18471905Y47407143D02*
X17671905Y47407143D01*
X18433810Y47750000D02*
X18471905Y47864286D01*
X18471905Y48054762D01*
X18433810Y48130952D01*
X18395714Y48169048D01*
X18319524Y48207143D01*
X18243333Y48207143D01*
X18167143Y48169048D01*
X18129048Y48130952D01*
X18090952Y48054762D01*
X18052857Y47902381D01*
X18014762Y47826190D01*
X17976667Y47788095D01*
X17900476Y47750000D01*
X17824286Y47750000D01*
X17748095Y47788095D01*
X17710000Y47826190D01*
X17671905Y47902381D01*
X17671905Y48092857D01*
X17710000Y48207143D01*
X17671905Y48702381D02*
X17671905Y48854762D01*
X17710000Y48930953D01*
X17786190Y49007143D01*
X17938571Y49045238D01*
X18205238Y49045238D01*
X18357619Y49007143D01*
X18433810Y48930953D01*
X18471905Y48854762D01*
X18471905Y48702381D01*
X18433810Y48626191D01*
X18357619Y48550000D01*
X18205238Y48511905D01*
X17938571Y48511905D01*
X17786190Y48550000D01*
X17710000Y48626191D01*
X17671905Y48702381D01*
X15901905Y46422857D02*
X15101905Y46422857D01*
X15673333Y46689524D01*
X15101905Y46956191D01*
X15901905Y46956191D01*
X15101905Y47489524D02*
X15101905Y47641905D01*
X15140000Y47718096D01*
X15216190Y47794286D01*
X15368571Y47832381D01*
X15635238Y47832381D01*
X15787619Y47794286D01*
X15863810Y47718096D01*
X15901905Y47641905D01*
X15901905Y47489524D01*
X15863810Y47413334D01*
X15787619Y47337143D01*
X15635238Y47299048D01*
X15368571Y47299048D01*
X15216190Y47337143D01*
X15140000Y47413334D01*
X15101905Y47489524D01*
X15863810Y48137143D02*
X15901905Y48251429D01*
X15901905Y48441905D01*
X15863810Y48518095D01*
X15825714Y48556191D01*
X15749524Y48594286D01*
X15673333Y48594286D01*
X15597143Y48556191D01*
X15559048Y48518095D01*
X15520952Y48441905D01*
X15482857Y48289524D01*
X15444762Y48213333D01*
X15406667Y48175238D01*
X15330476Y48137143D01*
X15254286Y48137143D01*
X15178095Y48175238D01*
X15140000Y48213333D01*
X15101905Y48289524D01*
X15101905Y48480000D01*
X15140000Y48594286D01*
X15901905Y48937143D02*
X15101905Y48937143D01*
X20473810Y48294286D02*
X20435715Y48256190D01*
X20321429Y48218095D01*
X20245239Y48218095D01*
X20130953Y48256190D01*
X20054762Y48332381D01*
X20016667Y48408571D01*
X19978572Y48560952D01*
X19978572Y48675238D01*
X20016667Y48827619D01*
X20054762Y48903810D01*
X20130953Y48980000D01*
X20245239Y49018095D01*
X20321429Y49018095D01*
X20435715Y48980000D01*
X20473810Y48941905D01*
X21197620Y48218095D02*
X20816667Y48218095D01*
X20816667Y49018095D01*
X9620953Y48218095D02*
X9620953Y49018095D01*
X10459048Y48218095D02*
X10192381Y48599048D01*
X10001905Y48218095D02*
X10001905Y49018095D01*
X10306667Y49018095D01*
X10382858Y48980000D01*
X10420953Y48941905D01*
X10459048Y48865714D01*
X10459048Y48751429D01*
X10420953Y48675238D01*
X10382858Y48637143D01*
X10306667Y48599048D01*
X10001905Y48599048D01*
X11335239Y48141905D02*
X11259048Y48180000D01*
X11182858Y48256190D01*
X11068572Y48370476D01*
X10992381Y48408571D01*
X10916191Y48408571D01*
X10954286Y48218095D02*
X10878096Y48256190D01*
X10801905Y48332381D01*
X10763810Y48484762D01*
X10763810Y48751429D01*
X10801905Y48903810D01*
X10878096Y48980000D01*
X10954286Y49018095D01*
X11106667Y49018095D01*
X11182858Y48980000D01*
X11259048Y48903810D01*
X11297143Y48751429D01*
X11297143Y48484762D01*
X11259048Y48332381D01*
X11182858Y48256190D01*
X11106667Y48218095D01*
X10954286Y48218095D01*
D13*
X14380000Y49510010D02*
X14380000Y44659954D01*
X13130000Y50790000D02*
X14390158Y49529842D01*
D11*
X63244762Y19707619D02*
X62768571Y19707619D01*
X62768571Y20707619D01*
X64149524Y19802857D02*
X64101905Y19755238D01*
X63959048Y19707619D01*
X63863810Y19707619D01*
X63720952Y19755238D01*
X63625714Y19850476D01*
X63578095Y19945714D01*
X63530476Y20136190D01*
X63530476Y20279048D01*
X63578095Y20469524D01*
X63625714Y20564762D01*
X63720952Y20660000D01*
X63863810Y20707619D01*
X63959048Y20707619D01*
X64101905Y20660000D01*
X64149524Y20612381D01*
X64530476Y19993333D02*
X65006667Y19993333D01*
X64435238Y19707619D02*
X64768571Y20707619D01*
X65101905Y19707619D01*
X65387619Y20612381D02*
X65435238Y20660000D01*
X65530476Y20707619D01*
X65768572Y20707619D01*
X65863810Y20660000D01*
X65911429Y20612381D01*
X65959048Y20517143D01*
X65959048Y20421905D01*
X65911429Y20279048D01*
X65340000Y19707619D01*
X65959048Y19707619D01*
X59194762Y19687619D02*
X58718571Y19687619D01*
X58718571Y20687619D01*
X60099524Y19782857D02*
X60051905Y19735238D01*
X59909048Y19687619D01*
X59813810Y19687619D01*
X59670952Y19735238D01*
X59575714Y19830476D01*
X59528095Y19925714D01*
X59480476Y20116190D01*
X59480476Y20259048D01*
X59528095Y20449524D01*
X59575714Y20544762D01*
X59670952Y20640000D01*
X59813810Y20687619D01*
X59909048Y20687619D01*
X60051905Y20640000D01*
X60099524Y20592381D01*
X60480476Y19973333D02*
X60956667Y19973333D01*
X60385238Y19687619D02*
X60718571Y20687619D01*
X61051905Y19687619D01*
X61909048Y19687619D02*
X61337619Y19687619D01*
X61623333Y19687619D02*
X61623333Y20687619D01*
X61528095Y20544762D01*
X61432857Y20449524D01*
X61337619Y20401905D01*
X14161905Y22390000D02*
X14066667Y22437619D01*
X13923810Y22437619D01*
X13780952Y22390000D01*
X13685714Y22294762D01*
X13638095Y22199524D01*
X13590476Y22009048D01*
X13590476Y21866190D01*
X13638095Y21675714D01*
X13685714Y21580476D01*
X13780952Y21485238D01*
X13923810Y21437619D01*
X14019048Y21437619D01*
X14161905Y21485238D01*
X14209524Y21532857D01*
X14209524Y21866190D01*
X14019048Y21866190D01*
X15261905Y22487619D02*
X15880953Y22487619D01*
X15547619Y22106667D01*
X15690477Y22106667D01*
X15785715Y22059048D01*
X15833334Y22011429D01*
X15880953Y21916190D01*
X15880953Y21678095D01*
X15833334Y21582857D01*
X15785715Y21535238D01*
X15690477Y21487619D01*
X15404762Y21487619D01*
X15309524Y21535238D01*
X15261905Y21582857D01*
X16166667Y22487619D02*
X16500000Y21487619D01*
X16833334Y22487619D01*
X17071429Y22487619D02*
X17690477Y22487619D01*
X17357143Y22106667D01*
X17500001Y22106667D01*
X17595239Y22059048D01*
X17642858Y22011429D01*
X17690477Y21916190D01*
X17690477Y21678095D01*
X17642858Y21582857D01*
X17595239Y21535238D01*
X17500001Y21487619D01*
X17214286Y21487619D01*
X17119048Y21535238D01*
X17071429Y21582857D01*
X11109524Y22487619D02*
X10633333Y22487619D01*
X10585714Y22011429D01*
X10633333Y22059048D01*
X10728571Y22106667D01*
X10966667Y22106667D01*
X11061905Y22059048D01*
X11109524Y22011429D01*
X11157143Y21916190D01*
X11157143Y21678095D01*
X11109524Y21582857D01*
X11061905Y21535238D01*
X10966667Y21487619D01*
X10728571Y21487619D01*
X10633333Y21535238D01*
X10585714Y21582857D01*
X11442857Y22487619D02*
X11776190Y21487619D01*
X12109524Y22487619D01*
X26678572Y20182857D02*
X26678572Y19540000D01*
X26635714Y19411429D01*
X26550000Y19325714D01*
X26421429Y19282857D01*
X26335714Y19282857D01*
X27107143Y19282857D02*
X27107143Y20182857D01*
X27450000Y20182857D01*
X27535714Y20140000D01*
X27578571Y20097143D01*
X27621428Y20011429D01*
X27621428Y19882857D01*
X27578571Y19797143D01*
X27535714Y19754286D01*
X27450000Y19711429D01*
X27107143Y19711429D01*
X28521428Y19282857D02*
X28221428Y19711429D01*
X28007143Y19282857D02*
X28007143Y20182857D01*
X28350000Y20182857D01*
X28435714Y20140000D01*
X28478571Y20097143D01*
X28521428Y20011429D01*
X28521428Y19882857D01*
X28478571Y19797143D01*
X28435714Y19754286D01*
X28350000Y19711429D01*
X28007143Y19711429D01*
X45293334Y23267619D02*
X44960000Y23743810D01*
X44721905Y23267619D02*
X44721905Y24267619D01*
X45102858Y24267619D01*
X45198096Y24220000D01*
X45245715Y24172381D01*
X45293334Y24077143D01*
X45293334Y23934286D01*
X45245715Y23839048D01*
X45198096Y23791429D01*
X45102858Y23743810D01*
X44721905Y23743810D01*
X45626667Y24267619D02*
X46293334Y23267619D01*
X46293334Y24267619D02*
X45626667Y23267619D01*
X41958095Y24207619D02*
X42529524Y24207619D01*
X42243809Y23207619D02*
X42243809Y24207619D01*
X42767619Y24207619D02*
X43434286Y23207619D01*
X43434286Y24207619D02*
X42767619Y23207619D01*
X32659524Y18037619D02*
X32183333Y18037619D01*
X32135714Y17561429D01*
X32183333Y17609048D01*
X32278571Y17656667D01*
X32516667Y17656667D01*
X32611905Y17609048D01*
X32659524Y17561429D01*
X32707143Y17466190D01*
X32707143Y17228095D01*
X32659524Y17132857D01*
X32611905Y17085238D01*
X32516667Y17037619D01*
X32278571Y17037619D01*
X32183333Y17085238D01*
X32135714Y17132857D01*
X32992857Y18037619D02*
X33326190Y17037619D01*
X33659524Y18037619D01*
X32061905Y22487619D02*
X32680953Y22487619D01*
X32347619Y22106667D01*
X32490477Y22106667D01*
X32585715Y22059048D01*
X32633334Y22011429D01*
X32680953Y21916190D01*
X32680953Y21678095D01*
X32633334Y21582857D01*
X32585715Y21535238D01*
X32490477Y21487619D01*
X32204762Y21487619D01*
X32109524Y21535238D01*
X32061905Y21582857D01*
X32966667Y22487619D02*
X33300000Y21487619D01*
X33633334Y22487619D01*
X33871429Y22487619D02*
X34490477Y22487619D01*
X34157143Y22106667D01*
X34300001Y22106667D01*
X34395239Y22059048D01*
X34442858Y22011429D01*
X34490477Y21916190D01*
X34490477Y21678095D01*
X34442858Y21582857D01*
X34395239Y21535238D01*
X34300001Y21487619D01*
X34014286Y21487619D01*
X33919048Y21535238D01*
X33871429Y21582857D01*
X29014286Y24832857D02*
X29014286Y24104286D01*
X29057143Y24018571D01*
X29100000Y23975714D01*
X29185714Y23932857D01*
X29357143Y23932857D01*
X29442857Y23975714D01*
X29485714Y24018571D01*
X29528571Y24104286D01*
X29528571Y24832857D01*
X29914286Y23975714D02*
X30042857Y23932857D01*
X30257143Y23932857D01*
X30342857Y23975714D01*
X30385714Y24018571D01*
X30428571Y24104286D01*
X30428571Y24190000D01*
X30385714Y24275714D01*
X30342857Y24318571D01*
X30257143Y24361429D01*
X30085714Y24404286D01*
X30000000Y24447143D01*
X29957143Y24490000D01*
X29914286Y24575714D01*
X29914286Y24661429D01*
X29957143Y24747143D01*
X30000000Y24790000D01*
X30085714Y24832857D01*
X30300000Y24832857D01*
X30428571Y24790000D01*
X31114286Y24404286D02*
X31242857Y24361429D01*
X31285714Y24318571D01*
X31328571Y24232857D01*
X31328571Y24104286D01*
X31285714Y24018571D01*
X31242857Y23975714D01*
X31157143Y23932857D01*
X30814286Y23932857D01*
X30814286Y24832857D01*
X31114286Y24832857D01*
X31200000Y24790000D01*
X31242857Y24747143D01*
X31285714Y24661429D01*
X31285714Y24575714D01*
X31242857Y24490000D01*
X31200000Y24447143D01*
X31114286Y24404286D01*
X30814286Y24404286D01*
X23092857Y24175714D02*
X23221428Y24132857D01*
X23435714Y24132857D01*
X23521428Y24175714D01*
X23564285Y24218571D01*
X23607142Y24304286D01*
X23607142Y24390000D01*
X23564285Y24475714D01*
X23521428Y24518571D01*
X23435714Y24561429D01*
X23264285Y24604286D01*
X23178571Y24647143D01*
X23135714Y24690000D01*
X23092857Y24775714D01*
X23092857Y24861429D01*
X23135714Y24947143D01*
X23178571Y24990000D01*
X23264285Y25032857D01*
X23478571Y25032857D01*
X23607142Y24990000D01*
X24378571Y24732857D02*
X24378571Y24132857D01*
X23992857Y24732857D02*
X23992857Y24261429D01*
X24035714Y24175714D01*
X24121428Y24132857D01*
X24250000Y24132857D01*
X24335714Y24175714D01*
X24378571Y24218571D01*
X24807143Y24732857D02*
X24807143Y23832857D01*
X24807143Y24690000D02*
X24892857Y24732857D01*
X25064286Y24732857D01*
X25150000Y24690000D01*
X25192857Y24647143D01*
X25235714Y24561429D01*
X25235714Y24304286D01*
X25192857Y24218571D01*
X25150000Y24175714D01*
X25064286Y24132857D01*
X24892857Y24132857D01*
X24807143Y24175714D01*
X25621429Y24732857D02*
X25621429Y23832857D01*
X25621429Y24690000D02*
X25707143Y24732857D01*
X25878572Y24732857D01*
X25964286Y24690000D01*
X26007143Y24647143D01*
X26050000Y24561429D01*
X26050000Y24304286D01*
X26007143Y24218571D01*
X25964286Y24175714D01*
X25878572Y24132857D01*
X25707143Y24132857D01*
X25621429Y24175714D01*
X26564286Y24132857D02*
X26478572Y24175714D01*
X26435715Y24261429D01*
X26435715Y25032857D01*
X26821429Y24732857D02*
X27035715Y24132857D01*
X27250001Y24732857D02*
X27035715Y24132857D01*
X26950001Y23918571D01*
X26907144Y23875714D01*
X26821429Y23832857D01*
D13*
X25100000Y15740000D02*
X25100000Y23740000D01*
X30150000Y15740000D02*
X30150000Y23690000D01*
D11*
X76135715Y38162857D02*
X76135715Y39062857D01*
X76135715Y38634286D02*
X76650000Y38634286D01*
X76650000Y38162857D02*
X76650000Y39062857D01*
X76950000Y39062857D02*
X77464286Y39062857D01*
X77207143Y38162857D02*
X77207143Y39062857D01*
X77721429Y38205714D02*
X77850000Y38162857D01*
X78064286Y38162857D01*
X78150000Y38205714D01*
X78192857Y38248571D01*
X78235714Y38334286D01*
X78235714Y38420000D01*
X78192857Y38505714D01*
X78150000Y38548571D01*
X78064286Y38591429D01*
X77892857Y38634286D01*
X77807143Y38677143D01*
X77764286Y38720000D01*
X77721429Y38805714D01*
X77721429Y38891429D01*
X77764286Y38977143D01*
X77807143Y39020000D01*
X77892857Y39062857D01*
X78107143Y39062857D01*
X78235714Y39020000D01*
X78578572Y38977143D02*
X78621429Y39020000D01*
X78707143Y39062857D01*
X78921429Y39062857D01*
X79007143Y39020000D01*
X79050000Y38977143D01*
X79092857Y38891429D01*
X79092857Y38805714D01*
X79050000Y38677143D01*
X78535714Y38162857D01*
X79092857Y38162857D01*
X79435715Y38977143D02*
X79478572Y39020000D01*
X79564286Y39062857D01*
X79778572Y39062857D01*
X79864286Y39020000D01*
X79907143Y38977143D01*
X79950000Y38891429D01*
X79950000Y38805714D01*
X79907143Y38677143D01*
X79392857Y38162857D01*
X79950000Y38162857D01*
X80807143Y38162857D02*
X80292858Y38162857D01*
X80550000Y38162857D02*
X80550000Y39062857D01*
X80464286Y38934286D01*
X80378572Y38848571D01*
X80292858Y38805714D01*
X77171429Y33852857D02*
X76742858Y33852857D01*
X76742858Y34752857D01*
X77471429Y33852857D02*
X77471429Y34752857D01*
X77814286Y34752857D01*
X77900000Y34710000D01*
X77942857Y34667143D01*
X77985714Y34581429D01*
X77985714Y34452857D01*
X77942857Y34367143D01*
X77900000Y34324286D01*
X77814286Y34281429D01*
X77471429Y34281429D01*
X78328572Y33895714D02*
X78457143Y33852857D01*
X78671429Y33852857D01*
X78757143Y33895714D01*
X78800000Y33938571D01*
X78842857Y34024286D01*
X78842857Y34110000D01*
X78800000Y34195714D01*
X78757143Y34238571D01*
X78671429Y34281429D01*
X78500000Y34324286D01*
X78414286Y34367143D01*
X78371429Y34410000D01*
X78328572Y34495714D01*
X78328572Y34581429D01*
X78371429Y34667143D01*
X78414286Y34710000D01*
X78500000Y34752857D01*
X78714286Y34752857D01*
X78842857Y34710000D01*
X79185715Y34667143D02*
X79228572Y34710000D01*
X79314286Y34752857D01*
X79528572Y34752857D01*
X79614286Y34710000D01*
X79657143Y34667143D01*
X79700000Y34581429D01*
X79700000Y34495714D01*
X79657143Y34367143D01*
X79142857Y33852857D01*
X79700000Y33852857D01*
X80042858Y34667143D02*
X80085715Y34710000D01*
X80171429Y34752857D01*
X80385715Y34752857D01*
X80471429Y34710000D01*
X80514286Y34667143D01*
X80557143Y34581429D01*
X80557143Y34495714D01*
X80514286Y34367143D01*
X80000000Y33852857D01*
X80557143Y33852857D01*
X80942858Y33852857D02*
X80942858Y34752857D01*
X80942858Y34324286D02*
X81457143Y34324286D01*
X81457143Y33852857D02*
X81457143Y34752857D01*
X82185715Y34324286D02*
X82314286Y34281429D01*
X82357143Y34238571D01*
X82400000Y34152857D01*
X82400000Y34024286D01*
X82357143Y33938571D01*
X82314286Y33895714D01*
X82228572Y33852857D01*
X81885715Y33852857D01*
X81885715Y34752857D01*
X82185715Y34752857D01*
X82271429Y34710000D01*
X82314286Y34667143D01*
X82357143Y34581429D01*
X82357143Y34495714D01*
X82314286Y34410000D01*
X82271429Y34367143D01*
X82185715Y34324286D01*
X81885715Y34324286D01*
X76987142Y48702857D02*
X77544285Y48702857D01*
X77244285Y48360000D01*
X77372857Y48360000D01*
X77458571Y48317143D01*
X77501428Y48274286D01*
X77544285Y48188571D01*
X77544285Y47974286D01*
X77501428Y47888571D01*
X77458571Y47845714D01*
X77372857Y47802857D01*
X77115714Y47802857D01*
X77030000Y47845714D01*
X76987142Y47888571D01*
X78101428Y48702857D02*
X78187143Y48702857D01*
X78272857Y48660000D01*
X78315714Y48617143D01*
X78358571Y48531429D01*
X78401428Y48360000D01*
X78401428Y48145714D01*
X78358571Y47974286D01*
X78315714Y47888571D01*
X78272857Y47845714D01*
X78187143Y47802857D01*
X78101428Y47802857D01*
X78015714Y47845714D01*
X77972857Y47888571D01*
X77930000Y47974286D01*
X77887143Y48145714D01*
X77887143Y48360000D01*
X77930000Y48531429D01*
X77972857Y48617143D01*
X78015714Y48660000D01*
X78101428Y48702857D01*
X78701428Y48702857D02*
X79258571Y48702857D01*
X78958571Y48360000D01*
X79087143Y48360000D01*
X79172857Y48317143D01*
X79215714Y48274286D01*
X79258571Y48188571D01*
X79258571Y47974286D01*
X79215714Y47888571D01*
X79172857Y47845714D01*
X79087143Y47802857D01*
X78830000Y47802857D01*
X78744286Y47845714D01*
X78701428Y47888571D01*
X79601429Y48060000D02*
X80030000Y48060000D01*
X79515714Y47802857D02*
X79815714Y48702857D01*
X80115714Y47802857D01*
X80887143Y48660000D02*
X80801429Y48702857D01*
X80672858Y48702857D01*
X80544286Y48660000D01*
X80458572Y48574286D01*
X80415715Y48488571D01*
X80372858Y48317143D01*
X80372858Y48188571D01*
X80415715Y48017143D01*
X80458572Y47931429D01*
X80544286Y47845714D01*
X80672858Y47802857D01*
X80758572Y47802857D01*
X80887143Y47845714D01*
X80930000Y47888571D01*
X80930000Y48188571D01*
X80758572Y48188571D01*
X81830000Y47802857D02*
X81530000Y48231429D01*
X81315715Y47802857D02*
X81315715Y48702857D01*
X81658572Y48702857D01*
X81744286Y48660000D01*
X81787143Y48617143D01*
X81830000Y48531429D01*
X81830000Y48402857D01*
X81787143Y48317143D01*
X81744286Y48274286D01*
X81658572Y48231429D01*
X81315715Y48231429D01*
X78348572Y42762857D02*
X78177143Y42762857D01*
X78091429Y42720000D01*
X78048572Y42677143D01*
X77962858Y42548571D01*
X77920001Y42377143D01*
X77920001Y42034286D01*
X77962858Y41948571D01*
X78005715Y41905714D01*
X78091429Y41862857D01*
X78262858Y41862857D01*
X78348572Y41905714D01*
X78391429Y41948571D01*
X78434286Y42034286D01*
X78434286Y42248571D01*
X78391429Y42334286D01*
X78348572Y42377143D01*
X78262858Y42420000D01*
X78091429Y42420000D01*
X78005715Y42377143D01*
X77962858Y42334286D01*
X77920001Y42248571D01*
X78820001Y41862857D02*
X78820001Y42762857D01*
X79034286Y42762857D01*
X79162858Y42720000D01*
X79248572Y42634286D01*
X79291429Y42548571D01*
X79334286Y42377143D01*
X79334286Y42248571D01*
X79291429Y42077143D01*
X79248572Y41991429D01*
X79162858Y41905714D01*
X79034286Y41862857D01*
X78820001Y41862857D01*
X79677144Y41905714D02*
X79805715Y41862857D01*
X80020001Y41862857D01*
X80105715Y41905714D01*
X80148572Y41948571D01*
X80191429Y42034286D01*
X80191429Y42120000D01*
X80148572Y42205714D01*
X80105715Y42248571D01*
X80020001Y42291429D01*
X79848572Y42334286D01*
X79762858Y42377143D01*
X79720001Y42420000D01*
X79677144Y42505714D01*
X79677144Y42591429D01*
X79720001Y42677143D01*
X79762858Y42720000D01*
X79848572Y42762857D01*
X80062858Y42762857D01*
X80191429Y42720000D01*
X81005715Y41862857D02*
X80577144Y41862857D01*
X80577144Y42762857D01*
X37257143Y28790000D02*
X38157143Y29390000D01*
X37257143Y29390000D02*
X38157143Y28790000D01*
X38157143Y31893571D02*
X37728571Y31593571D01*
X38157143Y31379286D02*
X37257143Y31379286D01*
X37257143Y31722143D01*
X37300000Y31807857D01*
X37342857Y31850714D01*
X37428571Y31893571D01*
X37557143Y31893571D01*
X37642857Y31850714D01*
X37685714Y31807857D01*
X37728571Y31722143D01*
X37728571Y31379286D01*
X38157143Y33668572D02*
X37257143Y33668572D01*
X37257143Y34268571D02*
X37257143Y34440000D01*
X37300000Y34525714D01*
X37385714Y34611428D01*
X37557143Y34654286D01*
X37857143Y34654286D01*
X38028571Y34611428D01*
X38114286Y34525714D01*
X38157143Y34440000D01*
X38157143Y34268571D01*
X38114286Y34182857D01*
X38028571Y34097143D01*
X37857143Y34054286D01*
X37557143Y34054286D01*
X37385714Y34097143D01*
X37300000Y34182857D01*
X37257143Y34268571D01*
X37300000Y36975714D02*
X37257143Y36890000D01*
X37257143Y36761429D01*
X37300000Y36632857D01*
X37385714Y36547143D01*
X37471429Y36504286D01*
X37642857Y36461429D01*
X37771429Y36461429D01*
X37942857Y36504286D01*
X38028571Y36547143D01*
X38114286Y36632857D01*
X38157143Y36761429D01*
X38157143Y36847143D01*
X38114286Y36975714D01*
X38071429Y37018571D01*
X37771429Y37018571D01*
X37771429Y36847143D01*
X38071429Y39204286D02*
X38114286Y39161429D01*
X38157143Y39032858D01*
X38157143Y38947144D01*
X38114286Y38818572D01*
X38028571Y38732858D01*
X37942857Y38690001D01*
X37771429Y38647144D01*
X37642857Y38647144D01*
X37471429Y38690001D01*
X37385714Y38732858D01*
X37300000Y38818572D01*
X37257143Y38947144D01*
X37257143Y39032858D01*
X37300000Y39161429D01*
X37342857Y39204286D01*
X38157143Y40018572D02*
X38157143Y39590001D01*
X37257143Y39590001D01*
X37257143Y40725714D02*
X37257143Y41282857D01*
X37600000Y40982857D01*
X37600000Y41111429D01*
X37642857Y41197143D01*
X37685714Y41240000D01*
X37771429Y41282857D01*
X37985714Y41282857D01*
X38071429Y41240000D01*
X38114286Y41197143D01*
X38157143Y41111429D01*
X38157143Y40854286D01*
X38114286Y40768572D01*
X38071429Y40725714D01*
X37257143Y41540000D02*
X38157143Y41840000D01*
X37257143Y42140000D01*
X37257143Y42354286D02*
X37257143Y42911429D01*
X37600000Y42611429D01*
X37600000Y42740001D01*
X37642857Y42825715D01*
X37685714Y42868572D01*
X37771429Y42911429D01*
X37985714Y42911429D01*
X38071429Y42868572D01*
X38114286Y42825715D01*
X38157143Y42740001D01*
X38157143Y42482858D01*
X38114286Y42397144D01*
X38071429Y42354286D01*
D13*
X98300000Y2990000D02*
G75*
G03X98300000Y2990000I-1500000J0D01*
G01*
X98300000Y66990000D02*
G75*
G03X98300000Y66990000I-1500000J0D01*
G01*
X4300000Y66990000D02*
G75*
G03X4300000Y66990000I-1500000J0D01*
G01*
X4300000Y2990000D02*
G75*
G03X4300000Y2990000I-1500000J0D01*
G01*
D14*
X96190000Y45420000D02*
X94640000Y45420000D01*
X90860000Y45420000D02*
X92410000Y45420000D01*
X91620000Y50760000D02*
X92410000Y50760000D01*
X95430000Y50760000D02*
X94640000Y50760000D01*
X96190000Y45420000D02*
X96190000Y50000000D01*
X96190000Y50000000D02*
X95430000Y50760000D01*
X91620000Y50760000D02*
X90860000Y50000000D01*
X90860000Y50000000D02*
X90860000Y45420000D01*
X84930000Y46680000D02*
X84930000Y47680000D01*
X83230000Y47680000D02*
X83230000Y46680000D01*
X90830000Y47660000D02*
X90830000Y48660000D01*
X89130000Y48660000D02*
X89130000Y47660000D01*
X53300000Y31390000D02*
X53300000Y43990000D01*
X53300000Y43990000D02*
X48200000Y43990000D01*
X48200000Y43990000D02*
X48200000Y31390000D01*
X59510000Y20940000D02*
X62170000Y20940000D01*
X59510000Y21000000D02*
X59510000Y20940000D01*
X62170000Y21000000D02*
X62170000Y20940000D01*
X59510000Y21000000D02*
X62170000Y21000000D01*
X59510000Y22270000D02*
X59510000Y23600000D01*
X59510000Y23600000D02*
X60840000Y23600000D01*
X23130000Y53910000D02*
X23130000Y54310000D01*
X14330000Y53910000D02*
X23130000Y53910000D01*
X12630000Y53910000D02*
X12730000Y53910000D01*
X9430000Y53910000D02*
X12630000Y53910000D01*
X9430000Y54310000D02*
X9430000Y53910000D01*
X9430000Y60910000D02*
X8730000Y60910000D01*
X9430000Y61010000D02*
X9430000Y60910000D01*
X23130000Y65610000D02*
X23130000Y60910000D01*
X9430000Y65610000D02*
X23130000Y65610000D01*
X9430000Y61010000D02*
X9430000Y65610000D01*
X47990000Y17820000D02*
X47990000Y16820000D01*
X49690000Y16820000D02*
X49690000Y17820000D01*
X34910000Y1570000D02*
X33360000Y1570000D01*
X29580000Y1570000D02*
X31130000Y1570000D01*
X30340000Y6910000D02*
X31130000Y6910000D01*
X34150000Y6910000D02*
X33360000Y6910000D01*
X34910000Y1570000D02*
X34910000Y6150000D01*
X34910000Y6150000D02*
X34150000Y6910000D01*
X30340000Y6910000D02*
X29580000Y6150000D01*
X29580000Y6150000D02*
X29580000Y1570000D01*
X59700000Y29090000D02*
X58700000Y29090000D01*
X58700000Y27390000D02*
X59700000Y27390000D01*
X48050000Y39790000D02*
X48050000Y40790000D01*
X46350000Y40790000D02*
X46350000Y39790000D01*
X46350000Y34790000D02*
X46350000Y33790000D01*
X48050000Y33790000D02*
X48050000Y34790000D01*
X32040000Y14010000D02*
X32040000Y13010000D01*
X33740000Y13010000D02*
X33740000Y14010000D01*
X26190000Y10000000D02*
X25190000Y10000000D01*
X25190000Y8300000D02*
X26190000Y8300000D01*
X66200000Y29100000D02*
X65200000Y29100000D01*
X65200000Y27400000D02*
X66200000Y27400000D01*
X18600000Y13190000D02*
X17600000Y13190000D01*
X17600000Y11490000D02*
X18600000Y11490000D01*
X55300000Y33190000D02*
X55300000Y34190000D01*
X53600000Y34190000D02*
X53600000Y33190000D01*
X65800000Y3040000D02*
X65800000Y4040000D01*
X64100000Y4040000D02*
X64100000Y3040000D01*
X58200000Y42890000D02*
X59200000Y42890000D01*
X59200000Y44590000D02*
X58200000Y44590000D01*
X16010000Y19860000D02*
X17560000Y19860000D01*
X21340000Y19860000D02*
X19790000Y19860000D01*
X20580000Y14520000D02*
X19790000Y14520000D01*
X16770000Y14520000D02*
X17560000Y14520000D01*
X16010000Y19860000D02*
X16010000Y15280000D01*
X16010000Y15280000D02*
X16770000Y14520000D01*
X20580000Y14520000D02*
X21340000Y15280000D01*
X21340000Y15280000D02*
X21340000Y19860000D01*
X68750000Y39790000D02*
X68750000Y38790000D01*
X70450000Y38790000D02*
X70450000Y39790000D01*
X65800000Y10740000D02*
X65800000Y11740000D01*
X64100000Y11740000D02*
X64100000Y10740000D01*
X8390000Y14520000D02*
X6840000Y14520000D01*
X3060000Y14520000D02*
X4610000Y14520000D01*
X3820000Y19860000D02*
X4610000Y19860000D01*
X7630000Y19860000D02*
X6840000Y19860000D01*
X8390000Y14520000D02*
X8390000Y19100000D01*
X8390000Y19100000D02*
X7630000Y19860000D01*
X3820000Y19860000D02*
X3060000Y19100000D01*
X3060000Y19100000D02*
X3060000Y14520000D01*
X5750000Y11390000D02*
X6750000Y11390000D01*
X6750000Y13090000D02*
X5750000Y13090000D01*
X93690000Y39550000D02*
X94690000Y39550000D01*
X94690000Y41250000D02*
X93690000Y41250000D01*
X11040000Y53910000D02*
X10040000Y53910000D01*
X10040000Y52210000D02*
X11040000Y52210000D01*
X93690000Y35650000D02*
X94690000Y35650000D01*
X94690000Y37350000D02*
X93690000Y37350000D01*
X39120000Y62900000D02*
X39120000Y63900000D01*
X37420000Y63900000D02*
X37420000Y62900000D01*
X8160000Y29410000D02*
X7160000Y29410000D01*
X7160000Y27710000D02*
X8160000Y27710000D01*
X87710000Y45270000D02*
X86710000Y45270000D01*
X86710000Y43570000D02*
X87710000Y43570000D01*
X85570000Y37420000D02*
X84570000Y37420000D01*
X84570000Y35720000D02*
X85570000Y35720000D01*
X42200000Y39690000D02*
X42200000Y38690000D01*
X43900000Y38690000D02*
X43900000Y39690000D01*
X27950000Y590000D02*
X27950000Y2290000D01*
X27950000Y2290000D02*
X25400000Y2290000D01*
X27950000Y590000D02*
X25400000Y590000D01*
X5260000Y5080000D02*
X6280000Y6090000D01*
X2210000Y9900000D02*
X2210000Y10160000D01*
X2210000Y9900000D02*
X1960000Y9900000D01*
X1830000Y9270000D02*
X1830000Y9520000D01*
X1830000Y9270000D02*
X1580000Y9270000D01*
X1070000Y10030000D02*
X1830000Y9270000D01*
X1450000Y10670000D02*
X2210000Y9900000D01*
X6280000Y5460000D02*
X6280000Y10540000D01*
X6207295Y10582400D02*
G75*
G03X6280000Y5460000I-1457295J-2582400D01*
G01*
X36630000Y12980000D02*
X36630000Y10980000D01*
X34490000Y10980000D02*
X34490000Y12980000D01*
D11*
X63920000Y4790000D02*
G75*
G03X63920000Y4790000I-3810000J0D01*
G01*
X63910000Y12490000D02*
G75*
G03X63910000Y12490000I-3810000J0D01*
G01*
D14*
X6750000Y10990000D02*
X6750000Y-1610000D01*
X6750000Y-1610000D02*
X17100000Y-1610000D01*
X17100000Y-1610000D02*
X17100000Y-660000D01*
X17100000Y-660000D02*
X17600000Y-910000D01*
X17600000Y-910000D02*
X17600000Y990000D01*
X17600000Y990000D02*
X17600000Y1040000D01*
X17600000Y1040000D02*
X17100000Y790000D01*
X17100000Y790000D02*
X17100000Y6190000D01*
X17100000Y6190000D02*
X17600000Y5890000D01*
X17600000Y5890000D02*
X17600000Y10990000D01*
X17600000Y10990000D02*
X6750000Y10990000D01*
X38995000Y27780000D02*
X41655000Y27780000D01*
X38995000Y40540000D02*
X38995000Y27780000D01*
X41655000Y40540000D02*
X41655000Y27780000D01*
X38995000Y40540000D02*
X41655000Y40540000D01*
X38995000Y41810000D02*
X38995000Y43140000D01*
X38995000Y43140000D02*
X40325000Y43140000D01*
X47520000Y20000000D02*
X47520000Y22660000D01*
X44920000Y20000000D02*
X47520000Y20000000D01*
X44920000Y22660000D02*
X47520000Y22660000D01*
X44920000Y20000000D02*
X44920000Y22660000D01*
X43650000Y20000000D02*
X42320000Y20000000D01*
X42320000Y20000000D02*
X42320000Y21330000D01*
X68110000Y62400000D02*
X68110000Y59740000D01*
X70710000Y62400000D02*
X68110000Y62400000D01*
X70710000Y59740000D02*
X68110000Y59740000D01*
X70710000Y62400000D02*
X70710000Y59740000D01*
X71980000Y62400000D02*
X73310000Y62400000D01*
X73310000Y62400000D02*
X73310000Y61070000D01*
X86630000Y54630000D02*
X86630000Y51970000D01*
X89230000Y54630000D02*
X86630000Y54630000D01*
X89230000Y51970000D02*
X86630000Y51970000D01*
X89230000Y54630000D02*
X89230000Y51970000D01*
X90500000Y54630000D02*
X91830000Y54630000D01*
X91830000Y54630000D02*
X91830000Y53300000D01*
X9120000Y52190000D02*
X9120000Y49530000D01*
X21880000Y52190000D02*
X9120000Y52190000D01*
X21880000Y49530000D02*
X9120000Y49530000D01*
X21880000Y52190000D02*
X21880000Y49530000D01*
X23150000Y52190000D02*
X24480000Y52190000D01*
X24480000Y52190000D02*
X24480000Y50860000D01*
X17830000Y23010000D02*
X17830000Y25670000D01*
X12690000Y23010000D02*
X17830000Y23010000D01*
X12690000Y25670000D02*
X17830000Y25670000D01*
X12690000Y23010000D02*
X12690000Y25670000D01*
X11420000Y23010000D02*
X10090000Y23010000D01*
X10090000Y23010000D02*
X10090000Y24340000D01*
X65260000Y59720000D02*
X67920000Y59720000D01*
X65260000Y59780000D02*
X65260000Y59720000D01*
X67920000Y59780000D02*
X67920000Y59720000D01*
X65260000Y59780000D02*
X67920000Y59780000D01*
X65260000Y61050000D02*
X65260000Y62380000D01*
X65260000Y62380000D02*
X66590000Y62380000D01*
X62230000Y20940000D02*
X64890000Y20940000D01*
X62230000Y21000000D02*
X62230000Y20940000D01*
X64890000Y21000000D02*
X64890000Y20940000D01*
X62230000Y21000000D02*
X64890000Y21000000D01*
X62230000Y22270000D02*
X62230000Y23600000D01*
X62230000Y23600000D02*
X63560000Y23600000D01*
X70630000Y9400000D02*
X67970000Y9400000D01*
X70630000Y4260000D02*
X70630000Y9400000D01*
X67970000Y4260000D02*
X67970000Y9400000D01*
X70630000Y4260000D02*
X67970000Y4260000D01*
X70630000Y2990000D02*
X70630000Y1660000D01*
X70630000Y1660000D02*
X69300000Y1660000D01*
X19790000Y3795000D02*
X19790000Y2865000D01*
X19790000Y635000D02*
X19790000Y1565000D01*
X19790000Y635000D02*
X22950000Y635000D01*
X19790000Y3795000D02*
X21250000Y3795000D01*
X19790000Y7395000D02*
X19790000Y6465000D01*
X19790000Y4235000D02*
X19790000Y5165000D01*
X19790000Y4235000D02*
X22950000Y4235000D01*
X19790000Y7395000D02*
X21250000Y7395000D01*
X19790000Y10995000D02*
X19790000Y10065000D01*
X19790000Y7835000D02*
X19790000Y8765000D01*
X19790000Y7835000D02*
X22950000Y7835000D01*
X19790000Y10995000D02*
X21250000Y10995000D01*
X23630000Y38070000D02*
X24830000Y38070000D01*
X24830000Y36310000D02*
X23630000Y36310000D01*
X63230000Y45740000D02*
X63230000Y44540000D01*
X61470000Y44540000D02*
X61470000Y45740000D01*
X26300000Y2510000D02*
X25100000Y2510000D01*
X25100000Y4270000D02*
X26300000Y4270000D01*
X26300000Y4410000D02*
X25100000Y4410000D01*
X25100000Y6170000D02*
X26300000Y6170000D01*
X25100000Y8070000D02*
X26300000Y8070000D01*
X26300000Y6310000D02*
X25100000Y6310000D01*
X12100000Y46280000D02*
X12100000Y47480000D01*
X13860000Y47480000D02*
X13860000Y46280000D01*
X37420000Y57630000D02*
X37420000Y58830000D01*
X39180000Y58830000D02*
X39180000Y57630000D01*
X22270000Y46290000D02*
X22270000Y47490000D01*
X24030000Y47490000D02*
X24030000Y46290000D01*
X11330000Y46120000D02*
X11330000Y44920000D01*
X9570000Y44920000D02*
X9570000Y46120000D01*
X91260000Y14250000D02*
X91260000Y13050000D01*
X89500000Y13050000D02*
X89500000Y14250000D01*
X60850000Y66920000D02*
X62050000Y66920000D01*
X62050000Y65160000D02*
X60850000Y65160000D01*
X60850000Y68770000D02*
X62050000Y68770000D01*
X62050000Y67010000D02*
X60850000Y67010000D01*
X74670000Y16020000D02*
X74670000Y17220000D01*
X76430000Y17220000D02*
X76430000Y16020000D01*
X13610000Y36280000D02*
X12410000Y36280000D01*
X12410000Y38040000D02*
X13610000Y38040000D01*
X64660000Y62170000D02*
X64660000Y60970000D01*
X62900000Y60970000D02*
X62900000Y62170000D01*
X12410000Y29490000D02*
X13610000Y29490000D01*
X13610000Y27730000D02*
X12410000Y27730000D01*
X58250000Y18900000D02*
X61970000Y18900000D01*
X58250000Y17180000D02*
X61970000Y17180000D01*
D11*
X57025000Y40965000D02*
X57025000Y39965000D01*
X67375000Y40965000D02*
X67375000Y39890000D01*
X67375000Y30615000D02*
X67375000Y31690000D01*
X57025000Y30615000D02*
X57025000Y31690000D01*
X57025000Y40965000D02*
X58100000Y40965000D01*
X57025000Y30615000D02*
X58100000Y30615000D01*
X67375000Y30615000D02*
X66300000Y30615000D01*
X67375000Y40965000D02*
X66300000Y40965000D01*
X57025000Y39965000D02*
X56000000Y39965000D01*
X47345000Y17805000D02*
X46770000Y17805000D01*
X47345000Y12055000D02*
X46695000Y12055000D01*
X36695000Y12055000D02*
X37345000Y12055000D01*
X36695000Y17805000D02*
X37345000Y17805000D01*
X47345000Y17805000D02*
X47345000Y12055000D01*
X36695000Y17805000D02*
X36695000Y12055000D01*
X46770000Y17805000D02*
X46770000Y19405000D01*
D14*
X7180000Y29630000D02*
X7180000Y29660000D01*
X7180000Y36090000D02*
X7180000Y36060000D01*
X13640000Y36090000D02*
X13640000Y36060000D01*
X13640000Y29660000D02*
X13640000Y29630000D01*
X7180000Y31560000D02*
X7180000Y34160000D01*
X13640000Y29630000D02*
X7180000Y29630000D01*
X13640000Y31560000D02*
X13640000Y34160000D01*
X13640000Y36090000D02*
X7180000Y36090000D01*
D11*
X79080000Y66070000D02*
X91780000Y66070000D01*
X91780000Y66070000D02*
X91780000Y68610000D01*
X91780000Y68610000D02*
X79080000Y68610000D01*
X76260000Y65790000D02*
X77810000Y65790000D01*
X79080000Y66070000D02*
X79080000Y68610000D01*
X77810000Y68890000D02*
X76260000Y68890000D01*
X76260000Y68890000D02*
X76260000Y65790000D01*
D14*
X94304824Y11184842D02*
G75*
G02X91995000Y11205000I-1154824J20158D01*
G01*
X91996043Y11184226D02*
G75*
G02X93310000Y12348000I1153957J20774D01*
G01*
X91750000Y9815000D02*
X96820000Y9815000D01*
X96820000Y9815000D02*
X96820000Y10805000D01*
X96820000Y10805000D02*
X96440000Y10805000D01*
X96440000Y10805000D02*
X96440000Y18595000D01*
X96440000Y18595000D02*
X96820000Y18595000D01*
X96820000Y18595000D02*
X96820000Y19585000D01*
X96820000Y19585000D02*
X91750000Y19585000D01*
X91750000Y19585000D02*
X91750000Y9815000D01*
X93884000Y10329000D02*
X92274000Y11940000D01*
X94025000Y10469000D02*
X93333000Y11162000D01*
X93292000Y11202000D02*
X92415000Y12081000D01*
X93510000Y9575000D02*
X91510000Y9575000D01*
X91510000Y9575000D02*
X91510000Y11575000D01*
X72264824Y11164842D02*
G75*
G02X69955000Y11185000I-1154824J20158D01*
G01*
X69956043Y11164226D02*
G75*
G02X71270000Y12328000I1153957J20774D01*
G01*
X69710000Y9795000D02*
X74780000Y9795000D01*
X74780000Y9795000D02*
X74780000Y10785000D01*
X74780000Y10785000D02*
X74400000Y10785000D01*
X74400000Y10785000D02*
X74400000Y18575000D01*
X74400000Y18575000D02*
X74780000Y18575000D01*
X74780000Y18575000D02*
X74780000Y19565000D01*
X74780000Y19565000D02*
X69710000Y19565000D01*
X69710000Y19565000D02*
X69710000Y9795000D01*
X71844000Y10309000D02*
X70234000Y11920000D01*
X71985000Y10449000D02*
X71293000Y11142000D01*
X71252000Y11182000D02*
X70375000Y12061000D01*
X71470000Y9555000D02*
X69470000Y9555000D01*
X69470000Y9555000D02*
X69470000Y11555000D01*
X93800000Y6910000D02*
X93800000Y9570000D01*
X86120000Y6910000D02*
X93800000Y6910000D01*
X86120000Y9570000D02*
X93800000Y9570000D01*
X86120000Y6910000D02*
X86120000Y9570000D01*
X84850000Y6910000D02*
X83520000Y6910000D01*
X83520000Y6910000D02*
X83520000Y8240000D01*
X82680000Y6910000D02*
X82680000Y9570000D01*
X75000000Y6910000D02*
X82680000Y6910000D01*
X75000000Y9570000D02*
X82680000Y9570000D01*
X75000000Y6910000D02*
X75000000Y9570000D01*
X73730000Y6910000D02*
X72400000Y6910000D01*
X72400000Y6910000D02*
X72400000Y8240000D01*
X15610000Y18650000D02*
X14350000Y18650000D01*
X8790000Y18650000D02*
X10050000Y18650000D01*
X15610000Y14890000D02*
X15610000Y18650000D01*
X8790000Y12640000D02*
X8790000Y18650000D01*
X49660000Y12080000D02*
X49660000Y13080000D01*
X47960000Y13080000D02*
X47960000Y12080000D01*
X31520000Y16210000D02*
X31520000Y18870000D01*
X26380000Y16210000D02*
X31520000Y16210000D01*
X26380000Y18870000D02*
X31520000Y18870000D01*
X26380000Y16210000D02*
X26380000Y18870000D01*
X25110000Y16210000D02*
X23780000Y16210000D01*
X23780000Y16210000D02*
X23780000Y17540000D01*
X31510000Y20610000D02*
X31510000Y23270000D01*
X26370000Y20610000D02*
X31510000Y20610000D01*
X26370000Y23270000D02*
X31510000Y23270000D01*
X26370000Y20610000D02*
X26370000Y23270000D01*
X25100000Y20610000D02*
X23770000Y20610000D01*
X23770000Y20610000D02*
X23770000Y21940000D01*
X6280000Y3040000D02*
X6280000Y1840000D01*
X4520000Y1840000D02*
X4520000Y3040000D01*
X63420000Y44540000D02*
X63420000Y45740000D01*
X65180000Y45740000D02*
X65180000Y44540000D01*
X65320000Y44540000D02*
X65320000Y45740000D01*
X67080000Y45740000D02*
X67080000Y44540000D01*
X51350000Y30340000D02*
X51960000Y29730000D01*
X48790000Y30340000D02*
X48790000Y29730000D01*
X51330000Y26900000D02*
X51930000Y27490000D01*
X48790000Y26900000D02*
X48790000Y27490000D01*
X51350000Y30340000D02*
X48810000Y30340000D01*
X48790000Y26900000D02*
X51330000Y26900000D01*
X66740000Y23360000D02*
X66130000Y23970000D01*
X69300000Y23360000D02*
X69300000Y23970000D01*
X66760000Y26800000D02*
X66160000Y26210000D01*
X69300000Y26800000D02*
X69300000Y26210000D01*
X66740000Y23360000D02*
X69280000Y23360000D01*
X69300000Y26800000D02*
X66760000Y26800000D01*
X57670000Y44760000D02*
X57060000Y45370000D01*
X60230000Y44760000D02*
X60230000Y45370000D01*
X57690000Y48200000D02*
X57090000Y47610000D01*
X60230000Y48200000D02*
X60230000Y47610000D01*
X57670000Y44760000D02*
X60210000Y44760000D01*
X60230000Y48200000D02*
X57690000Y48200000D01*
X84180000Y37510000D02*
X83570000Y38120000D01*
X86740000Y37510000D02*
X86740000Y38120000D01*
X84200000Y40950000D02*
X83600000Y40360000D01*
X86740000Y40950000D02*
X86740000Y40360000D01*
X84180000Y37510000D02*
X86720000Y37510000D01*
X86740000Y40950000D02*
X84200000Y40950000D01*
D11*
X91875000Y215000D02*
X91875000Y15000D01*
X85375000Y215000D02*
X91875000Y215000D01*
X92375000Y15000D02*
X91875000Y15000D01*
X85375000Y15000D02*
X85375000Y215000D01*
X84875000Y15000D02*
X85375000Y15000D01*
X86375000Y4615000D02*
X86375000Y1015000D01*
X84875000Y4615000D02*
X92375000Y4615000D01*
X84875000Y15000D02*
X84875000Y6015000D01*
X92375000Y6015000D02*
X92375000Y15000D01*
X92325000Y6015000D02*
X92375000Y6015000D01*
X84875000Y6015000D02*
X92325000Y6015000D01*
X87875000Y4615000D02*
X87875000Y1015000D01*
X89375000Y4615000D02*
X89375000Y1015000D01*
X90875000Y4615000D02*
X90875000Y1015000D01*
X80825000Y215000D02*
X80825000Y15000D01*
X74325000Y215000D02*
X80825000Y215000D01*
X81325000Y15000D02*
X80825000Y15000D01*
X74325000Y15000D02*
X74325000Y215000D01*
X73825000Y15000D02*
X74325000Y15000D01*
X75325000Y4615000D02*
X75325000Y1015000D01*
X73825000Y4615000D02*
X81325000Y4615000D01*
X73825000Y15000D02*
X73825000Y6015000D01*
X81325000Y6015000D02*
X81325000Y15000D01*
X81275000Y6015000D02*
X81325000Y6015000D01*
X73825000Y6015000D02*
X81275000Y6015000D01*
X76825000Y4615000D02*
X76825000Y1015000D01*
X78325000Y4615000D02*
X78325000Y1015000D01*
X79825000Y4615000D02*
X79825000Y1015000D01*
D14*
X60800000Y59060000D02*
X60800000Y57860000D01*
X59040000Y57860000D02*
X59040000Y59060000D01*
X62610000Y59040000D02*
X62610000Y57840000D01*
X60850000Y57840000D02*
X60850000Y59040000D01*
X24630000Y29440000D02*
X23630000Y29440000D01*
X23630000Y27740000D02*
X24630000Y27740000D01*
X28880000Y29520000D02*
X30080000Y29520000D01*
X30080000Y27760000D02*
X28880000Y27760000D01*
D10*
X93240000Y37450000D02*
X95240000Y37450000D01*
X93240000Y37450000D02*
X93240000Y39450000D01*
X95240000Y39450000D02*
X93240000Y39450000D01*
X95240000Y39450000D02*
X95240000Y37450000D01*
D14*
X88580000Y47090000D02*
X88080000Y47090000D01*
X88080000Y47090000D02*
X88080000Y47090000D01*
X86880000Y47090000D02*
X86380000Y47090000D01*
X86380000Y47090000D02*
X86380000Y47590000D01*
X86380000Y47590000D02*
X86380000Y47590000D01*
X86380000Y48790000D02*
X86380000Y49290000D01*
X86380000Y49290000D02*
X86880000Y49290000D01*
X86880000Y49290000D02*
X86880000Y49290000D01*
X88580000Y48790000D02*
X88580000Y49290000D01*
X88580000Y49290000D02*
X88580000Y49290000D01*
X88580000Y47590000D02*
X88580000Y47090000D01*
D11*
X90144536Y42280000D02*
G75*
G03X90144536Y42280000I-134536J0D01*
G01*
X88510000Y41030000D02*
X88510000Y43530000D01*
X91510000Y41030000D02*
X91510000Y43530000D01*
X90010000Y43530000D02*
X88510000Y43530000D01*
X90010000Y41030000D02*
X88510000Y41030000D01*
X90010000Y41030000D02*
X91510000Y41030000D01*
X90010000Y43530000D02*
X91510000Y43530000D01*
X91634536Y41040000D02*
G75*
G03X91634536Y41040000I-134536J0D01*
G01*
D10*
X84660000Y34680000D02*
G75*
G03X84660000Y34680000I-150000J0D01*
G01*
D15*
X84110000Y35180000D02*
X84110000Y33180000D01*
X86110000Y35180000D02*
X84110000Y35180000D01*
X86110000Y33180000D02*
X86110000Y35180000D01*
X84110000Y33180000D02*
X86110000Y33180000D01*
D14*
X23630000Y29660000D02*
X23630000Y29690000D01*
X23630000Y36120000D02*
X23630000Y36090000D01*
X30090000Y36120000D02*
X30090000Y36090000D01*
X30090000Y29690000D02*
X30090000Y29660000D01*
X23630000Y31590000D02*
X23630000Y34190000D01*
X30090000Y29660000D02*
X23630000Y29660000D01*
X30090000Y31590000D02*
X30090000Y34190000D01*
X30090000Y36120000D02*
X23630000Y36120000D01*
X90220000Y32310000D02*
X84220000Y32310000D01*
X84220000Y32310000D02*
X84220000Y21950000D01*
X84220000Y21950000D02*
X90220000Y21950000D01*
X90220000Y21950000D02*
X90220000Y32310000D01*
X84220000Y30940000D02*
X85220000Y30940000D01*
X85220000Y30940000D02*
X85220000Y23320000D01*
X85220000Y23320000D02*
X84220000Y23320000D01*
X85220000Y30940000D02*
X85650000Y30690000D01*
X85650000Y30690000D02*
X85650000Y23570000D01*
X85650000Y23570000D02*
X85220000Y23320000D01*
X84220000Y30690000D02*
X85220000Y30690000D01*
X84220000Y23570000D02*
X85220000Y23570000D01*
X90220000Y31740000D02*
X89600000Y31740000D01*
X89600000Y31740000D02*
X89600000Y30140000D01*
X89600000Y30140000D02*
X90220000Y30140000D01*
X90220000Y29200000D02*
X89600000Y29200000D01*
X89600000Y29200000D02*
X89600000Y27600000D01*
X89600000Y27600000D02*
X90220000Y27600000D01*
X90220000Y26660000D02*
X89600000Y26660000D01*
X89600000Y26660000D02*
X89600000Y25060000D01*
X89600000Y25060000D02*
X90220000Y25060000D01*
X90220000Y24120000D02*
X89600000Y24120000D01*
X89600000Y24120000D02*
X89600000Y22520000D01*
X89600000Y22520000D02*
X90220000Y22520000D01*
X81130000Y24620000D02*
X80200000Y24620000D01*
X77970000Y24620000D02*
X78900000Y24620000D01*
X77970000Y24620000D02*
X77970000Y22460000D01*
X81130000Y24620000D02*
X81130000Y23160000D01*
X81130000Y27900000D02*
X80200000Y27900000D01*
X77970000Y27900000D02*
X78900000Y27900000D01*
X77970000Y27900000D02*
X77970000Y25740000D01*
X81130000Y27900000D02*
X81130000Y26440000D01*
X81440000Y30790000D02*
X80240000Y30790000D01*
X80240000Y32550000D02*
X81440000Y32550000D01*
X81440000Y29030000D02*
X80240000Y29030000D01*
X80240000Y30790000D02*
X81440000Y30790000D01*
X75970000Y24780000D02*
X75970000Y23580000D01*
X74210000Y23580000D02*
X74210000Y24780000D01*
X74210000Y28760000D02*
X74210000Y29960000D01*
X75970000Y29960000D02*
X75970000Y28760000D01*
X78300000Y56880000D02*
X78300000Y61230000D01*
X78300000Y61230000D02*
X89800000Y61230000D01*
X89800000Y61230000D02*
X89800000Y56880000D01*
X76840000Y63080000D02*
X76650000Y63080000D01*
X76650000Y63080000D02*
X76650000Y64680000D01*
X76650000Y64680000D02*
X75750000Y64680000D01*
X75750000Y64680000D02*
X75750000Y56880000D01*
X75750000Y56880000D02*
X92350075Y56880000D01*
X92350000Y56880000D02*
X92350000Y64680000D01*
X92350000Y64680000D02*
X91450000Y64680000D01*
X91450000Y64680000D02*
X91450000Y63080000D01*
X91450000Y63080000D02*
X91250000Y63080000D01*
X75750000Y63080000D02*
X76650000Y63080000D01*
X92350000Y63080000D02*
X91450000Y63080000D01*
X76500000Y60730000D02*
X76500000Y59130000D01*
X76500000Y59130000D02*
X77500000Y59130000D01*
X77500000Y59130000D02*
X77500000Y60730000D01*
X77500000Y60730000D02*
X76500000Y60730000D01*
X91600000Y60730000D02*
X91600000Y59130000D01*
X91600000Y59130000D02*
X90600000Y59130000D01*
X90600000Y59130000D02*
X90600000Y60730000D01*
X90600000Y60730000D02*
X91600000Y60730000D01*
X77500000Y59130000D02*
X77500000Y56880000D01*
X77000000Y59130000D02*
X77000000Y56880000D01*
X76840000Y63080000D02*
X76840000Y64260000D01*
X91100000Y59130000D02*
X91100000Y56880000D01*
X90600000Y59130000D02*
X90600000Y56880000D01*
D11*
X47467910Y58231585D02*
X51537910Y62621585D01*
X47467910Y62631585D02*
X51527910Y58251585D01*
X52507910Y60431585D02*
G75*
G03X52507910Y60431585I-3000000J0D01*
G01*
X41939210Y69680000D02*
G75*
G03X41939210Y69680000I-359210J0D01*
G01*
X41250000Y51540000D02*
X41250000Y69320000D01*
X41250000Y69320000D02*
X57760000Y69320000D01*
X57760000Y69320000D02*
X57760000Y51540000D01*
X57760000Y51540000D02*
X41250000Y51540000D01*
D14*
X37840000Y40000D02*
X45540000Y40000D01*
X37840000Y-960000D02*
X45540000Y-960000D01*
X45540000Y-960000D02*
X45540000Y8240000D01*
X45540000Y8240000D02*
X37840000Y8240000D01*
X37840000Y8240000D02*
X37840000Y-960000D01*
D11*
X83975000Y12915000D02*
X84025000Y12915000D01*
X83975000Y17065000D02*
X84120000Y17065000D01*
X89125000Y17065000D02*
X88980000Y17065000D01*
X89125000Y12915000D02*
X88980000Y12915000D01*
X83975000Y12915000D02*
X83975000Y17065000D01*
X89125000Y12915000D02*
X89125000Y17065000D01*
X84025000Y12915000D02*
X84025000Y11515000D01*
X77075000Y12915000D02*
X77125000Y12915000D01*
X77075000Y17065000D02*
X77220000Y17065000D01*
X82225000Y17065000D02*
X82080000Y17065000D01*
X82225000Y12915000D02*
X82080000Y12915000D01*
X77075000Y12915000D02*
X77075000Y17065000D01*
X82225000Y12915000D02*
X82225000Y17065000D01*
X77125000Y12915000D02*
X77125000Y11515000D01*
X94057143Y47682857D02*
X94009524Y47635238D01*
X93866667Y47587619D01*
X93771429Y47587619D01*
X93628571Y47635238D01*
X93533333Y47730476D01*
X93485714Y47825714D01*
X93438095Y48016190D01*
X93438095Y48159048D01*
X93485714Y48349524D01*
X93533333Y48444762D01*
X93628571Y48540000D01*
X93771429Y48587619D01*
X93866667Y48587619D01*
X94009524Y48540000D01*
X94057143Y48492381D01*
X94438095Y48492381D02*
X94485714Y48540000D01*
X94580952Y48587619D01*
X94819048Y48587619D01*
X94914286Y48540000D01*
X94961905Y48492381D01*
X95009524Y48397143D01*
X95009524Y48301905D01*
X94961905Y48159048D01*
X94390476Y47587619D01*
X95009524Y47587619D01*
X95342857Y48587619D02*
X96009524Y48587619D01*
X95580952Y47587619D01*
X92091429Y50999048D02*
X92091429Y51760953D01*
X92472381Y51380001D02*
X91710476Y51380001D01*
X82897143Y49462857D02*
X82849524Y49415238D01*
X82706667Y49367619D01*
X82611429Y49367619D01*
X82468571Y49415238D01*
X82373333Y49510476D01*
X82325714Y49605714D01*
X82278095Y49796190D01*
X82278095Y49939048D01*
X82325714Y50129524D01*
X82373333Y50224762D01*
X82468571Y50320000D01*
X82611429Y50367619D01*
X82706667Y50367619D01*
X82849524Y50320000D01*
X82897143Y50272381D01*
X83278095Y50272381D02*
X83325714Y50320000D01*
X83420952Y50367619D01*
X83659048Y50367619D01*
X83754286Y50320000D01*
X83801905Y50272381D01*
X83849524Y50177143D01*
X83849524Y50081905D01*
X83801905Y49939048D01*
X83230476Y49367619D01*
X83849524Y49367619D01*
X84706667Y50367619D02*
X84516190Y50367619D01*
X84420952Y50320000D01*
X84373333Y50272381D01*
X84278095Y50129524D01*
X84230476Y49939048D01*
X84230476Y49558095D01*
X84278095Y49462857D01*
X84325714Y49415238D01*
X84420952Y49367619D01*
X84611429Y49367619D01*
X84706667Y49415238D01*
X84754286Y49462857D01*
X84801905Y49558095D01*
X84801905Y49796190D01*
X84754286Y49891429D01*
X84706667Y49939048D01*
X84611429Y49986667D01*
X84420952Y49986667D01*
X84325714Y49939048D01*
X84278095Y49891429D01*
X84230476Y49796190D01*
X89327143Y50402857D02*
X89279524Y50355238D01*
X89136667Y50307619D01*
X89041429Y50307619D01*
X88898571Y50355238D01*
X88803333Y50450476D01*
X88755714Y50545714D01*
X88708095Y50736190D01*
X88708095Y50879048D01*
X88755714Y51069524D01*
X88803333Y51164762D01*
X88898571Y51260000D01*
X89041429Y51307619D01*
X89136667Y51307619D01*
X89279524Y51260000D01*
X89327143Y51212381D01*
X89708095Y51212381D02*
X89755714Y51260000D01*
X89850952Y51307619D01*
X90089048Y51307619D01*
X90184286Y51260000D01*
X90231905Y51212381D01*
X90279524Y51117143D01*
X90279524Y51021905D01*
X90231905Y50879048D01*
X89660476Y50307619D01*
X90279524Y50307619D01*
X90755714Y50307619D02*
X90946190Y50307619D01*
X91041429Y50355238D01*
X91089048Y50402857D01*
X91184286Y50545714D01*
X91231905Y50736190D01*
X91231905Y51117143D01*
X91184286Y51212381D01*
X91136667Y51260000D01*
X91041429Y51307619D01*
X90850952Y51307619D01*
X90755714Y51260000D01*
X90708095Y51212381D01*
X90660476Y51117143D01*
X90660476Y50879048D01*
X90708095Y50783810D01*
X90755714Y50736190D01*
X90850952Y50688571D01*
X91041429Y50688571D01*
X91136667Y50736190D01*
X91184286Y50783810D01*
X91231905Y50879048D01*
X15793095Y57422619D02*
X15793095Y56613095D01*
X15840714Y56517857D01*
X15888333Y56470238D01*
X15983571Y56422619D01*
X16174048Y56422619D01*
X16269286Y56470238D01*
X16316905Y56517857D01*
X16364524Y56613095D01*
X16364524Y57422619D01*
X17269286Y57422619D02*
X17078809Y57422619D01*
X16983571Y57375000D01*
X16935952Y57327381D01*
X16840714Y57184524D01*
X16793095Y56994048D01*
X16793095Y56613095D01*
X16840714Y56517857D01*
X16888333Y56470238D01*
X16983571Y56422619D01*
X17174048Y56422619D01*
X17269286Y56470238D01*
X17316905Y56517857D01*
X17364524Y56613095D01*
X17364524Y56851190D01*
X17316905Y56946429D01*
X17269286Y56994048D01*
X17174048Y57041667D01*
X16983571Y57041667D01*
X16888333Y56994048D01*
X16840714Y56946429D01*
X16793095Y56851190D01*
X50867143Y17123334D02*
X50914762Y17075715D01*
X50962381Y16932858D01*
X50962381Y16837620D01*
X50914762Y16694762D01*
X50819524Y16599524D01*
X50724286Y16551905D01*
X50533810Y16504286D01*
X50390952Y16504286D01*
X50200476Y16551905D01*
X50105238Y16599524D01*
X50010000Y16694762D01*
X49962381Y16837620D01*
X49962381Y16932858D01*
X50010000Y17075715D01*
X50057619Y17123334D01*
X49962381Y17980477D02*
X49962381Y17790000D01*
X50010000Y17694762D01*
X50057619Y17647143D01*
X50200476Y17551905D01*
X50390952Y17504286D01*
X50771905Y17504286D01*
X50867143Y17551905D01*
X50914762Y17599524D01*
X50962381Y17694762D01*
X50962381Y17885239D01*
X50914762Y17980477D01*
X50867143Y18028096D01*
X50771905Y18075715D01*
X50533810Y18075715D01*
X50438571Y18028096D01*
X50390952Y17980477D01*
X50343333Y17885239D01*
X50343333Y17694762D01*
X50390952Y17599524D01*
X50438571Y17551905D01*
X50533810Y17504286D01*
X30927143Y4023334D02*
X30974762Y3975715D01*
X31022381Y3832858D01*
X31022381Y3737620D01*
X30974762Y3594762D01*
X30879524Y3499524D01*
X30784286Y3451905D01*
X30593810Y3404286D01*
X30450952Y3404286D01*
X30260476Y3451905D01*
X30165238Y3499524D01*
X30070000Y3594762D01*
X30022381Y3737620D01*
X30022381Y3832858D01*
X30070000Y3975715D01*
X30117619Y4023334D01*
X30022381Y4356667D02*
X30022381Y5023334D01*
X31022381Y4594762D01*
X29951429Y7239048D02*
X29951429Y8000953D01*
X30332381Y7620001D02*
X29570476Y7620001D01*
X59033334Y26432857D02*
X58985715Y26385238D01*
X58842858Y26337619D01*
X58747620Y26337619D01*
X58604762Y26385238D01*
X58509524Y26480476D01*
X58461905Y26575714D01*
X58414286Y26766190D01*
X58414286Y26909048D01*
X58461905Y27099524D01*
X58509524Y27194762D01*
X58604762Y27290000D01*
X58747620Y27337619D01*
X58842858Y27337619D01*
X58985715Y27290000D01*
X59033334Y27242381D01*
X59985715Y26337619D02*
X59414286Y26337619D01*
X59700000Y26337619D02*
X59700000Y27337619D01*
X59604762Y27194762D01*
X59509524Y27099524D01*
X59414286Y27051905D01*
X46307143Y39923334D02*
X46354762Y39875715D01*
X46402381Y39732858D01*
X46402381Y39637620D01*
X46354762Y39494762D01*
X46259524Y39399524D01*
X46164286Y39351905D01*
X45973810Y39304286D01*
X45830952Y39304286D01*
X45640476Y39351905D01*
X45545238Y39399524D01*
X45450000Y39494762D01*
X45402381Y39637620D01*
X45402381Y39732858D01*
X45450000Y39875715D01*
X45497619Y39923334D01*
X45497619Y40304286D02*
X45450000Y40351905D01*
X45402381Y40447143D01*
X45402381Y40685239D01*
X45450000Y40780477D01*
X45497619Y40828096D01*
X45592857Y40875715D01*
X45688095Y40875715D01*
X45830952Y40828096D01*
X46402381Y40256667D01*
X46402381Y40875715D01*
X46157143Y34123334D02*
X46204762Y34075715D01*
X46252381Y33932858D01*
X46252381Y33837620D01*
X46204762Y33694762D01*
X46109524Y33599524D01*
X46014286Y33551905D01*
X45823810Y33504286D01*
X45680952Y33504286D01*
X45490476Y33551905D01*
X45395238Y33599524D01*
X45300000Y33694762D01*
X45252381Y33837620D01*
X45252381Y33932858D01*
X45300000Y34075715D01*
X45347619Y34123334D01*
X45252381Y34456667D02*
X45252381Y35075715D01*
X45633333Y34742381D01*
X45633333Y34885239D01*
X45680952Y34980477D01*
X45728571Y35028096D01*
X45823810Y35075715D01*
X46061905Y35075715D01*
X46157143Y35028096D01*
X46204762Y34980477D01*
X46252381Y34885239D01*
X46252381Y34599524D01*
X46204762Y34504286D01*
X46157143Y34456667D01*
X32673334Y10252857D02*
X32625715Y10205238D01*
X32482858Y10157619D01*
X32387620Y10157619D01*
X32244762Y10205238D01*
X32149524Y10300476D01*
X32101905Y10395714D01*
X32054286Y10586190D01*
X32054286Y10729048D01*
X32101905Y10919524D01*
X32149524Y11014762D01*
X32244762Y11110000D01*
X32387620Y11157619D01*
X32482858Y11157619D01*
X32625715Y11110000D01*
X32673334Y11062381D01*
X33244762Y10729048D02*
X33149524Y10776667D01*
X33101905Y10824286D01*
X33054286Y10919524D01*
X33054286Y10967143D01*
X33101905Y11062381D01*
X33149524Y11110000D01*
X33244762Y11157619D01*
X33435239Y11157619D01*
X33530477Y11110000D01*
X33578096Y11062381D01*
X33625715Y10967143D01*
X33625715Y10919524D01*
X33578096Y10824286D01*
X33530477Y10776667D01*
X33435239Y10729048D01*
X33244762Y10729048D01*
X33149524Y10681429D01*
X33101905Y10633810D01*
X33054286Y10538571D01*
X33054286Y10348095D01*
X33101905Y10252857D01*
X33149524Y10205238D01*
X33244762Y10157619D01*
X33435239Y10157619D01*
X33530477Y10205238D01*
X33578096Y10252857D01*
X33625715Y10348095D01*
X33625715Y10538571D01*
X33578096Y10633810D01*
X33530477Y10681429D01*
X33435239Y10729048D01*
X29097143Y8507143D02*
X29144762Y8459524D01*
X29192381Y8316667D01*
X29192381Y8221429D01*
X29144762Y8078571D01*
X29049524Y7983333D01*
X28954286Y7935714D01*
X28763810Y7888095D01*
X28620952Y7888095D01*
X28430476Y7935714D01*
X28335238Y7983333D01*
X28240000Y8078571D01*
X28192381Y8221429D01*
X28192381Y8316667D01*
X28240000Y8459524D01*
X28287619Y8507143D01*
X29192381Y9459524D02*
X29192381Y8888095D01*
X29192381Y9173809D02*
X28192381Y9173809D01*
X28335238Y9078571D01*
X28430476Y8983333D01*
X28478095Y8888095D01*
X28192381Y9792857D02*
X28192381Y10411905D01*
X28573333Y10078571D01*
X28573333Y10221429D01*
X28620952Y10316667D01*
X28668571Y10364286D01*
X28763810Y10411905D01*
X29001905Y10411905D01*
X29097143Y10364286D01*
X29144762Y10316667D01*
X29192381Y10221429D01*
X29192381Y9935714D01*
X29144762Y9840476D01*
X29097143Y9792857D01*
X68497143Y27832857D02*
X68449524Y27785238D01*
X68306667Y27737619D01*
X68211429Y27737619D01*
X68068571Y27785238D01*
X67973333Y27880476D01*
X67925714Y27975714D01*
X67878095Y28166190D01*
X67878095Y28309048D01*
X67925714Y28499524D01*
X67973333Y28594762D01*
X68068571Y28690000D01*
X68211429Y28737619D01*
X68306667Y28737619D01*
X68449524Y28690000D01*
X68497143Y28642381D01*
X69449524Y27737619D02*
X68878095Y27737619D01*
X69163809Y27737619D02*
X69163809Y28737619D01*
X69068571Y28594762D01*
X68973333Y28499524D01*
X68878095Y28451905D01*
X70401905Y27737619D02*
X69830476Y27737619D01*
X70116190Y27737619D02*
X70116190Y28737619D01*
X70020952Y28594762D01*
X69925714Y28499524D01*
X69830476Y28451905D01*
X21107143Y11982857D02*
X21059524Y11935238D01*
X20916667Y11887619D01*
X20821429Y11887619D01*
X20678571Y11935238D01*
X20583333Y12030476D01*
X20535714Y12125714D01*
X20488095Y12316190D01*
X20488095Y12459048D01*
X20535714Y12649524D01*
X20583333Y12744762D01*
X20678571Y12840000D01*
X20821429Y12887619D01*
X20916667Y12887619D01*
X21059524Y12840000D01*
X21107143Y12792381D01*
X22059524Y11887619D02*
X21488095Y11887619D01*
X21773809Y11887619D02*
X21773809Y12887619D01*
X21678571Y12744762D01*
X21583333Y12649524D01*
X21488095Y12601905D01*
X22916667Y12887619D02*
X22726190Y12887619D01*
X22630952Y12840000D01*
X22583333Y12792381D01*
X22488095Y12649524D01*
X22440476Y12459048D01*
X22440476Y12078095D01*
X22488095Y11982857D01*
X22535714Y11935238D01*
X22630952Y11887619D01*
X22821429Y11887619D01*
X22916667Y11935238D01*
X22964286Y11982857D01*
X23011905Y12078095D01*
X23011905Y12316190D01*
X22964286Y12411429D01*
X22916667Y12459048D01*
X22821429Y12506667D01*
X22630952Y12506667D01*
X22535714Y12459048D01*
X22488095Y12411429D01*
X22440476Y12316190D01*
X54857143Y29597143D02*
X54904762Y29549524D01*
X54952381Y29406667D01*
X54952381Y29311429D01*
X54904762Y29168571D01*
X54809524Y29073333D01*
X54714286Y29025714D01*
X54523810Y28978095D01*
X54380952Y28978095D01*
X54190476Y29025714D01*
X54095238Y29073333D01*
X54000000Y29168571D01*
X53952381Y29311429D01*
X53952381Y29406667D01*
X54000000Y29549524D01*
X54047619Y29597143D01*
X54952381Y30549524D02*
X54952381Y29978095D01*
X54952381Y30263809D02*
X53952381Y30263809D01*
X54095238Y30168571D01*
X54190476Y30073333D01*
X54238095Y29978095D01*
X54047619Y30930476D02*
X54000000Y30978095D01*
X53952381Y31073333D01*
X53952381Y31311429D01*
X54000000Y31406667D01*
X54047619Y31454286D01*
X54142857Y31501905D01*
X54238095Y31501905D01*
X54380952Y31454286D01*
X54952381Y30882857D01*
X54952381Y31501905D01*
X65257143Y6447143D02*
X65304762Y6399524D01*
X65352381Y6256667D01*
X65352381Y6161429D01*
X65304762Y6018571D01*
X65209524Y5923333D01*
X65114286Y5875714D01*
X64923810Y5828095D01*
X64780952Y5828095D01*
X64590476Y5875714D01*
X64495238Y5923333D01*
X64400000Y6018571D01*
X64352381Y6161429D01*
X64352381Y6256667D01*
X64400000Y6399524D01*
X64447619Y6447143D01*
X65352381Y7399524D02*
X65352381Y6828095D01*
X65352381Y7113809D02*
X64352381Y7113809D01*
X64495238Y7018571D01*
X64590476Y6923333D01*
X64638095Y6828095D01*
X64780952Y7970952D02*
X64733333Y7875714D01*
X64685714Y7828095D01*
X64590476Y7780476D01*
X64542857Y7780476D01*
X64447619Y7828095D01*
X64400000Y7875714D01*
X64352381Y7970952D01*
X64352381Y8161429D01*
X64400000Y8256667D01*
X64447619Y8304286D01*
X64542857Y8351905D01*
X64590476Y8351905D01*
X64685714Y8304286D01*
X64733333Y8256667D01*
X64780952Y8161429D01*
X64780952Y7970952D01*
X64828571Y7875714D01*
X64876190Y7828095D01*
X64971429Y7780476D01*
X65161905Y7780476D01*
X65257143Y7828095D01*
X65304762Y7875714D01*
X65352381Y7970952D01*
X65352381Y8161429D01*
X65304762Y8256667D01*
X65257143Y8304286D01*
X65161905Y8351905D01*
X64971429Y8351905D01*
X64876190Y8304286D01*
X64828571Y8256667D01*
X64780952Y8161429D01*
X58007143Y42232857D02*
X57959524Y42185238D01*
X57816667Y42137619D01*
X57721429Y42137619D01*
X57578571Y42185238D01*
X57483333Y42280476D01*
X57435714Y42375714D01*
X57388095Y42566190D01*
X57388095Y42709048D01*
X57435714Y42899524D01*
X57483333Y42994762D01*
X57578571Y43090000D01*
X57721429Y43137619D01*
X57816667Y43137619D01*
X57959524Y43090000D01*
X58007143Y43042381D01*
X58959524Y42137619D02*
X58388095Y42137619D01*
X58673809Y42137619D02*
X58673809Y43137619D01*
X58578571Y42994762D01*
X58483333Y42899524D01*
X58388095Y42851905D01*
X59816667Y42804286D02*
X59816667Y42137619D01*
X59578571Y43185238D02*
X59340476Y42470952D01*
X59959524Y42470952D01*
X18007143Y16832857D02*
X17959524Y16785238D01*
X17816667Y16737619D01*
X17721429Y16737619D01*
X17578571Y16785238D01*
X17483333Y16880476D01*
X17435714Y16975714D01*
X17388095Y17166190D01*
X17388095Y17309048D01*
X17435714Y17499524D01*
X17483333Y17594762D01*
X17578571Y17690000D01*
X17721429Y17737619D01*
X17816667Y17737619D01*
X17959524Y17690000D01*
X18007143Y17642381D01*
X18959524Y16737619D02*
X18388095Y16737619D01*
X18673809Y16737619D02*
X18673809Y17737619D01*
X18578571Y17594762D01*
X18483333Y17499524D01*
X18388095Y17451905D01*
X19292857Y17737619D02*
X19959524Y17737619D01*
X19530952Y16737619D01*
X21111429Y13429048D02*
X21111429Y14190953D01*
X21492381Y13810001D02*
X20730476Y13810001D01*
X71507143Y38697143D02*
X71554762Y38649524D01*
X71602381Y38506667D01*
X71602381Y38411429D01*
X71554762Y38268571D01*
X71459524Y38173333D01*
X71364286Y38125714D01*
X71173810Y38078095D01*
X71030952Y38078095D01*
X70840476Y38125714D01*
X70745238Y38173333D01*
X70650000Y38268571D01*
X70602381Y38411429D01*
X70602381Y38506667D01*
X70650000Y38649524D01*
X70697619Y38697143D01*
X71602381Y39649524D02*
X71602381Y39078095D01*
X71602381Y39363809D02*
X70602381Y39363809D01*
X70745238Y39268571D01*
X70840476Y39173333D01*
X70888095Y39078095D01*
X70602381Y40554286D02*
X70602381Y40078095D01*
X71078571Y40030476D01*
X71030952Y40078095D01*
X70983333Y40173333D01*
X70983333Y40411429D01*
X71030952Y40506667D01*
X71078571Y40554286D01*
X71173810Y40601905D01*
X71411905Y40601905D01*
X71507143Y40554286D01*
X71554762Y40506667D01*
X71602381Y40411429D01*
X71602381Y40173333D01*
X71554762Y40078095D01*
X71507143Y40030476D01*
X65307143Y14247143D02*
X65354762Y14199524D01*
X65402381Y14056667D01*
X65402381Y13961429D01*
X65354762Y13818571D01*
X65259524Y13723333D01*
X65164286Y13675714D01*
X64973810Y13628095D01*
X64830952Y13628095D01*
X64640476Y13675714D01*
X64545238Y13723333D01*
X64450000Y13818571D01*
X64402381Y13961429D01*
X64402381Y14056667D01*
X64450000Y14199524D01*
X64497619Y14247143D01*
X64497619Y14628095D02*
X64450000Y14675714D01*
X64402381Y14770952D01*
X64402381Y15009048D01*
X64450000Y15104286D01*
X64497619Y15151905D01*
X64592857Y15199524D01*
X64688095Y15199524D01*
X64830952Y15151905D01*
X65402381Y14580476D01*
X65402381Y15199524D01*
X65402381Y16151905D02*
X65402381Y15580476D01*
X65402381Y15866190D02*
X64402381Y15866190D01*
X64545238Y15770952D01*
X64640476Y15675714D01*
X64688095Y15580476D01*
X4957143Y16832857D02*
X4909524Y16785238D01*
X4766667Y16737619D01*
X4671429Y16737619D01*
X4528571Y16785238D01*
X4433333Y16880476D01*
X4385714Y16975714D01*
X4338095Y17166190D01*
X4338095Y17309048D01*
X4385714Y17499524D01*
X4433333Y17594762D01*
X4528571Y17690000D01*
X4671429Y17737619D01*
X4766667Y17737619D01*
X4909524Y17690000D01*
X4957143Y17642381D01*
X5909524Y16737619D02*
X5338095Y16737619D01*
X5623809Y16737619D02*
X5623809Y17737619D01*
X5528571Y17594762D01*
X5433333Y17499524D01*
X5338095Y17451905D01*
X6385714Y16737619D02*
X6576190Y16737619D01*
X6671429Y16785238D01*
X6719048Y16832857D01*
X6814286Y16975714D01*
X6861905Y17166190D01*
X6861905Y17547143D01*
X6814286Y17642381D01*
X6766667Y17690000D01*
X6671429Y17737619D01*
X6480952Y17737619D01*
X6385714Y17690000D01*
X6338095Y17642381D01*
X6290476Y17547143D01*
X6290476Y17309048D01*
X6338095Y17213810D01*
X6385714Y17166190D01*
X6480952Y17118571D01*
X6671429Y17118571D01*
X6766667Y17166190D01*
X6814286Y17213810D01*
X6861905Y17309048D01*
X3431429Y20189048D02*
X3431429Y20950953D01*
X3812381Y20570001D02*
X3050476Y20570001D01*
X1807143Y11882857D02*
X1759524Y11835238D01*
X1616667Y11787619D01*
X1521429Y11787619D01*
X1378571Y11835238D01*
X1283333Y11930476D01*
X1235714Y12025714D01*
X1188095Y12216190D01*
X1188095Y12359048D01*
X1235714Y12549524D01*
X1283333Y12644762D01*
X1378571Y12740000D01*
X1521429Y12787619D01*
X1616667Y12787619D01*
X1759524Y12740000D01*
X1807143Y12692381D01*
X2188095Y12692381D02*
X2235714Y12740000D01*
X2330952Y12787619D01*
X2569048Y12787619D01*
X2664286Y12740000D01*
X2711905Y12692381D01*
X2759524Y12597143D01*
X2759524Y12501905D01*
X2711905Y12359048D01*
X2140476Y11787619D01*
X2759524Y11787619D01*
X3378571Y12787619D02*
X3473810Y12787619D01*
X3569048Y12740000D01*
X3616667Y12692381D01*
X3664286Y12597143D01*
X3711905Y12406667D01*
X3711905Y12168571D01*
X3664286Y11978095D01*
X3616667Y11882857D01*
X3569048Y11835238D01*
X3473810Y11787619D01*
X3378571Y11787619D01*
X3283333Y11835238D01*
X3235714Y11882857D01*
X3188095Y11978095D01*
X3140476Y12168571D01*
X3140476Y12406667D01*
X3188095Y12597143D01*
X3235714Y12692381D01*
X3283333Y12740000D01*
X3378571Y12787619D01*
X96947143Y40092857D02*
X96899524Y40045238D01*
X96756667Y39997619D01*
X96661429Y39997619D01*
X96518571Y40045238D01*
X96423333Y40140476D01*
X96375714Y40235714D01*
X96328095Y40426190D01*
X96328095Y40569048D01*
X96375714Y40759524D01*
X96423333Y40854762D01*
X96518571Y40950000D01*
X96661429Y40997619D01*
X96756667Y40997619D01*
X96899524Y40950000D01*
X96947143Y40902381D01*
X97328095Y40902381D02*
X97375714Y40950000D01*
X97470952Y40997619D01*
X97709048Y40997619D01*
X97804286Y40950000D01*
X97851905Y40902381D01*
X97899524Y40807143D01*
X97899524Y40711905D01*
X97851905Y40569048D01*
X97280476Y39997619D01*
X97899524Y39997619D01*
X98280476Y40902381D02*
X98328095Y40950000D01*
X98423333Y40997619D01*
X98661429Y40997619D01*
X98756667Y40950000D01*
X98804286Y40902381D01*
X98851905Y40807143D01*
X98851905Y40711905D01*
X98804286Y40569048D01*
X98232857Y39997619D01*
X98851905Y39997619D01*
X6017143Y52692857D02*
X5969524Y52645238D01*
X5826667Y52597619D01*
X5731429Y52597619D01*
X5588571Y52645238D01*
X5493333Y52740476D01*
X5445714Y52835714D01*
X5398095Y53026190D01*
X5398095Y53169048D01*
X5445714Y53359524D01*
X5493333Y53454762D01*
X5588571Y53550000D01*
X5731429Y53597619D01*
X5826667Y53597619D01*
X5969524Y53550000D01*
X6017143Y53502381D01*
X6398095Y53502381D02*
X6445714Y53550000D01*
X6540952Y53597619D01*
X6779048Y53597619D01*
X6874286Y53550000D01*
X6921905Y53502381D01*
X6969524Y53407143D01*
X6969524Y53311905D01*
X6921905Y53169048D01*
X6350476Y52597619D01*
X6969524Y52597619D01*
X7302857Y53597619D02*
X7921905Y53597619D01*
X7588571Y53216667D01*
X7731429Y53216667D01*
X7826667Y53169048D01*
X7874286Y53121429D01*
X7921905Y53026190D01*
X7921905Y52788095D01*
X7874286Y52692857D01*
X7826667Y52645238D01*
X7731429Y52597619D01*
X7445714Y52597619D01*
X7350476Y52645238D01*
X7302857Y52692857D01*
X93497143Y34592857D02*
X93449524Y34545238D01*
X93306667Y34497619D01*
X93211429Y34497619D01*
X93068571Y34545238D01*
X92973333Y34640476D01*
X92925714Y34735714D01*
X92878095Y34926190D01*
X92878095Y35069048D01*
X92925714Y35259524D01*
X92973333Y35354762D01*
X93068571Y35450000D01*
X93211429Y35497619D01*
X93306667Y35497619D01*
X93449524Y35450000D01*
X93497143Y35402381D01*
X93878095Y35402381D02*
X93925714Y35450000D01*
X94020952Y35497619D01*
X94259048Y35497619D01*
X94354286Y35450000D01*
X94401905Y35402381D01*
X94449524Y35307143D01*
X94449524Y35211905D01*
X94401905Y35069048D01*
X93830476Y34497619D01*
X94449524Y34497619D01*
X95306667Y35164286D02*
X95306667Y34497619D01*
X95068571Y35545238D02*
X94830476Y34830952D01*
X95449524Y34830952D01*
X36957143Y62717143D02*
X37004762Y62669524D01*
X37052381Y62526667D01*
X37052381Y62431429D01*
X37004762Y62288571D01*
X36909524Y62193333D01*
X36814286Y62145714D01*
X36623810Y62098095D01*
X36480952Y62098095D01*
X36290476Y62145714D01*
X36195238Y62193333D01*
X36100000Y62288571D01*
X36052381Y62431429D01*
X36052381Y62526667D01*
X36100000Y62669524D01*
X36147619Y62717143D01*
X36147619Y63098095D02*
X36100000Y63145714D01*
X36052381Y63240952D01*
X36052381Y63479048D01*
X36100000Y63574286D01*
X36147619Y63621905D01*
X36242857Y63669524D01*
X36338095Y63669524D01*
X36480952Y63621905D01*
X37052381Y63050476D01*
X37052381Y63669524D01*
X36052381Y64574286D02*
X36052381Y64098095D01*
X36528571Y64050476D01*
X36480952Y64098095D01*
X36433333Y64193333D01*
X36433333Y64431429D01*
X36480952Y64526667D01*
X36528571Y64574286D01*
X36623810Y64621905D01*
X36861905Y64621905D01*
X36957143Y64574286D01*
X37004762Y64526667D01*
X37052381Y64431429D01*
X37052381Y64193333D01*
X37004762Y64098095D01*
X36957143Y64050476D01*
X7007143Y26682857D02*
X6959524Y26635238D01*
X6816667Y26587619D01*
X6721429Y26587619D01*
X6578571Y26635238D01*
X6483333Y26730476D01*
X6435714Y26825714D01*
X6388095Y27016190D01*
X6388095Y27159048D01*
X6435714Y27349524D01*
X6483333Y27444762D01*
X6578571Y27540000D01*
X6721429Y27587619D01*
X6816667Y27587619D01*
X6959524Y27540000D01*
X7007143Y27492381D01*
X7340476Y27587619D02*
X7959524Y27587619D01*
X7626190Y27206667D01*
X7769048Y27206667D01*
X7864286Y27159048D01*
X7911905Y27111429D01*
X7959524Y27016190D01*
X7959524Y26778095D01*
X7911905Y26682857D01*
X7864286Y26635238D01*
X7769048Y26587619D01*
X7483333Y26587619D01*
X7388095Y26635238D01*
X7340476Y26682857D01*
X8578571Y27587619D02*
X8673810Y27587619D01*
X8769048Y27540000D01*
X8816667Y27492381D01*
X8864286Y27397143D01*
X8911905Y27206667D01*
X8911905Y26968571D01*
X8864286Y26778095D01*
X8816667Y26682857D01*
X8769048Y26635238D01*
X8673810Y26587619D01*
X8578571Y26587619D01*
X8483333Y26635238D01*
X8435714Y26682857D01*
X8388095Y26778095D01*
X8340476Y26968571D01*
X8340476Y27206667D01*
X8388095Y27397143D01*
X8435714Y27492381D01*
X8483333Y27540000D01*
X8578571Y27587619D01*
X82977143Y43942857D02*
X82929524Y43895238D01*
X82786667Y43847619D01*
X82691429Y43847619D01*
X82548571Y43895238D01*
X82453333Y43990476D01*
X82405714Y44085714D01*
X82358095Y44276190D01*
X82358095Y44419048D01*
X82405714Y44609524D01*
X82453333Y44704762D01*
X82548571Y44800000D01*
X82691429Y44847619D01*
X82786667Y44847619D01*
X82929524Y44800000D01*
X82977143Y44752381D01*
X83358095Y44752381D02*
X83405714Y44800000D01*
X83500952Y44847619D01*
X83739048Y44847619D01*
X83834286Y44800000D01*
X83881905Y44752381D01*
X83929524Y44657143D01*
X83929524Y44561905D01*
X83881905Y44419048D01*
X83310476Y43847619D01*
X83929524Y43847619D01*
X84500952Y44419048D02*
X84405714Y44466667D01*
X84358095Y44514286D01*
X84310476Y44609524D01*
X84310476Y44657143D01*
X84358095Y44752381D01*
X84405714Y44800000D01*
X84500952Y44847619D01*
X84691429Y44847619D01*
X84786667Y44800000D01*
X84834286Y44752381D01*
X84881905Y44657143D01*
X84881905Y44609524D01*
X84834286Y44514286D01*
X84786667Y44466667D01*
X84691429Y44419048D01*
X84500952Y44419048D01*
X84405714Y44371429D01*
X84358095Y44323810D01*
X84310476Y44228571D01*
X84310476Y44038095D01*
X84358095Y43942857D01*
X84405714Y43895238D01*
X84500952Y43847619D01*
X84691429Y43847619D01*
X84786667Y43895238D01*
X84834286Y43942857D01*
X84881905Y44038095D01*
X84881905Y44228571D01*
X84834286Y44323810D01*
X84786667Y44371429D01*
X84691429Y44419048D01*
X88117143Y35827143D02*
X88164762Y35779524D01*
X88212381Y35636667D01*
X88212381Y35541429D01*
X88164762Y35398571D01*
X88069524Y35303333D01*
X87974286Y35255714D01*
X87783810Y35208095D01*
X87640952Y35208095D01*
X87450476Y35255714D01*
X87355238Y35303333D01*
X87260000Y35398571D01*
X87212381Y35541429D01*
X87212381Y35636667D01*
X87260000Y35779524D01*
X87307619Y35827143D01*
X87212381Y36160476D02*
X87212381Y36779524D01*
X87593333Y36446190D01*
X87593333Y36589048D01*
X87640952Y36684286D01*
X87688571Y36731905D01*
X87783810Y36779524D01*
X88021905Y36779524D01*
X88117143Y36731905D01*
X88164762Y36684286D01*
X88212381Y36589048D01*
X88212381Y36303333D01*
X88164762Y36208095D01*
X88117143Y36160476D01*
X87545714Y37636667D02*
X88212381Y37636667D01*
X87164762Y37398571D02*
X87879048Y37160476D01*
X87879048Y37779524D01*
X43482143Y34772143D02*
X43529762Y34724524D01*
X43577381Y34581667D01*
X43577381Y34486429D01*
X43529762Y34343571D01*
X43434524Y34248333D01*
X43339286Y34200714D01*
X43148810Y34153095D01*
X43005952Y34153095D01*
X42815476Y34200714D01*
X42720238Y34248333D01*
X42625000Y34343571D01*
X42577381Y34486429D01*
X42577381Y34581667D01*
X42625000Y34724524D01*
X42672619Y34772143D01*
X42577381Y35105476D02*
X42577381Y35724524D01*
X42958333Y35391190D01*
X42958333Y35534048D01*
X43005952Y35629286D01*
X43053571Y35676905D01*
X43148810Y35724524D01*
X43386905Y35724524D01*
X43482143Y35676905D01*
X43529762Y35629286D01*
X43577381Y35534048D01*
X43577381Y35248333D01*
X43529762Y35153095D01*
X43482143Y35105476D01*
X42577381Y36629286D02*
X42577381Y36153095D01*
X43053571Y36105476D01*
X43005952Y36153095D01*
X42958333Y36248333D01*
X42958333Y36486429D01*
X43005952Y36581667D01*
X43053571Y36629286D01*
X43148810Y36676905D01*
X43386905Y36676905D01*
X43482143Y36629286D01*
X43529762Y36581667D01*
X43577381Y36486429D01*
X43577381Y36248333D01*
X43529762Y36153095D01*
X43482143Y36105476D01*
X25861905Y987619D02*
X25861905Y1987619D01*
X26100000Y1987619D01*
X26242858Y1940000D01*
X26338096Y1844762D01*
X26385715Y1749524D01*
X26433334Y1559048D01*
X26433334Y1416190D01*
X26385715Y1225714D01*
X26338096Y1130476D01*
X26242858Y1035238D01*
X26100000Y987619D01*
X25861905Y987619D01*
X27385715Y987619D02*
X26814286Y987619D01*
X27100000Y987619D02*
X27100000Y1987619D01*
X27004762Y1844762D01*
X26909524Y1749524D01*
X26814286Y1701905D01*
X3702381Y7301905D02*
X2702381Y7301905D01*
X2702381Y7540000D01*
X2750000Y7682858D01*
X2845238Y7778096D01*
X2940476Y7825715D01*
X3130952Y7873334D01*
X3273810Y7873334D01*
X3464286Y7825715D01*
X3559524Y7778096D01*
X3654762Y7682858D01*
X3702381Y7540000D01*
X3702381Y7301905D01*
X2797619Y8254286D02*
X2750000Y8301905D01*
X2702381Y8397143D01*
X2702381Y8635239D01*
X2750000Y8730477D01*
X2797619Y8778096D01*
X2892857Y8825715D01*
X2988095Y8825715D01*
X3130952Y8778096D01*
X3702381Y8206667D01*
X3702381Y8825715D01*
X35912381Y11913334D02*
X35912381Y11437143D01*
X34912381Y11437143D01*
X35912381Y12770477D02*
X35912381Y12199048D01*
X35912381Y12484762D02*
X34912381Y12484762D01*
X35055238Y12389524D01*
X35150476Y12294286D01*
X35198095Y12199048D01*
X59943334Y6336599D02*
X59467143Y6336599D01*
X59467143Y7336599D01*
X60229048Y7241361D02*
X60276667Y7288980D01*
X60371905Y7336599D01*
X60610001Y7336599D01*
X60705239Y7288980D01*
X60752858Y7241361D01*
X60800477Y7146123D01*
X60800477Y7050885D01*
X60752858Y6908028D01*
X60181429Y6336599D01*
X60800477Y6336599D01*
X59933334Y14036599D02*
X59457143Y14036599D01*
X59457143Y15036599D01*
X60171429Y15036599D02*
X60790477Y15036599D01*
X60457143Y14655647D01*
X60600001Y14655647D01*
X60695239Y14608028D01*
X60742858Y14560409D01*
X60790477Y14465170D01*
X60790477Y14227075D01*
X60742858Y14131837D01*
X60695239Y14084218D01*
X60600001Y14036599D01*
X60314286Y14036599D01*
X60219048Y14084218D01*
X60171429Y14131837D01*
X11411905Y7837619D02*
X11411905Y8837619D01*
X11792858Y8837619D01*
X11888096Y8790000D01*
X11935715Y8742381D01*
X11983334Y8647143D01*
X11983334Y8504286D01*
X11935715Y8409048D01*
X11888096Y8361429D01*
X11792858Y8313810D01*
X11411905Y8313810D01*
X12935715Y7837619D02*
X12364286Y7837619D01*
X12650000Y7837619D02*
X12650000Y8837619D01*
X12554762Y8694762D01*
X12459524Y8599524D01*
X12364286Y8551905D01*
X20804762Y1667381D02*
X20709524Y1715000D01*
X20614286Y1810238D01*
X20471429Y1953095D01*
X20376190Y2000714D01*
X20280952Y2000714D01*
X20328571Y1762619D02*
X20233333Y1810238D01*
X20138095Y1905476D01*
X20090476Y2095952D01*
X20090476Y2429286D01*
X20138095Y2619762D01*
X20233333Y2715000D01*
X20328571Y2762619D01*
X20519048Y2762619D01*
X20614286Y2715000D01*
X20709524Y2619762D01*
X20757143Y2429286D01*
X20757143Y2095952D01*
X20709524Y1905476D01*
X20614286Y1810238D01*
X20519048Y1762619D01*
X20328571Y1762619D01*
X21709524Y1762619D02*
X21138095Y1762619D01*
X21423809Y1762619D02*
X21423809Y2762619D01*
X21328571Y2619762D01*
X21233333Y2524524D01*
X21138095Y2476905D01*
X20804762Y5292381D02*
X20709524Y5340000D01*
X20614286Y5435238D01*
X20471429Y5578095D01*
X20376190Y5625714D01*
X20280952Y5625714D01*
X20328571Y5387619D02*
X20233333Y5435238D01*
X20138095Y5530476D01*
X20090476Y5720952D01*
X20090476Y6054286D01*
X20138095Y6244762D01*
X20233333Y6340000D01*
X20328571Y6387619D01*
X20519048Y6387619D01*
X20614286Y6340000D01*
X20709524Y6244762D01*
X20757143Y6054286D01*
X20757143Y5720952D01*
X20709524Y5530476D01*
X20614286Y5435238D01*
X20519048Y5387619D01*
X20328571Y5387619D01*
X21138095Y6292381D02*
X21185714Y6340000D01*
X21280952Y6387619D01*
X21519048Y6387619D01*
X21614286Y6340000D01*
X21661905Y6292381D01*
X21709524Y6197143D01*
X21709524Y6101905D01*
X21661905Y5959048D01*
X21090476Y5387619D01*
X21709524Y5387619D01*
X20804762Y8842381D02*
X20709524Y8890000D01*
X20614286Y8985238D01*
X20471429Y9128095D01*
X20376190Y9175714D01*
X20280952Y9175714D01*
X20328571Y8937619D02*
X20233333Y8985238D01*
X20138095Y9080476D01*
X20090476Y9270952D01*
X20090476Y9604286D01*
X20138095Y9794762D01*
X20233333Y9890000D01*
X20328571Y9937619D01*
X20519048Y9937619D01*
X20614286Y9890000D01*
X20709524Y9794762D01*
X20757143Y9604286D01*
X20757143Y9270952D01*
X20709524Y9080476D01*
X20614286Y8985238D01*
X20519048Y8937619D01*
X20328571Y8937619D01*
X21090476Y9937619D02*
X21709524Y9937619D01*
X21376190Y9556667D01*
X21519048Y9556667D01*
X21614286Y9509048D01*
X21661905Y9461429D01*
X21709524Y9366190D01*
X21709524Y9128095D01*
X21661905Y9032857D01*
X21614286Y8985238D01*
X21519048Y8937619D01*
X21233333Y8937619D01*
X21138095Y8985238D01*
X21090476Y9032857D01*
X23587143Y38337619D02*
X23253809Y38813810D01*
X23015714Y38337619D02*
X23015714Y39337619D01*
X23396667Y39337619D01*
X23491905Y39290000D01*
X23539524Y39242381D01*
X23587143Y39147143D01*
X23587143Y39004286D01*
X23539524Y38909048D01*
X23491905Y38861429D01*
X23396667Y38813810D01*
X23015714Y38813810D01*
X24539524Y38337619D02*
X23968095Y38337619D01*
X24253809Y38337619D02*
X24253809Y39337619D01*
X24158571Y39194762D01*
X24063333Y39099524D01*
X23968095Y39051905D01*
X25110952Y38909048D02*
X25015714Y38956667D01*
X24968095Y39004286D01*
X24920476Y39099524D01*
X24920476Y39147143D01*
X24968095Y39242381D01*
X25015714Y39290000D01*
X25110952Y39337619D01*
X25301429Y39337619D01*
X25396667Y39290000D01*
X25444286Y39242381D01*
X25491905Y39147143D01*
X25491905Y39099524D01*
X25444286Y39004286D01*
X25396667Y38956667D01*
X25301429Y38909048D01*
X25110952Y38909048D01*
X25015714Y38861429D01*
X24968095Y38813810D01*
X24920476Y38718571D01*
X24920476Y38528095D01*
X24968095Y38432857D01*
X25015714Y38385238D01*
X25110952Y38337619D01*
X25301429Y38337619D01*
X25396667Y38385238D01*
X25444286Y38432857D01*
X25491905Y38528095D01*
X25491905Y38718571D01*
X25444286Y38813810D01*
X25396667Y38861429D01*
X25301429Y38909048D01*
X62802381Y48173334D02*
X62326190Y47840000D01*
X62802381Y47601905D02*
X61802381Y47601905D01*
X61802381Y47982858D01*
X61850000Y48078096D01*
X61897619Y48125715D01*
X61992857Y48173334D01*
X62135714Y48173334D01*
X62230952Y48125715D01*
X62278571Y48078096D01*
X62326190Y47982858D01*
X62326190Y47601905D01*
X62802381Y49125715D02*
X62802381Y48554286D01*
X62802381Y48840000D02*
X61802381Y48840000D01*
X61945238Y48744762D01*
X62040476Y48649524D01*
X62088095Y48554286D01*
X29252381Y3223334D02*
X28776190Y2890000D01*
X29252381Y2651905D02*
X28252381Y2651905D01*
X28252381Y3032858D01*
X28300000Y3128096D01*
X28347619Y3175715D01*
X28442857Y3223334D01*
X28585714Y3223334D01*
X28680952Y3175715D01*
X28728571Y3128096D01*
X28776190Y3032858D01*
X28776190Y2651905D01*
X28347619Y3604286D02*
X28300000Y3651905D01*
X28252381Y3747143D01*
X28252381Y3985239D01*
X28300000Y4080477D01*
X28347619Y4128096D01*
X28442857Y4175715D01*
X28538095Y4175715D01*
X28680952Y4128096D01*
X29252381Y3556667D01*
X29252381Y4175715D01*
X29252381Y5123334D02*
X28776190Y4790000D01*
X29252381Y4551905D02*
X28252381Y4551905D01*
X28252381Y4932858D01*
X28300000Y5028096D01*
X28347619Y5075715D01*
X28442857Y5123334D01*
X28585714Y5123334D01*
X28680952Y5075715D01*
X28728571Y5028096D01*
X28776190Y4932858D01*
X28776190Y4551905D01*
X28252381Y5456667D02*
X28252381Y6075715D01*
X28633333Y5742381D01*
X28633333Y5885239D01*
X28680952Y5980477D01*
X28728571Y6028096D01*
X28823810Y6075715D01*
X29061905Y6075715D01*
X29157143Y6028096D01*
X29204762Y5980477D01*
X29252381Y5885239D01*
X29252381Y5599524D01*
X29204762Y5504286D01*
X29157143Y5456667D01*
X29252381Y7073334D02*
X28776190Y6740000D01*
X29252381Y6501905D02*
X28252381Y6501905D01*
X28252381Y6882858D01*
X28300000Y6978096D01*
X28347619Y7025715D01*
X28442857Y7073334D01*
X28585714Y7073334D01*
X28680952Y7025715D01*
X28728571Y6978096D01*
X28776190Y6882858D01*
X28776190Y6501905D01*
X28585714Y7930477D02*
X29252381Y7930477D01*
X28204762Y7692381D02*
X28919048Y7454286D01*
X28919048Y8073334D01*
X12693334Y46377619D02*
X12360000Y46853810D01*
X12121905Y46377619D02*
X12121905Y47377619D01*
X12502858Y47377619D01*
X12598096Y47330000D01*
X12645715Y47282381D01*
X12693334Y47187143D01*
X12693334Y47044286D01*
X12645715Y46949048D01*
X12598096Y46901429D01*
X12502858Y46853810D01*
X12121905Y46853810D01*
X13264762Y46949048D02*
X13169524Y46996667D01*
X13121905Y47044286D01*
X13074286Y47139524D01*
X13074286Y47187143D01*
X13121905Y47282381D01*
X13169524Y47330000D01*
X13264762Y47377619D01*
X13455239Y47377619D01*
X13550477Y47330000D01*
X13598096Y47282381D01*
X13645715Y47187143D01*
X13645715Y47139524D01*
X13598096Y47044286D01*
X13550477Y46996667D01*
X13455239Y46949048D01*
X13264762Y46949048D01*
X13169524Y46901429D01*
X13121905Y46853810D01*
X13074286Y46758571D01*
X13074286Y46568095D01*
X13121905Y46472857D01*
X13169524Y46425238D01*
X13264762Y46377619D01*
X13455239Y46377619D01*
X13550477Y46425238D01*
X13598096Y46472857D01*
X13645715Y46568095D01*
X13645715Y46758571D01*
X13598096Y46853810D01*
X13550477Y46901429D01*
X13455239Y46949048D01*
X36952381Y57983334D02*
X36476190Y57650000D01*
X36952381Y57411905D02*
X35952381Y57411905D01*
X35952381Y57792858D01*
X36000000Y57888096D01*
X36047619Y57935715D01*
X36142857Y57983334D01*
X36285714Y57983334D01*
X36380952Y57935715D01*
X36428571Y57888096D01*
X36476190Y57792858D01*
X36476190Y57411905D01*
X36952381Y58459524D02*
X36952381Y58650000D01*
X36904762Y58745239D01*
X36857143Y58792858D01*
X36714286Y58888096D01*
X36523810Y58935715D01*
X36142857Y58935715D01*
X36047619Y58888096D01*
X36000000Y58840477D01*
X35952381Y58745239D01*
X35952381Y58554762D01*
X36000000Y58459524D01*
X36047619Y58411905D01*
X36142857Y58364286D01*
X36380952Y58364286D01*
X36476190Y58411905D01*
X36523810Y58459524D01*
X36571429Y58554762D01*
X36571429Y58745239D01*
X36523810Y58840477D01*
X36476190Y58888096D01*
X36380952Y58935715D01*
X25302381Y44997143D02*
X24826190Y44663809D01*
X25302381Y44425714D02*
X24302381Y44425714D01*
X24302381Y44806667D01*
X24350000Y44901905D01*
X24397619Y44949524D01*
X24492857Y44997143D01*
X24635714Y44997143D01*
X24730952Y44949524D01*
X24778571Y44901905D01*
X24826190Y44806667D01*
X24826190Y44425714D01*
X25302381Y45949524D02*
X25302381Y45378095D01*
X25302381Y45663809D02*
X24302381Y45663809D01*
X24445238Y45568571D01*
X24540476Y45473333D01*
X24588095Y45378095D01*
X24302381Y46568571D02*
X24302381Y46663810D01*
X24350000Y46759048D01*
X24397619Y46806667D01*
X24492857Y46854286D01*
X24683333Y46901905D01*
X24921429Y46901905D01*
X25111905Y46854286D01*
X25207143Y46806667D01*
X25254762Y46759048D01*
X25302381Y46663810D01*
X25302381Y46568571D01*
X25254762Y46473333D01*
X25207143Y46425714D01*
X25111905Y46378095D01*
X24921429Y46330476D01*
X24683333Y46330476D01*
X24492857Y46378095D01*
X24397619Y46425714D01*
X24350000Y46473333D01*
X24302381Y46568571D01*
X9202381Y44977143D02*
X8726190Y44643809D01*
X9202381Y44405714D02*
X8202381Y44405714D01*
X8202381Y44786667D01*
X8250000Y44881905D01*
X8297619Y44929524D01*
X8392857Y44977143D01*
X8535714Y44977143D01*
X8630952Y44929524D01*
X8678571Y44881905D01*
X8726190Y44786667D01*
X8726190Y44405714D01*
X9202381Y45929524D02*
X9202381Y45358095D01*
X9202381Y45643809D02*
X8202381Y45643809D01*
X8345238Y45548571D01*
X8440476Y45453333D01*
X8488095Y45358095D01*
X9202381Y46881905D02*
X9202381Y46310476D01*
X9202381Y46596190D02*
X8202381Y46596190D01*
X8345238Y46500952D01*
X8440476Y46405714D01*
X8488095Y46310476D01*
X90832381Y16807143D02*
X90356190Y16473809D01*
X90832381Y16235714D02*
X89832381Y16235714D01*
X89832381Y16616667D01*
X89880000Y16711905D01*
X89927619Y16759524D01*
X90022857Y16807143D01*
X90165714Y16807143D01*
X90260952Y16759524D01*
X90308571Y16711905D01*
X90356190Y16616667D01*
X90356190Y16235714D01*
X90832381Y17759524D02*
X90832381Y17188095D01*
X90832381Y17473809D02*
X89832381Y17473809D01*
X89975238Y17378571D01*
X90070476Y17283333D01*
X90118095Y17188095D01*
X89927619Y18140476D02*
X89880000Y18188095D01*
X89832381Y18283333D01*
X89832381Y18521429D01*
X89880000Y18616667D01*
X89927619Y18664286D01*
X90022857Y18711905D01*
X90118095Y18711905D01*
X90260952Y18664286D01*
X90832381Y18092857D01*
X90832381Y18711905D01*
X64657143Y65737619D02*
X64323809Y66213810D01*
X64085714Y65737619D02*
X64085714Y66737619D01*
X64466667Y66737619D01*
X64561905Y66690000D01*
X64609524Y66642381D01*
X64657143Y66547143D01*
X64657143Y66404286D01*
X64609524Y66309048D01*
X64561905Y66261429D01*
X64466667Y66213810D01*
X64085714Y66213810D01*
X65609524Y65737619D02*
X65038095Y65737619D01*
X65323809Y65737619D02*
X65323809Y66737619D01*
X65228571Y66594762D01*
X65133333Y66499524D01*
X65038095Y66451905D01*
X65942857Y66737619D02*
X66561905Y66737619D01*
X66228571Y66356667D01*
X66371429Y66356667D01*
X66466667Y66309048D01*
X66514286Y66261429D01*
X66561905Y66166190D01*
X66561905Y65928095D01*
X66514286Y65832857D01*
X66466667Y65785238D01*
X66371429Y65737619D01*
X66085714Y65737619D01*
X65990476Y65785238D01*
X65942857Y65832857D01*
X64657143Y67487619D02*
X64323809Y67963810D01*
X64085714Y67487619D02*
X64085714Y68487619D01*
X64466667Y68487619D01*
X64561905Y68440000D01*
X64609524Y68392381D01*
X64657143Y68297143D01*
X64657143Y68154286D01*
X64609524Y68059048D01*
X64561905Y68011429D01*
X64466667Y67963810D01*
X64085714Y67963810D01*
X65609524Y67487619D02*
X65038095Y67487619D01*
X65323809Y67487619D02*
X65323809Y68487619D01*
X65228571Y68344762D01*
X65133333Y68249524D01*
X65038095Y68201905D01*
X66466667Y68154286D02*
X66466667Y67487619D01*
X66228571Y68535238D02*
X65990476Y67820952D01*
X66609524Y67820952D01*
X76002381Y12127143D02*
X75526190Y11793809D01*
X76002381Y11555714D02*
X75002381Y11555714D01*
X75002381Y11936667D01*
X75050000Y12031905D01*
X75097619Y12079524D01*
X75192857Y12127143D01*
X75335714Y12127143D01*
X75430952Y12079524D01*
X75478571Y12031905D01*
X75526190Y11936667D01*
X75526190Y11555714D01*
X76002381Y13079524D02*
X76002381Y12508095D01*
X76002381Y12793809D02*
X75002381Y12793809D01*
X75145238Y12698571D01*
X75240476Y12603333D01*
X75288095Y12508095D01*
X75002381Y13984286D02*
X75002381Y13508095D01*
X75478571Y13460476D01*
X75430952Y13508095D01*
X75383333Y13603333D01*
X75383333Y13841429D01*
X75430952Y13936667D01*
X75478571Y13984286D01*
X75573810Y14031905D01*
X75811905Y14031905D01*
X75907143Y13984286D01*
X75954762Y13936667D01*
X76002381Y13841429D01*
X76002381Y13603333D01*
X75954762Y13508095D01*
X75907143Y13460476D01*
X12717143Y38257619D02*
X12383809Y38733810D01*
X12145714Y38257619D02*
X12145714Y39257619D01*
X12526667Y39257619D01*
X12621905Y39210000D01*
X12669524Y39162381D01*
X12717143Y39067143D01*
X12717143Y38924286D01*
X12669524Y38829048D01*
X12621905Y38781429D01*
X12526667Y38733810D01*
X12145714Y38733810D01*
X13669524Y38257619D02*
X13098095Y38257619D01*
X13383809Y38257619D02*
X13383809Y39257619D01*
X13288571Y39114762D01*
X13193333Y39019524D01*
X13098095Y38971905D01*
X14002857Y39257619D02*
X14669524Y39257619D01*
X14240952Y38257619D01*
X64257381Y57027143D02*
X63781190Y56693809D01*
X64257381Y56455714D02*
X63257381Y56455714D01*
X63257381Y56836667D01*
X63305000Y56931905D01*
X63352619Y56979524D01*
X63447857Y57027143D01*
X63590714Y57027143D01*
X63685952Y56979524D01*
X63733571Y56931905D01*
X63781190Y56836667D01*
X63781190Y56455714D01*
X63352619Y57408095D02*
X63305000Y57455714D01*
X63257381Y57550952D01*
X63257381Y57789048D01*
X63305000Y57884286D01*
X63352619Y57931905D01*
X63447857Y57979524D01*
X63543095Y57979524D01*
X63685952Y57931905D01*
X64257381Y57360476D01*
X64257381Y57979524D01*
X63352619Y58360476D02*
X63305000Y58408095D01*
X63257381Y58503333D01*
X63257381Y58741429D01*
X63305000Y58836667D01*
X63352619Y58884286D01*
X63447857Y58931905D01*
X63543095Y58931905D01*
X63685952Y58884286D01*
X64257381Y58312857D01*
X64257381Y58931905D01*
X12617143Y26607619D02*
X12283809Y27083810D01*
X12045714Y26607619D02*
X12045714Y27607619D01*
X12426667Y27607619D01*
X12521905Y27560000D01*
X12569524Y27512381D01*
X12617143Y27417143D01*
X12617143Y27274286D01*
X12569524Y27179048D01*
X12521905Y27131429D01*
X12426667Y27083810D01*
X12045714Y27083810D01*
X12998095Y27512381D02*
X13045714Y27560000D01*
X13140952Y27607619D01*
X13379048Y27607619D01*
X13474286Y27560000D01*
X13521905Y27512381D01*
X13569524Y27417143D01*
X13569524Y27321905D01*
X13521905Y27179048D01*
X12950476Y26607619D01*
X13569524Y26607619D01*
X14188571Y27607619D02*
X14283810Y27607619D01*
X14379048Y27560000D01*
X14426667Y27512381D01*
X14474286Y27417143D01*
X14521905Y27226667D01*
X14521905Y26988571D01*
X14474286Y26798095D01*
X14426667Y26702857D01*
X14379048Y26655238D01*
X14283810Y26607619D01*
X14188571Y26607619D01*
X14093333Y26655238D01*
X14045714Y26702857D01*
X13998095Y26798095D01*
X13950476Y26988571D01*
X13950476Y27226667D01*
X13998095Y27417143D01*
X14045714Y27512381D01*
X14093333Y27560000D01*
X14188571Y27607619D01*
X59457143Y17587619D02*
X59123809Y18063810D01*
X58885714Y17587619D02*
X58885714Y18587619D01*
X59266667Y18587619D01*
X59361905Y18540000D01*
X59409524Y18492381D01*
X59457143Y18397143D01*
X59457143Y18254286D01*
X59409524Y18159048D01*
X59361905Y18111429D01*
X59266667Y18063810D01*
X58885714Y18063810D01*
X59838095Y18492381D02*
X59885714Y18540000D01*
X59980952Y18587619D01*
X60219048Y18587619D01*
X60314286Y18540000D01*
X60361905Y18492381D01*
X60409524Y18397143D01*
X60409524Y18301905D01*
X60361905Y18159048D01*
X59790476Y17587619D01*
X60409524Y17587619D01*
X60742857Y18587619D02*
X61361905Y18587619D01*
X61028571Y18206667D01*
X61171429Y18206667D01*
X61266667Y18159048D01*
X61314286Y18111429D01*
X61361905Y18016190D01*
X61361905Y17778095D01*
X61314286Y17682857D01*
X61266667Y17635238D01*
X61171429Y17587619D01*
X60885714Y17587619D01*
X60790476Y17635238D01*
X60742857Y17682857D01*
X61538095Y37987619D02*
X61538095Y37178095D01*
X61585714Y37082857D01*
X61633333Y37035238D01*
X61728571Y36987619D01*
X61919048Y36987619D01*
X62014286Y37035238D01*
X62061905Y37082857D01*
X62109524Y37178095D01*
X62109524Y37987619D01*
X63109524Y36987619D02*
X62538095Y36987619D01*
X62823809Y36987619D02*
X62823809Y37987619D01*
X62728571Y37844762D01*
X62633333Y37749524D01*
X62538095Y37701905D01*
X40968095Y15477619D02*
X40968095Y14668095D01*
X41015714Y14572857D01*
X41063333Y14525238D01*
X41158571Y14477619D01*
X41349048Y14477619D01*
X41444286Y14525238D01*
X41491905Y14572857D01*
X41539524Y14668095D01*
X41539524Y15477619D01*
X41968095Y15382381D02*
X42015714Y15430000D01*
X42110952Y15477619D01*
X42349048Y15477619D01*
X42444286Y15430000D01*
X42491905Y15382381D01*
X42539524Y15287143D01*
X42539524Y15191905D01*
X42491905Y15049048D01*
X41920476Y14477619D01*
X42539524Y14477619D01*
X9251905Y31957619D02*
X9251905Y31148095D01*
X9299524Y31052857D01*
X9347143Y31005238D01*
X9442381Y30957619D01*
X9632858Y30957619D01*
X9728096Y31005238D01*
X9775715Y31052857D01*
X9823334Y31148095D01*
X9823334Y31957619D01*
X10823334Y30957619D02*
X10251905Y30957619D01*
X10537619Y30957619D02*
X10537619Y31957619D01*
X10442381Y31814762D01*
X10347143Y31719524D01*
X10251905Y31671905D01*
X11442381Y31957619D02*
X11537620Y31957619D01*
X11632858Y31910000D01*
X11680477Y31862381D01*
X11728096Y31767143D01*
X11775715Y31576667D01*
X11775715Y31338571D01*
X11728096Y31148095D01*
X11680477Y31052857D01*
X11632858Y31005238D01*
X11537620Y30957619D01*
X11442381Y30957619D01*
X11347143Y31005238D01*
X11299524Y31052857D01*
X11251905Y31148095D01*
X11204286Y31338571D01*
X11204286Y31576667D01*
X11251905Y31767143D01*
X11299524Y31862381D01*
X11347143Y31910000D01*
X11442381Y31957619D01*
X93092381Y14244762D02*
X92616190Y13911428D01*
X93092381Y13673333D02*
X92092381Y13673333D01*
X92092381Y14054286D01*
X92140000Y14149524D01*
X92187619Y14197143D01*
X92282857Y14244762D01*
X92425714Y14244762D01*
X92520952Y14197143D01*
X92568571Y14149524D01*
X92616190Y14054286D01*
X92616190Y13673333D01*
X92092381Y14530476D02*
X93092381Y14863809D01*
X92092381Y15197143D01*
X93092381Y16054286D02*
X93092381Y15482857D01*
X93092381Y15768571D02*
X92092381Y15768571D01*
X92235238Y15673333D01*
X92330476Y15578095D01*
X92378095Y15482857D01*
X70902381Y14474762D02*
X70426190Y14141428D01*
X70902381Y13903333D02*
X69902381Y13903333D01*
X69902381Y14284286D01*
X69950000Y14379524D01*
X69997619Y14427143D01*
X70092857Y14474762D01*
X70235714Y14474762D01*
X70330952Y14427143D01*
X70378571Y14379524D01*
X70426190Y14284286D01*
X70426190Y13903333D01*
X69902381Y14760476D02*
X70902381Y15093809D01*
X69902381Y15427143D01*
X69997619Y15712857D02*
X69950000Y15760476D01*
X69902381Y15855714D01*
X69902381Y16093810D01*
X69950000Y16189048D01*
X69997619Y16236667D01*
X70092857Y16284286D01*
X70188095Y16284286D01*
X70330952Y16236667D01*
X70902381Y15665238D01*
X70902381Y16284286D01*
X11438095Y16987619D02*
X11438095Y16178095D01*
X11485714Y16082857D01*
X11533333Y16035238D01*
X11628571Y15987619D01*
X11819048Y15987619D01*
X11914286Y16035238D01*
X11961905Y16082857D01*
X12009524Y16178095D01*
X12009524Y16987619D01*
X12390476Y16987619D02*
X13009524Y16987619D01*
X12676190Y16606667D01*
X12819048Y16606667D01*
X12914286Y16559048D01*
X12961905Y16511429D01*
X13009524Y16416190D01*
X13009524Y16178095D01*
X12961905Y16082857D01*
X12914286Y16035238D01*
X12819048Y15987619D01*
X12533333Y15987619D01*
X12438095Y16035238D01*
X12390476Y16082857D01*
X50797143Y11967143D02*
X50844762Y11919524D01*
X50892381Y11776667D01*
X50892381Y11681429D01*
X50844762Y11538571D01*
X50749524Y11443333D01*
X50654286Y11395714D01*
X50463810Y11348095D01*
X50320952Y11348095D01*
X50130476Y11395714D01*
X50035238Y11443333D01*
X49940000Y11538571D01*
X49892381Y11681429D01*
X49892381Y11776667D01*
X49940000Y11919524D01*
X49987619Y11967143D01*
X50892381Y12919524D02*
X50892381Y12348095D01*
X50892381Y12633809D02*
X49892381Y12633809D01*
X50035238Y12538571D01*
X50130476Y12443333D01*
X50178095Y12348095D01*
X49892381Y13538571D02*
X49892381Y13633810D01*
X49940000Y13729048D01*
X49987619Y13776667D01*
X50082857Y13824286D01*
X50273333Y13871905D01*
X50511429Y13871905D01*
X50701905Y13824286D01*
X50797143Y13776667D01*
X50844762Y13729048D01*
X50892381Y13633810D01*
X50892381Y13538571D01*
X50844762Y13443333D01*
X50797143Y13395714D01*
X50701905Y13348095D01*
X50511429Y13300476D01*
X50273333Y13300476D01*
X50082857Y13348095D01*
X49987619Y13395714D01*
X49940000Y13443333D01*
X49892381Y13538571D01*
X2583334Y337619D02*
X2250000Y813810D01*
X2011905Y337619D02*
X2011905Y1337619D01*
X2392858Y1337619D01*
X2488096Y1290000D01*
X2535715Y1242381D01*
X2583334Y1147143D01*
X2583334Y1004286D01*
X2535715Y909048D01*
X2488096Y861429D01*
X2392858Y813810D01*
X2011905Y813810D01*
X3488096Y1337619D02*
X3011905Y1337619D01*
X2964286Y861429D01*
X3011905Y909048D01*
X3107143Y956667D01*
X3345239Y956667D01*
X3440477Y909048D01*
X3488096Y861429D01*
X3535715Y766190D01*
X3535715Y528095D01*
X3488096Y432857D01*
X3440477Y385238D01*
X3345239Y337619D01*
X3107143Y337619D01*
X3011905Y385238D01*
X2964286Y432857D01*
X64802381Y48623334D02*
X64326190Y48290000D01*
X64802381Y48051905D02*
X63802381Y48051905D01*
X63802381Y48432858D01*
X63850000Y48528096D01*
X63897619Y48575715D01*
X63992857Y48623334D01*
X64135714Y48623334D01*
X64230952Y48575715D01*
X64278571Y48528096D01*
X64326190Y48432858D01*
X64326190Y48051905D01*
X63802381Y49480477D02*
X63802381Y49290000D01*
X63850000Y49194762D01*
X63897619Y49147143D01*
X64040476Y49051905D01*
X64230952Y49004286D01*
X64611905Y49004286D01*
X64707143Y49051905D01*
X64754762Y49099524D01*
X64802381Y49194762D01*
X64802381Y49385239D01*
X64754762Y49480477D01*
X64707143Y49528096D01*
X64611905Y49575715D01*
X64373810Y49575715D01*
X64278571Y49528096D01*
X64230952Y49480477D01*
X64183333Y49385239D01*
X64183333Y49194762D01*
X64230952Y49099524D01*
X64278571Y49051905D01*
X64373810Y49004286D01*
X66652381Y48623334D02*
X66176190Y48290000D01*
X66652381Y48051905D02*
X65652381Y48051905D01*
X65652381Y48432858D01*
X65700000Y48528096D01*
X65747619Y48575715D01*
X65842857Y48623334D01*
X65985714Y48623334D01*
X66080952Y48575715D01*
X66128571Y48528096D01*
X66176190Y48432858D01*
X66176190Y48051905D01*
X65652381Y48956667D02*
X65652381Y49623334D01*
X66652381Y49194762D01*
X50333334Y25832857D02*
X50285715Y25785238D01*
X50142858Y25737619D01*
X50047620Y25737619D01*
X49904762Y25785238D01*
X49809524Y25880476D01*
X49761905Y25975714D01*
X49714286Y26166190D01*
X49714286Y26309048D01*
X49761905Y26499524D01*
X49809524Y26594762D01*
X49904762Y26690000D01*
X50047620Y26737619D01*
X50142858Y26737619D01*
X50285715Y26690000D01*
X50333334Y26642381D01*
X51190477Y26404286D02*
X51190477Y25737619D01*
X50952381Y26785238D02*
X50714286Y26070952D01*
X51333334Y26070952D01*
X52359048Y29938571D02*
X53120953Y29938571D01*
X52740001Y29557619D02*
X52740001Y30319524D01*
X67553334Y22132857D02*
X67505715Y22085238D01*
X67362858Y22037619D01*
X67267620Y22037619D01*
X67124762Y22085238D01*
X67029524Y22180476D01*
X66981905Y22275714D01*
X66934286Y22466190D01*
X66934286Y22609048D01*
X66981905Y22799524D01*
X67029524Y22894762D01*
X67124762Y22990000D01*
X67267620Y23037619D01*
X67362858Y23037619D01*
X67505715Y22990000D01*
X67553334Y22942381D01*
X68458096Y23037619D02*
X67981905Y23037619D01*
X67934286Y22561429D01*
X67981905Y22609048D01*
X68077143Y22656667D01*
X68315239Y22656667D01*
X68410477Y22609048D01*
X68458096Y22561429D01*
X68505715Y22466190D01*
X68505715Y22228095D01*
X68458096Y22132857D01*
X68410477Y22085238D01*
X68315239Y22037619D01*
X68077143Y22037619D01*
X67981905Y22085238D01*
X67934286Y22132857D01*
X64969048Y23618571D02*
X65730953Y23618571D01*
X65350001Y23237619D02*
X65350001Y23999524D01*
X58433334Y48632857D02*
X58385715Y48585238D01*
X58242858Y48537619D01*
X58147620Y48537619D01*
X58004762Y48585238D01*
X57909524Y48680476D01*
X57861905Y48775714D01*
X57814286Y48966190D01*
X57814286Y49109048D01*
X57861905Y49299524D01*
X57909524Y49394762D01*
X58004762Y49490000D01*
X58147620Y49537619D01*
X58242858Y49537619D01*
X58385715Y49490000D01*
X58433334Y49442381D01*
X58909524Y48537619D02*
X59100000Y48537619D01*
X59195239Y48585238D01*
X59242858Y48632857D01*
X59338096Y48775714D01*
X59385715Y48966190D01*
X59385715Y49347143D01*
X59338096Y49442381D01*
X59290477Y49490000D01*
X59195239Y49537619D01*
X59004762Y49537619D01*
X58909524Y49490000D01*
X58861905Y49442381D01*
X58814286Y49347143D01*
X58814286Y49109048D01*
X58861905Y49013810D01*
X58909524Y48966190D01*
X59004762Y48918571D01*
X59195239Y48918571D01*
X59290477Y48966190D01*
X59338096Y49013810D01*
X59385715Y49109048D01*
X55899048Y45018571D02*
X56660953Y45018571D01*
X56280001Y44637619D02*
X56280001Y45399524D01*
X88917143Y38547143D02*
X88964762Y38499524D01*
X89012381Y38356667D01*
X89012381Y38261429D01*
X88964762Y38118571D01*
X88869524Y38023333D01*
X88774286Y37975714D01*
X88583810Y37928095D01*
X88440952Y37928095D01*
X88250476Y37975714D01*
X88155238Y38023333D01*
X88060000Y38118571D01*
X88012381Y38261429D01*
X88012381Y38356667D01*
X88060000Y38499524D01*
X88107619Y38547143D01*
X88012381Y38880476D02*
X88012381Y39499524D01*
X88393333Y39166190D01*
X88393333Y39309048D01*
X88440952Y39404286D01*
X88488571Y39451905D01*
X88583810Y39499524D01*
X88821905Y39499524D01*
X88917143Y39451905D01*
X88964762Y39404286D01*
X89012381Y39309048D01*
X89012381Y39023333D01*
X88964762Y38928095D01*
X88917143Y38880476D01*
X88107619Y39880476D02*
X88060000Y39928095D01*
X88012381Y40023333D01*
X88012381Y40261429D01*
X88060000Y40356667D01*
X88107619Y40404286D01*
X88202857Y40451905D01*
X88298095Y40451905D01*
X88440952Y40404286D01*
X89012381Y39832857D01*
X89012381Y40451905D01*
X82409048Y37768571D02*
X83170953Y37768571D01*
X82790001Y37387619D02*
X82790001Y38149524D01*
X87886905Y-1437381D02*
X87886905Y-437381D01*
X88267858Y-437381D01*
X88363096Y-485000D01*
X88410715Y-532619D01*
X88458334Y-627857D01*
X88458334Y-770714D01*
X88410715Y-865952D01*
X88363096Y-913571D01*
X88267858Y-961190D01*
X87886905Y-961190D01*
X89315477Y-770714D02*
X89315477Y-1437381D01*
X89077381Y-389762D02*
X88839286Y-1104048D01*
X89458334Y-1104048D01*
X76836905Y-1437381D02*
X76836905Y-437381D01*
X77217858Y-437381D01*
X77313096Y-485000D01*
X77360715Y-532619D01*
X77408334Y-627857D01*
X77408334Y-770714D01*
X77360715Y-865952D01*
X77313096Y-913571D01*
X77217858Y-961190D01*
X76836905Y-961190D01*
X78265477Y-437381D02*
X78075000Y-437381D01*
X77979762Y-485000D01*
X77932143Y-532619D01*
X77836905Y-675476D01*
X77789286Y-865952D01*
X77789286Y-1246905D01*
X77836905Y-1342143D01*
X77884524Y-1389762D01*
X77979762Y-1437381D01*
X78170239Y-1437381D01*
X78265477Y-1389762D01*
X78313096Y-1342143D01*
X78360715Y-1246905D01*
X78360715Y-1008810D01*
X78313096Y-913571D01*
X78265477Y-865952D01*
X78170239Y-818333D01*
X77979762Y-818333D01*
X77884524Y-865952D01*
X77836905Y-913571D01*
X77789286Y-1008810D01*
X60422381Y54217143D02*
X59946190Y53883809D01*
X60422381Y53645714D02*
X59422381Y53645714D01*
X59422381Y54026667D01*
X59470000Y54121905D01*
X59517619Y54169524D01*
X59612857Y54217143D01*
X59755714Y54217143D01*
X59850952Y54169524D01*
X59898571Y54121905D01*
X59946190Y54026667D01*
X59946190Y53645714D01*
X60422381Y55169524D02*
X60422381Y54598095D01*
X60422381Y54883809D02*
X59422381Y54883809D01*
X59565238Y54788571D01*
X59660476Y54693333D01*
X59708095Y54598095D01*
X59422381Y56026667D02*
X59422381Y55836190D01*
X59470000Y55740952D01*
X59517619Y55693333D01*
X59660476Y55598095D01*
X59850952Y55550476D01*
X60231905Y55550476D01*
X60327143Y55598095D01*
X60374762Y55645714D01*
X60422381Y55740952D01*
X60422381Y55931429D01*
X60374762Y56026667D01*
X60327143Y56074286D01*
X60231905Y56121905D01*
X59993810Y56121905D01*
X59898571Y56074286D01*
X59850952Y56026667D01*
X59803333Y55931429D01*
X59803333Y55740952D01*
X59850952Y55645714D01*
X59898571Y55598095D01*
X59993810Y55550476D01*
X62232381Y54247143D02*
X61756190Y53913809D01*
X62232381Y53675714D02*
X61232381Y53675714D01*
X61232381Y54056667D01*
X61280000Y54151905D01*
X61327619Y54199524D01*
X61422857Y54247143D01*
X61565714Y54247143D01*
X61660952Y54199524D01*
X61708571Y54151905D01*
X61756190Y54056667D01*
X61756190Y53675714D01*
X62232381Y55199524D02*
X62232381Y54628095D01*
X62232381Y54913809D02*
X61232381Y54913809D01*
X61375238Y54818571D01*
X61470476Y54723333D01*
X61518095Y54628095D01*
X62232381Y55675714D02*
X62232381Y55866190D01*
X62184762Y55961429D01*
X62137143Y56009048D01*
X61994286Y56104286D01*
X61803810Y56151905D01*
X61422857Y56151905D01*
X61327619Y56104286D01*
X61280000Y56056667D01*
X61232381Y55961429D01*
X61232381Y55770952D01*
X61280000Y55675714D01*
X61327619Y55628095D01*
X61422857Y55580476D01*
X61660952Y55580476D01*
X61756190Y55628095D01*
X61803810Y55675714D01*
X61851429Y55770952D01*
X61851429Y55961429D01*
X61803810Y56056667D01*
X61756190Y56104286D01*
X61660952Y56151905D01*
X23437143Y26782857D02*
X23389524Y26735238D01*
X23246667Y26687619D01*
X23151429Y26687619D01*
X23008571Y26735238D01*
X22913333Y26830476D01*
X22865714Y26925714D01*
X22818095Y27116190D01*
X22818095Y27259048D01*
X22865714Y27449524D01*
X22913333Y27544762D01*
X23008571Y27640000D01*
X23151429Y27687619D01*
X23246667Y27687619D01*
X23389524Y27640000D01*
X23437143Y27592381D01*
X23770476Y27687619D02*
X24389524Y27687619D01*
X24056190Y27306667D01*
X24199048Y27306667D01*
X24294286Y27259048D01*
X24341905Y27211429D01*
X24389524Y27116190D01*
X24389524Y26878095D01*
X24341905Y26782857D01*
X24294286Y26735238D01*
X24199048Y26687619D01*
X23913333Y26687619D01*
X23818095Y26735238D01*
X23770476Y26782857D01*
X25341905Y26687619D02*
X24770476Y26687619D01*
X25056190Y26687619D02*
X25056190Y27687619D01*
X24960952Y27544762D01*
X24865714Y27449524D01*
X24770476Y27401905D01*
X28837143Y26487619D02*
X28503809Y26963810D01*
X28265714Y26487619D02*
X28265714Y27487619D01*
X28646667Y27487619D01*
X28741905Y27440000D01*
X28789524Y27392381D01*
X28837143Y27297143D01*
X28837143Y27154286D01*
X28789524Y27059048D01*
X28741905Y27011429D01*
X28646667Y26963810D01*
X28265714Y26963810D01*
X29218095Y27392381D02*
X29265714Y27440000D01*
X29360952Y27487619D01*
X29599048Y27487619D01*
X29694286Y27440000D01*
X29741905Y27392381D01*
X29789524Y27297143D01*
X29789524Y27201905D01*
X29741905Y27059048D01*
X29170476Y26487619D01*
X29789524Y26487619D01*
X30741905Y26487619D02*
X30170476Y26487619D01*
X30456190Y26487619D02*
X30456190Y27487619D01*
X30360952Y27344762D01*
X30265714Y27249524D01*
X30170476Y27201905D01*
X91592381Y37658095D02*
X92401905Y37658095D01*
X92497143Y37705714D01*
X92544762Y37753333D01*
X92592381Y37848571D01*
X92592381Y38039048D01*
X92544762Y38134286D01*
X92497143Y38181905D01*
X92401905Y38229524D01*
X91592381Y38229524D01*
X91925714Y39134286D02*
X92592381Y39134286D01*
X91544762Y38896190D02*
X92259048Y38658095D01*
X92259048Y39277143D01*
X85428095Y51047619D02*
X85428095Y50238095D01*
X85475714Y50142857D01*
X85523333Y50095238D01*
X85618571Y50047619D01*
X85809048Y50047619D01*
X85904286Y50095238D01*
X85951905Y50142857D01*
X85999524Y50238095D01*
X85999524Y51047619D01*
X86618571Y50619048D02*
X86523333Y50666667D01*
X86475714Y50714286D01*
X86428095Y50809524D01*
X86428095Y50857143D01*
X86475714Y50952381D01*
X86523333Y51000000D01*
X86618571Y51047619D01*
X86809048Y51047619D01*
X86904286Y51000000D01*
X86951905Y50952381D01*
X86999524Y50857143D01*
X86999524Y50809524D01*
X86951905Y50714286D01*
X86904286Y50666667D01*
X86809048Y50619048D01*
X86618571Y50619048D01*
X86523333Y50571429D01*
X86475714Y50523810D01*
X86428095Y50428571D01*
X86428095Y50238095D01*
X86475714Y50142857D01*
X86523333Y50095238D01*
X86618571Y50047619D01*
X86809048Y50047619D01*
X86904286Y50095238D01*
X86951905Y50142857D01*
X86999524Y50238095D01*
X86999524Y50428571D01*
X86951905Y50523810D01*
X86904286Y50571429D01*
X86809048Y50619048D01*
X92858095Y42817619D02*
X92858095Y42008095D01*
X92905714Y41912857D01*
X92953333Y41865238D01*
X93048571Y41817619D01*
X93239048Y41817619D01*
X93334286Y41865238D01*
X93381905Y41912857D01*
X93429524Y42008095D01*
X93429524Y42817619D01*
X93953333Y41817619D02*
X94143809Y41817619D01*
X94239048Y41865238D01*
X94286667Y41912857D01*
X94381905Y42055714D01*
X94429524Y42246190D01*
X94429524Y42627143D01*
X94381905Y42722381D01*
X94334286Y42770000D01*
X94239048Y42817619D01*
X94048571Y42817619D01*
X93953333Y42770000D01*
X93905714Y42722381D01*
X93858095Y42627143D01*
X93858095Y42389048D01*
X93905714Y42293810D01*
X93953333Y42246190D01*
X94048571Y42198571D01*
X94239048Y42198571D01*
X94334286Y42246190D01*
X94381905Y42293810D01*
X94429524Y42389048D01*
D15*
X83462381Y35179524D02*
X83462381Y35017619D01*
X83471905Y34998571D01*
X83481429Y34989048D01*
X83500476Y34979524D01*
X83538572Y34979524D01*
X83557619Y34989048D01*
X83567143Y34998571D01*
X83576667Y35017619D01*
X83576667Y35179524D01*
X83776667Y34979524D02*
X83662381Y34979524D01*
X83719524Y34979524D02*
X83719524Y35179524D01*
X83700476Y35150952D01*
X83681429Y35131905D01*
X83662381Y35122381D01*
X83852857Y35160476D02*
X83862381Y35170000D01*
X83881429Y35179524D01*
X83929048Y35179524D01*
X83948095Y35170000D01*
X83957619Y35160476D01*
X83967143Y35141429D01*
X83967143Y35122381D01*
X83957619Y35093810D01*
X83843333Y34979524D01*
X83967143Y34979524D01*
D11*
X25641905Y32137619D02*
X25641905Y31328095D01*
X25689524Y31232857D01*
X25737143Y31185238D01*
X25832381Y31137619D01*
X26022858Y31137619D01*
X26118096Y31185238D01*
X26165715Y31232857D01*
X26213334Y31328095D01*
X26213334Y32137619D01*
X27213334Y31137619D02*
X26641905Y31137619D01*
X26927619Y31137619D02*
X26927619Y32137619D01*
X26832381Y31994762D01*
X26737143Y31899524D01*
X26641905Y31851905D01*
X28165715Y31137619D02*
X27594286Y31137619D01*
X27880000Y31137619D02*
X27880000Y32137619D01*
X27784762Y31994762D01*
X27689524Y31899524D01*
X27594286Y31851905D01*
X89492381Y26045714D02*
X88492381Y26045714D01*
X88492381Y26426667D01*
X88540000Y26521905D01*
X88587619Y26569524D01*
X88682857Y26617143D01*
X88825714Y26617143D01*
X88920952Y26569524D01*
X88968571Y26521905D01*
X89016190Y26426667D01*
X89016190Y26045714D01*
X88587619Y26998095D02*
X88540000Y27045714D01*
X88492381Y27140952D01*
X88492381Y27379048D01*
X88540000Y27474286D01*
X88587619Y27521905D01*
X88682857Y27569524D01*
X88778095Y27569524D01*
X88920952Y27521905D01*
X89492381Y26950476D01*
X89492381Y27569524D01*
X88492381Y28426667D02*
X88492381Y28236190D01*
X88540000Y28140952D01*
X88587619Y28093333D01*
X88730476Y27998095D01*
X88920952Y27950476D01*
X89301905Y27950476D01*
X89397143Y27998095D01*
X89444762Y28045714D01*
X89492381Y28140952D01*
X89492381Y28331429D01*
X89444762Y28426667D01*
X89397143Y28474286D01*
X89301905Y28521905D01*
X89063810Y28521905D01*
X88968571Y28474286D01*
X88920952Y28426667D01*
X88873333Y28331429D01*
X88873333Y28140952D01*
X88920952Y28045714D01*
X88968571Y27998095D01*
X89063810Y27950476D01*
X77597619Y23764762D02*
X77550000Y23669524D01*
X77454762Y23574286D01*
X77311905Y23431429D01*
X77264286Y23336190D01*
X77264286Y23240952D01*
X77502381Y23288571D02*
X77454762Y23193333D01*
X77359524Y23098095D01*
X77169048Y23050476D01*
X76835714Y23050476D01*
X76645238Y23098095D01*
X76550000Y23193333D01*
X76502381Y23288571D01*
X76502381Y23479048D01*
X76550000Y23574286D01*
X76645238Y23669524D01*
X76835714Y23717143D01*
X77169048Y23717143D01*
X77359524Y23669524D01*
X77454762Y23574286D01*
X77502381Y23479048D01*
X77502381Y23288571D01*
X76835714Y24574286D02*
X77502381Y24574286D01*
X76454762Y24336190D02*
X77169048Y24098095D01*
X77169048Y24717143D01*
X77597619Y27044762D02*
X77550000Y26949524D01*
X77454762Y26854286D01*
X77311905Y26711429D01*
X77264286Y26616190D01*
X77264286Y26520952D01*
X77502381Y26568571D02*
X77454762Y26473333D01*
X77359524Y26378095D01*
X77169048Y26330476D01*
X76835714Y26330476D01*
X76645238Y26378095D01*
X76550000Y26473333D01*
X76502381Y26568571D01*
X76502381Y26759048D01*
X76550000Y26854286D01*
X76645238Y26949524D01*
X76835714Y26997143D01*
X77169048Y26997143D01*
X77359524Y26949524D01*
X77454762Y26854286D01*
X77502381Y26759048D01*
X77502381Y26568571D01*
X76502381Y27901905D02*
X76502381Y27425714D01*
X76978571Y27378095D01*
X76930952Y27425714D01*
X76883333Y27520952D01*
X76883333Y27759048D01*
X76930952Y27854286D01*
X76978571Y27901905D01*
X77073810Y27949524D01*
X77311905Y27949524D01*
X77407143Y27901905D01*
X77454762Y27854286D01*
X77502381Y27759048D01*
X77502381Y27520952D01*
X77454762Y27425714D01*
X77407143Y27378095D01*
X76687143Y31217619D02*
X76353809Y31693810D01*
X76115714Y31217619D02*
X76115714Y32217619D01*
X76496667Y32217619D01*
X76591905Y32170000D01*
X76639524Y32122381D01*
X76687143Y32027143D01*
X76687143Y31884286D01*
X76639524Y31789048D01*
X76591905Y31741429D01*
X76496667Y31693810D01*
X76115714Y31693810D01*
X77068095Y32122381D02*
X77115714Y32170000D01*
X77210952Y32217619D01*
X77449048Y32217619D01*
X77544286Y32170000D01*
X77591905Y32122381D01*
X77639524Y32027143D01*
X77639524Y31931905D01*
X77591905Y31789048D01*
X77020476Y31217619D01*
X77639524Y31217619D01*
X78496667Y31884286D02*
X78496667Y31217619D01*
X78258571Y32265238D02*
X78020476Y31550952D01*
X78639524Y31550952D01*
X76727143Y29417619D02*
X76393809Y29893810D01*
X76155714Y29417619D02*
X76155714Y30417619D01*
X76536667Y30417619D01*
X76631905Y30370000D01*
X76679524Y30322381D01*
X76727143Y30227143D01*
X76727143Y30084286D01*
X76679524Y29989048D01*
X76631905Y29941429D01*
X76536667Y29893810D01*
X76155714Y29893810D01*
X77108095Y30322381D02*
X77155714Y30370000D01*
X77250952Y30417619D01*
X77489048Y30417619D01*
X77584286Y30370000D01*
X77631905Y30322381D01*
X77679524Y30227143D01*
X77679524Y30131905D01*
X77631905Y29989048D01*
X77060476Y29417619D01*
X77679524Y29417619D01*
X78584286Y30417619D02*
X78108095Y30417619D01*
X78060476Y29941429D01*
X78108095Y29989048D01*
X78203333Y30036667D01*
X78441429Y30036667D01*
X78536667Y29989048D01*
X78584286Y29941429D01*
X78631905Y29846190D01*
X78631905Y29608095D01*
X78584286Y29512857D01*
X78536667Y29465238D01*
X78441429Y29417619D01*
X78203333Y29417619D01*
X78108095Y29465238D01*
X78060476Y29512857D01*
X74002381Y23577143D02*
X73526190Y23243809D01*
X74002381Y23005714D02*
X73002381Y23005714D01*
X73002381Y23386667D01*
X73050000Y23481905D01*
X73097619Y23529524D01*
X73192857Y23577143D01*
X73335714Y23577143D01*
X73430952Y23529524D01*
X73478571Y23481905D01*
X73526190Y23386667D01*
X73526190Y23005714D01*
X73097619Y23958095D02*
X73050000Y24005714D01*
X73002381Y24100952D01*
X73002381Y24339048D01*
X73050000Y24434286D01*
X73097619Y24481905D01*
X73192857Y24529524D01*
X73288095Y24529524D01*
X73430952Y24481905D01*
X74002381Y23910476D01*
X74002381Y24529524D01*
X73002381Y25386667D02*
X73002381Y25196190D01*
X73050000Y25100952D01*
X73097619Y25053333D01*
X73240476Y24958095D01*
X73430952Y24910476D01*
X73811905Y24910476D01*
X73907143Y24958095D01*
X73954762Y25005714D01*
X74002381Y25100952D01*
X74002381Y25291429D01*
X73954762Y25386667D01*
X73907143Y25434286D01*
X73811905Y25481905D01*
X73573810Y25481905D01*
X73478571Y25434286D01*
X73430952Y25386667D01*
X73383333Y25291429D01*
X73383333Y25100952D01*
X73430952Y25005714D01*
X73478571Y24958095D01*
X73573810Y24910476D01*
X75592381Y32287143D02*
X75116190Y31953809D01*
X75592381Y31715714D02*
X74592381Y31715714D01*
X74592381Y32096667D01*
X74640000Y32191905D01*
X74687619Y32239524D01*
X74782857Y32287143D01*
X74925714Y32287143D01*
X75020952Y32239524D01*
X75068571Y32191905D01*
X75116190Y32096667D01*
X75116190Y31715714D01*
X74687619Y32668095D02*
X74640000Y32715714D01*
X74592381Y32810952D01*
X74592381Y33049048D01*
X74640000Y33144286D01*
X74687619Y33191905D01*
X74782857Y33239524D01*
X74878095Y33239524D01*
X75020952Y33191905D01*
X75592381Y32620476D01*
X75592381Y33239524D01*
X74592381Y33572857D02*
X74592381Y34239524D01*
X75592381Y33810952D01*
X83311905Y59577619D02*
X83311905Y60577619D01*
X83692858Y60577619D01*
X83788096Y60530000D01*
X83835715Y60482381D01*
X83883334Y60387143D01*
X83883334Y60244286D01*
X83835715Y60149048D01*
X83788096Y60101429D01*
X83692858Y60053810D01*
X83311905Y60053810D01*
X84454762Y60149048D02*
X84359524Y60196667D01*
X84311905Y60244286D01*
X84264286Y60339524D01*
X84264286Y60387143D01*
X84311905Y60482381D01*
X84359524Y60530000D01*
X84454762Y60577619D01*
X84645239Y60577619D01*
X84740477Y60530000D01*
X84788096Y60482381D01*
X84835715Y60387143D01*
X84835715Y60339524D01*
X84788096Y60244286D01*
X84740477Y60196667D01*
X84645239Y60149048D01*
X84454762Y60149048D01*
X84359524Y60101429D01*
X84311905Y60053810D01*
X84264286Y59958571D01*
X84264286Y59768095D01*
X84311905Y59672857D01*
X84359524Y59625238D01*
X84454762Y59577619D01*
X84645239Y59577619D01*
X84740477Y59625238D01*
X84788096Y59672857D01*
X84835715Y59768095D01*
X84835715Y59958571D01*
X84788096Y60053810D01*
X84740477Y60101429D01*
X84645239Y60149048D01*
X49028095Y68817619D02*
X49028095Y68008095D01*
X49075714Y67912857D01*
X49123333Y67865238D01*
X49218571Y67817619D01*
X49409048Y67817619D01*
X49504286Y67865238D01*
X49551905Y67912857D01*
X49599524Y68008095D01*
X49599524Y68817619D01*
X49980476Y68817619D02*
X50647143Y68817619D01*
X50218571Y67817619D01*
X41301905Y3897619D02*
X41301905Y4897619D01*
X41682858Y4897619D01*
X41778096Y4850000D01*
X41825715Y4802381D01*
X41873334Y4707143D01*
X41873334Y4564286D01*
X41825715Y4469048D01*
X41778096Y4421429D01*
X41682858Y4373810D01*
X41301905Y4373810D01*
X42254286Y4802381D02*
X42301905Y4850000D01*
X42397143Y4897619D01*
X42635239Y4897619D01*
X42730477Y4850000D01*
X42778096Y4802381D01*
X42825715Y4707143D01*
X42825715Y4611905D01*
X42778096Y4469048D01*
X42206667Y3897619D01*
X42825715Y3897619D01*
X82502381Y14228095D02*
X83311905Y14228095D01*
X83407143Y14275714D01*
X83454762Y14323333D01*
X83502381Y14418571D01*
X83502381Y14609048D01*
X83454762Y14704286D01*
X83407143Y14751905D01*
X83311905Y14799524D01*
X82502381Y14799524D01*
X82502381Y15751905D02*
X82502381Y15275714D01*
X82978571Y15228095D01*
X82930952Y15275714D01*
X82883333Y15370952D01*
X82883333Y15609048D01*
X82930952Y15704286D01*
X82978571Y15751905D01*
X83073810Y15799524D01*
X83311905Y15799524D01*
X83407143Y15751905D01*
X83454762Y15704286D01*
X83502381Y15609048D01*
X83502381Y15370952D01*
X83454762Y15275714D01*
X83407143Y15228095D01*
X75602381Y13751905D02*
X76411905Y13751905D01*
X76507143Y13799524D01*
X76554762Y13847143D01*
X76602381Y13942381D01*
X76602381Y14132858D01*
X76554762Y14228096D01*
X76507143Y14275715D01*
X76411905Y14323334D01*
X75602381Y14323334D01*
X76602381Y15323334D02*
X76602381Y14751905D01*
X76602381Y15037619D02*
X75602381Y15037619D01*
X75745238Y14942381D01*
X75840476Y14847143D01*
X75888095Y14751905D01*
X75602381Y15656667D02*
X75602381Y16275715D01*
X75983333Y15942381D01*
X75983333Y16085239D01*
X76030952Y16180477D01*
X76078571Y16228096D01*
X76173810Y16275715D01*
X76411905Y16275715D01*
X76507143Y16228096D01*
X76554762Y16180477D01*
X76602381Y16085239D01*
X76602381Y15799524D01*
X76554762Y15704286D01*
X76507143Y15656667D01*
%LPC*%
D16*
X93500000Y50290000D03*
X93500000Y45890000D03*
D17*
X84080000Y48430000D03*
X84080000Y45930000D03*
X89980000Y49410000D03*
X89980000Y46910000D03*
D18*
X50750000Y41540000D03*
X50750000Y33040000D03*
D19*
X60840000Y22270000D03*
D20*
X9530000Y60090000D03*
X9530000Y58820000D03*
X9530000Y57550000D03*
X9530000Y56280000D03*
X9530000Y55010000D03*
X23030000Y55010000D03*
X23030000Y56280000D03*
X23030000Y57550000D03*
X23030000Y58820000D03*
X23030000Y60090000D03*
D21*
X13530000Y54010000D03*
D17*
X48840000Y16070000D03*
X48840000Y18570000D03*
D16*
X32220000Y6440000D03*
X32220000Y2040000D03*
D22*
X57950000Y28240000D03*
X60450000Y28240000D03*
D17*
X47200000Y41540000D03*
X47200000Y39040000D03*
X47200000Y33040000D03*
X47200000Y35540000D03*
X32890000Y12260000D03*
X32890000Y14760000D03*
D22*
X24440000Y9150000D03*
X26940000Y9150000D03*
X64450000Y28250000D03*
X66950000Y28250000D03*
X16850000Y12340000D03*
X19350000Y12340000D03*
D17*
X54450000Y34940000D03*
X54450000Y32440000D03*
X64950000Y4790000D03*
X64950000Y2290000D03*
D22*
X59950000Y43740000D03*
X57450000Y43740000D03*
D16*
X18700000Y14990000D03*
X18700000Y19390000D03*
D17*
X69600000Y38040000D03*
X69600000Y40540000D03*
X64950000Y12490000D03*
X64950000Y9990000D03*
D16*
X5700000Y19390000D03*
X5700000Y14990000D03*
D22*
X7500000Y12240000D03*
X5000000Y12240000D03*
X95440000Y40400000D03*
X92940000Y40400000D03*
X9290000Y53060000D03*
X11790000Y53060000D03*
X95440000Y36500000D03*
X92940000Y36500000D03*
D17*
X38270000Y64650000D03*
X38270000Y62150000D03*
D22*
X6410000Y28560000D03*
X8910000Y28560000D03*
X85960000Y44420000D03*
X88460000Y44420000D03*
X83820000Y36570000D03*
X86320000Y36570000D03*
D17*
X43050000Y37940000D03*
X43050000Y40440000D03*
D23*
X27500000Y1440000D03*
X25400000Y1440000D03*
D24*
X4750000Y9290000D03*
D19*
X4750000Y6730000D03*
D25*
X35560000Y9980000D03*
X35560000Y13980000D03*
D26*
X62650000Y4790000D03*
D27*
X57570000Y4790000D03*
D26*
X62640000Y12490000D03*
D27*
X57560000Y12490000D03*
D28*
X9400000Y4690000D03*
D29*
X14400000Y4690000D03*
D19*
X40325000Y41810000D03*
D30*
X40325000Y39270000D03*
X40325000Y36730000D03*
X40325000Y34190000D03*
X40325000Y31650000D03*
X40325000Y29110000D03*
D19*
X43650000Y21330000D03*
D30*
X46190000Y21330000D03*
D19*
X71980000Y61070000D03*
D30*
X69440000Y61070000D03*
D19*
X90500000Y53300000D03*
D30*
X87960000Y53300000D03*
D19*
X23150000Y50860000D03*
D30*
X20610000Y50860000D03*
X18070000Y50860000D03*
X15530000Y50860000D03*
X12990000Y50860000D03*
X10450000Y50860000D03*
D19*
X11420000Y24340000D03*
D30*
X13960000Y24340000D03*
X16500000Y24340000D03*
D19*
X66590000Y61050000D03*
X63560000Y22270000D03*
X69300000Y2990000D03*
D30*
X69300000Y5530000D03*
X69300000Y8070000D03*
D31*
X22050000Y1265000D03*
X22050000Y3165000D03*
X19050000Y2215000D03*
X22050000Y4865000D03*
X22050000Y6765000D03*
X19050000Y5815000D03*
X22050000Y8465000D03*
X22050000Y10365000D03*
X19050000Y9415000D03*
D32*
X25580000Y37190000D03*
X22880000Y37190000D03*
D33*
X62350000Y43790000D03*
X62350000Y46490000D03*
D32*
X24350000Y3390000D03*
X27050000Y3390000D03*
X24350000Y5290000D03*
X27050000Y5290000D03*
X27050000Y7190000D03*
X24350000Y7190000D03*
D33*
X12980000Y48230000D03*
X12980000Y45530000D03*
X38300000Y59580000D03*
X38300000Y56880000D03*
X23150000Y48240000D03*
X23150000Y45540000D03*
X10450000Y44170000D03*
X10450000Y46870000D03*
X90380000Y12300000D03*
X90380000Y15000000D03*
D32*
X62800000Y66040000D03*
X60100000Y66040000D03*
X62800000Y67890000D03*
X60100000Y67890000D03*
D33*
X75550000Y17970000D03*
X75550000Y15270000D03*
D32*
X11660000Y37160000D03*
X14360000Y37160000D03*
D33*
X63780000Y60220000D03*
X63780000Y62920000D03*
D32*
X14360000Y28610000D03*
X11660000Y28610000D03*
D34*
X57570000Y18040000D03*
D35*
X62650000Y18040000D03*
D36*
X56500000Y39540000D03*
X56500000Y39040000D03*
X56500000Y38540000D03*
X56500000Y38040000D03*
X56500000Y37540000D03*
X56500000Y37040000D03*
X56500000Y36540000D03*
X56500000Y36040000D03*
X56500000Y35540000D03*
X56500000Y35040000D03*
X56500000Y34540000D03*
X56500000Y34040000D03*
X56500000Y33540000D03*
X56500000Y33040000D03*
X56500000Y32540000D03*
X56500000Y32040000D03*
D37*
X58450000Y30090000D03*
X58950000Y30090000D03*
X59450000Y30090000D03*
X59950000Y30090000D03*
X60450000Y30090000D03*
X60950000Y30090000D03*
X61450000Y30090000D03*
X61950000Y30090000D03*
X62450000Y30090000D03*
X62950000Y30090000D03*
X63450000Y30090000D03*
X63950000Y30090000D03*
X64450000Y30090000D03*
X64950000Y30090000D03*
X65450000Y30090000D03*
X65950000Y30090000D03*
D36*
X67900000Y32040000D03*
X67900000Y32540000D03*
X67900000Y33040000D03*
X67900000Y33540000D03*
X67900000Y34040000D03*
X67900000Y34540000D03*
X67900000Y35040000D03*
X67900000Y35540000D03*
X67900000Y36040000D03*
X67900000Y36540000D03*
X67900000Y37040000D03*
X67900000Y37540000D03*
X67900000Y38040000D03*
X67900000Y38540000D03*
X67900000Y39040000D03*
X67900000Y39540000D03*
D37*
X65950000Y41490000D03*
X65450000Y41490000D03*
X64950000Y41490000D03*
X64450000Y41490000D03*
X63950000Y41490000D03*
X63450000Y41490000D03*
X62950000Y41490000D03*
X62450000Y41490000D03*
X61950000Y41490000D03*
X61450000Y41490000D03*
X60950000Y41490000D03*
X60450000Y41490000D03*
X59950000Y41490000D03*
X59450000Y41490000D03*
X58950000Y41490000D03*
X58450000Y41490000D03*
D38*
X46245000Y18530000D03*
X45595000Y18530000D03*
X44945000Y18530000D03*
X44295000Y18530000D03*
X43645000Y18530000D03*
X42995000Y18530000D03*
X42345000Y18530000D03*
X41695000Y18530000D03*
X41045000Y18530000D03*
X40395000Y18530000D03*
X39745000Y18530000D03*
X39095000Y18530000D03*
X38445000Y18530000D03*
X37795000Y18530000D03*
X37795000Y11330000D03*
X38445000Y11330000D03*
X39095000Y11330000D03*
X39745000Y11330000D03*
X40395000Y11330000D03*
X41045000Y11330000D03*
X41695000Y11330000D03*
X42345000Y11330000D03*
X42995000Y11330000D03*
X43645000Y11330000D03*
X44295000Y11330000D03*
X44945000Y11330000D03*
X45595000Y11330000D03*
X46245000Y11330000D03*
D39*
X14390000Y35110000D03*
X14390000Y30610000D03*
X6430000Y30610000D03*
X6430000Y35110000D03*
D40*
X77810000Y67340000D03*
D41*
X80350000Y67340000D03*
X82890000Y67340000D03*
X85430000Y67340000D03*
X87970000Y67340000D03*
X90510000Y67340000D03*
D42*
X94290000Y12160000D03*
D43*
X94290000Y14700000D03*
X94290000Y17240000D03*
D42*
X72250000Y12140000D03*
D43*
X72250000Y14680000D03*
X72250000Y17220000D03*
D19*
X84850000Y8240000D03*
D30*
X87390000Y8240000D03*
X89930000Y8240000D03*
X92470000Y8240000D03*
D19*
X73730000Y8240000D03*
D30*
X76270000Y8240000D03*
X78810000Y8240000D03*
X81350000Y8240000D03*
D44*
X12200000Y19890000D03*
D45*
X12200000Y13590000D03*
X14500000Y13590000D03*
X9900000Y13590000D03*
D46*
X96800000Y66990000D03*
X96800000Y2990000D03*
X2800000Y66990000D03*
X2800000Y2990000D03*
D17*
X48810000Y13830000D03*
X48810000Y11330000D03*
D19*
X25110000Y17540000D03*
D30*
X27650000Y17540000D03*
X30190000Y17540000D03*
D19*
X25100000Y21940000D03*
D30*
X27640000Y21940000D03*
X30180000Y21940000D03*
D33*
X5400000Y1090000D03*
X5400000Y3790000D03*
X64300000Y46490000D03*
X64300000Y43790000D03*
X66200000Y46490000D03*
X66200000Y43790000D03*
D47*
X49020000Y28610000D03*
X52020000Y28610000D03*
X69070000Y25090000D03*
X66070000Y25090000D03*
X60000000Y46490000D03*
X57000000Y46490000D03*
X86510000Y39240000D03*
X83510000Y39240000D03*
D48*
X86375000Y4615000D03*
X87875000Y4615000D03*
X89375000Y4615000D03*
X90875000Y4615000D03*
X75325000Y4615000D03*
X76825000Y4615000D03*
X78325000Y4615000D03*
X79825000Y4615000D03*
D33*
X59920000Y57110000D03*
X59920000Y59810000D03*
X61730000Y57090000D03*
X61730000Y59790000D03*
D22*
X22880000Y28590000D03*
X25380000Y28590000D03*
D32*
X30830000Y28640000D03*
X28130000Y28640000D03*
D49*
X94240000Y39450000D03*
X94240000Y37450000D03*
D50*
X95240000Y38950000D03*
X95240000Y37950000D03*
X93240000Y38950000D03*
X93240000Y37950000D03*
D51*
X87730000Y49265000D03*
X87230000Y49265000D03*
X87730000Y47115000D03*
X87230000Y47115000D03*
X86730000Y49265000D03*
X86730000Y47115000D03*
X88230000Y49265000D03*
X88230000Y47115000D03*
D52*
X86405000Y48440000D03*
X86405000Y47940000D03*
X88555000Y47940000D03*
X88555000Y48440000D03*
D53*
X85110000Y33160000D03*
X84610000Y33160000D03*
X85610000Y33160000D03*
X85110000Y35200000D03*
X84610000Y35200000D03*
X85610000Y35200000D03*
D54*
X86130000Y33930000D03*
X86130000Y34430000D03*
X84090000Y33930000D03*
X84090000Y34430000D03*
D39*
X30840000Y35140000D03*
X30840000Y30640000D03*
X22880000Y30640000D03*
X22880000Y35140000D03*
D55*
X87200000Y30940000D03*
D56*
X87200000Y28400000D03*
X87200000Y25860000D03*
X87200000Y23320000D03*
D57*
X78600000Y22860000D03*
X80500000Y22860000D03*
X79550000Y24860000D03*
X78600000Y26140000D03*
X80500000Y26140000D03*
X79550000Y28140000D03*
D32*
X79490000Y31670000D03*
X82190000Y31670000D03*
X79490000Y29910000D03*
X82190000Y29910000D03*
D33*
X75090000Y22830000D03*
X75090000Y25530000D03*
X75090000Y30710000D03*
X75090000Y28010000D03*
D58*
X77800000Y63230000D03*
D59*
X80340000Y63230000D03*
X82880000Y63230000D03*
X85420000Y63230000D03*
X87960000Y63230000D03*
X90500000Y63230000D03*
D60*
X45635000Y54725000D03*
X48175000Y54725000D03*
X50715000Y54725000D03*
X53255000Y54725000D03*
X45735000Y66145000D03*
X48275000Y66145000D03*
X50815000Y66145000D03*
X53355000Y66145000D03*
D61*
X57880000Y56620000D03*
X57880000Y62970000D03*
X57880000Y61700000D03*
X57880000Y59160000D03*
X57880000Y60430000D03*
X57880000Y57890000D03*
X57880000Y64240000D03*
X57880000Y68050000D03*
X57880000Y65510000D03*
X57880000Y66780000D03*
X41130000Y54080000D03*
X41130000Y55350000D03*
X41130000Y66780000D03*
X41130000Y68050000D03*
X41130000Y65510000D03*
X41130000Y61700000D03*
X41130000Y62970000D03*
X41130000Y64240000D03*
X41130000Y52810000D03*
D62*
X49510000Y60430000D03*
D63*
X40090000Y7090000D03*
X40890000Y7090000D03*
X41690000Y7090000D03*
X42490000Y7090000D03*
X43290000Y7090000D03*
D64*
X37240000Y6990000D03*
X37240000Y1490000D03*
X46140000Y6990000D03*
X46140000Y1490000D03*
D65*
X39490000Y4490000D03*
X43890000Y4490000D03*
D66*
X84645000Y12290000D03*
X85915000Y12290000D03*
X87185000Y12290000D03*
X88455000Y12290000D03*
X88455000Y17690000D03*
X87185000Y17690000D03*
X85915000Y17690000D03*
X84645000Y17690000D03*
X77745000Y12290000D03*
X79015000Y12290000D03*
X80285000Y12290000D03*
X81555000Y12290000D03*
X81555000Y17690000D03*
X80285000Y17690000D03*
X79015000Y17690000D03*
X77745000Y17690000D03*
M02*
