M48
;DRILL file {KiCad 4.0.4-stable} date 11/09/17 15:47:02
;FORMAT={-:-/ absolute / metric / decimal}
FMAT,2
METRIC,TZ
T1C0.300
T2C0.400
T3C0.500
T4C0.550
T5C0.600
T6C0.700
T7C0.750
T8C0.800
T9C0.813
T10C0.900
T11C1.000
T12C1.016
T13C1.320
T14C2.200
T15C6.000
%
G90
G05
M71
T1
X5.25Y12.3
X5.95Y15.05
X9.16Y28.62
X10.15Y13.65
X11.91Y37.22
X11.91Y28.67
X16.05Y16.825
X19.6Y12.4
X21.55Y60.14
X22.3Y1.325
X23.107Y38.569
X26.05Y12.
X26.2Y1.5
X27.15Y8.275
X28.8Y36.3
X29.35Y37.3
X29.875Y38.125
X30.4Y37.259
X30.4Y36.1
X30.7Y14.1
X30.9Y62.15
X32.55Y2.3
X32.6Y14.1
X34.Y41.5
X34.175Y61.615
X34.6Y41.9
X34.7Y11.85
X35.7Y46.7
X36.45Y46.
X37.8Y45.8
X39.Y45.8
X39.6Y9.815
X39.65Y45.25
X40.4Y6.85
X41.25Y45.8
X41.425Y3.9
X41.725Y15.55
X41.76Y17.7
X43.3Y38.
X43.775Y6.15
X44.55Y36.37
X44.725Y10.15
X44.9Y4.9
X46.3Y6.125
X47.45Y39.1
X47.45Y35.6
X49.39Y45.24
X53.45Y61.45
X53.645Y39.113
X54.78Y36.24
X56.051Y32.609
X56.08Y35.6
X58.014Y40.814
X58.52Y39.67
X59.05Y38.51
X59.6Y38.97
X60.1Y42.65
X60.127Y46.499
X60.2Y31.5
X60.2Y40.89
X60.769Y30.91
X60.85Y45.15
X61.451Y40.696
X62.2Y42.275
X62.25Y32.6
X62.7Y40.86
X63.25Y29.3
X64.03Y40.4
X65.2Y40.8
X65.2Y10.05
X65.2Y2.35
X65.25Y32.05
X66.225Y33.15
X66.5Y44.7
X67.44Y37.12
X67.477Y39.11
X67.48Y35.58
X67.88Y47.06
X68.34Y47.56
X68.78Y48.104
X68.85Y37.61
X68.85Y36.6
X69.85Y40.6
X69.85Y38.1
X70.Y27.65
X71.41Y44.5
X71.58Y47.23
X71.6Y48.
X71.71Y43.22
X72.42Y44.72
X75.55Y1.85
X77.55Y54.8
X77.7Y47.9
X78.3Y47.25
X78.48Y57.61
X80.6Y50.2
X80.8Y46.6
X81.02Y57.64
X81.664Y49.314
X81.805Y18.75
X81.805Y11.35
X82.05Y39.8
X84.2Y27.3
X84.7Y57.1
X85.2Y25.7
X85.25Y25.
X85.55Y43.7
X86.4Y29.127
X86.5Y27.3
X86.625Y1.775
X87.Y24.7
X87.25Y31.35
X87.3Y38.25
X87.35Y35.
X88.35Y27.9
X88.35Y24.05
X88.705Y18.75
X88.705Y11.35
X88.75Y47.55
X89.25Y36.4
X89.35Y26.
X89.55Y37.103
X90.35Y34.2
X90.7Y23.8
X91.226Y37.229
X91.67Y48.82
X91.7Y50.7
X91.95Y34.675
X92.078Y36.405
X92.483Y49.52
X93.2Y27.4
X93.2Y23.8
X93.552Y51.39
X93.7Y35.85
T2
X1.425Y18.225
X1.45Y52.375
X1.45Y47.975
X1.45Y43.725
X1.475Y39.375
X1.475Y35.2
X1.475Y30.825
X1.475Y26.575
X1.475Y22.225
X1.475Y9.625
X1.475Y5.2
X1.5Y13.875
X5.9Y47.95
X8.3Y45.3
X12.025Y55.425
X21.6Y40.
X22.775Y53.825
X23.3Y60.125
X24.05Y52.45
X24.3Y38.7
X24.3Y37.75
X24.775Y58.65
X25.6Y50.9
X25.75Y35.55
X26.15Y57.3
X27.15Y49.375
X27.825Y55.65
X28.625Y47.9
X30.05Y46.475
X30.475Y54.3
X31.575Y44.975
X32.775Y52.725
X33.175Y43.35
X34.225Y50.35
X35.7Y42.825
X36.025Y48.65
X37.2Y6.6
X38.425Y42.825
X38.675Y56.
X38.775Y67.275
X40.55Y5.4
X41.2Y53.4
X41.325Y64.675
X43.1Y34.3
X43.675Y16.875
X43.725Y56.
X43.85Y67.3
X46.3Y53.425
X46.4Y64.675
X49.25Y49.5
X52.3Y65.425
X53.Y35.61
X53.65Y49.525
X54.32Y39.83
X54.695Y32.265
X54.7Y35.
X54.975Y43.825
X55.99Y39.83
X56.75Y36.35
X57.7Y43.8
X57.7Y34.86
X57.8Y49.55
X58.2Y28.3
X60.2Y43.8
X60.7Y28.3
X62.125Y49.6
X64.55Y43.85
X64.8Y28.3
X65.22Y38.64
X65.706Y30.861
X66.162Y40.791
X66.9Y67.15
X67.3Y28.3
X67.3Y7.3
X67.3Y1.45
X71.15Y67.075
X75.55Y67.125
X78.95Y67.1
X79.25Y17.5
X83.375Y67.175
X86.15Y17.5
X87.65Y67.125
X89.3Y45.45
X92.Y67.15
T3
X26.63Y23.74
X33.4Y20.2
X35.4Y30.9
X37.825Y35.625
X45.8Y31.55
X49.136Y28.325
X50.7Y27.1
X62.6Y46.55
T5
X75.575Y4.675
X77.075Y4.675
X78.575Y4.675
X80.075Y4.675
X86.625Y4.675
X88.125Y4.675
X89.625Y4.675
X91.125Y4.675
T6
X5.Y9.35
X5.Y6.79
X57.82Y18.1
X62.9Y18.1
T7
X73.525Y63.675
X76.025Y63.675
X78.525Y63.675
X81.025Y63.675
X83.525Y63.675
X86.025Y63.675
T8
X83.Y51.26
X83.Y48.72
X83.Y46.18
X83.Y43.64
X83.Y41.1
X83.Y38.56
X83.Y36.02
X83.Y33.48
X83.Y30.94
X83.Y28.4
X83.Y25.86
X83.Y23.32
X98.24Y51.26
X98.24Y48.72
X98.24Y46.18
X98.24Y43.64
X98.24Y41.1
X98.24Y38.56
X98.24Y36.02
X98.24Y33.48
X98.24Y30.94
X98.24Y28.4
X98.24Y25.86
X98.24Y23.32
T9
X57.81Y12.55
X57.82Y4.85
X62.89Y12.55
X62.9Y4.85
T10
X73.6Y17.78
X73.6Y15.24
X73.6Y12.7
X93.05Y17.88
X93.05Y15.34
X93.05Y12.8
T11
X8.3Y50.95
X10.84Y50.95
X11.67Y24.4
X13.38Y50.95
X14.21Y24.4
X15.92Y50.95
X16.75Y24.4
X18.46Y50.95
X19.8Y37.64
X19.8Y35.1
X21.Y50.95
X22.45Y41.85
X24.99Y41.85
X25.35Y22.
X25.36Y17.6
X27.89Y22.
X27.9Y17.6
X28.56Y41.85
X30.43Y22.
X30.44Y17.6
X31.1Y41.85
X33.9Y36.65
X40.575Y41.87
X40.575Y39.33
X40.575Y36.79
X40.575Y34.25
X40.575Y31.71
X40.575Y29.17
X48.75Y15.55
X48.75Y13.01
X56.3Y62.725
X59.985Y62.725
X60.55Y22.2
X62.525Y62.725
X64.35Y22.2
X69.55Y8.13
X69.55Y5.59
X69.55Y3.05
X73.98Y8.3
X76.52Y8.3
X79.06Y8.3
X79.3Y38.54
X79.3Y36.
X79.4Y51.35
X79.4Y48.81
X79.4Y45.04
X79.4Y42.5
X81.6Y8.3
X85.05Y54.7
X85.1Y8.3
X87.59Y54.7
X87.64Y8.3
X90.13Y54.7
X90.18Y8.3
X92.72Y8.3
X94.01Y54.7
X96.55Y54.7
T12
X73.405Y59.975
X75.945Y59.975
X78.485Y59.975
X81.025Y59.975
X83.565Y59.975
X86.105Y59.975
T13
X9.65Y4.75
X14.65Y4.75
T14
X3.05Y67.05
X3.05Y3.05
X97.05Y67.05
X97.05Y3.05
T15
X42.555Y60.335
T3
X37.Y0.875G85X37.Y1.525
G05
X44.Y0.875G85X44.Y1.525
G05
T4
X37.85Y3.9G85X38.15Y3.9
G05
X42.85Y3.9G85X43.15Y3.9
G05
T0
M30
