G04 #@! TF.FileFunction,Soldermask,Top*
%FSLAX46Y46*%
G04 Gerber Fmt 4.6, Leading zero omitted, Abs format (unit mm)*
G04 Created by KiCad (PCBNEW 4.0.4-stable) date 11/09/17 15:47:28*
%MOMM*%
%LPD*%
G01*
G04 APERTURE LIST*
%ADD10C,0.100000*%
%ADD11R,0.700000X0.230000*%
%ADD12R,0.230000X0.700000*%
%ADD13R,0.350000X0.750000*%
%ADD14R,0.750000X0.350000*%
%ADD15R,1.250000X1.500000*%
%ADD16R,1.700000X1.700000*%
%ADD17O,1.700000X1.700000*%
%ADD18R,3.000000X1.600000*%
%ADD19R,1.500000X1.250000*%
%ADD20R,2.000000X4.500000*%
%ADD21R,1.600000X1.000000*%
%ADD22R,1.000000X1.600000*%
%ADD23R,1.600000X3.000000*%
%ADD24R,0.600000X0.450000*%
%ADD25C,1.700000*%
%ADD26R,1.700000X2.000000*%
%ADD27R,1.905000X1.905000*%
%ADD28C,1.905000*%
%ADD29R,1.980000X3.960000*%
%ADD30O,1.980000X3.960000*%
%ADD31R,0.400000X1.350000*%
%ADD32O,1.250000X0.950000*%
%ADD33O,1.000000X1.550000*%
%ADD34R,1.900000X0.800000*%
%ADD35R,1.300000X1.500000*%
%ADD36R,1.500000X1.300000*%
%ADD37C,1.400000*%
%ADD38O,1.400000X1.400000*%
%ADD39R,1.000000X0.250000*%
%ADD40R,0.250000X1.000000*%
%ADD41R,0.450000X1.750000*%
%ADD42R,0.450000X0.400000*%
%ADD43R,0.400000X0.450000*%
%ADD44R,0.550000X1.750000*%
%ADD45R,1.550000X1.300000*%
%ADD46R,1.727200X2.032000*%
%ADD47O,1.727200X2.032000*%
%ADD48R,1.620000X1.620000*%
%ADD49C,1.620000*%
%ADD50R,3.800000X2.000000*%
%ADD51R,1.500000X2.000000*%
%ADD52C,2.200000*%
%ADD53R,0.375000X0.350000*%
%ADD54R,0.350000X0.375000*%
%ADD55R,1.270000X1.270000*%
%ADD56R,2.000000X0.900000*%
%ADD57C,6.000000*%
%ADD58R,2.200000X1.600000*%
%ADD59R,1.600000X2.200000*%
%ADD60C,1.000000*%
%ADD61R,1.200000X1.700000*%
%ADD62O,1.200000X1.700000*%
%ADD63R,1.600000X1.600000*%
%ADD64O,1.600000X1.600000*%
G04 APERTURE END LIST*
D10*
D11*
X132350000Y-145340000D03*
D12*
X131595000Y-145195000D03*
X131595000Y-148495000D03*
X131165000Y-145195000D03*
X131165000Y-148495000D03*
X130735000Y-145195000D03*
X130735000Y-148495000D03*
X130305000Y-145195000D03*
X130305000Y-148495000D03*
D11*
X132350000Y-145770000D03*
X132350000Y-146200000D03*
X132350000Y-146630000D03*
X132350000Y-147060000D03*
X132350000Y-147490000D03*
X132350000Y-147920000D03*
X132350000Y-148350000D03*
X129550000Y-145340000D03*
X129550000Y-145770000D03*
X129550000Y-146200000D03*
X129550000Y-146630000D03*
X129550000Y-147060000D03*
X129550000Y-147490000D03*
X129550000Y-147920000D03*
X129550000Y-148350000D03*
D13*
X136557500Y-121680000D03*
X136057500Y-121680000D03*
X136557500Y-123580000D03*
X136057500Y-123580000D03*
X135557500Y-121680000D03*
X135557500Y-123580000D03*
X137057500Y-121680000D03*
X137057500Y-123580000D03*
D14*
X135357500Y-122380000D03*
X135357500Y-122880000D03*
X137257500Y-122880000D03*
X137257500Y-122380000D03*
D15*
X134050000Y-121100000D03*
X134050000Y-123600000D03*
D16*
X128550000Y-117700000D03*
D17*
X131090000Y-117700000D03*
X133630000Y-117700000D03*
D18*
X137200000Y-128700000D03*
X132800000Y-128700000D03*
D15*
X132250000Y-122350000D03*
X132250000Y-124850000D03*
D19*
X137950000Y-125000000D03*
X135450000Y-125000000D03*
D16*
X77400000Y-135750000D03*
D20*
X94500000Y-130800000D03*
X94500000Y-139300000D03*
D16*
X104050000Y-150200000D03*
D21*
X51550000Y-112260000D03*
X51550000Y-113530000D03*
X51550000Y-114800000D03*
X51550000Y-116070000D03*
X51550000Y-117340000D03*
X65050000Y-117340000D03*
X65050000Y-116070000D03*
X65050000Y-114800000D03*
X65050000Y-113530000D03*
X65050000Y-112260000D03*
D22*
X55550000Y-118340000D03*
D15*
X74200000Y-160800000D03*
X74200000Y-158300000D03*
D23*
X76050000Y-165700000D03*
X76050000Y-170100000D03*
D19*
X101700000Y-144100000D03*
X104200000Y-144100000D03*
D15*
X90950000Y-130800000D03*
X90950000Y-133300000D03*
X90950000Y-139300000D03*
X90950000Y-136800000D03*
X76100000Y-160800000D03*
X76100000Y-158300000D03*
D19*
X68150000Y-163150000D03*
X70650000Y-163150000D03*
X108300000Y-144100000D03*
X110800000Y-144100000D03*
X60600000Y-160000000D03*
X63100000Y-160000000D03*
D15*
X98200000Y-137400000D03*
X98200000Y-139900000D03*
X108700000Y-167550000D03*
X108700000Y-170050000D03*
D19*
X103700000Y-128600000D03*
X101200000Y-128600000D03*
D23*
X62450000Y-157350000D03*
X62450000Y-152950000D03*
D15*
X113350000Y-134300000D03*
X113350000Y-131800000D03*
X108700000Y-159850000D03*
X108700000Y-162350000D03*
D23*
X49450000Y-152950000D03*
X49450000Y-157350000D03*
D19*
X51250000Y-160100000D03*
X48750000Y-160100000D03*
X74550000Y-133350000D03*
X72050000Y-133350000D03*
X46900000Y-124450000D03*
X49400000Y-124450000D03*
X74550000Y-137250000D03*
X72050000Y-137250000D03*
D15*
X74400000Y-107750000D03*
X74400000Y-110250000D03*
D19*
X50160000Y-143780000D03*
X52660000Y-143780000D03*
X132390000Y-133990000D03*
X134890000Y-133990000D03*
D15*
X66350000Y-135500000D03*
X66350000Y-138000000D03*
X86800000Y-134400000D03*
X86800000Y-131900000D03*
D24*
X71250000Y-170900000D03*
X69150000Y-170900000D03*
D25*
X48500000Y-163050000D03*
D16*
X48500000Y-165610000D03*
X72060000Y-130550000D03*
D17*
X74600000Y-130550000D03*
D16*
X68490000Y-130550000D03*
D17*
X65950000Y-130550000D03*
D26*
X78200000Y-162550000D03*
X78200000Y-158550000D03*
D27*
X106400000Y-167550000D03*
D28*
X101320000Y-167550000D03*
D27*
X106390000Y-159850000D03*
D28*
X101310000Y-159850000D03*
D29*
X53150000Y-167650000D03*
D30*
X58150000Y-167650000D03*
D31*
X82700000Y-168500000D03*
X83350000Y-168500000D03*
X84000000Y-168500000D03*
X84650000Y-168500000D03*
X85300000Y-168500000D03*
D32*
X81500000Y-168500000D03*
X86500000Y-168500000D03*
D33*
X80500000Y-171200000D03*
X87500000Y-171200000D03*
D16*
X84075000Y-130530000D03*
D17*
X84075000Y-133070000D03*
X84075000Y-135610000D03*
X84075000Y-138150000D03*
X84075000Y-140690000D03*
X84075000Y-143230000D03*
D16*
X92250000Y-159390000D03*
D17*
X92250000Y-156850000D03*
D16*
X106025000Y-109675000D03*
D17*
X103485000Y-109675000D03*
D16*
X140050000Y-117700000D03*
D17*
X137510000Y-117700000D03*
D16*
X63300000Y-134760000D03*
D17*
X63300000Y-137300000D03*
D16*
X64500000Y-121450000D03*
D17*
X61960000Y-121450000D03*
X59420000Y-121450000D03*
X56880000Y-121450000D03*
X54340000Y-121450000D03*
X51800000Y-121450000D03*
D16*
X55170000Y-148000000D03*
D17*
X57710000Y-148000000D03*
X60250000Y-148000000D03*
D16*
X99800000Y-109675000D03*
X107850000Y-150200000D03*
X113050000Y-169350000D03*
D17*
X113050000Y-166810000D03*
X113050000Y-164270000D03*
D34*
X65800000Y-171075000D03*
X65800000Y-169175000D03*
X62800000Y-170125000D03*
X65800000Y-167475000D03*
X65800000Y-165575000D03*
X62800000Y-166525000D03*
X65800000Y-163875000D03*
X65800000Y-161975000D03*
X62800000Y-162925000D03*
D35*
X98475000Y-128575000D03*
X98475000Y-125875000D03*
X106100000Y-128550000D03*
X106100000Y-125850000D03*
D36*
X68100000Y-168950000D03*
X70800000Y-168950000D03*
X68100000Y-167050000D03*
X70800000Y-167050000D03*
X70800000Y-165150000D03*
X68100000Y-165150000D03*
D35*
X54450000Y-124350000D03*
X54450000Y-127050000D03*
X74400000Y-112500000D03*
X74400000Y-115200000D03*
X57400000Y-124350000D03*
X57400000Y-127050000D03*
X51800000Y-127100000D03*
X51800000Y-124400000D03*
X139850000Y-159750000D03*
X139850000Y-157050000D03*
D36*
X106550000Y-106300000D03*
X103850000Y-106300000D03*
X106550000Y-104450000D03*
X103850000Y-104450000D03*
D35*
X113750000Y-159850000D03*
X113750000Y-157150000D03*
D36*
X55410000Y-135180000D03*
X58110000Y-135180000D03*
D35*
X96950000Y-110950000D03*
X96950000Y-108250000D03*
D36*
X58110000Y-143730000D03*
X55410000Y-143730000D03*
D37*
X101320000Y-154300000D03*
D38*
X106400000Y-154300000D03*
D39*
X100250000Y-132800000D03*
X100250000Y-133300000D03*
X100250000Y-133800000D03*
X100250000Y-134300000D03*
X100250000Y-134800000D03*
X100250000Y-135300000D03*
X100250000Y-135800000D03*
X100250000Y-136300000D03*
X100250000Y-136800000D03*
X100250000Y-137300000D03*
X100250000Y-137800000D03*
X100250000Y-138300000D03*
X100250000Y-138800000D03*
X100250000Y-139300000D03*
X100250000Y-139800000D03*
X100250000Y-140300000D03*
D40*
X102200000Y-142250000D03*
X102700000Y-142250000D03*
X103200000Y-142250000D03*
X103700000Y-142250000D03*
X104200000Y-142250000D03*
X104700000Y-142250000D03*
X105200000Y-142250000D03*
X105700000Y-142250000D03*
X106200000Y-142250000D03*
X106700000Y-142250000D03*
X107200000Y-142250000D03*
X107700000Y-142250000D03*
X108200000Y-142250000D03*
X108700000Y-142250000D03*
X109200000Y-142250000D03*
X109700000Y-142250000D03*
D39*
X111650000Y-140300000D03*
X111650000Y-139800000D03*
X111650000Y-139300000D03*
X111650000Y-138800000D03*
X111650000Y-138300000D03*
X111650000Y-137800000D03*
X111650000Y-137300000D03*
X111650000Y-136800000D03*
X111650000Y-136300000D03*
X111650000Y-135800000D03*
X111650000Y-135300000D03*
X111650000Y-134800000D03*
X111650000Y-134300000D03*
X111650000Y-133800000D03*
X111650000Y-133300000D03*
X111650000Y-132800000D03*
D40*
X109700000Y-130850000D03*
X109200000Y-130850000D03*
X108700000Y-130850000D03*
X108200000Y-130850000D03*
X107700000Y-130850000D03*
X107200000Y-130850000D03*
X106700000Y-130850000D03*
X106200000Y-130850000D03*
X105700000Y-130850000D03*
X105200000Y-130850000D03*
X104700000Y-130850000D03*
X104200000Y-130850000D03*
X103700000Y-130850000D03*
X103200000Y-130850000D03*
X102700000Y-130850000D03*
X102200000Y-130850000D03*
D41*
X89125000Y-156850000D03*
X88475000Y-156850000D03*
X87825000Y-156850000D03*
X87175000Y-156850000D03*
X86525000Y-156850000D03*
X85875000Y-156850000D03*
X85225000Y-156850000D03*
X84575000Y-156850000D03*
X83925000Y-156850000D03*
X83275000Y-156850000D03*
X82625000Y-156850000D03*
X81975000Y-156850000D03*
X81325000Y-156850000D03*
X80675000Y-156850000D03*
X80675000Y-164050000D03*
X81325000Y-164050000D03*
X81975000Y-164050000D03*
X82625000Y-164050000D03*
X83275000Y-164050000D03*
X83925000Y-164050000D03*
X84575000Y-164050000D03*
X85225000Y-164050000D03*
X85875000Y-164050000D03*
X86525000Y-164050000D03*
X87175000Y-164050000D03*
X87825000Y-164050000D03*
X88475000Y-164050000D03*
X89125000Y-164050000D03*
D42*
X73350000Y-134550000D03*
X73350000Y-136050000D03*
D43*
X74100000Y-134800000D03*
X74100000Y-135800000D03*
X72600000Y-134800000D03*
X72600000Y-135800000D03*
D44*
X128395000Y-161050000D03*
X129665000Y-161050000D03*
X130935000Y-161050000D03*
X132205000Y-161050000D03*
X132205000Y-153650000D03*
X130935000Y-153650000D03*
X129665000Y-153650000D03*
X128395000Y-153650000D03*
D45*
X58140000Y-137230000D03*
X58140000Y-141730000D03*
X50180000Y-141730000D03*
X50180000Y-137230000D03*
D44*
X121495000Y-161050000D03*
X122765000Y-161050000D03*
X124035000Y-161050000D03*
X125305000Y-161050000D03*
X125305000Y-153650000D03*
X124035000Y-153650000D03*
X122765000Y-153650000D03*
X121495000Y-153650000D03*
D46*
X129605000Y-112425000D03*
D47*
X127065000Y-112425000D03*
X124525000Y-112425000D03*
X121985000Y-112425000D03*
X119445000Y-112425000D03*
X116905000Y-112425000D03*
D48*
X136550000Y-159600000D03*
D49*
X136550000Y-157060000D03*
X136550000Y-154520000D03*
D48*
X117100000Y-154620000D03*
D49*
X117100000Y-157160000D03*
X117100000Y-159700000D03*
D16*
X128600000Y-164100000D03*
D17*
X131140000Y-164100000D03*
X133680000Y-164100000D03*
X136220000Y-164100000D03*
D16*
X117480000Y-164100000D03*
D17*
X120020000Y-164100000D03*
X122560000Y-164100000D03*
X125100000Y-164100000D03*
D50*
X55950000Y-152450000D03*
D51*
X55950000Y-158750000D03*
X58250000Y-158750000D03*
X53650000Y-158750000D03*
D52*
X140550000Y-105350000D03*
X140550000Y-169350000D03*
X46550000Y-105350000D03*
X46550000Y-169350000D03*
D53*
X65550000Y-133400000D03*
X65550000Y-132900000D03*
X65550000Y-133900000D03*
X67170000Y-133400000D03*
X67170000Y-132900000D03*
X67170000Y-133900000D03*
D54*
X66110000Y-134210000D03*
X66610000Y-134210000D03*
X66110000Y-132590000D03*
X66610000Y-132590000D03*
D19*
X85900000Y-166250000D03*
X88400000Y-166250000D03*
D16*
X68860000Y-154800000D03*
D17*
X71400000Y-154800000D03*
X73940000Y-154800000D03*
D16*
X68850000Y-150400000D03*
D17*
X71390000Y-150400000D03*
X73930000Y-150400000D03*
D35*
X49150000Y-171250000D03*
X49150000Y-168550000D03*
X108050000Y-125850000D03*
X108050000Y-128550000D03*
X109950000Y-125850000D03*
X109950000Y-128550000D03*
D55*
X82180000Y-117770000D03*
X84720000Y-117770000D03*
X87260000Y-117770000D03*
X89800000Y-117770000D03*
X82280000Y-106350000D03*
X84820000Y-106350000D03*
X87360000Y-106350000D03*
X89900000Y-106350000D03*
D56*
X94425000Y-119685000D03*
X94425000Y-118415000D03*
X94425000Y-117145000D03*
X94425000Y-115875000D03*
X94425000Y-109525000D03*
X94425000Y-110795000D03*
X94425000Y-113335000D03*
X94425000Y-112065000D03*
X94425000Y-114605000D03*
X94425000Y-108255000D03*
X94425000Y-104445000D03*
X94425000Y-106985000D03*
X94425000Y-105715000D03*
X77675000Y-118405000D03*
X77675000Y-117135000D03*
X77675000Y-105705000D03*
X77675000Y-104435000D03*
X77675000Y-106975000D03*
X77675000Y-110785000D03*
X77675000Y-109515000D03*
X77675000Y-108245000D03*
X77675000Y-119675000D03*
D57*
X86055000Y-112065000D03*
D58*
X92770000Y-143730000D03*
X95770000Y-143730000D03*
D59*
X113550000Y-144700000D03*
X113550000Y-147700000D03*
D58*
X103750000Y-125850000D03*
X100750000Y-125850000D03*
D59*
X69250000Y-136850000D03*
X69250000Y-133850000D03*
D60*
X130125000Y-167725000D03*
X131625000Y-167725000D03*
X133125000Y-167725000D03*
X134625000Y-167725000D03*
X119075000Y-167725000D03*
X120575000Y-167725000D03*
X122075000Y-167725000D03*
X123575000Y-167725000D03*
D61*
X129525000Y-108725000D03*
D62*
X127025000Y-108725000D03*
X124525000Y-108725000D03*
X122025000Y-108725000D03*
X119525000Y-108725000D03*
X117025000Y-108725000D03*
D18*
X134750000Y-141300000D03*
X139150000Y-141300000D03*
D19*
X132200000Y-143250000D03*
X129700000Y-143250000D03*
X134200000Y-148600000D03*
X136700000Y-148600000D03*
X134200000Y-146800000D03*
X136700000Y-146800000D03*
X134200000Y-145000000D03*
X136700000Y-145000000D03*
D16*
X122800000Y-133860000D03*
D17*
X122800000Y-136400000D03*
D63*
X141740000Y-149080000D03*
D64*
X126500000Y-121140000D03*
X141740000Y-146540000D03*
X126500000Y-123680000D03*
X141740000Y-144000000D03*
X126500000Y-126220000D03*
X141740000Y-141460000D03*
X126500000Y-128760000D03*
X141740000Y-138920000D03*
X126500000Y-131300000D03*
X141740000Y-136380000D03*
X126500000Y-133840000D03*
X141740000Y-133840000D03*
X126500000Y-136380000D03*
X141740000Y-131300000D03*
X126500000Y-138920000D03*
X141740000Y-128760000D03*
X126500000Y-141460000D03*
X141740000Y-126220000D03*
X126500000Y-144000000D03*
X141740000Y-123680000D03*
X126500000Y-146540000D03*
X141740000Y-121140000D03*
X126500000Y-149080000D03*
D16*
X122900000Y-123590000D03*
D17*
X122900000Y-121050000D03*
D16*
X122900000Y-127360000D03*
D17*
X122900000Y-129900000D03*
M02*
