%FSLAX45Y45*%
G04 Gerber Fmt 4.5, Leading zero omitted, Abs format (unit mm)*
G04 Created by KiCad (PCBNEW 4.0.4-stable) date 11/09/17 15:47:03*
%MOMM*%
%LPD*%
G01*
G04 APERTURE LIST*
%ADD10C,0.127000*%
%ADD11C,0.100000*%
%ADD12C,0.200000*%
%ADD13C,0.300000*%
G04 APERTURE END LIST*
D10*
D11*
X5000Y5000D02*
X5000Y7005000D01*
X10005000Y5000D02*
X5000Y5000D01*
X10005000Y7005000D02*
X10005000Y5000D01*
X5000Y7005000D02*
X10005000Y7005000D01*
D12*
X510000Y1245000D02*
X540000Y1215000D01*
X540000Y1245000D02*
X510000Y1215000D01*
X580000Y1520000D02*
X610000Y1490000D01*
X610000Y1520000D02*
X580000Y1490000D01*
X901000Y2877000D02*
X931000Y2847000D01*
X931000Y2877000D02*
X901000Y2847000D01*
X1000000Y1380000D02*
X1030000Y1350000D01*
X1030000Y1380000D02*
X1000000Y1350000D01*
X1176000Y3737000D02*
X1206000Y3707000D01*
X1206000Y3737000D02*
X1176000Y3707000D01*
X1176000Y2882000D02*
X1206000Y2852000D01*
X1206000Y2882000D02*
X1176000Y2852000D01*
X1590000Y1697500D02*
X1620000Y1667500D01*
X1620000Y1697500D02*
X1590000Y1667500D01*
X1945000Y1255000D02*
X1975000Y1225000D01*
X1975000Y1255000D02*
X1945000Y1225000D01*
X2140000Y6029000D02*
X2170000Y5999000D01*
X2170000Y6029000D02*
X2140000Y5999000D01*
X2215000Y147500D02*
X2245000Y117500D01*
X2245000Y147500D02*
X2215000Y117500D01*
X2295750Y3871889D02*
X2325750Y3841889D01*
X2325750Y3871889D02*
X2295750Y3841889D01*
X2590000Y1215000D02*
X2620000Y1185000D01*
X2620000Y1215000D02*
X2590000Y1185000D01*
X2605000Y165000D02*
X2635000Y135000D01*
X2635000Y165000D02*
X2605000Y135000D01*
X2700000Y842500D02*
X2730000Y812500D01*
X2730000Y842500D02*
X2700000Y812500D01*
X2865000Y3645000D02*
X2895000Y3615000D01*
X2895000Y3645000D02*
X2865000Y3615000D01*
X2920000Y3745000D02*
X2950000Y3715000D01*
X2950000Y3745000D02*
X2920000Y3715000D01*
X2972501Y3827499D02*
X3002501Y3797499D01*
X3002501Y3827499D02*
X2972501Y3797499D01*
X3024992Y3740930D02*
X3054992Y3710930D01*
X3054992Y3740930D02*
X3024992Y3710930D01*
X3025000Y3625000D02*
X3055000Y3595000D01*
X3055000Y3625000D02*
X3025000Y3595000D01*
X3055000Y1425000D02*
X3085000Y1395000D01*
X3085000Y1425000D02*
X3055000Y1395000D01*
X3075000Y6230000D02*
X3105000Y6200000D01*
X3105000Y6230000D02*
X3075000Y6200000D01*
X3240000Y245000D02*
X3270000Y215000D01*
X3270000Y245000D02*
X3240000Y215000D01*
X3245000Y1425000D02*
X3275000Y1395000D01*
X3275000Y1425000D02*
X3245000Y1395000D01*
X3385000Y4165000D02*
X3415000Y4135000D01*
X3415000Y4165000D02*
X3385000Y4135000D01*
X3402500Y6176500D02*
X3432500Y6146500D01*
X3432500Y6176500D02*
X3402500Y6146500D01*
X3445001Y4205000D02*
X3475001Y4175000D01*
X3475001Y4205000D02*
X3445001Y4175000D01*
X3455000Y1200000D02*
X3485000Y1170000D01*
X3485000Y1200000D02*
X3455000Y1170000D01*
X3555000Y4685000D02*
X3585000Y4655000D01*
X3585000Y4685000D02*
X3555000Y4655000D01*
X3630000Y4615000D02*
X3660000Y4585000D01*
X3660000Y4615000D02*
X3630000Y4585000D01*
X3765000Y4594999D02*
X3795000Y4564999D01*
X3795000Y4594999D02*
X3765000Y4564999D01*
X3884999Y4595000D02*
X3914999Y4565000D01*
X3914999Y4595000D02*
X3884999Y4565000D01*
X3945000Y996500D02*
X3975000Y966500D01*
X3975000Y996500D02*
X3945000Y966500D01*
X3950000Y4540000D02*
X3980000Y4510000D01*
X3980000Y4540000D02*
X3950000Y4510000D01*
X4025000Y700000D02*
X4055000Y670000D01*
X4055000Y700000D02*
X4025000Y670000D01*
X4110000Y4594998D02*
X4140000Y4564998D01*
X4140000Y4594998D02*
X4110000Y4564998D01*
X4127500Y405000D02*
X4157500Y375000D01*
X4157500Y405000D02*
X4127500Y375000D01*
X4157500Y1570000D02*
X4187500Y1540000D01*
X4187500Y1570000D02*
X4157500Y1540000D01*
X4161000Y1785000D02*
X4191000Y1755000D01*
X4191000Y1785000D02*
X4161000Y1755000D01*
X4315000Y3815000D02*
X4345000Y3785000D01*
X4345000Y3815000D02*
X4315000Y3785000D01*
X4362500Y630000D02*
X4392500Y600000D01*
X4392500Y630000D02*
X4362500Y600000D01*
X4440000Y3652000D02*
X4470000Y3622000D01*
X4470000Y3652000D02*
X4440000Y3622000D01*
X4457500Y1030000D02*
X4487500Y1000000D01*
X4487500Y1030000D02*
X4457500Y1000000D01*
X4475000Y505000D02*
X4505000Y475000D01*
X4505000Y505000D02*
X4475000Y475000D01*
X4615000Y627500D02*
X4645000Y597500D01*
X4645000Y627500D02*
X4615000Y597500D01*
X4730000Y3925000D02*
X4760000Y3895000D01*
X4760000Y3925000D02*
X4730000Y3895000D01*
X4730000Y3575000D02*
X4760000Y3545000D01*
X4760000Y3575000D02*
X4730000Y3545000D01*
X4924000Y4539000D02*
X4954000Y4509000D01*
X4954000Y4539000D02*
X4924000Y4509000D01*
X5330000Y6160000D02*
X5360000Y6130000D01*
X5360000Y6160000D02*
X5330000Y6130000D01*
X5349499Y3926274D02*
X5379499Y3896274D01*
X5379499Y3926274D02*
X5349499Y3896274D01*
X5463000Y3639000D02*
X5493000Y3609000D01*
X5493000Y3639000D02*
X5463000Y3609000D01*
X5590144Y3275856D02*
X5620144Y3245856D01*
X5620144Y3275856D02*
X5590144Y3245856D01*
X5593000Y3575000D02*
X5623000Y3545000D01*
X5623000Y3575000D02*
X5593000Y3545000D01*
X5786356Y4096356D02*
X5816356Y4066356D01*
X5816356Y4096356D02*
X5786356Y4066356D01*
X5837000Y3982000D02*
X5867000Y3952000D01*
X5867000Y3982000D02*
X5837000Y3952000D01*
X5890000Y3866000D02*
X5920000Y3836000D01*
X5920000Y3866000D02*
X5890000Y3836000D01*
X5945000Y3912000D02*
X5975000Y3882000D01*
X5975000Y3912000D02*
X5945000Y3882000D01*
X5995001Y4280000D02*
X6025001Y4250000D01*
X6025001Y4280000D02*
X5995001Y4250000D01*
X5997672Y4664900D02*
X6027672Y4634900D01*
X6027672Y4664900D02*
X5997672Y4634900D01*
X6005000Y3165000D02*
X6035000Y3135000D01*
X6035000Y3165000D02*
X6005000Y3135000D01*
X6005000Y4104000D02*
X6035000Y4074000D01*
X6035000Y4104000D02*
X6005000Y4074000D01*
X6061923Y3106028D02*
X6091923Y3076028D01*
X6091923Y3106028D02*
X6061923Y3076028D01*
X6070000Y4530000D02*
X6100000Y4500000D01*
X6100000Y4530000D02*
X6070000Y4500000D01*
X6130112Y4084605D02*
X6160112Y4054605D01*
X6160112Y4084605D02*
X6130112Y4054605D01*
X6205000Y4242500D02*
X6235000Y4212500D01*
X6235000Y4242500D02*
X6205000Y4212500D01*
X6210000Y3275000D02*
X6240000Y3245000D01*
X6240000Y3275000D02*
X6210000Y3245000D01*
X6255000Y4101000D02*
X6285000Y4071000D01*
X6285000Y4101000D02*
X6255000Y4071000D01*
X6310000Y2945000D02*
X6340000Y2915000D01*
X6340000Y2945000D02*
X6310000Y2915000D01*
X6388000Y4055000D02*
X6418000Y4025000D01*
X6418000Y4055000D02*
X6388000Y4025000D01*
X6505000Y4095000D02*
X6535000Y4065000D01*
X6535000Y4095000D02*
X6505000Y4065000D01*
X6505000Y1020000D02*
X6535000Y990000D01*
X6535000Y1020000D02*
X6505000Y990000D01*
X6505000Y250000D02*
X6535000Y220000D01*
X6535000Y250000D02*
X6505000Y220000D01*
X6510000Y3220000D02*
X6540000Y3190000D01*
X6540000Y3220000D02*
X6510000Y3190000D01*
X6607500Y3330000D02*
X6637500Y3300000D01*
X6637500Y3330000D02*
X6607500Y3300000D01*
X6635000Y4485000D02*
X6665000Y4455000D01*
X6665000Y4485000D02*
X6635000Y4455000D01*
X6729000Y3727000D02*
X6759000Y3697000D01*
X6759000Y3727000D02*
X6729000Y3697000D01*
X6732740Y3926026D02*
X6762740Y3896026D01*
X6762740Y3926026D02*
X6732740Y3896026D01*
X6733000Y3573000D02*
X6763000Y3543000D01*
X6763000Y3573000D02*
X6733000Y3543000D01*
X6773000Y4721000D02*
X6803000Y4691000D01*
X6803000Y4721000D02*
X6773000Y4691000D01*
X6819000Y4771000D02*
X6849000Y4741000D01*
X6849000Y4771000D02*
X6819000Y4741000D01*
X6863017Y4825427D02*
X6893017Y4795427D01*
X6893017Y4825427D02*
X6863017Y4795427D01*
X6870000Y3776000D02*
X6900000Y3746000D01*
X6900000Y3776000D02*
X6870000Y3746000D01*
X6870000Y3675000D02*
X6900000Y3645000D01*
X6900000Y3675000D02*
X6870000Y3645000D01*
X6970000Y4075000D02*
X7000000Y4045000D01*
X7000000Y4075000D02*
X6970000Y4045000D01*
X6970000Y3825000D02*
X7000000Y3795000D01*
X7000000Y3825000D02*
X6970000Y3795000D01*
X6985000Y2780000D02*
X7015000Y2750000D01*
X7015000Y2780000D02*
X6985000Y2750000D01*
X7126000Y4465000D02*
X7156000Y4435000D01*
X7156000Y4465000D02*
X7126000Y4435000D01*
X7143000Y4738000D02*
X7173000Y4708000D01*
X7173000Y4738000D02*
X7143000Y4708000D01*
X7145000Y4815000D02*
X7175000Y4785000D01*
X7175000Y4815000D02*
X7145000Y4785000D01*
X7156000Y4337000D02*
X7186000Y4307000D01*
X7186000Y4337000D02*
X7156000Y4307000D01*
X7227000Y4487000D02*
X7257000Y4457000D01*
X7257000Y4487000D02*
X7227000Y4457000D01*
X7540000Y200000D02*
X7570000Y170000D01*
X7570000Y200000D02*
X7540000Y170000D01*
X7740000Y5494999D02*
X7770000Y5464999D01*
X7770000Y5494999D02*
X7740000Y5464999D01*
X7754999Y4805000D02*
X7784999Y4775000D01*
X7784999Y4805000D02*
X7754999Y4775000D01*
X7815000Y4740000D02*
X7845000Y4710000D01*
X7845000Y4740000D02*
X7815000Y4710000D01*
X7833000Y5776000D02*
X7863000Y5746000D01*
X7863000Y5776000D02*
X7833000Y5746000D01*
X8045000Y5035000D02*
X8075000Y5005000D01*
X8075000Y5035000D02*
X8045000Y5005000D01*
X8064999Y4675000D02*
X8094999Y4645000D01*
X8094999Y4675000D02*
X8064999Y4645000D01*
X8087000Y5779000D02*
X8117000Y5749000D01*
X8117000Y5779000D02*
X8087000Y5749000D01*
X8151376Y4946376D02*
X8181376Y4916376D01*
X8181376Y4946376D02*
X8151376Y4916376D01*
X8165500Y1890000D02*
X8195500Y1860000D01*
X8195500Y1890000D02*
X8165500Y1860000D01*
X8165500Y1150000D02*
X8195500Y1120000D01*
X8195500Y1150000D02*
X8165500Y1120000D01*
X8190000Y3995000D02*
X8220000Y3965000D01*
X8220000Y3995000D02*
X8190000Y3965000D01*
X8405000Y2745000D02*
X8435000Y2715000D01*
X8435000Y2745000D02*
X8405000Y2715000D01*
X8455000Y5725000D02*
X8485000Y5695000D01*
X8485000Y5725000D02*
X8455000Y5695000D01*
X8505001Y2585000D02*
X8535001Y2555000D01*
X8535001Y2585000D02*
X8505001Y2555000D01*
X8510000Y2515000D02*
X8540000Y2485000D01*
X8540000Y2515000D02*
X8510000Y2485000D01*
X8540000Y4385000D02*
X8570000Y4355000D01*
X8570000Y4385000D02*
X8540000Y4355000D01*
X8625001Y2927739D02*
X8655001Y2897739D01*
X8655001Y2927739D02*
X8625001Y2897739D01*
X8635000Y2745000D02*
X8665000Y2715000D01*
X8665000Y2745000D02*
X8635000Y2715000D01*
X8647500Y192500D02*
X8677500Y162500D01*
X8677500Y192500D02*
X8647500Y162500D01*
X8685000Y2485000D02*
X8715000Y2455000D01*
X8715000Y2485000D02*
X8685000Y2455000D01*
X8710001Y3150000D02*
X8740001Y3120000D01*
X8740001Y3150000D02*
X8710001Y3120000D01*
X8715000Y3840000D02*
X8745000Y3810000D01*
X8745000Y3840000D02*
X8715000Y3810000D01*
X8720000Y3515000D02*
X8750000Y3485000D01*
X8750000Y3515000D02*
X8720000Y3485000D01*
X8820000Y2805000D02*
X8850000Y2775000D01*
X8850000Y2805000D02*
X8820000Y2775000D01*
X8820000Y2420000D02*
X8850000Y2390000D01*
X8850000Y2420000D02*
X8820000Y2390000D01*
X8855500Y1890000D02*
X8885500Y1860000D01*
X8885500Y1890000D02*
X8855500Y1860000D01*
X8855500Y1150000D02*
X8885500Y1120000D01*
X8885500Y1150000D02*
X8855500Y1120000D01*
X8860000Y4770000D02*
X8890000Y4740000D01*
X8890000Y4770000D02*
X8860000Y4740000D01*
X8910000Y3654999D02*
X8940000Y3624999D01*
X8940000Y3654999D02*
X8910000Y3624999D01*
X8920000Y2615000D02*
X8950000Y2585000D01*
X8950000Y2615000D02*
X8920000Y2585000D01*
X8940006Y3725326D02*
X8970006Y3695326D01*
X8970006Y3725326D02*
X8940006Y3695326D01*
X9020000Y3435000D02*
X9050000Y3405000D01*
X9050000Y3435000D02*
X9020000Y3405000D01*
X9055000Y2395000D02*
X9085000Y2365000D01*
X9085000Y2395000D02*
X9055000Y2365000D01*
X9107592Y3737947D02*
X9137592Y3707947D01*
X9137592Y3737947D02*
X9107592Y3707947D01*
X9152000Y4897000D02*
X9182000Y4867000D01*
X9182000Y4897000D02*
X9152000Y4867000D01*
X9155000Y5085000D02*
X9185000Y5055000D01*
X9185000Y5085000D02*
X9155000Y5055000D01*
X9180000Y3482501D02*
X9210000Y3452501D01*
X9210000Y3482501D02*
X9180000Y3452501D01*
X9192750Y3655500D02*
X9222750Y3625500D01*
X9222750Y3655500D02*
X9192750Y3625500D01*
X9233250Y4967000D02*
X9263250Y4937000D01*
X9263250Y4967000D02*
X9233250Y4937000D01*
X9305000Y2755000D02*
X9335000Y2725000D01*
X9335000Y2755000D02*
X9305000Y2725000D01*
X9305000Y2395000D02*
X9335000Y2365000D01*
X9335000Y2395000D02*
X9305000Y2365000D01*
X9340216Y5153966D02*
X9370216Y5123966D01*
X9370216Y5153966D02*
X9340216Y5123966D01*
X9355000Y3600000D02*
X9385000Y3570000D01*
X9385000Y3600000D02*
X9355000Y3570000D01*
X162500Y1822500D02*
G75*
G03X162500Y1822500I-20000J0D01*
G01*
X165000Y5237500D02*
G75*
G03X165000Y5237500I-20000J0D01*
G01*
X165000Y4797500D02*
G75*
G03X165000Y4797500I-20000J0D01*
G01*
X165000Y4372500D02*
G75*
G03X165000Y4372500I-20000J0D01*
G01*
X167500Y3937500D02*
G75*
G03X167500Y3937500I-20000J0D01*
G01*
X167500Y3520000D02*
G75*
G03X167500Y3520000I-20000J0D01*
G01*
X167500Y3082500D02*
G75*
G03X167500Y3082500I-20000J0D01*
G01*
X167500Y2657500D02*
G75*
G03X167500Y2657500I-20000J0D01*
G01*
X167500Y2222500D02*
G75*
G03X167500Y2222500I-20000J0D01*
G01*
X167500Y962500D02*
G75*
G03X167500Y962500I-20000J0D01*
G01*
X167500Y520000D02*
G75*
G03X167500Y520000I-20000J0D01*
G01*
X170000Y1387500D02*
G75*
G03X170000Y1387500I-20000J0D01*
G01*
X610000Y4795000D02*
G75*
G03X610000Y4795000I-20000J0D01*
G01*
X850000Y4530000D02*
G75*
G03X850000Y4530000I-20000J0D01*
G01*
X1222500Y5542500D02*
G75*
G03X1222500Y5542500I-20000J0D01*
G01*
X2180000Y4000000D02*
G75*
G03X2180000Y4000000I-20000J0D01*
G01*
X2297500Y5382500D02*
G75*
G03X2297500Y5382500I-20000J0D01*
G01*
X2350000Y6012500D02*
G75*
G03X2350000Y6012500I-20000J0D01*
G01*
X2425000Y5245000D02*
G75*
G03X2425000Y5245000I-20000J0D01*
G01*
X2450000Y3870000D02*
G75*
G03X2450000Y3870000I-20000J0D01*
G01*
X2450000Y3775000D02*
G75*
G03X2450000Y3775000I-20000J0D01*
G01*
X2497500Y5865000D02*
G75*
G03X2497500Y5865000I-20000J0D01*
G01*
X2580000Y5090000D02*
G75*
G03X2580000Y5090000I-20000J0D01*
G01*
X2595000Y3555000D02*
G75*
G03X2595000Y3555000I-20000J0D01*
G01*
X2635000Y5730000D02*
G75*
G03X2635000Y5730000I-20000J0D01*
G01*
X2735000Y4937500D02*
G75*
G03X2735000Y4937500I-20000J0D01*
G01*
X2802500Y5565000D02*
G75*
G03X2802500Y5565000I-20000J0D01*
G01*
X2882500Y4790000D02*
G75*
G03X2882500Y4790000I-20000J0D01*
G01*
X3025000Y4647500D02*
G75*
G03X3025000Y4647500I-20000J0D01*
G01*
X3067500Y5430000D02*
G75*
G03X3067500Y5430000I-20000J0D01*
G01*
X3177500Y4497500D02*
G75*
G03X3177500Y4497500I-20000J0D01*
G01*
X3297500Y5272500D02*
G75*
G03X3297500Y5272500I-20000J0D01*
G01*
X3337500Y4335000D02*
G75*
G03X3337500Y4335000I-20000J0D01*
G01*
X3442500Y5035000D02*
G75*
G03X3442500Y5035000I-20000J0D01*
G01*
X3590000Y4282500D02*
G75*
G03X3590000Y4282500I-20000J0D01*
G01*
X3622500Y4865000D02*
G75*
G03X3622500Y4865000I-20000J0D01*
G01*
X3740000Y660001D02*
G75*
G03X3740000Y660001I-20000J0D01*
G01*
X3862500Y4282500D02*
G75*
G03X3862500Y4282500I-20000J0D01*
G01*
X3887500Y5600000D02*
G75*
G03X3887500Y5600000I-20000J0D01*
G01*
X3897500Y6727500D02*
G75*
G03X3897500Y6727500I-20000J0D01*
G01*
X4075000Y540000D02*
G75*
G03X4075000Y540000I-20000J0D01*
G01*
X4140000Y5340000D02*
G75*
G03X4140000Y5340000I-20000J0D01*
G01*
X4152500Y6467500D02*
G75*
G03X4152500Y6467500I-20000J0D01*
G01*
X4330000Y3430000D02*
G75*
G03X4330000Y3430000I-20000J0D01*
G01*
X4387500Y1687500D02*
G75*
G03X4387500Y1687500I-20000J0D01*
G01*
X4392500Y5600000D02*
G75*
G03X4392500Y5600000I-20000J0D01*
G01*
X4405000Y6730000D02*
G75*
G03X4405000Y6730000I-20000J0D01*
G01*
X4650000Y5342500D02*
G75*
G03X4650000Y5342500I-20000J0D01*
G01*
X4660000Y6467500D02*
G75*
G03X4660000Y6467500I-20000J0D01*
G01*
X4945000Y4950000D02*
G75*
G03X4945000Y4950000I-20000J0D01*
G01*
X5250000Y6542500D02*
G75*
G03X5250000Y6542500I-20000J0D01*
G01*
X5320000Y3561000D02*
G75*
G03X5320000Y3561000I-20000J0D01*
G01*
X5385000Y4952500D02*
G75*
G03X5385000Y4952500I-20000J0D01*
G01*
X5452001Y3983000D02*
G75*
G03X5452001Y3983000I-20000J0D01*
G01*
X5489478Y3226499D02*
G75*
G03X5489478Y3226499I-20000J0D01*
G01*
X5490000Y3500000D02*
G75*
G03X5490000Y3500000I-20000J0D01*
G01*
X5517500Y4382500D02*
G75*
G03X5517500Y4382500I-20000J0D01*
G01*
X5619000Y3983000D02*
G75*
G03X5619000Y3983000I-20000J0D01*
G01*
X5695000Y3635000D02*
G75*
G03X5695000Y3635000I-20000J0D01*
G01*
X5790000Y4380000D02*
G75*
G03X5790000Y4380000I-20000J0D01*
G01*
X5790000Y3486000D02*
G75*
G03X5790000Y3486000I-20000J0D01*
G01*
X5800000Y4955000D02*
G75*
G03X5800000Y4955000I-20000J0D01*
G01*
X5840000Y2830000D02*
G75*
G03X5840000Y2830000I-20000J0D01*
G01*
X6040000Y4380000D02*
G75*
G03X6040000Y4380000I-20000J0D01*
G01*
X6090000Y2830000D02*
G75*
G03X6090000Y2830000I-20000J0D01*
G01*
X6232500Y4960000D02*
G75*
G03X6232500Y4960000I-20000J0D01*
G01*
X6475000Y4385000D02*
G75*
G03X6475000Y4385000I-20000J0D01*
G01*
X6500000Y2830000D02*
G75*
G03X6500000Y2830000I-20000J0D01*
G01*
X6542000Y3864000D02*
G75*
G03X6542000Y3864000I-20000J0D01*
G01*
X6590599Y3086086D02*
G75*
G03X6590599Y3086086I-20000J0D01*
G01*
X6636231Y4079144D02*
G75*
G03X6636231Y4079144I-20000J0D01*
G01*
X6710000Y6715000D02*
G75*
G03X6710000Y6715000I-20000J0D01*
G01*
X6750000Y2830000D02*
G75*
G03X6750000Y2830000I-20000J0D01*
G01*
X6750000Y730000D02*
G75*
G03X6750000Y730000I-20000J0D01*
G01*
X6750000Y145000D02*
G75*
G03X6750000Y145000I-20000J0D01*
G01*
X7135000Y6707500D02*
G75*
G03X7135000Y6707500I-20000J0D01*
G01*
X7575000Y6712500D02*
G75*
G03X7575000Y6712500I-20000J0D01*
G01*
X7915000Y6710000D02*
G75*
G03X7915000Y6710000I-20000J0D01*
G01*
X7945000Y1750000D02*
G75*
G03X7945000Y1750000I-20000J0D01*
G01*
X8357500Y6717500D02*
G75*
G03X8357500Y6717500I-20000J0D01*
G01*
X8635000Y1750000D02*
G75*
G03X8635000Y1750000I-20000J0D01*
G01*
X8785000Y6712500D02*
G75*
G03X8785000Y6712500I-20000J0D01*
G01*
X8950000Y4545000D02*
G75*
G03X8950000Y4545000I-20000J0D01*
G01*
X9220000Y6715000D02*
G75*
G03X9220000Y6715000I-20000J0D01*
G01*
X2663000Y2399000D02*
X2663000Y2349000D01*
X2638000Y2374000D02*
X2688000Y2374000D01*
X3340000Y2045000D02*
X3340000Y1995000D01*
X3315000Y2020000D02*
X3365000Y2020000D01*
X3540000Y3115000D02*
X3540000Y3065000D01*
X3515000Y3090000D02*
X3565000Y3090000D01*
X3700000Y145000D02*
X3700000Y95000D01*
X3675000Y120000D02*
X3725000Y120000D01*
X3715000Y87500D02*
X3715000Y152500D01*
X3685000Y87500D02*
X3685000Y152500D01*
X3715000Y152500D02*
G75*
G03X3685000Y152500I-15000J0D01*
G01*
X3685000Y87500D02*
G75*
G03X3715000Y87500I15000J0D01*
G01*
X3782500Y3587500D02*
X3782500Y3537500D01*
X3757500Y3562500D02*
X3807500Y3562500D01*
X4400000Y145000D02*
X4400000Y95000D01*
X4375000Y120000D02*
X4425000Y120000D01*
X4415000Y87500D02*
X4415000Y152500D01*
X4385000Y87500D02*
X4385000Y152500D01*
X4415000Y152500D02*
G75*
G03X4385000Y152500I-15000J0D01*
G01*
X4385000Y87500D02*
G75*
G03X4415000Y87500I15000J0D01*
G01*
X4580000Y3180000D02*
X4580000Y3130000D01*
X4555000Y3155000D02*
X4605000Y3155000D01*
X4913634Y2857499D02*
X4913634Y2807499D01*
X4888634Y2832499D02*
X4938634Y2832499D01*
X5070000Y2735000D02*
X5070000Y2685000D01*
X5045000Y2710000D02*
X5095000Y2710000D01*
X6260000Y4680000D02*
X6260000Y4630000D01*
X6235000Y4655000D02*
X6285000Y4655000D01*
X3819446Y370554D02*
X3819446Y409446D01*
X3780554Y409446D01*
X3780554Y370554D01*
X3819446Y370554D01*
X3785000Y372500D02*
X3815000Y372500D01*
X3785000Y407500D02*
X3815000Y407500D01*
X3815000Y372500D02*
G75*
G03X3815000Y407500I0J17500D01*
G01*
X3785000Y407500D02*
G75*
G03X3785000Y372500I0J-17500D01*
G01*
X4319446Y370554D02*
X4319446Y409446D01*
X4280554Y409446D01*
X4280554Y370554D01*
X4319446Y370554D01*
X4285000Y372500D02*
X4315000Y372500D01*
X4285000Y407500D02*
X4315000Y407500D01*
X4315000Y372500D02*
G75*
G03X4315000Y407500I0J17500D01*
G01*
X4285000Y407500D02*
G75*
G03X4285000Y372500I0J-17500D01*
G01*
X7557500Y437500D02*
X7587500Y467500D01*
X7557500Y497500D01*
X7527500Y467500D01*
X7557500Y437500D01*
X7707500Y437500D02*
X7737500Y467500D01*
X7707500Y497500D01*
X7677500Y467500D01*
X7707500Y437500D01*
X7857500Y437500D02*
X7887500Y467500D01*
X7857500Y497500D01*
X7827500Y467500D01*
X7857500Y437500D01*
X8007500Y437500D02*
X8037500Y467500D01*
X8007500Y497500D01*
X7977500Y467500D01*
X8007500Y437500D01*
X8662500Y437500D02*
X8692500Y467500D01*
X8662500Y497500D01*
X8632500Y467500D01*
X8662500Y437500D01*
X8812500Y437500D02*
X8842500Y467500D01*
X8812500Y497500D01*
X8782500Y467500D01*
X8812500Y437500D01*
X8962500Y437500D02*
X8992500Y467500D01*
X8962500Y497500D01*
X8932500Y467500D01*
X8962500Y437500D01*
X9112500Y437500D02*
X9142500Y467500D01*
X9112500Y497500D01*
X9082500Y467500D01*
X9112500Y437500D01*
X465000Y970000D02*
X535000Y900000D01*
X535000Y970000D02*
X465000Y900000D01*
X535000Y935000D02*
G75*
G03X535000Y935000I-35000J0D01*
G01*
X465000Y714000D02*
X535000Y644000D01*
X535000Y714000D02*
X465000Y644000D01*
X535000Y679000D02*
G75*
G03X535000Y679000I-35000J0D01*
G01*
X5747000Y1845000D02*
X5817000Y1775000D01*
X5817000Y1845000D02*
X5747000Y1775000D01*
X5817000Y1810000D02*
G75*
G03X5817000Y1810000I-35000J0D01*
G01*
X6255000Y1845000D02*
X6325000Y1775000D01*
X6325000Y1845000D02*
X6255000Y1775000D01*
X6325000Y1810000D02*
G75*
G03X6325000Y1810000I-35000J0D01*
G01*
X7315000Y6405000D02*
X7390000Y6330000D01*
X7390000Y6405000D02*
X7315000Y6330000D01*
X7352500Y6405000D02*
X7352500Y6330000D01*
X7315000Y6367500D02*
X7390000Y6367500D01*
X7565000Y6405000D02*
X7640000Y6330000D01*
X7640000Y6405000D02*
X7565000Y6330000D01*
X7602500Y6405000D02*
X7602500Y6330000D01*
X7565000Y6367500D02*
X7640000Y6367500D01*
X7815000Y6405000D02*
X7890000Y6330000D01*
X7890000Y6405000D02*
X7815000Y6330000D01*
X7852500Y6405000D02*
X7852500Y6330000D01*
X7815000Y6367500D02*
X7890000Y6367500D01*
X8065000Y6405000D02*
X8140000Y6330000D01*
X8140000Y6405000D02*
X8065000Y6330000D01*
X8102500Y6405000D02*
X8102500Y6330000D01*
X8065000Y6367500D02*
X8140000Y6367500D01*
X8315000Y6405000D02*
X8390000Y6330000D01*
X8390000Y6405000D02*
X8315000Y6330000D01*
X8352500Y6405000D02*
X8352500Y6330000D01*
X8315000Y6367500D02*
X8390000Y6367500D01*
X8565000Y6405000D02*
X8640000Y6330000D01*
X8640000Y6405000D02*
X8565000Y6330000D01*
X8602500Y6405000D02*
X8602500Y6330000D01*
X8565000Y6367500D02*
X8640000Y6367500D01*
X8260000Y5166000D02*
X8340000Y5086000D01*
X8340000Y5166000D02*
X8260000Y5086000D01*
X8328284Y5097716D02*
X8328284Y5154285D01*
X8271715Y5154285D01*
X8271715Y5097716D01*
X8328284Y5097716D01*
X8260000Y4912000D02*
X8340000Y4832000D01*
X8340000Y4912000D02*
X8260000Y4832000D01*
X8328284Y4843716D02*
X8328284Y4900285D01*
X8271715Y4900285D01*
X8271715Y4843716D01*
X8328284Y4843716D01*
X8260000Y4658000D02*
X8340000Y4578000D01*
X8340000Y4658000D02*
X8260000Y4578000D01*
X8328284Y4589716D02*
X8328284Y4646285D01*
X8271715Y4646285D01*
X8271715Y4589716D01*
X8328284Y4589716D01*
X8260000Y4404000D02*
X8340000Y4324000D01*
X8340000Y4404000D02*
X8260000Y4324000D01*
X8328284Y4335716D02*
X8328284Y4392285D01*
X8271715Y4392285D01*
X8271715Y4335716D01*
X8328284Y4335716D01*
X8260000Y4150000D02*
X8340000Y4070000D01*
X8340000Y4150000D02*
X8260000Y4070000D01*
X8328284Y4081715D02*
X8328284Y4138284D01*
X8271715Y4138284D01*
X8271715Y4081715D01*
X8328284Y4081715D01*
X8260000Y3896000D02*
X8340000Y3816000D01*
X8340000Y3896000D02*
X8260000Y3816000D01*
X8328284Y3827715D02*
X8328284Y3884284D01*
X8271715Y3884284D01*
X8271715Y3827715D01*
X8328284Y3827715D01*
X8260000Y3642000D02*
X8340000Y3562000D01*
X8340000Y3642000D02*
X8260000Y3562000D01*
X8328284Y3573715D02*
X8328284Y3630284D01*
X8271715Y3630284D01*
X8271715Y3573715D01*
X8328284Y3573715D01*
X8260000Y3388000D02*
X8340000Y3308000D01*
X8340000Y3388000D02*
X8260000Y3308000D01*
X8328284Y3319715D02*
X8328284Y3376284D01*
X8271715Y3376284D01*
X8271715Y3319715D01*
X8328284Y3319715D01*
X8260000Y3134000D02*
X8340000Y3054000D01*
X8340000Y3134000D02*
X8260000Y3054000D01*
X8328284Y3065715D02*
X8328284Y3122284D01*
X8271715Y3122284D01*
X8271715Y3065715D01*
X8328284Y3065715D01*
X8260000Y2880000D02*
X8340000Y2800000D01*
X8340000Y2880000D02*
X8260000Y2800000D01*
X8328284Y2811715D02*
X8328284Y2868284D01*
X8271715Y2868284D01*
X8271715Y2811715D01*
X8328284Y2811715D01*
X8260000Y2626000D02*
X8340000Y2546000D01*
X8340000Y2626000D02*
X8260000Y2546000D01*
X8328284Y2557716D02*
X8328284Y2614285D01*
X8271715Y2614285D01*
X8271715Y2557716D01*
X8328284Y2557716D01*
X8260000Y2372000D02*
X8340000Y2292000D01*
X8340000Y2372000D02*
X8260000Y2292000D01*
X8328284Y2303716D02*
X8328284Y2360285D01*
X8271715Y2360285D01*
X8271715Y2303716D01*
X8328284Y2303716D01*
X9784000Y5166000D02*
X9864000Y5086000D01*
X9864000Y5166000D02*
X9784000Y5086000D01*
X9852285Y5097716D02*
X9852285Y5154285D01*
X9795716Y5154285D01*
X9795716Y5097716D01*
X9852285Y5097716D01*
X9784000Y4912000D02*
X9864000Y4832000D01*
X9864000Y4912000D02*
X9784000Y4832000D01*
X9852285Y4843716D02*
X9852285Y4900285D01*
X9795716Y4900285D01*
X9795716Y4843716D01*
X9852285Y4843716D01*
X9784000Y4658000D02*
X9864000Y4578000D01*
X9864000Y4658000D02*
X9784000Y4578000D01*
X9852285Y4589716D02*
X9852285Y4646285D01*
X9795716Y4646285D01*
X9795716Y4589716D01*
X9852285Y4589716D01*
X9784000Y4404000D02*
X9864000Y4324000D01*
X9864000Y4404000D02*
X9784000Y4324000D01*
X9852285Y4335716D02*
X9852285Y4392285D01*
X9795716Y4392285D01*
X9795716Y4335716D01*
X9852285Y4335716D01*
X9784000Y4150000D02*
X9864000Y4070000D01*
X9864000Y4150000D02*
X9784000Y4070000D01*
X9852285Y4081715D02*
X9852285Y4138284D01*
X9795716Y4138284D01*
X9795716Y4081715D01*
X9852285Y4081715D01*
X9784000Y3896000D02*
X9864000Y3816000D01*
X9864000Y3896000D02*
X9784000Y3816000D01*
X9852285Y3827715D02*
X9852285Y3884284D01*
X9795716Y3884284D01*
X9795716Y3827715D01*
X9852285Y3827715D01*
X9784000Y3642000D02*
X9864000Y3562000D01*
X9864000Y3642000D02*
X9784000Y3562000D01*
X9852285Y3573715D02*
X9852285Y3630284D01*
X9795716Y3630284D01*
X9795716Y3573715D01*
X9852285Y3573715D01*
X9784000Y3388000D02*
X9864000Y3308000D01*
X9864000Y3388000D02*
X9784000Y3308000D01*
X9852285Y3319715D02*
X9852285Y3376284D01*
X9795716Y3376284D01*
X9795716Y3319715D01*
X9852285Y3319715D01*
X9784000Y3134000D02*
X9864000Y3054000D01*
X9864000Y3134000D02*
X9784000Y3054000D01*
X9852285Y3065715D02*
X9852285Y3122284D01*
X9795716Y3122284D01*
X9795716Y3065715D01*
X9852285Y3065715D01*
X9784000Y2880000D02*
X9864000Y2800000D01*
X9864000Y2880000D02*
X9784000Y2800000D01*
X9852285Y2811715D02*
X9852285Y2868284D01*
X9795716Y2868284D01*
X9795716Y2811715D01*
X9852285Y2811715D01*
X9784000Y2626000D02*
X9864000Y2546000D01*
X9864000Y2626000D02*
X9784000Y2546000D01*
X9852285Y2557716D02*
X9852285Y2614285D01*
X9795716Y2614285D01*
X9795716Y2557716D01*
X9852285Y2557716D01*
X9784000Y2372000D02*
X9864000Y2292000D01*
X9864000Y2372000D02*
X9784000Y2292000D01*
X9852285Y2303716D02*
X9852285Y2360285D01*
X9795716Y2360285D01*
X9795716Y2303716D01*
X9852285Y2303716D01*
X5740360Y1295640D02*
X5821640Y1214360D01*
X5821640Y1295640D02*
X5740360Y1214360D01*
X5781000Y1214360D02*
X5821640Y1255000D01*
X5781000Y1295640D01*
X5740360Y1255000D01*
X5781000Y1214360D01*
X5741360Y525640D02*
X5822640Y444360D01*
X5822640Y525640D02*
X5741360Y444360D01*
X5782000Y444360D02*
X5822640Y485000D01*
X5782000Y525640D01*
X5741360Y485000D01*
X5782000Y444360D01*
X6248360Y1295640D02*
X6329640Y1214360D01*
X6329640Y1295640D02*
X6248360Y1214360D01*
X6289000Y1214360D02*
X6329640Y1255000D01*
X6289000Y1295640D01*
X6248360Y1255000D01*
X6289000Y1214360D01*
X6249360Y525640D02*
X6330640Y444360D01*
X6330640Y525640D02*
X6249360Y444360D01*
X6290000Y444360D02*
X6330640Y485000D01*
X6290000Y525640D01*
X6249360Y485000D01*
X6290000Y444360D01*
X7360000Y1823000D02*
X7360000Y1733000D01*
X7315000Y1778000D02*
X7405000Y1778000D01*
X7405000Y1778000D02*
G75*
G03X7405000Y1778000I-45000J0D01*
G01*
X7360000Y1569000D02*
X7360000Y1479000D01*
X7315000Y1524000D02*
X7405000Y1524000D01*
X7405000Y1524000D02*
G75*
G03X7405000Y1524000I-45000J0D01*
G01*
X7360000Y1315000D02*
X7360000Y1225000D01*
X7315000Y1270000D02*
X7405000Y1270000D01*
X7405000Y1270000D02*
G75*
G03X7405000Y1270000I-45000J0D01*
G01*
X9305000Y1833000D02*
X9305000Y1743000D01*
X9260000Y1788000D02*
X9350000Y1788000D01*
X9350000Y1788000D02*
G75*
G03X9350000Y1788000I-45000J0D01*
G01*
X9305000Y1579000D02*
X9305000Y1489000D01*
X9260000Y1534000D02*
X9350000Y1534000D01*
X9350000Y1534000D02*
G75*
G03X9350000Y1534000I-45000J0D01*
G01*
X9305000Y1325000D02*
X9305000Y1235000D01*
X9260000Y1280000D02*
X9350000Y1280000D01*
X9350000Y1280000D02*
G75*
G03X9350000Y1280000I-45000J0D01*
G01*
X865356Y5059644D02*
X865356Y5130356D01*
X794644Y5130356D01*
X794644Y5059644D01*
X865356Y5059644D01*
X880000Y5095000D02*
G75*
G03X880000Y5095000I-50000J0D01*
G01*
X1119356Y5059644D02*
X1119356Y5130356D01*
X1048644Y5130356D01*
X1048644Y5059644D01*
X1119356Y5059644D01*
X1134000Y5095000D02*
G75*
G03X1134000Y5095000I-50000J0D01*
G01*
X1202356Y2404644D02*
X1202356Y2475356D01*
X1131644Y2475356D01*
X1131644Y2404644D01*
X1202356Y2404644D01*
X1217000Y2440000D02*
G75*
G03X1217000Y2440000I-50000J0D01*
G01*
X1373356Y5059644D02*
X1373356Y5130356D01*
X1302644Y5130356D01*
X1302644Y5059644D01*
X1373356Y5059644D01*
X1388000Y5095000D02*
G75*
G03X1388000Y5095000I-50000J0D01*
G01*
X1456356Y2404644D02*
X1456356Y2475356D01*
X1385644Y2475356D01*
X1385644Y2404644D01*
X1456356Y2404644D01*
X1471000Y2440000D02*
G75*
G03X1471000Y2440000I-50000J0D01*
G01*
X1627356Y5059644D02*
X1627356Y5130356D01*
X1556644Y5130356D01*
X1556644Y5059644D01*
X1627356Y5059644D01*
X1642000Y5095000D02*
G75*
G03X1642000Y5095000I-50000J0D01*
G01*
X1710356Y2404644D02*
X1710356Y2475356D01*
X1639644Y2475356D01*
X1639644Y2404644D01*
X1710356Y2404644D01*
X1725000Y2440000D02*
G75*
G03X1725000Y2440000I-50000J0D01*
G01*
X1881356Y5059644D02*
X1881356Y5130356D01*
X1810644Y5130356D01*
X1810644Y5059644D01*
X1881356Y5059644D01*
X1896000Y5095000D02*
G75*
G03X1896000Y5095000I-50000J0D01*
G01*
X2015356Y3728644D02*
X2015356Y3799356D01*
X1944644Y3799356D01*
X1944644Y3728644D01*
X2015356Y3728644D01*
X2030000Y3764000D02*
G75*
G03X2030000Y3764000I-50000J0D01*
G01*
X2015356Y3474644D02*
X2015356Y3545356D01*
X1944644Y3545356D01*
X1944644Y3474644D01*
X2015356Y3474644D01*
X2030000Y3510000D02*
G75*
G03X2030000Y3510000I-50000J0D01*
G01*
X2135356Y5059644D02*
X2135356Y5130356D01*
X2064644Y5130356D01*
X2064644Y5059644D01*
X2135356Y5059644D01*
X2150000Y5095000D02*
G75*
G03X2150000Y5095000I-50000J0D01*
G01*
X2280356Y4149644D02*
X2280356Y4220356D01*
X2209644Y4220356D01*
X2209644Y4149644D01*
X2280356Y4149644D01*
X2295000Y4185000D02*
G75*
G03X2295000Y4185000I-50000J0D01*
G01*
X2534356Y4149644D02*
X2534356Y4220356D01*
X2463644Y4220356D01*
X2463644Y4149644D01*
X2534356Y4149644D01*
X2549000Y4185000D02*
G75*
G03X2549000Y4185000I-50000J0D01*
G01*
X2570356Y2164644D02*
X2570356Y2235356D01*
X2499644Y2235356D01*
X2499644Y2164644D01*
X2570356Y2164644D01*
X2585000Y2200000D02*
G75*
G03X2585000Y2200000I-50000J0D01*
G01*
X2571356Y1724644D02*
X2571356Y1795356D01*
X2500644Y1795356D01*
X2500644Y1724644D01*
X2571356Y1724644D01*
X2586000Y1760000D02*
G75*
G03X2586000Y1760000I-50000J0D01*
G01*
X2824356Y2164644D02*
X2824356Y2235356D01*
X2753644Y2235356D01*
X2753644Y2164644D01*
X2824356Y2164644D01*
X2839000Y2200000D02*
G75*
G03X2839000Y2200000I-50000J0D01*
G01*
X2825356Y1724644D02*
X2825356Y1795356D01*
X2754644Y1795356D01*
X2754644Y1724644D01*
X2825356Y1724644D01*
X2840000Y1760000D02*
G75*
G03X2840000Y1760000I-50000J0D01*
G01*
X2891356Y4149644D02*
X2891356Y4220356D01*
X2820644Y4220356D01*
X2820644Y4149644D01*
X2891356Y4149644D01*
X2906000Y4185000D02*
G75*
G03X2906000Y4185000I-50000J0D01*
G01*
X3078356Y2164644D02*
X3078356Y2235356D01*
X3007644Y2235356D01*
X3007644Y2164644D01*
X3078356Y2164644D01*
X3093000Y2200000D02*
G75*
G03X3093000Y2200000I-50000J0D01*
G01*
X3079356Y1724644D02*
X3079356Y1795356D01*
X3008644Y1795356D01*
X3008644Y1724644D01*
X3079356Y1724644D01*
X3094000Y1760000D02*
G75*
G03X3094000Y1760000I-50000J0D01*
G01*
X3145356Y4149644D02*
X3145356Y4220356D01*
X3074644Y4220356D01*
X3074644Y4149644D01*
X3145356Y4149644D01*
X3160000Y4185000D02*
G75*
G03X3160000Y4185000I-50000J0D01*
G01*
X3425356Y3629644D02*
X3425356Y3700356D01*
X3354644Y3700356D01*
X3354644Y3629644D01*
X3425356Y3629644D01*
X3440000Y3665000D02*
G75*
G03X3440000Y3665000I-50000J0D01*
G01*
X4092856Y4151644D02*
X4092856Y4222356D01*
X4022144Y4222356D01*
X4022144Y4151644D01*
X4092856Y4151644D01*
X4107500Y4187000D02*
G75*
G03X4107500Y4187000I-50000J0D01*
G01*
X4092856Y3897644D02*
X4092856Y3968356D01*
X4022144Y3968356D01*
X4022144Y3897644D01*
X4092856Y3897644D01*
X4107500Y3933000D02*
G75*
G03X4107500Y3933000I-50000J0D01*
G01*
X4092856Y3643644D02*
X4092856Y3714356D01*
X4022144Y3714356D01*
X4022144Y3643644D01*
X4092856Y3643644D01*
X4107500Y3679000D02*
G75*
G03X4107500Y3679000I-50000J0D01*
G01*
X4092856Y3389644D02*
X4092856Y3460356D01*
X4022144Y3460356D01*
X4022144Y3389644D01*
X4092856Y3389644D01*
X4107500Y3425000D02*
G75*
G03X4107500Y3425000I-50000J0D01*
G01*
X4092856Y3135644D02*
X4092856Y3206356D01*
X4022144Y3206356D01*
X4022144Y3135644D01*
X4092856Y3135644D01*
X4107500Y3171000D02*
G75*
G03X4107500Y3171000I-50000J0D01*
G01*
X4092856Y2881644D02*
X4092856Y2952356D01*
X4022144Y2952356D01*
X4022144Y2881644D01*
X4092856Y2881644D01*
X4107500Y2917000D02*
G75*
G03X4107500Y2917000I-50000J0D01*
G01*
X4910356Y1519644D02*
X4910356Y1590356D01*
X4839644Y1590356D01*
X4839644Y1519644D01*
X4910356Y1519644D01*
X4925000Y1555000D02*
G75*
G03X4925000Y1555000I-50000J0D01*
G01*
X4910356Y1265644D02*
X4910356Y1336356D01*
X4839644Y1336356D01*
X4839644Y1265644D01*
X4910356Y1265644D01*
X4925000Y1301000D02*
G75*
G03X4925000Y1301000I-50000J0D01*
G01*
X5665356Y6237144D02*
X5665356Y6307856D01*
X5594644Y6307856D01*
X5594644Y6237144D01*
X5665356Y6237144D01*
X5680000Y6272500D02*
G75*
G03X5680000Y6272500I-50000J0D01*
G01*
X6033856Y6237144D02*
X6033856Y6307856D01*
X5963144Y6307856D01*
X5963144Y6237144D01*
X6033856Y6237144D01*
X6048500Y6272500D02*
G75*
G03X6048500Y6272500I-50000J0D01*
G01*
X6090356Y2184644D02*
X6090356Y2255356D01*
X6019644Y2255356D01*
X6019644Y2184644D01*
X6090356Y2184644D01*
X6105000Y2220000D02*
G75*
G03X6105000Y2220000I-50000J0D01*
G01*
X6287856Y6237144D02*
X6287856Y6307856D01*
X6217144Y6307856D01*
X6217144Y6237144D01*
X6287856Y6237144D01*
X6302500Y6272500D02*
G75*
G03X6302500Y6272500I-50000J0D01*
G01*
X6470356Y2184644D02*
X6470356Y2255356D01*
X6399644Y2255356D01*
X6399644Y2184644D01*
X6470356Y2184644D01*
X6485000Y2220000D02*
G75*
G03X6485000Y2220000I-50000J0D01*
G01*
X6990356Y777644D02*
X6990356Y848356D01*
X6919644Y848356D01*
X6919644Y777644D01*
X6990356Y777644D01*
X7005000Y813000D02*
G75*
G03X7005000Y813000I-50000J0D01*
G01*
X6990356Y523644D02*
X6990356Y594356D01*
X6919644Y594356D01*
X6919644Y523644D01*
X6990356Y523644D01*
X7005000Y559000D02*
G75*
G03X7005000Y559000I-50000J0D01*
G01*
X6990356Y269644D02*
X6990356Y340356D01*
X6919644Y340356D01*
X6919644Y269644D01*
X6990356Y269644D01*
X7005000Y305000D02*
G75*
G03X7005000Y305000I-50000J0D01*
G01*
X7433356Y794644D02*
X7433356Y865356D01*
X7362644Y865356D01*
X7362644Y794644D01*
X7433356Y794644D01*
X7448000Y830000D02*
G75*
G03X7448000Y830000I-50000J0D01*
G01*
X7687356Y794644D02*
X7687356Y865356D01*
X7616644Y865356D01*
X7616644Y794644D01*
X7687356Y794644D01*
X7702000Y830000D02*
G75*
G03X7702000Y830000I-50000J0D01*
G01*
X7941356Y794644D02*
X7941356Y865356D01*
X7870644Y865356D01*
X7870644Y794644D01*
X7941356Y794644D01*
X7956000Y830000D02*
G75*
G03X7956000Y830000I-50000J0D01*
G01*
X7965356Y3818644D02*
X7965356Y3889356D01*
X7894644Y3889356D01*
X7894644Y3818644D01*
X7965356Y3818644D01*
X7980000Y3854000D02*
G75*
G03X7980000Y3854000I-50000J0D01*
G01*
X7965356Y3564644D02*
X7965356Y3635356D01*
X7894644Y3635356D01*
X7894644Y3564644D01*
X7965356Y3564644D01*
X7980000Y3600000D02*
G75*
G03X7980000Y3600000I-50000J0D01*
G01*
X7975356Y5099644D02*
X7975356Y5170356D01*
X7904644Y5170356D01*
X7904644Y5099644D01*
X7975356Y5099644D01*
X7990000Y5135000D02*
G75*
G03X7990000Y5135000I-50000J0D01*
G01*
X7975356Y4845644D02*
X7975356Y4916356D01*
X7904644Y4916356D01*
X7904644Y4845644D01*
X7975356Y4845644D01*
X7990000Y4881000D02*
G75*
G03X7990000Y4881000I-50000J0D01*
G01*
X7975356Y4468644D02*
X7975356Y4539356D01*
X7904644Y4539356D01*
X7904644Y4468644D01*
X7975356Y4468644D01*
X7990000Y4504000D02*
G75*
G03X7990000Y4504000I-50000J0D01*
G01*
X7975356Y4214644D02*
X7975356Y4285356D01*
X7904644Y4285356D01*
X7904644Y4214644D01*
X7975356Y4214644D01*
X7990000Y4250000D02*
G75*
G03X7990000Y4250000I-50000J0D01*
G01*
X8195356Y794644D02*
X8195356Y865356D01*
X8124644Y865356D01*
X8124644Y794644D01*
X8195356Y794644D01*
X8210000Y830000D02*
G75*
G03X8210000Y830000I-50000J0D01*
G01*
X8540356Y5434644D02*
X8540356Y5505356D01*
X8469644Y5505356D01*
X8469644Y5434644D01*
X8540356Y5434644D01*
X8555000Y5470000D02*
G75*
G03X8555000Y5470000I-50000J0D01*
G01*
X8545356Y794644D02*
X8545356Y865356D01*
X8474644Y865356D01*
X8474644Y794644D01*
X8545356Y794644D01*
X8560000Y830000D02*
G75*
G03X8560000Y830000I-50000J0D01*
G01*
X8794356Y5434644D02*
X8794356Y5505356D01*
X8723644Y5505356D01*
X8723644Y5434644D01*
X8794356Y5434644D01*
X8809000Y5470000D02*
G75*
G03X8809000Y5470000I-50000J0D01*
G01*
X8799356Y794644D02*
X8799356Y865356D01*
X8728644Y865356D01*
X8728644Y794644D01*
X8799356Y794644D01*
X8814000Y830000D02*
G75*
G03X8814000Y830000I-50000J0D01*
G01*
X9048356Y5434644D02*
X9048356Y5505356D01*
X8977644Y5505356D01*
X8977644Y5434644D01*
X9048356Y5434644D01*
X9063000Y5470000D02*
G75*
G03X9063000Y5470000I-50000J0D01*
G01*
X9053356Y794644D02*
X9053356Y865356D01*
X8982644Y865356D01*
X8982644Y794644D01*
X9053356Y794644D01*
X9068000Y830000D02*
G75*
G03X9068000Y830000I-50000J0D01*
G01*
X9307356Y794644D02*
X9307356Y865356D01*
X9236644Y865356D01*
X9236644Y794644D01*
X9307356Y794644D01*
X9322000Y830000D02*
G75*
G03X9322000Y830000I-50000J0D01*
G01*
X9436356Y5434644D02*
X9436356Y5505356D01*
X9365644Y5505356D01*
X9365644Y5434644D01*
X9436356Y5434644D01*
X9451000Y5470000D02*
G75*
G03X9451000Y5470000I-50000J0D01*
G01*
X9690356Y5434644D02*
X9690356Y5505356D01*
X9619644Y5505356D01*
X9619644Y5434644D01*
X9690356Y5434644D01*
X9705000Y5470000D02*
G75*
G03X9705000Y5470000I-50000J0D01*
G01*
X7340500Y5946700D02*
X7391300Y5997500D01*
X7340500Y6048300D01*
X7289700Y5997500D01*
X7340500Y5946700D01*
X7391300Y5997500D02*
G75*
G03X7391300Y5997500I-50800J0D01*
G01*
X7594500Y5946700D02*
X7645300Y5997500D01*
X7594500Y6048300D01*
X7543700Y5997500D01*
X7594500Y5946700D01*
X7645300Y5997500D02*
G75*
G03X7645300Y5997500I-50800J0D01*
G01*
X7848500Y5946700D02*
X7899300Y5997500D01*
X7848500Y6048300D01*
X7797700Y5997500D01*
X7848500Y5946700D01*
X7899300Y5997500D02*
G75*
G03X7899300Y5997500I-50800J0D01*
G01*
X8102500Y5946700D02*
X8153300Y5997500D01*
X8102500Y6048300D01*
X8051700Y5997500D01*
X8102500Y5946700D01*
X8153300Y5997500D02*
G75*
G03X8153300Y5997500I-50800J0D01*
G01*
X8356500Y5946700D02*
X8407300Y5997500D01*
X8356500Y6048300D01*
X8305700Y5997500D01*
X8356500Y5946700D01*
X8407300Y5997500D02*
G75*
G03X8407300Y5997500I-50800J0D01*
G01*
X8610500Y5946700D02*
X8661300Y5997500D01*
X8610500Y6048300D01*
X8559700Y5997500D01*
X8610500Y5946700D01*
X8661300Y5997500D02*
G75*
G03X8661300Y5997500I-50800J0D01*
G01*
X965000Y541000D02*
X965000Y409000D01*
X899000Y475000D02*
X1031000Y475000D01*
X1011669Y428330D02*
X1011669Y521669D01*
X918330Y521669D01*
X918330Y428330D01*
X1011669Y428330D01*
X1465000Y541000D02*
X1465000Y409000D01*
X1399000Y475000D02*
X1531000Y475000D01*
X1511669Y428330D02*
X1511669Y521669D01*
X1418330Y521669D01*
X1418330Y428330D01*
X1511669Y428330D01*
X305000Y6815000D02*
X305000Y6595000D01*
X195000Y6705000D02*
X415000Y6705000D01*
X305000Y6595000D02*
X415000Y6705000D01*
X305000Y6815000D01*
X195000Y6705000D01*
X305000Y6595000D01*
X305000Y415000D02*
X305000Y195000D01*
X195000Y305000D02*
X415000Y305000D01*
X305000Y195000D02*
X415000Y305000D01*
X305000Y415000D01*
X195000Y305000D01*
X305000Y195000D01*
X9705000Y6815000D02*
X9705000Y6595000D01*
X9595000Y6705000D02*
X9815000Y6705000D01*
X9705000Y6595000D02*
X9815000Y6705000D01*
X9705000Y6815000D01*
X9595000Y6705000D01*
X9705000Y6595000D01*
X9705000Y415000D02*
X9705000Y195000D01*
X9595000Y305000D02*
X9815000Y305000D01*
X9705000Y195000D02*
X9815000Y305000D01*
X9705000Y415000D01*
X9595000Y305000D01*
X9705000Y195000D01*
X4255500Y5733500D02*
X4555500Y6033500D01*
X4255500Y6333500D01*
X3955500Y6033500D01*
X4255500Y5733500D01*
X4467634Y5821366D02*
X4467634Y6245634D01*
X4043366Y6245634D01*
X4043366Y5821366D01*
X4467634Y5821366D01*
D13*
X271429Y-465714D02*
X271429Y-165714D01*
X342857Y-165714D01*
X385714Y-180000D01*
X414286Y-208571D01*
X428571Y-237143D01*
X442857Y-294286D01*
X442857Y-337143D01*
X428571Y-394286D01*
X414286Y-422857D01*
X385714Y-451429D01*
X342857Y-465714D01*
X271429Y-465714D01*
X571429Y-465714D02*
X571429Y-265714D01*
X571429Y-322857D02*
X585714Y-294286D01*
X600000Y-280000D01*
X628571Y-265714D01*
X657143Y-265714D01*
X757143Y-465714D02*
X757143Y-265714D01*
X757143Y-165714D02*
X742857Y-180000D01*
X757143Y-194286D01*
X771428Y-180000D01*
X757143Y-165714D01*
X757143Y-194286D01*
X942857Y-465714D02*
X914286Y-451429D01*
X900000Y-422857D01*
X900000Y-165714D01*
X1100000Y-465714D02*
X1071429Y-451429D01*
X1057143Y-422857D01*
X1057143Y-165714D01*
X1442857Y-465714D02*
X1442857Y-165714D01*
X1542857Y-380000D01*
X1642857Y-165714D01*
X1642857Y-465714D01*
X1914286Y-465714D02*
X1914286Y-308572D01*
X1900000Y-280000D01*
X1871428Y-265714D01*
X1814286Y-265714D01*
X1785714Y-280000D01*
X1914286Y-451429D02*
X1885714Y-465714D01*
X1814286Y-465714D01*
X1785714Y-451429D01*
X1771428Y-422857D01*
X1771428Y-394286D01*
X1785714Y-365714D01*
X1814286Y-351429D01*
X1885714Y-351429D01*
X1914286Y-337143D01*
X2057143Y-265714D02*
X2057143Y-565714D01*
X2057143Y-280000D02*
X2085714Y-265714D01*
X2142857Y-265714D01*
X2171429Y-280000D01*
X2185714Y-294286D01*
X2200000Y-322857D01*
X2200000Y-408571D01*
X2185714Y-437143D01*
X2171429Y-451429D01*
X2142857Y-465714D01*
X2085714Y-465714D01*
X2057143Y-451429D01*
X2328571Y-437143D02*
X2342857Y-451429D01*
X2328571Y-465714D01*
X2314286Y-451429D01*
X2328571Y-437143D01*
X2328571Y-465714D01*
X2328571Y-280000D02*
X2342857Y-294286D01*
X2328571Y-308572D01*
X2314286Y-294286D01*
X2328571Y-280000D01*
X2328571Y-308572D01*
X-30000Y-945000D02*
X0Y-975000D01*
X0Y-945000D02*
X-30000Y-975000D01*
X328571Y-795714D02*
X357143Y-795714D01*
X385714Y-810000D01*
X400000Y-824286D01*
X414286Y-852857D01*
X428571Y-910000D01*
X428571Y-981429D01*
X414286Y-1038571D01*
X400000Y-1067143D01*
X385714Y-1081429D01*
X357143Y-1095714D01*
X328571Y-1095714D01*
X300000Y-1081429D01*
X285714Y-1067143D01*
X271429Y-1038571D01*
X257143Y-981429D01*
X257143Y-910000D01*
X271429Y-852857D01*
X285714Y-824286D01*
X300000Y-810000D01*
X328571Y-795714D01*
X557143Y-1067143D02*
X571429Y-1081429D01*
X557143Y-1095714D01*
X542857Y-1081429D01*
X557143Y-1067143D01*
X557143Y-1095714D01*
X671428Y-795714D02*
X857143Y-795714D01*
X757143Y-910000D01*
X800000Y-910000D01*
X828571Y-924286D01*
X842857Y-938571D01*
X857143Y-967143D01*
X857143Y-1038571D01*
X842857Y-1067143D01*
X828571Y-1081429D01*
X800000Y-1095714D01*
X714286Y-1095714D01*
X685714Y-1081429D01*
X671428Y-1067143D01*
X1042857Y-795714D02*
X1071429Y-795714D01*
X1100000Y-810000D01*
X1114286Y-824286D01*
X1128571Y-852857D01*
X1142857Y-910000D01*
X1142857Y-981429D01*
X1128571Y-1038571D01*
X1114286Y-1067143D01*
X1100000Y-1081429D01*
X1071429Y-1095714D01*
X1042857Y-1095714D01*
X1014286Y-1081429D01*
X1000000Y-1067143D01*
X985714Y-1038571D01*
X971428Y-981429D01*
X971428Y-910000D01*
X985714Y-852857D01*
X1000000Y-824286D01*
X1014286Y-810000D01*
X1042857Y-795714D01*
X1271429Y-1095714D02*
X1271429Y-895714D01*
X1271429Y-924286D02*
X1285714Y-910000D01*
X1314286Y-895714D01*
X1357143Y-895714D01*
X1385714Y-910000D01*
X1400000Y-938571D01*
X1400000Y-1095714D01*
X1400000Y-938571D02*
X1414286Y-910000D01*
X1442857Y-895714D01*
X1485714Y-895714D01*
X1514286Y-910000D01*
X1528571Y-938571D01*
X1528571Y-1095714D01*
X1671428Y-1095714D02*
X1671428Y-895714D01*
X1671428Y-924286D02*
X1685714Y-910000D01*
X1714286Y-895714D01*
X1757143Y-895714D01*
X1785714Y-910000D01*
X1800000Y-938571D01*
X1800000Y-1095714D01*
X1800000Y-938571D02*
X1814286Y-910000D01*
X1842857Y-895714D01*
X1885714Y-895714D01*
X1914286Y-910000D01*
X1928571Y-938571D01*
X1928571Y-1095714D01*
X2514286Y-781429D02*
X2257143Y-1167143D01*
X2900000Y-795714D02*
X2928571Y-795714D01*
X2957143Y-810000D01*
X2971428Y-824286D01*
X2985714Y-852857D01*
X3000000Y-910000D01*
X3000000Y-981429D01*
X2985714Y-1038571D01*
X2971428Y-1067143D01*
X2957143Y-1081429D01*
X2928571Y-1095714D01*
X2900000Y-1095714D01*
X2871428Y-1081429D01*
X2857143Y-1067143D01*
X2842857Y-1038571D01*
X2828571Y-981429D01*
X2828571Y-910000D01*
X2842857Y-852857D01*
X2857143Y-824286D01*
X2871428Y-810000D01*
X2900000Y-795714D01*
X3128571Y-1067143D02*
X3142857Y-1081429D01*
X3128571Y-1095714D01*
X3114286Y-1081429D01*
X3128571Y-1067143D01*
X3128571Y-1095714D01*
X3328571Y-795714D02*
X3357143Y-795714D01*
X3385714Y-810000D01*
X3400000Y-824286D01*
X3414285Y-852857D01*
X3428571Y-910000D01*
X3428571Y-981429D01*
X3414285Y-1038571D01*
X3400000Y-1067143D01*
X3385714Y-1081429D01*
X3357143Y-1095714D01*
X3328571Y-1095714D01*
X3300000Y-1081429D01*
X3285714Y-1067143D01*
X3271428Y-1038571D01*
X3257143Y-981429D01*
X3257143Y-910000D01*
X3271428Y-852857D01*
X3285714Y-824286D01*
X3300000Y-810000D01*
X3328571Y-795714D01*
X3714285Y-1095714D02*
X3542857Y-1095714D01*
X3628571Y-1095714D02*
X3628571Y-795714D01*
X3600000Y-838571D01*
X3571428Y-867143D01*
X3542857Y-881429D01*
X3828571Y-824286D02*
X3842857Y-810000D01*
X3871428Y-795714D01*
X3942857Y-795714D01*
X3971428Y-810000D01*
X3985714Y-824286D01*
X4000000Y-852857D01*
X4000000Y-881429D01*
X3985714Y-924286D01*
X3814285Y-1095714D01*
X4000000Y-1095714D01*
X4114286Y-795714D02*
X4114286Y-852857D01*
X4228571Y-795714D02*
X4228571Y-852857D01*
X4671428Y-1210000D02*
X4657143Y-1195714D01*
X4628571Y-1152857D01*
X4614286Y-1124286D01*
X4600000Y-1081429D01*
X4585714Y-1010000D01*
X4585714Y-952857D01*
X4600000Y-881429D01*
X4614286Y-838571D01*
X4628571Y-810000D01*
X4657143Y-767143D01*
X4671428Y-752857D01*
X4942857Y-1095714D02*
X4771428Y-1095714D01*
X4857143Y-1095714D02*
X4857143Y-795714D01*
X4828571Y-838571D01*
X4800000Y-867143D01*
X4771428Y-881429D01*
X5042857Y-795714D02*
X5228571Y-795714D01*
X5128571Y-910000D01*
X5171428Y-910000D01*
X5200000Y-924286D01*
X5214286Y-938571D01*
X5228571Y-967143D01*
X5228571Y-1038571D01*
X5214286Y-1067143D01*
X5200000Y-1081429D01*
X5171428Y-1095714D01*
X5085714Y-1095714D01*
X5057143Y-1081429D01*
X5042857Y-1067143D01*
X5485714Y-895714D02*
X5485714Y-1095714D01*
X5414286Y-781429D02*
X5342857Y-995714D01*
X5528571Y-995714D01*
X5871428Y-1095714D02*
X5871428Y-795714D01*
X6000000Y-1095714D02*
X6000000Y-938571D01*
X5985714Y-910000D01*
X5957143Y-895714D01*
X5914285Y-895714D01*
X5885714Y-910000D01*
X5871428Y-924286D01*
X6185714Y-1095714D02*
X6157143Y-1081429D01*
X6142857Y-1067143D01*
X6128571Y-1038571D01*
X6128571Y-952857D01*
X6142857Y-924286D01*
X6157143Y-910000D01*
X6185714Y-895714D01*
X6228571Y-895714D01*
X6257143Y-910000D01*
X6271428Y-924286D01*
X6285714Y-952857D01*
X6285714Y-1038571D01*
X6271428Y-1067143D01*
X6257143Y-1081429D01*
X6228571Y-1095714D01*
X6185714Y-1095714D01*
X6457143Y-1095714D02*
X6428571Y-1081429D01*
X6414286Y-1052857D01*
X6414286Y-795714D01*
X6685714Y-1081429D02*
X6657143Y-1095714D01*
X6600000Y-1095714D01*
X6571428Y-1081429D01*
X6557143Y-1052857D01*
X6557143Y-938571D01*
X6571428Y-910000D01*
X6600000Y-895714D01*
X6657143Y-895714D01*
X6685714Y-910000D01*
X6700000Y-938571D01*
X6700000Y-967143D01*
X6557143Y-995714D01*
X6814286Y-1081429D02*
X6842857Y-1095714D01*
X6900000Y-1095714D01*
X6928571Y-1081429D01*
X6942857Y-1052857D01*
X6942857Y-1038571D01*
X6928571Y-1010000D01*
X6900000Y-995714D01*
X6857143Y-995714D01*
X6828571Y-981429D01*
X6814286Y-952857D01*
X6814286Y-938571D01*
X6828571Y-910000D01*
X6857143Y-895714D01*
X6900000Y-895714D01*
X6928571Y-910000D01*
X7042857Y-1210000D02*
X7057143Y-1195714D01*
X7085714Y-1152857D01*
X7100000Y-1124286D01*
X7114286Y-1081429D01*
X7128571Y-1010000D01*
X7128571Y-952857D01*
X7114286Y-881429D01*
X7100000Y-838571D01*
X7085714Y-810000D01*
X7057143Y-767143D01*
X7042857Y-752857D01*
X0Y-1356000D02*
G75*
G03X0Y-1356000I-20000J0D01*
G01*
X328571Y-1191714D02*
X357143Y-1191714D01*
X385714Y-1206000D01*
X400000Y-1220286D01*
X414286Y-1248857D01*
X428571Y-1306000D01*
X428571Y-1377429D01*
X414286Y-1434571D01*
X400000Y-1463143D01*
X385714Y-1477429D01*
X357143Y-1491714D01*
X328571Y-1491714D01*
X300000Y-1477429D01*
X285714Y-1463143D01*
X271429Y-1434571D01*
X257143Y-1377429D01*
X257143Y-1306000D01*
X271429Y-1248857D01*
X285714Y-1220286D01*
X300000Y-1206000D01*
X328571Y-1191714D01*
X557143Y-1463143D02*
X571429Y-1477429D01*
X557143Y-1491714D01*
X542857Y-1477429D01*
X557143Y-1463143D01*
X557143Y-1491714D01*
X828571Y-1291714D02*
X828571Y-1491714D01*
X757143Y-1177429D02*
X685714Y-1391714D01*
X871428Y-1391714D01*
X1042857Y-1191714D02*
X1071429Y-1191714D01*
X1100000Y-1206000D01*
X1114286Y-1220286D01*
X1128571Y-1248857D01*
X1142857Y-1306000D01*
X1142857Y-1377429D01*
X1128571Y-1434571D01*
X1114286Y-1463143D01*
X1100000Y-1477429D01*
X1071429Y-1491714D01*
X1042857Y-1491714D01*
X1014286Y-1477429D01*
X1000000Y-1463143D01*
X985714Y-1434571D01*
X971428Y-1377429D01*
X971428Y-1306000D01*
X985714Y-1248857D01*
X1000000Y-1220286D01*
X1014286Y-1206000D01*
X1042857Y-1191714D01*
X1271429Y-1491714D02*
X1271429Y-1291714D01*
X1271429Y-1320286D02*
X1285714Y-1306000D01*
X1314286Y-1291714D01*
X1357143Y-1291714D01*
X1385714Y-1306000D01*
X1400000Y-1334572D01*
X1400000Y-1491714D01*
X1400000Y-1334572D02*
X1414286Y-1306000D01*
X1442857Y-1291714D01*
X1485714Y-1291714D01*
X1514286Y-1306000D01*
X1528571Y-1334572D01*
X1528571Y-1491714D01*
X1671428Y-1491714D02*
X1671428Y-1291714D01*
X1671428Y-1320286D02*
X1685714Y-1306000D01*
X1714286Y-1291714D01*
X1757143Y-1291714D01*
X1785714Y-1306000D01*
X1800000Y-1334572D01*
X1800000Y-1491714D01*
X1800000Y-1334572D02*
X1814286Y-1306000D01*
X1842857Y-1291714D01*
X1885714Y-1291714D01*
X1914286Y-1306000D01*
X1928571Y-1334572D01*
X1928571Y-1491714D01*
X2514286Y-1177429D02*
X2257143Y-1563143D01*
X2900000Y-1191714D02*
X2928571Y-1191714D01*
X2957143Y-1206000D01*
X2971428Y-1220286D01*
X2985714Y-1248857D01*
X3000000Y-1306000D01*
X3000000Y-1377429D01*
X2985714Y-1434571D01*
X2971428Y-1463143D01*
X2957143Y-1477429D01*
X2928571Y-1491714D01*
X2900000Y-1491714D01*
X2871428Y-1477429D01*
X2857143Y-1463143D01*
X2842857Y-1434571D01*
X2828571Y-1377429D01*
X2828571Y-1306000D01*
X2842857Y-1248857D01*
X2857143Y-1220286D01*
X2871428Y-1206000D01*
X2900000Y-1191714D01*
X3128571Y-1463143D02*
X3142857Y-1477429D01*
X3128571Y-1491714D01*
X3114286Y-1477429D01*
X3128571Y-1463143D01*
X3128571Y-1491714D01*
X3328571Y-1191714D02*
X3357143Y-1191714D01*
X3385714Y-1206000D01*
X3400000Y-1220286D01*
X3414285Y-1248857D01*
X3428571Y-1306000D01*
X3428571Y-1377429D01*
X3414285Y-1434571D01*
X3400000Y-1463143D01*
X3385714Y-1477429D01*
X3357143Y-1491714D01*
X3328571Y-1491714D01*
X3300000Y-1477429D01*
X3285714Y-1463143D01*
X3271428Y-1434571D01*
X3257143Y-1377429D01*
X3257143Y-1306000D01*
X3271428Y-1248857D01*
X3285714Y-1220286D01*
X3300000Y-1206000D01*
X3328571Y-1191714D01*
X3714285Y-1491714D02*
X3542857Y-1491714D01*
X3628571Y-1491714D02*
X3628571Y-1191714D01*
X3600000Y-1234572D01*
X3571428Y-1263143D01*
X3542857Y-1277429D01*
X3971428Y-1191714D02*
X3914285Y-1191714D01*
X3885714Y-1206000D01*
X3871428Y-1220286D01*
X3842857Y-1263143D01*
X3828571Y-1320286D01*
X3828571Y-1434571D01*
X3842857Y-1463143D01*
X3857143Y-1477429D01*
X3885714Y-1491714D01*
X3942857Y-1491714D01*
X3971428Y-1477429D01*
X3985714Y-1463143D01*
X4000000Y-1434571D01*
X4000000Y-1363143D01*
X3985714Y-1334572D01*
X3971428Y-1320286D01*
X3942857Y-1306000D01*
X3885714Y-1306000D01*
X3857143Y-1320286D01*
X3842857Y-1334572D01*
X3828571Y-1363143D01*
X4114286Y-1191714D02*
X4114286Y-1248857D01*
X4228571Y-1191714D02*
X4228571Y-1248857D01*
X4671428Y-1606000D02*
X4657143Y-1591714D01*
X4628571Y-1548857D01*
X4614286Y-1520286D01*
X4600000Y-1477429D01*
X4585714Y-1406000D01*
X4585714Y-1348857D01*
X4600000Y-1277429D01*
X4614286Y-1234572D01*
X4628571Y-1206000D01*
X4657143Y-1163143D01*
X4671428Y-1148857D01*
X4828571Y-1320286D02*
X4800000Y-1306000D01*
X4785714Y-1291714D01*
X4771428Y-1263143D01*
X4771428Y-1248857D01*
X4785714Y-1220286D01*
X4800000Y-1206000D01*
X4828571Y-1191714D01*
X4885714Y-1191714D01*
X4914286Y-1206000D01*
X4928571Y-1220286D01*
X4942857Y-1248857D01*
X4942857Y-1263143D01*
X4928571Y-1291714D01*
X4914286Y-1306000D01*
X4885714Y-1320286D01*
X4828571Y-1320286D01*
X4800000Y-1334572D01*
X4785714Y-1348857D01*
X4771428Y-1377429D01*
X4771428Y-1434571D01*
X4785714Y-1463143D01*
X4800000Y-1477429D01*
X4828571Y-1491714D01*
X4885714Y-1491714D01*
X4914286Y-1477429D01*
X4928571Y-1463143D01*
X4942857Y-1434571D01*
X4942857Y-1377429D01*
X4928571Y-1348857D01*
X4914286Y-1334572D01*
X4885714Y-1320286D01*
X5200000Y-1291714D02*
X5200000Y-1491714D01*
X5128571Y-1177429D02*
X5057143Y-1391714D01*
X5242857Y-1391714D01*
X5585714Y-1491714D02*
X5585714Y-1191714D01*
X5714285Y-1491714D02*
X5714285Y-1334572D01*
X5700000Y-1306000D01*
X5671428Y-1291714D01*
X5628571Y-1291714D01*
X5600000Y-1306000D01*
X5585714Y-1320286D01*
X5900000Y-1491714D02*
X5871428Y-1477429D01*
X5857143Y-1463143D01*
X5842857Y-1434571D01*
X5842857Y-1348857D01*
X5857143Y-1320286D01*
X5871428Y-1306000D01*
X5900000Y-1291714D01*
X5942857Y-1291714D01*
X5971428Y-1306000D01*
X5985714Y-1320286D01*
X6000000Y-1348857D01*
X6000000Y-1434571D01*
X5985714Y-1463143D01*
X5971428Y-1477429D01*
X5942857Y-1491714D01*
X5900000Y-1491714D01*
X6171428Y-1491714D02*
X6142857Y-1477429D01*
X6128571Y-1448857D01*
X6128571Y-1191714D01*
X6400000Y-1477429D02*
X6371428Y-1491714D01*
X6314286Y-1491714D01*
X6285714Y-1477429D01*
X6271428Y-1448857D01*
X6271428Y-1334572D01*
X6285714Y-1306000D01*
X6314286Y-1291714D01*
X6371428Y-1291714D01*
X6400000Y-1306000D01*
X6414286Y-1334572D01*
X6414286Y-1363143D01*
X6271428Y-1391714D01*
X6528571Y-1477429D02*
X6557143Y-1491714D01*
X6614286Y-1491714D01*
X6642857Y-1477429D01*
X6657143Y-1448857D01*
X6657143Y-1434571D01*
X6642857Y-1406000D01*
X6614286Y-1391714D01*
X6571428Y-1391714D01*
X6542857Y-1377429D01*
X6528571Y-1348857D01*
X6528571Y-1334572D01*
X6542857Y-1306000D01*
X6571428Y-1291714D01*
X6614286Y-1291714D01*
X6642857Y-1306000D01*
X6757143Y-1606000D02*
X6771428Y-1591714D01*
X6800000Y-1548857D01*
X6814286Y-1520286D01*
X6828571Y-1477429D01*
X6842857Y-1406000D01*
X6842857Y-1348857D01*
X6828571Y-1277429D01*
X6814286Y-1234572D01*
X6800000Y-1206000D01*
X6771428Y-1163143D01*
X6757143Y-1148857D01*
X-25000Y-1727000D02*
X-25000Y-1777000D01*
X-50000Y-1752000D02*
X0Y-1752000D01*
X328571Y-1587714D02*
X357143Y-1587714D01*
X385714Y-1602000D01*
X400000Y-1616286D01*
X414286Y-1644857D01*
X428571Y-1702000D01*
X428571Y-1773429D01*
X414286Y-1830571D01*
X400000Y-1859143D01*
X385714Y-1873429D01*
X357143Y-1887714D01*
X328571Y-1887714D01*
X300000Y-1873429D01*
X285714Y-1859143D01*
X271429Y-1830571D01*
X257143Y-1773429D01*
X257143Y-1702000D01*
X271429Y-1644857D01*
X285714Y-1616286D01*
X300000Y-1602000D01*
X328571Y-1587714D01*
X557143Y-1859143D02*
X571429Y-1873429D01*
X557143Y-1887714D01*
X542857Y-1873429D01*
X557143Y-1859143D01*
X557143Y-1887714D01*
X842857Y-1587714D02*
X700000Y-1587714D01*
X685714Y-1730571D01*
X700000Y-1716286D01*
X728571Y-1702000D01*
X800000Y-1702000D01*
X828571Y-1716286D01*
X842857Y-1730571D01*
X857143Y-1759143D01*
X857143Y-1830571D01*
X842857Y-1859143D01*
X828571Y-1873429D01*
X800000Y-1887714D01*
X728571Y-1887714D01*
X700000Y-1873429D01*
X685714Y-1859143D01*
X1042857Y-1587714D02*
X1071429Y-1587714D01*
X1100000Y-1602000D01*
X1114286Y-1616286D01*
X1128571Y-1644857D01*
X1142857Y-1702000D01*
X1142857Y-1773429D01*
X1128571Y-1830571D01*
X1114286Y-1859143D01*
X1100000Y-1873429D01*
X1071429Y-1887714D01*
X1042857Y-1887714D01*
X1014286Y-1873429D01*
X1000000Y-1859143D01*
X985714Y-1830571D01*
X971428Y-1773429D01*
X971428Y-1702000D01*
X985714Y-1644857D01*
X1000000Y-1616286D01*
X1014286Y-1602000D01*
X1042857Y-1587714D01*
X1271429Y-1887714D02*
X1271429Y-1687714D01*
X1271429Y-1716286D02*
X1285714Y-1702000D01*
X1314286Y-1687714D01*
X1357143Y-1687714D01*
X1385714Y-1702000D01*
X1400000Y-1730571D01*
X1400000Y-1887714D01*
X1400000Y-1730571D02*
X1414286Y-1702000D01*
X1442857Y-1687714D01*
X1485714Y-1687714D01*
X1514286Y-1702000D01*
X1528571Y-1730571D01*
X1528571Y-1887714D01*
X1671428Y-1887714D02*
X1671428Y-1687714D01*
X1671428Y-1716286D02*
X1685714Y-1702000D01*
X1714286Y-1687714D01*
X1757143Y-1687714D01*
X1785714Y-1702000D01*
X1800000Y-1730571D01*
X1800000Y-1887714D01*
X1800000Y-1730571D02*
X1814286Y-1702000D01*
X1842857Y-1687714D01*
X1885714Y-1687714D01*
X1914286Y-1702000D01*
X1928571Y-1730571D01*
X1928571Y-1887714D01*
X2514286Y-1573429D02*
X2257143Y-1959143D01*
X2900000Y-1587714D02*
X2928571Y-1587714D01*
X2957143Y-1602000D01*
X2971428Y-1616286D01*
X2985714Y-1644857D01*
X3000000Y-1702000D01*
X3000000Y-1773429D01*
X2985714Y-1830571D01*
X2971428Y-1859143D01*
X2957143Y-1873429D01*
X2928571Y-1887714D01*
X2900000Y-1887714D01*
X2871428Y-1873429D01*
X2857143Y-1859143D01*
X2842857Y-1830571D01*
X2828571Y-1773429D01*
X2828571Y-1702000D01*
X2842857Y-1644857D01*
X2857143Y-1616286D01*
X2871428Y-1602000D01*
X2900000Y-1587714D01*
X3128571Y-1859143D02*
X3142857Y-1873429D01*
X3128571Y-1887714D01*
X3114286Y-1873429D01*
X3128571Y-1859143D01*
X3128571Y-1887714D01*
X3328571Y-1587714D02*
X3357143Y-1587714D01*
X3385714Y-1602000D01*
X3400000Y-1616286D01*
X3414285Y-1644857D01*
X3428571Y-1702000D01*
X3428571Y-1773429D01*
X3414285Y-1830571D01*
X3400000Y-1859143D01*
X3385714Y-1873429D01*
X3357143Y-1887714D01*
X3328571Y-1887714D01*
X3300000Y-1873429D01*
X3285714Y-1859143D01*
X3271428Y-1830571D01*
X3257143Y-1773429D01*
X3257143Y-1702000D01*
X3271428Y-1644857D01*
X3285714Y-1616286D01*
X3300000Y-1602000D01*
X3328571Y-1587714D01*
X3542857Y-1616286D02*
X3557143Y-1602000D01*
X3585714Y-1587714D01*
X3657143Y-1587714D01*
X3685714Y-1602000D01*
X3700000Y-1616286D01*
X3714285Y-1644857D01*
X3714285Y-1673429D01*
X3700000Y-1716286D01*
X3528571Y-1887714D01*
X3714285Y-1887714D01*
X3900000Y-1587714D02*
X3928571Y-1587714D01*
X3957143Y-1602000D01*
X3971428Y-1616286D01*
X3985714Y-1644857D01*
X4000000Y-1702000D01*
X4000000Y-1773429D01*
X3985714Y-1830571D01*
X3971428Y-1859143D01*
X3957143Y-1873429D01*
X3928571Y-1887714D01*
X3900000Y-1887714D01*
X3871428Y-1873429D01*
X3857143Y-1859143D01*
X3842857Y-1830571D01*
X3828571Y-1773429D01*
X3828571Y-1702000D01*
X3842857Y-1644857D01*
X3857143Y-1616286D01*
X3871428Y-1602000D01*
X3900000Y-1587714D01*
X4114286Y-1587714D02*
X4114286Y-1644857D01*
X4228571Y-1587714D02*
X4228571Y-1644857D01*
X4671428Y-2002000D02*
X4657143Y-1987714D01*
X4628571Y-1944857D01*
X4614286Y-1916286D01*
X4600000Y-1873429D01*
X4585714Y-1802000D01*
X4585714Y-1744857D01*
X4600000Y-1673429D01*
X4614286Y-1630571D01*
X4628571Y-1602000D01*
X4657143Y-1559143D01*
X4671428Y-1544857D01*
X4828571Y-1716286D02*
X4800000Y-1702000D01*
X4785714Y-1687714D01*
X4771428Y-1659143D01*
X4771428Y-1644857D01*
X4785714Y-1616286D01*
X4800000Y-1602000D01*
X4828571Y-1587714D01*
X4885714Y-1587714D01*
X4914286Y-1602000D01*
X4928571Y-1616286D01*
X4942857Y-1644857D01*
X4942857Y-1659143D01*
X4928571Y-1687714D01*
X4914286Y-1702000D01*
X4885714Y-1716286D01*
X4828571Y-1716286D01*
X4800000Y-1730571D01*
X4785714Y-1744857D01*
X4771428Y-1773429D01*
X4771428Y-1830571D01*
X4785714Y-1859143D01*
X4800000Y-1873429D01*
X4828571Y-1887714D01*
X4885714Y-1887714D01*
X4914286Y-1873429D01*
X4928571Y-1859143D01*
X4942857Y-1830571D01*
X4942857Y-1773429D01*
X4928571Y-1744857D01*
X4914286Y-1730571D01*
X4885714Y-1716286D01*
X5300000Y-1887714D02*
X5300000Y-1587714D01*
X5428571Y-1887714D02*
X5428571Y-1730571D01*
X5414286Y-1702000D01*
X5385714Y-1687714D01*
X5342857Y-1687714D01*
X5314286Y-1702000D01*
X5300000Y-1716286D01*
X5614285Y-1887714D02*
X5585714Y-1873429D01*
X5571428Y-1859143D01*
X5557143Y-1830571D01*
X5557143Y-1744857D01*
X5571428Y-1716286D01*
X5585714Y-1702000D01*
X5614285Y-1687714D01*
X5657143Y-1687714D01*
X5685714Y-1702000D01*
X5700000Y-1716286D01*
X5714285Y-1744857D01*
X5714285Y-1830571D01*
X5700000Y-1859143D01*
X5685714Y-1873429D01*
X5657143Y-1887714D01*
X5614285Y-1887714D01*
X5885714Y-1887714D02*
X5857143Y-1873429D01*
X5842857Y-1844857D01*
X5842857Y-1587714D01*
X6114286Y-1873429D02*
X6085714Y-1887714D01*
X6028571Y-1887714D01*
X6000000Y-1873429D01*
X5985714Y-1844857D01*
X5985714Y-1730571D01*
X6000000Y-1702000D01*
X6028571Y-1687714D01*
X6085714Y-1687714D01*
X6114286Y-1702000D01*
X6128571Y-1730571D01*
X6128571Y-1759143D01*
X5985714Y-1787714D01*
X6242857Y-1873429D02*
X6271428Y-1887714D01*
X6328571Y-1887714D01*
X6357143Y-1873429D01*
X6371428Y-1844857D01*
X6371428Y-1830571D01*
X6357143Y-1802000D01*
X6328571Y-1787714D01*
X6285714Y-1787714D01*
X6257143Y-1773429D01*
X6242857Y-1744857D01*
X6242857Y-1730571D01*
X6257143Y-1702000D01*
X6285714Y-1687714D01*
X6328571Y-1687714D01*
X6357143Y-1702000D01*
X6728571Y-1773429D02*
X6957143Y-1773429D01*
X6842857Y-1887714D02*
X6842857Y-1659143D01*
X7314286Y-1616286D02*
X7328571Y-1602000D01*
X7357143Y-1587714D01*
X7428571Y-1587714D01*
X7457143Y-1602000D01*
X7471428Y-1616286D01*
X7485714Y-1644857D01*
X7485714Y-1673429D01*
X7471428Y-1716286D01*
X7300000Y-1887714D01*
X7485714Y-1887714D01*
X7828571Y-1873429D02*
X7857143Y-1887714D01*
X7914285Y-1887714D01*
X7942857Y-1873429D01*
X7957143Y-1844857D01*
X7957143Y-1830571D01*
X7942857Y-1802000D01*
X7914285Y-1787714D01*
X7871428Y-1787714D01*
X7842857Y-1773429D01*
X7828571Y-1744857D01*
X7828571Y-1730571D01*
X7842857Y-1702000D01*
X7871428Y-1687714D01*
X7914285Y-1687714D01*
X7942857Y-1702000D01*
X8128571Y-1887714D02*
X8100000Y-1873429D01*
X8085714Y-1844857D01*
X8085714Y-1587714D01*
X8285714Y-1887714D02*
X8257143Y-1873429D01*
X8242857Y-1859143D01*
X8228571Y-1830571D01*
X8228571Y-1744857D01*
X8242857Y-1716286D01*
X8257143Y-1702000D01*
X8285714Y-1687714D01*
X8328571Y-1687714D01*
X8357143Y-1702000D01*
X8371428Y-1716286D01*
X8385714Y-1744857D01*
X8385714Y-1830571D01*
X8371428Y-1859143D01*
X8357143Y-1873429D01*
X8328571Y-1887714D01*
X8285714Y-1887714D01*
X8471428Y-1687714D02*
X8585714Y-1687714D01*
X8514286Y-1587714D02*
X8514286Y-1844857D01*
X8528571Y-1873429D01*
X8557143Y-1887714D01*
X8585714Y-1887714D01*
X8671429Y-1873429D02*
X8700000Y-1887714D01*
X8757143Y-1887714D01*
X8785714Y-1873429D01*
X8800000Y-1844857D01*
X8800000Y-1830571D01*
X8785714Y-1802000D01*
X8757143Y-1787714D01*
X8714286Y-1787714D01*
X8685714Y-1773429D01*
X8671429Y-1744857D01*
X8671429Y-1730571D01*
X8685714Y-1702000D01*
X8714286Y-1687714D01*
X8757143Y-1687714D01*
X8785714Y-1702000D01*
X8900000Y-2002000D02*
X8914286Y-1987714D01*
X8942857Y-1944857D01*
X8957143Y-1916286D01*
X8971428Y-1873429D01*
X8985714Y-1802000D01*
X8985714Y-1744857D01*
X8971428Y-1673429D01*
X8957143Y-1630571D01*
X8942857Y-1602000D01*
X8914286Y-1559143D01*
X8900000Y-1544857D01*
X-8054Y-2167446D02*
X-8054Y-2128555D01*
X-46946Y-2128555D01*
X-46946Y-2167446D01*
X-8054Y-2167446D01*
X328571Y-1983714D02*
X357143Y-1983714D01*
X385714Y-1998000D01*
X400000Y-2012286D01*
X414286Y-2040857D01*
X428571Y-2098000D01*
X428571Y-2169429D01*
X414286Y-2226572D01*
X400000Y-2255143D01*
X385714Y-2269429D01*
X357143Y-2283714D01*
X328571Y-2283714D01*
X300000Y-2269429D01*
X285714Y-2255143D01*
X271429Y-2226572D01*
X257143Y-2169429D01*
X257143Y-2098000D01*
X271429Y-2040857D01*
X285714Y-2012286D01*
X300000Y-1998000D01*
X328571Y-1983714D01*
X557143Y-2255143D02*
X571429Y-2269429D01*
X557143Y-2283714D01*
X542857Y-2269429D01*
X557143Y-2255143D01*
X557143Y-2283714D01*
X842857Y-1983714D02*
X700000Y-1983714D01*
X685714Y-2126572D01*
X700000Y-2112286D01*
X728571Y-2098000D01*
X800000Y-2098000D01*
X828571Y-2112286D01*
X842857Y-2126572D01*
X857143Y-2155143D01*
X857143Y-2226572D01*
X842857Y-2255143D01*
X828571Y-2269429D01*
X800000Y-2283714D01*
X728571Y-2283714D01*
X700000Y-2269429D01*
X685714Y-2255143D01*
X1128571Y-1983714D02*
X985714Y-1983714D01*
X971428Y-2126572D01*
X985714Y-2112286D01*
X1014286Y-2098000D01*
X1085714Y-2098000D01*
X1114286Y-2112286D01*
X1128571Y-2126572D01*
X1142857Y-2155143D01*
X1142857Y-2226572D01*
X1128571Y-2255143D01*
X1114286Y-2269429D01*
X1085714Y-2283714D01*
X1014286Y-2283714D01*
X985714Y-2269429D01*
X971428Y-2255143D01*
X1271429Y-2283714D02*
X1271429Y-2083714D01*
X1271429Y-2112286D02*
X1285714Y-2098000D01*
X1314286Y-2083714D01*
X1357143Y-2083714D01*
X1385714Y-2098000D01*
X1400000Y-2126572D01*
X1400000Y-2283714D01*
X1400000Y-2126572D02*
X1414286Y-2098000D01*
X1442857Y-2083714D01*
X1485714Y-2083714D01*
X1514286Y-2098000D01*
X1528571Y-2126572D01*
X1528571Y-2283714D01*
X1671428Y-2283714D02*
X1671428Y-2083714D01*
X1671428Y-2112286D02*
X1685714Y-2098000D01*
X1714286Y-2083714D01*
X1757143Y-2083714D01*
X1785714Y-2098000D01*
X1800000Y-2126572D01*
X1800000Y-2283714D01*
X1800000Y-2126572D02*
X1814286Y-2098000D01*
X1842857Y-2083714D01*
X1885714Y-2083714D01*
X1914286Y-2098000D01*
X1928571Y-2126572D01*
X1928571Y-2283714D01*
X2514286Y-1969429D02*
X2257143Y-2355143D01*
X2900000Y-1983714D02*
X2928571Y-1983714D01*
X2957143Y-1998000D01*
X2971428Y-2012286D01*
X2985714Y-2040857D01*
X3000000Y-2098000D01*
X3000000Y-2169429D01*
X2985714Y-2226572D01*
X2971428Y-2255143D01*
X2957143Y-2269429D01*
X2928571Y-2283714D01*
X2900000Y-2283714D01*
X2871428Y-2269429D01*
X2857143Y-2255143D01*
X2842857Y-2226572D01*
X2828571Y-2169429D01*
X2828571Y-2098000D01*
X2842857Y-2040857D01*
X2857143Y-2012286D01*
X2871428Y-1998000D01*
X2900000Y-1983714D01*
X3128571Y-2255143D02*
X3142857Y-2269429D01*
X3128571Y-2283714D01*
X3114286Y-2269429D01*
X3128571Y-2255143D01*
X3128571Y-2283714D01*
X3328571Y-1983714D02*
X3357143Y-1983714D01*
X3385714Y-1998000D01*
X3400000Y-2012286D01*
X3414285Y-2040857D01*
X3428571Y-2098000D01*
X3428571Y-2169429D01*
X3414285Y-2226572D01*
X3400000Y-2255143D01*
X3385714Y-2269429D01*
X3357143Y-2283714D01*
X3328571Y-2283714D01*
X3300000Y-2269429D01*
X3285714Y-2255143D01*
X3271428Y-2226572D01*
X3257143Y-2169429D01*
X3257143Y-2098000D01*
X3271428Y-2040857D01*
X3285714Y-2012286D01*
X3300000Y-1998000D01*
X3328571Y-1983714D01*
X3542857Y-2012286D02*
X3557143Y-1998000D01*
X3585714Y-1983714D01*
X3657143Y-1983714D01*
X3685714Y-1998000D01*
X3700000Y-2012286D01*
X3714285Y-2040857D01*
X3714285Y-2069429D01*
X3700000Y-2112286D01*
X3528571Y-2283714D01*
X3714285Y-2283714D01*
X3828571Y-2012286D02*
X3842857Y-1998000D01*
X3871428Y-1983714D01*
X3942857Y-1983714D01*
X3971428Y-1998000D01*
X3985714Y-2012286D01*
X4000000Y-2040857D01*
X4000000Y-2069429D01*
X3985714Y-2112286D01*
X3814285Y-2283714D01*
X4000000Y-2283714D01*
X4114286Y-1983714D02*
X4114286Y-2040857D01*
X4228571Y-1983714D02*
X4228571Y-2040857D01*
X4671428Y-2398000D02*
X4657143Y-2383714D01*
X4628571Y-2340857D01*
X4614286Y-2312286D01*
X4600000Y-2269429D01*
X4585714Y-2198000D01*
X4585714Y-2140857D01*
X4600000Y-2069429D01*
X4614286Y-2026571D01*
X4628571Y-1998000D01*
X4657143Y-1955143D01*
X4671428Y-1940857D01*
X4842857Y-1983714D02*
X4871428Y-1983714D01*
X4900000Y-1998000D01*
X4914286Y-2012286D01*
X4928571Y-2040857D01*
X4942857Y-2098000D01*
X4942857Y-2169429D01*
X4928571Y-2226572D01*
X4914286Y-2255143D01*
X4900000Y-2269429D01*
X4871428Y-2283714D01*
X4842857Y-2283714D01*
X4814286Y-2269429D01*
X4800000Y-2255143D01*
X4785714Y-2226572D01*
X4771428Y-2169429D01*
X4771428Y-2098000D01*
X4785714Y-2040857D01*
X4800000Y-2012286D01*
X4814286Y-1998000D01*
X4842857Y-1983714D01*
X5300000Y-2283714D02*
X5300000Y-1983714D01*
X5428571Y-2283714D02*
X5428571Y-2126572D01*
X5414286Y-2098000D01*
X5385714Y-2083714D01*
X5342857Y-2083714D01*
X5314286Y-2098000D01*
X5300000Y-2112286D01*
X5614285Y-2283714D02*
X5585714Y-2269429D01*
X5571428Y-2255143D01*
X5557143Y-2226572D01*
X5557143Y-2140857D01*
X5571428Y-2112286D01*
X5585714Y-2098000D01*
X5614285Y-2083714D01*
X5657143Y-2083714D01*
X5685714Y-2098000D01*
X5700000Y-2112286D01*
X5714285Y-2140857D01*
X5714285Y-2226572D01*
X5700000Y-2255143D01*
X5685714Y-2269429D01*
X5657143Y-2283714D01*
X5614285Y-2283714D01*
X5885714Y-2283714D02*
X5857143Y-2269429D01*
X5842857Y-2240857D01*
X5842857Y-1983714D01*
X6114286Y-2269429D02*
X6085714Y-2283714D01*
X6028571Y-2283714D01*
X6000000Y-2269429D01*
X5985714Y-2240857D01*
X5985714Y-2126572D01*
X6000000Y-2098000D01*
X6028571Y-2083714D01*
X6085714Y-2083714D01*
X6114286Y-2098000D01*
X6128571Y-2126572D01*
X6128571Y-2155143D01*
X5985714Y-2183714D01*
X6242857Y-2269429D02*
X6271428Y-2283714D01*
X6328571Y-2283714D01*
X6357143Y-2269429D01*
X6371428Y-2240857D01*
X6371428Y-2226572D01*
X6357143Y-2198000D01*
X6328571Y-2183714D01*
X6285714Y-2183714D01*
X6257143Y-2169429D01*
X6242857Y-2140857D01*
X6242857Y-2126572D01*
X6257143Y-2098000D01*
X6285714Y-2083714D01*
X6328571Y-2083714D01*
X6357143Y-2098000D01*
X6728571Y-2169429D02*
X6957143Y-2169429D01*
X6842857Y-2283714D02*
X6842857Y-2055143D01*
X7314286Y-2012286D02*
X7328571Y-1998000D01*
X7357143Y-1983714D01*
X7428571Y-1983714D01*
X7457143Y-1998000D01*
X7471428Y-2012286D01*
X7485714Y-2040857D01*
X7485714Y-2069429D01*
X7471428Y-2112286D01*
X7300000Y-2283714D01*
X7485714Y-2283714D01*
X7828571Y-2269429D02*
X7857143Y-2283714D01*
X7914285Y-2283714D01*
X7942857Y-2269429D01*
X7957143Y-2240857D01*
X7957143Y-2226572D01*
X7942857Y-2198000D01*
X7914285Y-2183714D01*
X7871428Y-2183714D01*
X7842857Y-2169429D01*
X7828571Y-2140857D01*
X7828571Y-2126572D01*
X7842857Y-2098000D01*
X7871428Y-2083714D01*
X7914285Y-2083714D01*
X7942857Y-2098000D01*
X8128571Y-2283714D02*
X8100000Y-2269429D01*
X8085714Y-2240857D01*
X8085714Y-1983714D01*
X8285714Y-2283714D02*
X8257143Y-2269429D01*
X8242857Y-2255143D01*
X8228571Y-2226572D01*
X8228571Y-2140857D01*
X8242857Y-2112286D01*
X8257143Y-2098000D01*
X8285714Y-2083714D01*
X8328571Y-2083714D01*
X8357143Y-2098000D01*
X8371428Y-2112286D01*
X8385714Y-2140857D01*
X8385714Y-2226572D01*
X8371428Y-2255143D01*
X8357143Y-2269429D01*
X8328571Y-2283714D01*
X8285714Y-2283714D01*
X8471428Y-2083714D02*
X8585714Y-2083714D01*
X8514286Y-1983714D02*
X8514286Y-2240857D01*
X8528571Y-2269429D01*
X8557143Y-2283714D01*
X8585714Y-2283714D01*
X8671429Y-2269429D02*
X8700000Y-2283714D01*
X8757143Y-2283714D01*
X8785714Y-2269429D01*
X8800000Y-2240857D01*
X8800000Y-2226572D01*
X8785714Y-2198000D01*
X8757143Y-2183714D01*
X8714286Y-2183714D01*
X8685714Y-2169429D01*
X8671429Y-2140857D01*
X8671429Y-2126572D01*
X8685714Y-2098000D01*
X8714286Y-2083714D01*
X8757143Y-2083714D01*
X8785714Y-2098000D01*
X8900000Y-2398000D02*
X8914286Y-2383714D01*
X8942857Y-2340857D01*
X8957143Y-2312286D01*
X8971428Y-2269429D01*
X8985714Y-2198000D01*
X8985714Y-2140857D01*
X8971428Y-2069429D01*
X8957143Y-2026571D01*
X8942857Y-1998000D01*
X8914286Y-1955143D01*
X8900000Y-1940857D01*
X-30000Y-2574000D02*
X0Y-2544000D01*
X-30000Y-2514000D01*
X-60000Y-2544000D01*
X-30000Y-2574000D01*
X328571Y-2379714D02*
X357143Y-2379714D01*
X385714Y-2394000D01*
X400000Y-2408286D01*
X414286Y-2436857D01*
X428571Y-2494000D01*
X428571Y-2565429D01*
X414286Y-2622572D01*
X400000Y-2651143D01*
X385714Y-2665429D01*
X357143Y-2679714D01*
X328571Y-2679714D01*
X300000Y-2665429D01*
X285714Y-2651143D01*
X271429Y-2622572D01*
X257143Y-2565429D01*
X257143Y-2494000D01*
X271429Y-2436857D01*
X285714Y-2408286D01*
X300000Y-2394000D01*
X328571Y-2379714D01*
X557143Y-2651143D02*
X571429Y-2665429D01*
X557143Y-2679714D01*
X542857Y-2665429D01*
X557143Y-2651143D01*
X557143Y-2679714D01*
X828571Y-2379714D02*
X771428Y-2379714D01*
X742857Y-2394000D01*
X728571Y-2408286D01*
X700000Y-2451143D01*
X685714Y-2508286D01*
X685714Y-2622572D01*
X700000Y-2651143D01*
X714286Y-2665429D01*
X742857Y-2679714D01*
X800000Y-2679714D01*
X828571Y-2665429D01*
X842857Y-2651143D01*
X857143Y-2622572D01*
X857143Y-2551143D01*
X842857Y-2522572D01*
X828571Y-2508286D01*
X800000Y-2494000D01*
X742857Y-2494000D01*
X714286Y-2508286D01*
X700000Y-2522572D01*
X685714Y-2551143D01*
X1042857Y-2379714D02*
X1071429Y-2379714D01*
X1100000Y-2394000D01*
X1114286Y-2408286D01*
X1128571Y-2436857D01*
X1142857Y-2494000D01*
X1142857Y-2565429D01*
X1128571Y-2622572D01*
X1114286Y-2651143D01*
X1100000Y-2665429D01*
X1071429Y-2679714D01*
X1042857Y-2679714D01*
X1014286Y-2665429D01*
X1000000Y-2651143D01*
X985714Y-2622572D01*
X971428Y-2565429D01*
X971428Y-2494000D01*
X985714Y-2436857D01*
X1000000Y-2408286D01*
X1014286Y-2394000D01*
X1042857Y-2379714D01*
X1271429Y-2679714D02*
X1271429Y-2479714D01*
X1271429Y-2508286D02*
X1285714Y-2494000D01*
X1314286Y-2479714D01*
X1357143Y-2479714D01*
X1385714Y-2494000D01*
X1400000Y-2522572D01*
X1400000Y-2679714D01*
X1400000Y-2522572D02*
X1414286Y-2494000D01*
X1442857Y-2479714D01*
X1485714Y-2479714D01*
X1514286Y-2494000D01*
X1528571Y-2522572D01*
X1528571Y-2679714D01*
X1671428Y-2679714D02*
X1671428Y-2479714D01*
X1671428Y-2508286D02*
X1685714Y-2494000D01*
X1714286Y-2479714D01*
X1757143Y-2479714D01*
X1785714Y-2494000D01*
X1800000Y-2522572D01*
X1800000Y-2679714D01*
X1800000Y-2522572D02*
X1814286Y-2494000D01*
X1842857Y-2479714D01*
X1885714Y-2479714D01*
X1914286Y-2494000D01*
X1928571Y-2522572D01*
X1928571Y-2679714D01*
X2514286Y-2365429D02*
X2257143Y-2751143D01*
X2900000Y-2379714D02*
X2928571Y-2379714D01*
X2957143Y-2394000D01*
X2971428Y-2408286D01*
X2985714Y-2436857D01*
X3000000Y-2494000D01*
X3000000Y-2565429D01*
X2985714Y-2622572D01*
X2971428Y-2651143D01*
X2957143Y-2665429D01*
X2928571Y-2679714D01*
X2900000Y-2679714D01*
X2871428Y-2665429D01*
X2857143Y-2651143D01*
X2842857Y-2622572D01*
X2828571Y-2565429D01*
X2828571Y-2494000D01*
X2842857Y-2436857D01*
X2857143Y-2408286D01*
X2871428Y-2394000D01*
X2900000Y-2379714D01*
X3128571Y-2651143D02*
X3142857Y-2665429D01*
X3128571Y-2679714D01*
X3114286Y-2665429D01*
X3128571Y-2651143D01*
X3128571Y-2679714D01*
X3328571Y-2379714D02*
X3357143Y-2379714D01*
X3385714Y-2394000D01*
X3400000Y-2408286D01*
X3414285Y-2436857D01*
X3428571Y-2494000D01*
X3428571Y-2565429D01*
X3414285Y-2622572D01*
X3400000Y-2651143D01*
X3385714Y-2665429D01*
X3357143Y-2679714D01*
X3328571Y-2679714D01*
X3300000Y-2665429D01*
X3285714Y-2651143D01*
X3271428Y-2622572D01*
X3257143Y-2565429D01*
X3257143Y-2494000D01*
X3271428Y-2436857D01*
X3285714Y-2408286D01*
X3300000Y-2394000D01*
X3328571Y-2379714D01*
X3542857Y-2408286D02*
X3557143Y-2394000D01*
X3585714Y-2379714D01*
X3657143Y-2379714D01*
X3685714Y-2394000D01*
X3700000Y-2408286D01*
X3714285Y-2436857D01*
X3714285Y-2465429D01*
X3700000Y-2508286D01*
X3528571Y-2679714D01*
X3714285Y-2679714D01*
X3971428Y-2479714D02*
X3971428Y-2679714D01*
X3900000Y-2365429D02*
X3828571Y-2579714D01*
X4014285Y-2579714D01*
X4114286Y-2379714D02*
X4114286Y-2436857D01*
X4228571Y-2379714D02*
X4228571Y-2436857D01*
X4671428Y-2794000D02*
X4657143Y-2779714D01*
X4628571Y-2736857D01*
X4614286Y-2708286D01*
X4600000Y-2665429D01*
X4585714Y-2594000D01*
X4585714Y-2536857D01*
X4600000Y-2465429D01*
X4614286Y-2422572D01*
X4628571Y-2394000D01*
X4657143Y-2351143D01*
X4671428Y-2336857D01*
X4828571Y-2508286D02*
X4800000Y-2494000D01*
X4785714Y-2479714D01*
X4771428Y-2451143D01*
X4771428Y-2436857D01*
X4785714Y-2408286D01*
X4800000Y-2394000D01*
X4828571Y-2379714D01*
X4885714Y-2379714D01*
X4914286Y-2394000D01*
X4928571Y-2408286D01*
X4942857Y-2436857D01*
X4942857Y-2451143D01*
X4928571Y-2479714D01*
X4914286Y-2494000D01*
X4885714Y-2508286D01*
X4828571Y-2508286D01*
X4800000Y-2522572D01*
X4785714Y-2536857D01*
X4771428Y-2565429D01*
X4771428Y-2622572D01*
X4785714Y-2651143D01*
X4800000Y-2665429D01*
X4828571Y-2679714D01*
X4885714Y-2679714D01*
X4914286Y-2665429D01*
X4928571Y-2651143D01*
X4942857Y-2622572D01*
X4942857Y-2565429D01*
X4928571Y-2536857D01*
X4914286Y-2522572D01*
X4885714Y-2508286D01*
X5300000Y-2679714D02*
X5300000Y-2379714D01*
X5428571Y-2679714D02*
X5428571Y-2522572D01*
X5414286Y-2494000D01*
X5385714Y-2479714D01*
X5342857Y-2479714D01*
X5314286Y-2494000D01*
X5300000Y-2508286D01*
X5614285Y-2679714D02*
X5585714Y-2665429D01*
X5571428Y-2651143D01*
X5557143Y-2622572D01*
X5557143Y-2536857D01*
X5571428Y-2508286D01*
X5585714Y-2494000D01*
X5614285Y-2479714D01*
X5657143Y-2479714D01*
X5685714Y-2494000D01*
X5700000Y-2508286D01*
X5714285Y-2536857D01*
X5714285Y-2622572D01*
X5700000Y-2651143D01*
X5685714Y-2665429D01*
X5657143Y-2679714D01*
X5614285Y-2679714D01*
X5885714Y-2679714D02*
X5857143Y-2665429D01*
X5842857Y-2636857D01*
X5842857Y-2379714D01*
X6114286Y-2665429D02*
X6085714Y-2679714D01*
X6028571Y-2679714D01*
X6000000Y-2665429D01*
X5985714Y-2636857D01*
X5985714Y-2522572D01*
X6000000Y-2494000D01*
X6028571Y-2479714D01*
X6085714Y-2479714D01*
X6114286Y-2494000D01*
X6128571Y-2522572D01*
X6128571Y-2551143D01*
X5985714Y-2579714D01*
X6242857Y-2665429D02*
X6271428Y-2679714D01*
X6328571Y-2679714D01*
X6357143Y-2665429D01*
X6371428Y-2636857D01*
X6371428Y-2622572D01*
X6357143Y-2594000D01*
X6328571Y-2579714D01*
X6285714Y-2579714D01*
X6257143Y-2565429D01*
X6242857Y-2536857D01*
X6242857Y-2522572D01*
X6257143Y-2494000D01*
X6285714Y-2479714D01*
X6328571Y-2479714D01*
X6357143Y-2494000D01*
X6471428Y-2794000D02*
X6485714Y-2779714D01*
X6514286Y-2736857D01*
X6528571Y-2708286D01*
X6542857Y-2665429D01*
X6557143Y-2594000D01*
X6557143Y-2536857D01*
X6542857Y-2465429D01*
X6528571Y-2422572D01*
X6514286Y-2394000D01*
X6485714Y-2351143D01*
X6471428Y-2336857D01*
X-70000Y-2905000D02*
X0Y-2975000D01*
X0Y-2905000D02*
X-70000Y-2975000D01*
X0Y-2940000D02*
G75*
G03X0Y-2940000I-35000J0D01*
G01*
X328571Y-2775714D02*
X357143Y-2775714D01*
X385714Y-2790000D01*
X400000Y-2804286D01*
X414286Y-2832857D01*
X428571Y-2890000D01*
X428571Y-2961429D01*
X414286Y-3018571D01*
X400000Y-3047143D01*
X385714Y-3061429D01*
X357143Y-3075714D01*
X328571Y-3075714D01*
X300000Y-3061429D01*
X285714Y-3047143D01*
X271429Y-3018571D01*
X257143Y-2961429D01*
X257143Y-2890000D01*
X271429Y-2832857D01*
X285714Y-2804286D01*
X300000Y-2790000D01*
X328571Y-2775714D01*
X557143Y-3047143D02*
X571429Y-3061429D01*
X557143Y-3075714D01*
X542857Y-3061429D01*
X557143Y-3047143D01*
X557143Y-3075714D01*
X671428Y-2775714D02*
X871428Y-2775714D01*
X742857Y-3075714D01*
X1042857Y-2775714D02*
X1071429Y-2775714D01*
X1100000Y-2790000D01*
X1114286Y-2804286D01*
X1128571Y-2832857D01*
X1142857Y-2890000D01*
X1142857Y-2961429D01*
X1128571Y-3018571D01*
X1114286Y-3047143D01*
X1100000Y-3061429D01*
X1071429Y-3075714D01*
X1042857Y-3075714D01*
X1014286Y-3061429D01*
X1000000Y-3047143D01*
X985714Y-3018571D01*
X971428Y-2961429D01*
X971428Y-2890000D01*
X985714Y-2832857D01*
X1000000Y-2804286D01*
X1014286Y-2790000D01*
X1042857Y-2775714D01*
X1271429Y-3075714D02*
X1271429Y-2875714D01*
X1271429Y-2904286D02*
X1285714Y-2890000D01*
X1314286Y-2875714D01*
X1357143Y-2875714D01*
X1385714Y-2890000D01*
X1400000Y-2918571D01*
X1400000Y-3075714D01*
X1400000Y-2918571D02*
X1414286Y-2890000D01*
X1442857Y-2875714D01*
X1485714Y-2875714D01*
X1514286Y-2890000D01*
X1528571Y-2918571D01*
X1528571Y-3075714D01*
X1671428Y-3075714D02*
X1671428Y-2875714D01*
X1671428Y-2904286D02*
X1685714Y-2890000D01*
X1714286Y-2875714D01*
X1757143Y-2875714D01*
X1785714Y-2890000D01*
X1800000Y-2918571D01*
X1800000Y-3075714D01*
X1800000Y-2918571D02*
X1814286Y-2890000D01*
X1842857Y-2875714D01*
X1885714Y-2875714D01*
X1914286Y-2890000D01*
X1928571Y-2918571D01*
X1928571Y-3075714D01*
X2514286Y-2761429D02*
X2257143Y-3147143D01*
X2900000Y-2775714D02*
X2928571Y-2775714D01*
X2957143Y-2790000D01*
X2971428Y-2804286D01*
X2985714Y-2832857D01*
X3000000Y-2890000D01*
X3000000Y-2961429D01*
X2985714Y-3018571D01*
X2971428Y-3047143D01*
X2957143Y-3061429D01*
X2928571Y-3075714D01*
X2900000Y-3075714D01*
X2871428Y-3061429D01*
X2857143Y-3047143D01*
X2842857Y-3018571D01*
X2828571Y-2961429D01*
X2828571Y-2890000D01*
X2842857Y-2832857D01*
X2857143Y-2804286D01*
X2871428Y-2790000D01*
X2900000Y-2775714D01*
X3128571Y-3047143D02*
X3142857Y-3061429D01*
X3128571Y-3075714D01*
X3114286Y-3061429D01*
X3128571Y-3047143D01*
X3128571Y-3075714D01*
X3328571Y-2775714D02*
X3357143Y-2775714D01*
X3385714Y-2790000D01*
X3400000Y-2804286D01*
X3414285Y-2832857D01*
X3428571Y-2890000D01*
X3428571Y-2961429D01*
X3414285Y-3018571D01*
X3400000Y-3047143D01*
X3385714Y-3061429D01*
X3357143Y-3075714D01*
X3328571Y-3075714D01*
X3300000Y-3061429D01*
X3285714Y-3047143D01*
X3271428Y-3018571D01*
X3257143Y-2961429D01*
X3257143Y-2890000D01*
X3271428Y-2832857D01*
X3285714Y-2804286D01*
X3300000Y-2790000D01*
X3328571Y-2775714D01*
X3542857Y-2804286D02*
X3557143Y-2790000D01*
X3585714Y-2775714D01*
X3657143Y-2775714D01*
X3685714Y-2790000D01*
X3700000Y-2804286D01*
X3714285Y-2832857D01*
X3714285Y-2861429D01*
X3700000Y-2904286D01*
X3528571Y-3075714D01*
X3714285Y-3075714D01*
X3885714Y-2904286D02*
X3857143Y-2890000D01*
X3842857Y-2875714D01*
X3828571Y-2847143D01*
X3828571Y-2832857D01*
X3842857Y-2804286D01*
X3857143Y-2790000D01*
X3885714Y-2775714D01*
X3942857Y-2775714D01*
X3971428Y-2790000D01*
X3985714Y-2804286D01*
X4000000Y-2832857D01*
X4000000Y-2847143D01*
X3985714Y-2875714D01*
X3971428Y-2890000D01*
X3942857Y-2904286D01*
X3885714Y-2904286D01*
X3857143Y-2918571D01*
X3842857Y-2932857D01*
X3828571Y-2961429D01*
X3828571Y-3018571D01*
X3842857Y-3047143D01*
X3857143Y-3061429D01*
X3885714Y-3075714D01*
X3942857Y-3075714D01*
X3971428Y-3061429D01*
X3985714Y-3047143D01*
X4000000Y-3018571D01*
X4000000Y-2961429D01*
X3985714Y-2932857D01*
X3971428Y-2918571D01*
X3942857Y-2904286D01*
X4114286Y-2775714D02*
X4114286Y-2832857D01*
X4228571Y-2775714D02*
X4228571Y-2832857D01*
X4671428Y-3190000D02*
X4657143Y-3175714D01*
X4628571Y-3132857D01*
X4614286Y-3104286D01*
X4600000Y-3061429D01*
X4585714Y-2990000D01*
X4585714Y-2932857D01*
X4600000Y-2861429D01*
X4614286Y-2818571D01*
X4628571Y-2790000D01*
X4657143Y-2747143D01*
X4671428Y-2732857D01*
X4914286Y-2875714D02*
X4914286Y-3075714D01*
X4842857Y-2761429D02*
X4771428Y-2975714D01*
X4957143Y-2975714D01*
X5300000Y-3075714D02*
X5300000Y-2775714D01*
X5428571Y-3075714D02*
X5428571Y-2918571D01*
X5414286Y-2890000D01*
X5385714Y-2875714D01*
X5342857Y-2875714D01*
X5314286Y-2890000D01*
X5300000Y-2904286D01*
X5614285Y-3075714D02*
X5585714Y-3061429D01*
X5571428Y-3047143D01*
X5557143Y-3018571D01*
X5557143Y-2932857D01*
X5571428Y-2904286D01*
X5585714Y-2890000D01*
X5614285Y-2875714D01*
X5657143Y-2875714D01*
X5685714Y-2890000D01*
X5700000Y-2904286D01*
X5714285Y-2932857D01*
X5714285Y-3018571D01*
X5700000Y-3047143D01*
X5685714Y-3061429D01*
X5657143Y-3075714D01*
X5614285Y-3075714D01*
X5885714Y-3075714D02*
X5857143Y-3061429D01*
X5842857Y-3032857D01*
X5842857Y-2775714D01*
X6114286Y-3061429D02*
X6085714Y-3075714D01*
X6028571Y-3075714D01*
X6000000Y-3061429D01*
X5985714Y-3032857D01*
X5985714Y-2918571D01*
X6000000Y-2890000D01*
X6028571Y-2875714D01*
X6085714Y-2875714D01*
X6114286Y-2890000D01*
X6128571Y-2918571D01*
X6128571Y-2947143D01*
X5985714Y-2975714D01*
X6242857Y-3061429D02*
X6271428Y-3075714D01*
X6328571Y-3075714D01*
X6357143Y-3061429D01*
X6371428Y-3032857D01*
X6371428Y-3018571D01*
X6357143Y-2990000D01*
X6328571Y-2975714D01*
X6285714Y-2975714D01*
X6257143Y-2961429D01*
X6242857Y-2932857D01*
X6242857Y-2918571D01*
X6257143Y-2890000D01*
X6285714Y-2875714D01*
X6328571Y-2875714D01*
X6357143Y-2890000D01*
X6471428Y-3190000D02*
X6485714Y-3175714D01*
X6514286Y-3132857D01*
X6528571Y-3104286D01*
X6542857Y-3061429D01*
X6557143Y-2990000D01*
X6557143Y-2932857D01*
X6542857Y-2861429D01*
X6528571Y-2818571D01*
X6514286Y-2790000D01*
X6485714Y-2747143D01*
X6471428Y-2732857D01*
X-75000Y-3298500D02*
X0Y-3373500D01*
X0Y-3298500D02*
X-75000Y-3373500D01*
X-37500Y-3298500D02*
X-37500Y-3373500D01*
X-75000Y-3336000D02*
X0Y-3336000D01*
X328571Y-3171714D02*
X357143Y-3171714D01*
X385714Y-3186000D01*
X400000Y-3200286D01*
X414286Y-3228857D01*
X428571Y-3286000D01*
X428571Y-3357429D01*
X414286Y-3414571D01*
X400000Y-3443143D01*
X385714Y-3457429D01*
X357143Y-3471714D01*
X328571Y-3471714D01*
X300000Y-3457429D01*
X285714Y-3443143D01*
X271429Y-3414571D01*
X257143Y-3357429D01*
X257143Y-3286000D01*
X271429Y-3228857D01*
X285714Y-3200286D01*
X300000Y-3186000D01*
X328571Y-3171714D01*
X557143Y-3443143D02*
X571429Y-3457429D01*
X557143Y-3471714D01*
X542857Y-3457429D01*
X557143Y-3443143D01*
X557143Y-3471714D01*
X671428Y-3171714D02*
X871428Y-3171714D01*
X742857Y-3471714D01*
X1128571Y-3171714D02*
X985714Y-3171714D01*
X971428Y-3314571D01*
X985714Y-3300286D01*
X1014286Y-3286000D01*
X1085714Y-3286000D01*
X1114286Y-3300286D01*
X1128571Y-3314571D01*
X1142857Y-3343143D01*
X1142857Y-3414571D01*
X1128571Y-3443143D01*
X1114286Y-3457429D01*
X1085714Y-3471714D01*
X1014286Y-3471714D01*
X985714Y-3457429D01*
X971428Y-3443143D01*
X1271429Y-3471714D02*
X1271429Y-3271714D01*
X1271429Y-3300286D02*
X1285714Y-3286000D01*
X1314286Y-3271714D01*
X1357143Y-3271714D01*
X1385714Y-3286000D01*
X1400000Y-3314571D01*
X1400000Y-3471714D01*
X1400000Y-3314571D02*
X1414286Y-3286000D01*
X1442857Y-3271714D01*
X1485714Y-3271714D01*
X1514286Y-3286000D01*
X1528571Y-3314571D01*
X1528571Y-3471714D01*
X1671428Y-3471714D02*
X1671428Y-3271714D01*
X1671428Y-3300286D02*
X1685714Y-3286000D01*
X1714286Y-3271714D01*
X1757143Y-3271714D01*
X1785714Y-3286000D01*
X1800000Y-3314571D01*
X1800000Y-3471714D01*
X1800000Y-3314571D02*
X1814286Y-3286000D01*
X1842857Y-3271714D01*
X1885714Y-3271714D01*
X1914286Y-3286000D01*
X1928571Y-3314571D01*
X1928571Y-3471714D01*
X2514286Y-3157429D02*
X2257143Y-3543143D01*
X2900000Y-3171714D02*
X2928571Y-3171714D01*
X2957143Y-3186000D01*
X2971428Y-3200286D01*
X2985714Y-3228857D01*
X3000000Y-3286000D01*
X3000000Y-3357429D01*
X2985714Y-3414571D01*
X2971428Y-3443143D01*
X2957143Y-3457429D01*
X2928571Y-3471714D01*
X2900000Y-3471714D01*
X2871428Y-3457429D01*
X2857143Y-3443143D01*
X2842857Y-3414571D01*
X2828571Y-3357429D01*
X2828571Y-3286000D01*
X2842857Y-3228857D01*
X2857143Y-3200286D01*
X2871428Y-3186000D01*
X2900000Y-3171714D01*
X3128571Y-3443143D02*
X3142857Y-3457429D01*
X3128571Y-3471714D01*
X3114286Y-3457429D01*
X3128571Y-3443143D01*
X3128571Y-3471714D01*
X3328571Y-3171714D02*
X3357143Y-3171714D01*
X3385714Y-3186000D01*
X3400000Y-3200286D01*
X3414285Y-3228857D01*
X3428571Y-3286000D01*
X3428571Y-3357429D01*
X3414285Y-3414571D01*
X3400000Y-3443143D01*
X3385714Y-3457429D01*
X3357143Y-3471714D01*
X3328571Y-3471714D01*
X3300000Y-3457429D01*
X3285714Y-3443143D01*
X3271428Y-3414571D01*
X3257143Y-3357429D01*
X3257143Y-3286000D01*
X3271428Y-3228857D01*
X3285714Y-3200286D01*
X3300000Y-3186000D01*
X3328571Y-3171714D01*
X3528571Y-3171714D02*
X3714285Y-3171714D01*
X3614285Y-3286000D01*
X3657143Y-3286000D01*
X3685714Y-3300286D01*
X3700000Y-3314571D01*
X3714285Y-3343143D01*
X3714285Y-3414571D01*
X3700000Y-3443143D01*
X3685714Y-3457429D01*
X3657143Y-3471714D01*
X3571428Y-3471714D01*
X3542857Y-3457429D01*
X3528571Y-3443143D01*
X3900000Y-3171714D02*
X3928571Y-3171714D01*
X3957143Y-3186000D01*
X3971428Y-3200286D01*
X3985714Y-3228857D01*
X4000000Y-3286000D01*
X4000000Y-3357429D01*
X3985714Y-3414571D01*
X3971428Y-3443143D01*
X3957143Y-3457429D01*
X3928571Y-3471714D01*
X3900000Y-3471714D01*
X3871428Y-3457429D01*
X3857143Y-3443143D01*
X3842857Y-3414571D01*
X3828571Y-3357429D01*
X3828571Y-3286000D01*
X3842857Y-3228857D01*
X3857143Y-3200286D01*
X3871428Y-3186000D01*
X3900000Y-3171714D01*
X4114286Y-3171714D02*
X4114286Y-3228857D01*
X4228571Y-3171714D02*
X4228571Y-3228857D01*
X4671428Y-3586000D02*
X4657143Y-3571714D01*
X4628571Y-3528857D01*
X4614286Y-3500286D01*
X4600000Y-3457429D01*
X4585714Y-3386000D01*
X4585714Y-3328857D01*
X4600000Y-3257429D01*
X4614286Y-3214571D01*
X4628571Y-3186000D01*
X4657143Y-3143143D01*
X4671428Y-3128857D01*
X4914286Y-3171714D02*
X4857143Y-3171714D01*
X4828571Y-3186000D01*
X4814286Y-3200286D01*
X4785714Y-3243143D01*
X4771428Y-3300286D01*
X4771428Y-3414571D01*
X4785714Y-3443143D01*
X4800000Y-3457429D01*
X4828571Y-3471714D01*
X4885714Y-3471714D01*
X4914286Y-3457429D01*
X4928571Y-3443143D01*
X4942857Y-3414571D01*
X4942857Y-3343143D01*
X4928571Y-3314571D01*
X4914286Y-3300286D01*
X4885714Y-3286000D01*
X4828571Y-3286000D01*
X4800000Y-3300286D01*
X4785714Y-3314571D01*
X4771428Y-3343143D01*
X5300000Y-3471714D02*
X5300000Y-3171714D01*
X5428571Y-3471714D02*
X5428571Y-3314571D01*
X5414286Y-3286000D01*
X5385714Y-3271714D01*
X5342857Y-3271714D01*
X5314286Y-3286000D01*
X5300000Y-3300286D01*
X5614285Y-3471714D02*
X5585714Y-3457429D01*
X5571428Y-3443143D01*
X5557143Y-3414571D01*
X5557143Y-3328857D01*
X5571428Y-3300286D01*
X5585714Y-3286000D01*
X5614285Y-3271714D01*
X5657143Y-3271714D01*
X5685714Y-3286000D01*
X5700000Y-3300286D01*
X5714285Y-3328857D01*
X5714285Y-3414571D01*
X5700000Y-3443143D01*
X5685714Y-3457429D01*
X5657143Y-3471714D01*
X5614285Y-3471714D01*
X5885714Y-3471714D02*
X5857143Y-3457429D01*
X5842857Y-3428857D01*
X5842857Y-3171714D01*
X6114286Y-3457429D02*
X6085714Y-3471714D01*
X6028571Y-3471714D01*
X6000000Y-3457429D01*
X5985714Y-3428857D01*
X5985714Y-3314571D01*
X6000000Y-3286000D01*
X6028571Y-3271714D01*
X6085714Y-3271714D01*
X6114286Y-3286000D01*
X6128571Y-3314571D01*
X6128571Y-3343143D01*
X5985714Y-3371714D01*
X6242857Y-3457429D02*
X6271428Y-3471714D01*
X6328571Y-3471714D01*
X6357143Y-3457429D01*
X6371428Y-3428857D01*
X6371428Y-3414571D01*
X6357143Y-3386000D01*
X6328571Y-3371714D01*
X6285714Y-3371714D01*
X6257143Y-3357429D01*
X6242857Y-3328857D01*
X6242857Y-3314571D01*
X6257143Y-3286000D01*
X6285714Y-3271714D01*
X6328571Y-3271714D01*
X6357143Y-3286000D01*
X6471428Y-3586000D02*
X6485714Y-3571714D01*
X6514286Y-3528857D01*
X6528571Y-3500286D01*
X6542857Y-3457429D01*
X6557143Y-3386000D01*
X6557143Y-3328857D01*
X6542857Y-3257429D01*
X6528571Y-3214571D01*
X6514286Y-3186000D01*
X6485714Y-3143143D01*
X6471428Y-3128857D01*
X-80000Y-3692000D02*
X0Y-3772000D01*
X0Y-3692000D02*
X-80000Y-3772000D01*
X-11716Y-3760285D02*
X-11716Y-3703716D01*
X-68285Y-3703716D01*
X-68285Y-3760285D01*
X-11716Y-3760285D01*
X328571Y-3567714D02*
X357143Y-3567714D01*
X385714Y-3582000D01*
X400000Y-3596286D01*
X414286Y-3624857D01*
X428571Y-3682000D01*
X428571Y-3753429D01*
X414286Y-3810571D01*
X400000Y-3839143D01*
X385714Y-3853429D01*
X357143Y-3867714D01*
X328571Y-3867714D01*
X300000Y-3853429D01*
X285714Y-3839143D01*
X271429Y-3810571D01*
X257143Y-3753429D01*
X257143Y-3682000D01*
X271429Y-3624857D01*
X285714Y-3596286D01*
X300000Y-3582000D01*
X328571Y-3567714D01*
X557143Y-3839143D02*
X571429Y-3853429D01*
X557143Y-3867714D01*
X542857Y-3853429D01*
X557143Y-3839143D01*
X557143Y-3867714D01*
X742857Y-3696286D02*
X714286Y-3682000D01*
X700000Y-3667714D01*
X685714Y-3639143D01*
X685714Y-3624857D01*
X700000Y-3596286D01*
X714286Y-3582000D01*
X742857Y-3567714D01*
X800000Y-3567714D01*
X828571Y-3582000D01*
X842857Y-3596286D01*
X857143Y-3624857D01*
X857143Y-3639143D01*
X842857Y-3667714D01*
X828571Y-3682000D01*
X800000Y-3696286D01*
X742857Y-3696286D01*
X714286Y-3710571D01*
X700000Y-3724857D01*
X685714Y-3753429D01*
X685714Y-3810571D01*
X700000Y-3839143D01*
X714286Y-3853429D01*
X742857Y-3867714D01*
X800000Y-3867714D01*
X828571Y-3853429D01*
X842857Y-3839143D01*
X857143Y-3810571D01*
X857143Y-3753429D01*
X842857Y-3724857D01*
X828571Y-3710571D01*
X800000Y-3696286D01*
X1042857Y-3567714D02*
X1071429Y-3567714D01*
X1100000Y-3582000D01*
X1114286Y-3596286D01*
X1128571Y-3624857D01*
X1142857Y-3682000D01*
X1142857Y-3753429D01*
X1128571Y-3810571D01*
X1114286Y-3839143D01*
X1100000Y-3853429D01*
X1071429Y-3867714D01*
X1042857Y-3867714D01*
X1014286Y-3853429D01*
X1000000Y-3839143D01*
X985714Y-3810571D01*
X971428Y-3753429D01*
X971428Y-3682000D01*
X985714Y-3624857D01*
X1000000Y-3596286D01*
X1014286Y-3582000D01*
X1042857Y-3567714D01*
X1271429Y-3867714D02*
X1271429Y-3667714D01*
X1271429Y-3696286D02*
X1285714Y-3682000D01*
X1314286Y-3667714D01*
X1357143Y-3667714D01*
X1385714Y-3682000D01*
X1400000Y-3710571D01*
X1400000Y-3867714D01*
X1400000Y-3710571D02*
X1414286Y-3682000D01*
X1442857Y-3667714D01*
X1485714Y-3667714D01*
X1514286Y-3682000D01*
X1528571Y-3710571D01*
X1528571Y-3867714D01*
X1671428Y-3867714D02*
X1671428Y-3667714D01*
X1671428Y-3696286D02*
X1685714Y-3682000D01*
X1714286Y-3667714D01*
X1757143Y-3667714D01*
X1785714Y-3682000D01*
X1800000Y-3710571D01*
X1800000Y-3867714D01*
X1800000Y-3710571D02*
X1814286Y-3682000D01*
X1842857Y-3667714D01*
X1885714Y-3667714D01*
X1914286Y-3682000D01*
X1928571Y-3710571D01*
X1928571Y-3867714D01*
X2514286Y-3553429D02*
X2257143Y-3939143D01*
X2900000Y-3567714D02*
X2928571Y-3567714D01*
X2957143Y-3582000D01*
X2971428Y-3596286D01*
X2985714Y-3624857D01*
X3000000Y-3682000D01*
X3000000Y-3753429D01*
X2985714Y-3810571D01*
X2971428Y-3839143D01*
X2957143Y-3853429D01*
X2928571Y-3867714D01*
X2900000Y-3867714D01*
X2871428Y-3853429D01*
X2857143Y-3839143D01*
X2842857Y-3810571D01*
X2828571Y-3753429D01*
X2828571Y-3682000D01*
X2842857Y-3624857D01*
X2857143Y-3596286D01*
X2871428Y-3582000D01*
X2900000Y-3567714D01*
X3128571Y-3839143D02*
X3142857Y-3853429D01*
X3128571Y-3867714D01*
X3114286Y-3853429D01*
X3128571Y-3839143D01*
X3128571Y-3867714D01*
X3328571Y-3567714D02*
X3357143Y-3567714D01*
X3385714Y-3582000D01*
X3400000Y-3596286D01*
X3414285Y-3624857D01*
X3428571Y-3682000D01*
X3428571Y-3753429D01*
X3414285Y-3810571D01*
X3400000Y-3839143D01*
X3385714Y-3853429D01*
X3357143Y-3867714D01*
X3328571Y-3867714D01*
X3300000Y-3853429D01*
X3285714Y-3839143D01*
X3271428Y-3810571D01*
X3257143Y-3753429D01*
X3257143Y-3682000D01*
X3271428Y-3624857D01*
X3285714Y-3596286D01*
X3300000Y-3582000D01*
X3328571Y-3567714D01*
X3528571Y-3567714D02*
X3714285Y-3567714D01*
X3614285Y-3682000D01*
X3657143Y-3682000D01*
X3685714Y-3696286D01*
X3700000Y-3710571D01*
X3714285Y-3739143D01*
X3714285Y-3810571D01*
X3700000Y-3839143D01*
X3685714Y-3853429D01*
X3657143Y-3867714D01*
X3571428Y-3867714D01*
X3542857Y-3853429D01*
X3528571Y-3839143D01*
X4000000Y-3867714D02*
X3828571Y-3867714D01*
X3914285Y-3867714D02*
X3914285Y-3567714D01*
X3885714Y-3610571D01*
X3857143Y-3639143D01*
X3828571Y-3653429D01*
X4114286Y-3567714D02*
X4114286Y-3624857D01*
X4228571Y-3567714D02*
X4228571Y-3624857D01*
X4671428Y-3982000D02*
X4657143Y-3967714D01*
X4628571Y-3924857D01*
X4614286Y-3896286D01*
X4600000Y-3853429D01*
X4585714Y-3782000D01*
X4585714Y-3724857D01*
X4600000Y-3653429D01*
X4614286Y-3610571D01*
X4628571Y-3582000D01*
X4657143Y-3539143D01*
X4671428Y-3524857D01*
X4771428Y-3596286D02*
X4785714Y-3582000D01*
X4814286Y-3567714D01*
X4885714Y-3567714D01*
X4914286Y-3582000D01*
X4928571Y-3596286D01*
X4942857Y-3624857D01*
X4942857Y-3653429D01*
X4928571Y-3696286D01*
X4757143Y-3867714D01*
X4942857Y-3867714D01*
X5200000Y-3667714D02*
X5200000Y-3867714D01*
X5128571Y-3553429D02*
X5057143Y-3767714D01*
X5242857Y-3767714D01*
X5585714Y-3867714D02*
X5585714Y-3567714D01*
X5714285Y-3867714D02*
X5714285Y-3710571D01*
X5700000Y-3682000D01*
X5671428Y-3667714D01*
X5628571Y-3667714D01*
X5600000Y-3682000D01*
X5585714Y-3696286D01*
X5900000Y-3867714D02*
X5871428Y-3853429D01*
X5857143Y-3839143D01*
X5842857Y-3810571D01*
X5842857Y-3724857D01*
X5857143Y-3696286D01*
X5871428Y-3682000D01*
X5900000Y-3667714D01*
X5942857Y-3667714D01*
X5971428Y-3682000D01*
X5985714Y-3696286D01*
X6000000Y-3724857D01*
X6000000Y-3810571D01*
X5985714Y-3839143D01*
X5971428Y-3853429D01*
X5942857Y-3867714D01*
X5900000Y-3867714D01*
X6171428Y-3867714D02*
X6142857Y-3853429D01*
X6128571Y-3824857D01*
X6128571Y-3567714D01*
X6400000Y-3853429D02*
X6371428Y-3867714D01*
X6314286Y-3867714D01*
X6285714Y-3853429D01*
X6271428Y-3824857D01*
X6271428Y-3710571D01*
X6285714Y-3682000D01*
X6314286Y-3667714D01*
X6371428Y-3667714D01*
X6400000Y-3682000D01*
X6414286Y-3710571D01*
X6414286Y-3739143D01*
X6271428Y-3767714D01*
X6528571Y-3853429D02*
X6557143Y-3867714D01*
X6614286Y-3867714D01*
X6642857Y-3853429D01*
X6657143Y-3824857D01*
X6657143Y-3810571D01*
X6642857Y-3782000D01*
X6614286Y-3767714D01*
X6571428Y-3767714D01*
X6542857Y-3753429D01*
X6528571Y-3724857D01*
X6528571Y-3710571D01*
X6542857Y-3682000D01*
X6571428Y-3667714D01*
X6614286Y-3667714D01*
X6642857Y-3682000D01*
X6757143Y-3982000D02*
X6771428Y-3967714D01*
X6800000Y-3924857D01*
X6814286Y-3896286D01*
X6828571Y-3853429D01*
X6842857Y-3782000D01*
X6842857Y-3724857D01*
X6828571Y-3653429D01*
X6814286Y-3610571D01*
X6800000Y-3582000D01*
X6771428Y-3539143D01*
X6757143Y-3524857D01*
X-81280Y-4087360D02*
X0Y-4168640D01*
X0Y-4087360D02*
X-81280Y-4168640D01*
X-40640Y-4168640D02*
X0Y-4128000D01*
X-40640Y-4087360D01*
X-81280Y-4128000D01*
X-40640Y-4168640D01*
X328571Y-3963714D02*
X357143Y-3963714D01*
X385714Y-3978000D01*
X400000Y-3992286D01*
X414286Y-4020857D01*
X428571Y-4078000D01*
X428571Y-4149429D01*
X414286Y-4206572D01*
X400000Y-4235143D01*
X385714Y-4249429D01*
X357143Y-4263714D01*
X328571Y-4263714D01*
X300000Y-4249429D01*
X285714Y-4235143D01*
X271429Y-4206572D01*
X257143Y-4149429D01*
X257143Y-4078000D01*
X271429Y-4020857D01*
X285714Y-3992286D01*
X300000Y-3978000D01*
X328571Y-3963714D01*
X557143Y-4235143D02*
X571429Y-4249429D01*
X557143Y-4263714D01*
X542857Y-4249429D01*
X557143Y-4235143D01*
X557143Y-4263714D01*
X742857Y-4092286D02*
X714286Y-4078000D01*
X700000Y-4063714D01*
X685714Y-4035143D01*
X685714Y-4020857D01*
X700000Y-3992286D01*
X714286Y-3978000D01*
X742857Y-3963714D01*
X800000Y-3963714D01*
X828571Y-3978000D01*
X842857Y-3992286D01*
X857143Y-4020857D01*
X857143Y-4035143D01*
X842857Y-4063714D01*
X828571Y-4078000D01*
X800000Y-4092286D01*
X742857Y-4092286D01*
X714286Y-4106571D01*
X700000Y-4120857D01*
X685714Y-4149429D01*
X685714Y-4206572D01*
X700000Y-4235143D01*
X714286Y-4249429D01*
X742857Y-4263714D01*
X800000Y-4263714D01*
X828571Y-4249429D01*
X842857Y-4235143D01*
X857143Y-4206572D01*
X857143Y-4149429D01*
X842857Y-4120857D01*
X828571Y-4106571D01*
X800000Y-4092286D01*
X1142857Y-4263714D02*
X971428Y-4263714D01*
X1057143Y-4263714D02*
X1057143Y-3963714D01*
X1028571Y-4006571D01*
X1000000Y-4035143D01*
X971428Y-4049429D01*
X1271429Y-4263714D02*
X1271429Y-4063714D01*
X1271429Y-4092286D02*
X1285714Y-4078000D01*
X1314286Y-4063714D01*
X1357143Y-4063714D01*
X1385714Y-4078000D01*
X1400000Y-4106571D01*
X1400000Y-4263714D01*
X1400000Y-4106571D02*
X1414286Y-4078000D01*
X1442857Y-4063714D01*
X1485714Y-4063714D01*
X1514286Y-4078000D01*
X1528571Y-4106571D01*
X1528571Y-4263714D01*
X1671428Y-4263714D02*
X1671428Y-4063714D01*
X1671428Y-4092286D02*
X1685714Y-4078000D01*
X1714286Y-4063714D01*
X1757143Y-4063714D01*
X1785714Y-4078000D01*
X1800000Y-4106571D01*
X1800000Y-4263714D01*
X1800000Y-4106571D02*
X1814286Y-4078000D01*
X1842857Y-4063714D01*
X1885714Y-4063714D01*
X1914286Y-4078000D01*
X1928571Y-4106571D01*
X1928571Y-4263714D01*
X2514286Y-3949429D02*
X2257143Y-4335143D01*
X2900000Y-3963714D02*
X2928571Y-3963714D01*
X2957143Y-3978000D01*
X2971428Y-3992286D01*
X2985714Y-4020857D01*
X3000000Y-4078000D01*
X3000000Y-4149429D01*
X2985714Y-4206572D01*
X2971428Y-4235143D01*
X2957143Y-4249429D01*
X2928571Y-4263714D01*
X2900000Y-4263714D01*
X2871428Y-4249429D01*
X2857143Y-4235143D01*
X2842857Y-4206572D01*
X2828571Y-4149429D01*
X2828571Y-4078000D01*
X2842857Y-4020857D01*
X2857143Y-3992286D01*
X2871428Y-3978000D01*
X2900000Y-3963714D01*
X3128571Y-4235143D02*
X3142857Y-4249429D01*
X3128571Y-4263714D01*
X3114286Y-4249429D01*
X3128571Y-4235143D01*
X3128571Y-4263714D01*
X3328571Y-3963714D02*
X3357143Y-3963714D01*
X3385714Y-3978000D01*
X3400000Y-3992286D01*
X3414285Y-4020857D01*
X3428571Y-4078000D01*
X3428571Y-4149429D01*
X3414285Y-4206572D01*
X3400000Y-4235143D01*
X3385714Y-4249429D01*
X3357143Y-4263714D01*
X3328571Y-4263714D01*
X3300000Y-4249429D01*
X3285714Y-4235143D01*
X3271428Y-4206572D01*
X3257143Y-4149429D01*
X3257143Y-4078000D01*
X3271428Y-4020857D01*
X3285714Y-3992286D01*
X3300000Y-3978000D01*
X3328571Y-3963714D01*
X3528571Y-3963714D02*
X3714285Y-3963714D01*
X3614285Y-4078000D01*
X3657143Y-4078000D01*
X3685714Y-4092286D01*
X3700000Y-4106571D01*
X3714285Y-4135143D01*
X3714285Y-4206572D01*
X3700000Y-4235143D01*
X3685714Y-4249429D01*
X3657143Y-4263714D01*
X3571428Y-4263714D01*
X3542857Y-4249429D01*
X3528571Y-4235143D01*
X3828571Y-3992286D02*
X3842857Y-3978000D01*
X3871428Y-3963714D01*
X3942857Y-3963714D01*
X3971428Y-3978000D01*
X3985714Y-3992286D01*
X4000000Y-4020857D01*
X4000000Y-4049429D01*
X3985714Y-4092286D01*
X3814285Y-4263714D01*
X4000000Y-4263714D01*
X4114286Y-3963714D02*
X4114286Y-4020857D01*
X4228571Y-3963714D02*
X4228571Y-4020857D01*
X4671428Y-4378000D02*
X4657143Y-4363714D01*
X4628571Y-4320857D01*
X4614286Y-4292286D01*
X4600000Y-4249429D01*
X4585714Y-4178000D01*
X4585714Y-4120857D01*
X4600000Y-4049429D01*
X4614286Y-4006571D01*
X4628571Y-3978000D01*
X4657143Y-3935143D01*
X4671428Y-3920857D01*
X4914286Y-4063714D02*
X4914286Y-4263714D01*
X4842857Y-3949429D02*
X4771428Y-4163714D01*
X4957143Y-4163714D01*
X5300000Y-4263714D02*
X5300000Y-3963714D01*
X5428571Y-4263714D02*
X5428571Y-4106571D01*
X5414286Y-4078000D01*
X5385714Y-4063714D01*
X5342857Y-4063714D01*
X5314286Y-4078000D01*
X5300000Y-4092286D01*
X5614285Y-4263714D02*
X5585714Y-4249429D01*
X5571428Y-4235143D01*
X5557143Y-4206572D01*
X5557143Y-4120857D01*
X5571428Y-4092286D01*
X5585714Y-4078000D01*
X5614285Y-4063714D01*
X5657143Y-4063714D01*
X5685714Y-4078000D01*
X5700000Y-4092286D01*
X5714285Y-4120857D01*
X5714285Y-4206572D01*
X5700000Y-4235143D01*
X5685714Y-4249429D01*
X5657143Y-4263714D01*
X5614285Y-4263714D01*
X5885714Y-4263714D02*
X5857143Y-4249429D01*
X5842857Y-4220857D01*
X5842857Y-3963714D01*
X6114286Y-4249429D02*
X6085714Y-4263714D01*
X6028571Y-4263714D01*
X6000000Y-4249429D01*
X5985714Y-4220857D01*
X5985714Y-4106571D01*
X6000000Y-4078000D01*
X6028571Y-4063714D01*
X6085714Y-4063714D01*
X6114286Y-4078000D01*
X6128571Y-4106571D01*
X6128571Y-4135143D01*
X5985714Y-4163714D01*
X6242857Y-4249429D02*
X6271428Y-4263714D01*
X6328571Y-4263714D01*
X6357143Y-4249429D01*
X6371428Y-4220857D01*
X6371428Y-4206572D01*
X6357143Y-4178000D01*
X6328571Y-4163714D01*
X6285714Y-4163714D01*
X6257143Y-4149429D01*
X6242857Y-4120857D01*
X6242857Y-4106571D01*
X6257143Y-4078000D01*
X6285714Y-4063714D01*
X6328571Y-4063714D01*
X6357143Y-4078000D01*
X6471428Y-4378000D02*
X6485714Y-4363714D01*
X6514286Y-4320857D01*
X6528571Y-4292286D01*
X6542857Y-4249429D01*
X6557143Y-4178000D01*
X6557143Y-4120857D01*
X6542857Y-4049429D01*
X6528571Y-4006571D01*
X6514286Y-3978000D01*
X6485714Y-3935143D01*
X6471428Y-3920857D01*
X-45000Y-4479000D02*
X-45000Y-4569000D01*
X-90000Y-4524000D02*
X0Y-4524000D01*
X0Y-4524000D02*
G75*
G03X0Y-4524000I-45000J0D01*
G01*
X328571Y-4359714D02*
X357143Y-4359714D01*
X385714Y-4374000D01*
X400000Y-4388286D01*
X414286Y-4416857D01*
X428571Y-4474000D01*
X428571Y-4545429D01*
X414286Y-4602572D01*
X400000Y-4631143D01*
X385714Y-4645429D01*
X357143Y-4659714D01*
X328571Y-4659714D01*
X300000Y-4645429D01*
X285714Y-4631143D01*
X271429Y-4602572D01*
X257143Y-4545429D01*
X257143Y-4474000D01*
X271429Y-4416857D01*
X285714Y-4388286D01*
X300000Y-4374000D01*
X328571Y-4359714D01*
X557143Y-4631143D02*
X571429Y-4645429D01*
X557143Y-4659714D01*
X542857Y-4645429D01*
X557143Y-4631143D01*
X557143Y-4659714D01*
X714286Y-4659714D02*
X771428Y-4659714D01*
X800000Y-4645429D01*
X814286Y-4631143D01*
X842857Y-4588286D01*
X857143Y-4531143D01*
X857143Y-4416857D01*
X842857Y-4388286D01*
X828571Y-4374000D01*
X800000Y-4359714D01*
X742857Y-4359714D01*
X714286Y-4374000D01*
X700000Y-4388286D01*
X685714Y-4416857D01*
X685714Y-4488286D01*
X700000Y-4516857D01*
X714286Y-4531143D01*
X742857Y-4545429D01*
X800000Y-4545429D01*
X828571Y-4531143D01*
X842857Y-4516857D01*
X857143Y-4488286D01*
X1042857Y-4359714D02*
X1071429Y-4359714D01*
X1100000Y-4374000D01*
X1114286Y-4388286D01*
X1128571Y-4416857D01*
X1142857Y-4474000D01*
X1142857Y-4545429D01*
X1128571Y-4602572D01*
X1114286Y-4631143D01*
X1100000Y-4645429D01*
X1071429Y-4659714D01*
X1042857Y-4659714D01*
X1014286Y-4645429D01*
X1000000Y-4631143D01*
X985714Y-4602572D01*
X971428Y-4545429D01*
X971428Y-4474000D01*
X985714Y-4416857D01*
X1000000Y-4388286D01*
X1014286Y-4374000D01*
X1042857Y-4359714D01*
X1271429Y-4659714D02*
X1271429Y-4459714D01*
X1271429Y-4488286D02*
X1285714Y-4474000D01*
X1314286Y-4459714D01*
X1357143Y-4459714D01*
X1385714Y-4474000D01*
X1400000Y-4502572D01*
X1400000Y-4659714D01*
X1400000Y-4502572D02*
X1414286Y-4474000D01*
X1442857Y-4459714D01*
X1485714Y-4459714D01*
X1514286Y-4474000D01*
X1528571Y-4502572D01*
X1528571Y-4659714D01*
X1671428Y-4659714D02*
X1671428Y-4459714D01*
X1671428Y-4488286D02*
X1685714Y-4474000D01*
X1714286Y-4459714D01*
X1757143Y-4459714D01*
X1785714Y-4474000D01*
X1800000Y-4502572D01*
X1800000Y-4659714D01*
X1800000Y-4502572D02*
X1814286Y-4474000D01*
X1842857Y-4459714D01*
X1885714Y-4459714D01*
X1914286Y-4474000D01*
X1928571Y-4502572D01*
X1928571Y-4659714D01*
X2514286Y-4345429D02*
X2257143Y-4731143D01*
X2900000Y-4359714D02*
X2928571Y-4359714D01*
X2957143Y-4374000D01*
X2971428Y-4388286D01*
X2985714Y-4416857D01*
X3000000Y-4474000D01*
X3000000Y-4545429D01*
X2985714Y-4602572D01*
X2971428Y-4631143D01*
X2957143Y-4645429D01*
X2928571Y-4659714D01*
X2900000Y-4659714D01*
X2871428Y-4645429D01*
X2857143Y-4631143D01*
X2842857Y-4602572D01*
X2828571Y-4545429D01*
X2828571Y-4474000D01*
X2842857Y-4416857D01*
X2857143Y-4388286D01*
X2871428Y-4374000D01*
X2900000Y-4359714D01*
X3128571Y-4631143D02*
X3142857Y-4645429D01*
X3128571Y-4659714D01*
X3114286Y-4645429D01*
X3128571Y-4631143D01*
X3128571Y-4659714D01*
X3328571Y-4359714D02*
X3357143Y-4359714D01*
X3385714Y-4374000D01*
X3400000Y-4388286D01*
X3414285Y-4416857D01*
X3428571Y-4474000D01*
X3428571Y-4545429D01*
X3414285Y-4602572D01*
X3400000Y-4631143D01*
X3385714Y-4645429D01*
X3357143Y-4659714D01*
X3328571Y-4659714D01*
X3300000Y-4645429D01*
X3285714Y-4631143D01*
X3271428Y-4602572D01*
X3257143Y-4545429D01*
X3257143Y-4474000D01*
X3271428Y-4416857D01*
X3285714Y-4388286D01*
X3300000Y-4374000D01*
X3328571Y-4359714D01*
X3528571Y-4359714D02*
X3714285Y-4359714D01*
X3614285Y-4474000D01*
X3657143Y-4474000D01*
X3685714Y-4488286D01*
X3700000Y-4502572D01*
X3714285Y-4531143D01*
X3714285Y-4602572D01*
X3700000Y-4631143D01*
X3685714Y-4645429D01*
X3657143Y-4659714D01*
X3571428Y-4659714D01*
X3542857Y-4645429D01*
X3528571Y-4631143D01*
X3985714Y-4359714D02*
X3842857Y-4359714D01*
X3828571Y-4502572D01*
X3842857Y-4488286D01*
X3871428Y-4474000D01*
X3942857Y-4474000D01*
X3971428Y-4488286D01*
X3985714Y-4502572D01*
X4000000Y-4531143D01*
X4000000Y-4602572D01*
X3985714Y-4631143D01*
X3971428Y-4645429D01*
X3942857Y-4659714D01*
X3871428Y-4659714D01*
X3842857Y-4645429D01*
X3828571Y-4631143D01*
X4114286Y-4359714D02*
X4114286Y-4416857D01*
X4228571Y-4359714D02*
X4228571Y-4416857D01*
X4671428Y-4774000D02*
X4657143Y-4759714D01*
X4628571Y-4716857D01*
X4614286Y-4688286D01*
X4600000Y-4645429D01*
X4585714Y-4574000D01*
X4585714Y-4516857D01*
X4600000Y-4445429D01*
X4614286Y-4402572D01*
X4628571Y-4374000D01*
X4657143Y-4331143D01*
X4671428Y-4316857D01*
X4914286Y-4359714D02*
X4857143Y-4359714D01*
X4828571Y-4374000D01*
X4814286Y-4388286D01*
X4785714Y-4431143D01*
X4771428Y-4488286D01*
X4771428Y-4602572D01*
X4785714Y-4631143D01*
X4800000Y-4645429D01*
X4828571Y-4659714D01*
X4885714Y-4659714D01*
X4914286Y-4645429D01*
X4928571Y-4631143D01*
X4942857Y-4602572D01*
X4942857Y-4531143D01*
X4928571Y-4502572D01*
X4914286Y-4488286D01*
X4885714Y-4474000D01*
X4828571Y-4474000D01*
X4800000Y-4488286D01*
X4785714Y-4502572D01*
X4771428Y-4531143D01*
X5300000Y-4659714D02*
X5300000Y-4359714D01*
X5428571Y-4659714D02*
X5428571Y-4502572D01*
X5414286Y-4474000D01*
X5385714Y-4459714D01*
X5342857Y-4459714D01*
X5314286Y-4474000D01*
X5300000Y-4488286D01*
X5614285Y-4659714D02*
X5585714Y-4645429D01*
X5571428Y-4631143D01*
X5557143Y-4602572D01*
X5557143Y-4516857D01*
X5571428Y-4488286D01*
X5585714Y-4474000D01*
X5614285Y-4459714D01*
X5657143Y-4459714D01*
X5685714Y-4474000D01*
X5700000Y-4488286D01*
X5714285Y-4516857D01*
X5714285Y-4602572D01*
X5700000Y-4631143D01*
X5685714Y-4645429D01*
X5657143Y-4659714D01*
X5614285Y-4659714D01*
X5885714Y-4659714D02*
X5857143Y-4645429D01*
X5842857Y-4616857D01*
X5842857Y-4359714D01*
X6114286Y-4645429D02*
X6085714Y-4659714D01*
X6028571Y-4659714D01*
X6000000Y-4645429D01*
X5985714Y-4616857D01*
X5985714Y-4502572D01*
X6000000Y-4474000D01*
X6028571Y-4459714D01*
X6085714Y-4459714D01*
X6114286Y-4474000D01*
X6128571Y-4502572D01*
X6128571Y-4531143D01*
X5985714Y-4559714D01*
X6242857Y-4645429D02*
X6271428Y-4659714D01*
X6328571Y-4659714D01*
X6357143Y-4645429D01*
X6371428Y-4616857D01*
X6371428Y-4602572D01*
X6357143Y-4574000D01*
X6328571Y-4559714D01*
X6285714Y-4559714D01*
X6257143Y-4545429D01*
X6242857Y-4516857D01*
X6242857Y-4502572D01*
X6257143Y-4474000D01*
X6285714Y-4459714D01*
X6328571Y-4459714D01*
X6357143Y-4474000D01*
X6471428Y-4774000D02*
X6485714Y-4759714D01*
X6514286Y-4716857D01*
X6528571Y-4688286D01*
X6542857Y-4645429D01*
X6557143Y-4574000D01*
X6557143Y-4516857D01*
X6542857Y-4445429D01*
X6528571Y-4402572D01*
X6514286Y-4374000D01*
X6485714Y-4331143D01*
X6471428Y-4316857D01*
X-14644Y-4955356D02*
X-14644Y-4884644D01*
X-85356Y-4884644D01*
X-85356Y-4955356D01*
X-14644Y-4955356D01*
X0Y-4920000D02*
G75*
G03X0Y-4920000I-50000J0D01*
G01*
X428571Y-5055714D02*
X257143Y-5055714D01*
X342857Y-5055714D02*
X342857Y-4755714D01*
X314286Y-4798572D01*
X285714Y-4827143D01*
X257143Y-4841429D01*
X557143Y-5027143D02*
X571429Y-5041429D01*
X557143Y-5055714D01*
X542857Y-5041429D01*
X557143Y-5027143D01*
X557143Y-5055714D01*
X757143Y-4755714D02*
X785714Y-4755714D01*
X814286Y-4770000D01*
X828571Y-4784286D01*
X842857Y-4812857D01*
X857143Y-4870000D01*
X857143Y-4941429D01*
X842857Y-4998572D01*
X828571Y-5027143D01*
X814286Y-5041429D01*
X785714Y-5055714D01*
X757143Y-5055714D01*
X728571Y-5041429D01*
X714286Y-5027143D01*
X700000Y-4998572D01*
X685714Y-4941429D01*
X685714Y-4870000D01*
X700000Y-4812857D01*
X714286Y-4784286D01*
X728571Y-4770000D01*
X757143Y-4755714D01*
X1042857Y-4755714D02*
X1071429Y-4755714D01*
X1100000Y-4770000D01*
X1114286Y-4784286D01*
X1128571Y-4812857D01*
X1142857Y-4870000D01*
X1142857Y-4941429D01*
X1128571Y-4998572D01*
X1114286Y-5027143D01*
X1100000Y-5041429D01*
X1071429Y-5055714D01*
X1042857Y-5055714D01*
X1014286Y-5041429D01*
X1000000Y-5027143D01*
X985714Y-4998572D01*
X971428Y-4941429D01*
X971428Y-4870000D01*
X985714Y-4812857D01*
X1000000Y-4784286D01*
X1014286Y-4770000D01*
X1042857Y-4755714D01*
X1271429Y-5055714D02*
X1271429Y-4855714D01*
X1271429Y-4884286D02*
X1285714Y-4870000D01*
X1314286Y-4855714D01*
X1357143Y-4855714D01*
X1385714Y-4870000D01*
X1400000Y-4898572D01*
X1400000Y-5055714D01*
X1400000Y-4898572D02*
X1414286Y-4870000D01*
X1442857Y-4855714D01*
X1485714Y-4855714D01*
X1514286Y-4870000D01*
X1528571Y-4898572D01*
X1528571Y-5055714D01*
X1671428Y-5055714D02*
X1671428Y-4855714D01*
X1671428Y-4884286D02*
X1685714Y-4870000D01*
X1714286Y-4855714D01*
X1757143Y-4855714D01*
X1785714Y-4870000D01*
X1800000Y-4898572D01*
X1800000Y-5055714D01*
X1800000Y-4898572D02*
X1814286Y-4870000D01*
X1842857Y-4855714D01*
X1885714Y-4855714D01*
X1914286Y-4870000D01*
X1928571Y-4898572D01*
X1928571Y-5055714D01*
X2514286Y-4741429D02*
X2257143Y-5127143D01*
X2900000Y-4755714D02*
X2928571Y-4755714D01*
X2957143Y-4770000D01*
X2971428Y-4784286D01*
X2985714Y-4812857D01*
X3000000Y-4870000D01*
X3000000Y-4941429D01*
X2985714Y-4998572D01*
X2971428Y-5027143D01*
X2957143Y-5041429D01*
X2928571Y-5055714D01*
X2900000Y-5055714D01*
X2871428Y-5041429D01*
X2857143Y-5027143D01*
X2842857Y-4998572D01*
X2828571Y-4941429D01*
X2828571Y-4870000D01*
X2842857Y-4812857D01*
X2857143Y-4784286D01*
X2871428Y-4770000D01*
X2900000Y-4755714D01*
X3128571Y-5027143D02*
X3142857Y-5041429D01*
X3128571Y-5055714D01*
X3114286Y-5041429D01*
X3128571Y-5027143D01*
X3128571Y-5055714D01*
X3328571Y-4755714D02*
X3357143Y-4755714D01*
X3385714Y-4770000D01*
X3400000Y-4784286D01*
X3414285Y-4812857D01*
X3428571Y-4870000D01*
X3428571Y-4941429D01*
X3414285Y-4998572D01*
X3400000Y-5027143D01*
X3385714Y-5041429D01*
X3357143Y-5055714D01*
X3328571Y-5055714D01*
X3300000Y-5041429D01*
X3285714Y-5027143D01*
X3271428Y-4998572D01*
X3257143Y-4941429D01*
X3257143Y-4870000D01*
X3271428Y-4812857D01*
X3285714Y-4784286D01*
X3300000Y-4770000D01*
X3328571Y-4755714D01*
X3528571Y-4755714D02*
X3714285Y-4755714D01*
X3614285Y-4870000D01*
X3657143Y-4870000D01*
X3685714Y-4884286D01*
X3700000Y-4898572D01*
X3714285Y-4927143D01*
X3714285Y-4998572D01*
X3700000Y-5027143D01*
X3685714Y-5041429D01*
X3657143Y-5055714D01*
X3571428Y-5055714D01*
X3542857Y-5041429D01*
X3528571Y-5027143D01*
X3857143Y-5055714D02*
X3914285Y-5055714D01*
X3942857Y-5041429D01*
X3957143Y-5027143D01*
X3985714Y-4984286D01*
X4000000Y-4927143D01*
X4000000Y-4812857D01*
X3985714Y-4784286D01*
X3971428Y-4770000D01*
X3942857Y-4755714D01*
X3885714Y-4755714D01*
X3857143Y-4770000D01*
X3842857Y-4784286D01*
X3828571Y-4812857D01*
X3828571Y-4884286D01*
X3842857Y-4912857D01*
X3857143Y-4927143D01*
X3885714Y-4941429D01*
X3942857Y-4941429D01*
X3971428Y-4927143D01*
X3985714Y-4912857D01*
X4000000Y-4884286D01*
X4114286Y-4755714D02*
X4114286Y-4812857D01*
X4228571Y-4755714D02*
X4228571Y-4812857D01*
X4671428Y-5170000D02*
X4657143Y-5155714D01*
X4628571Y-5112857D01*
X4614286Y-5084286D01*
X4600000Y-5041429D01*
X4585714Y-4970000D01*
X4585714Y-4912857D01*
X4600000Y-4841429D01*
X4614286Y-4798572D01*
X4628571Y-4770000D01*
X4657143Y-4727143D01*
X4671428Y-4712857D01*
X4928571Y-4755714D02*
X4785714Y-4755714D01*
X4771428Y-4898572D01*
X4785714Y-4884286D01*
X4814286Y-4870000D01*
X4885714Y-4870000D01*
X4914286Y-4884286D01*
X4928571Y-4898572D01*
X4942857Y-4927143D01*
X4942857Y-4998572D01*
X4928571Y-5027143D01*
X4914286Y-5041429D01*
X4885714Y-5055714D01*
X4814286Y-5055714D01*
X4785714Y-5041429D01*
X4771428Y-5027143D01*
X5042857Y-4755714D02*
X5242857Y-4755714D01*
X5114286Y-5055714D01*
X5585714Y-5055714D02*
X5585714Y-4755714D01*
X5714285Y-5055714D02*
X5714285Y-4898572D01*
X5700000Y-4870000D01*
X5671428Y-4855714D01*
X5628571Y-4855714D01*
X5600000Y-4870000D01*
X5585714Y-4884286D01*
X5900000Y-5055714D02*
X5871428Y-5041429D01*
X5857143Y-5027143D01*
X5842857Y-4998572D01*
X5842857Y-4912857D01*
X5857143Y-4884286D01*
X5871428Y-4870000D01*
X5900000Y-4855714D01*
X5942857Y-4855714D01*
X5971428Y-4870000D01*
X5985714Y-4884286D01*
X6000000Y-4912857D01*
X6000000Y-4998572D01*
X5985714Y-5027143D01*
X5971428Y-5041429D01*
X5942857Y-5055714D01*
X5900000Y-5055714D01*
X6171428Y-5055714D02*
X6142857Y-5041429D01*
X6128571Y-5012857D01*
X6128571Y-4755714D01*
X6400000Y-5041429D02*
X6371428Y-5055714D01*
X6314286Y-5055714D01*
X6285714Y-5041429D01*
X6271428Y-5012857D01*
X6271428Y-4898572D01*
X6285714Y-4870000D01*
X6314286Y-4855714D01*
X6371428Y-4855714D01*
X6400000Y-4870000D01*
X6414286Y-4898572D01*
X6414286Y-4927143D01*
X6271428Y-4955714D01*
X6528571Y-5041429D02*
X6557143Y-5055714D01*
X6614286Y-5055714D01*
X6642857Y-5041429D01*
X6657143Y-5012857D01*
X6657143Y-4998572D01*
X6642857Y-4970000D01*
X6614286Y-4955714D01*
X6571428Y-4955714D01*
X6542857Y-4941429D01*
X6528571Y-4912857D01*
X6528571Y-4898572D01*
X6542857Y-4870000D01*
X6571428Y-4855714D01*
X6614286Y-4855714D01*
X6642857Y-4870000D01*
X6757143Y-5170000D02*
X6771428Y-5155714D01*
X6800000Y-5112857D01*
X6814286Y-5084286D01*
X6828571Y-5041429D01*
X6842857Y-4970000D01*
X6842857Y-4912857D01*
X6828571Y-4841429D01*
X6814286Y-4798572D01*
X6800000Y-4770000D01*
X6771428Y-4727143D01*
X6757143Y-4712857D01*
X-50800Y-5366800D02*
X0Y-5316000D01*
X-50800Y-5265200D01*
X-101600Y-5316000D01*
X-50800Y-5366800D01*
X0Y-5316000D02*
G75*
G03X0Y-5316000I-50800J0D01*
G01*
X428571Y-5451714D02*
X257143Y-5451714D01*
X342857Y-5451714D02*
X342857Y-5151714D01*
X314286Y-5194572D01*
X285714Y-5223143D01*
X257143Y-5237429D01*
X557143Y-5423143D02*
X571429Y-5437429D01*
X557143Y-5451714D01*
X542857Y-5437429D01*
X557143Y-5423143D01*
X557143Y-5451714D01*
X757143Y-5151714D02*
X785714Y-5151714D01*
X814286Y-5166000D01*
X828571Y-5180286D01*
X842857Y-5208857D01*
X857143Y-5266000D01*
X857143Y-5337429D01*
X842857Y-5394572D01*
X828571Y-5423143D01*
X814286Y-5437429D01*
X785714Y-5451714D01*
X757143Y-5451714D01*
X728571Y-5437429D01*
X714286Y-5423143D01*
X700000Y-5394572D01*
X685714Y-5337429D01*
X685714Y-5266000D01*
X700000Y-5208857D01*
X714286Y-5180286D01*
X728571Y-5166000D01*
X757143Y-5151714D01*
X971428Y-5180286D02*
X985714Y-5166000D01*
X1014286Y-5151714D01*
X1085714Y-5151714D01*
X1114286Y-5166000D01*
X1128571Y-5180286D01*
X1142857Y-5208857D01*
X1142857Y-5237429D01*
X1128571Y-5280286D01*
X957143Y-5451714D01*
X1142857Y-5451714D01*
X1271429Y-5451714D02*
X1271429Y-5251714D01*
X1271429Y-5280286D02*
X1285714Y-5266000D01*
X1314286Y-5251714D01*
X1357143Y-5251714D01*
X1385714Y-5266000D01*
X1400000Y-5294572D01*
X1400000Y-5451714D01*
X1400000Y-5294572D02*
X1414286Y-5266000D01*
X1442857Y-5251714D01*
X1485714Y-5251714D01*
X1514286Y-5266000D01*
X1528571Y-5294572D01*
X1528571Y-5451714D01*
X1671428Y-5451714D02*
X1671428Y-5251714D01*
X1671428Y-5280286D02*
X1685714Y-5266000D01*
X1714286Y-5251714D01*
X1757143Y-5251714D01*
X1785714Y-5266000D01*
X1800000Y-5294572D01*
X1800000Y-5451714D01*
X1800000Y-5294572D02*
X1814286Y-5266000D01*
X1842857Y-5251714D01*
X1885714Y-5251714D01*
X1914286Y-5266000D01*
X1928571Y-5294572D01*
X1928571Y-5451714D01*
X2514286Y-5137429D02*
X2257143Y-5523143D01*
X2900000Y-5151714D02*
X2928571Y-5151714D01*
X2957143Y-5166000D01*
X2971428Y-5180286D01*
X2985714Y-5208857D01*
X3000000Y-5266000D01*
X3000000Y-5337429D01*
X2985714Y-5394572D01*
X2971428Y-5423143D01*
X2957143Y-5437429D01*
X2928571Y-5451714D01*
X2900000Y-5451714D01*
X2871428Y-5437429D01*
X2857143Y-5423143D01*
X2842857Y-5394572D01*
X2828571Y-5337429D01*
X2828571Y-5266000D01*
X2842857Y-5208857D01*
X2857143Y-5180286D01*
X2871428Y-5166000D01*
X2900000Y-5151714D01*
X3128571Y-5423143D02*
X3142857Y-5437429D01*
X3128571Y-5451714D01*
X3114286Y-5437429D01*
X3128571Y-5423143D01*
X3128571Y-5451714D01*
X3328571Y-5151714D02*
X3357143Y-5151714D01*
X3385714Y-5166000D01*
X3400000Y-5180286D01*
X3414285Y-5208857D01*
X3428571Y-5266000D01*
X3428571Y-5337429D01*
X3414285Y-5394572D01*
X3400000Y-5423143D01*
X3385714Y-5437429D01*
X3357143Y-5451714D01*
X3328571Y-5451714D01*
X3300000Y-5437429D01*
X3285714Y-5423143D01*
X3271428Y-5394572D01*
X3257143Y-5337429D01*
X3257143Y-5266000D01*
X3271428Y-5208857D01*
X3285714Y-5180286D01*
X3300000Y-5166000D01*
X3328571Y-5151714D01*
X3685714Y-5251714D02*
X3685714Y-5451714D01*
X3614285Y-5137429D02*
X3542857Y-5351714D01*
X3728571Y-5351714D01*
X3900000Y-5151714D02*
X3928571Y-5151714D01*
X3957143Y-5166000D01*
X3971428Y-5180286D01*
X3985714Y-5208857D01*
X4000000Y-5266000D01*
X4000000Y-5337429D01*
X3985714Y-5394572D01*
X3971428Y-5423143D01*
X3957143Y-5437429D01*
X3928571Y-5451714D01*
X3900000Y-5451714D01*
X3871428Y-5437429D01*
X3857143Y-5423143D01*
X3842857Y-5394572D01*
X3828571Y-5337429D01*
X3828571Y-5266000D01*
X3842857Y-5208857D01*
X3857143Y-5180286D01*
X3871428Y-5166000D01*
X3900000Y-5151714D01*
X4114286Y-5151714D02*
X4114286Y-5208857D01*
X4228571Y-5151714D02*
X4228571Y-5208857D01*
X4671428Y-5566000D02*
X4657143Y-5551714D01*
X4628571Y-5508857D01*
X4614286Y-5480286D01*
X4600000Y-5437429D01*
X4585714Y-5366000D01*
X4585714Y-5308857D01*
X4600000Y-5237429D01*
X4614286Y-5194572D01*
X4628571Y-5166000D01*
X4657143Y-5123143D01*
X4671428Y-5108857D01*
X4914286Y-5151714D02*
X4857143Y-5151714D01*
X4828571Y-5166000D01*
X4814286Y-5180286D01*
X4785714Y-5223143D01*
X4771428Y-5280286D01*
X4771428Y-5394572D01*
X4785714Y-5423143D01*
X4800000Y-5437429D01*
X4828571Y-5451714D01*
X4885714Y-5451714D01*
X4914286Y-5437429D01*
X4928571Y-5423143D01*
X4942857Y-5394572D01*
X4942857Y-5323143D01*
X4928571Y-5294572D01*
X4914286Y-5280286D01*
X4885714Y-5266000D01*
X4828571Y-5266000D01*
X4800000Y-5280286D01*
X4785714Y-5294572D01*
X4771428Y-5323143D01*
X5300000Y-5451714D02*
X5300000Y-5151714D01*
X5428571Y-5451714D02*
X5428571Y-5294572D01*
X5414286Y-5266000D01*
X5385714Y-5251714D01*
X5342857Y-5251714D01*
X5314286Y-5266000D01*
X5300000Y-5280286D01*
X5614285Y-5451714D02*
X5585714Y-5437429D01*
X5571428Y-5423143D01*
X5557143Y-5394572D01*
X5557143Y-5308857D01*
X5571428Y-5280286D01*
X5585714Y-5266000D01*
X5614285Y-5251714D01*
X5657143Y-5251714D01*
X5685714Y-5266000D01*
X5700000Y-5280286D01*
X5714285Y-5308857D01*
X5714285Y-5394572D01*
X5700000Y-5423143D01*
X5685714Y-5437429D01*
X5657143Y-5451714D01*
X5614285Y-5451714D01*
X5885714Y-5451714D02*
X5857143Y-5437429D01*
X5842857Y-5408857D01*
X5842857Y-5151714D01*
X6114286Y-5437429D02*
X6085714Y-5451714D01*
X6028571Y-5451714D01*
X6000000Y-5437429D01*
X5985714Y-5408857D01*
X5985714Y-5294572D01*
X6000000Y-5266000D01*
X6028571Y-5251714D01*
X6085714Y-5251714D01*
X6114286Y-5266000D01*
X6128571Y-5294572D01*
X6128571Y-5323143D01*
X5985714Y-5351714D01*
X6242857Y-5437429D02*
X6271428Y-5451714D01*
X6328571Y-5451714D01*
X6357143Y-5437429D01*
X6371428Y-5408857D01*
X6371428Y-5394572D01*
X6357143Y-5366000D01*
X6328571Y-5351714D01*
X6285714Y-5351714D01*
X6257143Y-5337429D01*
X6242857Y-5308857D01*
X6242857Y-5294572D01*
X6257143Y-5266000D01*
X6285714Y-5251714D01*
X6328571Y-5251714D01*
X6357143Y-5266000D01*
X6471428Y-5566000D02*
X6485714Y-5551714D01*
X6514286Y-5508857D01*
X6528571Y-5480286D01*
X6542857Y-5437429D01*
X6557143Y-5366000D01*
X6557143Y-5308857D01*
X6542857Y-5237429D01*
X6528571Y-5194572D01*
X6514286Y-5166000D01*
X6485714Y-5123143D01*
X6471428Y-5108857D01*
X-66000Y-5646000D02*
X-66000Y-5778000D01*
X-132000Y-5712000D02*
X0Y-5712000D01*
X-19331Y-5758670D02*
X-19331Y-5665331D01*
X-112670Y-5665331D01*
X-112670Y-5758670D01*
X-19331Y-5758670D01*
X428571Y-5847714D02*
X257143Y-5847714D01*
X342857Y-5847714D02*
X342857Y-5547714D01*
X314286Y-5590572D01*
X285714Y-5619143D01*
X257143Y-5633429D01*
X557143Y-5819143D02*
X571429Y-5833429D01*
X557143Y-5847714D01*
X542857Y-5833429D01*
X557143Y-5819143D01*
X557143Y-5847714D01*
X671428Y-5547714D02*
X857143Y-5547714D01*
X757143Y-5662000D01*
X800000Y-5662000D01*
X828571Y-5676286D01*
X842857Y-5690571D01*
X857143Y-5719143D01*
X857143Y-5790571D01*
X842857Y-5819143D01*
X828571Y-5833429D01*
X800000Y-5847714D01*
X714286Y-5847714D01*
X685714Y-5833429D01*
X671428Y-5819143D01*
X971428Y-5576286D02*
X985714Y-5562000D01*
X1014286Y-5547714D01*
X1085714Y-5547714D01*
X1114286Y-5562000D01*
X1128571Y-5576286D01*
X1142857Y-5604857D01*
X1142857Y-5633429D01*
X1128571Y-5676286D01*
X957143Y-5847714D01*
X1142857Y-5847714D01*
X1271429Y-5847714D02*
X1271429Y-5647714D01*
X1271429Y-5676286D02*
X1285714Y-5662000D01*
X1314286Y-5647714D01*
X1357143Y-5647714D01*
X1385714Y-5662000D01*
X1400000Y-5690571D01*
X1400000Y-5847714D01*
X1400000Y-5690571D02*
X1414286Y-5662000D01*
X1442857Y-5647714D01*
X1485714Y-5647714D01*
X1514286Y-5662000D01*
X1528571Y-5690571D01*
X1528571Y-5847714D01*
X1671428Y-5847714D02*
X1671428Y-5647714D01*
X1671428Y-5676286D02*
X1685714Y-5662000D01*
X1714286Y-5647714D01*
X1757143Y-5647714D01*
X1785714Y-5662000D01*
X1800000Y-5690571D01*
X1800000Y-5847714D01*
X1800000Y-5690571D02*
X1814286Y-5662000D01*
X1842857Y-5647714D01*
X1885714Y-5647714D01*
X1914286Y-5662000D01*
X1928571Y-5690571D01*
X1928571Y-5847714D01*
X2514286Y-5533429D02*
X2257143Y-5919143D01*
X2900000Y-5547714D02*
X2928571Y-5547714D01*
X2957143Y-5562000D01*
X2971428Y-5576286D01*
X2985714Y-5604857D01*
X3000000Y-5662000D01*
X3000000Y-5733429D01*
X2985714Y-5790571D01*
X2971428Y-5819143D01*
X2957143Y-5833429D01*
X2928571Y-5847714D01*
X2900000Y-5847714D01*
X2871428Y-5833429D01*
X2857143Y-5819143D01*
X2842857Y-5790571D01*
X2828571Y-5733429D01*
X2828571Y-5662000D01*
X2842857Y-5604857D01*
X2857143Y-5576286D01*
X2871428Y-5562000D01*
X2900000Y-5547714D01*
X3128571Y-5819143D02*
X3142857Y-5833429D01*
X3128571Y-5847714D01*
X3114286Y-5833429D01*
X3128571Y-5819143D01*
X3128571Y-5847714D01*
X3328571Y-5547714D02*
X3357143Y-5547714D01*
X3385714Y-5562000D01*
X3400000Y-5576286D01*
X3414285Y-5604857D01*
X3428571Y-5662000D01*
X3428571Y-5733429D01*
X3414285Y-5790571D01*
X3400000Y-5819143D01*
X3385714Y-5833429D01*
X3357143Y-5847714D01*
X3328571Y-5847714D01*
X3300000Y-5833429D01*
X3285714Y-5819143D01*
X3271428Y-5790571D01*
X3257143Y-5733429D01*
X3257143Y-5662000D01*
X3271428Y-5604857D01*
X3285714Y-5576286D01*
X3300000Y-5562000D01*
X3328571Y-5547714D01*
X3700000Y-5547714D02*
X3557143Y-5547714D01*
X3542857Y-5690571D01*
X3557143Y-5676286D01*
X3585714Y-5662000D01*
X3657143Y-5662000D01*
X3685714Y-5676286D01*
X3700000Y-5690571D01*
X3714285Y-5719143D01*
X3714285Y-5790571D01*
X3700000Y-5819143D01*
X3685714Y-5833429D01*
X3657143Y-5847714D01*
X3585714Y-5847714D01*
X3557143Y-5833429D01*
X3542857Y-5819143D01*
X3828571Y-5576286D02*
X3842857Y-5562000D01*
X3871428Y-5547714D01*
X3942857Y-5547714D01*
X3971428Y-5562000D01*
X3985714Y-5576286D01*
X4000000Y-5604857D01*
X4000000Y-5633429D01*
X3985714Y-5676286D01*
X3814285Y-5847714D01*
X4000000Y-5847714D01*
X4114286Y-5547714D02*
X4114286Y-5604857D01*
X4228571Y-5547714D02*
X4228571Y-5604857D01*
X4671428Y-5962000D02*
X4657143Y-5947714D01*
X4628571Y-5904857D01*
X4614286Y-5876286D01*
X4600000Y-5833429D01*
X4585714Y-5762000D01*
X4585714Y-5704857D01*
X4600000Y-5633429D01*
X4614286Y-5590572D01*
X4628571Y-5562000D01*
X4657143Y-5519143D01*
X4671428Y-5504857D01*
X4771428Y-5576286D02*
X4785714Y-5562000D01*
X4814286Y-5547714D01*
X4885714Y-5547714D01*
X4914286Y-5562000D01*
X4928571Y-5576286D01*
X4942857Y-5604857D01*
X4942857Y-5633429D01*
X4928571Y-5676286D01*
X4757143Y-5847714D01*
X4942857Y-5847714D01*
X5300000Y-5847714D02*
X5300000Y-5547714D01*
X5428571Y-5847714D02*
X5428571Y-5690571D01*
X5414286Y-5662000D01*
X5385714Y-5647714D01*
X5342857Y-5647714D01*
X5314286Y-5662000D01*
X5300000Y-5676286D01*
X5614285Y-5847714D02*
X5585714Y-5833429D01*
X5571428Y-5819143D01*
X5557143Y-5790571D01*
X5557143Y-5704857D01*
X5571428Y-5676286D01*
X5585714Y-5662000D01*
X5614285Y-5647714D01*
X5657143Y-5647714D01*
X5685714Y-5662000D01*
X5700000Y-5676286D01*
X5714285Y-5704857D01*
X5714285Y-5790571D01*
X5700000Y-5819143D01*
X5685714Y-5833429D01*
X5657143Y-5847714D01*
X5614285Y-5847714D01*
X5885714Y-5847714D02*
X5857143Y-5833429D01*
X5842857Y-5804857D01*
X5842857Y-5547714D01*
X6114286Y-5833429D02*
X6085714Y-5847714D01*
X6028571Y-5847714D01*
X6000000Y-5833429D01*
X5985714Y-5804857D01*
X5985714Y-5690571D01*
X6000000Y-5662000D01*
X6028571Y-5647714D01*
X6085714Y-5647714D01*
X6114286Y-5662000D01*
X6128571Y-5690571D01*
X6128571Y-5719143D01*
X5985714Y-5747714D01*
X6242857Y-5833429D02*
X6271428Y-5847714D01*
X6328571Y-5847714D01*
X6357143Y-5833429D01*
X6371428Y-5804857D01*
X6371428Y-5790571D01*
X6357143Y-5762000D01*
X6328571Y-5747714D01*
X6285714Y-5747714D01*
X6257143Y-5733429D01*
X6242857Y-5704857D01*
X6242857Y-5690571D01*
X6257143Y-5662000D01*
X6285714Y-5647714D01*
X6328571Y-5647714D01*
X6357143Y-5662000D01*
X6471428Y-5962000D02*
X6485714Y-5947714D01*
X6514286Y-5904857D01*
X6528571Y-5876286D01*
X6542857Y-5833429D01*
X6557143Y-5762000D01*
X6557143Y-5704857D01*
X6542857Y-5633429D01*
X6528571Y-5590572D01*
X6514286Y-5562000D01*
X6485714Y-5519143D01*
X6471428Y-5504857D01*
X-110000Y-5998000D02*
X-110000Y-6218000D01*
X-220000Y-6108000D02*
X0Y-6108000D01*
X-110000Y-6218000D02*
X0Y-6108000D01*
X-110000Y-5998000D01*
X-220000Y-6108000D01*
X-110000Y-6218000D01*
X257143Y-5972286D02*
X271429Y-5958000D01*
X300000Y-5943714D01*
X371428Y-5943714D01*
X400000Y-5958000D01*
X414286Y-5972286D01*
X428571Y-6000857D01*
X428571Y-6029429D01*
X414286Y-6072286D01*
X242857Y-6243714D01*
X428571Y-6243714D01*
X557143Y-6215143D02*
X571429Y-6229429D01*
X557143Y-6243714D01*
X542857Y-6229429D01*
X557143Y-6215143D01*
X557143Y-6243714D01*
X685714Y-5972286D02*
X700000Y-5958000D01*
X728571Y-5943714D01*
X800000Y-5943714D01*
X828571Y-5958000D01*
X842857Y-5972286D01*
X857143Y-6000857D01*
X857143Y-6029429D01*
X842857Y-6072286D01*
X671428Y-6243714D01*
X857143Y-6243714D01*
X1042857Y-5943714D02*
X1071429Y-5943714D01*
X1100000Y-5958000D01*
X1114286Y-5972286D01*
X1128571Y-6000857D01*
X1142857Y-6058000D01*
X1142857Y-6129429D01*
X1128571Y-6186571D01*
X1114286Y-6215143D01*
X1100000Y-6229429D01*
X1071429Y-6243714D01*
X1042857Y-6243714D01*
X1014286Y-6229429D01*
X1000000Y-6215143D01*
X985714Y-6186571D01*
X971428Y-6129429D01*
X971428Y-6058000D01*
X985714Y-6000857D01*
X1000000Y-5972286D01*
X1014286Y-5958000D01*
X1042857Y-5943714D01*
X1271429Y-6243714D02*
X1271429Y-6043714D01*
X1271429Y-6072286D02*
X1285714Y-6058000D01*
X1314286Y-6043714D01*
X1357143Y-6043714D01*
X1385714Y-6058000D01*
X1400000Y-6086571D01*
X1400000Y-6243714D01*
X1400000Y-6086571D02*
X1414286Y-6058000D01*
X1442857Y-6043714D01*
X1485714Y-6043714D01*
X1514286Y-6058000D01*
X1528571Y-6086571D01*
X1528571Y-6243714D01*
X1671428Y-6243714D02*
X1671428Y-6043714D01*
X1671428Y-6072286D02*
X1685714Y-6058000D01*
X1714286Y-6043714D01*
X1757143Y-6043714D01*
X1785714Y-6058000D01*
X1800000Y-6086571D01*
X1800000Y-6243714D01*
X1800000Y-6086571D02*
X1814286Y-6058000D01*
X1842857Y-6043714D01*
X1885714Y-6043714D01*
X1914286Y-6058000D01*
X1928571Y-6086571D01*
X1928571Y-6243714D01*
X2514286Y-5929429D02*
X2257143Y-6315143D01*
X2900000Y-5943714D02*
X2928571Y-5943714D01*
X2957143Y-5958000D01*
X2971428Y-5972286D01*
X2985714Y-6000857D01*
X3000000Y-6058000D01*
X3000000Y-6129429D01*
X2985714Y-6186571D01*
X2971428Y-6215143D01*
X2957143Y-6229429D01*
X2928571Y-6243714D01*
X2900000Y-6243714D01*
X2871428Y-6229429D01*
X2857143Y-6215143D01*
X2842857Y-6186571D01*
X2828571Y-6129429D01*
X2828571Y-6058000D01*
X2842857Y-6000857D01*
X2857143Y-5972286D01*
X2871428Y-5958000D01*
X2900000Y-5943714D01*
X3128571Y-6215143D02*
X3142857Y-6229429D01*
X3128571Y-6243714D01*
X3114286Y-6229429D01*
X3128571Y-6215143D01*
X3128571Y-6243714D01*
X3328571Y-5943714D02*
X3357143Y-5943714D01*
X3385714Y-5958000D01*
X3400000Y-5972286D01*
X3414285Y-6000857D01*
X3428571Y-6058000D01*
X3428571Y-6129429D01*
X3414285Y-6186571D01*
X3400000Y-6215143D01*
X3385714Y-6229429D01*
X3357143Y-6243714D01*
X3328571Y-6243714D01*
X3300000Y-6229429D01*
X3285714Y-6215143D01*
X3271428Y-6186571D01*
X3257143Y-6129429D01*
X3257143Y-6058000D01*
X3271428Y-6000857D01*
X3285714Y-5972286D01*
X3300000Y-5958000D01*
X3328571Y-5943714D01*
X3600000Y-6072286D02*
X3571428Y-6058000D01*
X3557143Y-6043714D01*
X3542857Y-6015143D01*
X3542857Y-6000857D01*
X3557143Y-5972286D01*
X3571428Y-5958000D01*
X3600000Y-5943714D01*
X3657143Y-5943714D01*
X3685714Y-5958000D01*
X3700000Y-5972286D01*
X3714285Y-6000857D01*
X3714285Y-6015143D01*
X3700000Y-6043714D01*
X3685714Y-6058000D01*
X3657143Y-6072286D01*
X3600000Y-6072286D01*
X3571428Y-6086571D01*
X3557143Y-6100857D01*
X3542857Y-6129429D01*
X3542857Y-6186571D01*
X3557143Y-6215143D01*
X3571428Y-6229429D01*
X3600000Y-6243714D01*
X3657143Y-6243714D01*
X3685714Y-6229429D01*
X3700000Y-6215143D01*
X3714285Y-6186571D01*
X3714285Y-6129429D01*
X3700000Y-6100857D01*
X3685714Y-6086571D01*
X3657143Y-6072286D01*
X3814285Y-5943714D02*
X4014285Y-5943714D01*
X3885714Y-6243714D01*
X4114286Y-5943714D02*
X4114286Y-6000857D01*
X4228571Y-5943714D02*
X4228571Y-6000857D01*
X4671428Y-6358000D02*
X4657143Y-6343714D01*
X4628571Y-6300857D01*
X4614286Y-6272286D01*
X4600000Y-6229429D01*
X4585714Y-6158000D01*
X4585714Y-6100857D01*
X4600000Y-6029429D01*
X4614286Y-5986571D01*
X4628571Y-5958000D01*
X4657143Y-5915143D01*
X4671428Y-5900857D01*
X4914286Y-6043714D02*
X4914286Y-6243714D01*
X4842857Y-5929429D02*
X4771428Y-6143714D01*
X4957143Y-6143714D01*
X5300000Y-6243714D02*
X5300000Y-5943714D01*
X5428571Y-6243714D02*
X5428571Y-6086571D01*
X5414286Y-6058000D01*
X5385714Y-6043714D01*
X5342857Y-6043714D01*
X5314286Y-6058000D01*
X5300000Y-6072286D01*
X5614285Y-6243714D02*
X5585714Y-6229429D01*
X5571428Y-6215143D01*
X5557143Y-6186571D01*
X5557143Y-6100857D01*
X5571428Y-6072286D01*
X5585714Y-6058000D01*
X5614285Y-6043714D01*
X5657143Y-6043714D01*
X5685714Y-6058000D01*
X5700000Y-6072286D01*
X5714285Y-6100857D01*
X5714285Y-6186571D01*
X5700000Y-6215143D01*
X5685714Y-6229429D01*
X5657143Y-6243714D01*
X5614285Y-6243714D01*
X5885714Y-6243714D02*
X5857143Y-6229429D01*
X5842857Y-6200857D01*
X5842857Y-5943714D01*
X6114286Y-6229429D02*
X6085714Y-6243714D01*
X6028571Y-6243714D01*
X6000000Y-6229429D01*
X5985714Y-6200857D01*
X5985714Y-6086571D01*
X6000000Y-6058000D01*
X6028571Y-6043714D01*
X6085714Y-6043714D01*
X6114286Y-6058000D01*
X6128571Y-6086571D01*
X6128571Y-6115143D01*
X5985714Y-6143714D01*
X6242857Y-6229429D02*
X6271428Y-6243714D01*
X6328571Y-6243714D01*
X6357143Y-6229429D01*
X6371428Y-6200857D01*
X6371428Y-6186571D01*
X6357143Y-6158000D01*
X6328571Y-6143714D01*
X6285714Y-6143714D01*
X6257143Y-6129429D01*
X6242857Y-6100857D01*
X6242857Y-6086571D01*
X6257143Y-6058000D01*
X6285714Y-6043714D01*
X6328571Y-6043714D01*
X6357143Y-6058000D01*
X6471428Y-6358000D02*
X6485714Y-6343714D01*
X6514286Y-6300857D01*
X6528571Y-6272286D01*
X6542857Y-6229429D01*
X6557143Y-6158000D01*
X6557143Y-6100857D01*
X6542857Y-6029429D01*
X6528571Y-5986571D01*
X6514286Y-5958000D01*
X6485714Y-5915143D01*
X6471428Y-5900857D01*
X-300000Y-6804000D02*
X0Y-6504000D01*
X-300000Y-6204000D01*
X-600000Y-6504000D01*
X-300000Y-6804000D01*
X-87866Y-6716134D02*
X-87866Y-6291866D01*
X-512134Y-6291866D01*
X-512134Y-6716134D01*
X-87866Y-6716134D01*
X400000Y-6339714D02*
X342857Y-6339714D01*
X314286Y-6354000D01*
X300000Y-6368286D01*
X271429Y-6411143D01*
X257143Y-6468286D01*
X257143Y-6582571D01*
X271429Y-6611143D01*
X285714Y-6625429D01*
X314286Y-6639714D01*
X371428Y-6639714D01*
X400000Y-6625429D01*
X414286Y-6611143D01*
X428571Y-6582571D01*
X428571Y-6511143D01*
X414286Y-6482571D01*
X400000Y-6468286D01*
X371428Y-6454000D01*
X314286Y-6454000D01*
X285714Y-6468286D01*
X271429Y-6482571D01*
X257143Y-6511143D01*
X557143Y-6611143D02*
X571429Y-6625429D01*
X557143Y-6639714D01*
X542857Y-6625429D01*
X557143Y-6611143D01*
X557143Y-6639714D01*
X757143Y-6339714D02*
X785714Y-6339714D01*
X814286Y-6354000D01*
X828571Y-6368286D01*
X842857Y-6396857D01*
X857143Y-6454000D01*
X857143Y-6525429D01*
X842857Y-6582571D01*
X828571Y-6611143D01*
X814286Y-6625429D01*
X785714Y-6639714D01*
X757143Y-6639714D01*
X728571Y-6625429D01*
X714286Y-6611143D01*
X700000Y-6582571D01*
X685714Y-6525429D01*
X685714Y-6454000D01*
X700000Y-6396857D01*
X714286Y-6368286D01*
X728571Y-6354000D01*
X757143Y-6339714D01*
X1042857Y-6339714D02*
X1071429Y-6339714D01*
X1100000Y-6354000D01*
X1114286Y-6368286D01*
X1128571Y-6396857D01*
X1142857Y-6454000D01*
X1142857Y-6525429D01*
X1128571Y-6582571D01*
X1114286Y-6611143D01*
X1100000Y-6625429D01*
X1071429Y-6639714D01*
X1042857Y-6639714D01*
X1014286Y-6625429D01*
X1000000Y-6611143D01*
X985714Y-6582571D01*
X971428Y-6525429D01*
X971428Y-6454000D01*
X985714Y-6396857D01*
X1000000Y-6368286D01*
X1014286Y-6354000D01*
X1042857Y-6339714D01*
X1271429Y-6639714D02*
X1271429Y-6439714D01*
X1271429Y-6468286D02*
X1285714Y-6454000D01*
X1314286Y-6439714D01*
X1357143Y-6439714D01*
X1385714Y-6454000D01*
X1400000Y-6482571D01*
X1400000Y-6639714D01*
X1400000Y-6482571D02*
X1414286Y-6454000D01*
X1442857Y-6439714D01*
X1485714Y-6439714D01*
X1514286Y-6454000D01*
X1528571Y-6482571D01*
X1528571Y-6639714D01*
X1671428Y-6639714D02*
X1671428Y-6439714D01*
X1671428Y-6468286D02*
X1685714Y-6454000D01*
X1714286Y-6439714D01*
X1757143Y-6439714D01*
X1785714Y-6454000D01*
X1800000Y-6482571D01*
X1800000Y-6639714D01*
X1800000Y-6482571D02*
X1814286Y-6454000D01*
X1842857Y-6439714D01*
X1885714Y-6439714D01*
X1914286Y-6454000D01*
X1928571Y-6482571D01*
X1928571Y-6639714D01*
X2514286Y-6325429D02*
X2257143Y-6711143D01*
X2900000Y-6339714D02*
X2928571Y-6339714D01*
X2957143Y-6354000D01*
X2971428Y-6368286D01*
X2985714Y-6396857D01*
X3000000Y-6454000D01*
X3000000Y-6525429D01*
X2985714Y-6582571D01*
X2971428Y-6611143D01*
X2957143Y-6625429D01*
X2928571Y-6639714D01*
X2900000Y-6639714D01*
X2871428Y-6625429D01*
X2857143Y-6611143D01*
X2842857Y-6582571D01*
X2828571Y-6525429D01*
X2828571Y-6454000D01*
X2842857Y-6396857D01*
X2857143Y-6368286D01*
X2871428Y-6354000D01*
X2900000Y-6339714D01*
X3128571Y-6611143D02*
X3142857Y-6625429D01*
X3128571Y-6639714D01*
X3114286Y-6625429D01*
X3128571Y-6611143D01*
X3128571Y-6639714D01*
X3257143Y-6368286D02*
X3271428Y-6354000D01*
X3300000Y-6339714D01*
X3371428Y-6339714D01*
X3400000Y-6354000D01*
X3414285Y-6368286D01*
X3428571Y-6396857D01*
X3428571Y-6425429D01*
X3414285Y-6468286D01*
X3242857Y-6639714D01*
X3428571Y-6639714D01*
X3528571Y-6339714D02*
X3714285Y-6339714D01*
X3614285Y-6454000D01*
X3657143Y-6454000D01*
X3685714Y-6468286D01*
X3700000Y-6482571D01*
X3714285Y-6511143D01*
X3714285Y-6582571D01*
X3700000Y-6611143D01*
X3685714Y-6625429D01*
X3657143Y-6639714D01*
X3571428Y-6639714D01*
X3542857Y-6625429D01*
X3528571Y-6611143D01*
X3971428Y-6339714D02*
X3914285Y-6339714D01*
X3885714Y-6354000D01*
X3871428Y-6368286D01*
X3842857Y-6411143D01*
X3828571Y-6468286D01*
X3828571Y-6582571D01*
X3842857Y-6611143D01*
X3857143Y-6625429D01*
X3885714Y-6639714D01*
X3942857Y-6639714D01*
X3971428Y-6625429D01*
X3985714Y-6611143D01*
X4000000Y-6582571D01*
X4000000Y-6511143D01*
X3985714Y-6482571D01*
X3971428Y-6468286D01*
X3942857Y-6454000D01*
X3885714Y-6454000D01*
X3857143Y-6468286D01*
X3842857Y-6482571D01*
X3828571Y-6511143D01*
X4114286Y-6339714D02*
X4114286Y-6396857D01*
X4228571Y-6339714D02*
X4228571Y-6396857D01*
X4671428Y-6754000D02*
X4657143Y-6739714D01*
X4628571Y-6696857D01*
X4614286Y-6668286D01*
X4600000Y-6625429D01*
X4585714Y-6554000D01*
X4585714Y-6496857D01*
X4600000Y-6425429D01*
X4614286Y-6382571D01*
X4628571Y-6354000D01*
X4657143Y-6311143D01*
X4671428Y-6296857D01*
X4942857Y-6639714D02*
X4771428Y-6639714D01*
X4857143Y-6639714D02*
X4857143Y-6339714D01*
X4828571Y-6382571D01*
X4800000Y-6411143D01*
X4771428Y-6425429D01*
X5300000Y-6639714D02*
X5300000Y-6339714D01*
X5428571Y-6639714D02*
X5428571Y-6482571D01*
X5414286Y-6454000D01*
X5385714Y-6439714D01*
X5342857Y-6439714D01*
X5314286Y-6454000D01*
X5300000Y-6468286D01*
X5614285Y-6639714D02*
X5585714Y-6625429D01*
X5571428Y-6611143D01*
X5557143Y-6582571D01*
X5557143Y-6496857D01*
X5571428Y-6468286D01*
X5585714Y-6454000D01*
X5614285Y-6439714D01*
X5657143Y-6439714D01*
X5685714Y-6454000D01*
X5700000Y-6468286D01*
X5714285Y-6496857D01*
X5714285Y-6582571D01*
X5700000Y-6611143D01*
X5685714Y-6625429D01*
X5657143Y-6639714D01*
X5614285Y-6639714D01*
X5885714Y-6639714D02*
X5857143Y-6625429D01*
X5842857Y-6596857D01*
X5842857Y-6339714D01*
X6114286Y-6625429D02*
X6085714Y-6639714D01*
X6028571Y-6639714D01*
X6000000Y-6625429D01*
X5985714Y-6596857D01*
X5985714Y-6482571D01*
X6000000Y-6454000D01*
X6028571Y-6439714D01*
X6085714Y-6439714D01*
X6114286Y-6454000D01*
X6128571Y-6482571D01*
X6128571Y-6511143D01*
X5985714Y-6539714D01*
X6228571Y-6754000D02*
X6242857Y-6739714D01*
X6271428Y-6696857D01*
X6285714Y-6668286D01*
X6300000Y-6625429D01*
X6314286Y-6554000D01*
X6314286Y-6496857D01*
X6300000Y-6425429D01*
X6285714Y-6382571D01*
X6271428Y-6354000D01*
X6242857Y-6311143D01*
X6228571Y-6296857D01*
M02*
